<?xml version="1.0" encoding="UTF-8" standalone="no"?>
<!DOCTYPE svg PUBLIC "-//W3C//DTD SVG 1.1//EN" "http://www.w3.org/Graphics/SVG/1.1/DTD/svg11.dtd">
<svg width="100%" height="100%" viewBox="0 0 288 288" version="1.1" xmlns="http://www.w3.org/2000/svg" xmlns:xlink="http://www.w3.org/1999/xlink" xml:space="preserve" xmlns:serif="http://www.serif.com/" style="fill-rule:evenodd;clip-rule:evenodd;stroke-linejoin:round;stroke-miterlimit:2;">
    <rect x="0" y="0" width="288" height="288" style="fill:white;"/>
    <rect id="Background" x="0" y="0" width="288" height="288" style="fill:rgb(35,222,99);"/>
    <g id="folder" transform="matrix(4,0,0,4,-312,-1436)">
        <g transform="matrix(0.25,0,0,0.25,78,359)">
            <path d="M248,208C248,214.623 242.623,220 236,220L52,220C45.377,220 40,214.623 40,208L40,80L248,80L248,208Z" style="fill:white;fill-opacity:0.3;"/>
        </g>
        <g transform="matrix(0.25,0,0,0.25,78,359)">
            <path d="M96,72L256,72L256,208C256,219.038 247.038,228 236,228L52,228C40.962,228 32,219.038 32,208L32,72L40,72L40,56L96,56L96,72ZM248,208C248,214.623 242.623,220 236,220L52,220C45.377,220 40,214.623 40,208L40,80L248,80L248,208ZM88,72L88,64L48,64L48,72L88,72Z" style="fill-opacity:0.5;"/>
        </g>
        <g transform="matrix(1.42857,0,0,2,-38.5714,-357)">
            <rect x="90" y="366" width="7" height="1" style="fill:white;fill-opacity:0.6;"/>
        </g>
    </g>
    <g id="Input---Folder-AUX-1" serif:id="Input-/-Folder-AUX-1" transform="matrix(0.569892,0,0,0.569892,63.6667,67.6667)">
        <path id="Icon-fill" d="M144,66C187.078,66 222,100.922 222,144C222,187.078 187.078,222 144,222C100.922,222 66,187.078 66,144C66,100.922 100.922,66 144,66ZM144,108C124.118,108 108,124.118 108,144C108,163.882 124.118,180 144,180C163.882,180 180,163.882 180,144C180,124.118 163.882,108 144,108ZM168,132C169.996,132 171.954,132.162 173.862,132.475C175.243,136.051 176,139.937 176,144C176,161.673 161.673,176 144,176C139.937,176 136.051,175.243 132.475,173.862C132.162,171.954 132,169.996 132,168C132,148.118 148.118,132 168,132Z" style="fill:white;fill-opacity:0.6;fill-rule:nonzero;"/>
        <path id="shadow-with-outline" d="M144,62C174.546,62 201.192,78.702 215.301,103.473C235.129,118.034 248,141.514 248,168C248,212.183 212.183,248 168,248C141.514,248 118.034,235.129 103.474,215.3C78.702,201.192 62,174.546 62,144C62,98.713 98.713,62 144,62ZM144,66C100.922,66 66,100.922 66,144C66,187.078 100.922,222 144,222C187.078,222 222,187.078 222,144C222,100.922 187.078,66 144,66ZM144,108C163.882,108 180,124.118 180,144C180,163.882 163.882,180 144,180C124.118,180 108,163.882 108,144C108,124.118 124.118,108 144,108ZM168,132C148.118,132 132,148.118 132,168C132,169.996 132.162,171.954 132.475,173.862C136.051,175.243 139.937,176 144,176C161.673,176 176,161.673 176,144C176,139.937 175.243,136.051 173.862,132.475C171.954,132.162 169.996,132 168,132Z" style="fill-rule:nonzero;"/>
    </g>
</svg>
