<?xml version="1.0" encoding="UTF-8" standalone="no"?>
<!DOCTYPE svg PUBLIC "-//W3C//DTD SVG 1.1//EN" "http://www.w3.org/Graphics/SVG/1.1/DTD/svg11.dtd">
<svg width="100%" height="100%" viewBox="0 0 288 288" version="1.1" xmlns="http://www.w3.org/2000/svg" xmlns:xlink="http://www.w3.org/1999/xlink" xml:space="preserve" xmlns:serif="http://www.serif.com/" style="fill-rule:evenodd;clip-rule:evenodd;stroke-linejoin:round;stroke-miterlimit:2;">
    <rect x="0" y="0" width="288" height="288" style="fill:white;"/>
    <rect id="Background" x="0" y="0" width="288" height="288" style="fill:rgb(242,49,91);"/>
    <g id="folder" transform="matrix(4,0,0,4,-312,-1436)">
        <g transform="matrix(0.25,0,0,0.25,78,359)">
            <path d="M248,208C248,214.623 242.623,220 236,220L52,220C45.377,220 40,214.623 40,208L40,80L248,80L248,208Z" style="fill:white;fill-opacity:0.2;"/>
        </g>
        <g transform="matrix(0.25,0,0,0.25,78,359)">
            <path d="M96,72L256,72L256,208C256,219.038 247.038,228 236,228L52,228C40.962,228 32,219.038 32,208L32,72L40,72L40,56L96,56L96,72ZM248,208C248,214.623 242.623,220 236,220L52,220C45.377,220 40,214.623 40,208L40,80L248,80L248,208ZM88,72L88,64L48,64L48,72L88,72Z" style="fill-opacity:0.5;"/>
        </g>
        <g transform="matrix(1.42857,0,0,2,-38.5714,-357)">
            <rect x="90" y="366" width="7" height="1" style="fill:white;fill-opacity:0.5;"/>
        </g>
    </g>
    <g id="Input---Game" serif:id="Input-/-Game" transform="matrix(0.734511,0,0,0.734511,38.0888,41.6079)">
        <path id="Icon-fill" d="M91.675,86L196.325,86C206.812,86 215.841,93.402 217.897,103.685L234.318,185.787C236.246,195.427 230.694,204.994 221.368,208.103C211.985,211.23 201.73,206.981 197.31,198.133L181.81,167.106C181.472,166.428 180.779,166 180.021,166L108.091,166C107.335,166 106.643,166.427 106.304,167.103L90.724,198.145C86.284,206.991 76.022,211.232 66.632,208.103C57.306,204.994 51.754,195.427 53.682,185.787L70.103,103.685C72.159,93.402 81.188,86 91.675,86Z" style="fill:white;fill-opacity:0.5;fill-rule:nonzero;"/>
        <path id="shadow-with-outline" d="M196.325,82C208.361,82 218.773,90.251 221.589,101.859C228.767,104.864 234.255,111.276 235.859,119.293L252.279,201.395C254.405,212.024 248.283,222.572 238,226C227.673,229.442 216.386,224.765 211.521,215.026L210.335,212.647C203.677,211.291 197.71,207.117 194.234,200.872L193.732,199.92L185.773,183.996L124.091,184L108.511,215.042C103.626,224.776 92.332,229.444 82,226C75.488,223.829 70.645,218.803 68.509,212.71L67.408,212.479L66.309,212.19L65.368,211.897C54.431,208.252 47.801,197.238 49.591,185.944L49.76,185.003L66.18,102.901C68.545,91.076 78.711,82.475 90.674,82.019L91.675,82L196.325,82ZM196.325,86L91.675,86C81.506,86 72.708,92.96 70.309,102.759L70.103,103.685L53.682,185.787C51.754,195.427 57.306,204.994 66.632,208.103C75.728,211.135 85.644,207.248 90.291,198.961L90.724,198.145L106.304,167.103C106.587,166.539 107.114,166.149 107.72,166.035L108.091,166L180.021,166C180.653,166 181.239,166.297 181.613,166.789L181.81,167.106L197.31,198.133C201.73,206.981 211.985,211.23 221.368,208.103C230.411,205.088 235.906,196.001 234.473,186.663L234.318,185.787L217.897,103.685C215.903,93.714 207.353,86.451 197.274,86.02L196.325,86ZM104,108C106.209,108 108,109.791 108,112L108,120L116,120C118.209,120 120,121.791 120,124L120,128C120,130.209 118.209,132 116,132L108,132L108,140C108,142.209 106.209,144 104,144L100,144C97.791,144 96,142.209 96,140L96,132L88,132C85.791,132 84,130.209 84,128L84,124C84,121.791 85.791,120 88,120L96,120L96,112C96,109.791 97.791,108 100,108L104,108ZM190,132C191.105,132 192,132.895 192,134L192,142C192,143.105 191.105,144 190,144L182,144C180.895,144 180,143.105 180,142L180,134C180,132.895 180.895,132 182,132L190,132ZM178,120C179.105,120 180,120.895 180,122L180,130C180,131.105 179.105,132 178,132L170,132C168.895,132 168,131.105 168,130L168,122C168,120.895 168.895,120 170,120L178,120ZM202,120C203.105,120 204,120.895 204,122L204,130C204,131.105 203.105,132 202,132L194,132C192.895,132 192,131.105 192,130L192,122C192,120.895 192.895,120 194,120L202,120ZM190,108C191.105,108 192,108.895 192,110L192,118C192,119.105 191.105,120 190,120L182,120C180.895,120 180,119.105 180,118L180,110C180,108.895 180.895,108 182,108L190,108Z" style="fill-rule:nonzero;"/>
        <path id="Highlight" d="M63.761,170.109C64.806,170.468 65.362,171.606 65.003,172.65C62.583,179.689 61.64,185.112 62.121,188.844C62.569,192.315 64.657,195.273 68.538,197.784C69.466,198.384 69.731,199.622 69.131,200.55C68.531,201.477 67.293,201.742 66.365,201.143C61.552,198.029 58.764,194.077 58.154,189.356C57.579,184.895 58.618,178.918 61.22,171.35C61.579,170.305 62.717,169.75 63.761,170.109ZM160,90C161.105,90 162,90.895 162,92C162,92.982 161.292,93.798 160.36,93.968L160,94L140,94C138.895,94 138,93.105 138,92C138,91.018 138.708,90.202 139.64,90.032L140,90L160,90Z" style="fill:white;fill-rule:nonzero;"/>
    </g>
</svg>
