<?xml version="1.0" encoding="UTF-8" standalone="no"?>
<!DOCTYPE svg PUBLIC "-//W3C//DTD SVG 1.1//EN" "http://www.w3.org/Graphics/SVG/1.1/DTD/svg11.dtd">
<svg width="100%" height="100%" viewBox="0 0 288 288" version="1.1" xmlns="http://www.w3.org/2000/svg" xmlns:xlink="http://www.w3.org/1999/xlink" xml:space="preserve" xmlns:serif="http://www.serif.com/" style="fill-rule:evenodd;clip-rule:evenodd;stroke-linejoin:round;stroke-miterlimit:2;">
    <rect id="Background" x="0" y="0" width="288" height="288" style="fill:rgb(255,0,232);"/>
    <g id="folder" transform="matrix(4,0,0,4,-312,-1436)">
        <g transform="matrix(0.25,0,0,0.25,78,359)">
            <path d="M248,208C248,214.623 242.623,220 236,220L52,220C45.377,220 40,214.623 40,208L40,80L248,80L248,208Z" style="fill:white;fill-opacity:0.4;"/>
        </g>
        <g transform="matrix(0.25,0,0,0.25,78,359)">
            <path d="M96,72L256,72L256,208C256,219.038 247.038,228 236,228L52,228C40.962,228 32,219.038 32,208L32,72L40,72L40,56L96,56L96,72ZM248,208C248,214.623 242.623,220 236,220L52,220C45.377,220 40,214.623 40,208L40,80L248,80L248,208ZM88,72L88,64L48,64L48,72L88,72Z" style="fill-opacity:0.5;"/>
        </g>
        <g transform="matrix(1.42857,0,0,2,-38.5714,-357)">
            <rect x="90" y="366" width="7" height="1" style="fill:white;fill-opacity:0.7;"/>
        </g>
    </g>
    <g id="Input---Music" serif:id="Input-/-Music" transform="matrix(0.603276,0,0,0.603276,56.8134,65.6268)">
        <path id="Icon-Fill" d="M201.932,59.26L202.007,60.166L202,180C202,192.15 192.15,202 180,202C167.85,202 158,192.15 158,180C158,167.85 167.85,158 180,158C183.923,158 187.692,159.027 191.01,160.949L194.013,162.689L193.999,66.886L118,110.319L118,204C118,216.15 108.15,226 96,226C83.85,226 74,216.15 74,204C74,191.85 83.85,182 96,182C99.923,182 103.692,183.027 107.01,184.949L110.014,186.689L110,108C110,106.812 110.528,105.689 111.433,104.932L112.165,104.432L196.015,56.527C198.297,55.223 201.131,56.45 201.836,58.841L201.932,59.26Z" style="fill:white;fill-opacity:0.6;fill-rule:nonzero;"/>
        <path id="shadow-with-outline" d="M205.769,58.065L205.886,58.636L205.908,58.803L206,60L206,63.373L207.023,62.791C210.715,60.681 215.24,62.979 215.914,66.969L216,68L216,188C216,201.255 205.255,212 192,212C185.726,212 180.014,209.593 175.738,205.651C163.405,203.618 154,192.907 154,180C154,165.641 165.641,154 180,154C182.948,154 185.826,154.492 188.54,155.435L189.693,155.867L190.012,156L190,86.329L132,119.48L132,212C132,225.255 121.255,236 108,236C101.726,236 96.014,233.593 91.738,229.651C79.405,227.618 70,216.907 70,204C70,189.641 81.641,178 96,178C98.948,178 101.826,178.492 104.54,179.435L105.693,179.867L106.012,180L106,108C106,106.1 106.675,104.283 107.945,102.801L108.449,102.261L109.008,101.756L110.031,101.054L194.031,53.054C198.537,50.479 204.108,52.83 205.613,57.514L205.769,58.065ZM201.836,58.841C201.175,56.6 198.643,55.381 196.449,56.312L196.015,56.527L112.165,104.432L111.433,104.932C110.657,105.581 110.158,106.499 110.032,107.496L110,108L110.014,186.689L107.01,184.949C103.692,183.027 99.923,182 96,182C83.85,182 74,191.85 74,204C74,216.15 83.85,226 96,226C107.854,226 117.518,216.625 117.983,204.885L118,204L118,110.319L193.999,66.886L194.013,162.689L191.01,160.949C187.692,159.027 183.923,158 180,158C167.85,158 158,167.85 158,180C158,192.15 167.85,202 180,202C191.854,202 201.518,192.625 201.983,180.885L202,180L202.007,60.166L201.932,59.26L201.836,58.841Z" style="fill-rule:nonzero;"/>
        <path id="highlight" d="M93.184,187.557C94.289,187.557 95.184,188.453 95.184,189.557C95.184,190.662 94.289,191.557 93.184,191.557C88.288,191.557 84.541,195.546 81.961,204.116C81.643,205.174 80.528,205.773 79.47,205.455C78.412,205.136 77.813,204.021 78.131,202.963C81.162,192.89 86.174,187.557 93.184,187.557ZM177.138,166C178.243,166 179.138,166.895 179.138,168C179.138,169.105 178.243,170 177.138,170C172.242,170 168.494,173.988 165.915,182.559C165.597,183.616 164.481,184.216 163.424,183.897C162.366,183.579 161.767,182.464 162.085,181.406C165.116,171.333 170.127,166 177.138,166Z" style="fill:white;fill-rule:nonzero;"/>
    </g>
</svg>
