<?xml version="1.0" encoding="UTF-8" standalone="no"?>
<!DOCTYPE svg PUBLIC "-//W3C//DTD SVG 1.1//EN" "http://www.w3.org/Graphics/SVG/1.1/DTD/svg11.dtd">
<svg width="100%" height="100%" viewBox="0 0 288 288" version="1.1" xmlns="http://www.w3.org/2000/svg" xmlns:xlink="http://www.w3.org/1999/xlink" xml:space="preserve" xmlns:serif="http://www.serif.com/" style="fill-rule:evenodd;clip-rule:evenodd;stroke-linejoin:round;stroke-miterlimit:2;">
    <rect x="0" y="0" width="288" height="288" style="fill:white;"/>
    <rect id="Background" x="0" y="0" width="288" height="288" style="fill:rgb(255,108,62);"/>
    <g id="folder" transform="matrix(4,0,0,4,-312,-1436)">
        <g transform="matrix(0.25,0,0,0.25,78,359)">
            <path d="M248,208C248,214.623 242.623,220 236,220L52,220C45.377,220 40,214.623 40,208L40,80L248,80L248,208Z" style="fill:white;fill-opacity:0.2;"/>
        </g>
        <g transform="matrix(0.25,0,0,0.25,78,359)">
            <path d="M96,72L256,72L256,208C256,219.038 247.038,228 236,228L52,228C40.962,228 32,219.038 32,208L32,72L40,72L40,56L96,56L96,72ZM248,208C248,214.623 242.623,220 236,220L52,220C45.377,220 40,214.623 40,208L40,80L248,80L248,208ZM88,72L88,64L48,64L48,72L88,72Z" style="fill-opacity:0.5;"/>
        </g>
        <g transform="matrix(1.42857,0,0,2,-38.5714,-357)">
            <rect x="90" y="366" width="7" height="1" style="fill:white;fill-opacity:0.6;"/>
        </g>
    </g>
    <g id="Input---SFX" serif:id="Input-/-SFX" transform="matrix(0.67094,0,0,0.67094,46.8718,54.8751)">
        <path id="Icon-Fill" d="M124.279,82.946C125.185,83.552 125.717,84.352 125.824,85.165L125.817,85.983C122.287,117.207 122.261,140.229 125.774,154.495C127.097,159.872 128.737,165.254 130.694,170.644L134.856,181.556L136.323,171.81C137.074,167.277 137.989,162.68 139.063,158.051L140.8,151.05C144.77,136.035 152.211,119.842 163.131,102.485L166.209,97.702C167.405,95.883 170.523,95.107 173.037,96.156C174.463,96.75 175.34,97.791 175.474,98.866L175.476,99.575C174.114,115.133 175.618,129.134 179.999,141.345C181.26,144.862 182.641,148.3 184.142,151.659L188.992,161.988L190.259,154.403C191.247,148.967 192.635,144.133 194.422,139.917L195.561,137.42C199.605,129.168 205.545,120.911 213.364,112.701L216.858,109.157C218.549,107.499 221.844,107.227 224.019,108.633C224.914,109.212 225.462,109.983 225.607,110.774L225.644,111.568C225.298,117.664 226.015,122.996 227.801,127.263C229.084,130.327 231.292,133.741 234.402,137.488L237.099,140.61L245.12,140.628C247.905,140.635 250,142.308 250,144.12C250,145.675 248.42,147.167 246.101,147.502L244.986,147.574L234.38,147.53C233.558,147.54 232.866,147.418 232.254,147.17C231.638,146.921 231.036,146.515 230.446,145.938C224.521,139.729 220.526,134.15 218.447,129.181C218.15,128.471 217.878,127.741 217.631,126.989L216.246,122.24L213.021,126.403C210.509,129.733 208.338,133.047 206.493,136.366L204.779,139.644C200.8,147.764 198.617,158.914 198.212,173.008L198.146,176.898C198.136,178.729 196.029,180.392 193.248,180.382C191.703,180.377 190.271,179.834 189.359,178.955L188.795,178.288C181.255,167.607 175.132,155.794 170.543,143.003C168.694,137.849 167.329,132.412 166.448,126.687L165.12,116.7L160.854,125.097C156.939,133.012 153.866,140.623 151.626,147.948L150.391,152.276C146.767,165.984 144.55,179.354 143.73,192.425L143.438,198.901C143.388,200.753 141.234,202.395 138.448,202.348C136.744,202.317 135.21,201.637 134.36,200.607L133.928,199.961C125.757,185.254 119.804,170.429 116.164,155.646C113.62,145.312 112.833,130.834 113.814,112.128L114.658,98.283L110.209,104.623C107.01,109.381 104.43,114.23 102.445,119.204L101.086,122.906C97.3,134.212 94.548,146.665 92.812,160.311L92.133,166.206L91.45,172.82C91.384,173.454 90.4,174.118 89.12,174.034C88.366,173.985 87.725,173.674 87.402,173.261L83.009,167.65C77.015,159.994 72.265,152.515 68.755,145.21C66.665,140.861 65.151,135.232 64.212,128.271L63.379,121.649L59.996,127.092C57.608,131.16 55.913,135.985 54.887,141.585L54.437,144.399L54.078,146.343C53.989,146.694 53.851,146.96 53.736,147.067C53.563,147.228 52.796,147.531 52.831,147.53L38.87,147.592C36.416,147.594 34.429,146.263 34.061,144.662L33.987,143.895C34,142.311 36.095,140.641 38.877,140.638L45.225,140.632L45.877,137.566C46.798,133.672 48.071,130.096 49.687,126.873L50.995,124.466C53.561,120.094 57.05,115.769 61.431,111.553L64.204,109.003C66.012,107.411 69.326,107.279 71.391,108.766C72.139,109.304 72.608,109.981 72.765,110.679L72.837,111.379C73.018,125.56 74.749,136.279 77.992,143.029C78.657,144.414 79.37,145.805 80.131,147.204L83.796,153.537L84.878,148.042C86.241,140.424 87.94,133.233 89.981,126.433L91.585,121.378C95.68,109.146 103.079,97.556 113.769,86.659L117.107,83.38C118.836,81.741 122.139,81.513 124.279,82.946Z" style="fill:white;fill-opacity:0.6;fill-rule:nonzero;"/>
        <path id="shadow-with-outline" d="M126.504,79.621C128.252,80.791 129.421,82.487 129.765,84.595L129.806,84.885L129.804,86.188C129.708,87.044 129.614,87.893 129.523,88.736C131.958,87.613 135.114,87.759 137.392,89.283C138.768,90.204 139.622,91.507 139.807,92.904L139.817,93.964C137.313,116.205 136.585,134.118 137.596,147.624C141.732,133.16 148.904,117.752 159.114,101.363L159.756,100.338L162.856,95.521C165.172,91.999 170.364,90.707 174.577,92.464C177.174,93.547 178.997,95.644 179.42,98.304L179.458,98.581L179.468,99.711C179.391,100.606 179.322,101.496 179.264,102.379C181.222,101.511 183.673,101.42 185.807,102.31C187.879,103.174 189.233,104.805 189.459,106.618L189.476,107.538C188.514,118.616 188.994,128.77 190.9,138.003L191.945,135.71C196.073,127.284 202.007,118.955 209.759,110.692L210.491,109.917L214.033,106.325C217.106,103.311 222.47,102.868 226.191,105.274C227.895,106.376 229.074,107.973 229.51,109.983L229.57,110.288L229.637,111.55C229.584,112.517 229.558,113.454 229.559,114.363C231.921,113.369 234.9,113.528 237.105,114.953C238.456,115.827 239.328,117.067 239.574,118.414L239.64,119.441C239.308,125.541 240.002,130.561 241.646,134.49C241.934,135.177 242.274,135.888 242.667,136.622L245.13,136.628C249.635,136.639 253.473,139.473 253.95,143.312L253.975,143.548L254,144.12C254,145.001 253.823,145.841 253.495,146.62L257.125,146.628C260.925,146.637 264,149.093 264,152.12C264,154.795 261.579,157.02 258.387,157.482L257.125,157.57L246.372,157.53C245.326,157.544 244.37,157.375 243.503,157.024C242.636,156.673 241.818,156.121 241.048,155.369C239.807,154.068 238.645,152.793 237.564,151.541L234.399,151.529C233.094,151.547 231.873,151.332 230.752,150.878C229.635,150.425 228.6,149.728 227.601,148.75C225.505,146.554 223.634,144.427 221.985,142.365C221.373,143.356 220.792,144.347 220.241,145.338L218.551,148.57C214.758,156.314 212.61,167.167 212.211,181.065L212.146,184.931C212.129,187.955 209.038,190.396 205.241,190.382C203.181,190.375 201.257,189.634 199.971,188.395L199.28,187.593C198.398,186.345 197.535,185.083 196.693,183.809C195.624,184.184 194.452,184.387 193.234,184.382C190.799,184.374 188.473,183.531 186.695,181.925L186.456,181.701L185.647,180.748C178.603,170.784 172.823,160.015 168.31,148.447C167.274,151.182 166.35,153.878 165.538,156.533L164.314,160.825C160.732,174.374 158.538,187.615 157.726,200.55L157.436,206.991C157.354,210.015 154.21,212.412 150.414,212.347C148.129,212.307 146.046,211.369 144.817,209.879L144.277,209.09C143.634,207.934 143.005,206.778 142.39,205.623C141.171,206.111 139.804,206.371 138.379,206.346C135.657,206.299 133.104,205.212 131.371,203.249L131.167,203.009L130.529,202.062C122.093,186.896 116.008,171.74 112.28,156.602C111.582,153.764 111.011,150.645 110.568,147.241C109.005,153.979 107.747,161.087 106.796,168.563L106.12,174.435L105.439,181.026C105.252,182.834 103.26,184.179 100.99,184.03C99.69,183.945 98.518,183.375 97.828,182.494L93.434,176.883L93.341,176.762C92.134,177.657 90.531,178.135 88.859,178.026C87.111,177.911 85.49,177.162 84.425,175.936L84.253,175.727L79.86,170.116C75.346,164.351 71.508,158.667 68.347,153.063L68.045,154.705C67.845,155.522 67.529,156.131 67.097,156.533C66.448,157.135 65.165,157.523 64.879,157.53L50.879,157.592C47.506,157.595 44.698,155.662 44.112,153.11L44,152.12C44,151.934 44.012,151.75 44.034,151.569L38.881,151.592C34.767,151.596 31.145,149.231 30.186,145.585L30.125,145.335L30,144.12C30,139.957 33.909,136.763 38.606,136.642L38.873,136.638L41.984,136.632L42.426,134.898C43.139,132.244 44.01,129.735 45.048,127.358L45.4,126.57L46.141,125.023L47.512,122.5C50.178,117.956 53.687,113.55 58.059,109.254L58.69,108.64L61.528,106.03C64.781,103.166 70.162,102.951 73.729,105.52C75.156,106.548 76.165,107.941 76.623,109.677L76.703,110.006L76.823,111.118C76.838,112.201 76.861,113.261 76.894,114.299C79.35,113.328 82.404,113.59 84.56,115.143C85.698,115.963 86.45,117.055 86.716,118.241L86.823,119.145C86.84,120.421 86.87,121.666 86.911,122.88L87.782,120.138C92.002,107.533 99.508,95.655 110.276,84.513L110.939,83.832L114.33,80.502C117.46,77.535 122.831,77.163 126.504,79.621ZM124.279,82.946C122.139,81.513 118.836,81.741 117.107,83.38L113.769,86.659C103.079,97.556 95.68,109.146 91.585,121.378L89.981,126.433C87.94,133.233 86.241,140.424 84.878,148.042L83.796,153.537L80.131,147.204C79.37,145.805 78.657,144.414 77.992,143.029C74.749,136.279 73.018,125.56 72.837,111.379L72.765,110.679C72.608,109.981 72.139,109.304 71.391,108.766C69.326,107.279 66.012,107.411 64.204,109.003L61.431,111.553C57.05,115.769 53.561,120.094 50.995,124.466L49.687,126.873C48.071,130.096 46.798,133.672 45.877,137.566L45.225,140.632L38.877,140.638C36.095,140.641 34,142.311 33.987,143.895L34.061,144.662C34.429,146.263 36.416,147.594 38.87,147.592L52.831,147.53C52.796,147.531 53.563,147.228 53.736,147.067C53.851,146.96 53.989,146.694 54.078,146.343L54.437,144.399L54.887,141.585C55.913,135.985 57.608,131.16 59.996,127.092L63.379,121.649L64.212,128.271C65.151,135.232 66.665,140.861 68.755,145.21C72.265,152.515 77.015,159.994 83.009,167.65L87.402,173.261C87.725,173.674 88.366,173.985 89.12,174.034C90.4,174.118 91.384,173.454 91.45,172.82L92.133,166.206L92.812,160.311C94.548,146.665 97.3,134.212 101.086,122.906L102.445,119.204C104.43,114.23 107.01,109.381 110.209,104.623L114.658,98.283L113.814,112.128C112.833,130.834 113.62,145.312 116.164,155.646C119.804,170.429 125.757,185.254 133.928,199.961L134.36,200.607C135.21,201.637 136.744,202.317 138.448,202.348C141.234,202.395 143.388,200.753 143.438,198.901L143.73,192.425C144.55,179.354 146.767,165.984 150.391,152.276L151.626,147.948C153.866,140.623 156.939,133.012 160.854,125.097L165.12,116.7L166.448,126.687C167.329,132.412 168.694,137.849 170.543,143.003C175.132,155.794 181.255,167.607 188.795,178.288L189.359,178.955C190.271,179.834 191.703,180.377 193.248,180.382C196.029,180.392 198.136,178.729 198.146,176.898L198.212,173.008C198.617,158.914 200.8,147.764 204.779,139.644L206.493,136.366C208.338,133.047 210.509,129.733 213.021,126.403L216.246,122.24L217.631,126.989C217.878,127.741 218.15,128.471 218.447,129.181C220.526,134.15 224.521,139.729 230.446,145.938C231.036,146.515 231.638,146.921 232.254,147.17C232.866,147.418 233.558,147.54 234.38,147.53L244.986,147.574L246.101,147.502C248.42,147.167 250,145.675 250,144.12C250,142.308 247.905,140.635 245.12,140.628L237.099,140.61L234.402,137.488C231.292,133.741 229.084,130.327 227.801,127.263C226.015,122.996 225.298,117.664 225.644,111.568L225.607,110.774C225.462,109.983 224.914,109.212 224.019,108.633C221.844,107.227 218.549,107.499 216.858,109.157L213.364,112.701C205.545,120.911 199.605,129.168 195.561,137.42L194.422,139.917C192.635,144.133 191.247,148.967 190.259,154.403L188.992,161.988L184.142,151.659C182.641,148.3 181.26,144.862 179.999,141.345C175.618,129.134 174.114,115.133 175.476,99.575L175.474,98.866C175.34,97.791 174.463,96.75 173.037,96.156C170.523,95.107 167.405,95.883 166.209,97.702L163.131,102.485C152.211,119.842 144.77,136.035 140.8,151.05L139.063,158.051C137.989,162.68 137.074,167.277 136.323,171.81L134.856,181.556L130.694,170.644C128.737,165.254 127.097,159.872 125.774,154.495C122.261,140.229 122.287,117.207 125.817,85.983L125.824,85.165C125.717,84.352 125.185,83.552 124.279,82.946Z" style="fill-rule:nonzero;"/>
        <path id="Highlight" d="M119.019,87.038C119.983,86.498 121.202,86.842 121.742,87.806C122.281,88.769 121.938,89.988 120.974,90.528C112.554,95.243 106.77,101.752 103.553,110.106C103.156,111.137 101.999,111.65 100.968,111.254C99.937,110.857 99.423,109.699 99.82,108.668C103.379,99.427 109.801,92.2 119.019,87.038Z" style="fill:white;fill-rule:nonzero;"/>
    </g>
</svg>
