<?xml version="1.0" encoding="UTF-8" standalone="no"?>
<!DOCTYPE svg PUBLIC "-//W3C//DTD SVG 1.1//EN" "http://www.w3.org/Graphics/SVG/1.1/DTD/svg11.dtd">
<svg width="100%" height="100%" viewBox="0 0 288 288" version="1.1" xmlns="http://www.w3.org/2000/svg" xmlns:xlink="http://www.w3.org/1999/xlink" xml:space="preserve" xmlns:serif="http://www.serif.com/" style="fill-rule:evenodd;clip-rule:evenodd;stroke-linejoin:round;stroke-miterlimit:2;">
    <rect id="Background" x="0" y="0" width="288" height="288" style="fill:rgb(27,3,113);"/>
    <g id="folder" transform="matrix(4,0,0,4,-312,-1436)">
        <g transform="matrix(0.25,0,0,0.25,78,359)">
            <path d="M248,208C248,214.623 242.623,220 236,220L52,220C45.377,220 40,214.623 40,208L40,80L248,80L248,208Z" style="fill:white;fill-opacity:0.2;"/>
        </g>
        <g transform="matrix(0.25,0,0,0.25,78,359)">
            <path d="M96,72L256,72L256,208C256,219.038 247.038,228 236,228L52,228C40.962,228 32,219.038 32,208L32,72L40,72L40,56L96,56L96,72ZM248,208C248,214.623 242.623,220 236,220L52,220C45.377,220 40,214.623 40,208L40,80L248,80L248,208ZM88,72L88,64L48,64L48,72L88,72Z" style="fill-opacity:0.5;"/>
        </g>
        <g transform="matrix(1.42857,0,0,2,-38.5714,-357)">
            <rect x="90" y="366" width="7" height="1" style="fill:white;fill-opacity:0.5;"/>
        </g>
    </g>
    <g id="Input--System" serif:id="Input/-System" transform="matrix(0.605769,0,0,0.605769,57.1346,63.8269)">
        <path id="icon_fill-" d="M228,66C233.523,66 238,70.477 238,76L238,172C238,177.523 233.523,182 228,182L148,182C146.895,182 146,182.895 146,184L146,212C146,213.105 146.895,214 148,214L188,214C189.105,214 190,214.895 190,216L190,220C190,221.105 189.105,222 188,222L100,222C98.895,222 98,221.105 98,220L98,216C98,214.895 98.895,214 100,214L136,214C137.105,214 138,213.105 138,212L138,184C138,182.895 137.105,182 136,182L60,182C54.477,182 50,177.523 50,172L50,76C50,70.477 54.477,66 60,66L228,66ZM142,156C136.477,156 132,160.477 132,166C132,171.523 136.477,176 142,176C147.523,176 152,171.523 152,166C152,160.477 147.523,156 142,156Z" style="fill:white;fill-opacity:0.6;fill-rule:nonzero;"/>
        <path id="shadow-with-outline" d="M228,62C235.097,62 240.961,67.281 241.876,74.128C248.47,75.006 253.614,80.483 253.979,87.232L254,88L254,184C254,191.474 248.143,197.581 240.768,197.979L240,198L162,198L162,210L188,210C190.924,210 193.359,212.091 193.892,214.86L193.973,215.422L194,216L194,220C194,220.702 193.879,221.376 193.658,222.003L200,222C202.924,222 205.359,224.091 205.892,226.86L205.973,227.422L206,228L206,232C206,235.119 203.62,237.682 200.578,237.973L200,238L112,238C108.881,238 106.318,235.62 106.027,232.578L106,232L106,228C106,227.299 106.12,226.626 106.341,226.001L100,226C96.881,226 94.318,223.62 94.027,220.578L94,220L94,216C94,212.881 96.38,210.318 99.422,210.027L100,210L134,210L134,198L72,198C64.903,198 59.039,192.719 58.124,185.872C51.784,185.028 46.783,179.931 46.084,173.541L46.021,172.768L46,172L46,76C46,68.526 51.857,62.419 59.232,62.021L60,62L228,62ZM228,66L60,66C54.698,66 50.36,70.126 50.021,75.342L50,76L50,172C50,177.302 54.126,181.64 59.342,181.979L60,182L136,182C136.982,182 137.798,182.708 137.968,183.64L138,184L138,212C138,212.982 137.292,213.798 136.36,213.968L136,214L100,214C99.018,214 98.202,214.708 98.032,215.64L98,216L98,220C98,220.982 98.708,221.798 99.64,221.968L100,222L188,222C188.982,222 189.798,221.292 189.968,220.36L190,220L190,216C190,215.018 189.292,214.202 188.36,214.032L188,214L148,214C147.018,214 146.202,213.292 146.032,212.36L146,212L146,184C146,183.018 146.708,182.202 147.64,182.032L148,182L228,182C233.302,182 237.64,177.874 237.979,172.658L238,172L238,76C238,75.741 237.99,75.483 237.971,75.229L237.924,74.763L237.8,74.002L237.67,73.443C236.6,69.385 233.042,66.336 228.726,66.026L228,66ZM142,156C147.523,156 152,160.477 152,166C152,171.523 147.523,176 142,176C136.477,176 132,171.523 132,166C132,160.477 136.477,156 142,156Z" style="fill-rule:nonzero;"/>
        <path id="Highlight" d="M87.651,94.586C88.345,95.28 88.422,96.358 87.882,97.137L87.651,97.414L69.414,115.651C68.633,116.432 67.367,116.432 66.586,115.651C65.892,114.957 65.814,113.879 66.354,113.099L66.586,112.822L84.822,94.586C85.603,93.805 86.87,93.805 87.651,94.586ZM85.791,82.084C86.485,82.778 86.562,83.856 86.022,84.635L85.791,84.912L67.554,103.149C66.773,103.93 65.507,103.93 64.726,103.149C64.031,102.455 63.954,101.377 64.494,100.598L64.726,100.321L82.962,82.084C83.743,81.303 85.01,81.303 85.791,82.084ZM103.166,79.071C103.86,79.765 103.937,80.843 103.397,81.623L103.166,81.899L93.414,91.651C92.633,92.432 91.367,92.432 90.586,91.651C89.892,90.957 89.814,89.879 90.354,89.099L90.586,88.822L100.337,79.071C101.118,78.29 102.384,78.29 103.166,79.071Z" style="fill:rgb(252,251,255);fill-rule:nonzero;"/>
    </g>
</svg>
