<?xml version="1.0" encoding="UTF-8" standalone="no"?>
<!DOCTYPE svg PUBLIC "-//W3C//DTD SVG 1.1//EN" "http://www.w3.org/Graphics/SVG/1.1/DTD/svg11.dtd">
<svg width="100%" height="100%" viewBox="0 0 288 288" version="1.1" xmlns="http://www.w3.org/2000/svg" xmlns:xlink="http://www.w3.org/1999/xlink" xml:space="preserve" xmlns:serif="http://www.serif.com/" style="fill-rule:evenodd;clip-rule:evenodd;stroke-linejoin:round;stroke-miterlimit:2;">
    <rect x="0" y="0" width="288" height="288" style="fill:white;"/>
    <rect id="Background" x="0" y="0" width="288" height="288" style="fill:rgb(207,217,36);"/>
    <g id="folder" transform="matrix(4,0,0,4,-312,-1436)">
        <g transform="matrix(0.25,0,0,0.25,78,359)">
            <path d="M248,208C248,214.623 242.623,220 236,220L52,220C45.377,220 40,214.623 40,208L40,80L248,80L248,208Z" style="fill:white;fill-opacity:0.4;"/>
        </g>
        <g transform="matrix(0.25,0,0,0.25,78,359)">
            <path d="M96,72L256,72L256,208C256,219.038 247.038,228 236,228L52,228C40.962,228 32,219.038 32,208L32,72L40,72L40,56L96,56L96,72ZM248,208C248,214.623 242.623,220 236,220L52,220C45.377,220 40,214.623 40,208L40,80L248,80L248,208ZM88,72L88,64L48,64L48,72L88,72Z" style="fill-opacity:0.5;"/>
        </g>
        <g transform="matrix(1.42857,0,0,2,-38.5714,-357)">
            <rect x="90" y="366" width="7" height="1" style="fill:white;fill-opacity:0.7;"/>
        </g>
    </g>
    <g id="Input---Voice-Chat" serif:id="Input-/-Voice-Chat" transform="matrix(0.56131,0,0,0.56131,62.595,69.6893)">
        <path id="Icon-fill" d="M144,58C189.287,58 226,94.713 226,140C226,157.13 220.737,173.466 211.083,187.171C208.207,191.252 208.456,202.466 211.476,221.697C211.636,222.719 211.394,223.763 210.801,224.611C209.688,226.201 207.599,226.756 205.859,225.955L205.08,225.498L202.856,223.954L200.542,222.4C189.64,215.188 182.824,212.359 179.17,214.097C168.277,219.276 156.334,222 144,222C98.713,222 62,185.287 62,140C62,94.713 98.713,58 144,58ZM144,128C137.373,128 132,133.373 132,140C132,146.627 137.373,152 144,152C150.627,152 156,146.627 156,140C156,133.373 150.627,128 144,128ZM180,128C173.373,128 168,133.373 168,140C168,146.627 173.373,152 180,152C186.627,152 192,146.627 192,140C192,133.373 186.627,128 180,128ZM108,128C101.373,128 96,133.373 96,140C96,146.627 101.373,152 108,152C114.627,152 120,146.627 120,140C120,133.373 114.627,128 108,128Z" style="fill:white;fill-opacity:0.5;fill-rule:nonzero;"/>
        <path id="shadow-with-outline" d="M144,54C175.733,54 203.452,71.187 218.355,96.76C238.784,112.083 252,136.498 252,164C252,181.988 246.346,198.656 236.718,212.323C234.287,215.772 234.532,226.793 237.451,245.387C237.692,246.92 237.329,248.486 236.44,249.758C234.751,252.171 231.607,252.961 229.023,251.772L228.084,251.233L225.72,249.6L223.471,248.09C213.242,241.332 206.762,238.603 204.029,239.903C193.11,245.095 180.894,248 168,248C140.498,248 116.083,234.784 100.76,214.355C75.187,199.452 58,171.733 58,140C58,92.504 96.504,54 144,54ZM144,58C98.713,58 62,94.713 62,140C62,185.287 98.713,222 144,222C156.334,222 168.277,219.276 179.17,214.097C182.572,212.479 188.715,214.82 198.344,220.97L200.542,222.4L202.856,223.954L205.08,225.498L205.859,225.955C207.599,226.756 209.688,226.201 210.801,224.611C211.394,223.763 211.636,222.719 211.476,221.697L210.972,218.386C208.438,201.171 208.376,191.012 211.083,187.171C220.737,173.466 226,157.13 226,140C226,94.713 189.287,58 144,58ZM108,126C108.602,126 109.195,126.038 109.777,126.112L110.816,126.283L111.088,126.342C111.467,126.427 111.841,126.528 112.208,126.644L113.391,127.076L113.767,127.239C114.76,127.689 115.691,128.251 116.545,128.909L116.935,129.222L117.481,129.699L117.981,130.183L118.58,130.831L118.935,131.257L119.41,131.885L119.869,132.571L120.258,133.232L120.72,134.144L121.06,134.947L121.313,135.657L121.578,136.575L121.685,137.035L121.773,137.475C121.922,138.289 122,139.135 122,140C122,147.732 115.732,154 108,154C107.277,154 106.568,153.945 105.874,153.84L104.908,153.652L104.153,153.465L103.324,153.2L102.52,152.885L101.699,152.505L101.208,152.244C100.662,151.942 100.139,151.603 99.642,151.232C99.378,151.035 99.12,150.828 98.87,150.613L98.479,150.264L97.699,149.481L97.547,149.314C97.326,149.065 97.113,148.809 96.91,148.546C96.251,147.691 95.689,146.76 95.239,145.766L95.077,145.393C94.854,144.86 94.664,144.312 94.508,143.75C94.345,143.161 94.219,142.557 94.133,141.94C94.045,141.306 94,140.658 94,140C94,132.526 99.857,126.419 107.232,126.021L108,126ZM144,126C144.602,126 145.195,126.038 145.777,126.112L146.816,126.283L147.088,126.342C147.467,126.427 147.841,126.528 148.208,126.644L149.391,127.076L149.767,127.239C150.76,127.689 151.691,128.251 152.545,128.909L152.935,129.222L153.481,129.699L153.981,130.183L154.58,130.831L154.935,131.257L155.41,131.885L155.869,132.571L156.258,133.232L156.72,134.144L157.06,134.947L157.313,135.657L157.578,136.575L157.685,137.035L157.773,137.475C157.922,138.289 158,139.135 158,140C158,147.732 151.732,154 144,154C143.277,154 142.568,153.945 141.874,153.84L140.908,153.652L140.153,153.465L139.324,153.2L138.52,152.885L137.699,152.505L137.208,152.244C136.662,151.942 136.139,151.603 135.642,151.232C135.378,151.035 135.12,150.828 134.87,150.613L134.479,150.264L133.699,149.481L133.547,149.314C133.326,149.065 133.113,148.809 132.91,148.546C132.251,147.691 131.689,146.76 131.239,145.766L131.077,145.393C130.854,144.86 130.664,144.312 130.508,143.75C130.345,143.161 130.219,142.557 130.133,141.94C130.045,141.306 130,140.658 130,140C130,132.526 135.857,126.419 143.232,126.021L144,126ZM180,126C180.602,126 181.195,126.038 181.777,126.112L182.816,126.283L183.088,126.342C183.467,126.427 183.841,126.528 184.208,126.644L185.391,127.076L185.767,127.239C186.76,127.689 187.691,128.251 188.545,128.909L188.935,129.222L189.481,129.699L189.981,130.183L190.58,130.831L190.935,131.257L191.41,131.885L191.869,132.571L192.258,133.232L192.72,134.144L193.06,134.947L193.313,135.657L193.578,136.575L193.685,137.035L193.773,137.475C193.922,138.289 194,139.135 194,140C194,147.732 187.732,154 180,154C179.277,154 178.568,153.945 177.874,153.84L176.908,153.652L176.153,153.465L175.324,153.2L174.52,152.885L173.699,152.505L173.208,152.244C172.662,151.942 172.139,151.603 171.642,151.232C171.378,151.035 171.12,150.828 170.87,150.613L170.479,150.264L169.699,149.481L169.547,149.314C169.326,149.065 169.113,148.809 168.91,148.546C168.251,147.691 167.689,146.76 167.239,145.766L167.077,145.393C166.854,144.86 166.664,144.312 166.508,143.75C166.345,143.161 166.219,142.557 166.133,141.94C166.045,141.306 166,140.658 166,140C166,132.526 171.857,126.419 179.232,126.021L180,126ZM116,136C109.373,136 104,141.373 104,148C104,148.403 104.02,148.802 104.059,149.195C105.273,149.714 106.603,150 108,150C113.523,150 118,145.523 118,140C118,138.603 117.714,137.273 117.196,136.065C116.802,136.02 116.403,136 116,136ZM152,136C145.373,136 140,141.373 140,148C140,148.403 140.02,148.802 140.059,149.195C141.273,149.714 142.603,150 144,150C149.523,150 154,145.523 154,140C154,138.603 153.714,137.273 153.196,136.065C152.802,136.02 152.403,136 152,136ZM188,136C181.373,136 176,141.373 176,148C176,148.403 176.02,148.802 176.059,149.195C177.273,149.714 178.603,150 180,150C185.523,150 190,145.523 190,140C190,138.603 189.714,137.273 189.196,136.065C188.802,136.02 188.403,136 188,136Z" style="fill-rule:nonzero;"/>
        <path id="Highlight" d="M121.878,73.099C122.932,72.771 124.054,73.359 124.382,74.414C124.711,75.469 124.122,76.59 123.068,76.918C104.763,82.621 92.205,94.161 85.261,111.653C84.853,112.68 83.69,113.182 82.664,112.774C81.637,112.367 81.135,111.204 81.543,110.177C88.936,91.557 102.426,79.159 121.878,73.099Z" style="fill:white;fill-rule:nonzero;"/>
    </g>
</svg>
