<?xml version="1.0" encoding="UTF-8" standalone="no"?>
<!DOCTYPE svg PUBLIC "-//W3C//DTD SVG 1.1//EN" "http://www.w3.org/Graphics/SVG/1.1/DTD/svg11.dtd">
<svg width="100%" height="100%" viewBox="0 0 288 288" version="1.1" xmlns="http://www.w3.org/2000/svg" xmlns:xlink="http://www.w3.org/1999/xlink" xml:space="preserve" xmlns:serif="http://www.serif.com/" style="fill-rule:evenodd;clip-rule:evenodd;stroke-linejoin:round;stroke-miterlimit:2;">
    <rect x="0" y="0" width="288" height="288" style="fill:white;"/>
    <rect id="Background" x="0" y="0" width="288" height="288" style="fill:rgb(21,81,255);"/>
    <g id="folder" transform="matrix(4,0,0,4,-312,-1436)">
        <g transform="matrix(0.25,0,0,0.25,78,359)">
            <path d="M248,208C248,214.623 242.623,220 236,220L52,220C45.377,220 40,214.623 40,208L40,80L248,80L248,208Z" style="fill:white;fill-opacity:0.2;"/>
        </g>
        <g transform="matrix(0.25,0,0,0.25,78,359)">
            <path d="M96,72L256,72L256,208C256,219.038 247.038,228 236,228L52,228C40.962,228 32,219.038 32,208L32,72L40,72L40,56L96,56L96,72ZM248,208C248,214.623 242.623,220 236,220L52,220C45.377,220 40,214.623 40,208L40,80L248,80L248,208ZM88,72L88,64L48,64L48,72L88,72Z" style="fill-opacity:0.5;"/>
        </g>
        <g transform="matrix(1.42857,0,0,2,-38.5714,-357)">
            <rect x="90" y="366" width="7" height="1" style="fill:white;fill-opacity:0.5;"/>
        </g>
    </g>
    <g id="Input---Wave" serif:id="Input-/-Wave" transform="matrix(0.55102,0,0,0.55102,64.4082,70.449)">
        <path id="Icon-fill" d="M168,54L168.658,54.021C173.782,54.354 177.855,58.547 177.996,63.722L178,64L178,192L177.979,192.658C177.646,197.782 173.453,201.855 168.278,201.996L168,202L150,202L149.64,202.032C148.759,202.192 148.079,202.929 148.006,203.838L148,204L148,228L148.032,228.36C148.192,229.241 148.929,229.921 149.838,229.994L150,230L178,230L178.466,230.027C180.456,230.258 182,231.949 182,234C182,236.142 180.316,237.891 178.2,237.995L178,238L110,238L109.534,237.973C107.544,237.742 106,236.051 106,234C106,231.858 107.684,230.109 109.8,230.005L110,230L138,230L138.36,229.968C139.241,229.808 139.921,229.071 139.994,228.162L140,228L140,204L139.968,203.64C139.808,202.759 139.071,202.079 138.162,202.006L138,202L120,202L119.342,201.979C114.218,201.646 110.145,197.453 110.004,192.278L110,192L110,64L110.021,63.342C110.354,58.218 114.547,54.145 119.722,54.004L120,54L168,54ZM144,176C139.582,176 136,179.582 136,184C136,188.418 139.582,192 144,192C148.418,192 152,188.418 152,184C152,179.582 148.418,176 144,176ZM100,146L100.36,146.032C101.241,146.192 101.921,146.929 101.994,147.838L102,148L102,164L101.968,164.36C101.808,165.241 101.071,165.921 100.162,165.994L100,166L96,166L95.64,165.968C94.759,165.808 94.079,165.071 94.006,164.162L94,164L94,148L94.032,147.64C94.192,146.759 94.929,146.079 95.838,146.006L96,146L100,146ZM192,146L192.36,146.032C193.241,146.192 193.921,146.929 193.994,147.838L194,148L194,164L193.968,164.36C193.808,165.241 193.071,165.921 192.162,165.994L192,166L188,166L187.64,165.968C186.759,165.808 186.079,165.071 186.006,164.162L186,164L186,148L186.032,147.64C186.192,146.759 186.929,146.079 187.838,146.006L188,146L192,146Z" style="fill:white;fill-opacity:0.6;fill-rule:nonzero;"/>
        <path id="shadow-with-outline" d="M168,50C171.704,50 175.072,51.439 177.576,53.787L177.812,54.014L177.797,53.999L184,54C191.474,54 197.581,59.857 197.979,67.232L198,68L197.999,147.979L198,148L198,151.953L198.004,151.767C198.119,148.754 200.456,146.311 203.422,146.027L204,146L208,146C211.119,146 213.682,148.38 213.973,151.422L214,152L214,168C214,171.119 211.62,173.682 208.578,173.973L208,174L204,174C200.881,174 198.318,171.62 198.027,168.578L198,168L198,196C198,203.474 192.143,209.581 184.768,209.979L184,210L168,210L168,225.999L152,226L178,226C180.874,226 183.395,227.516 184.805,229.792L184.93,230L194,230C198.007,230 201.325,232.945 201.909,236.789L201.978,237.403L202,238C202,242.217 198.736,245.673 194.597,245.978L194,246L126,246C123.039,246 120.454,244.391 119.07,242L110,242C105.582,242 102,238.418 102,234C102,229.783 105.264,226.327 109.403,226.022L110,226L136,226L136,206L136,210C132.186,210 128.727,208.474 126.202,206L120,206C112.783,206 106.842,200.54 106.082,193.525L106.021,192.768L106,192L106,164C106,167.119 103.62,169.682 100.578,169.973L100,170L96,170C92.881,170 90.318,167.62 90.027,164.578L90,164L90,148C90,144.881 92.38,142.318 95.422,142.027L96,142L100,142C103.119,142 105.682,144.38 105.973,147.422L106,148L106,64C106,56.526 111.857,50.419 119.232,50.021L120,50L168,50ZM178,160L110,160L110,192C110,197.302 114.126,201.64 119.342,201.979L120,202L138,202C138.982,202 139.798,202.708 139.968,203.64L140,204L140,228C140,228.982 139.292,229.798 138.36,229.968L138,230L110,230C107.791,230 106,231.791 106,234C106,236.051 107.544,237.742 109.534,237.973L110,238L178,238C180.209,238 182,236.209 182,234C182,231.949 180.456,230.258 178.466,230.027L178,230L150,230C149.018,230 148.202,229.292 148.032,228.36L148,228L148,204C148,203.018 148.708,202.202 149.64,202.032L150,202L168,202C173.302,202 177.64,197.874 177.979,192.658L178,192L178,160ZM144,176C148.418,176 152,179.582 152,184C152,188.418 148.418,192 144,192C139.582,192 136,188.418 136,184C136,179.582 139.582,176 144,176ZM100,146L96,146C95.018,146 94.202,146.708 94.032,147.64L94,148L94,164C94,164.982 94.708,165.798 95.64,165.968L96,166L100,166C100.982,166 101.798,165.292 101.968,164.36L102,164L102,148C102,147.018 101.292,146.202 100.36,146.032L100,146ZM192,146L188,146C187.018,146 186.202,146.708 186.032,147.64L186,148L186,164C186,164.982 186.708,165.798 187.64,165.968L188,166L192,166C192.982,166 193.798,165.292 193.968,164.36L194,164L194,148C194,147.018 193.292,146.202 192.36,146.032L192,146ZM168,54L120,54C114.698,54 110.36,58.126 110.021,63.342L110,64L110,156L115.502,156.001C115.188,155.583 115.001,155.063 115.001,154.5C115.001,153.119 116.121,152 117.501,152C118.882,152 120.001,153.119 120.001,154.5C120.001,155.063 119.815,155.583 119.501,156.001L125.502,156.001C125.188,155.583 125.001,155.063 125.001,154.5C125.001,153.119 126.121,152 127.501,152C128.882,152 130.001,153.119 130.001,154.5C130.001,155.063 129.815,155.583 129.501,156.001L135.502,156.001C135.188,155.583 135.001,155.063 135.001,154.5C135.001,153.119 136.121,152 137.501,152C138.882,152 140.001,153.119 140.001,154.5C140.001,155.063 139.815,155.583 139.501,156.001L145.502,156.001C145.188,155.583 145.001,155.063 145.001,154.5C145.001,153.119 146.121,152 147.501,152C148.882,152 150.001,153.119 150.001,154.5C150.001,155.063 149.815,155.583 149.501,156.001L155.502,156.001C155.188,155.583 155.001,155.063 155.001,154.5C155.001,153.119 156.121,152 157.501,152C158.882,152 160.001,153.119 160.001,154.5C160.001,155.063 159.815,155.583 159.501,156.001L165.502,156.001C165.188,155.583 165.001,155.063 165.001,154.5C165.001,153.119 166.121,152 167.501,152C168.882,152 170.001,153.119 170.001,154.5C170.001,155.063 169.815,155.583 169.501,156.001L175.502,156.001C175.188,155.583 175.001,155.063 175.001,154.5C175.001,153.682 175.394,152.957 176.001,152.5L176.001,156L178,156L178,64C178,58.698 173.874,54.36 168.658,54.021L168,54ZM162.501,146.2C163.882,146.2 165.001,147.319 165.001,148.7C165.001,150.081 163.882,151.2 162.501,151.2C161.121,151.2 160.001,150.081 160.001,148.7C160.001,147.319 161.121,146.2 162.501,146.2ZM132.501,146.2C133.882,146.2 135.001,147.319 135.001,148.7C135.001,150.081 133.882,151.2 132.501,151.2C131.121,151.2 130.001,150.081 130.001,148.7C130.001,147.319 131.121,146.2 132.501,146.2ZM142.501,146.2C143.882,146.2 145.001,147.319 145.001,148.7C145.001,150.081 143.882,151.2 142.501,151.2C141.121,151.2 140.001,150.081 140.001,148.7C140.001,147.319 141.121,146.2 142.501,146.2ZM112.501,146.2C113.882,146.2 115.001,147.319 115.001,148.7C115.001,150.081 113.882,151.2 112.501,151.2C112.33,151.2 112.162,151.183 112.001,151.15L112.001,146.25C112.162,146.217 112.33,146.2 112.501,146.2ZM122.501,146.2C123.882,146.2 125.001,147.319 125.001,148.7C125.001,150.081 123.882,151.2 122.501,151.2C121.121,151.2 120.001,150.081 120.001,148.7C120.001,147.319 121.121,146.2 122.501,146.2ZM152.501,146.2C153.882,146.2 155.001,147.319 155.001,148.7C155.001,150.081 153.882,151.2 152.501,151.2C151.121,151.2 150.001,150.081 150.001,148.7C150.001,147.319 151.121,146.2 152.501,146.2ZM172.501,146.2C173.882,146.2 175.001,147.319 175.001,148.7C175.001,150.081 173.882,151.2 172.501,151.2C171.121,151.2 170.001,150.081 170.001,148.7C170.001,147.319 171.121,146.2 172.501,146.2ZM127.501,140.8C128.882,140.8 130.001,141.919 130.001,143.3C130.001,144.681 128.882,145.8 127.501,145.8C126.121,145.8 125.001,144.681 125.001,143.3C125.001,141.919 126.121,140.8 127.501,140.8ZM147.501,140.8C148.882,140.8 150.001,141.919 150.001,143.3C150.001,144.681 148.882,145.8 147.501,145.8C146.121,145.8 145.001,144.681 145.001,143.3C145.001,141.919 146.121,140.8 147.501,140.8ZM157.501,140.8C158.882,140.8 160.001,141.919 160.001,143.3C160.001,144.681 158.882,145.8 157.501,145.8C156.121,145.8 155.001,144.681 155.001,143.3C155.001,141.919 156.121,140.8 157.501,140.8ZM167.501,140.8C168.882,140.8 170.001,141.919 170.001,143.3C170.001,144.681 168.882,145.8 167.501,145.8C166.121,145.8 165.001,144.681 165.001,143.3C165.001,141.919 166.121,140.8 167.501,140.8ZM137.501,140.8C138.882,140.8 140.001,141.919 140.001,143.3C140.001,144.681 138.882,145.8 137.501,145.8C136.121,145.8 135.001,144.681 135.001,143.3C135.001,141.919 136.121,140.8 137.501,140.8ZM117.501,140.8C118.882,140.8 120.001,141.919 120.001,143.3C120.001,144.681 118.882,145.8 117.501,145.8C116.121,145.8 115.001,144.681 115.001,143.3C115.001,141.919 116.121,140.8 117.501,140.8ZM176.001,141.3L176.001,145.3C175.394,144.843 175.001,144.118 175.001,143.3C175.001,142.482 175.394,141.757 176.001,141.3ZM132.501,134.8C133.882,134.8 135.001,135.919 135.001,137.3C135.001,138.681 133.882,139.8 132.501,139.8C131.121,139.8 130.001,138.681 130.001,137.3C130.001,135.919 131.121,134.8 132.501,134.8ZM142.501,134.8C143.882,134.8 145.001,135.919 145.001,137.3C145.001,138.681 143.882,139.8 142.501,139.8C141.121,139.8 140.001,138.681 140.001,137.3C140.001,135.919 141.121,134.8 142.501,134.8ZM112.501,134.8C113.882,134.8 115.001,135.919 115.001,137.3C115.001,138.681 113.882,139.8 112.501,139.8C112.33,139.8 112.162,139.783 112.001,139.75L112.001,134.85C112.162,134.817 112.33,134.8 112.501,134.8ZM122.501,134.8C123.882,134.8 125.001,135.919 125.001,137.3C125.001,138.681 123.882,139.8 122.501,139.8C121.121,139.8 120.001,138.681 120.001,137.3C120.001,135.919 121.121,134.8 122.501,134.8ZM152.501,134.8C153.882,134.8 155.001,135.919 155.001,137.3C155.001,138.681 153.882,139.8 152.501,139.8C151.121,139.8 150.001,138.681 150.001,137.3C150.001,135.919 151.121,134.8 152.501,134.8ZM162.501,134.8C163.882,134.8 165.001,135.919 165.001,137.3C165.001,138.681 163.882,139.8 162.501,139.8C161.121,139.8 160.001,138.681 160.001,137.3C160.001,135.919 161.121,134.8 162.501,134.8ZM172.501,134.8C173.882,134.8 175.001,135.919 175.001,137.3C175.001,138.681 173.882,139.8 172.501,139.8C171.121,139.8 170.001,138.681 170.001,137.3C170.001,135.919 171.121,134.8 172.501,134.8ZM127.501,129.4C128.882,129.4 130.001,130.519 130.001,131.9C130.001,133.281 128.882,134.4 127.501,134.4C126.121,134.4 125.001,133.281 125.001,131.9C125.001,130.519 126.121,129.4 127.501,129.4ZM147.501,129.4C148.882,129.4 150.001,130.519 150.001,131.9C150.001,133.281 148.882,134.4 147.501,134.4C146.121,134.4 145.001,133.281 145.001,131.9C145.001,130.519 146.121,129.4 147.501,129.4ZM157.501,129.4C158.882,129.4 160.001,130.519 160.001,131.9C160.001,133.281 158.882,134.4 157.501,134.4C156.121,134.4 155.001,133.281 155.001,131.9C155.001,130.519 156.121,129.4 157.501,129.4ZM167.501,129.4C168.882,129.4 170.001,130.519 170.001,131.9C170.001,133.281 168.882,134.4 167.501,134.4C166.121,134.4 165.001,133.281 165.001,131.9C165.001,130.519 166.121,129.4 167.501,129.4ZM137.501,129.4C138.882,129.4 140.001,130.519 140.001,131.9C140.001,133.281 138.882,134.4 137.501,134.4C136.121,134.4 135.001,133.281 135.001,131.9C135.001,130.519 136.121,129.4 137.501,129.4ZM117.501,129.4C118.882,129.4 120.001,130.519 120.001,131.9C120.001,133.281 118.882,134.4 117.501,134.4C116.121,134.4 115.001,133.281 115.001,131.9C115.001,130.519 116.121,129.4 117.501,129.4ZM176.001,129.9L176.001,133.9C175.394,133.443 175.001,132.718 175.001,131.9C175.001,131.082 175.394,130.357 176.001,129.9ZM172.501,123.8C173.882,123.8 175.001,124.919 175.001,126.3C175.001,127.681 173.882,128.8 172.501,128.8C171.121,128.8 170.001,127.681 170.001,126.3C170.001,124.919 171.121,123.8 172.501,123.8ZM132.501,123.8C133.882,123.8 135.001,124.919 135.001,126.3C135.001,127.681 133.882,128.8 132.501,128.8C131.121,128.8 130.001,127.681 130.001,126.3C130.001,124.919 131.121,123.8 132.501,123.8ZM142.501,123.8C143.882,123.8 145.001,124.919 145.001,126.3C145.001,127.681 143.882,128.8 142.501,128.8C141.121,128.8 140.001,127.681 140.001,126.3C140.001,124.919 141.121,123.8 142.501,123.8ZM112.501,123.8C113.882,123.8 115.001,124.919 115.001,126.3C115.001,127.681 113.882,128.8 112.501,128.8C112.33,128.8 112.162,128.783 112.001,128.75L112.001,123.85C112.162,123.817 112.33,123.8 112.501,123.8ZM122.501,123.8C123.882,123.8 125.001,124.919 125.001,126.3C125.001,127.681 123.882,128.8 122.501,128.8C121.121,128.8 120.001,127.681 120.001,126.3C120.001,124.919 121.121,123.8 122.501,123.8ZM152.501,123.8C153.882,123.8 155.001,124.919 155.001,126.3C155.001,127.681 153.882,128.8 152.501,128.8C151.121,128.8 150.001,127.681 150.001,126.3C150.001,124.919 151.121,123.8 152.501,123.8ZM162.501,123.8C163.882,123.8 165.001,124.919 165.001,126.3C165.001,127.681 163.882,128.8 162.501,128.8C161.121,128.8 160.001,127.681 160.001,126.3C160.001,124.919 161.121,123.8 162.501,123.8ZM127.501,118.4C128.882,118.4 130.001,119.519 130.001,120.9C130.001,122.281 128.882,123.4 127.501,123.4C126.121,123.4 125.001,122.281 125.001,120.9C125.001,119.519 126.121,118.4 127.501,118.4ZM167.501,118.4C168.882,118.4 170.001,119.519 170.001,120.9C170.001,122.281 168.882,123.4 167.501,123.4C166.121,123.4 165.001,122.281 165.001,120.9C165.001,119.519 166.121,118.4 167.501,118.4ZM137.501,118.4C138.882,118.4 140.001,119.519 140.001,120.9C140.001,122.281 138.882,123.4 137.501,123.4C136.121,123.4 135.001,122.281 135.001,120.9C135.001,119.519 136.121,118.4 137.501,118.4ZM117.501,118.4C118.882,118.4 120.001,119.519 120.001,120.9C120.001,122.281 118.882,123.4 117.501,123.4C116.121,123.4 115.001,122.281 115.001,120.9C115.001,119.519 116.121,118.4 117.501,118.4ZM157.501,118.4C158.882,118.4 160.001,119.519 160.001,120.9C160.001,122.281 158.882,123.4 157.501,123.4C156.121,123.4 155.001,122.281 155.001,120.9C155.001,119.519 156.121,118.4 157.501,118.4ZM147.501,118.4C148.882,118.4 150.001,119.519 150.001,120.9C150.001,122.281 148.882,123.4 147.501,123.4C146.121,123.4 145.001,122.281 145.001,120.9C145.001,119.519 146.121,118.4 147.501,118.4ZM176.001,118.9L176.001,122.9C175.394,122.443 175.001,121.718 175.001,120.9C175.001,120.082 175.394,119.357 176.001,118.9ZM172.501,112.4C173.882,112.4 175.001,113.519 175.001,114.9C175.001,116.281 173.882,117.4 172.501,117.4C171.121,117.4 170.001,116.281 170.001,114.9C170.001,113.519 171.121,112.4 172.501,112.4ZM122.501,112.4C123.882,112.4 125.001,113.519 125.001,114.9C125.001,116.281 123.882,117.4 122.501,117.4C121.121,117.4 120.001,116.281 120.001,114.9C120.001,113.519 121.121,112.4 122.501,112.4ZM112.501,112.4C113.882,112.4 115.001,113.519 115.001,114.9C115.001,116.281 113.882,117.4 112.501,117.4C112.33,117.4 112.162,117.383 112.001,117.35L112.001,112.45C112.162,112.417 112.33,112.4 112.501,112.4ZM152.501,112.4C153.882,112.4 155.001,113.519 155.001,114.9C155.001,116.281 153.882,117.4 152.501,117.4C151.121,117.4 150.001,116.281 150.001,114.9C150.001,113.519 151.121,112.4 152.501,112.4ZM162.501,112.4C163.882,112.4 165.001,113.519 165.001,114.9C165.001,116.281 163.882,117.4 162.501,117.4C161.121,117.4 160.001,116.281 160.001,114.9C160.001,113.519 161.121,112.4 162.501,112.4ZM142.501,112.4C143.882,112.4 145.001,113.519 145.001,114.9C145.001,116.281 143.882,117.4 142.501,117.4C141.121,117.4 140.001,116.281 140.001,114.9C140.001,113.519 141.121,112.4 142.501,112.4ZM132.501,112.4C133.882,112.4 135.001,113.519 135.001,114.9C135.001,116.281 133.882,117.4 132.501,117.4C131.121,117.4 130.001,116.281 130.001,114.9C130.001,113.519 131.121,112.4 132.501,112.4ZM127.501,107C128.882,107 130.001,108.119 130.001,109.5C130.001,110.881 128.882,112 127.501,112C126.121,112 125.001,110.881 125.001,109.5C125.001,108.119 126.121,107 127.501,107ZM137.501,107C138.882,107 140.001,108.119 140.001,109.5C140.001,110.881 138.882,112 137.501,112C136.121,112 135.001,110.881 135.001,109.5C135.001,108.119 136.121,107 137.501,107ZM117.501,107C118.882,107 120.001,108.119 120.001,109.5C120.001,110.881 118.882,112 117.501,112C116.121,112 115.001,110.881 115.001,109.5C115.001,108.119 116.121,107 117.501,107ZM157.501,107C158.882,107 160.001,108.119 160.001,109.5C160.001,110.881 158.882,112 157.501,112C156.121,112 155.001,110.881 155.001,109.5C155.001,108.119 156.121,107 157.501,107ZM167.501,107C168.882,107 170.001,108.119 170.001,109.5C170.001,110.881 168.882,112 167.501,112C166.121,112 165.001,110.881 165.001,109.5C165.001,108.119 166.121,107 167.501,107ZM147.501,107C148.882,107 150.001,108.119 150.001,109.5C150.001,110.881 148.882,112 147.501,112C146.121,112 145.001,110.881 145.001,109.5C145.001,108.119 146.121,107 147.501,107ZM176.001,107.5L176.001,111.5C175.394,111.043 175.001,110.318 175.001,109.5C175.001,108.682 175.394,107.957 176.001,107.5ZM112.501,100.8C113.882,100.8 115.001,101.919 115.001,103.3C115.001,104.681 113.882,105.8 112.501,105.8C112.33,105.8 112.162,105.783 112.001,105.75L112.001,100.85C112.162,100.817 112.33,100.8 112.501,100.8ZM132.501,100.8C133.882,100.8 135.001,101.919 135.001,103.3C135.001,104.681 133.882,105.8 132.501,105.8C131.121,105.8 130.001,104.681 130.001,103.3C130.001,101.919 131.121,100.8 132.501,100.8ZM152.501,100.8C153.882,100.8 155.001,101.919 155.001,103.3C155.001,104.681 153.882,105.8 152.501,105.8C151.121,105.8 150.001,104.681 150.001,103.3C150.001,101.919 151.121,100.8 152.501,100.8ZM142.501,100.8C143.882,100.8 145.001,101.919 145.001,103.3C145.001,104.681 143.882,105.8 142.501,105.8C141.121,105.8 140.001,104.681 140.001,103.3C140.001,101.919 141.121,100.8 142.501,100.8ZM172.501,100.8C173.882,100.8 175.001,101.919 175.001,103.3C175.001,104.681 173.882,105.8 172.501,105.8C171.121,105.8 170.001,104.681 170.001,103.3C170.001,101.919 171.121,100.8 172.501,100.8ZM122.501,100.8C123.882,100.8 125.001,101.919 125.001,103.3C125.001,104.681 123.882,105.8 122.501,105.8C121.121,105.8 120.001,104.681 120.001,103.3C120.001,101.919 121.121,100.8 122.501,100.8ZM162.501,100.8C163.882,100.8 165.001,101.919 165.001,103.3C165.001,104.681 163.882,105.8 162.501,105.8C161.121,105.8 160.001,104.681 160.001,103.3C160.001,101.919 161.121,100.8 162.501,100.8ZM117.501,95.4C118.882,95.4 120.001,96.519 120.001,97.9C120.001,99.281 118.882,100.4 117.501,100.4C116.121,100.4 115.001,99.281 115.001,97.9C115.001,96.519 116.121,95.4 117.501,95.4ZM147.501,95.4C148.882,95.4 150.001,96.519 150.001,97.9C150.001,99.281 148.882,100.4 147.501,100.4C146.121,100.4 145.001,99.281 145.001,97.9C145.001,96.519 146.121,95.4 147.501,95.4ZM127.501,95.4C128.882,95.4 130.001,96.519 130.001,97.9C130.001,99.281 128.882,100.4 127.501,100.4C126.121,100.4 125.001,99.281 125.001,97.9C125.001,96.519 126.121,95.4 127.501,95.4ZM137.501,95.4C138.882,95.4 140.001,96.519 140.001,97.9C140.001,99.281 138.882,100.4 137.501,100.4C136.121,100.4 135.001,99.281 135.001,97.9C135.001,96.519 136.121,95.4 137.501,95.4ZM167.501,95.4C168.882,95.4 170.001,96.519 170.001,97.9C170.001,99.281 168.882,100.4 167.501,100.4C166.121,100.4 165.001,99.281 165.001,97.9C165.001,96.519 166.121,95.4 167.501,95.4ZM157.501,95.4C158.882,95.4 160.001,96.519 160.001,97.9C160.001,99.281 158.882,100.4 157.501,100.4C156.121,100.4 155.001,99.281 155.001,97.9C155.001,96.519 156.121,95.4 157.501,95.4ZM176.001,95.9L176.001,99.9C175.394,99.443 175.001,98.718 175.001,97.9C175.001,97.082 175.394,96.357 176.001,95.9ZM132.501,89.4C133.882,89.4 135.001,90.519 135.001,91.9C135.001,93.281 133.882,94.4 132.501,94.4C131.121,94.4 130.001,93.281 130.001,91.9C130.001,90.519 131.121,89.4 132.501,89.4ZM112.501,89.4C113.882,89.4 115.001,90.519 115.001,91.9C115.001,93.281 113.882,94.4 112.501,94.4C112.33,94.4 112.162,94.383 112.001,94.35L112.001,89.45C112.162,89.417 112.33,89.4 112.501,89.4ZM152.501,89.4C153.882,89.4 155.001,90.519 155.001,91.9C155.001,93.281 153.882,94.4 152.501,94.4C151.121,94.4 150.001,93.281 150.001,91.9C150.001,90.519 151.121,89.4 152.501,89.4ZM172.501,89.4C173.882,89.4 175.001,90.519 175.001,91.9C175.001,93.281 173.882,94.4 172.501,94.4C171.121,94.4 170.001,93.281 170.001,91.9C170.001,90.519 171.121,89.4 172.501,89.4ZM142.501,89.4C143.882,89.4 145.001,90.519 145.001,91.9C145.001,93.281 143.882,94.4 142.501,94.4C141.121,94.4 140.001,93.281 140.001,91.9C140.001,90.519 141.121,89.4 142.501,89.4ZM162.501,89.4C163.882,89.4 165.001,90.519 165.001,91.9C165.001,93.281 163.882,94.4 162.501,94.4C161.121,94.4 160.001,93.281 160.001,91.9C160.001,90.519 161.121,89.4 162.501,89.4ZM122.501,89.4C123.882,89.4 125.001,90.519 125.001,91.9C125.001,93.281 123.882,94.4 122.501,94.4C121.121,94.4 120.001,93.281 120.001,91.9C120.001,90.519 121.121,89.4 122.501,89.4ZM127.501,84C128.882,84 130.001,85.119 130.001,86.5C130.001,87.881 128.882,89 127.501,89C126.121,89 125.001,87.881 125.001,86.5C125.001,85.119 126.121,84 127.501,84ZM135.751,84.715C136.928,85.829 138.329,86.707 139.879,87.274L139.874,87.29C139.543,88.284 138.606,89 137.501,89C136.121,89 135.001,87.881 135.001,86.5C135.001,85.801 135.288,85.169 135.751,84.715ZM149.999,86.395L150.001,86.5C150.001,87.881 148.882,89 147.501,89C146.645,89 145.89,88.57 145.439,87.914C147.085,87.718 148.628,87.188 149.999,86.395ZM157.501,84C158.882,84 160.001,85.119 160.001,86.5C160.001,87.881 158.882,89 157.501,89C156.121,89 155.001,87.881 155.001,86.5C155.001,85.119 156.121,84 157.501,84ZM167.501,84C168.882,84 170.001,85.119 170.001,86.5C170.001,87.881 168.882,89 167.501,89C166.121,89 165.001,87.881 165.001,86.5C165.001,85.119 166.121,84 167.501,84ZM117.501,84C118.882,84 120.001,85.119 120.001,86.5C120.001,87.881 118.882,89 117.501,89C116.121,89 115.001,87.881 115.001,86.5C115.001,85.119 116.121,84 117.501,84ZM176.001,84.5L176.001,88.5C175.394,88.043 175.001,87.318 175.001,86.5C175.001,85.682 175.394,84.957 176.001,84.5ZM144.066,67.6C145.792,67.6 147.454,68.113 148.869,69.083C150.252,70.031 151.311,71.348 151.93,72.892C152.01,73.089 152.082,73.293 152.147,73.498L151.964,73.964L150.531,74.788L149.944,74.54C149.897,74.357 149.842,74.174 149.778,73.997C148.921,71.602 146.626,69.992 144.066,69.992C140.724,69.992 138.006,72.688 138.006,76C138.006,79.312 140.724,82.008 144.066,82.008C145.365,82.008 146.603,81.605 147.649,80.842C148.674,80.094 149.424,79.07 149.806,77.94L149.803,77.945L149.716,78.16L142.772,74.22L142.772,77.708L145.272,76.462L146.662,77.25L146.663,77.945L142.222,80.259L140.791,79.45L140.588,79.102L140.588,72.796L140.789,72.448L142.614,71.631L152.198,77.074L152.394,77.493C152.048,79.405 151.033,81.15 149.534,82.412C148.009,83.694 146.068,84.4 144.066,84.4C141.806,84.4 139.68,83.526 138.081,81.941C136.482,80.355 135.601,78.244 135.601,76C135.601,73.756 136.482,71.645 138.081,70.059C139.68,68.474 141.806,67.6 144.066,67.6ZM132.243,78.413C132.571,80.018 133.218,81.506 134.116,82.807L134.099,82.823C133.666,83.183 133.109,83.4 132.501,83.4C131.121,83.4 130.001,82.281 130.001,80.9C130.001,79.607 130.984,78.543 132.243,78.413ZM112.501,78.4C113.882,78.4 115.001,79.519 115.001,80.9C115.001,82.281 113.882,83.4 112.501,83.4C112.33,83.4 112.162,83.383 112.001,83.35L112.001,78.45C112.162,78.417 112.33,78.4 112.501,78.4ZM172.501,78.4C173.882,78.4 175.001,79.519 175.001,80.9C175.001,82.281 173.882,83.4 172.501,83.4C171.121,83.4 170.001,82.281 170.001,80.9C170.001,79.519 171.121,78.4 172.501,78.4ZM122.501,78.4C123.882,78.4 125.001,79.519 125.001,80.9C125.001,82.281 123.882,83.4 122.501,83.4C121.121,83.4 120.001,82.281 120.001,80.9C120.001,79.519 121.121,78.4 122.501,78.4ZM162.501,78.4C163.882,78.4 165.001,79.519 165.001,80.9C165.001,82.281 163.882,83.4 162.501,83.4C161.121,83.4 160.001,82.281 160.001,80.9C160.001,79.519 161.121,78.4 162.501,78.4ZM154.999,80.806C155.001,80.837 155.001,80.868 155.001,80.9C155.001,81.86 154.46,82.693 153.667,83.112C154.192,82.399 154.64,81.626 154.999,80.806ZM127.501,73C128.882,73 130.001,74.119 130.001,75.5C130.001,76.881 128.882,78 127.501,78C126.121,78 125.001,76.881 125.001,75.5C125.001,74.119 126.121,73 127.501,73ZM157.501,73C158.882,73 160.001,74.119 160.001,75.5C160.001,76.881 158.882,78 157.501,78C156.899,78 156.346,77.787 155.914,77.432C155.971,76.962 156,76.484 156,76C156,75.21 155.924,74.437 155.778,73.689C156.226,73.262 156.833,73 157.501,73ZM167.501,73C168.882,73 170.001,74.119 170.001,75.5C170.001,76.881 168.882,78 167.501,78C166.121,78 165.001,76.881 165.001,75.5C165.001,74.119 166.121,73 167.501,73ZM117.501,73C118.882,73 120.001,74.119 120.001,75.5C120.001,76.881 118.882,78 117.501,78C116.121,78 115.001,76.881 115.001,75.5C115.001,74.119 116.121,73 117.501,73ZM176.001,73.5L176.001,77.5C175.394,77.043 175.001,76.318 175.001,75.5C175.001,74.682 175.394,73.957 176.001,73.5ZM132.501,67C133.477,67 134.323,67.559 134.735,68.375C133.855,69.442 133.156,70.663 132.686,71.992C132.626,71.998 132.564,72 132.501,72C131.121,72 130.001,70.881 130.001,69.5C130.001,68.119 131.121,67 132.501,67ZM172.501,67C173.882,67 175.001,68.119 175.001,69.5C175.001,70.881 173.882,72 172.501,72C171.121,72 170.001,70.881 170.001,69.5C170.001,68.119 171.121,67 172.501,67ZM112.501,67C113.882,67 115.001,68.119 115.001,69.5C115.001,70.881 113.882,72 112.501,72C112.33,72 112.162,71.983 112.001,71.95L112.001,67.05C112.162,67.017 112.33,67 112.501,67ZM122.501,67C123.882,67 125.001,68.119 125.001,69.5C125.001,70.881 123.882,72 122.501,72C121.121,72 120.001,70.881 120.001,69.5C120.001,68.119 121.121,67 122.501,67ZM162.501,67C163.882,67 165.001,68.119 165.001,69.5C165.001,70.881 163.882,72 162.501,72C161.121,72 160.001,70.881 160.001,69.5C160.001,68.119 161.121,67 162.501,67ZM152.501,67C153.882,67 155.001,68.119 155.001,69.5C155.001,69.906 154.905,70.289 154.733,70.628C154.051,69.268 153.119,68.056 151.996,67.052C152.158,67.018 152.328,67 152.501,67ZM127.501,61.6C128.882,61.6 130.001,62.719 130.001,64.1C130.001,65.481 128.882,66.6 127.501,66.6C126.121,66.6 125.001,65.481 125.001,64.1C125.001,62.719 126.121,61.6 127.501,61.6ZM117.501,61.6C118.882,61.6 120.001,62.719 120.001,64.1C120.001,65.481 118.882,66.6 117.501,66.6C116.121,66.6 115.001,65.481 115.001,64.1C115.001,62.719 116.121,61.6 117.501,61.6ZM157.501,61.6C158.882,61.6 160.001,62.719 160.001,64.1C160.001,65.481 158.882,66.6 157.501,66.6C156.121,66.6 155.001,65.481 155.001,64.1C155.001,62.719 156.121,61.6 157.501,61.6ZM167.501,61.6C168.882,61.6 170.001,62.719 170.001,64.1C170.001,65.481 168.882,66.6 167.501,66.6C166.121,66.6 165.001,65.481 165.001,64.1C165.001,62.719 166.121,61.6 167.501,61.6ZM137.501,61.6C138.882,61.6 140.001,62.719 140.001,64.1C140.001,64.31 139.975,64.514 139.926,64.709C138.758,65.131 137.674,65.729 136.706,66.471C135.715,66.139 135.001,65.203 135.001,64.1C135.001,62.719 136.121,61.6 137.501,61.6ZM175.811,62.258C175.936,62.819 176.001,63.402 176.001,64L176.001,66.1C175.394,65.643 175.001,64.918 175.001,64.1C175.001,63.371 175.313,62.715 175.811,62.258ZM147.501,61.6C148.882,61.6 150.001,62.719 150.001,64.1C150.001,64.577 149.867,65.024 149.635,65.403C148.233,64.656 146.666,64.179 145.003,64.041L145.001,64.1C145.001,62.719 146.121,61.6 147.501,61.6ZM142.501,56C143.882,56 145.001,57.119 145.001,58.5C145.001,59.881 143.882,61 142.501,61C141.121,61 140.001,59.881 140.001,58.5C140.001,57.119 141.121,56 142.501,56ZM122.501,56C123.882,56 125.001,57.119 125.001,58.5C125.001,59.881 123.882,61 122.501,61C121.121,61 120.001,59.881 120.001,58.5C120.001,57.119 121.121,56 122.501,56ZM152.501,56C153.882,56 155.001,57.119 155.001,58.5C155.001,59.881 153.882,61 152.501,61C151.121,61 150.001,59.881 150.001,58.5C150.001,57.119 151.121,56 152.501,56ZM162.501,56C163.882,56 165.001,57.119 165.001,58.5C165.001,59.881 163.882,61 162.501,61C161.121,61 160.001,59.881 160.001,58.5C160.001,57.119 161.121,56 162.501,56ZM170.933,56.553C172.495,57.17 173.817,58.263 174.719,59.654L174.686,59.717C174.258,60.482 173.44,61 172.501,61C171.121,61 170.001,59.881 170.001,58.5C170.001,57.713 170.365,57.011 170.933,56.553ZM132.501,56C133.882,56 135.001,57.119 135.001,58.5C135.001,59.881 133.882,61 132.501,61C131.121,61 130.001,59.881 130.001,58.5C130.001,57.119 131.121,56 132.501,56ZM114.91,57.829C114.97,58.043 115.001,58.268 115.001,58.5C115.001,59.853 113.927,60.955 112.585,60.999C113.087,59.756 113.893,58.669 114.91,57.829Z" style="fill-rule:nonzero;"/>
        <path id="Highlight" d="M116,174C116.982,174 117.798,174.708 117.968,175.64L118,176L118,189.469C118,191.972 120.028,194 122.531,194C123.635,194 124.531,194.895 124.531,196C124.531,197.105 123.635,198 122.531,198C118.024,198 114.334,194.506 114.021,190.079L114,189.469L114,176C114,174.895 114.895,174 116,174Z" style="fill:white;fill-rule:nonzero;"/>
    </g>
</svg>
