<?xml version="1.0" encoding="UTF-8" standalone="no"?>
<!DOCTYPE svg PUBLIC "-//W3C//DTD SVG 1.1//EN" "http://www.w3.org/Graphics/SVG/1.1/DTD/svg11.dtd">
<svg width="100%" height="100%" viewBox="0 0 20 20" version="1.1" xmlns="http://www.w3.org/2000/svg" xmlns:xlink="http://www.w3.org/1999/xlink" xml:space="preserve" xmlns:serif="http://www.serif.com/" style="fill-rule:evenodd;clip-rule:evenodd;stroke-linejoin:round;stroke-miterlimit:2;">
    <g transform="matrix(1,0,0,1,-53,-117)">
        <path d="M59.379,122.595L72.324,135.541C72.541,135.757 72.541,136.108 72.324,136.324C72.108,136.541 71.757,136.541 71.541,136.324L58.595,123.379L59.379,122.595ZM60.101,135.905L59.368,135.905L56.411,128.065L57.065,127.812L57.609,128.185L60.542,135.124L60.101,135.905ZM65.982,135.905L65.25,135.905L64.809,135.124L66.029,132.237L67,133.208L65.982,135.905ZM55.08,125C54.781,125.838 54.618,126.744 54.618,127.689C54.618,128.027 54.639,128.361 54.68,128.689L55.662,128.285L58.523,135.827L55.988,135.536L55.219,133.953L54.773,133.874C54.049,131.564 53.638,129.321 53.638,127.715C53.638,126.77 53.78,125.859 54.046,125L55.08,125ZM67.603,133.811L69.331,135.539L66.844,135.824L67.603,133.811ZM61,118.749C61.54,118.642 62.099,118.588 62.67,118.588C67.655,118.588 71.703,122.678 71.703,127.715C71.703,129.045 71.42,130.813 70.9,132.693L68.813,130.605L69.688,128.287L70.66,128.687C70.7,128.36 70.721,128.026 70.721,127.689C70.721,123.245 67.113,119.637 62.67,119.637C62.098,119.637 61.54,119.697 61,119.814L61,118.749ZM67.341,129.133L67.741,128.185L68.285,127.812L68.939,128.065L68.209,130.001L67.341,129.133Z" style="fill:rgb(150,150,150);"/>
        <g transform="matrix(1,0,0,1,-7,3)">
            <g transform="matrix(0.623773,0.623773,-0.623773,0.623773,172.16,-37.8196)">
                <path d="M40,209L34,209L40,215L40,209Z" style="fill:rgb(151,151,151);"/>
            </g>
            <g transform="matrix(0.8,0,0,0.75,37.6,-42.25)">
                <rect x="28" y="211" width="5" height="4" style="fill:rgb(151,151,151);"/>
            </g>
        </g>
    </g>
</svg>
