<?xml version="1.0" encoding="UTF-8" standalone="no"?>
<!DOCTYPE svg PUBLIC "-//W3C//DTD SVG 1.1//EN" "http://www.w3.org/Graphics/SVG/1.1/DTD/svg11.dtd">
<svg width="100%" height="100%" viewBox="0 0 20 20" version="1.1" xmlns="http://www.w3.org/2000/svg" xmlns:xlink="http://www.w3.org/1999/xlink" xml:space="preserve" xmlns:serif="http://www.serif.com/" style="fill-rule:evenodd;clip-rule:evenodd;stroke-linejoin:round;stroke-miterlimit:2;">
    <g transform="matrix(1,0,0,1,-51,-117)">
        <path d="M57.227,122.444L70.324,135.541C70.541,135.757 70.541,136.108 70.324,136.324C70.108,136.541 69.757,136.541 69.541,136.324L56.444,123.227L57.227,122.444ZM58.101,135.905L57.368,135.905L54.411,128.065L55.065,127.812L55.609,128.185L58.542,135.124L58.101,135.905ZM63.982,135.905L63.25,135.905L62.809,135.124L64.029,132.237L65,133.208L63.982,135.905ZM53.08,125C52.781,125.838 52.618,126.744 52.618,127.689C52.618,128.027 52.639,128.361 52.68,128.689L53.662,128.285L56.523,135.827L53.988,135.536L53.219,133.953L52.773,133.874C52.049,131.564 51.638,129.321 51.638,127.715C51.638,126.77 51.78,125.859 52.046,125L53.08,125ZM65.603,133.811L67.331,135.539L64.844,135.824L65.603,133.811ZM59,118.749C59.54,118.642 60.099,118.588 60.67,118.588C65.655,118.588 69.703,122.678 69.703,127.715C69.703,129.045 69.42,130.813 68.9,132.693L66.813,130.605L67.688,128.287L68.66,128.687C68.7,128.36 68.721,128.026 68.721,127.689C68.721,123.245 65.113,119.637 60.67,119.637C60.098,119.637 59.54,119.697 59,119.814L59,118.749ZM65.341,129.133L65.741,128.185L66.285,127.812L66.939,128.065L66.209,130.001L65.341,129.133Z" style="fill:rgb(150,150,150);"/>
        <g transform="matrix(1,0,0,1,-174,4)">
            <path d="M230,116L232.071,116L228.536,119.536L225,116L227,116L227,113L230,113L230,116ZM228,114L228,116L227.999,116.052L227.995,116.105L227.988,116.156L227.978,116.208L227.966,116.259L227.951,116.309L227.934,116.358L227.914,116.407L227.891,116.454L227.866,116.5L227.839,116.545L227.809,116.588L227.777,116.629L227.743,116.669L227.707,116.707L227.669,116.743L227.629,116.777L227.588,116.809L227.545,116.839L227.5,116.866L227.454,116.891L227.407,116.914L227.358,116.934L227.351,116.936L228.536,118.121L229.702,116.954L229.691,116.951L229.642,116.934L229.593,116.914L229.546,116.891L229.5,116.866L229.455,116.839L229.412,116.809L229.371,116.777L229.331,116.743L229.293,116.707L229.257,116.669L229.223,116.629L229.191,116.588L229.161,116.545L229.134,116.5L229.109,116.454L229.086,116.407L229.066,116.358L229.049,116.309L229.034,116.259L229.022,116.208L229.012,116.156L229.005,116.105L229.001,116.052L229,116L229,114L228,114Z" style="fill:rgb(150,150,150);"/>
        </g>
    </g>
</svg>
