<?xml version="1.0" encoding="UTF-8" standalone="no"?>
<!DOCTYPE svg PUBLIC "-//W3C//DTD SVG 1.1//EN" "http://www.w3.org/Graphics/SVG/1.1/DTD/svg11.dtd">
<svg width="100%" height="100%" viewBox="0 0 20 20" version="1.1" xmlns="http://www.w3.org/2000/svg" xmlns:xlink="http://www.w3.org/1999/xlink" xml:space="preserve" xmlns:serif="http://www.serif.com/" style="fill-rule:evenodd;clip-rule:evenodd;stroke-linejoin:round;stroke-miterlimit:2;">
    <g transform="matrix(1,0,0,1,-50,-118)">
        <g transform="matrix(1,0,0,1,-175,6)">
            <path d="M230,116L232.071,116L228.536,119.536L225,116L227,116L227,113L230,113L230,116ZM228,114L228,116L227.999,116.052L227.995,116.105L227.988,116.156L227.978,116.208L227.966,116.259L227.951,116.309L227.934,116.358L227.914,116.407L227.891,116.454L227.866,116.5L227.839,116.545L227.809,116.588L227.777,116.629L227.743,116.669L227.707,116.707L227.669,116.743L227.629,116.777L227.588,116.809L227.545,116.839L227.5,116.866L227.454,116.891L227.407,116.914L227.358,116.934L227.351,116.936L228.536,118.121L229.702,116.954L229.691,116.951L229.642,116.934L229.593,116.914L229.546,116.891L229.5,116.866L229.455,116.839L229.412,116.809L229.371,116.777L229.331,116.743L229.293,116.707L229.257,116.669L229.223,116.629L229.191,116.588L229.161,116.545L229.134,116.5L229.109,116.454L229.086,116.407L229.066,116.358L229.049,116.309L229.034,116.259L229.022,116.208L229.012,116.156L229.005,116.105L229.001,116.052L229,116L229,114L228,114Z" style="fill:rgb(150,150,150);"/>
        </g>
        <g transform="matrix(6.12323e-17,-1,1,6.12323e-17,-75,198)">
            <g transform="matrix(3.4018e-17,-0.555556,0.2,1.22465e-17,46,210)">
                <rect x="117" y="100" width="9" height="5" style="fill:rgb(150,150,150);"/>
            </g>
            <g transform="matrix(0.555556,0,0,0.2,4,122)">
                <rect x="117" y="100" width="9" height="5" style="fill:rgb(150,150,150);"/>
            </g>
            <g transform="matrix(3.4018e-17,-0.555556,0.2,1.22465e-17,51,210)">
                <rect x="117" y="100" width="9" height="5" style="fill:rgb(150,150,150);"/>
            </g>
        </g>
        <g transform="matrix(0.544162,0,0,0.544162,15.0987,46.9416)">
            <path d="M76.997,144.18L88,137.932L88,161.798L76.997,155.55L76.997,144.18ZM75.177,145.214L75.177,154.517L71.489,152.422L71.489,147.308L75.177,145.214Z" style="fill:rgb(150,150,150);"/>
        </g>
    </g>
</svg>
