<?xml version="1.0" encoding="UTF-8"?>
<svg width="20px" height="20px" viewBox="0 0 20 20" version="1.1" xmlns="http://www.w3.org/2000/svg" xmlns:xlink="http://www.w3.org/1999/xlink" xml:space="preserve" style="fill-rule:evenodd;clip-rule:evenodd;stroke-linejoin:round;stroke-miterlimit:2;">
    <g id="ToggleMonitorMixOutput" transform="matrix(1,0,0,1,-53,-117)">
        <g id="headphones" transform="matrix(0.188668,0,0,0.188668,41.244,118.849)">
            <path d="M84.159,88.978L82.066,88.978L73.616,66.577L75.485,65.852L77.039,66.92L85.42,86.746L84.159,88.978ZM100.967,88.978L98.873,88.978L97.613,86.746L105.993,66.92L107.547,65.852L109.416,66.577L100.967,88.978ZM70.211,83.401L68.935,83.174C66.867,76.575 65.691,70.166 65.691,65.575C65.691,51.181 77.256,39.495 91.501,39.495C105.747,39.495 117.312,51.181 117.312,65.575C117.312,70.161 116.138,76.563 114.071,83.165L112.807,83.397L110.609,87.924L103.428,88.748L111.554,67.211L114.333,68.352C114.448,67.417 114.508,66.466 114.508,65.5C114.508,52.802 104.198,42.492 91.5,42.492C78.802,42.492 68.492,52.802 68.492,65.5C68.492,66.468 68.552,67.421 68.668,68.358L71.474,67.206L79.651,88.756L72.406,87.924L70.211,83.401Z" style="fill:rgb(151,151,151);"/>
        </g>
        <g id="headphones1" transform="matrix(0.188668,0,0,0.188668,41.244,118.849)">
            <path d="M68.492,65.5C68.492,66.468 65.691,70.166 65.691,65.575C65.691,51.181 77.256,39.495 91.501,39.495C105.747,39.495 117.312,51.181 117.312,65.575C117.312,70.161 114.508,66.466 114.508,65.5C114.508,52.802 104.198,42.492 91.5,42.492C78.802,42.492 68.492,52.802 68.492,65.5Z" style="fill:rgb(151,151,151);"/>
        </g>
        <g id="speaker" transform="matrix(0.636417,0,0,0.636417,42.0898,99.1341)">
            <path d="M44.83,57.958L38.169,57.958C36.972,57.958 36,56.987 36,55.79L36,44.383C36,43.186 36.972,42.214 38.169,42.214L44.83,42.214C46.027,42.214 46.999,43.186 46.999,44.383L46.999,55.79C46.999,56.987 46.027,57.958 44.83,57.958ZM41.501,47.965C43.987,47.965 46.001,49.98 46.001,52.465C46.001,54.951 43.987,56.965 41.501,56.965C39.016,56.965 37.001,54.951 37.001,52.465C37.001,49.98 39.016,47.965 41.501,47.965ZM41.5,50.994C42.337,50.994 43.015,51.666 43.015,52.494C43.015,53.322 42.337,53.994 41.5,53.994C40.662,53.994 39.984,53.322 39.984,52.494C39.984,51.666 40.662,50.994 41.5,50.994ZM41.501,43.864C42.33,43.864 43.001,44.536 43.001,45.364C43.001,46.193 42.33,46.864 41.501,46.864C40.673,46.864 40.001,46.193 40.001,45.364C40.001,44.536 40.673,43.864 41.501,43.864ZM41.5,44.627C41.927,44.627 42.273,44.97 42.273,45.393C42.273,45.816 41.927,46.158 41.5,46.158C41.072,46.158 40.726,45.816 40.726,45.393C40.726,44.97 41.072,44.627 41.5,44.627Z" style="fill:rgb(151,151,151);"/>
        </g>
        <g transform="matrix(1,0,0,1,53,117)">
            <path d="M13.229,2.784L15.96,5.515L13.241,8.234L12.534,7.527L14.037,6.023L9.002,6.023L9.002,5.023L14.054,5.023L12.522,3.491L13.229,2.784ZM6.461,6.014L3.962,3.515L6.468,1.009L7.175,1.716L5.884,3.007L10.998,3.007L10.998,4.007L5.868,4.007L7.168,5.307L6.461,6.014Z" style="fill:rgb(150,150,150);"/>
        </g>
    </g>
</svg>
