<?xml version="1.0" encoding="UTF-8"?>
<svg width="20px" height="20px" viewBox="0 0 20 20" version="1.1" xmlns="http://www.w3.org/2000/svg" xmlns:xlink="http://www.w3.org/1999/xlink" xml:space="preserve" style="fill-rule:evenodd;clip-rule:evenodd;stroke-linejoin:round;stroke-miterlimit:2;">
    <g id="SetMonitorMixOutput" transform="matrix(1,0,0,1,-53,-117)">
        <g id="headphones" transform="matrix(0.188668,0,0,0.188668,41.244,117.849)">
            <path d="M84.159,88.978l-2.093,0l-8.45,-22.401l1.869,-0.725l1.554,1.068l8.381,19.826l-1.261,2.232Zm16.808,0l-2.094,0l-1.26,-2.232l8.38,-19.826l1.554,-1.068l1.869,0.725l-8.449,22.401Zm-30.756,-5.577l-1.276,-0.227c-2.068,-6.599 -3.244,-13.008 -3.244,-17.599c0,-14.394 11.565,-26.08 25.81,-26.08c14.246,0 25.811,11.686 25.811,26.08c0,4.586 -1.174,10.988 -3.241,17.59l-1.264,0.232l-2.198,4.527l-7.181,0.824l8.126,-21.537l2.779,1.141c0.115,-0.935 0.175,-1.886 0.175,-2.852c0,-12.698 -10.31,-23.008 -23.008,-23.008c-12.698,0 -23.008,10.31 -23.008,23.008c0,0.968 0.06,1.921 0.176,2.858l2.806,-1.152l8.177,21.55l-7.245,-0.832l-2.195,-4.523Z" style="fill:rgb(151,151,151);"/>
        </g>
        <g id="headphones--Kurve-" transform="matrix(0.188668,0,0,0.188668,41.244,117.849)">
            <path d="M68.492,65.5c0,0.968 -2.801,4.666 -2.801,0.075c0,-14.394 11.565,-26.08 25.81,-26.08c14.246,0 25.811,11.686 25.811,26.08c0,4.586 -2.804,0.891 -2.804,-0.075c0,-12.698 -10.31,-23.008 -23.008,-23.008c-12.698,0 -23.008,10.31 -23.008,23.008Z" style="fill:rgb(151,151,151);"/>
        </g>
        <g id="speaker" transform="matrix(0.636417,0,0,0.636417,42.0898,98.1341)">
            <path d="M44.83,57.958l-6.661,0c-1.197,0 -2.169,-0.971 -2.169,-2.168l0,-11.407c0,-1.197 0.972,-2.169 2.169,-2.169l6.661,0c1.197,0 2.169,0.972 2.169,2.169l0,11.407c0,1.197 -0.972,2.168 -2.169,2.168Zm-3.329,-9.993c2.486,0 4.5,2.015 4.5,4.5c0,2.486 -2.014,4.5 -4.5,4.5c-2.485,0 -4.5,-2.014 -4.5,-4.5c0,-2.485 2.015,-4.5 4.5,-4.5Zm-0.001,3.029c0.837,0 1.515,0.672 1.515,1.5c0,0.828 -0.678,1.5 -1.515,1.5c-0.838,0 -1.516,-0.672 -1.516,-1.5c0,-0.828 0.678,-1.5 1.516,-1.5Zm0.001,-7.13c0.829,0 1.5,0.672 1.5,1.5c0,0.829 -0.671,1.5 -1.5,1.5c-0.828,0 -1.5,-0.671 -1.5,-1.5c0,-0.828 0.672,-1.5 1.5,-1.5Zm-0.001,0.763c0.427,0 0.773,0.343 0.773,0.766c0,0.423 -0.346,0.765 -0.773,0.765c-0.428,0 -0.774,-0.342 -0.774,-0.765c0,-0.423 0.346,-0.766 0.774,-0.766Z" style="fill:rgb(151,151,151);"/>
        </g>
        <g transform="matrix(1.28117,0,0,1.28117,48.126,114.894)">
            <path d="M12,2l0.674,2.073l2.179,0l-1.763,1.281l0.673,2.073l-1.763,-1.281l-1.763,1.281l0.673,-2.073l-1.763,-1.281l2.179,0l0.674,-2.073Z" style="fill:rgb(151,151,151);"/>
        </g>
    </g>
</svg>
