<?xml version="1.0" encoding="UTF-8" standalone="no"?>
<!DOCTYPE svg PUBLIC "-//W3C//DTD SVG 1.1//EN" "http://www.w3.org/Graphics/SVG/1.1/DTD/svg11.dtd">
<svg width="100%" height="100%" viewBox="0 0 20 20" version="1.1" xmlns="http://www.w3.org/2000/svg" xmlns:xlink="http://www.w3.org/1999/xlink" xml:space="preserve" xmlns:serif="http://www.serif.com/" style="fill-rule:evenodd;clip-rule:evenodd;stroke-linejoin:round;stroke-miterlimit:2;">
    <g transform="matrix(1,0,0,1,-50,-38)">
        <g transform="matrix(1,0,0,1,41.9848,20)">
            <path d="M14.576,19.358C17.303,19.416 20.502,21.048 20.51,23.378C20.512,23.89 19.741,23.985 19.707,23.297C19.572,21.63 17.674,20.915 16.399,20.498C13.064,19.408 9.098,22.077 9.178,25.998C9.233,28.727 12.472,30.332 13.452,32.616C14.032,33.97 14.519,35.552 16.093,35.797C17.28,35.981 18.583,35.16 18.698,34.115C18.698,34.115 18.744,33.911 18.875,33.824C19.289,33.552 19.58,34.377 19.222,35.032C18.345,36.634 15.927,37.186 14.413,35.893C13.41,35.036 13.085,33.654 12.539,32.537C11.826,31.139 10.337,30.285 9.385,28.952C7.889,26.855 8.148,23.696 9.814,21.752C11.043,20.319 12.987,19.346 14.576,19.358ZM17.373,25.919C17.423,25.422 17.43,24.935 17.247,24.481C16.827,23.438 15.683,22.665 14.567,22.908C13.588,23.121 12.765,24.007 12.607,24.875C12.607,24.875 12.54,25.056 12.412,25.114C11.972,25.315 11.919,24.44 12.308,23.82C12.896,22.882 13.89,22.157 15.061,22.162C16.775,22.228 18.26,23.844 18.108,25.513C18.003,26.566 18.099,27.372 17.046,28.233C16.361,28.817 16.117,29.89 16.617,30.613C16.971,31.124 17.856,31.495 17.856,31.495C18.288,31.776 18.192,32.597 16.508,31.686C16.105,31.469 15.721,31.141 15.44,30.748C15.215,30.503 15.013,30.241 14.936,30.023C14.722,29.421 14.751,28.145 15.359,27.835C16.61,27.19 17.213,26.213 17.373,25.919Z" style="fill:rgb(150,150,150);"/>
        </g>
        <g transform="matrix(1,0,0,1,41.9848,20)">
            <path d="M14.576,19.358C17.303,19.416 20.502,21.048 20.51,23.378C20.512,23.89 19.741,23.985 19.707,23.297C19.572,21.63 17.674,20.915 16.399,20.498C13.064,19.408 9.098,22.077 9.178,25.998C9.233,28.727 12.472,30.332 13.452,32.616C14.032,33.97 14.519,35.552 16.093,35.797C17.28,35.981 18.583,35.16 18.698,34.115C18.698,34.115 18.744,33.911 18.875,33.824C19.289,33.552 19.58,34.377 19.222,35.032C18.345,36.634 15.927,37.186 14.413,35.893C13.41,35.036 13.085,33.654 12.539,32.537C11.826,31.139 10.337,30.285 9.385,28.952C7.889,26.855 8.148,23.696 9.814,21.752C11.043,20.319 12.987,19.346 14.576,19.358ZM17.373,25.919C17.423,25.422 17.43,24.935 17.247,24.481C16.827,23.438 15.683,22.665 14.567,22.908C13.588,23.121 12.765,24.007 12.607,24.875C12.607,24.875 12.54,25.056 12.412,25.114C11.972,25.315 11.919,24.44 12.308,23.82C12.896,22.882 13.89,22.157 15.061,22.162C16.775,22.228 18.26,23.844 18.108,25.513C18.003,26.566 18.099,27.372 17.046,28.233C16.361,28.817 16.117,29.89 16.617,30.613C16.971,31.124 17.856,31.495 17.856,31.495C18.288,31.776 18.192,32.597 16.508,31.686C16.105,31.469 15.721,31.141 15.44,30.748C15.215,30.503 15.013,30.241 14.936,30.023C14.722,29.421 14.751,28.145 15.359,27.835C16.61,27.19 17.213,26.213 17.373,25.919Z" style="fill:rgb(150,150,150);fill-opacity:0.7;"/>
        </g>
        <g>
            <g transform="matrix(-0.707107,0.707107,-0.707107,-0.707107,154.106,28.7663)">
                <rect x="77" y="42" width="1" height="4" style="fill:rgb(150,150,150);"/>
            </g>
            <g transform="matrix(-0.707107,-0.707107,0.707107,-0.707107,91.8804,140.489)">
                <rect x="77" y="42" width="1" height="4" style="fill:rgb(150,150,150);"/>
            </g>
            <g transform="matrix(-1.20243e-16,-1,1.58691,-1.97673e-16,-3.64772,131.023)">
                <rect x="77" y="42" width="1" height="4" style="fill:rgb(150,150,150);"/>
            </g>
            <g transform="matrix(0.707107,-0.707107,0.707107,0.707107,-22.184,73.2637)">
                <rect x="77" y="42" width="1" height="4" style="fill:rgb(150,150,150);"/>
            </g>
            <g transform="matrix(0.707107,0.707107,-0.707107,0.707107,40.0414,-38.4591)">
                <rect x="77" y="42" width="1" height="4" style="fill:rgb(150,150,150);"/>
            </g>
            <g transform="matrix(-4.35153e-18,1,-1.6066,6.5273e-18,136.475,-28.9933)">
                <rect x="77" y="42" width="1" height="4" style="fill:rgb(150,150,150);"/>
            </g>
        </g>
    </g>
</svg>
