<svg viewBox="0 0 288 288" version="1.1" xmlns="http://www.w3.org/2000/svg">
  <g fill-rule="nonzero" stroke="none" stroke-width="1" fill="none">
    <path fill="#1E183C" d="M0 0h288v288H0z"/>
    <path d="M177.4273 69.356c2.9697 2.3758 4.3737 6.0444 3.895 9.738 2.7947-.3677 5.7293.3615 8.105 2.262 3.8893 3.1115 5.0932 8.4404 2.8991 13.139l-.3366.6667-.8834 1.3039-48.6158 60.7837 48.6155 60.7856c3.7089 4.636 2.9572 11.401-1.6788 15.1098-3.8805 3.1044-9.3278 3.1163-13.427-.0342l-.6044-.4963-1.0784-1.1483-6.8122-8.5104c-1.1662-.3724-2.2957-.9458-3.3415-1.7215l-.768-.6198-1.0783-1.1483-54-67.5c-2.5077-3.1346-3.039-7.3699-1.3059-11.2716l.3516-.7273.9543-1.432 54-67.5c3.7088-4.6361 10.4737-5.3878 15.1098-1.679z" fill="#000"/>
    <path d="M175.4668 217.521c-2.5876 2.07-6.2313 1.9271-8.6447-.1747l-.8428-.8795-54-67.5c-1.6905-2.113-1.932-4.9885-.7245-7.3194l.7245-1.114 54-67.5c2.3288-2.911 6.5765-3.383 9.4875-1.0541 2.5876 2.07 3.248 5.6562 1.7272 8.4721l-.673 1.0154-50.6174 63.2833 50.6174 63.2833c2.3288 2.911 1.8568 7.1588-1.0542 9.4876z" fill="#FFF" opacity=".9"/>
  </g>
</svg>