<?xml version="1.0" encoding="UTF-8"?>
<svg width="288px" height="288px" viewBox="0 0 288 288" version="1.1" xmlns="http://www.w3.org/2000/svg" xmlns:xlink="http://www.w3.org/1999/xlink">
    <!-- Generator: Sketch 64 (93537) - https://sketch.com -->
    <title>System / Arrow Forward</title>
    <desc>Created with Sketch.</desc>
    <g id="System-/-Arrow-Forward" stroke="none" stroke-width="1" fill="none" fill-rule="evenodd">
        <rect id="Background" fill="#1E183C" fill-rule="nonzero" x="0" y="0" width="288" height="288"></rect>
        <path d="M125.65009,71.5292748 L132.396567,79.9627328 C134.398637,80.5723372 136.243989,81.7716487 137.65009,83.5292748 L191.65009,151.029275 L192.604356,152.461327 C194.74775,156.556664 194.314445,161.129775 191.65009,164.460218 L137.65009,231.960218 L136.571668,233.108592 C132.41665,236.748753 126.614786,236.898692 122.540279,233.639086 C119.502574,231.208922 118.132566,227.466706 118.592318,223.871003 C115.763914,224.251812 112.869785,223.502691 110.540279,221.639086 C105.904213,217.930234 105.152558,211.165341 108.861411,206.529275 L157.477502,145.742498 L108.861187,84.9599389 L107.977773,83.6560167 C105.338474,78.8032808 106.465771,73.1100127 110.540279,69.8504069 C115.176345,66.1415542 121.941238,66.893209 125.65009,71.5292748 Z M113.039059,72.9738821 C112.928041,73.0626964 112.820571,73.1543017 112.716668,73.2485174 C110.394316,75.3502366 109.849782,78.7542266 111.306473,81.4514347 L111.979508,82.4668158 L162.596873,145.750124 L111.979508,209.033433 C109.650694,211.944451 110.122663,216.192174 113.033681,218.520989 C115.621253,220.591046 119.264987,220.448138 121.678361,218.346324 L122.521237,217.466816 L176.521237,149.966816 C178.211678,147.853765 178.453169,144.978318 177.245712,142.64744 L176.521237,141.533433 L127.0678,79.7174103 C127.07081,79.7167872 127.073821,79.7161655 127.076831,79.715545 L122.526615,74.028055 C120.197801,71.1170369 115.950077,70.6450676 113.039059,72.9738821 Z" id="shadow-with-outline" fill="#000000" fill-rule="nonzero"></path>
        <path d="M217.021113,114.533557 C219.09117,117.121129 218.948263,120.764863 216.846448,123.178237 L215.96694,124.021113 L148.46694,178.021113 C146.353889,179.711554 143.478443,179.953045 141.147565,178.745588 L140.033557,178.021113 L72.533557,124.021113 C69.6225389,121.692299 69.1505696,117.444575 71.4793841,114.533557 C73.5494414,111.945985 77.1356737,111.285563 79.951559,112.806349 L80.9669401,113.479384 L144.250249,164.096749 L207.533557,113.479384 C210.444575,111.15057 214.692299,111.622539 217.021113,114.533557 Z" id="Icon-Fill" fill="#FFFFFF" fill-rule="nonzero" opacity="0.9" transform="translate(144.250249, 145.750124) scale(-1, 1) rotate(90.000000) translate(-144.250249, -145.750124) "></path>
    </g>
</svg>