<?xml version="1.0" encoding="UTF-8"?>
<svg width="288px" height="288px" viewBox="0 0 288 288" version="1.1" xmlns="http://www.w3.org/2000/svg" xmlns:xlink="http://www.w3.org/1999/xlink">
    <!-- Generator: Sketch 64 (93537) - https://sketch.com -->
    <title>Input / Folder AUX 1 Local</title>
    <desc>Created with Sketch.</desc>
    <g id="Input-/-Folder-AUX-1-Local" stroke="none" stroke-width="1" fill="none" fill-rule="evenodd">
        <rect fill="#FFFFFF" x="0" y="0" width="288" height="288"></rect>
        <rect id="Background" fill="#23DEC0" fill-rule="nonzero" x="0" y="0" width="288" height="288"></rect>
        <path d="M41,219.2 C46.8542183,219.2 51.6,223.945782 51.6,229.8 L51.6,293.4 C51.6,299.254218 46.8542183,304 41,304 L19.8,304 C13.9457817,304 9.2,299.254218 9.2,293.4 L9.2,229.8 C9.2,223.945782 13.9457817,219.2 19.8,219.2 L41,219.2 Z M168.2,219.2 C174.054218,219.2 178.8,223.945782 178.8,229.8 L178.8,293.4 C178.8,299.254218 174.054218,304 168.2,304 L147,304 C141.145782,304 136.4,299.254218 136.4,293.4 L136.4,229.8 C136.4,223.945782 141.145782,219.2 147,219.2 L168.2,219.2 Z M94,92 C151.549943,92 198.388076,137.86271 199.959277,195.033009 L200,198 L200,256.3 C200,259.227109 197.627109,261.6 194.7,261.6 C192.098125,261.6 189.934151,259.725123 189.48539,257.252682 L189.4,256.3 L189.4,198 C189.4,145.312035 146.687965,102.6 94,102.6 C42.2528914,102.6 0.128610917,143.800225 -1.35932668,195.18716 L-1.4,198 L-1.4,256.3 C-1.4,259.227109 -3.77289083,261.6 -6.7,261.6 C-9.30187482,261.6 -11.4658487,259.725123 -11.9146099,257.252682 L-12,256.3 L-12,198 C-12,139.457817 35.4578165,92 94,92 Z" id="Local_bg" fill="#000000" fill-rule="nonzero" opacity="0.3"></path>
        <path d="M144,66 C187.07821,66 222,100.92179 222,144 C222,187.07821 187.07821,222 144,222 C100.92179,222 66,187.07821 66,144 C66,100.92179 100.92179,66 144,66 Z M144,108 C124.117749,108 108,124.117749 108,144 C108,163.882251 124.117749,180 144,180 C163.882251,180 180,163.882251 180,144 C180,124.117749 163.882251,108 144,108 Z M168,132 C169.996086,132 171.954228,132.162454 173.86185,132.475185 C175.242812,136.050996 176,139.937072 176,144 C176,161.673112 161.673112,176 144,176 C139.937072,176 136.050996,175.242812 132.474891,173.862099 C132.162464,171.954346 132,169.996146 132,168 C132,148.117749 148.117749,132 168,132 Z" id="Icon-fill" fill="#FFFFFF" fill-rule="nonzero" opacity="0.5"></path>
        <path d="M144,62 C174.546358,62 201.191645,78.7024745 215.301302,103.472866 C235.128847,118.034285 248,141.514033 248,168 C248,212.18278 212.18278,248 168,248 C141.514033,248 118.034285,235.128847 103.474425,215.300209 C78.7024745,201.191645 62,174.546358 62,144 C62,98.7126505 98.7126505,62 144,62 Z M144,66 C100.92179,66 66,100.92179 66,144 C66,187.07821 100.92179,222 144,222 C187.07821,222 222,187.07821 222,144 C222,100.92179 187.07821,66 144,66 Z M144,108 C163.882251,108 180,124.117749 180,144 C180,163.882251 163.882251,180 144,180 C124.117749,180 108,163.882251 108,144 C108,124.117749 124.117749,108 144,108 Z M168,132 C148.117749,132 132,148.117749 132,168 C132,169.996146 132.162464,171.954346 132.474891,173.862099 C136.050996,175.242812 139.937072,176 144,176 C161.673112,176 176,161.673112 176,144 C176,139.937072 175.242812,136.050996 173.86185,132.475185 C171.954228,132.162454 169.996086,132 168,132 Z" id="shadow-with-outline" fill="#000000" fill-rule="nonzero"></path>
    </g>
</svg>