<svg xmlns="http://www.w3.org/2000/svg" width="144" height="144" viewBox="0 0 144 144">
    <rect id="Background" width="144" height="144" x="0" y="0" fill="#23DE63" fill-rule="nonzero"/>
    <g id="icon" fill-rule="nonzero" transform="translate(31 31)">
      <path id="Icon-fill" fill="#FFF" d="M41,2 C62.539105,2 80,19.460895 80,41 C80,62.539105 62.539105,80 41,80 C19.460895,80 2,62.539105 2,41 C2,19.460895 19.460895,2 41,2 Z M41,23 C31.0588745,23 23,31.0588745 23,41 C23,50.9411255 31.0588745,59 41,59 C50.9411255,59 59,50.9411255 59,41 C59,31.0588745 50.9411255,23 41,23 Z M53,35 C53.998043,35 54.977114,35.081227 55.930925,35.2375925 C56.621406,37.025498 57,38.968536 57,41 C57,49.836556 49.836556,57 41,57 C38.968536,57 37.025498,56.621406 35.2374455,55.9310495 C35.081232,54.977173 35,53.998073 35,53 C35,43.0588745 43.0588745,35 53,35 Z" opacity=".5"/>
      <path id="shadow-with-outline" fill="#000" d="M41,0 C56.273179,0 69.5958225,8.35123725 76.650651,20.736433 C86.5644235,28.0171425 93,39.7570165 93,53 C93,75.09139 75.09139,93 53,93 C39.7570165,93 28.0171425,86.5644235 20.7372125,76.6501045 C8.35123725,69.5958225 0,56.273179 0,41 C0,18.3563252 18.3563252,0 41,0 Z M41,2 C19.460895,2 2,19.460895 2,41 C2,62.539105 19.460895,80 41,80 C62.539105,80 80,62.539105 80,41 C80,19.460895 62.539105,2 41,2 Z M41,23 C50.9411255,23 59,31.0588745 59,41 C59,50.9411255 50.9411255,59 41,59 C31.0588745,59 23,50.9411255 23,41 C23,31.0588745 31.0588745,23 41,23 Z M53,35 C43.0588745,35 35,43.0588745 35,53 C35,53.998073 35.081232,54.977173 35.2374455,55.9310495 C37.025498,56.621406 38.968536,57 41,57 C49.836556,57 57,49.836556 57,41 C57,38.968536 56.621406,37.025498 55.930925,35.2375925 C54.977114,35.081227 53.998043,35 53,35 Z"/>
    </g>
</svg>
