<?xml version="1.0" encoding="UTF-8"?>
<svg width="288px" height="288px" viewBox="0 0 288 288" version="1.1" xmlns="http://www.w3.org/2000/svg" xmlns:xlink="http://www.w3.org/1999/xlink">
    <!-- Generator: Sketch 64 (93537) - https://sketch.com -->
    <title>Input / Folder AUX 1 Stream</title>
    <desc>Created with Sketch.</desc>
    <g id="Input-/-Folder-AUX-1-Stream" stroke="none" stroke-width="1" fill="none" fill-rule="evenodd">
        <rect fill="#FFFFFF" x="0" y="0" width="288" height="288"></rect>
        <rect id="Background" fill="#23DEC0" fill-rule="nonzero" x="0" y="0" width="288" height="288"></rect>
        <path d="M264.752309,-10.1310623 C317.082564,42.1991928 317.082564,127.0433 264.752309,179.373555 C262.260392,181.865472 258.220196,181.865472 255.728279,179.373555 C253.236362,176.881638 253.236362,172.841443 255.728279,170.349526 C303.074701,123.003104 303.074701,46.2393884 255.728279,-1.10703292 C253.236362,-3.59894983 253.236362,-7.63914541 255.728279,-10.1310623 C258.220196,-12.6229792 262.260392,-12.6229792 264.752309,-10.1310623 Z M84.2717207,-10.1310623 C86.7636376,-7.63914541 86.7636376,-3.59894983 84.2717207,-1.10703292 C36.9252994,46.2393884 36.9252994,123.003104 84.2717207,170.349526 C86.7636376,172.841443 86.7636376,176.881638 84.2717207,179.373555 C81.7798038,181.865472 77.7396082,181.865472 75.2476913,179.373555 C22.9174362,127.0433 22.9174362,42.1991928 75.2476913,-10.1310623 C77.7396082,-12.6229792 81.7798038,-12.6229792 84.2717207,-10.1310623 Z M231.39697,27.2242767 C264.20101,60.0283172 264.20101,113.214175 231.39697,146.018216 C228.873582,148.541604 224.782362,148.541604 222.258974,146.018216 C219.735587,143.494828 219.735587,139.403608 222.258974,136.880221 C250.016239,109.122956 250.016239,64.1195371 222.258974,36.3622721 C219.735587,33.8388843 219.735587,29.7476645 222.258974,27.2242767 C224.782362,24.700889 228.873582,24.700889 231.39697,27.2242767 Z M121.741026,27.2242767 C124.264413,29.7476645 124.264413,33.8388843 121.741026,36.3622721 C93.9837607,64.1195371 93.9837607,109.122956 121.741026,136.880221 C124.264413,139.403608 124.264413,143.494828 121.741026,146.018216 C119.217638,148.541604 115.126418,148.541604 112.60303,146.018216 C79.7989899,113.214175 79.7989899,60.0283172 112.60303,27.2242767 C115.126418,24.700889 119.217638,24.700889 121.741026,27.2242767 Z M174,62.6212464 C188.359403,62.6212464 200,74.2618429 200,88.6212464 C200,102.98065 188.359403,114.621246 174,114.621246 C159.640597,114.621246 148,102.98065 148,88.6212464 C148,74.2618429 159.640597,62.6212464 174,62.6212464 Z" id="Stream_bg" fill="#000000" fill-rule="nonzero" opacity="0.3"></path>
        <path d="M144,66 C187.07821,66 222,100.92179 222,144 C222,187.07821 187.07821,222 144,222 C100.92179,222 66,187.07821 66,144 C66,100.92179 100.92179,66 144,66 Z M144,108 C124.117749,108 108,124.117749 108,144 C108,163.882251 124.117749,180 144,180 C163.882251,180 180,163.882251 180,144 C180,124.117749 163.882251,108 144,108 Z M168,132 C169.996086,132 171.954228,132.162454 173.86185,132.475185 C175.242812,136.050996 176,139.937072 176,144 C176,161.673112 161.673112,176 144,176 C139.937072,176 136.050996,175.242812 132.474891,173.862099 C132.162464,171.954346 132,169.996146 132,168 C132,148.117749 148.117749,132 168,132 Z" id="Icon-fill" fill="#FFFFFF" fill-rule="nonzero" opacity="0.5"></path>
        <path d="M144,62 C174.546358,62 201.191645,78.7024745 215.301302,103.472866 C235.128847,118.034285 248,141.514033 248,168 C248,212.18278 212.18278,248 168,248 C141.514033,248 118.034285,235.128847 103.474425,215.300209 C78.7024745,201.191645 62,174.546358 62,144 C62,98.7126505 98.7126505,62 144,62 Z M144,66 C100.92179,66 66,100.92179 66,144 C66,187.07821 100.92179,222 144,222 C187.07821,222 222,187.07821 222,144 C222,100.92179 187.07821,66 144,66 Z M144,108 C163.882251,108 180,124.117749 180,144 C180,163.882251 163.882251,180 144,180 C124.117749,180 108,163.882251 108,144 C108,124.117749 124.117749,108 144,108 Z M168,132 C148.117749,132 132,148.117749 132,168 C132,169.996146 132.162464,171.954346 132.474891,173.862099 C136.050996,175.242812 139.937072,176 144,176 C161.673112,176 176,161.673112 176,144 C176,139.937072 175.242812,136.050996 173.86185,132.475185 C171.954228,132.162454 169.996086,132 168,132 Z" id="shadow-with-outline" fill="#000000" fill-rule="nonzero"></path>
    </g>
</svg>