<?xml version="1.0" encoding="UTF-8"?>
<svg width="288px" height="288px" viewBox="0 0 288 288" version="1.1" xmlns="http://www.w3.org/2000/svg" xmlns:xlink="http://www.w3.org/1999/xlink">
    <!-- Generator: Sketch 64 (93537) - https://sketch.com -->
    <title>System / Back</title>
    <desc>Created with Sketch.</desc>
    <g id="System-/-Back" stroke="none" stroke-width="1" fill="none" fill-rule="evenodd">
        <rect id="Background" fill="#1E183C" fill-rule="nonzero" x="0" y="0" width="288" height="288"></rect>
        <path d="M129.510702,83.9098248 C132.403823,86.3914865 133.546836,90.1930879 132.707913,93.7693505 C135.703317,93.0605602 138.990396,93.747956 141.510702,95.9098248 C145.23692,99.1061011 146.059998,104.491941 143.484628,108.765839 L143.093546,109.368476 L142.589771,110.011173 L134.873221,118.99582 L192.5,119 C196.506575,119 199.825234,121.945319 200.408922,125.788903 L200.478057,126.402951 L200.5,127 L200.497221,130.99982 L204.5,131 C208.506575,131 211.825234,133.945319 212.408922,137.788903 L212.478057,138.402951 L212.5,139 L212.5,203.25 C212.5,208.358634 208.358634,212.5 203.25,212.5 C198.354226,212.5 194.346793,208.696558 194.02134,203.883312 L194,203.25 L194.002664,200.083517 C193.133148,200.354182 192.208603,200.5 191.25,200.5 C186.354226,200.5 182.346793,196.696558 182.02134,191.883312 L182,191.25 L181.997221,149.49582 L124.604,149.496 L142.594954,170.494873 C145.613552,174.019187 145.769689,179.080038 143.076418,182.858135 L142.601158,183.475457 L142.100798,184.037269 L141.505127,184.594954 C137.785018,187.781252 132.352903,187.778203 128.524543,184.601158 L127.962731,184.100798 L127.405046,183.505127 L119.571961,174.362129 C118.531886,173.979507 117.535832,173.420481 116.627167,172.685254 L115.962731,172.100798 L115.405046,171.505127 L78.3292213,128.217859 L115.409825,84.989298 C119.005586,80.79736 125.318764,80.3140634 129.510702,83.9098248 Z M126.906421,86.9458949 C124.548456,84.9232791 121.071868,85.051729 118.868816,87.1481164 L118.445895,87.5935788 L83.5975328,128.219793 L118.443028,168.903076 L118.865622,169.348849 C120.920367,171.306986 124.085761,171.551647 126.417001,169.932512 L126.903076,169.556972 L127.348849,169.134378 C129.306986,167.079633 129.551647,163.914239 127.932512,161.582999 L127.556972,161.096924 L103.917533,133.499892 L186,133.5 L186,191.25 C186,194.149495 188.350505,196.5 191.25,196.5 C193.968277,196.5 196.204042,194.434126 196.472895,191.786782 L196.5,191.25 L196.5,127 C196.5,124.948657 194.955839,123.257971 192.966485,123.026911 L192.5,123 L103.877533,122.999892 L127.554105,95.4064212 L127.930002,94.920622 C129.666623,92.424139 129.264386,88.9685107 126.906421,86.9458949 Z" id="shadow-with-outline" fill="#000000" fill-rule="nonzero"></path>
        <path d="M126.906421,86.9458949 C129.264386,88.9685107 129.666623,92.424139 127.930002,94.920622 L127.554105,95.4064212 L103.877533,122.999892 L192.5,123 C194.709139,123 196.5,124.790861 196.5,127 L196.5,191.25 C196.5,194.149495 194.149495,196.5 191.25,196.5 C188.350505,196.5 186,194.149495 186,191.25 L186,133.5 L103.917533,133.499892 L127.556972,161.096924 C129.577856,163.456373 129.446853,166.932866 127.348849,169.134378 L126.903076,169.556972 C124.543627,171.577856 121.067134,171.446853 118.865622,169.348849 L118.443028,168.903076 L83.5975328,128.219793 L118.445895,87.5935788 C120.603352,85.078416 124.391258,84.788438 126.906421,86.9458949 Z" id="Icon-Fill" fill="#FFFFFF" fill-rule="nonzero" opacity="0.9"></path>
    </g>
</svg>