<?xml version="1.0" encoding="UTF-8"?>
<svg width="288px" height="288px" viewBox="0 0 288 288" version="1.1" xmlns="http://www.w3.org/2000/svg" xmlns:xlink="http://www.w3.org/1999/xlink">
    <title>Input / Browser Local Mute</title>
    <g id="Input-/-Browser-Local-Mute" stroke="none" stroke-width="1" fill="none" fill-rule="evenodd">
        <rect fill="#FFFFFF" x="0" y="0" width="288" height="288"></rect>
        <rect id="Background" fill="#B521FF" fill-rule="nonzero" x="0" y="0" width="288" height="288"></rect>
        <rect id="Black-Overlay" fill="#000000" opacity="0.5" x="0" y="0" width="288" height="288"></rect>
        <path d="M41,219.2 C46.8542183,219.2 51.6,223.945782 51.6,229.8 L51.6,293.4 C51.6,299.254218 46.8542183,304 41,304 L19.8,304 C13.9457817,304 9.2,299.254218 9.2,293.4 L9.2,229.8 C9.2,223.945782 13.9457817,219.2 19.8,219.2 L41,219.2 Z M168.2,219.2 C174.054218,219.2 178.8,223.945782 178.8,229.8 L178.8,293.4 C178.8,299.254218 174.054218,304 168.2,304 L147,304 C141.145782,304 136.4,299.254218 136.4,293.4 L136.4,229.8 C136.4,223.945782 141.145782,219.2 147,219.2 L168.2,219.2 Z M94,92 C151.549943,92 198.388076,137.86271 199.959277,195.033009 L200,198 L200,256.3 C200,259.227109 197.627109,261.6 194.7,261.6 C192.098125,261.6 189.934151,259.725123 189.48539,257.252682 L189.4,256.3 L189.4,198 C189.4,145.312035 146.687965,102.6 94,102.6 C42.2528914,102.6 0.128610917,143.800225 -1.35932668,195.18716 L-1.4,198 L-1.4,256.3 C-1.4,259.227109 -3.77289083,261.6 -6.7,261.6 C-9.30187482,261.6 -11.4658487,259.725123 -11.9146099,257.252682 L-12,256.3 L-12,198 C-12,139.457817 35.4578165,92 94,92 Z" id="Local_bg" fill="#000000" fill-rule="nonzero" opacity="0.3"></path>
        <path d="M232,116 L232,204 L56,204 L56,116 L232,116 Z M232,88.2000349 L232,108.200035 L108,108.200035 L108,88.2000349 L232,88.2000349 Z M66,92 C69.3137085,92 72,94.6862915 72,98 C72,101.313708 69.3137085,104 66,104 C62.6862915,104 60,101.313708 60,98 C60,94.6862915 62.6862915,92 66,92 Z M90,92 C93.3137085,92 96,94.6862915 96,98 C96,101.313708 93.3137085,104 90,104 C86.6862915,104 84,101.313708 84,98 C84,94.6862915 86.6862915,92 90,92 Z" id="Icon-Fill" fill="#FFFFFF" fill-rule="nonzero" opacity="0.3"></path>
        <path d="M228,80 C234.390724,80 239.614644,84.9956799 239.979629,91.2949088 L240,92 C246.627417,92 252,97.372583 252,104 L252,212 C252,218.627417 246.627417,224 240,224 L72,224 C65.372583,224 60,218.627417 60,212 C53.372583,212 48,206.627417 48,200 L48,92 C48,85.372583 53.372583,80 60,80 L228,80 Z M232,116 L56,116 L56,204 L232,204 L232,116 Z M232,88.2000349 L108,88.2000349 L108,108.200035 L232,108.200035 L232,88.2000349 Z M66,92 C62.6862915,92 60,94.6862915 60,98 C60,101.313708 62.6862915,104 66,104 C69.3137085,104 72,101.313708 72,98 C72,94.6862915 69.3137085,92 66,92 Z M90,92 C86.6862915,92 84,94.6862915 84,98 C84,101.313708 86.6862915,104 90,104 C93.3137085,104 96,101.313708 96,98 C96,94.6862915 93.3137085,92 90,92 Z" id="shadow-with-outline" fill="#000000" fill-rule="nonzero"></path>
        <path d="M231.681241,220.367532 C233.243338,221.92963 233.243338,224.462289 231.681241,226.024387 L226.024387,231.681241 C224.462289,233.243338 221.92963,233.243338 220.367532,231.681241 L56.3187591,67.6324676 C54.756662,66.0703705 54.756662,63.5377105 56.3187591,61.9756134 L61.9756134,56.3187591 C63.5377105,54.756662 66.0703705,54.756662 67.6324676,56.3187591 L231.681241,220.367532 Z M228.852814,223.195959 L64.8040405,59.1471863 L59.1471863,64.8040405 L223.195959,228.852814 L228.852814,223.195959 Z" id="Shape" fill="#000000" fill-rule="nonzero"></path>
        <polygon id="White-Part-Mute" fill="#FFFFFF" fill-rule="nonzero" transform="translate(144.000000, 144.000000) rotate(45.000000) translate(-144.000000, -144.000000) " points="260 140 28 140 28 148 260 148"></polygon>
        <path d="M228,1.73194792e-13 C240.042438,1.73194792e-13 260.042438,1.73194792e-13 288,1.73194792e-13 C288,21.8047636 288,41.8047636 288,60 L288,228 C288,237.553655 288,257.553655 288,288 C260.537735,288 240.537735,288 228,288 L60,288 C46.7794484,288 26.7794484,288 -1.27897692e-13,288 C-1.27897692e-13,256.870838 -1.27897692e-13,236.870838 -1.27897692e-13,228 L-1.27897692e-13,60 C-1.27897692e-13,48.3560235 -1.27897692e-13,28.3560235 -1.27897692e-13,1.73194792e-13 C29.5525866,1.73194792e-13 49.5525866,1.73194792e-13 60,1.73194792e-13 L228,1.73194792e-13 Z M228,16 L56,16 C31.9424763,16 16.3944495,31.3074515 16.0058947,55.2723795 L16,60 L16,232 C16,256.057524 31.3074515,271.60555 55.2723795,271.994105 L60,272 L232,272 C256.057524,272 271.60555,256.692548 271.994105,232.72762 L272,228 L272,56 C272,31.9424763 256.692548,16.3944495 232.72762,16.0058947 L228,16 Z" id="Rectangle" fill="#B521FF" fill-rule="nonzero"></path>
    </g>
</svg>