<?xml version="1.0" encoding="UTF-8"?>
<svg width="288px" height="288px" viewBox="0 0 288 288" version="1.1" xmlns="http://www.w3.org/2000/svg" xmlns:xlink="http://www.w3.org/1999/xlink">
    <title>Input / Browser Stream Mute</title>
    <g id="Input-/-Browser-Stream-Mute" stroke="none" stroke-width="1" fill="none" fill-rule="evenodd">
        <rect fill="#FFFFFF" x="0" y="0" width="288" height="288"></rect>
        <rect id="Background" fill="#B521FF" fill-rule="nonzero" x="0" y="0" width="288" height="288"></rect>
        <rect id="Black-Overlay" fill="#000000" opacity="0.5" x="0" y="0" width="288" height="288"></rect>
        <path d="M264.752309,-10.1310623 C317.082564,42.1991928 317.082564,127.0433 264.752309,179.373555 C262.260392,181.865472 258.220196,181.865472 255.728279,179.373555 C253.236362,176.881638 253.236362,172.841443 255.728279,170.349526 C303.074701,123.003104 303.074701,46.2393884 255.728279,-1.10703292 C253.236362,-3.59894983 253.236362,-7.63914541 255.728279,-10.1310623 C258.220196,-12.6229792 262.260392,-12.6229792 264.752309,-10.1310623 Z M84.2717207,-10.1310623 C86.7636376,-7.63914541 86.7636376,-3.59894983 84.2717207,-1.10703292 C36.9252994,46.2393884 36.9252994,123.003104 84.2717207,170.349526 C86.7636376,172.841443 86.7636376,176.881638 84.2717207,179.373555 C81.7798038,181.865472 77.7396082,181.865472 75.2476913,179.373555 C22.9174362,127.0433 22.9174362,42.1991928 75.2476913,-10.1310623 C77.7396082,-12.6229792 81.7798038,-12.6229792 84.2717207,-10.1310623 Z M231.39697,27.2242767 C264.20101,60.0283172 264.20101,113.214175 231.39697,146.018216 C228.873582,148.541604 224.782362,148.541604 222.258974,146.018216 C219.735587,143.494828 219.735587,139.403608 222.258974,136.880221 C250.016239,109.122956 250.016239,64.1195371 222.258974,36.3622721 C219.735587,33.8388843 219.735587,29.7476645 222.258974,27.2242767 C224.782362,24.700889 228.873582,24.700889 231.39697,27.2242767 Z M121.741026,27.2242767 C124.264413,29.7476645 124.264413,33.8388843 121.741026,36.3622721 C93.9837607,64.1195371 93.9837607,109.122956 121.741026,136.880221 C124.264413,139.403608 124.264413,143.494828 121.741026,146.018216 C119.217638,148.541604 115.126418,148.541604 112.60303,146.018216 C79.7989899,113.214175 79.7989899,60.0283172 112.60303,27.2242767 C115.126418,24.700889 119.217638,24.700889 121.741026,27.2242767 Z M174,62.6212464 C188.359403,62.6212464 200,74.2618429 200,88.6212464 C200,102.98065 188.359403,114.621246 174,114.621246 C159.640597,114.621246 148,102.98065 148,88.6212464 C148,74.2618429 159.640597,62.6212464 174,62.6212464 Z" id="Stream_bg" fill="#000000" fill-rule="nonzero" opacity="0.3"></path>
        <path d="M232,116 L232,204 L56,204 L56,116 L232,116 Z M232,88.2000349 L232,108.200035 L108,108.200035 L108,88.2000349 L232,88.2000349 Z M66,92 C69.3137085,92 72,94.6862915 72,98 C72,101.313708 69.3137085,104 66,104 C62.6862915,104 60,101.313708 60,98 C60,94.6862915 62.6862915,92 66,92 Z M90,92 C93.3137085,92 96,94.6862915 96,98 C96,101.313708 93.3137085,104 90,104 C86.6862915,104 84,101.313708 84,98 C84,94.6862915 86.6862915,92 90,92 Z" id="Icon-Fill" fill="#FFFFFF" fill-rule="nonzero" opacity="0.3"></path>
        <path d="M228,80 C234.390724,80 239.614644,84.9956799 239.979629,91.2949088 L240,92 C246.627417,92 252,97.372583 252,104 L252,212 C252,218.627417 246.627417,224 240,224 L72,224 C65.372583,224 60,218.627417 60,212 C53.372583,212 48,206.627417 48,200 L48,92 C48,85.372583 53.372583,80 60,80 L228,80 Z M232,116 L56,116 L56,204 L232,204 L232,116 Z M232,88.2000349 L108,88.2000349 L108,108.200035 L232,108.200035 L232,88.2000349 Z M66,92 C62.6862915,92 60,94.6862915 60,98 C60,101.313708 62.6862915,104 66,104 C69.3137085,104 72,101.313708 72,98 C72,94.6862915 69.3137085,92 66,92 Z M90,92 C86.6862915,92 84,94.6862915 84,98 C84,101.313708 86.6862915,104 90,104 C93.3137085,104 96,101.313708 96,98 C96,94.6862915 93.3137085,92 90,92 Z" id="shadow-with-outline" fill="#000000" fill-rule="nonzero"></path>
        <path d="M231.681241,220.367532 C233.243338,221.92963 233.243338,224.462289 231.681241,226.024387 L226.024387,231.681241 C224.462289,233.243338 221.92963,233.243338 220.367532,231.681241 L56.3187591,67.6324676 C54.756662,66.0703705 54.756662,63.5377105 56.3187591,61.9756134 L61.9756134,56.3187591 C63.5377105,54.756662 66.0703705,54.756662 67.6324676,56.3187591 L231.681241,220.367532 Z M228.852814,223.195959 L64.8040405,59.1471863 L59.1471863,64.8040405 L223.195959,228.852814 L228.852814,223.195959 Z" id="Shape" fill="#000000" fill-rule="nonzero"></path>
        <polygon id="White-Part-Mute" fill="#FFFFFF" fill-rule="nonzero" transform="translate(144.000000, 144.000000) rotate(45.000000) translate(-144.000000, -144.000000) " points="260 140 28 140 28 148 260 148"></polygon>
        <path d="M228,1.73194792e-13 C240.042438,1.73194792e-13 260.042438,1.73194792e-13 288,1.73194792e-13 C288,21.8047636 288,41.8047636 288,60 L288,228 C288,237.553655 288,257.553655 288,288 C260.537735,288 240.537735,288 228,288 L60,288 C46.7794484,288 26.7794484,288 -1.27897692e-13,288 C-1.27897692e-13,256.870838 -1.27897692e-13,236.870838 -1.27897692e-13,228 L-1.27897692e-13,60 C-1.27897692e-13,48.3560235 -1.27897692e-13,28.3560235 -1.27897692e-13,1.73194792e-13 C29.5525866,1.73194792e-13 49.5525866,1.73194792e-13 60,1.73194792e-13 L228,1.73194792e-13 Z M228,16 L56,16 C31.9424763,16 16.3944495,31.3074515 16.0058947,55.2723795 L16,60 L16,232 C16,256.057524 31.3074515,271.60555 55.2723795,271.994105 L60,272 L232,272 C256.057524,272 271.60555,256.692548 271.994105,232.72762 L272,228 L272,56 C272,31.9424763 256.692548,16.3944495 232.72762,16.0058947 L228,16 Z" id="Rectangle" fill="#B521FF" fill-rule="nonzero"></path>
    </g>
</svg>