<svg xmlns="http://www.w3.org/2000/svg" viewBox="0 0 144 144">
    <path id="background" fill="#B521FF" d="M0 0h144v144H0z"/>
    <g id="icon" transform="translate(24 40)">
        <path id="shadow-with-outline" fill="#000" d="M90 0c3.1954 0 5.8073 2.4978 5.9898 5.6475L96 6c3.3137 0 6 2.6863 6 6v54c0 3.3137-2.6863 6-6 6H12c-3.3137 0-6-2.6863-6-6-3.3137 0-6-2.6863-6-6V6c0-3.3137 2.6863-6 6-6h84zm2 18H4v44h88V18zm0-13.9H30v10h62v-10zM9 6C7.3431 6 6 7.3431 6 9s1.3431 3 3 3 3-1.3431 3-3-1.3431-3-3-3zm12 0c-1.6569 0-3 1.3431-3 3s1.3431 3 3 3 3-1.3431 3-3-1.3431-3-3-3z"/>
        <path id="Icon-Fill" fill="#FFF" d="M92 18v44H4V18h88zm0-13.9v10H30v-10h62zM9 6c1.6569 0 3 1.3431 3 3s-1.3431 3-3 3-3-1.3431-3-3 1.3431-3 3-3zm12 0c1.6569 0 3 1.3431 3 3s-1.3431 3-3 3-3-1.3431-3-3 1.3431-3 3-3z" opacity=".503"/>
    </g>
</svg>
