<?xml version="1.0" encoding="UTF-8"?>
<svg width="288px" height="288px" viewBox="0 0 288 288" version="1.1" xmlns="http://www.w3.org/2000/svg" xmlns:xlink="http://www.w3.org/1999/xlink">
    <title>Input / Game Mute</title>
    <g id="Input-/-Game-Mute" stroke="none" stroke-width="1" fill="none" fill-rule="evenodd">
        <rect fill="#FFFFFF" x="0" y="0" width="288" height="288"></rect>
        <rect id="Background" fill="#F2315B" fill-rule="nonzero" x="0" y="0" width="288" height="288"></rect>
        <rect id="Black-Overlay" fill="#000000" opacity="0.5" x="0" y="0" width="288" height="288"></rect>
        <path d="M91.6752937,86 L196.324706,86 C206.811689,86 215.840815,93.4021127 217.897481,103.685445 L234.317797,185.787022 C236.245773,195.426904 230.69385,204.993865 221.367544,208.102633 C211.984607,211.230279 201.729929,206.980523 197.309906,198.132638 L181.810436,167.106207 C181.471778,166.42829 180.779064,166 180.021264,166 L108.091244,166 C107.334794,166 106.643073,166.426781 106.303751,167.102856 L90.7235664,198.145206 C86.2840717,206.990567 76.0215221,211.232322 66.6324555,208.102633 C57.3061499,204.993865 51.754227,195.426904 53.6822034,185.787022 L70.1025188,103.685445 C72.1591853,93.4021127 81.1883112,86 91.6752937,86 Z" id="Icon-fill" fill="#FFFFFF" fill-rule="nonzero" opacity="0.3"></path>
        <path d="M196.324706,82 C208.361117,82 218.772514,90.2508354 221.5892,101.858526 C228.766635,104.863832 234.255163,111.275816 235.858643,119.293213 L252.278958,201.39479 C254.404746,212.023731 248.283192,222.572269 238,226 C227.672582,229.442473 216.385675,224.764939 211.520735,215.026431 L210.334769,212.646544 C203.676943,211.290738 197.709893,207.117314 194.234033,200.872403 L193.731563,199.920224 L185.772643,183.996 L124.091244,184 L108.51106,215.042351 C103.625618,224.776227 92.3321969,229.444066 82,226 C75.4882536,223.829418 70.6453034,218.803427 68.5086198,212.709774 L67.4080874,212.478797 L66.3094109,212.19015 L65.3675445,211.897367 C54.4312525,208.251936 47.8012891,197.238122 49.5911473,185.944213 L49.7598807,185.002558 L66.1801961,102.90098 C68.5451099,91.0764116 78.7108071,82.4753495 90.6743028,82.0190646 L91.6752937,82 L196.324706,82 Z M196.324706,86 L91.6752937,86 C81.5060986,86 72.7077437,92.960297 70.3085429,102.75866 L70.1025188,103.685445 L53.6822034,185.787022 C51.754227,195.426904 57.3061499,204.993865 66.6324555,208.102633 C75.7281137,211.134519 85.6435154,207.248478 90.2905084,198.960887 L90.7235664,198.145206 L106.303751,167.102856 C106.586519,166.53946 107.114009,166.149185 107.719745,166.034743 L108.091244,166 L180.021264,166 C180.652764,166 181.239065,166.297424 181.61294,166.788878 L181.810436,167.106207 L197.309906,198.132638 C201.729929,206.980523 211.984607,211.230279 221.367544,208.102633 C230.411235,205.08807 235.905827,196.00079 234.472565,186.662996 L234.317797,185.787022 L217.897481,103.685445 C215.903138,93.7137288 207.352506,86.4512586 197.273899,86.0202657 L196.324706,86 Z M104,108 C106.209139,108 108,109.790861 108,112 L108,120 L116,120 C118.209139,120 120,121.790861 120,124 L120,128 C120,130.209139 118.209139,132 116,132 L108,132 L108,140 C108,142.209139 106.209139,144 104,144 L100,144 C97.790861,144 96,142.209139 96,140 L96,132 L88,132 C85.790861,132 84,130.209139 84,128 L84,124 C84,121.790861 85.790861,120 88,120 L96,120 L96,112 C96,109.790861 97.790861,108 100,108 L104,108 Z M190,132 C191.104569,132 192,132.895431 192,134 L192,142 C192,143.104569 191.104569,144 190,144 L182,144 C180.895431,144 180,143.104569 180,142 L180,134 C180,132.895431 180.895431,132 182,132 L190,132 Z M178,120 C179.104569,120 180,120.895431 180,122 L180,130 C180,131.104569 179.104569,132 178,132 L170,132 C168.895431,132 168,131.104569 168,130 L168,122 C168,120.895431 168.895431,120 170,120 L178,120 Z M202,120 C203.104569,120 204,120.895431 204,122 L204,130 C204,131.104569 203.104569,132 202,132 L194,132 C192.895431,132 192,131.104569 192,130 L192,122 C192,120.895431 192.895431,120 194,120 L202,120 Z M190,108 C191.104569,108 192,108.895431 192,110 L192,118 C192,119.104569 191.104569,120 190,120 L182,120 C180.895431,120 180,119.104569 180,118 L180,110 C180,108.895431 180.895431,108 182,108 L190,108 Z" id="shadow-with-outline" fill="#000000" fill-rule="nonzero"></path>
        <path d="M63.7614035,170.108642 C64.8059716,170.46774 65.3616551,171.605636 65.0025573,172.650204 C62.5828519,179.688808 61.6398756,185.112024 62.1214511,188.844003 C62.5694043,192.315427 64.6566573,195.272919 68.53818,197.784044 C69.4655924,198.384028 69.7310262,199.622226 69.1310429,200.549639 C68.5310596,201.477051 67.2928607,201.742485 66.3654483,201.142502 C61.5522795,198.028654 58.763588,194.077272 58.1543436,189.35592 C57.5787215,184.895124 58.6179465,178.918365 61.2198415,171.349796 C61.5789393,170.305228 62.7168353,169.749544 63.7614035,170.108642 Z M160,90 C161.104569,90 162,90.8954305 162,92 C162,92.9818396 161.292499,93.7984335 160.359503,93.9677773 L160,94 L140,94 C138.895431,94 138,93.1045695 138,92 C138,91.0181604 138.707501,90.2015665 139.640497,90.0322227 L140,90 L160,90 Z" id="Highlight" fill="#FFFFFF" fill-rule="nonzero"></path>
        <path d="M231.681241,220.367532 C233.243338,221.92963 233.243338,224.462289 231.681241,226.024387 L226.024387,231.681241 C224.462289,233.243338 221.92963,233.243338 220.367532,231.681241 L56.3187591,67.6324676 C54.756662,66.0703705 54.756662,63.5377105 56.3187591,61.9756134 L61.9756134,56.3187591 C63.5377105,54.756662 66.0703705,54.756662 67.6324676,56.3187591 L231.681241,220.367532 Z M228.852814,223.195959 L64.8040405,59.1471863 L59.1471863,64.8040405 L223.195959,228.852814 L228.852814,223.195959 Z" id="Shape" fill="#000000" fill-rule="nonzero"></path>
        <polygon id="White-Part-Mute" fill="#FFFFFF" fill-rule="nonzero" transform="translate(144.000000, 144.000000) rotate(45.000000) translate(-144.000000, -144.000000) " points="260 140 28 140 28 148 260 148"></polygon>
        <path d="M228,1.73194792e-13 C240.042438,1.73194792e-13 260.042438,1.73194792e-13 288,1.73194792e-13 C288,21.8047636 288,41.8047636 288,60 L288,228 C288,237.553655 288,257.553655 288,288 C260.537735,288 240.537735,288 228,288 L60,288 C46.7794484,288 26.7794484,288 -1.27897692e-13,288 C-1.27897692e-13,256.870838 -1.27897692e-13,236.870838 -1.27897692e-13,228 L-1.27897692e-13,60 C-1.27897692e-13,48.3560235 -1.27897692e-13,28.3560235 -1.27897692e-13,1.73194792e-13 C29.5525866,1.73194792e-13 49.5525866,1.73194792e-13 60,1.73194792e-13 L228,1.73194792e-13 Z M228,16 L56,16 C31.9424763,16 16.3944495,31.3074515 16.0058947,55.2723795 L16,60 L16,232 C16,256.057524 31.3074515,271.60555 55.2723795,271.994105 L60,272 L232,272 C256.057524,272 271.60555,256.692548 271.994105,232.72762 L272,228 L272,56 C272,31.9424763 256.692548,16.3944495 232.72762,16.0058947 L228,16 Z" id="Rectangle" fill="#F2315B" fill-rule="nonzero"></path>
    </g>
</svg>