<svg xmlns="http://www.w3.org/2000/svg" width="144" height="144" viewBox="0 0 144 144">
  <g id="Game" fill="none" fill-rule="evenodd" stroke="none" stroke-width="1">
    <rect id="Background" width="144" height="144" x="0" y="0" fill="#F2315B" fill-rule="nonzero"/>
    <path id="Icon-fill" fill="#FFF" fill-rule="nonzero" d="M45.8376468,43 L98.162353,43 C103.405845,43 107.920408,46.7010563 108.948741,51.8427225 L117.158899,92.893511 C118.122887,97.713452 115.346925,102.496932 110.683772,104.051316 C105.992304,105.615139 100.864965,103.490262 98.654953,99.066319 L90.905218,83.5531035 C90.735889,83.214145 90.389532,83 90.010632,83 L54.045622,83 C53.667397,83 53.3215365,83.2133905 53.1518755,83.551428 L45.3617832,99.072603 C43.1420358,103.495283 38.010761,105.616161 33.3162278,104.051316 C28.653075,102.496932 25.8771135,97.713452 26.8411017,92.893511 L35.0512594,51.8427225 C36.0795927,46.7010563 40.5941556,43 45.8376468,43 Z" opacity=".5"/>
    <path id="shadow-with-outline" fill="#000" fill-rule="nonzero" d="M98.162353,41 C104.180558,41 109.386257,45.1254177 110.7946,50.929263 C114.383317,52.431916 117.127581,55.637908 117.929321,59.6466065 L126.139479,100.697395 C127.202373,106.011865 124.141596,111.286135 119,113 C113.836291,114.721237 108.192837,112.382469 105.760367,107.513216 L105.167384,106.323272 C101.838471,105.645369 98.8549465,103.558657 97.1170165,100.436201 L96.8657815,99.960112 L92.8863215,91.998 L62.045622,92 L54.25553,107.521175 C51.812809,112.388114 46.1660984,114.722033 41,113 C37.7441268,111.914709 35.3226517,109.401713 34.2543099,106.354887 L33.7040437,106.239398 L33.1547054,106.095075 L32.6837722,105.948684 C27.2156262,104.125968 23.9006445,98.619061 24.7955736,92.9721065 L24.8799403,92.501279 L33.090098,51.45049 C34.2725549,45.5382058 39.3554035,41.2376747 45.3371514,41.0095323 L45.8376468,41 L98.162353,41 Z M98.162353,43 L45.8376468,43 C40.7530493,43 36.3538718,46.4801485 35.1542714,51.37933 L35.0512594,51.8427225 L26.8411017,92.893511 C25.8771135,97.713452 28.6530749,102.496932 33.3162277,104.051316 C37.8640568,105.56726 42.8217577,103.624239 45.1452542,99.4804435 L45.3617832,99.072603 L53.1518755,83.551428 C53.2932595,83.26973 53.5570045,83.0745925 53.8598725,83.0173715 L54.045622,83 L90.010632,83 C90.326382,83 90.6195325,83.148712 90.80647,83.394439 L90.905218,83.5531035 L98.654953,99.066319 C100.864964,103.490262 105.992304,105.615139 110.683772,104.051316 C115.205618,102.544035 117.952913,98.000395 117.236283,93.331498 L117.158899,92.893511 L108.94874,51.8427225 C107.951569,46.8568644 103.676253,43.2256293 98.6369495,43.0101328 L98.162353,43 Z M52,54 C53.1045695,54 54,54.8954305 54,56 L54,60 L58,60 C59.1045695,60 60,60.8954305 60,62 L60,64 C60,65.1045695 59.1045695,66 58,66 L54,66 L54,70 C54,71.1045695 53.1045695,72 52,72 L50,72 C48.8954305,72 48,71.1045695 48,70 L48,66 L44,66 C42.8954305,66 42,65.1045695 42,64 L42,62 C42,60.8954305 42.8954305,60 44,60 L48,60 L48,56 C48,54.8954305 48.8954305,54 50,54 L52,54 Z M95,66 C95.5522845,66 96,66.4477155 96,67 L96,71 C96,71.5522845 95.5522845,72 95,72 L91,72 C90.4477155,72 90,71.5522845 90,71 L90,67 C90,66.4477155 90.4477155,66 91,66 L95,66 Z M89,60 C89.5522845,60 90,60.4477155 90,61 L90,65 C90,65.5522845 89.5522845,66 89,66 L85,66 C84.4477155,66 84,65.5522845 84,65 L84,61 C84,60.4477155 84.4477155,60 85,60 L89,60 Z M101,60 C101.552284,60 102,60.4477155 102,61 L102,65 C102,65.5522845 101.552284,66 101,66 L97,66 C96.4477155,66 96,65.5522845 96,65 L96,61 C96,60.4477155 96.4477155,60 97,60 L101,60 Z M95,54 C95.5522845,54 96,54.4477155 96,55 L96,59 C96,59.5522845 95.5522845,60 95,60 L91,60 C90.4477155,60 90,59.5522845 90,59 L90,55 C90,54.4477155 90.4477155,54 91,54 L95,54 Z"/>
    <path id="Highlight" fill="#FFF" fill-rule="nonzero" d="M31.8807017,85.054321 C32.4029858,85.23387 32.6808275,85.802818 32.5012787,86.325102 C31.2914259,89.844404 30.8199378,92.556012 31.0607255,94.4220015 C31.2847021,96.1577135 32.3283287,97.6364595 34.26909,98.892022 C34.7327962,99.192014 34.8655131,99.811113 34.5655214,100.27482 C34.2655298,100.738525 33.6464304,100.871242 33.1827241,100.571251 C30.7761397,99.014327 29.381794,97.038636 29.0771718,94.67796 C28.7893607,92.447562 29.3089732,89.4591825 30.6099207,85.674898 C30.7894696,85.152614 31.3584176,84.874772 31.8807017,85.054321 Z M80,45 C80.5522845,45 81,45.4477153 81,46 C81,46.4909198 80.6462495,46.8992168 80.1797515,46.9838886 L80,47 L70,47 C69.4477155,47 69,46.5522847 69,46 C69,45.5090802 69.3537505,45.1007832 69.8202485,45.0161114 L70,45 L80,45 Z"/>
  </g>
</svg>
