<?xml version="1.0" encoding="UTF-8"?>
<svg width="288px" height="288px" viewBox="0 0 288 288" version="1.1" xmlns="http://www.w3.org/2000/svg" xmlns:xlink="http://www.w3.org/1999/xlink">
    <!-- Generator: Sketch 64 (93537) - https://sketch.com -->
    <title>System / Home</title>
    <desc>Created with Sketch.</desc>
    <g id="System-/-Home" stroke="none" stroke-width="1" fill="none" fill-rule="evenodd">
        <rect id="Background" fill="#1E183C" fill-rule="nonzero" x="0" y="0" width="288" height="288"></rect>
        <path d="M147.837958,66.9536381 C150.249304,66.9135221 152.672615,67.7685601 154.568339,69.5181911 L154.568339,69.5181911 L162.156578,76.9625466 C163.885806,75.7235867 165.80537,75.0817502 167.695578,74.9973968 C169.945214,74.8970033 172.157911,75.5853308 173.978505,77.0156043 L173.978505,77.0156043 L174.769179,77.7088051 L223.292295,125.361821 C226.838765,128.844697 228.880916,133.570195 228.994953,138.528071 L228.994953,138.528071 L229,209.37931 C229,212.002411 227.957668,214.382051 226.264648,216.126695 C224.563074,217.880155 222.204139,218.991947 219.585561,219.065125 L219.585561,219.065125 L116.689655,219.068966 C114.31527,219.068966 112.140435,218.214821 110.455362,216.797318 C108.750444,215.363121 107.547625,213.351734 107.146221,211.064654 L107.14622,211.064654 L96.6896552,211.068966 C94.1907368,211.068966 91.9128111,210.122938 90.194297,208.569657 C88.4526607,206.995476 87.286195,204.797299 87.0459273,202.328044 L87.0459273,202.328044 L87,201.40415 L87,130.967046 C87,125.996345 88.9406273,121.228256 92.398043,117.673004 L92.398043,117.673004 L141.210643,69.7286212 C143.053815,67.9185002 145.439914,66.9935327 147.837958,66.9536381 Z M148.231183,70.8678739 C146.645591,70.8678739 145.084013,71.6782151 143.653387,72.7163183 L94.8124947,120.971954 C92.3768761,123.363904 91.0739859,127.194295 90.9809736,130.979164 L90.9809736,201.37931 C90.9809736,202.60209 91.516808,204.196838 92.6642804,205.379426 C93.548501,206.290707 94.8088342,206.932392 96.7069936,207 L199.126266,207 C200.57721,207 203.605346,205.975346 205.262184,204.4622 L205.261748,126.749376 C204.211976,124.437113 202.508918,122.182284 200.66688,120.303221 L151.849384,72.6511679 C150.684616,71.3963488 149.463564,70.8678739 148.231183,70.8678739 Z M164.227997,158.00806 L178.996979,158.011461 C180.377691,158.011461 181.627691,158.571105 182.532513,159.475927 C183.437335,160.380749 183.996979,161.630749 183.996979,163.011529 L183.996979,163.011529 L183.994932,193.023286 L164.228103,193.023377 L164.227997,158.00806 Z M146.172537,90.0316435 C146.749103,89.5708629 147.871313,89.6236719 149.197196,90.408831 C150.650711,91.2695716 152.283109,92.7961026 152.562264,93.0635701 L152.562264,93.0635701 L162.308901,101.871986 L125.319962,138.204366 C125.172368,138.349313 125.071248,138.53265 125.026331,138.73121 L125.026331,138.73121 L124.999506,193.023285 L108.343191,193.023372 C107.207142,193.023372 106.122645,192.371445 105.230263,191.337215 L105.230263,191.337215 L105.230033,131.667083 C105.598254,130.192652 106.867096,128.805184 107.98515,127.645639 C108.130976,127.4944 108.272981,127.347156 108.407845,127.204129 L108.407845,127.204129 Z" id="shadow-with-outline" stroke="#000000" stroke-width="2" fill="#000000" fill-rule="nonzero"></path>
        <path d="M151.285952,73.2959949 L199.788891,120.929194 C202.482576,123.574578 204,127.1916 204,130.967046 L204,201.37931 C204,203.969335 201.90037,206.068966 199.310345,206.068966 L96.6896552,206.068966 C94.0996301,206.068966 92,203.969335 92,201.37931 L92,130.967046 C92,127.1916 93.517424,123.574578 96.2111094,120.929194 L144.714048,73.2959949 C146.538367,71.5043887 149.461633,71.5043887 151.285952,73.2959949 Z M145.19714,89.6368622 L104.619281,129.490891 C104.302377,129.802113 104.096179,130.204783 104.026377,130.637671 L104,130.967046 L104,190.068 C104,192.277139 105.790861,194.068 108,194.068 L135.130271,194.068 L135.130271,155.011461 C135.130271,152.802322 136.921132,151.011461 139.130271,151.011461 L158.996979,151.011461 C161.206118,151.011461 162.996979,152.802322 162.996979,155.011461 L162.996979,194.068 L188,194.068 C190.209139,194.068 192,192.277139 192,190.068 L192,130.967046 C192,130.522876 191.857184,130.093616 191.597238,129.740497 L191.380719,129.490891 L150.80286,89.6368622 C149.24679,88.1085494 146.75321,88.1085494 145.19714,89.6368622 Z" id="Icon-Fill" fill="#FFFFFF" fill-rule="nonzero" opacity="0.9"></path>
    </g>
</svg>