<?xml version="1.0" encoding="UTF-8"?>
<svg width="288px" height="288px" viewBox="0 0 288 288" version="1.1" xmlns="http://www.w3.org/2000/svg" xmlns:xlink="http://www.w3.org/1999/xlink">
    <!-- Generator: Sketch 64 (93537) - https://sketch.com -->
    <title>System / Link</title>
    <desc>Created with Sketch.</desc>
    <g id="System-/-Link" stroke="none" stroke-width="1" fill="none" fill-rule="evenodd">
        <rect id="Background" fill="#1E183C" fill-rule="nonzero" x="0" y="0" width="288" height="288"></rect>
        <path d="M185,86 C204.824654,86 221.709264,94.3877431 231.954197,108.67418 C245.828852,118.634763 254.500223,135.020902 254.500223,155.5 C254.500223,189.528374 230.486094,213.435994 198.259695,213.028222 L197,213 L182,213 C178.881216,213 176.318205,210.620448 176.027466,207.57784 L176,207 L176,200.999 L170,201 C166.881216,201 164.318205,198.620448 164.027466,195.57784 L164,195 L164,185.5 C164,182.381216 166.379552,179.818205 169.42216,179.527466 L170,179.5 L185,179.5 C204.882251,179.5 221,163.382251 221,143.5 C221,136.6372 219.074746,130.209378 215.730823,124.738687 C211.048307,121.879793 205.660623,120.062053 199.883359,119.611721 L198.847557,119.545904 L197,119.5 L182,119.5 C178.881216,119.5 176.318205,117.120448 176.027466,114.07784 L176,113.5 L176,107.499 L170,107.5 C166.881216,107.5 164.318205,105.120448 164.027466,102.07784 L164,101.5 L164,92 C164,88.8812155 166.379552,86.3182053 169.42216,86.0274663 L170,86 L185,86 Z M116.500223,86 L117.078063,86.0274663 C119.930508,86.3000341 122.200189,88.5697153 122.472757,91.42216 L122.500223,92 L122.5,97.999 L128.500223,98 C131.363012,98 133.788752,100.014311 134.377212,102.842249 L134.469992,103.418329 L134.500223,104 L134.500223,113.5 C134.500223,116.362789 132.485912,118.788529 129.657974,119.376989 L129.081894,119.469769 L128.500223,119.5 L113.54925,119.499399 L111.701826,119.544094 C92.5894737,120.483513 77.500223,136.287177 77.500223,155.5 C77.500223,162.359482 79.4216106,168.778657 82.7578448,174.242149 C87.9352432,177.405522 93.9733405,179.297441 100.438774,179.484652 L101.500223,179.5 L116.500223,179.5 L117.078063,179.527466 C119.930508,179.800034 122.200189,182.069715 122.472757,184.92216 L122.500223,185.5 L122.5,191.499 L128.500223,191.5 C131.363012,191.5 133.788752,193.514311 134.377212,196.342249 L134.469992,196.918329 L134.500223,197.5 L134.500223,207 C134.500223,209.862789 132.485912,212.288529 129.657974,212.876989 L129.081894,212.969769 L128.500223,213 L113.564359,212.998971 C93.8136835,213.632658 77.0431519,205.218045 66.7853335,190.941062 C52.7540072,180.901104 44,164.04524 44,143.5 C44,109.367654 68.08787,86.6049833 100.211048,86.011875 L101.500223,86 L116.500223,86 Z M168.687853,90.4905663 C168.592803,90.5732637 168.505638,90.6647914 168.427638,90.7638715 L168.377873,90.8298319 L168.377873,90.8298319 L168.283668,90.9726641 L168.283668,90.9726641 L168.222803,91.081722 L168.222803,91.081722 L168.158773,91.2177314 L168.158773,91.2177314 L168.097987,91.3799132 L168.097987,91.3799132 L168.0478,91.5633827 L168.0478,91.5633827 L168.030333,91.6510722 L168.007691,91.8233928 L168.007691,91.8233928 L168,92 L168,101.5 L168.006032,101.656496 L168.006032,101.656496 L168.027037,101.829639 L168.027037,101.829639 L168.059918,101.987829 L168.059918,101.987829 L168.110486,102.157202 L168.110486,102.157202 L168.163401,102.293061 L168.163401,102.293061 L168.232227,102.436257 L168.232227,102.436257 L168.289588,102.537141 L168.289588,102.537141 L168.390388,102.687294 L168.390388,102.687294 L168.455827,102.771123 L168.455827,102.771123 L168.472123,102.790645 C168.59979,102.941604 168.749307,103.073309 168.91584,103.180939 L169.009707,103.238014 L169.009707,103.238014 L169.133682,103.303146 L169.133682,103.303146 L169.266739,103.361307 L169.266739,103.361307 L169.379913,103.402013 L169.379913,103.402013 L169.563383,103.4522 L169.563383,103.4522 L169.651072,103.469667 L169.823393,103.492309 L169.823393,103.492309 L170,103.5 L185.049027,103.500601 L186.99477,103.548917 C203.715216,104.370768 217.66255,115.426976 222.841108,130.50946 L223.104401,131.303416 L223.294074,131.913028 L223.495355,132.601121 L223.667843,133.23089 L223.816968,133.8111 L223.816968,133.8111 L223.896634,134.136905 C224.013632,134.624309 224.121662,135.114938 224.220576,135.608733 L224.318424,136.114154 L224.440642,136.801377 L224.549405,137.481335 L224.631779,138.054533 L224.631779,138.054533 L224.678178,138.406576 C224.724232,138.768378 224.765454,139.131758 224.80177,139.496583 L224.852555,140.044887 L224.897853,140.622197 L224.94211,141.331794 L224.977583,142.149623 L224.977583,142.149623 L224.985516,142.414249 L224.994983,142.860705 L225,143.5 C225,143.998067 224.990897,144.494007 224.972848,144.987664 L224.949803,145.521564 L224.949803,145.521564 L224.919828,146.053222 C224.885805,146.59319 224.841133,147.129644 224.785981,147.662988 C224.7568,147.94518 224.724677,148.226576 224.689649,148.507069 L224.642309,148.872473 L224.642309,148.872473 L224.546325,149.544192 L224.546325,149.544192 L224.440536,150.204744 L224.440536,150.204744 L224.379423,150.557222 L224.262441,151.185164 L224.262441,151.185164 L224.135794,151.809285 L223.983024,152.50179 L223.862166,153.011882 L223.666517,153.780575 L223.533257,154.270425 L223.308085,155.04706 L223.113664,155.674114 L222.919489,156.266435 L222.709656,156.873631 L222.506521,157.433044 L222.291452,157.998532 L222.012479,158.695973 L221.805026,159.191182 L221.569415,159.731975 L221.417041,160.070486 L221.167341,160.60774 L220.89932,161.162238 L220.623946,161.710213 L220.354909,162.226153 L220.178066,162.555602 L219.862527,163.125735 L219.570244,163.635039 L219.166421,164.311476 L218.800272,164.899788 L218.469252,165.412839 L218.151168,165.890204 L217.613192,166.665368 L217.123283,167.338932 L216.673771,167.932102 L216.335794,168.363496 L215.909976,168.890267 L215.531396,169.34378 L215.531396,169.34378 L215.203659,169.725705 L214.944457,170.021042 L214.539783,170.470756 C214.324216,170.70672 214.106076,170.939866 213.885205,171.170373 L213.462925,171.604489 L213.462925,171.604489 L213.034298,172.032068 C212.691028,172.369381 212.341908,172.700357 211.986912,173.025016 C211.739381,173.251396 211.488827,173.47485 211.235473,173.695167 L211.007847,173.891623 L210.406842,174.396338 L210.406842,174.396338 L210.078291,174.663933 L209.316023,175.263105 L209.316023,175.263105 C208.179292,176.134641 206.994309,176.946602 205.765839,177.694238 L205.023746,178.134965 C204.676047,178.336415 204.32511,178.532739 203.970989,178.723865 L203.437425,179.006646 L202.883907,179.289196 L202.162929,179.641137 L201.494898,179.951395 L201.019168,180.16327 L200.44108,180.410782 L199.720814,180.704198 L199.19697,180.90737 L198.679041,181.099932 L198.305757,181.233659 L197.699631,181.441905 L197.105898,181.635367 L196.549697,181.807292 L195.966168,181.97812 L195.372083,182.142133 L194.804044,182.289729 L194.171633,182.443571 L193.562629,182.581407 L192.931978,182.713601 L192.333865,182.829171 L191.721626,182.937684 L191.371423,182.995339 L190.752332,183.08946 L190.076947,183.18086 L189.731994,183.223034 L189.071431,183.295342 L188.46555,183.35196 L188.169722,183.376249 L187.531275,183.421204 L186.820759,183.459298 L186.016736,183.48733 L185,183.5 L170,183.5 L169.898087,183.502552 L169.898087,183.502552 L169.743597,183.516283 L169.743597,183.516283 L169.620841,183.535892 L169.620841,183.535892 L169.512171,183.559918 L169.512171,183.559918 L169.342798,183.610486 L169.342798,183.610486 L169.206939,183.663401 L169.206939,183.663401 L169.063743,183.732227 L169.063743,183.732227 L168.938302,183.804754 L168.938302,183.804754 L168.819848,183.885135 L168.819848,183.885135 L168.687853,183.990566 C168.562467,184.099657 168.450804,184.224113 168.355798,184.361002 L168.261986,184.509707 L168.261986,184.509707 L168.222803,184.581722 L168.222803,184.581722 L168.156254,184.723679 L168.156254,184.723679 L168.098633,184.877933 L168.098633,184.877933 L168.0478,185.063383 L168.0478,185.063383 L168.030333,185.151072 L168.007691,185.323393 L168.007691,185.323393 L168,185.5 L168,195 C168,195.052615 168.002032,195.104755 168.006021,195.156347 L168,195 C168,195.05938 168.002588,195.118155 168.007657,195.17622 L168.030504,195.349902 L168.030504,195.349902 L168.059918,195.487829 L168.059918,195.487829 L168.110486,195.657202 L168.110486,195.657202 L168.163401,195.793061 L168.163401,195.793061 L168.232227,195.936257 L168.232227,195.936257 L168.289588,196.037141 L168.289588,196.037141 L168.427638,196.236128 L168.427638,196.236128 L168.472999,196.291679 L168.472999,196.291679 C168.557957,196.392009 168.652602,196.483838 168.755494,196.565731 L168.965736,196.712157 L168.965736,196.712157 L169.082707,196.777707 L169.082707,196.777707 L169.223679,196.843746 L169.223679,196.843746 L169.379913,196.902013 L169.379913,196.902013 L169.563383,196.9522 L169.563383,196.9522 L169.651072,196.969667 L169.823393,196.992309 L169.823393,196.992309 L170,197 L185.064136,197.001029 C215.71994,197.984598 238.500223,175.719198 238.500223,143.5 C238.500223,126.355727 232.057566,112.341259 221.433912,102.96278 L221.033445,102.612789 L221.033445,102.612789 L220.65446,102.288988 L220.65446,102.288988 L220.195639,101.906222 L220.195639,101.906222 L219.61841,101.437359 L219.61841,101.437359 L218.954925,100.916782 L218.954925,100.916782 L218.69013,100.713788 L218.69013,100.713788 L218.296891,100.4182 L218.296891,100.4182 L217.707856,99.9862713 L217.707856,99.9862713 L216.961292,99.4583746 L216.961292,99.4583746 L216.340792,99.0350211 L216.340792,99.0350211 L215.749063,98.6439806 L215.749063,98.6439806 L214.924118,98.1188499 L214.924118,98.1188499 L214.308108,97.7413407 L214.308108,97.7413407 L213.616598,97.3319584 L213.616598,97.3319584 L212.876274,96.9099914 L212.876274,96.9099914 L212.125595,96.4988396 L212.125595,96.4988396 L211.499787,96.1683931 L211.499787,96.1683931 L210.795085,95.8096707 L209.93488,95.3899695 L209.93488,95.3899695 C209.486418,95.176238 209.033887,94.9685633 208.577385,94.7669796 L207.696899,94.3878645 L207.696899,94.3878645 L206.997917,94.1002668 L206.997917,94.1002668 L206.296002,93.8230664 L206.296002,93.8230664 L205.33201,93.4610446 L205.33201,93.4610446 L204.391119,93.1277544 L204.391119,93.1277544 L203.69545,92.8938656 L203.69545,92.8938656 L202.930988,92.6487463 L202.930988,92.6487463 L202.23013,92.4347896 L202.23013,92.4347896 L201.490143,92.2198244 L201.490143,92.2198244 L200.590234,91.9733188 L200.590234,91.9733188 L199.742961,91.7558143 L199.742961,91.7558143 L199.0299,91.5835249 L199.0299,91.5835249 L197.988776,91.3492829 L197.988776,91.3492829 L197.247792,91.1948585 L197.247792,91.1948585 L196.505768,91.050275 L196.505768,91.050275 L196.101957,90.9757602 L196.101957,90.9757602 L195.256111,90.829102 L195.256111,90.829102 L194.65346,90.7322946 L194.65346,90.7322946 L193.875397,90.6166214 L193.875397,90.6166214 L192.881229,90.4838869 L192.881229,90.4838869 L192.042198,90.3848204 L192.042198,90.3848204 L191.250737,90.3020824 L191.250737,90.3020824 L190.84673,90.2638127 L190.84673,90.2638127 L189.992943,90.1916634 L189.992943,90.1916634 L189.411659,90.1492577 L189.411659,90.1492577 L188.663459,90.1025965 L188.663459,90.1025965 L187.7112,90.0559702 L187.7112,90.0559702 L186.742059,90.0230177 L186.742059,90.0230177 L185.862676,90.0056251 L185,90 L185,90 L170,90 L169.898087,90.0025516 L169.898087,90.0025516 L169.743597,90.0162831 L169.743597,90.0162831 L169.620841,90.0358924 L169.620841,90.0358924 L169.512171,90.0599183 L169.512171,90.0599183 L169.342798,90.1104856 L169.342798,90.1104856 L169.206939,90.1634013 L169.206939,90.1634013 L169.065761,90.2311582 L169.065761,90.2311582 L168.963893,90.2889598 L168.963893,90.2889598 L168.812706,90.3903882 L168.812706,90.3903882 L168.687853,90.4905663 Z M116.500223,90 L101.500223,90 L100.5839,90.0063478 C70.7244984,90.4207844 48.4492316,111.096278 48.0067122,142.543759 L48.001301,143.921367 L48.001301,143.921367 L48.0091022,144.612902 L48.0091022,144.612902 C48.0234251,145.486547 48.0546177,146.352727 48.1023753,147.211113 L48.1747284,148.335771 L48.1747284,148.335771 L48.2593114,149.376619 L48.2593114,149.376619 L48.3425942,150.240609 L48.3425942,150.240609 L48.432703,151.060042 L48.432703,151.060042 L48.5603605,152.081069 L48.5603605,152.081069 L48.680899,152.938088 L48.680899,152.938088 L48.8088604,153.76428 L48.8088604,153.76428 L48.9724534,154.725188 L48.9724534,154.725188 L49.1226014,155.53363 L49.1226014,155.53363 L49.3211064,156.517754 L49.3211064,156.517754 L49.3939867,156.858793 L49.3939867,156.858793 L49.504996,157.360129 L49.504996,157.360129 L49.6758798,158.093881 L49.6758798,158.093881 L49.9188987,159.069729 L49.9188987,159.069729 L50.1455052,159.919623 L50.1455052,159.919623 L50.375263,160.73149 L50.6568295,161.668123 L50.6568295,161.668123 L50.9193636,162.491722 L50.9193636,162.491722 L51.1603419,163.210963 L51.1603419,163.210963 L51.4926236,164.152285 L51.4926236,164.152285 L51.7478772,164.840247 L51.7478772,164.840247 L52.0214298,165.547371 L52.0214298,165.547371 L52.4009101,166.48217 L52.4009101,166.48217 L52.7200639,167.231233 L52.7200639,167.231233 L53.0307278,167.931125 L53.0307278,167.931125 L53.3629773,168.650624 L53.3629773,168.650624 L53.7549828,169.464462 L53.7549828,169.464462 L54.1788449,170.305749 L54.1788449,170.305749 L54.5322208,170.979161 L54.5322208,170.979161 C54.7561593,171.398319 54.9853733,171.813295 55.2197938,172.224034 L55.7646334,173.155434 L55.7646334,173.155434 L56.2147475,173.891928 L56.2147475,173.891928 L56.6572659,174.589279 L56.6572659,174.589279 L57.0727469,175.221602 L57.0727469,175.221602 C57.3430438,175.626224 57.6187954,176.026123 57.8998904,176.421185 L58.4735398,177.210715 L58.4735398,177.210715 C58.936763,177.835133 59.4138003,178.447114 59.904191,179.046198 L60.5391652,179.805965 L60.5391652,179.805965 L60.6963269,179.98923 C70.1924271,191.008992 84.3488683,197.381387 100.824811,197.017587 L101.436087,197.001029 L116.500223,197 L116.649485,196.994514 C117.632602,196.921983 118.418088,196.138773 118.494179,195.15665 L118.500223,195 L118.500223,185.5 L118.494737,185.350738 L118.485209,185.25371 L118.485209,185.25371 L118.468,185.140497 L118.449198,185.049144 L118.449198,185.049144 L118.400587,184.874876 L118.400587,184.874876 L118.33305,184.698271 L118.33305,184.698271 L118.31752,184.663719 C118.274831,184.571109 118.225276,184.482325 118.169507,184.398015 L118.05739,184.244808 L118.05739,184.244808 L117.954217,184.126711 L117.954217,184.126711 L117.85948,184.032876 L117.85948,184.032876 L117.725121,183.918861 L117.725121,183.918861 L117.596856,183.827188 L117.596856,183.827188 C117.51206,183.771515 117.422986,183.722194 117.330168,183.679799 L117.148762,183.607495 L117.148762,183.607495 L116.98605,183.559416 L116.98605,183.559416 L116.849151,183.530333 L116.67683,183.507691 L116.67683,183.507691 L116.500223,183.5 L101.500223,183.5 L100.483487,183.48733 L99.7987933,183.464468 L99.7987933,183.464468 L99.117374,183.430199 L98.5767015,183.39479 L98.5767015,183.39479 L97.9261332,183.342497 L97.2693141,183.278899 L96.8240802,183.229577 L96.5462751,183.196247 L95.8051577,183.097665 L95.1492239,182.998602 L94.789685,182.939558 L94.1677125,182.829422 L94.1677125,182.829422 L93.507341,182.701299 L93.507341,182.701299 L92.9119272,182.575801 L92.9119272,182.575801 L92.2148779,182.416718 L91.8225869,182.321358 L91.2014977,182.161699 L91.2014977,182.161699 L90.5523631,181.983323 L89.8930296,181.789933 L89.2267321,181.581805 L88.6220449,181.381698 C72.8486528,176.020859 61.500223,161.085713 61.500223,143.5 C61.500223,122.365324 77.9317601,104.944476 98.8696062,103.585179 L99.5054534,103.548917 L101.451197,103.500601 L116.500223,103.5 L116.649485,103.494514 C117.632602,103.421983 118.418088,102.638773 118.494179,101.65665 L118.500223,101.5 L118.500223,92 L118.494737,91.8507377 L118.485209,91.7537102 L118.485209,91.7537102 L118.468,91.6404975 L118.449198,91.5491436 L118.449198,91.5491436 L118.400587,91.3748756 L118.400587,91.3748756 L118.341575,91.2180244 C118.333316,91.1985913 118.324622,91.1790241 118.315627,91.1596254 C118.273203,91.0681109 118.224013,90.9802813 118.168717,90.8968191 L118.05739,90.7448081 L118.05739,90.7448081 L117.952279,90.6246635 L117.952279,90.6246635 L117.857084,90.5306596 L117.857084,90.5306596 L117.725121,90.4188608 L117.725121,90.4188608 L117.596856,90.327188 L117.596856,90.327188 C117.511288,90.2710088 117.421362,90.2212956 117.327627,90.1786407 L117.148762,90.1074951 L117.148762,90.1074951 L116.98605,90.0594164 L116.98605,90.0594164 L116.849151,90.0303327 L116.67683,90.0076905 L116.67683,90.0076905 L116.500223,90 Z" id="shadow-with-outline" fill="#000000" fill-rule="nonzero"></path>
        <path d="M185,90 C215.622059,90 238.500223,111.192961 238.500223,143.5 C238.500223,175.719198 215.71994,197.984598 185.064136,197.001029 L170,197 C168.895431,197 168,196.104569 168,195 L168,185.5 C168,184.395431 168.895431,183.5 170,183.5 L185,183.5 C207.09139,183.5 225,165.59139 225,143.5 C225,122.151843 208.234836,104.592918 186.99477,103.548917 L185.049027,103.500601 L170,103.5 C168.895431,103.5 168,102.604569 168,101.5 L168,92 C168,90.8954305 168.895431,90 170,90 L185,90 Z M116.500223,90 C117.604793,90 118.500223,90.8954305 118.500223,92 L118.500223,92 L118.500223,101.5 C118.500223,102.604569 117.604793,103.5 116.500223,103.5 L116.500223,103.5 L101.451197,103.500601 L99.5054534,103.548917 C78.2653868,104.592918 61.500223,122.151843 61.500223,143.5 C61.500223,165.59139 79.408833,183.5 101.500223,183.5 L101.500223,183.5 L116.500223,183.5 C117.604793,183.5 118.500223,184.395431 118.500223,185.5 L118.500223,185.5 L118.500223,195 C118.500223,196.104569 117.604793,197 116.500223,197 L116.500223,197 L101.436087,197.001029 C70.7802832,197.984598 48,175.719198 48,143.5 C48,111.192961 70.8781637,90 101.500223,90 L101.500223,90 Z" id="Icon-Fill" fill="#FFFFFF" fill-rule="nonzero" opacity="0.9"></path>
    </g>
</svg>