<?xml version="1.0" encoding="UTF-8"?>
<svg width="288px" height="288px" viewBox="0 0 288 288" version="1.1" xmlns="http://www.w3.org/2000/svg" xmlns:xlink="http://www.w3.org/1999/xlink">
    <title>Adjust output -</title>
    <g id="Adjust-output--" stroke="none" stroke-width="1" fill="none" fill-rule="evenodd">
        <rect id="Background" fill="#1652FF" fill-rule="nonzero" x="0" y="0" width="288" height="288"></rect>
        <path d="M140.43414,78.2281303 C141.777659,79.8403534 142.513426,81.8725797 142.513426,83.9712239 L142.513573,85.5244105 C145.958481,84.2894802 149.955229,85.2534377 152.43414,88.2281303 C153.777659,89.8403534 154.513426,91.8725797 154.513426,93.9712239 L154.513426,203.685794 C154.513426,208.64034 150.496973,212.656793 145.542427,212.656793 C143.443783,212.656793 141.411557,211.921026 139.799334,210.577506 L99.0053706,176.582537 L75.4564984,176.582537 C69.2056854,176.582537 63.9503234,172.320505 62.4378944,166.543922 C55.4820681,166.024135 50,160.21529 50,153.126039 L50,124.530979 C50,117.099161 56.0246795,111.074481 63.4564984,111.074481 L87.0053706,111.074481 L127.799334,77.0795116 C131.605522,73.9076886 137.262317,74.4219427 140.43414,78.2281303 Z M131.544276,81.264675 L131.388767,81.3868318 L89.0353391,116.681355 L63.4564984,116.681355 C59.2046405,116.681355 55.742347,120.061882 55.6107543,124.2818 L55.6068743,124.530979 L55.6068743,153.126039 C55.6068743,157.377896 58.9874013,160.84019 63.2073189,160.971783 L63.4564984,160.975663 L89.0353391,160.975663 L131.388767,196.270186 C131.993351,196.774006 132.755436,197.049919 133.542427,197.049919 C135.33845,197.049919 136.80575,195.642487 136.901574,193.870374 L136.906552,193.685794 L136.906552,83.9712239 C136.906552,83.2629315 136.683063,82.5748135 136.27108,82.0035313 L136.12682,81.8175638 C134.979866,80.4412192 132.96642,80.2127474 131.544276,81.264675 Z M225.439313,125.817768 C228.753021,125.817768 231.439313,128.504059 231.439313,131.817768 C234.67771,131.817768 237.316884,134.383343 237.435174,137.59283 L237.439313,137.817768 L237.439313,145.417768 C237.439313,148.656165 234.873738,151.29534 231.664251,151.413629 L231.439313,151.417768 L177.439313,151.417768 C174.125604,151.417768 171.439313,148.731476 171.439313,145.417768 C168.200916,145.417768 165.561741,142.852193 165.443451,139.642706 L165.439313,139.417768 L165.439313,131.817768 C165.439313,128.579371 168.004887,125.940196 171.214374,125.821906 L171.439313,125.817768 L225.439313,125.817768 Z M225.439313,129.817768 L171.439313,129.817768 C170.384951,129.817768 169.521147,130.633646 169.444798,131.668506 L169.439313,131.817768 L169.439313,139.417768 C169.439313,140.47213 170.25519,141.335933 171.29005,141.412282 L171.439313,141.417768 L225.439313,141.417768 C226.493674,141.417768 227.357478,140.60189 227.433827,139.56703 L227.439313,139.417768 L227.439313,131.817768 C227.439313,130.713198 226.543882,129.817768 225.439313,129.817768 Z" id="Shadow-with-outline" fill="#000000" fill-rule="nonzero"></path>
        <path d="M131.544276,81.264675 C132.96642,80.2127474 134.979866,80.4412192 136.12682,81.8175638 L136.12682,81.8175638 L136.27108,82.0035313 C136.683063,82.5748135 136.906552,83.2629315 136.906552,83.9712239 L136.906552,83.9712239 L136.906552,193.685794 L136.901574,193.870374 C136.80575,195.642487 135.33845,197.049919 133.542427,197.049919 C132.755436,197.049919 131.993351,196.774006 131.388767,196.270186 L131.388767,196.270186 L89.0353391,160.975663 L63.4564984,160.975663 L63.2073189,160.971783 C58.9874013,160.84019 55.6068743,157.377896 55.6068743,153.126039 L55.6068743,153.126039 L55.6068743,124.530979 L55.6107543,124.2818 C55.742347,120.061882 59.2046405,116.681355 63.4564984,116.681355 L63.4564984,116.681355 L89.0353391,116.681355 L131.388767,81.3868318 Z M225.439313,129.817768 C226.543882,129.817768 227.439313,130.713198 227.439313,131.817768 L227.439313,139.417768 C227.439313,140.522337 226.543882,141.417768 225.439313,141.417768 L171.439313,141.417768 C170.334743,141.417768 169.439313,140.522337 169.439313,139.417768 L169.439313,131.817768 C169.439313,130.713198 170.334743,129.817768 171.439313,129.817768 L225.439313,129.817768 Z" id="Icon-Fill" fill-opacity="0.7" fill="#FFFFFF" fill-rule="nonzero"></path>
        <path d="M175.440179,132.957768 L187.440179,132.964699 C188.268606,132.965177 188.939791,133.637138 188.939312,134.465565 C188.938862,135.245261 188.343604,135.88567 187.58291,135.957915 L187.438446,135.964698 L175.438446,135.957768 C174.610019,135.957289 173.938834,135.285329 173.939312,134.456902 C173.939763,133.677206 174.535021,133.036797 175.295715,132.964551 L175.440179,132.957768 Z M128.166712,94.6299478 C129.050661,95.6823186 129.049048,97.1811505 128.229885,98.1849845 L127.884509,98.5363805 L98.9953137,122.986499 C97.8450142,123.960045 96.1063567,123.789505 95.1119135,122.605588 C94.2279641,121.553217 94.2295768,120.054385 95.0487403,119.050551 L95.3941165,118.699155 L124.283311,94.249037 C125.433611,93.275491 127.172268,93.4460306 128.166712,94.6299478 Z" id="Highlight" fill="#FFFFFF" fill-rule="nonzero"></path>
    </g>
</svg>