<?xml version="1.0" encoding="UTF-8"?>
<svg width="288px" height="288px" viewBox="0 0 288 288" version="1.1" xmlns="http://www.w3.org/2000/svg" xmlns:xlink="http://www.w3.org/1999/xlink">
    <title>Lowcut off</title>
    <g id="Lowcut-off" stroke="none" stroke-width="1" fill="none" fill-rule="evenodd">
        <rect id="Background" fill="#08154F" fill-rule="nonzero" x="0" y="0" width="288" height="288"></rect>
        <path d="M225.299808,121.196563 C230.488222,121.196563 234.83564,124.745321 235.662034,129.448634 C240.308932,130.453274 243.803437,134.36051 243.803437,139.076903 C243.803437,144.365646 239.402468,148.653843 233.867807,148.942299 L233.580537,148.953637 L233.299808,148.957243 L133.117,148.957 L77.4291663,190.510907 C73.2733784,193.771243 67.1940703,193.511004 63.3554687,189.985881 L63.1322844,189.774757 L62.9185166,189.560308 L62.72158,189.350234 C61.4302583,187.931642 60.6410657,186.267143 60.339208,184.548313 C58.5356279,184.157229 56.82443,183.315818 55.41095,182.036463 L55.1322844,181.774757 L54.9185166,181.560308 L54.72158,181.350234 C51.0574923,177.32502 51.4361664,171.319954 55.5196306,167.711602 L55.7460372,167.517186 L56.0047445,167.309545 L114.606442,123.488919 C116.296282,122.163191 118.380961,121.374443 120.589151,121.222596 L120.980058,121.202432 L121.335229,121.196563 L225.299808,121.196563 Z M225.299808,124.803168 L121.36639,124.803168 L121.073542,124.807959 C119.510093,124.862021 118.015348,125.398934 116.799614,126.352098 L116.799614,126.352098 L58.2191643,170.155794 L58.0359393,170.303787 C55.330604,172.561412 55.0470527,176.349628 57.3700039,178.901843 L57.3700039,178.901843 L57.528906,179.071405 C60.0212237,181.645383 64.3342483,181.923617 67.2374624,179.646632 L67.2374624,179.646632 L123.439991,137.708423 C123.751524,137.475958 124.129827,137.350369 124.518533,137.350369 L124.518533,137.350369 L225.275601,137.350532 L225.507869,137.347577 C229.255486,137.246836 232.196563,134.441027 232.196563,131.076903 C232.196563,127.643348 229.137498,124.803168 225.299808,124.803168 L225.299808,124.803168 Z" id="Shadow-with-outline" fill="#000000" fill-rule="nonzero"></path>
        <path d="M158.000194,128 C159.104763,128 160.000194,128.895431 160.000194,130 C160.000194,131.054362 159.184316,131.918165 158.149456,131.994514 L158.000194,132 L124.000194,132 C122.895624,132 122.000194,131.104569 122.000194,130 C122.000194,128.945638 122.816071,128.081835 123.850931,128.005486 L124.000194,128 L158.000194,128 Z" id="Highlight" fill="#FFFFFF" fill-rule="nonzero" opacity="0.3"></path>
        <path d="M121.36639,124.803168 L225.299808,124.803168 C229.137498,124.803168 232.196563,127.643348 232.196563,131.076903 C232.196563,134.441027 229.255486,137.246836 225.507869,137.347577 L225.275601,137.350532 L124.518533,137.350369 C124.129827,137.350369 123.751524,137.475958 123.439991,137.708423 L67.2374624,179.646632 C64.3342483,181.923617 60.0212237,181.645383 57.528906,179.071405 L57.3700039,178.901843 C55.0470527,176.349628 55.330604,172.561412 58.0359393,170.303787 L58.2191643,170.155794 L116.799614,126.352098 C118.015348,125.398934 119.510093,124.862021 121.073542,124.807959 L121.36639,124.803168 Z" id="Icon-Fill" fill-opacity="0.3" fill="#FFFFFF" fill-rule="nonzero"></path>
        <g id="Group" transform="translate(185.800000, 20.800000)" fill-rule="nonzero">
            <path d="M54.7,-2.84217094e-14 C69.4460028,-2.84217094e-14 81.4,11.9539972 81.4,26.7 C81.4,41.4460028 69.4460028,53.4 54.7,53.4 L54.7,53.4 L26.7,53.4 C11.9539972,53.4 1.13686838e-13,41.4460028 1.13686838e-13,26.7 C1.13686838e-13,11.9539972 11.9539972,-2.84217094e-14 26.7,-2.84217094e-14 L26.7,-2.84217094e-14 Z M54.7,4.4 L26.7,4.4 C14.3840501,4.4 4.4,14.3840501 4.4,26.7 C4.4,39.0159499 14.3840501,49 26.7,49 L26.7,49 L54.7,49 C67.0159499,49 77,39.0159499 77,26.7 C77,14.3840501 67.0159499,4.4 54.7,4.4 L54.7,4.4 Z" id="Combined-Shape" fill="#000000"></path>
            <path d="M26.7,4.4 L54.7,4.4 C67.0159499,4.4 77,14.3840501 77,26.7 C77,39.0159499 67.0159499,49 54.7,49 L26.7,49 C14.3840501,49 4.4,39.0159499 4.4,26.7 C4.4,14.3840501 14.3840501,4.4 26.7,4.4 Z" id="Path" fill="#BAB9B9"></path>
            <path d="M54.2,7 C62.0395833,7 68.858008,11.2512312 72.2037448,17.481084 C74.8335521,20.7196364 76.4,24.7814554 76.4,29.2 C76.4,39.8328734 67.3289248,48.4 56.2,48.4 C48.3604167,48.4 41.541992,44.1487688 38.1962552,37.918916 C35.5664479,34.6803636 34,30.6185446 34,26.2 C34,15.5671266 43.0710752,7 54.2,7 Z M54.2,11.4 C45.4466738,11.4 38.4,18.0551919 38.4,26.2 C38.4,34.3448081 45.4466738,41 54.2,41 C62.9533262,41 70,34.3448081 70,26.2 C70,18.0551919 62.9533262,11.4 54.2,11.4 Z" id="Combined-Shape" fill="#000000"></path>
            <path d="M54.2,11.4 C62.9533262,11.4 70,18.0551919 70,26.2 C70,34.3448081 62.9533262,41 54.2,41 C45.4466738,41 38.4,34.3448081 38.4,26.2 C38.4,18.0551919 45.4466738,11.4 54.2,11.4 Z" id="Path" fill="#EBEBEB"></path>
        </g>
    </g>
</svg>