<?xml version="1.0" encoding="UTF-8"?>
<svg width="288px" height="288px" viewBox="0 0 288 288" version="1.1" xmlns="http://www.w3.org/2000/svg" xmlns:xlink="http://www.w3.org/1999/xlink">
    <title>Set Output Volume</title>
    <g id="Set-Output-Volume" stroke="none" stroke-width="1" fill="none" fill-rule="evenodd">
        <rect id="Background" fill="#1652FF" fill-rule="nonzero" x="0" y="0" width="288" height="288"></rect>
        <path d="M140.43414,78.2281303 C141.777659,79.8403534 142.513426,81.8725797 142.513426,83.9712239 L142.513573,85.5244105 C145.958481,84.2894802 149.955229,85.2534377 152.43414,88.2281303 C153.777659,89.8403534 154.513426,91.8725797 154.513426,93.9712239 L154.513426,203.685794 C154.513426,208.64034 150.496973,212.656793 145.542427,212.656793 C143.443783,212.656793 141.411557,211.921026 139.799334,210.577506 L99.0053706,176.582537 L75.4564984,176.582537 C69.2056854,176.582537 63.9503234,172.320505 62.4378944,166.543922 C55.4820681,166.024135 50,160.21529 50,153.126039 L50,124.530979 C50,117.099161 56.0246795,111.074481 63.4564984,111.074481 L87.0053706,111.074481 L127.799334,77.0795116 C131.605522,73.9076886 137.262317,74.4219427 140.43414,78.2281303 Z M131.544276,81.264675 L131.388767,81.3868318 L89.0353391,116.681355 L63.4564984,116.681355 C59.2046405,116.681355 55.742347,120.061882 55.6107543,124.2818 L55.6068743,124.530979 L55.6068743,153.126039 C55.6068743,157.377896 58.9874013,160.84019 63.2073189,160.971783 L63.4564984,160.975663 L89.0353391,160.975663 L131.388767,196.270186 C131.993351,196.774006 132.755436,197.049919 133.542427,197.049919 C135.33845,197.049919 136.80575,195.642487 136.901574,193.870374 L136.906552,193.685794 L136.906552,83.9712239 C136.906552,83.2629315 136.683063,82.5748135 136.27108,82.0035313 L136.12682,81.8175638 C134.979866,80.4412192 132.96642,80.2127474 131.544276,81.264675 Z M200.150905,104.477831 C201.649689,105.053375 202.851459,106.203854 203.493733,107.666786 L203.601215,107.928141 L205.298534,112.348701 C206.884612,110.348537 209.641855,109.514339 212.150905,110.477831 C213.649689,111.053375 214.851459,112.203854 215.493733,113.666786 L215.601215,113.928141 L218.360566,121.114429 L222.015997,121.307264 C225.110021,121.469801 227.53311,123.948713 227.692984,126.97515 L234.015997,127.307264 C237.174727,127.4732 239.634165,130.053409 239.700641,133.16573 L239.700641,133.388918 L239.692973,133.613764 C239.608749,135.217044 238.885946,136.715513 237.693088,137.778424 L237.477738,137.961407 L226.933,146.502 L230.443917,159.609283 C231.26174,162.662958 229.570207,165.797527 226.633646,166.82374 L226.416572,166.895035 L226.200361,166.957223 C224.649524,167.372562 223.001037,167.148188 221.621536,166.34217 L221.380961,166.193905 L213.528519,161.096569 C212.185925,161.295771 210.810407,161.034007 209.63068,160.347502 L209.380961,160.193905 L208.619566,159.699429 L198.619038,166.193905 C195.977019,167.909185 192.488715,167.279776 190.600502,164.825991 L190.454802,164.62849 L190.3194,164.428683 C189.445155,163.082096 189.149137,161.444956 189.489416,159.883899 L189.556082,159.609283 L189.984566,158.008429 L186.619038,160.193905 C183.977019,161.909185 180.488715,161.279776 178.600502,158.825991 L178.454802,158.62849 L178.3194,158.428683 C177.445155,157.082096 177.149137,155.444956 177.489416,153.883899 L177.556082,153.609283 L181.066,140.502 L170.522261,131.961407 C168.077729,129.98136 167.596429,126.475925 169.338458,123.922714 L169.484581,123.717833 L169.636359,123.522499 C170.646883,122.274924 172.112421,121.48749 173.702226,121.328721 L173.984002,121.307264 L187.534,120.595 L192.398785,107.928141 C193.586697,104.834675 197.05744,103.289919 200.150905,104.477831 Z M196.194576,109.218324 L196.132928,109.362078 L190.337649,124.453679 L174.193844,125.301756 C173.62798,125.331482 173.101285,125.599847 172.744629,126.040167 C172.084156,126.855576 172.170452,128.032964 172.91664,128.744741 L173.03993,128.853137 L185.602056,139.028336 L181.419915,154.644078 C181.273325,155.191432 181.365797,155.775278 181.674354,156.250544 C182.245756,157.130667 183.392185,157.412427 184.29971,156.922712 L184.4409,156.838952 L196.910931,148.743027 C197.525989,148.343713 198.305759,148.31519 198.944348,148.65746 L199.089069,148.743027 L211.5591,156.838952 C212.034366,157.147509 212.618212,157.239981 213.165566,157.093391 C214.184036,156.820629 214.807367,155.809061 214.6134,154.789678 L214.580085,154.644078 L210.397944,139.028336 L222.96007,128.853137 C223.40039,128.496481 223.668755,127.969786 223.698481,127.403922 C223.753793,126.351012 222.984355,125.445597 221.954925,125.315064 L221.806156,125.301756 L205.662351,124.453679 L199.867071,109.362078 C199.663938,108.833095 199.245951,108.415108 198.716968,108.211975 C197.786603,107.854708 196.753861,108.238964 196.270022,109.074874 L196.194576,109.218324 Z" id="Shape" fill="#000000" fill-rule="nonzero"></path>
        <path d="M136.12682,81.8175638 C134.979866,80.4412192 132.96642,80.2127474 131.544276,81.264675 L131.388767,81.3868318 L89.0353391,116.681355 L63.4564984,116.681355 C59.2046405,116.681355 55.742347,120.061882 55.6107543,124.2818 L55.6068743,124.530979 L55.6068743,153.126039 C55.6068743,157.377896 58.9874013,160.84019 63.2073189,160.971783 L63.4564984,160.975663 L89.0353391,160.975663 L131.388767,196.270186 C131.993351,196.774006 132.755436,197.049919 133.542427,197.049919 C135.33845,197.049919 136.80575,195.642487 136.901574,193.870374 L136.906552,193.685794 L136.906552,83.9712239 C136.906552,83.2629315 136.683063,82.5748135 136.27108,82.0035313 L136.12682,81.8175638 Z" id="Speaker-Fill-White-70%" fill-opacity="0.7" fill="#FFFFFF" fill-rule="nonzero"></path>
        <path d="M198.716968,108.211975 C199.24595,108.415108 199.663938,108.833095 199.867071,109.362078 L205.662351,124.453679 L221.806156,125.301756 C222.909204,125.359702 223.756427,126.300874 223.698481,127.403922 C223.668755,127.969786 223.40039,128.496481 222.960069,128.853137 L210.397944,139.028336 L214.580085,154.644078 C214.865836,155.711045 214.232534,156.80764 213.165566,157.093391 C212.618212,157.239981 212.034366,157.147509 211.5591,156.838952 L199.089069,148.743027 C198.426699,148.312996 197.573301,148.312996 196.91093,148.743027 L184.4409,156.838952 C183.514455,157.440428 182.27583,157.176989 181.674354,156.250544 C181.365796,155.775278 181.273324,155.191432 181.419914,154.644078 L185.602055,139.028336 L173.03993,128.853137 C172.181605,128.157902 172.049394,126.898493 172.744629,126.040167 C173.101284,125.599847 173.62798,125.331482 174.193843,125.301756 L190.337649,124.453679 L196.132928,109.362078 C196.528899,108.330923 197.685813,107.816004 198.716968,108.211975 Z" id="Star-fill---yellow-100%" fill="#FFCF4B" fill-rule="nonzero"></path>
        <path d="M190.967793,127.000645 C191.795863,126.976345 192.486847,127.627929 192.511148,128.455999 C192.53402,129.23536 191.958183,129.893287 191.199991,129.988253 L191.055794,129.999355 L180.404181,130.311941 C179.576111,130.336242 178.885127,129.684658 178.860826,128.856588 C178.837955,128.077227 179.413791,127.4193 180.171984,127.324334 L180.31618,127.313232 L190.967793,127.000645 Z M128.166712,94.6299478 C129.050661,95.6823186 129.049048,97.1811505 128.229885,98.1849845 L127.884509,98.5363805 L98.9953137,122.986499 C97.8450142,123.960045 96.1063567,123.789505 95.1119135,122.605588 C94.2279641,121.553217 94.2295768,120.054385 95.0487403,119.050551 L95.3941165,118.699155 L124.283311,94.249037 C125.433611,93.275491 127.172268,93.4460306 128.166712,94.6299478 Z" id="Highlight" fill="#FFFFFF" fill-rule="nonzero"></path>
    </g>
</svg>