<?xml version="1.0" encoding="UTF-8"?>
<svg width="288px" height="288px" viewBox="0 0 288 288" version="1.1" xmlns="http://www.w3.org/2000/svg" xmlns:xlink="http://www.w3.org/1999/xlink">
    <title>Adjust mic&lt;PC balance</title>
    <g id="Adjust-mic-PC-balance">
        <rect id="Background" x="0" y="0" width="288" height="288" style="fill:rgb(22,82,255);"/>
        <g id="Microphone" transform="matrix(1,0,0,1,46,85)">
            <g opacity="0.4">
                <path id="Icon-fill" d="M46.8,2.4L47.195,2.413C50.248,2.611 52.679,5.093 52.796,8.168L52.8,8.4L52.8,85.2L52.787,85.595C52.589,88.648 50.107,91.079 47.032,91.196L46.8,91.2L36,91.2L35.784,91.219C35.264,91.314 34.861,91.743 34.806,92.275L34.8,92.4L34.8,106.8L34.819,107.016C34.914,107.536 35.343,107.939 35.875,107.994L36,108L52.8,108L53.08,108.016C54.274,108.155 55.2,109.169 55.2,110.4C55.2,111.67 54.213,112.71 52.964,112.794L52.8,112.8L12,112.8L11.72,112.784C10.526,112.645 9.6,111.631 9.6,110.4C9.6,109.13 10.587,108.09 11.836,108.006L12,108L28.8,108L29.016,107.981C29.536,107.886 29.939,107.457 29.994,106.925L30,106.8L30,92.4L29.981,92.184C29.886,91.664 29.457,91.261 28.925,91.206L28.8,91.2L18,91.2L17.605,91.187C14.552,90.989 12.121,88.507 12.004,85.432L12,85.2L12,8.4L12.013,8.005C12.211,4.952 14.693,2.521 17.768,2.404L18,2.4L46.8,2.4ZM32.4,75.6C29.749,75.6 27.6,77.749 27.6,80.4C27.6,83.051 29.749,85.2 32.4,85.2C35.051,85.2 37.2,83.051 37.2,80.4C37.2,77.749 35.051,75.6 32.4,75.6ZM6,57.6L6.216,57.619C6.736,57.714 7.139,58.143 7.194,58.675L7.2,58.8L7.2,68.4L7.181,68.616C7.086,69.136 6.657,69.539 6.125,69.594L6,69.6L3.6,69.6L3.384,69.581C2.864,69.486 2.461,69.057 2.406,68.525L2.4,68.4L2.4,58.8L2.419,58.584C2.514,58.064 2.943,57.661 3.475,57.606L3.6,57.6L6,57.6ZM61.2,57.6L61.416,57.619C61.936,57.714 62.339,58.143 62.394,58.675L62.4,58.8L62.4,68.4L62.381,68.616C62.286,69.136 61.857,69.539 61.325,69.594L61.2,69.6L58.8,69.6L58.584,69.581C58.064,69.486 57.661,69.057 57.606,68.525L57.6,68.4L57.6,58.8L57.619,58.584C57.714,58.064 58.143,57.661 58.675,57.606L58.8,57.6L61.2,57.6Z" style="fill:white;fill-opacity:0.8;fill-rule:nonzero;"/>
                <path id="shadow-with-outline" d="M46.8,0C48.998,0 50.998,0.844 52.495,2.226L52.694,2.415L52.678,2.399L56.4,2.4C60.885,2.4 64.548,5.914 64.788,10.339L64.8,10.8L64.8,61.2C64.8,59.329 66.228,57.791 68.053,57.616L68.4,57.6L70.8,57.6C72.671,57.6 74.209,59.028 74.384,60.853L74.4,61.2L74.4,70.8C74.4,72.671 72.972,74.209 71.147,74.384L70.8,74.4L68.4,74.4C66.529,74.4 64.991,72.972 64.816,71.147L64.8,70.8L64.8,87.6C64.8,92.085 61.286,95.748 56.861,95.988L56.4,96L46.8,96L46.799,105.6L37.2,105.6L37.2,93.6L37.2,105.6L52.8,105.6C54.502,105.6 55.996,106.485 56.849,107.821L56.957,108L56.958,108L62.4,108C64.804,108 66.795,109.767 67.145,112.073L67.187,112.442L67.2,112.8C67.2,115.33 65.242,117.404 62.758,117.587L62.4,117.6L21.6,117.6C19.824,117.6 18.273,116.635 17.443,115.201L12,115.2C9.349,115.2 7.2,113.051 7.2,110.4C7.2,107.87 9.158,105.796 11.642,105.613L12,105.6L27.6,105.6L27.599,96L27.275,95.994C25.115,95.912 23.164,95.014 21.722,93.6L18,93.6C13.67,93.6 10.105,90.324 9.649,86.115L9.612,85.661L9.6,85.2L9.6,68.4C9.6,70.271 8.172,71.809 6.347,71.984L6,72L3.6,72C1.729,72 0.191,70.572 0.016,68.747L0,68.4L0,58.8C0,56.929 1.428,55.391 3.253,55.216L3.6,55.2L6,55.2C7.871,55.2 9.409,56.628 9.584,58.453L9.6,58.799L9.6,8.4C9.6,3.915 13.114,0.252 17.539,0.012L18,0L46.8,0ZM52.8,65.999L11.999,65.999L12,85.2C12,88.381 14.476,90.984 17.605,91.187L18,91.2L28.8,91.2C29.389,91.2 29.879,91.625 29.981,92.184L30,92.4L30,106.8C30,107.389 29.575,107.879 29.016,107.981L28.8,108L12,108C10.675,108 9.6,109.075 9.6,110.4C9.6,111.631 10.526,112.645 11.72,112.784L12,112.8L52.8,112.8C54.125,112.8 55.2,111.725 55.2,110.4C55.2,109.169 54.274,108.155 53.08,108.016L52.8,108L36,108C35.411,108 34.921,107.576 34.819,107.016L34.8,106.8L34.8,92.4C34.8,91.811 35.225,91.321 35.784,91.219L36,91.2L46.8,91.2C49.981,91.2 52.584,88.724 52.787,85.595L52.8,85.2L52.8,65.999ZM32.4,75.6C35.051,75.6 37.2,77.749 37.2,80.4C37.2,83.051 35.051,85.2 32.4,85.2C29.749,85.2 27.6,83.051 27.6,80.4C27.6,77.749 29.749,75.6 32.4,75.6ZM6,57.6L3.6,57.6C3.011,57.6 2.521,58.025 2.419,58.584L2.4,58.8L2.4,68.4C2.4,68.989 2.825,69.479 3.384,69.581L3.6,69.6L6,69.6C6.589,69.6 7.079,69.175 7.181,68.616L7.2,68.4L7.2,58.8C7.2,58.211 6.775,57.721 6.216,57.619L6,57.6ZM61.2,57.6L58.8,57.6C58.211,57.6 57.721,58.025 57.619,58.584L57.6,58.8L57.6,68.4C57.6,68.989 58.025,69.479 58.584,69.581L58.8,69.6L61.2,69.6C61.789,69.6 62.279,69.175 62.381,68.616L62.4,68.4L62.4,58.8C62.4,58.211 61.975,57.721 61.416,57.619L61.2,57.6ZM46.8,2.4L18,2.4C14.819,2.4 12.216,4.876 12.013,8.005L12,8.4L11.999,63.599L15.3,63.599L15.214,63.471C15.078,63.245 15.001,62.982 15.001,62.7C15.001,61.872 15.672,61.2 16.501,61.2C17.329,61.2 18.001,61.872 18.001,62.7C18.001,63.038 17.889,63.349 17.701,63.6L21.3,63.599L21.214,63.471C21.078,63.245 21.001,62.982 21.001,62.7C21.001,61.872 21.672,61.2 22.501,61.2C23.329,61.2 24.001,61.872 24.001,62.7C24.001,63.038 23.889,63.349 23.701,63.6L27.3,63.599L27.214,63.471C27.078,63.245 27.001,62.982 27.001,62.7C27.001,61.872 27.672,61.2 28.501,61.2C29.329,61.2 30.001,61.872 30.001,62.7C30.001,63.038 29.889,63.349 29.701,63.6L33.3,63.599L33.214,63.471C33.078,63.245 33.001,62.982 33.001,62.7C33.001,61.872 33.672,61.2 34.501,61.2C35.329,61.2 36.001,61.872 36.001,62.7C36.001,63.038 35.889,63.349 35.701,63.6L39.3,63.599L39.214,63.471C39.078,63.245 39.001,62.982 39.001,62.7C39.001,61.872 39.672,61.2 40.501,61.2C41.329,61.2 42.001,61.872 42.001,62.7C42.001,63.038 41.889,63.349 41.701,63.6L45.3,63.599L45.214,63.471C45.078,63.245 45.001,62.982 45.001,62.7C45.001,61.872 45.672,61.2 46.501,61.2C47.329,61.2 48.001,61.872 48.001,62.7C48.001,63.038 47.889,63.349 47.701,63.6L51.3,63.599L51.214,63.471C51.078,63.245 51.001,62.982 51.001,62.7C51.001,62.209 51.236,61.773 51.601,61.5L51.6,63.599L52.8,63.599L52.8,8.4C52.8,5.219 50.324,2.616 47.195,2.413L46.8,2.4ZM43.501,57.72C44.329,57.72 45.001,58.392 45.001,59.22C45.001,60.048 44.329,60.72 43.501,60.72C42.672,60.72 42.001,60.048 42.001,59.22C42.001,58.392 42.672,57.72 43.501,57.72ZM25.501,57.72C26.329,57.72 27.001,58.392 27.001,59.22C27.001,60.048 26.329,60.72 25.501,60.72C24.672,60.72 24.001,60.048 24.001,59.22C24.001,58.392 24.672,57.72 25.501,57.72ZM31.501,57.72C32.329,57.72 33.001,58.392 33.001,59.22C33.001,60.048 32.329,60.72 31.501,60.72C30.672,60.72 30.001,60.048 30.001,59.22C30.001,58.392 30.672,57.72 31.501,57.72ZM13.501,57.72C14.329,57.72 15.001,58.392 15.001,59.22C15.001,60.048 14.329,60.72 13.501,60.72C13.398,60.72 13.297,60.71 13.2,60.69L13.2,57.75C13.297,57.73 13.398,57.72 13.501,57.72ZM19.501,57.72C20.329,57.72 21.001,58.392 21.001,59.22C21.001,60.048 20.329,60.72 19.501,60.72C18.672,60.72 18.001,60.048 18.001,59.22C18.001,58.392 18.672,57.72 19.501,57.72ZM37.501,57.72C38.329,57.72 39.001,58.392 39.001,59.22C39.001,60.048 38.329,60.72 37.501,60.72C36.672,60.72 36.001,60.048 36.001,59.22C36.001,58.392 36.672,57.72 37.501,57.72ZM49.501,57.72C50.329,57.72 51.001,58.392 51.001,59.22C51.001,60.048 50.329,60.72 49.501,60.72C48.672,60.72 48.001,60.048 48.001,59.22C48.001,58.392 48.672,57.72 49.501,57.72ZM22.501,54.48C23.329,54.48 24.001,55.152 24.001,55.98C24.001,56.808 23.329,57.48 22.501,57.48C21.672,57.48 21.001,56.808 21.001,55.98C21.001,55.152 21.672,54.48 22.501,54.48ZM34.501,54.48C35.329,54.48 36.001,55.152 36.001,55.98C36.001,56.808 35.329,57.48 34.501,57.48C33.672,57.48 33.001,56.808 33.001,55.98C33.001,55.152 33.672,54.48 34.501,54.48ZM40.501,54.48C41.329,54.48 42.001,55.152 42.001,55.98C42.001,56.808 41.329,57.48 40.501,57.48C39.672,57.48 39.001,56.808 39.001,55.98C39.001,55.152 39.672,54.48 40.501,54.48ZM46.501,54.48C47.329,54.48 48.001,55.152 48.001,55.98C48.001,56.808 47.329,57.48 46.501,57.48C45.672,57.48 45.001,56.808 45.001,55.98C45.001,55.152 45.672,54.48 46.501,54.48ZM28.501,54.48C29.329,54.48 30.001,55.152 30.001,55.98C30.001,56.808 29.329,57.48 28.501,57.48C27.672,57.48 27.001,56.808 27.001,55.98C27.001,55.152 27.672,54.48 28.501,54.48ZM16.501,54.48C17.329,54.48 18.001,55.152 18.001,55.98C18.001,56.808 17.329,57.48 16.501,57.48C15.672,57.48 15.001,56.808 15.001,55.98C15.001,55.152 15.672,54.48 16.501,54.48ZM51.601,54.78L51.601,57.18C51.236,56.907 51.001,56.471 51.001,55.98C51.001,55.489 51.236,55.053 51.601,54.78ZM25.501,50.88C26.329,50.88 27.001,51.552 27.001,52.38C27.001,53.208 26.329,53.88 25.501,53.88C24.672,53.88 24.001,53.208 24.001,52.38C24.001,51.552 24.672,50.88 25.501,50.88ZM31.501,50.88C32.329,50.88 33.001,51.552 33.001,52.38C33.001,53.208 32.329,53.88 31.501,53.88C30.672,53.88 30.001,53.208 30.001,52.38C30.001,51.552 30.672,50.88 31.501,50.88ZM13.501,50.88C14.329,50.88 15.001,51.552 15.001,52.38C15.001,53.208 14.329,53.88 13.501,53.88C13.398,53.88 13.297,53.87 13.2,53.85L13.2,50.91C13.297,50.89 13.398,50.88 13.501,50.88ZM19.501,50.88C20.329,50.88 21.001,51.552 21.001,52.38C21.001,53.208 20.329,53.88 19.501,53.88C18.672,53.88 18.001,53.208 18.001,52.38C18.001,51.552 18.672,50.88 19.501,50.88ZM37.501,50.88C38.329,50.88 39.001,51.552 39.001,52.38C39.001,53.208 38.329,53.88 37.501,53.88C36.672,53.88 36.001,53.208 36.001,52.38C36.001,51.552 36.672,50.88 37.501,50.88ZM43.501,50.88C44.329,50.88 45.001,51.552 45.001,52.38C45.001,53.208 44.329,53.88 43.501,53.88C42.672,53.88 42.001,53.208 42.001,52.38C42.001,51.552 42.672,50.88 43.501,50.88ZM49.501,50.88C50.329,50.88 51.001,51.552 51.001,52.38C51.001,53.208 50.329,53.88 49.501,53.88C48.672,53.88 48.001,53.208 48.001,52.38C48.001,51.552 48.672,50.88 49.501,50.88ZM22.501,47.64C23.329,47.64 24.001,48.312 24.001,49.14C24.001,49.968 23.329,50.64 22.501,50.64C21.672,50.64 21.001,49.968 21.001,49.14C21.001,48.312 21.672,47.64 22.501,47.64ZM34.501,47.64C35.329,47.64 36.001,48.312 36.001,49.14C36.001,49.968 35.329,50.64 34.501,50.64C33.672,50.64 33.001,49.968 33.001,49.14C33.001,48.312 33.672,47.64 34.501,47.64ZM40.501,47.64C41.329,47.64 42.001,48.312 42.001,49.14C42.001,49.968 41.329,50.64 40.501,50.64C39.672,50.64 39.001,49.968 39.001,49.14C39.001,48.312 39.672,47.64 40.501,47.64ZM46.501,47.64C47.329,47.64 48.001,48.312 48.001,49.14C48.001,49.968 47.329,50.64 46.501,50.64C45.672,50.64 45.001,49.968 45.001,49.14C45.001,48.312 45.672,47.64 46.501,47.64ZM28.501,47.64C29.329,47.64 30.001,48.312 30.001,49.14C30.001,49.968 29.329,50.64 28.501,50.64C27.672,50.64 27.001,49.968 27.001,49.14C27.001,48.312 27.672,47.64 28.501,47.64ZM16.501,47.64C17.329,47.64 18.001,48.312 18.001,49.14C18.001,49.968 17.329,50.64 16.501,50.64C15.672,50.64 15.001,49.968 15.001,49.14C15.001,48.312 15.672,47.64 16.501,47.64ZM51.601,47.94L51.601,50.34C51.236,50.067 51.001,49.631 51.001,49.14C51.001,48.649 51.236,48.213 51.601,47.94ZM49.501,44.28C50.329,44.28 51.001,44.952 51.001,45.78C51.001,46.608 50.329,47.28 49.501,47.28C48.672,47.28 48.001,46.608 48.001,45.78C48.001,44.952 48.672,44.28 49.501,44.28ZM25.501,44.28C26.329,44.28 27.001,44.952 27.001,45.78C27.001,46.608 26.329,47.28 25.501,47.28C24.672,47.28 24.001,46.608 24.001,45.78C24.001,44.952 24.672,44.28 25.501,44.28ZM31.501,44.28C32.329,44.28 33.001,44.952 33.001,45.78C33.001,46.608 32.329,47.28 31.501,47.28C30.672,47.28 30.001,46.608 30.001,45.78C30.001,44.952 30.672,44.28 31.501,44.28ZM13.501,44.28C14.329,44.28 15.001,44.952 15.001,45.78C15.001,46.608 14.329,47.28 13.501,47.28C13.398,47.28 13.297,47.27 13.2,47.25L13.2,44.31C13.297,44.29 13.398,44.28 13.501,44.28ZM19.501,44.28C20.329,44.28 21.001,44.952 21.001,45.78C21.001,46.608 20.329,47.28 19.501,47.28C18.672,47.28 18.001,46.608 18.001,45.78C18.001,44.952 18.672,44.28 19.501,44.28ZM37.501,44.28C38.329,44.28 39.001,44.952 39.001,45.78C39.001,46.608 38.329,47.28 37.501,47.28C36.672,47.28 36.001,46.608 36.001,45.78C36.001,44.952 36.672,44.28 37.501,44.28ZM43.501,44.28C44.329,44.28 45.001,44.952 45.001,45.78C45.001,46.608 44.329,47.28 43.501,47.28C42.672,47.28 42.001,46.608 42.001,45.78C42.001,44.952 42.672,44.28 43.501,44.28ZM22.501,41.04C23.329,41.04 24.001,41.712 24.001,42.54C24.001,43.368 23.329,44.04 22.501,44.04C21.672,44.04 21.001,43.368 21.001,42.54C21.001,41.712 21.672,41.04 22.501,41.04ZM46.501,41.04C47.329,41.04 48.001,41.712 48.001,42.54C48.001,43.368 47.329,44.04 46.501,44.04C45.672,44.04 45.001,43.368 45.001,42.54C45.001,41.712 45.672,41.04 46.501,41.04ZM28.501,41.04C29.329,41.04 30.001,41.712 30.001,42.54C30.001,43.368 29.329,44.04 28.501,44.04C27.672,44.04 27.001,43.368 27.001,42.54C27.001,41.712 27.672,41.04 28.501,41.04ZM16.501,41.04C17.329,41.04 18.001,41.712 18.001,42.54C18.001,43.368 17.329,44.04 16.501,44.04C15.672,44.04 15.001,43.368 15.001,42.54C15.001,41.712 15.672,41.04 16.501,41.04ZM40.501,41.04C41.329,41.04 42.001,41.712 42.001,42.54C42.001,43.368 41.329,44.04 40.501,44.04C39.672,44.04 39.001,43.368 39.001,42.54C39.001,41.712 39.672,41.04 40.501,41.04ZM34.501,41.04C35.329,41.04 36.001,41.712 36.001,42.54C36.001,43.368 35.329,44.04 34.501,44.04C33.672,44.04 33.001,43.368 33.001,42.54C33.001,41.712 33.672,41.04 34.501,41.04ZM51.601,41.34L51.601,43.74C51.236,43.467 51.001,43.031 51.001,42.54C51.001,42.049 51.236,41.613 51.601,41.34ZM37.501,37.44C38.329,37.44 39.001,38.112 39.001,38.94C39.001,39.768 38.329,40.44 37.501,40.44C36.672,40.44 36.001,39.768 36.001,38.94C36.001,38.112 36.672,37.44 37.501,37.44ZM43.501,37.44C44.329,37.44 45.001,38.112 45.001,38.94C45.001,39.768 44.329,40.44 43.501,40.44C42.672,40.44 42.001,39.768 42.001,38.94C42.001,38.112 42.672,37.44 43.501,37.44ZM19.501,37.44C20.329,37.44 21.001,38.112 21.001,38.94C21.001,39.768 20.329,40.44 19.501,40.44C18.672,40.44 18.001,39.768 18.001,38.94C18.001,38.112 18.672,37.44 19.501,37.44ZM13.501,37.44C14.329,37.44 15.001,38.112 15.001,38.94C15.001,39.768 14.329,40.44 13.501,40.44C13.398,40.44 13.297,40.43 13.2,40.41L13.2,37.47C13.297,37.45 13.398,37.44 13.501,37.44ZM49.501,37.44C50.329,37.44 51.001,38.112 51.001,38.94C51.001,39.768 50.329,40.44 49.501,40.44C48.672,40.44 48.001,39.768 48.001,38.94C48.001,38.112 48.672,37.44 49.501,37.44ZM31.501,37.44C32.329,37.44 33.001,38.112 33.001,38.94C33.001,39.768 32.329,40.44 31.501,40.44C30.672,40.44 30.001,39.768 30.001,38.94C30.001,38.112 30.672,37.44 31.501,37.44ZM25.501,37.44C26.329,37.44 27.001,38.112 27.001,38.94C27.001,39.768 26.329,40.44 25.501,40.44C24.672,40.44 24.001,39.768 24.001,38.94C24.001,38.112 24.672,37.44 25.501,37.44ZM22.501,34.2C23.329,34.2 24.001,34.872 24.001,35.7C24.001,36.528 23.329,37.2 22.501,37.2C21.672,37.2 21.001,36.528 21.001,35.7C21.001,34.872 21.672,34.2 22.501,34.2ZM28.501,34.2C29.329,34.2 30.001,34.872 30.001,35.7C30.001,36.528 29.329,37.2 28.501,37.2C27.672,37.2 27.001,36.528 27.001,35.7C27.001,34.872 27.672,34.2 28.501,34.2ZM16.501,34.2C17.329,34.2 18.001,34.872 18.001,35.7C18.001,36.528 17.329,37.2 16.501,37.2C15.672,37.2 15.001,36.528 15.001,35.7C15.001,34.872 15.672,34.2 16.501,34.2ZM40.501,34.2C41.329,34.2 42.001,34.872 42.001,35.7C42.001,36.528 41.329,37.2 40.501,37.2C39.672,37.2 39.001,36.528 39.001,35.7C39.001,34.872 39.672,34.2 40.501,34.2ZM46.501,34.2C47.329,34.2 48.001,34.872 48.001,35.7C48.001,36.528 47.329,37.2 46.501,37.2C45.672,37.2 45.001,36.528 45.001,35.7C45.001,34.872 45.672,34.2 46.501,34.2ZM34.501,34.2C35.329,34.2 36.001,34.872 36.001,35.7C36.001,36.528 35.329,37.2 34.501,37.2C33.672,37.2 33.001,36.528 33.001,35.7C33.001,34.872 33.672,34.2 34.501,34.2ZM51.601,34.5L51.601,36.9C51.236,36.627 51.001,36.191 51.001,35.7C51.001,35.209 51.236,34.773 51.601,34.5ZM13.501,30.48C14.329,30.48 15.001,31.152 15.001,31.98C15.001,32.808 14.329,33.48 13.501,33.48C13.398,33.48 13.297,33.47 13.2,33.45L13.2,30.51C13.297,30.49 13.398,30.48 13.501,30.48ZM25.501,30.48C26.329,30.48 27.001,31.152 27.001,31.98C27.001,32.808 26.329,33.48 25.501,33.48C24.672,33.48 24.001,32.808 24.001,31.98C24.001,31.152 24.672,30.48 25.501,30.48ZM37.501,30.48C38.329,30.48 39.001,31.152 39.001,31.98C39.001,32.808 38.329,33.48 37.501,33.48C36.672,33.48 36.001,32.808 36.001,31.98C36.001,31.152 36.672,30.48 37.501,30.48ZM31.501,30.48C32.329,30.48 33.001,31.152 33.001,31.98C33.001,32.808 32.329,33.48 31.501,33.48C30.672,33.48 30.001,32.808 30.001,31.98C30.001,31.152 30.672,30.48 31.501,30.48ZM49.501,30.48C50.329,30.48 51.001,31.152 51.001,31.98C51.001,32.808 50.329,33.48 49.501,33.48C48.672,33.48 48.001,32.808 48.001,31.98C48.001,31.152 48.672,30.48 49.501,30.48ZM19.501,30.48C20.329,30.48 21.001,31.152 21.001,31.98C21.001,32.808 20.329,33.48 19.501,33.48C18.672,33.48 18.001,32.808 18.001,31.98C18.001,31.152 18.672,30.48 19.501,30.48ZM43.501,30.48C44.329,30.48 45.001,31.152 45.001,31.98C45.001,32.808 44.329,33.48 43.501,33.48C42.672,33.48 42.001,32.808 42.001,31.98C42.001,31.152 42.672,30.48 43.501,30.48ZM16.501,27.24C17.329,27.24 18.001,27.912 18.001,28.74C18.001,29.568 17.329,30.24 16.501,30.24C15.672,30.24 15.001,29.568 15.001,28.74C15.001,27.912 15.672,27.24 16.501,27.24ZM34.501,27.24C35.329,27.24 36.001,27.912 36.001,28.74C36.001,29.568 35.329,30.24 34.501,30.24C33.672,30.24 33.001,29.568 33.001,28.74C33.001,27.912 33.672,27.24 34.501,27.24ZM22.501,27.24C23.329,27.24 24.001,27.912 24.001,28.74C24.001,29.568 23.329,30.24 22.501,30.24C21.672,30.24 21.001,29.568 21.001,28.74C21.001,27.912 21.672,27.24 22.501,27.24ZM28.501,27.24C29.329,27.24 30.001,27.912 30.001,28.74C30.001,29.568 29.329,30.24 28.501,30.24C27.672,30.24 27.001,29.568 27.001,28.74C27.001,27.912 27.672,27.24 28.501,27.24ZM46.501,27.24C47.329,27.24 48.001,27.912 48.001,28.74C48.001,29.568 47.329,30.24 46.501,30.24C45.672,30.24 45.001,29.568 45.001,28.74C45.001,27.912 45.672,27.24 46.501,27.24ZM40.501,27.24C41.329,27.24 42.001,27.912 42.001,28.74C42.001,29.568 41.329,30.24 40.501,30.24C39.672,30.24 39.001,29.568 39.001,28.74C39.001,27.912 39.672,27.24 40.501,27.24ZM51.601,27.54L51.601,29.94C51.236,29.667 51.001,29.231 51.001,28.74C51.001,28.249 51.236,27.813 51.601,27.54ZM25.501,23.64C26.329,23.64 27.001,24.312 27.001,25.14C27.001,25.968 26.329,26.64 25.501,26.64C24.672,26.64 24.001,25.968 24.001,25.14C24.001,24.312 24.672,23.64 25.501,23.64ZM43.501,23.64C44.329,23.64 45.001,24.312 45.001,25.14C45.001,25.968 44.329,26.64 43.501,26.64C42.672,26.64 42.001,25.968 42.001,25.14C42.001,24.312 42.672,23.64 43.501,23.64ZM13.501,23.64C14.329,23.64 15.001,24.312 15.001,25.14C15.001,25.968 14.329,26.64 13.501,26.64C13.398,26.64 13.297,26.63 13.2,26.61L13.2,23.67C13.297,23.65 13.398,23.64 13.501,23.64ZM37.501,23.64C38.329,23.64 39.001,24.312 39.001,25.14C39.001,25.968 38.329,26.64 37.501,26.64C36.672,26.64 36.001,25.968 36.001,25.14C36.001,24.312 36.672,23.64 37.501,23.64ZM49.501,23.64C50.329,23.64 51.001,24.312 51.001,25.14C51.001,25.968 50.329,26.64 49.501,26.64C48.672,26.64 48.001,25.968 48.001,25.14C48.001,24.312 48.672,23.64 49.501,23.64ZM31.501,23.64C32.329,23.64 33.001,24.312 33.001,25.14C33.001,25.968 32.329,26.64 31.501,26.64C30.672,26.64 30.001,25.968 30.001,25.14C30.001,24.312 30.672,23.64 31.501,23.64ZM19.501,23.64C20.329,23.64 21.001,24.312 21.001,25.14C21.001,25.968 20.329,26.64 19.501,26.64C18.672,26.64 18.001,25.968 18.001,25.14C18.001,24.312 18.672,23.64 19.501,23.64ZM22.501,20.4C23.329,20.4 24.001,21.072 24.001,21.9C24.001,22.728 23.329,23.4 22.501,23.4C21.672,23.4 21.001,22.728 21.001,21.9C21.001,21.072 21.672,20.4 22.501,20.4ZM27.451,20.828C28.157,21.497 28.997,22.024 29.926,22.364L29.896,22.452C29.676,23.007 29.134,23.4 28.501,23.4C27.672,23.4 27.001,22.728 27.001,21.9C27.001,21.48 27.173,21.101 27.451,20.828ZM35.998,21.838C36,21.858 36.001,21.879 36.001,21.9C36.001,22.728 35.329,23.4 34.501,23.4C33.987,23.4 33.534,23.142 33.264,22.749C34.251,22.631 35.176,22.313 35.998,21.838ZM40.501,20.4C41.329,20.4 42.001,21.072 42.001,21.9C42.001,22.728 41.329,23.4 40.501,23.4C39.672,23.4 39.001,22.728 39.001,21.9C39.001,21.072 39.672,20.4 40.501,20.4ZM46.501,20.4C47.329,20.4 48.001,21.072 48.001,21.9C48.001,22.728 47.329,23.4 46.501,23.4C45.672,23.4 45.001,22.728 45.001,21.9C45.001,21.072 45.672,20.4 46.501,20.4ZM16.501,20.4C17.329,20.4 18.001,21.072 18.001,21.9C18.001,22.728 17.329,23.4 16.501,23.4C15.672,23.4 15.001,22.728 15.001,21.9C15.001,21.072 15.672,20.4 16.501,20.4ZM51.601,20.7L51.601,23.1C51.236,22.827 51.001,22.391 51.001,21.9C51.001,21.409 51.236,20.973 51.601,20.7ZM32.44,10.56C33.475,10.56 34.472,10.868 35.322,11.45C36.151,12.018 36.786,12.809 37.158,13.735C37.206,13.854 37.249,13.976 37.288,14.099L37.179,14.379L36.319,14.873L35.966,14.724C35.938,14.614 35.905,14.504 35.867,14.398C35.353,12.961 33.975,11.995 32.44,11.995C30.434,11.995 28.804,13.613 28.804,15.6C28.804,17.587 30.434,19.205 32.44,19.205C33.219,19.205 33.962,18.963 34.589,18.505C35.204,18.056 35.654,17.442 35.883,16.764L35.882,16.767L35.83,16.896L31.663,14.532L31.663,16.625L33.163,15.877L33.997,16.35L33.998,16.767L31.333,18.155L30.475,17.67L30.353,17.461L30.353,13.677L30.474,13.469L31.568,12.979L37.319,16.244L37.437,16.496C37.229,17.643 36.62,18.69 35.72,19.447C34.805,20.216 33.641,20.64 32.44,20.64C31.084,20.64 29.808,20.116 28.849,19.165C27.889,18.213 27.36,16.946 27.36,15.6C27.36,14.254 27.889,12.987 28.849,12.036C29.808,11.084 31.084,10.56 32.44,10.56ZM25.346,17.048C25.542,18.01 25.931,18.903 26.469,19.684L26.408,19.734C26.156,19.926 25.842,20.04 25.501,20.04C24.672,20.04 24.001,19.368 24.001,18.54C24.001,17.764 24.59,17.125 25.346,17.048ZM19.501,17.04C20.329,17.04 21.001,17.712 21.001,18.54C21.001,19.368 20.329,20.04 19.501,20.04C18.672,20.04 18.001,19.368 18.001,18.54C18.001,17.712 18.672,17.04 19.501,17.04ZM43.501,17.04C44.329,17.04 45.001,17.712 45.001,18.54C45.001,19.368 44.329,20.04 43.501,20.04C42.672,20.04 42.001,19.368 42.001,18.54C42.001,17.712 42.672,17.04 43.501,17.04ZM49.501,17.04C50.329,17.04 51.001,17.712 51.001,18.54C51.001,19.368 50.329,20.04 49.501,20.04C48.672,20.04 48.001,19.368 48.001,18.54C48.001,17.712 48.672,17.04 49.501,17.04ZM13.501,17.04C14.329,17.04 15.001,17.712 15.001,18.54C15.001,19.368 14.329,20.04 13.501,20.04C13.398,20.04 13.297,20.03 13.2,20.01L13.2,17.07C13.297,17.05 13.398,17.04 13.501,17.04ZM38.999,18.485C39,18.503 39.001,18.521 39.001,18.54C39.001,19.116 38.676,19.616 38.199,19.868C38.515,19.44 38.783,18.977 38.999,18.485ZM22.501,13.8C23.329,13.8 24.001,14.472 24.001,15.3C24.001,16.128 23.329,16.8 22.501,16.8C21.672,16.8 21.001,16.128 21.001,15.3C21.001,14.472 21.672,13.8 22.501,13.8ZM16.501,13.8C17.329,13.8 18.001,14.472 18.001,15.3C18.001,16.128 17.329,16.8 16.501,16.8C15.672,16.8 15.001,16.128 15.001,15.3C15.001,14.472 15.672,13.8 16.501,13.8ZM46.501,13.8C47.329,13.8 48.001,14.472 48.001,15.3C48.001,16.128 47.329,16.8 46.501,16.8C45.672,16.8 45.001,16.128 45.001,15.3C45.001,14.472 45.672,13.8 46.501,13.8ZM40.501,13.8C41.329,13.8 42.001,14.472 42.001,15.3C42.001,16.128 41.329,16.8 40.501,16.8C40.139,16.8 39.806,16.672 39.547,16.458C39.583,16.176 39.6,15.89 39.6,15.6C39.6,15.126 39.554,14.663 39.467,14.215C39.735,13.957 40.1,13.8 40.501,13.8ZM51.601,14.1L51.601,16.5C51.236,16.227 51.001,15.791 51.001,15.3C51.001,14.809 51.236,14.373 51.601,14.1ZM25.501,10.2C26.087,10.2 26.594,10.536 26.841,11.026C26.313,11.665 25.894,12.398 25.611,13.195L25.501,13.2C24.672,13.2 24.001,12.528 24.001,11.7C24.001,10.872 24.672,10.2 25.501,10.2ZM49.501,10.2C50.329,10.2 51.001,10.872 51.001,11.7C51.001,12.528 50.329,13.2 49.501,13.2C48.672,13.2 48.001,12.528 48.001,11.7C48.001,10.872 48.672,10.2 49.501,10.2ZM13.501,10.2C14.329,10.2 15.001,10.872 15.001,11.7C15.001,12.528 14.329,13.2 13.501,13.2C13.398,13.2 13.297,13.19 13.2,13.17L13.2,10.23C13.297,10.21 13.398,10.2 13.501,10.2ZM19.501,10.2C20.329,10.2 21.001,10.872 21.001,11.7C21.001,12.528 20.329,13.2 19.501,13.2C18.672,13.2 18.001,12.528 18.001,11.7C18.001,10.872 18.672,10.2 19.501,10.2ZM43.501,10.2C44.329,10.2 45.001,10.872 45.001,11.7C45.001,12.528 44.329,13.2 43.501,13.2C42.672,13.2 42.001,12.528 42.001,11.7C42.001,10.872 42.672,10.2 43.501,10.2ZM37.501,10.2C38.329,10.2 39.001,10.872 39.001,11.7C39.001,11.944 38.943,12.174 38.84,12.377L38.765,12.231C38.363,11.474 37.831,10.798 37.198,10.231C37.295,10.211 37.397,10.2 37.501,10.2ZM22.501,6.96C23.329,6.96 24.001,7.632 24.001,8.46C24.001,9.288 23.329,9.96 22.501,9.96C21.672,9.96 21.001,9.288 21.001,8.46C21.001,7.632 21.672,6.96 22.501,6.96ZM16.501,6.96C17.329,6.96 18.001,7.632 18.001,8.46C18.001,9.288 17.329,9.96 16.501,9.96C15.672,9.96 15.001,9.288 15.001,8.46C15.001,7.632 15.672,6.96 16.501,6.96ZM40.501,6.96C41.329,6.96 42.001,7.632 42.001,8.46C42.001,9.288 41.329,9.96 40.501,9.96C39.672,9.96 39.001,9.288 39.001,8.46C39.001,7.632 39.672,6.96 40.501,6.96ZM46.501,6.96C47.329,6.96 48.001,7.632 48.001,8.46C48.001,9.288 47.329,9.96 46.501,9.96C45.672,9.96 45.001,9.288 45.001,8.46C45.001,7.632 45.672,6.96 46.501,6.96ZM28.501,6.96C29.329,6.96 30.001,7.632 30.001,8.46C30.001,8.587 29.985,8.71 29.955,8.828C29.254,9.079 28.605,9.437 28.026,9.881C27.43,9.684 27.001,9.122 27.001,8.46C27.001,7.632 27.672,6.96 28.501,6.96ZM51.487,7.354C51.561,7.691 51.601,8.041 51.601,8.4L51.601,9.66C51.236,9.387 51.001,8.951 51.001,8.46C51.001,8.022 51.188,7.629 51.487,7.354ZM34.501,6.96C35.329,6.96 36.001,7.632 36.001,8.46C36.001,8.747 35.92,9.014 35.781,9.242C34.941,8.794 34.001,8.508 33.003,8.425L33.001,8.46C33.001,7.632 33.672,6.96 34.501,6.96ZM48.559,3.932C49.498,4.302 50.291,4.958 50.832,5.793L50.772,5.896C50.507,6.319 50.037,6.6 49.501,6.6C48.672,6.6 48.001,5.928 48.001,5.1C48.001,4.628 48.219,4.207 48.559,3.932ZM25.501,3.6C26.329,3.6 27.001,4.272 27.001,5.1C27.001,5.928 26.329,6.6 25.501,6.6C24.672,6.6 24.001,5.928 24.001,5.1C24.001,4.272 24.672,3.6 25.501,3.6ZM31.501,3.6C32.329,3.6 33.001,4.272 33.001,5.1C33.001,5.928 32.329,6.6 31.501,6.6C30.672,6.6 30.001,5.928 30.001,5.1C30.001,4.272 30.672,3.6 31.501,3.6ZM19.501,3.6C20.329,3.6 21.001,4.272 21.001,5.1C21.001,5.928 20.329,6.6 19.501,6.6C18.672,6.6 18.001,5.928 18.001,5.1C18.001,4.272 18.672,3.6 19.501,3.6ZM37.501,3.6C38.329,3.6 39.001,4.272 39.001,5.1C39.001,5.928 38.329,6.6 37.501,6.6C36.672,6.6 36.001,5.928 36.001,5.1C36.001,4.272 36.672,3.6 37.501,3.6ZM43.501,3.6C44.329,3.6 45.001,4.272 45.001,5.1C45.001,5.928 44.329,6.6 43.501,6.6C42.672,6.6 42.001,5.928 42.001,5.1C42.001,4.272 42.672,3.6 43.501,3.6ZM14.945,4.698C14.982,4.826 15.001,4.961 15.001,5.1C15.001,5.912 14.356,6.573 13.551,6.599C13.852,5.854 14.335,5.202 14.945,4.698Z" style="fill-rule:nonzero;"/>
                <path id="Highlight" d="M15.6,74.4C16.189,74.4 16.679,74.825 16.781,75.384L16.8,75.6L16.8,83.682C16.8,85.183 18.017,86.4 19.518,86.4C20.181,86.4 20.718,86.937 20.718,87.6C20.718,88.263 20.181,88.8 19.518,88.8C16.814,88.8 14.6,86.703 14.413,84.047L14.4,83.682L14.4,75.6C14.4,74.937 14.937,74.4 15.6,74.4Z" style="fill:white;fill-rule:nonzero;"/>
            </g>
        </g>
        <path id="icon_fill-" d="M228.521,107C231.547,107 234,109.468 234,112.513L234,165.436C234,168.481 231.547,170.949 228.521,170.949L184.691,170.949C184.086,170.949 183.596,171.442 183.596,172.051L183.596,187.487C183.596,188.096 184.086,188.59 184.691,188.59L206.606,188.59C207.212,188.59 207.702,189.083 207.702,189.692L207.702,191.897C207.702,192.506 207.212,193 206.606,193L158.394,193C157.788,193 157.298,192.506 157.298,191.897L157.298,189.692C157.298,189.083 157.788,188.59 158.394,188.59L178.117,188.59C178.722,188.59 179.213,188.096 179.213,187.487L179.213,172.051C179.213,171.442 178.722,170.949 178.117,170.949L136.479,170.949C133.453,170.949 131,168.481 131,165.436L131,112.513C131,109.468 133.453,107 136.479,107L228.521,107ZM181.404,156.615C178.378,156.615 175.926,159.084 175.926,162.128C175.926,165.173 178.378,167.641 181.404,167.641C184.43,167.641 186.883,165.173 186.883,162.128C186.883,159.084 184.43,156.615 181.404,156.615Z" style="fill:white;fill-opacity:0.7;fill-rule:nonzero;"/>
        <path id="shadow-with-outline1" d="M228.75,105C232.64,105 235.854,107.911 236.355,111.684C239.969,112.168 242.789,115.187 242.989,118.906L243,119.33L243,172.239C243,176.358 239.79,179.723 235.748,179.943L235.327,179.955L192.577,179.955L192.577,186.568L206.827,186.568C208.429,186.568 209.764,187.721 210.056,189.247L210.1,189.557L210.115,189.875L210.115,192.08C210.115,192.467 210.049,192.838 209.928,193.183L213.404,193.182C215.006,193.182 216.341,194.334 216.633,195.86L216.677,196.17L216.692,196.489L216.692,198.693C216.692,200.412 215.388,201.825 213.721,201.985L213.404,202L165.173,202C163.464,202 162.059,200.689 161.9,199.012L161.885,198.693L161.885,196.489C161.885,196.102 161.95,195.732 162.072,195.387L158.596,195.386C156.887,195.386 155.482,194.075 155.323,192.398L155.308,192.08L155.308,189.875C155.308,188.156 156.612,186.744 158.279,186.583L158.596,186.568L177.231,186.568L177.231,179.955L143.25,179.955C139.36,179.955 136.146,177.044 135.645,173.27C132.17,172.805 129.429,169.996 129.046,166.474L129.011,166.048L129,165.625L129,112.716C129,108.597 132.21,105.231 136.252,105.011L136.673,105L228.75,105ZM228.75,107.205L136.673,107.205C133.767,107.205 131.39,109.479 131.204,112.354L131.192,112.716L131.192,165.625C131.192,168.547 133.454,170.938 136.313,171.125L136.673,171.136L178.327,171.136C178.865,171.136 179.313,171.526 179.405,172.041L179.423,172.239L179.423,187.67C179.423,188.212 179.035,188.662 178.524,188.755L178.327,188.773L158.596,188.773C158.058,188.773 157.61,189.163 157.518,189.677L157.5,189.875L157.5,192.08C157.5,192.621 157.888,193.071 158.399,193.164L158.596,193.182L206.827,193.182C207.365,193.182 207.813,192.792 207.905,192.278L207.923,192.08L207.923,189.875C207.923,189.334 207.535,188.884 207.024,188.79L206.827,188.773L184.904,188.773C184.366,188.773 183.918,188.383 183.825,187.869L183.808,187.67L183.808,172.239C183.808,171.698 184.195,171.247 184.707,171.154L184.904,171.136L228.75,171.136C231.656,171.136 234.034,168.862 234.219,165.987L234.231,165.625L234.231,112.716C234.231,112.573 234.225,112.431 234.215,112.291L234.189,112.034L234.121,111.615L234.05,111.307C233.463,109.07 231.514,107.39 229.148,107.219L228.75,107.205ZM181.615,156.807C184.642,156.807 187.096,159.274 187.096,162.318C187.096,165.362 184.642,167.83 181.615,167.83C178.588,167.83 176.135,165.362 176.135,162.318C176.135,159.274 178.588,156.807 181.615,156.807Z" style="fill-rule:nonzero;"/>
        <path id="Highlight1" d="M152.058,122.956C152.443,123.342 152.486,123.942 152.186,124.376L152.058,124.53L141.929,134.674C141.496,135.109 140.792,135.109 140.358,134.674C139.973,134.288 139.93,133.688 140.23,133.255L140.358,133.101L150.487,122.956C150.921,122.522 151.624,122.522 152.058,122.956ZM151.025,116.002C151.41,116.388 151.453,116.988 151.153,117.421L151.025,117.575L140.896,127.72C140.462,128.154 139.759,128.154 139.325,127.72C138.94,127.334 138.897,126.734 139.197,126.3L139.325,126.146L149.454,116.002C149.888,115.567 150.591,115.567 151.025,116.002ZM160.675,114.326C161.06,114.712 161.103,115.312 160.803,115.745L160.675,115.899L155.259,121.324C154.825,121.758 154.122,121.758 153.688,121.324C153.302,120.937 153.26,120.338 153.559,119.904L153.688,119.75L159.104,114.326C159.538,113.891 160.241,113.891 160.675,114.326Z" style="fill:rgb(252,251,255);fill-rule:nonzero;"/>
    </g>
</svg>
