<?xml version="1.0" encoding="UTF-8"?>
<svg width="288px" height="288px" viewBox="0 0 288 288" version="1.1" xmlns="http://www.w3.org/2000/svg" xmlns:xlink="http://www.w3.org/1999/xlink">
    <title>Clipguard Off</title>
    <defs>
        <path d="M96,173 C96.371786,173 96.7198781,173.101445 97.0181062,173.278166 L96.619,176.714 L95.6676646,173.373954 C95.6365512,173.264237 95.60548,173.154619 95.574451,173.0451 C95.7115393,173.015657 95.8539412,173 96,173 Z M96,163 C97.080982,163 97.9616617,163.857596 97.9987817,164.92953 C97.9734773,165.133645 97.9490559,165.338381 97.9245817,165.543802 C97.6882064,166.384178 96.9160197,167 96,167 C94.8954305,167 94,166.104569 94,165 C94,163.895431 94.8954305,163 96,163 Z M92,158 C93.1045695,158 94,158.895431 94,160 C94,160.938776 93.3532008,161.726483 92.4809252,161.9418 C92.1229842,160.638004 91.7733356,159.352042 91.4304821,158.082092 C91.6115318,158.02865 91.80242,158 92,158 Z M98.7869623,158.410388 C98.6727883,159.340154 98.5573389,160.286456 98.4406117,161.249307 C98.1643745,160.908116 98,160.473254 98,160 C98,159.397508 98.2664091,158.857238 98.6878531,158.490566 Z M96,153 C97.1045695,153 98,153.895431 98,155 C98,156.104569 97.1045695,157 96,157 C94.8954305,157 94,156.104569 94,155 C94,153.895431 94.8954305,153 96,153 Z M92,148 C93.1045695,148 94,148.895431 94,150 C94,151.104569 93.1045695,152 92,152 C90.8954305,152 90,151.104569 90,150 C90,148.895431 90.8954305,148 92,148 Z M100,148 L100.101564,148.003351 C99.9351699,149.279085 99.7655347,150.597041 99.592648,151.957274 C98.6832001,151.770091 98,150.964831 98,150 C98,148.895431 98.8954305,148 100,148 Z M96,143 C97.1045695,143 98,143.895431 98,145 C98,146.104569 97.1045695,147 96,147 C94.8954305,147 94,146.104569 94,145 C94,143.895431 94.8954305,143 96,143 Z M88,143 C89.1045695,143 90,143.895431 90,145 C90,145.935164 89.3581685,146.72042 88.4909838,146.939289 C88.1530782,145.625967 87.8242915,144.334376 87.5040103,143.062842 C87.662601,143.021514 87.8287881,143 88,143 Z M100,139 C100.476743,139 100.914526,139.166807 101.258169,139.445241 C101.104962,140.532868 100.948722,141.66284 100.789158,142.836219 C100.546878,142.942393 100.280167,143 100,143 C98.8954305,143 98,142.104569 98,141 C98,139.895431 98.8954305,139 100,139 Z M92,138 C93.1045695,138 94,138.895431 94,140 C94,141.104569 93.1045695,142 92,142 C90.8954305,142 90,141.104569 90,140 C90,138.895431 90.8954305,138 92,138 Z M96,134 C97.1045695,134 98,134.895431 98,136 C98,137.104569 97.1045695,138 96,138 C94.8954305,138 94,137.104569 94,136 C94,134.895431 94.8954305,134 96,134 Z M88,134 C89.1045695,134 90,134.895431 90,136 C90,137.104569 89.1045695,138 88,138 C86.8954305,138 86,137.104569 86,136 C86,134.895431 86.8954305,134 88,134 Z M92,130 C93.1045695,130 94,130.895431 94,132 C94,133.104569 93.1045695,134 92,134 C90.8954305,134 90,133.104569 90,132 C90,130.895431 90.8954305,130 92,130 Z M100,129 C101.104569,129 102,129.895431 102,131 C102,132.104569 101.104569,133 100,133 C98.8954305,133 98,132.104569 98,131 C98,129.895431 98.8954305,129 100,129 Z M84.1226399,129.003913 L84,129 C85.1045695,129 86,129.895431 86,131 C86,131.745232 85.5924054,132.395265 84.9879835,132.739331 C84.6884349,131.469736 84.400427,130.224762 84.1226399,129.003913 Z M88,125 C89.1045695,125 90,125.895431 90,127 C90,128.104569 89.1045695,129 88,129 C86.8954305,129 86,128.104569 86,127 C86,125.895431 86.8954305,125 88,125 Z M96,125 C97.1045695,125 98,125.895431 98,127 C98,128.104569 97.1045695,129 96,129 C94.8954305,129 94,128.104569 94,127 C94,125.895431 94.8954305,125 96,125 Z M103.765193,124.014298 C103.542845,125.09246 103.307572,126.341825 103.059291,127.762836 C102.428789,127.428575 102,126.764362 102,126 C102,124.995846 102.740025,124.164534 103.704455,124.021685 Z M100,120 C101.104569,120 102,120.895431 102,122 C102,123.104569 101.104569,124 100,124 C98.8954305,124 98,123.104569 98,122 C98,120.895431 98.8954305,120 100,120 Z M92,120 C93.1045695,120 94,120.895431 94,122 C94,123.104569 93.1045695,124 92,124 C90.8954305,124 90,123.104569 90,122 C90,120.895431 90.8954305,120 92,120 Z M84,120 C85.1045695,120 86,120.895431 86,122 C86,123.104569 85.1045695,124 84,124 C83.6134007,124 83.2524209,123.89031 82.9464854,123.700354 C82.7406496,122.739401 82.5412649,121.796789 82.3490101,120.871014 C82.7088774,120.345258 83.3141191,120 84,120 Z M96,115 C97.1045695,115 98,115.895431 98,117 C98,118.104569 97.1045695,119 96,119 C94.8954305,119 94,118.104569 94,117 C94,115.895431 94.8954305,115 96,115 Z M88,115 C89.1045695,115 90,115.895431 90,117 C90,118.104569 89.1045695,119 88,119 C86.8954305,119 86,118.104569 86,117 C86,115.895431 86.8954305,115 88,115 Z M104,115 C104.664488,115 105.253289,115.324056 105.616988,115.822754 L105.543708,116.118518 L105.396591,116.761687 C105.332493,117.05505 105.150484,117.921587 105.027454,118.505741 L105.027454,118.505741 L104.975842,118.746187 C104.687192,118.907842 104.354359,119 104,119 C102.895431,119 102,118.104569 102,117 C102,115.895431 102.895431,115 104,115 Z M82,117 C82,117.346672 81.9117969,117.672744 81.7566078,117.956997 C81.5872972,117.107234 81.4249637,116.273901 81.2691179,115.455895 C81.7153659,115.82096 82,116.37724 82,117 Z M84,110 C85.1045695,110 86,110.895431 86,112 C86,113.104569 85.1045695,114 84,114 C82.8954305,114 82,113.104569 82,112 C82,110.895431 82.8954305,110 84,110 Z M100,110 C101.104569,110 102,110.895431 102,112 C102,113.104569 101.104569,114 100,114 C98.8954305,114 98,113.104569 98,112 C98,110.895431 98.8954305,110 100,110 Z M92,110 C93.1045695,110 94,110.895431 94,112 C94,113.104569 93.1045695,114 92,114 C90.8954305,114 90,113.104569 90,112 C90,110.895431 90.8954305,110 92,110 Z M108,110 C108.141846,110 108.280242,110.014766 108.413737,110.042846 C107.578541,110.954491 106.94562,111.998879 106.437387,113.246389 C106.163407,112.905553 106,112.471859 106,112 C106,110.895431 106.895431,110 108,110 Z M88,105 C89.1045695,105 90,105.895431 90,107 C90,108.104569 89.1045695,109 88,109 C86.8954305,109 86,108.104569 86,107 C86,105.895431 86.8954305,105 88,105 Z M104,105 C105.104569,105 106,105.895431 106,107 C106,108.104569 105.104569,109 104,109 C102.895431,109 102,108.104569 102,107 C102,105.895431 102.895431,105 104,105 Z M96,105 C97.1045695,105 98,105.895431 98,107 C98,108.104569 97.1045695,109 96,109 C94.8954305,109 94,108.104569 94,107 C94,105.895431 94.8954305,105 96,105 Z M80,105 C81.1045695,105 82,105.895431 82,107 C82,108.063797 81.169455,108.933609 80.1214287,108.996374 C79.9002017,107.638216 79.7027313,106.325622 79.5290376,105.056091 C79.6801453,105.019304 79.8378183,105 80,105 Z M112,105 C112.946774,105 113.739895,105.657867 113.947179,106.541418 C112.58479,107.097755 111.44552,107.67203 110.483736,108.304853 C110.182616,107.954993 110,107.498823 110,107 C110,105.895431 110.895431,105 112,105 Z M120,104 C120.370956,104 120.718324,104.100993 121.016108,104.276983 C120.001192,104.548247 119.079607,104.807442 118.234605,105.060215 C118.570888,104.429136 119.235329,104 120,104 Z M92,100 C93.1045695,100 94,100.895431 94,102 C94,103.104569 93.1045695,104 92,104 C90.8954305,104 90,103.104569 90,102 C90,100.895431 90.8954305,100 92,100 Z M100,100 C101.104569,100 102,100.895431 102,102 C102,103.104569 101.104569,104 100,104 C98.8954305,104 98,103.104569 98,102 C98,100.895431 98.8954305,100 100,100 Z M84,100 C85.1045695,100 86,100.895431 86,102 C86,103.104569 85.1045695,104 84,104 C82.8954305,104 82,103.104569 82,102 C82,100.895431 82.8954305,100 84,100 Z M116,100 C117.104569,100 118,100.895431 118,102 C118,103.104569 117.104569,104 116,104 C114.895431,104 114,103.104569 114,102 C114,100.895431 114.895431,100 116,100 Z M108,100 C109.104569,100 110,100.895431 110,102 C110,103.104569 109.104569,104 108,104 C106.895431,104 106,103.104569 106,102 C106,100.895431 106.895431,100 108,100 Z M124,99 C125.104569,99 126,99.8954305 126,101 C126,102.104569 125.104569,103 124,103 C122.895431,103 122,102.104569 122,101 C122,99.8954305 122.895431,99 124,99 Z M132,99 C133.104569,99 134,99.8954305 134,101 C134,101.06831 133.996575,101.13582 133.989888,101.202367 C133.495762,101.327166 132.997226,101.445266 132.49264,101.556577 L132.49264,101.556577 L130.295343,102.046552 C130.108035,101.742108 130,101.383671 130,101 C130,99.8954305 130.895431,99 132,99 Z M80,96 C81.1045695,96 82,96.8954305 82,98 C82,99.1045695 81.1045695,100 80,100 C79.5991752,100 79.22589,99.8820888 78.9129383,99.6790603 C78.819348,98.6226192 78.745865,97.6021915 78.6934437,96.6159426 L78.6878531,96.4905663 C79.0390564,96.1850063 79.497923,96 80,96 Z M140,99 C140.14009,99 140.276816,99.0144032 140.408778,99.0418096 C139.740258,99.3299575 139.05771,99.601206 138.361127,99.856436 C138.721214,99.3382608 139.321105,99 140,99 Z M96,95 C97.1045695,95 98,95.8954305 98,97 C98,98.1045695 97.1045695,99 96,99 C94.8954305,99 94,98.1045695 94,97 C94,95.8954305 94.8954305,95 96,95 Z M104,95 C105.104569,95 106,95.8954305 106,97 C106,98.1045695 105.104569,99 104,99 C102.895431,99 102,98.1045695 102,97 C102,95.8954305 102.895431,95 104,95 Z M120,95 C121.104569,95 122,95.8954305 122,97 C122,98.1045695 121.104569,99 120,99 C118.895431,99 118,98.1045695 118,97 C118,95.8954305 118.895431,95 120,95 Z M112,95 C113.104569,95 114,95.8954305 114,97 C114,98.1045695 113.104569,99 112,99 C110.895431,99 110,98.1045695 110,97 C110,95.8954305 110.895431,95 112,95 Z M88,95 C89.1045695,95 90,95.8954305 90,97 C90,98.1045695 89.1045695,99 88,99 C86.8954305,99 86,98.1045695 86,97 C86,95.8954305 86.8954305,95 88,95 Z M144,95 C144.808344,95 145.504682,95.4795548 145.820035,96.1696856 C144.715509,96.8837668 143.561104,97.5402813 142.357494,98.1399175 C142.131895,97.8170495 142,97.4239277 142,97 C142,95.8954305 142.895431,95 144,95 Z M128,94 C129.104569,94 130,94.8954305 130,96 C130,97.1045695 129.104569,98 128,98 C126.895431,98 126,97.1045695 126,96 C126,94.8954305 126.895431,94 128,94 Z M136,94 C137.104569,94 138,94.8954305 138,96 C138,97.1045695 137.104569,98 136,98 C134.895431,98 134,97.1045695 134,96 C134,94.8954305 134.895431,94 136,94 Z M84,91 C85.1045695,91 86,91.8954305 86,93 C86,94.1045695 85.1045695,95 84,95 C82.8954305,95 82,94.1045695 82,93 C82,91.8954305 82.8954305,91 84,91 Z M100,90 C101.104569,90 102,90.8954305 102,92 C102,93.1045695 101.104569,94 100,94 C98.8954305,94 98,93.1045695 98,92 C98,90.8954305 98.8954305,90 100,90 Z M116,90 C117.104569,90 118,90.8954305 118,92 C118,93.1045695 117.104569,94 116,94 C114.895431,94 114,93.1045695 114,92 C114,90.8954305 114.895431,90 116,90 Z M140,90 C141.104569,90 142,90.8954305 142,92 C142,93.1045695 141.104569,94 140,94 C138.895431,94 138,93.1045695 138,92 C138,90.8954305 138.895431,90 140,90 Z M124,90 C125.104569,90 126,90.8954305 126,92 C126,93.1045695 125.104569,94 124,94 C122.895431,94 122,93.1045695 122,92 C122,90.8954305 122.895431,90 124,90 Z M92,90 C93.1045695,90 94,90.8954305 94,92 C94,93.1045695 93.1045695,94 92,94 C90.8954305,94 90,93.1045695 90,92 C90,90.8954305 90.8954305,90 92,90 Z M108,90 C109.104569,90 110,90.8954305 110,92 C110,93.1045695 109.104569,94 108,94 C106.895431,94 106,93.1045695 106,92 C106,90.8954305 106.895431,90 108,90 Z M148,90 C149.104569,90 150,90.8954305 150,92 C150,93.1045695 149.104569,94 148,94 C146.895431,94 146,93.1045695 146,92 C146,90.8954305 146.895431,90 148,90 Z M132,89 C133.104569,89 134,89.8954305 134,91 C134,92.1045695 133.104569,93 132,93 C130.895431,93 130,92.1045695 130,91 C130,89.8954305 130.895431,89 132,89 Z M88,86 C89.1045695,86 90,86.8954305 90,88 C90,89.1045695 89.1045695,90 88,90 C86.8954305,90 86,89.1045695 86,88 C86,86.8954305 86.8954305,86 88,86 Z M80,86 C81.1045695,86 82,86.8954305 82,88 C82,89.1045695 81.1045695,90 80,90 C79.5140447,90 79.0685695,89.8266841 78.7220155,89.5384934 C78.8092051,88.3601945 78.9424272,87.2495046 79.1224708,86.2023447 C79.3871927,86.0727777 79.6850973,86 80,86 Z M120,85 C121.104569,85 122,85.8954305 122,87 C122,88.1045695 121.104569,89 120,89 C118.895431,89 118,88.1045695 118,87 C118,85.8954305 118.895431,85 120,85 Z M136,85 C137.104569,85 138,85.8954305 138,87 C138,88.1045695 137.104569,89 136,89 C134.895431,89 134,88.1045695 134,87 C134,85.8954305 134.895431,85 136,85 Z M128,85 C129.104569,85 130,85.8954305 130,87 C130,88.1045695 129.104569,89 128,89 C126.895431,89 126,88.1045695 126,87 C126,85.8954305 126.895431,85 128,85 Z M144,85 C145.104569,85 146,85.8954305 146,87 C146,88.1045695 145.104569,89 144,89 C142.895431,89 142,88.1045695 142,87 C142,85.8954305 142.895431,85 144,85 Z M152,85 C153.104569,85 154,85.8954305 154,87 C154,88.1045695 153.104569,89 152,89 C150.895431,89 150,88.1045695 150,87 C150,85.8954305 150.895431,85 152,85 Z M104,85 C105.104569,85 106,85.8954305 106,87 C106,88.1045695 105.104569,89 104,89 C102.895431,89 102,88.1045695 102,87 C102,85.8954305 102.895431,85 104,85 Z M112,85 C113.104569,85 114,85.8954305 114,87 C114,88.1045695 113.104569,89 112,89 C110.895431,89 110,88.1045695 110,87 C110,85.8954305 110.895431,85 112,85 Z M96,85 C97.1045695,85 98,85.8954305 98,87 C98,88.1045695 97.1045695,89 96,89 C94.8954305,89 94,88.1045695 94,87 C94,85.8954305 94.8954305,85 96,85 Z M84,81 C85.1045695,81 86,81.8954305 86,83 C86,84.1045695 85.1045695,85 84,85 C82.8954305,85 82,84.1045695 82,83 C82,81.8954305 82.8954305,81 84,81 Z M92,81 C93.1045695,81 94,81.8954305 94,83 C94,84.1045695 93.1045695,85 92,85 C90.8954305,85 90,84.1045695 90,83 C90,81.8954305 90.8954305,81 92,81 Z M132,81 C133.104569,81 134,81.8954305 134,83 C134,84.1045695 133.104569,85 132,85 C130.895431,85 130,84.1045695 130,83 C130,81.8954305 130.895431,81 132,81 Z M156,80 C157.104569,80 158,80.8954305 158,82 C158,83.1045695 157.104569,84 156,84 C154.895431,84 154,83.1045695 154,82 C154,80.8954305 154.895431,80 156,80 Z M124,80 C125.104569,80 126,80.8954305 126,82 C126,83.1045695 125.104569,84 124,84 C122.895431,84 122,83.1045695 122,82 C122,80.8954305 122.895431,80 124,80 Z M116,80 C117.104569,80 118,80.8954305 118,82 C118,83.1045695 117.104569,84 116,84 C114.895431,84 114,83.1045695 114,82 C114,80.8954305 114.895431,80 116,80 Z M100,80 C101.104569,80 102,80.8954305 102,82 C102,83.1045695 101.104569,84 100,84 C98.8954305,84 98,83.1045695 98,82 C98,80.8954305 98.8954305,80 100,80 Z M140,80 C141.104569,80 142,80.8954305 142,82 C142,83.1045695 141.104569,84 140,84 C138.895431,84 138,83.1045695 138,82 C138,80.8954305 138.895431,80 140,80 Z M148,80 C149.104569,80 150,80.8954305 150,82 C150,83.1045695 149.104569,84 148,84 C146.895431,84 146,83.1045695 146,82 C146,80.8954305 146.895431,80 148,80 Z M108,80 C109.104569,80 110,80.8954305 110,82 C110,83.1045695 109.104569,84 108,84 C106.895431,84 106,83.1045695 106,82 C106,80.8954305 106.895431,80 108,80 Z M88,76 C89.1045695,76 90,76.8954305 90,78 C90,79.1045695 89.1045695,80 88,80 C86.8954305,80 86,79.1045695 86,78 C86,76.8954305 86.8954305,76 88,76 Z M128,76 C129.104569,76 130,76.8954305 130,78 C130,79.1045695 129.104569,80 128,80 C126.895431,80 126,79.1045695 126,78 C126,76.8954305 126.895431,76 128,76 Z M96,76 C97.1045695,76 98,76.8954305 98,78 C98,79.1045695 97.1045695,80 96,80 C94.8954305,80 94,79.1045695 94,78 C94,76.8954305 94.8954305,76 96,76 Z M135.154947,76.187451 C135.812032,76.2405772 136.461647,76.2888636 137.103802,76.3323046 C137.643721,76.6897293 138,77.303258 138,78 C138,79.1045695 137.104569,80 136,80 C134.895431,80 134,79.1045695 134,78 C134,77.2468844 134.416264,76.5909926 135.031265,76.249852 Z M142.04695,76.5753273 C143.388923,76.6148412 144.69401,76.6302577 145.962294,76.6215136 C145.987681,76.7437633 146,76.8704431 146,77 C146,78.1045695 145.104569,79 144,79 C142.895431,79 142,78.1045695 142,77 C142,76.8995846 142.0074,76.8008976 142.021685,76.7044547 Z M120,75 C121.104569,75 122,75.8954305 122,77 C122,78.1045695 121.104569,79 120,79 C118.895431,79 118,78.1045695 118,77 C118,75.8954305 118.895431,75 120,75 Z M112,75 C113.104569,75 114,75.8954305 114,77 C114,78.1045695 113.104569,79 112,79 C110.895431,79 110,78.1045695 110,77 C110,75.8954305 110.895431,75 112,75 Z M104,75 C105.104569,75 106,75.8954305 106,77 C106,78.1045695 105.104569,79 104,79 C102.895431,79 102,78.1045695 102,77 C102,75.8954305 102.895431,75 104,75 Z M154,77 C154,78.1045695 153.104569,79 152,79 C150.895431,79 150,78.1045695 150,77 C150,76.8278593 150.021748,76.660798 150.062645,76.5014139 C151.365657,76.4335155 152.623174,76.3356044 153.836617,76.2084395 C153.941982,76.4512245 154,76.7188369 154,77 Z M161.11057,75.3364267 L160.999847,75.6668868 C160.608101,76.8088221 160.187206,77.9139798 159.737024,78.9825304 C158.756846,78.8542339 158,78.0155024 158,77 C158,76.4029221 158.261642,75.866954 158.676528,75.500494 C159.474978,75.3483769 160.249181,75.1795036 160.999915,74.9948714 L160.597901,75.0909024 C160.781597,75.1483744 160.953899,75.2316283 161.11057,75.3364267 Z M94,73 C94,74.1045695 93.1045695,75 92,75 C90.8954305,75 90,74.1045695 90,73 C90,72.9295029 90.0036474,72.8598577 90.0107639,72.7912428 C91.1442938,72.436742 92.374929,72.1587974 93.7071392,71.9597977 C93.8933746,72.2625834 94,72.6188398 94,73 Z M98.6190897,71.5904055 C99.5316274,71.5798755 100.480256,71.5968525 101.46583,71.6417205 C101.797758,71.9973483 102,72.4750561 102,73 C102,74.1045695 101.104569,75 100,75 C98.8954305,75 98,74.1045695 98,73 C98,72.4502008 98.2218472,71.9522168 98.5809083,71.5906813 Z M106.001467,72.0154661 C107.25622,72.1607685 108.561133,72.3434402 109.917492,72.5640592 C109.675408,73.3943344 108.908434,74 108,74 C106.945638,74 106.081835,73.1841222 106.005486,72.1492623 Z M114.572366,73.3991729 C115.343272,73.5380548 116.107151,73.6724773 116.864009,73.8024351 C116.602923,73.9296158 116.309681,74 116,74 C115.447715,74 114.947715,73.7761424 114.585786,73.4142136 Z" id="path-1"></path>
    </defs>
    <g id="Clipguard-Off" stroke="none" stroke-width="1" fill="none" fill-rule="evenodd">
        <rect id="Background" fill="#08154F" fill-rule="nonzero" x="0" y="0" width="288" height="288"></rect>
        <path d="M194.342328,227.096991 C195.722635,224.084448 199.283744,222.761259 202.296287,224.141566 L202.296287,224.141566 L227.185138,235.545308 L227.392561,235.645113 C230.257762,237.090952 231.488769,240.556784 230.140562,243.499267 C228.760255,246.511811 225.199146,247.834999 222.186603,246.454692 L222.186603,246.454692 L197.297752,235.05095 L197.090328,234.951145 C194.225127,233.505306 192.99412,230.039475 194.342328,227.096991 Z M199.267299,202.018572 C199.721117,198.736086 202.74999,196.442997 206.032475,196.896816 L206.032475,196.896816 L231.570313,200.427534 L231.792566,200.462439 C234.955612,201.019159 237.135574,203.984827 236.692069,207.192711 C236.238251,210.475196 233.209379,212.768285 229.926893,212.314467 L229.926893,212.314467 L204.389055,208.783748 L204.166803,208.748843 C201.003756,208.192123 198.823795,205.226455 199.267299,202.018572 Z M237.278324,175.932413 C237.721828,179.140297 235.541866,182.105965 232.37882,182.662685 L232.156568,182.69759 L206.61873,186.228308 C203.336244,186.682126 200.307371,184.389038 199.853553,181.106552 C199.410049,177.898668 201.590011,174.933001 204.753057,174.376281 L204.975309,174.341376 L230.513147,170.810657 C233.795633,170.356839 236.824506,172.649927 237.278324,175.932413 Z M230.726816,139.625856 C232.075023,142.56834 230.844017,146.034172 227.978816,147.480011 L227.771392,147.579816 L202.882541,158.983557 C199.869998,160.363865 196.308889,159.040676 194.928582,156.028133 C193.580375,153.085649 194.811381,149.619817 197.676582,148.173978 L197.884006,148.074174 L222.772857,136.670432 C225.7854,135.290125 229.346509,136.613313 230.726816,139.625856 Z" id="Speak" fill="#000000" fill-rule="nonzero"></path>
        <g id="Button" transform="translate(185.800000, 20.800000)" fill-rule="nonzero">
            <path d="M54.7,-2.84217094e-14 C69.4460028,-2.84217094e-14 81.4,11.9539972 81.4,26.7 C81.4,41.4460028 69.4460028,53.4 54.7,53.4 L54.7,53.4 L26.7,53.4 C11.9539972,53.4 1.13686838e-13,41.4460028 1.13686838e-13,26.7 C1.13686838e-13,11.9539972 11.9539972,-2.84217094e-14 26.7,-2.84217094e-14 L26.7,-2.84217094e-14 Z M54.7,4.4 L26.7,4.4 C14.3840501,4.4 4.4,14.3840501 4.4,26.7 C4.4,39.0159499 14.3840501,49 26.7,49 L26.7,49 L54.7,49 C67.0159499,49 77,39.0159499 77,26.7 C77,14.3840501 67.0159499,4.4 54.7,4.4 L54.7,4.4 Z" id="Combined-Shape" fill="#000000"></path>
            <path d="M26.7,4.4 L54.7,4.4 C67.0159499,4.4 77,14.3840501 77,26.7 C77,39.0159499 67.0159499,49 54.7,49 L26.7,49 C14.3840501,49 4.4,39.0159499 4.4,26.7 C4.4,14.3840501 14.3840501,4.4 26.7,4.4 Z" id="Path" fill="#BAB9B9"></path>
            <path d="M54.2,7 C62.0395833,7 68.858008,11.2512312 72.2037448,17.481084 C74.8335521,20.7196364 76.4,24.7814554 76.4,29.2 C76.4,39.8328734 67.3289248,48.4 56.2,48.4 C48.3604167,48.4 41.541992,44.1487688 38.1962552,37.918916 C35.5664479,34.6803636 34,30.6185446 34,26.2 C34,15.5671266 43.0710752,7 54.2,7 Z M54.2,11.4 C45.4466738,11.4 38.4,18.0551919 38.4,26.2 C38.4,34.3448081 45.4466738,41 54.2,41 C62.9533262,41 70,34.3448081 70,26.2 C70,18.0551919 62.9533262,11.4 54.2,11.4 Z" id="Combined-Shape" fill="#000000"></path>
            <path d="M54.2,11.4 C62.9533262,11.4 70,18.0551919 70,26.2 C70,34.3448081 62.9533262,41 54.2,41 C45.4466738,41 38.4,34.3448081 38.4,26.2 C38.4,18.0551919 45.4466738,11.4 54.2,11.4 Z" id="Path" fill="#EBEBEB"></path>
        </g>
        <mask id="mask-2" fill="white">
            <use xlink:href="#path-1"></use>
        </mask>
        <use id="Texture-hair" fill="#000000" fill-rule="nonzero" xlink:href="#path-1"></use>
        <path d="M161.501967,90.8494567 C166.851778,94.8003464 170.918493,100.263086 173.153925,106.604058 L173.341036,107.149705 L184.965981,142.022462 C186.14055,145.54596 184.236367,149.354496 180.712869,150.529065 C180.569529,150.576848 180.42464,150.61978 180.278449,150.657791 L180.058218,150.71111 L166.761,153.693 L172.658156,166.9518 C173.0633,167.86269 172.484177,168.879522 171.546185,169.039666 L171.416111,169.056104 L171.287609,169.061389 C158.721032,169.061389 152.785099,173.897309 152.785099,183.85715 C152.785099,193.846825 158.494809,198.809432 170.548191,199.071701 C171.336221,199.088847 171.967916,199.710357 172.013001,200.482065 L172.01478,200.619715 L171.790513,207.570902 C171.596304,213.590435 166.55907,218.312793 160.539537,218.118584 L160.322682,218.109426 L160.322682,218.109426 L160.106052,218.095955 L156.417526,217.830392 C155.496371,218.049121 154.531286,218.150581 153.539537,218.118584 L153.322682,218.109426 L153.322682,218.109426 L153.106052,218.095955 L129.054953,216.359832 C112.782394,215.185201 99.4122653,203.311653 96.1648274,187.547504 C96.1330414,187.393204 96.1257612,187.23486 96.1432547,187.078295 C100.241894,150.395635 103.189094,128.494542 105.018837,121.197568 L105.073941,120.980917 L105.178914,120.567429 C105.247672,120.292011 105.314253,120.016041 105.380292,119.733309 L105.479146,119.303365 L105.679312,118.39442 L106.224388,115.835587 C107.296818,111.136506 108.853316,109.143248 113.687324,107.18312 L114.00726,107.055305 L114.21331,106.974981 C117.262252,105.798138 121.646679,104.617128 129.164345,102.920049 L129.706674,102.797945 L131.880395,102.314316 C140.10823,100.499266 146.98105,96.7355939 152.534265,91.0116005 C153.057126,90.4726603 153.897938,90.4033752 154.501967,90.8494567 C155.475662,91.5685404 156.406853,92.3377055 157.292235,93.1531321 C158.061763,92.4727891 158.80926,91.7589015 159.534265,91.0116005 C160.057126,90.4726603 160.897938,90.4033752 161.501967,90.8494567 Z M153.737,94.049 L153.354409,94.4172013 C147.629061,99.8339093 140.677078,103.445907 132.526653,105.24388 C123.839099,107.160344 118.922053,108.426461 115.70262,109.619095 L115.70262,109.619095 L115.106343,109.846723 C111.08844,111.428717 110.071185,112.580669 109.208463,116.245351 L109.208463,116.245351 L109.085961,116.786289 L108.486668,119.601413 C108.320624,120.351474 108.159121,121.031787 107.978752,121.730635 L107.978752,121.730635 L107.870928,122.160969 C106.232178,128.887347 103.630964,147.82436 100.090944,178.851127 L100.090944,178.851127 L99.151,187.168 L99.19525,187.374827 C102.295099,201.471648 114.249933,212.084776 128.823989,213.332358 L128.823989,213.332358 L129.270945,213.367617 L153.479079,215.113506 L153.636276,215.120144 C157.999817,215.260926 161.651291,211.837703 161.792073,207.474163 L161.792073,207.474163 L161.968,202.012 L161.342922,201.971985 C149.28858,201.103132 142.930528,195.101299 142.787565,184.233867 L142.787565,184.233867 L142.785099,183.85715 C142.785099,172.832541 149.279067,166.845706 161.695783,166.133451 L161.695783,166.133451 L162.004,166.117 L156.27644,153.240764 C155.90998,152.416845 156.348873,151.469823 157.189572,151.202461 L157.189572,151.202461 L157.31864,151.167554 L172.401521,147.783868 C172.524015,147.756388 172.64504,147.722733 172.764135,147.683032 C174.715812,147.032434 175.770546,144.922874 175.119948,142.971196 L175.119948,142.971196 L163.495003,108.09844 C161.67637,102.642865 158.380288,97.8775578 154.016344,94.275385 L154.016344,94.275385 L153.737,94.049 Z M138.0475,131.3 C141.221757,131.3 143.795,133.873243 143.795,137.0475 C143.795,140.221757 141.221757,142.795 138.0475,142.795 C134.873243,142.795 132.3,140.221757 132.3,137.0475 C132.3,133.873243 134.873243,131.3 138.0475,131.3 Z M99.0583031,68.3053804 L99.9273365,68.3100322 C103.734235,68.3621195 108.076842,68.8303875 113.016799,69.7576519 C135.103246,73.9034332 151.3773,74.4347517 161.838959,71.3516074 L162.24362,71.2296702 C162.969447,71.0060215 163.7227,71.1766484 164.272868,71.6196334 L164.287609,71.5873849 C168.464041,75.7186905 169.610285,79.4249392 167.726339,82.7061308 C165.842393,85.9873225 163.234998,90.0451616 159.904153,94.8796482 L155.312076,92.33459 C149.744091,98.6078071 142.374573,102.755976 133.203524,104.779098 L130.182178,105.453717 C107.601123,110.565764 110.118417,111.802748 107.688458,121.71141 L107.411878,122.813048 C105.536202,130.525397 102.461292,153.676765 98.1871492,192.267152 L98.0572626,193.441283 L96.4446427,187.971144 C86.5235132,154.12551 80.0732681,128.437222 77.0939075,110.90628 L77,110.349552 C73.0126485,86.5293166 74.4170142,68.3826952 99.0583031,68.3053804 Z M81.8019634,78.7668575 C78.0198891,84.6955349 77.6904118,94.4857136 80.2547155,109.804734 L80.4528167,110.969447 C83.0278213,125.877807 88.100279,146.688511 95.6676646,173.373954 L96.619,176.714 L97.3987984,169.992671 C100.425725,144.180744 102.688427,128.233523 104.222702,121.962559 L104.331055,121.531087 C104.469165,120.995974 104.595983,120.469473 104.724285,119.90276 L105.027454,118.505741 C105.150484,117.921587 105.332493,117.05505 105.396591,116.761687 L105.543708,116.118518 C106.750413,111.083678 108.707542,108.668491 114.011906,106.514744 L114.347811,106.380454 C117.514432,105.133641 121.991246,103.919537 129.773423,102.162977 L132.49264,101.556577 C146.704017,98.4215654 156.116565,89.9015899 160.999847,75.6668868 L161.245,74.933 L160.999915,74.9948714 C150.093374,77.6771776 134.233406,77.0334394 113.283842,73.1640975 L112.407998,73.0010085 C95.5486797,69.8363961 86.0664596,72.0819484 81.8019634,78.7668575 Z M151.349162,118.32 C153.657712,118.32 155.529162,120.19145 155.529162,122.5 C155.529162,124.738594 153.769415,126.566177 151.557786,126.674884 L151.349162,126.68 L135.6,126.68 C133.29145,126.68 131.42,124.80855 131.42,122.5 C131.42,120.261406 133.179747,118.433823 135.391376,118.325116 L135.6,118.32 L151.349162,118.32 Z" id="Shadow-with-outline" fill="#000000" fill-rule="nonzero"></path>
        <path d="M153.737,94.049 L154.016344,94.275385 C158.380288,97.8775578 161.67637,102.642865 163.495003,108.09844 L175.119948,142.971196 C175.770546,144.922874 174.715812,147.032434 172.764135,147.683032 C172.64504,147.722733 172.524015,147.756388 172.401521,147.783868 L157.31864,151.167554 L157.189572,151.202461 C156.348873,151.469823 155.90998,152.416845 156.27644,153.240764 L162.004,166.117 L161.695783,166.133451 C149.279067,166.845706 142.785099,172.832541 142.785099,183.85715 L142.787565,184.233867 C142.930528,195.101299 149.28858,201.103132 161.342922,201.971985 L161.968,202.012 L161.792073,207.474163 C161.651291,211.837703 157.999817,215.260926 153.636276,215.120144 L153.479079,215.113506 L129.270945,213.367617 L128.823989,213.332358 C114.249933,212.084776 102.295099,201.471648 99.19525,187.374827 L99.151,187.168 L100.090944,178.851127 C103.630964,147.82436 106.232178,128.887347 107.870928,122.160969 L107.978752,121.730635 C108.159121,121.031787 108.320624,120.351474 108.486668,119.601413 L109.085961,116.786289 L109.208463,116.245351 C110.071185,112.580669 111.08844,111.428717 115.106343,109.846723 L115.70262,109.619095 C118.922053,108.426461 123.839099,107.160344 132.526653,105.24388 C140.677078,103.445907 147.629061,99.8339093 153.354409,94.4172013 L153.737,94.049 Z M98.5809083,71.5906813 C98.2218472,71.9522168 98,72.4502008 98,73 C98,74.1045695 98.8954305,75 100,75 C101.104569,75 102,74.1045695 102,73 C102,72.4750561 101.797758,71.9973483 101.46694,71.640543 C102.898441,71.7069399 104.409114,71.8310902 106.000472,72.0153508 C106.008199,73.1127457 106.900485,74 108,74 C108.908073,74 109.674798,73.394816 109.918852,72.56577 C110.459267,72.652681 111.008257,72.7463547 111.565643,72.8463439 L112.407998,73.0010085 L113.283842,73.1640975 C113.715173,73.2437635 114.144347,73.3220622 114.571365,73.3989926 C114.933466,73.7697123 115.43984,74 116,74 C116.310411,74 116.604306,73.9292836 116.866452,73.8030822 C119.009371,74.170793 121.096442,74.5030039 123.127363,74.7992905 C123.390233,74.927963 123.686704,75 124,75 C124.113406,75 124.224608,74.9905611 124.332862,74.9724262 C128.142256,75.5066581 131.749191,75.9121014 135.155418,76.1874891 C134.472669,76.5053579 134,77.1974801 134,78 C134,79.1045695 134.895431,80 136,80 C137.104569,80 138,79.1045695 138,78 C138,77.3032044 137.643667,76.6896349 137.103284,76.3315759 C138.802753,76.4472487 140.45042,76.5283045 142.045946,76.5752977 C142.015582,76.7122239 142,76.8542923 142,77 C142,78.1045695 142.895431,79 144,79 C145.104569,79 146,78.1045695 146,77 C146,76.8704431 145.987681,76.7437633 145.964151,76.6210682 C147.375978,76.6117538 148.743071,76.572021 150.064618,76.5022213 C150.021787,76.6604976 150,76.8277045 150,77 C150,78.1045695 150.895431,79 152,79 C153.104569,79 154,78.1045695 154,77 C154,76.7184506 153.941823,76.4504894 153.836833,76.2074818 C155.536119,76.0303593 157.149929,75.7947518 158.677512,75.5014757 C158.261642,75.866954 158,76.4029221 158,77 C158,78.0148146 158.755821,78.8530977 159.735246,78.9826311 C156.566909,86.5073361 151.944032,92.2170617 145.819996,96.1706691 C145.504682,95.4795548 144.808344,95 144,95 C142.895431,95 142,95.8954305 142,97 C142,97.4232421 142.131469,97.815778 142.355798,98.138998 C141.72236,98.4563636 141.072481,98.7574191 140.408815,99.0426375 C140.276816,99.0144032 140.14009,99 140,99 C139.321541,99 138.721986,99.3378258 138.360371,99.8544398 C136.961336,100.369364 135.503789,100.817878 133.989135,101.202041 C133.996563,101.136065 134,101.068434 134,101 C134,99.8954305 133.104569,99 132,99 C130.895431,99 130,99.8954305 130,101 C130,101.383671 130.108035,101.742108 130.295343,102.046552 L129.773423,102.162977 C126.232081,102.962314 123.375207,103.64932 121.01479,104.278194 C120.718628,104.101081 120.371119,104 120,104 C119.235329,104 118.570888,104.429136 118.234372,105.059714 C116.890079,105.462351 115.739483,105.848333 114.722875,106.235272 L114.347811,106.380454 L114.011906,106.514744 L113.946138,106.541532 L113.946138,106.541532 C113.740413,105.658298 112.947083,105 112,105 C110.895431,105 110,105.895431 110,107 C110,107.498392 110.182301,107.954206 110.483858,108.304397 C109.678196,108.834769 108.996439,109.406505 108.413188,110.043267 C108.279557,110.014693 108.141494,110 108,110 C106.895431,110 106,110.895431 106,112 C106,112.471676 106.16328,112.905216 106.436401,113.24718 C106.138979,113.978509 105.883625,114.781035 105.655544,115.667961 L105.616191,115.822681 L105.52146,115.701805 C105.15463,115.272297 104.609114,115 104,115 C102.895431,115 102,115.895431 102,117 C102,118.104569 102.895431,119 104,119 C104.354383,119 104.687238,118.90783 104.975901,118.746154 L104.724285,119.90276 C104.63875,120.280569 104.553875,120.640505 104.465874,120.997036 L104.331055,121.531087 L104.222702,121.962559 C104.076797,122.558911 103.924304,123.24277 103.765193,124.014298 C102.77075,124.130443 102,124.975213 102,126 C102,126.76396 102.428339,127.427877 103.057956,127.764689 C102.520325,130.847611 101.920183,134.740341 101.257907,139.446122 C100.914949,139.166968 100.476973,139 100,139 C98.8954305,139 98,139.895431 98,141 C98,142.104569 98.8954305,143 100,143 C100.280391,143 100.547305,142.9423 100.789517,142.838127 C100.566447,144.473958 100.337262,146.196259 100.101574,148.003274 L100,148 C98.8954305,148 98,148.895431 98,150 C98,150.964831 98.6832001,151.770091 99.5922144,151.958396 C99.3315544,154.011499 99.063045,156.162143 98.7870848,158.409391 C98.3082632,158.775811 98,159.351906 98,160 C98,160.473519 98.1645583,160.908602 98.4396068,161.251184 C98.294858,162.45159 98.1471119,163.679675 97.9973686,164.933588 C97.9638576,163.859736 97.0823298,163 96,163 C94.8954305,163 94,163.895431 94,165 C94,166.104569 94.8954305,167 96,167 C96.9163809,167 97.6888154,166.383692 97.9254193,165.54296 C97.7954421,166.629251 97.6643202,167.735354 97.5317976,168.860797 L97.3987984,169.992671 L97.0185139,173.278407 C96.7201954,173.101538 96.3719554,173 96,173 C95.8539412,173 95.7115393,173.015657 95.5743809,173.045383 C94.4915061,169.222783 93.4598585,165.521158 92.4795995,161.940602 C93.352703,161.72709 94,160.939137 94,160 C94,158.895431 93.1045695,158 92,158 C91.8020588,158 91.6108338,158.028755 91.4302744,158.082316 C90.3874154,154.218495 89.4074805,150.504027 88.4904174,146.937796 C89.3581685,146.72042 90,145.935164 90,145 C90,143.895431 89.1045695,143 88,143 C87.8284269,143 87.6618998,143.021604 87.5029908,143.062241 C86.5966253,139.460477 85.7575043,136.019091 84.9866631,132.738826 C85.5920195,132.39588 86,131.745584 86,131 C86,129.895431 85.1045695,129 84,129 L84.1225336,129.003446 C83.7080276,127.181721 83.3162795,125.413711 82.9472916,123.69944 C83.2529633,123.890475 83.6136911,124 84,124 C85.1045695,124 86,123.104569 86,122 C86,120.895431 85.1045695,120 84,120 C83.3141191,120 82.7088774,120.345258 82.3485894,120.871458 C82.1432814,119.880369 81.945574,118.908285 81.7560435,117.955516 C81.9119995,117.671994 82,117.346274 82,117 C82,116.377517 81.7156193,115.821456 81.2696897,115.454646 C81.0328128,114.214701 80.8113317,113.009802 80.6048612,111.840111 L80.4528167,110.969447 L80.2547155,109.804734 C80.2092363,109.533043 80.1646673,109.263092 80.1210116,108.99487 C81.1695533,108.933507 82,108.063734 82,107 C82,105.895431 81.1045695,105 80,105 C79.8378183,105 79.6801453,105.019304 79.5291534,105.05574 C79.2709235,103.169427 79.0654043,101.37877 78.9136653,99.6791723 C79.2274229,99.8825725 79.5999981,100 80,100 C81.1045695,100 82,99.1045695 82,98 C82,96.8954305 81.1045695,96 80,96 C79.497923,96 79.0390564,96.1850063 78.6878531,96.4905663 L78.6674976,96.0934659 C78.5575031,93.7084962 78.5740934,91.5273933 78.7219181,89.536284 C79.067725,89.8263554 79.5135841,90 80,90 C81.1045695,90 82,89.1045695 82,88 C82,86.8954305 81.1045695,86 80,86 C79.6850973,86 79.3871927,86.0727777 79.1221885,86.202431 C79.5784457,83.5492514 80.3357187,81.3025412 81.4096018,79.4174961 C81.6347742,79.1948482 81.8064975,78.9187473 81.9052629,78.610021 C83.6821709,75.9037814 86.335463,73.9425236 90.0118995,72.7913748 C90.0036685,72.8594555 90,72.9292994 90,73 C90,74.1045695 90.8954305,75 92,75 C93.1045695,75 94,74.1045695 94,73 C94,72.6188398 93.8933746,72.2625834 93.7083239,71.9594308 C95.09321,71.7527036 96.5903983,71.6310469 98.2025915,71.5971728 L98.5809083,71.5906813 Z M96,153 C94.8954305,153 94,153.895431 94,155 C94,156.104569 94.8954305,157 96,157 C97.1045695,157 98,156.104569 98,155 C98,153.895431 97.1045695,153 96,153 Z M92,148 C90.8954305,148 90,148.895431 90,150 C90,151.104569 90.8954305,152 92,152 C93.1045695,152 94,151.104569 94,150 C94,148.895431 93.1045695,148 92,148 Z M96,143 C94.8954305,143 94,143.895431 94,145 C94,146.104569 94.8954305,147 96,147 C97.1045695,147 98,146.104569 98,145 C98,143.895431 97.1045695,143 96,143 Z M138.0475,131.3 C134.873243,131.3 132.3,133.873243 132.3,137.0475 C132.3,140.221757 134.873243,142.795 138.0475,142.795 C141.221757,142.795 143.795,140.221757 143.795,137.0475 C143.795,133.873243 141.221757,131.3 138.0475,131.3 Z M92,138 C90.8954305,138 90,138.895431 90,140 C90,141.104569 90.8954305,142 92,142 C93.1045695,142 94,141.104569 94,140 C94,138.895431 93.1045695,138 92,138 Z M88,134 C86.8954305,134 86,134.895431 86,136 C86,137.104569 86.8954305,138 88,138 C89.1045695,138 90,137.104569 90,136 C90,134.895431 89.1045695,134 88,134 Z M96,134 C94.8954305,134 94,134.895431 94,136 C94,137.104569 94.8954305,138 96,138 C97.1045695,138 98,137.104569 98,136 C98,134.895431 97.1045695,134 96,134 Z M92,130 C90.8954305,130 90,130.895431 90,132 C90,133.104569 90.8954305,134 92,134 C93.1045695,134 94,133.104569 94,132 C94,130.895431 93.1045695,130 92,130 Z M100,129 C98.8954305,129 98,129.895431 98,131 C98,132.104569 98.8954305,133 100,133 C101.104569,133 102,132.104569 102,131 C102,129.895431 101.104569,129 100,129 Z M88,125 C86.8954305,125 86,125.895431 86,127 C86,128.104569 86.8954305,129 88,129 C89.1045695,129 90,128.104569 90,127 C90,125.895431 89.1045695,125 88,125 Z M96,125 C94.8954305,125 94,125.895431 94,127 C94,128.104569 94.8954305,129 96,129 C97.1045695,129 98,128.104569 98,127 C98,125.895431 97.1045695,125 96,125 Z M151.349162,118.32 L135.6,118.32 L135.391376,118.325116 C133.179747,118.433823 131.42,120.261406 131.42,122.5 C131.42,124.738594 133.179747,126.566177 135.391376,126.674884 L135.6,126.68 L151.349162,126.68 L151.557786,126.674884 C153.769415,126.566177 155.529162,124.738594 155.529162,122.5 C155.529162,120.19145 153.657712,118.32 151.349162,118.32 Z M100,120 C98.8954305,120 98,120.895431 98,122 C98,123.104569 98.8954305,124 100,124 C101.104569,124 102,123.104569 102,122 C102,120.895431 101.104569,120 100,120 Z M92,120 C90.8954305,120 90,120.895431 90,122 C90,123.104569 90.8954305,124 92,124 C93.1045695,124 94,123.104569 94,122 C94,120.895431 93.1045695,120 92,120 Z M96,115 C94.8954305,115 94,115.895431 94,117 C94,118.104569 94.8954305,119 96,119 C97.1045695,119 98,118.104569 98,117 C98,115.895431 97.1045695,115 96,115 Z M88,115 C86.8954305,115 86,115.895431 86,117 C86,118.104569 86.8954305,119 88,119 C89.1045695,119 90,118.104569 90,117 C90,115.895431 89.1045695,115 88,115 Z M84,110 C82.8954305,110 82,110.895431 82,112 C82,113.104569 82.8954305,114 84,114 C85.1045695,114 86,113.104569 86,112 C86,110.895431 85.1045695,110 84,110 Z M92,110 C90.8954305,110 90,110.895431 90,112 C90,113.104569 90.8954305,114 92,114 C93.1045695,114 94,113.104569 94,112 C94,110.895431 93.1045695,110 92,110 Z M100,110 C98.8954305,110 98,110.895431 98,112 C98,113.104569 98.8954305,114 100,114 C101.104569,114 102,113.104569 102,112 C102,110.895431 101.104569,110 100,110 Z M104,105 C102.895431,105 102,105.895431 102,107 C102,108.104569 102.895431,109 104,109 C105.104569,109 106,108.104569 106,107 C106,105.895431 105.104569,105 104,105 Z M96,105 C94.8954305,105 94,105.895431 94,107 C94,108.104569 94.8954305,109 96,109 C97.1045695,109 98,108.104569 98,107 C98,105.895431 97.1045695,105 96,105 Z M88,105 C86.8954305,105 86,105.895431 86,107 C86,108.104569 86.8954305,109 88,109 C89.1045695,109 90,108.104569 90,107 C90,105.895431 89.1045695,105 88,105 Z M92,100 C90.8954305,100 90,100.895431 90,102 C90,103.104569 90.8954305,104 92,104 C93.1045695,104 94,103.104569 94,102 C94,100.895431 93.1045695,100 92,100 Z M84,100 C82.8954305,100 82,100.895431 82,102 C82,103.104569 82.8954305,104 84,104 C85.1045695,104 86,103.104569 86,102 C86,100.895431 85.1045695,100 84,100 Z M116,100 C114.895431,100 114,100.895431 114,102 C114,103.104569 114.895431,104 116,104 C117.104569,104 118,103.104569 118,102 C118,100.895431 117.104569,100 116,100 Z M108,100 C106.895431,100 106,100.895431 106,102 C106,103.104569 106.895431,104 108,104 C109.104569,104 110,103.104569 110,102 C110,100.895431 109.104569,100 108,100 Z M100,100 C98.8954305,100 98,100.895431 98,102 C98,103.104569 98.8954305,104 100,104 C101.104569,104 102,103.104569 102,102 C102,100.895431 101.104569,100 100,100 Z M124,99 C122.895431,99 122,99.8954305 122,101 C122,102.104569 122.895431,103 124,103 C125.104569,103 126,102.104569 126,101 C126,99.8954305 125.104569,99 124,99 Z M120,95 C118.895431,95 118,95.8954305 118,97 C118,98.1045695 118.895431,99 120,99 C121.104569,99 122,98.1045695 122,97 C122,95.8954305 121.104569,95 120,95 Z M112,95 C110.895431,95 110,95.8954305 110,97 C110,98.1045695 110.895431,99 112,99 C113.104569,99 114,98.1045695 114,97 C114,95.8954305 113.104569,95 112,95 Z M96,95 C94.8954305,95 94,95.8954305 94,97 C94,98.1045695 94.8954305,99 96,99 C97.1045695,99 98,98.1045695 98,97 C98,95.8954305 97.1045695,95 96,95 Z M104,95 C102.895431,95 102,95.8954305 102,97 C102,98.1045695 102.895431,99 104,99 C105.104569,99 106,98.1045695 106,97 C106,95.8954305 105.104569,95 104,95 Z M88,95 C86.8954305,95 86,95.8954305 86,97 C86,98.1045695 86.8954305,99 88,99 C89.1045695,99 90,98.1045695 90,97 C90,95.8954305 89.1045695,95 88,95 Z M136,94 C134.895431,94 134,94.8954305 134,96 C134,97.1045695 134.895431,98 136,98 C137.104569,98 138,97.1045695 138,96 C138,94.8954305 137.104569,94 136,94 Z M128,94 C126.895431,94 126,94.8954305 126,96 C126,97.1045695 126.895431,98 128,98 C129.104569,98 130,97.1045695 130,96 C130,94.8954305 129.104569,94 128,94 Z M84,91 C82.8954305,91 82,91.8954305 82,93 C82,94.1045695 82.8954305,95 84,95 C85.1045695,95 86,94.1045695 86,93 C86,91.8954305 85.1045695,91 84,91 Z M148,90 C146.895431,90 146,90.8954305 146,92 C146,93.1045695 146.895431,94 148,94 C149.104569,94 150,93.1045695 150,92 C150,90.8954305 149.104569,90 148,90 Z M108,90 C106.895431,90 106,90.8954305 106,92 C106,93.1045695 106.895431,94 108,94 C109.104569,94 110,93.1045695 110,92 C110,90.8954305 109.104569,90 108,90 Z M92,90 C90.8954305,90 90,90.8954305 90,92 C90,93.1045695 90.8954305,94 92,94 C93.1045695,94 94,93.1045695 94,92 C94,90.8954305 93.1045695,90 92,90 Z M124,90 C122.895431,90 122,90.8954305 122,92 C122,93.1045695 122.895431,94 124,94 C125.104569,94 126,93.1045695 126,92 C126,90.8954305 125.104569,90 124,90 Z M140,90 C138.895431,90 138,90.8954305 138,92 C138,93.1045695 138.895431,94 140,94 C141.104569,94 142,93.1045695 142,92 C142,90.8954305 141.104569,90 140,90 Z M116,90 C114.895431,90 114,90.8954305 114,92 C114,93.1045695 114.895431,94 116,94 C117.104569,94 118,93.1045695 118,92 C118,90.8954305 117.104569,90 116,90 Z M100,90 C98.8954305,90 98,90.8954305 98,92 C98,93.1045695 98.8954305,94 100,94 C101.104569,94 102,93.1045695 102,92 C102,90.8954305 101.104569,90 100,90 Z M132,89 C130.895431,89 130,89.8954305 130,91 C130,92.1045695 130.895431,93 132,93 C133.104569,93 134,92.1045695 134,91 C134,89.8954305 133.104569,89 132,89 Z M88,86 C86.8954305,86 86,86.8954305 86,88 C86,89.1045695 86.8954305,90 88,90 C89.1045695,90 90,89.1045695 90,88 C90,86.8954305 89.1045695,86 88,86 Z M112,85 C110.895431,85 110,85.8954305 110,87 C110,88.1045695 110.895431,89 112,89 C113.104569,89 114,88.1045695 114,87 C114,85.8954305 113.104569,85 112,85 Z M96,85 C94.8954305,85 94,85.8954305 94,87 C94,88.1045695 94.8954305,89 96,89 C97.1045695,89 98,88.1045695 98,87 C98,85.8954305 97.1045695,85 96,85 Z M136,85 C134.895431,85 134,85.8954305 134,87 C134,88.1045695 134.895431,89 136,89 C137.104569,89 138,88.1045695 138,87 C138,85.8954305 137.104569,85 136,85 Z M120,85 C118.895431,85 118,85.8954305 118,87 C118,88.1045695 118.895431,89 120,89 C121.104569,89 122,88.1045695 122,87 C122,85.8954305 121.104569,85 120,85 Z M128,85 C126.895431,85 126,85.8954305 126,87 C126,88.1045695 126.895431,89 128,89 C129.104569,89 130,88.1045695 130,87 C130,85.8954305 129.104569,85 128,85 Z M144,85 C142.895431,85 142,85.8954305 142,87 C142,88.1045695 142.895431,89 144,89 C145.104569,89 146,88.1045695 146,87 C146,85.8954305 145.104569,85 144,85 Z M152,85 C150.895431,85 150,85.8954305 150,87 C150,88.1045695 150.895431,89 152,89 C153.104569,89 154,88.1045695 154,87 C154,85.8954305 153.104569,85 152,85 Z M104,85 C102.895431,85 102,85.8954305 102,87 C102,88.1045695 102.895431,89 104,89 C105.104569,89 106,88.1045695 106,87 C106,85.8954305 105.104569,85 104,85 Z M132,81 C130.895431,81 130,81.8954305 130,83 C130,84.1045695 130.895431,85 132,85 C133.104569,85 134,84.1045695 134,83 C134,81.8954305 133.104569,81 132,81 Z M92,81 C90.8954305,81 90,81.8954305 90,83 C90,84.1045695 90.8954305,85 92,85 C93.1045695,85 94,84.1045695 94,83 C94,81.8954305 93.1045695,81 92,81 Z M84,81 C82.8954305,81 82,81.8954305 82,83 C82,84.1045695 82.8954305,85 84,85 C85.1045695,85 86,84.1045695 86,83 C86,81.8954305 85.1045695,81 84,81 Z M108,80 C106.895431,80 106,80.8954305 106,82 C106,83.1045695 106.895431,84 108,84 C109.104569,84 110,83.1045695 110,82 C110,80.8954305 109.104569,80 108,80 Z M148,80 C146.895431,80 146,80.8954305 146,82 C146,83.1045695 146.895431,84 148,84 C149.104569,84 150,83.1045695 150,82 C150,80.8954305 149.104569,80 148,80 Z M140,80 C138.895431,80 138,80.8954305 138,82 C138,83.1045695 138.895431,84 140,84 C141.104569,84 142,83.1045695 142,82 C142,80.8954305 141.104569,80 140,80 Z M100,80 C98.8954305,80 98,80.8954305 98,82 C98,83.1045695 98.8954305,84 100,84 C101.104569,84 102,83.1045695 102,82 C102,80.8954305 101.104569,80 100,80 Z M116,80 C114.895431,80 114,80.8954305 114,82 C114,83.1045695 114.895431,84 116,84 C117.104569,84 118,83.1045695 118,82 C118,80.8954305 117.104569,80 116,80 Z M124,80 C122.895431,80 122,80.8954305 122,82 C122,83.1045695 122.895431,84 124,84 C125.104569,84 126,83.1045695 126,82 C126,80.8954305 125.104569,80 124,80 Z M156,80 C154.895431,80 154,80.8954305 154,82 C154,83.1045695 154.895431,84 156,84 C157.104569,84 158,83.1045695 158,82 C158,80.8954305 157.104569,80 156,80 Z M88,76 C86.8954305,76 86,76.8954305 86,78 C86,79.1045695 86.8954305,80 88,80 C89.1045695,80 90,79.1045695 90,78 C90,76.8954305 89.1045695,76 88,76 Z M96,76 C94.8954305,76 94,76.8954305 94,78 C94,79.1045695 94.8954305,80 96,80 C97.1045695,80 98,79.1045695 98,78 C98,76.8954305 97.1045695,76 96,76 Z M128,76 C126.895431,76 126,76.8954305 126,78 C126,79.1045695 126.895431,80 128,80 C129.104569,80 130,79.1045695 130,78 C130,76.8954305 129.104569,76 128,76 Z M120,75 C118.895431,75 118,75.8954305 118,77 C118,78.1045695 118.895431,79 120,79 C121.104569,79 122,78.1045695 122,77 C122,75.8954305 121.104569,75 120,75 Z M112,75 C110.895431,75 110,75.8954305 110,77 C110,78.1045695 110.895431,79 112,79 C113.104569,79 114,78.1045695 114,77 C114,75.8954305 113.104569,75 112,75 Z M104,75 C102.895431,75 102,75.8954305 102,77 C102,78.1045695 102.895431,79 104,79 C105.104569,79 106,78.1045695 106,77 C106,75.8954305 105.104569,75 104,75 Z M161.245,74.933 L161.110384,75.3363019 C160.953763,75.2315622 160.781524,75.1483516 160.597901,75.0909024 L160.999915,74.9948714 L161.245,74.933 Z" id="Icon-fill" fill-opacity="0.3" fill="#FFFFFF" fill-rule="nonzero"></path>
        <path d="M125.698648,114.45293 C126.553071,114.136112 127.50255,114.571926 127.819369,115.426349 C128.136188,116.280772 127.700374,117.230251 126.845951,117.54707 L123.315761,118.836804 C123.218726,118.872981 123.136072,118.904081 123.071449,118.928801 L122.629195,119.101764 C116.764272,121.449075 115.138507,124.369222 113.638315,136.907854 C113.530058,137.812671 112.708799,138.45841 111.803983,138.350153 C110.899166,138.241895 110.253427,137.420637 110.361685,136.51582 L110.477918,135.569462 C112.101787,122.697016 114.420335,118.842522 121.381095,116.046965 L121.892424,115.84661 C122.605774,115.573733 125.295237,114.602515 125.698648,114.45293 Z" id="Highlight" fill="#FFFFFF" fill-rule="nonzero" opacity="0.3"></path>
    </g>
</svg>