<?xml version="1.0" encoding="UTF-8"?>
<svg width="288px" height="288px" viewBox="0 0 288 288" version="1.1" xmlns="http://www.w3.org/2000/svg" xmlns:xlink="http://www.w3.org/1999/xlink">
    <title>Set Gain</title>
    <g id="Set-Gain" stroke="none" stroke-width="1" fill="none" fill-rule="evenodd">
        <rect id="Background" fill="#1652FF" fill-rule="nonzero" x="0" y="0" width="288" height="288"></rect>
        <path d="M117,72.0612245 L117.505771,72.0775031 C121.434756,72.3312181 124.559696,75.5196759 124.688196,79.4616669 L124.692308,79.7142857 L124.692308,177.673469 L124.675946,178.17666 C124.420929,182.085599 121.216121,185.194595 117.253914,185.32244 L117,185.326531 L103.153846,185.326531 L102.877306,185.351191 C102.204471,185.472691 101.684091,186.029552 101.621672,186.717826 L101.615385,186.857143 L101.615385,205.22449 L101.640171,205.499619 C101.762294,206.169021 102.322011,206.686746 103.013815,206.748847 L103.153846,206.755102 L124.692308,206.755102 L125.051142,206.775697 C126.581415,206.952529 127.769231,208.246421 127.769231,209.816327 C127.769231,211.446613 126.488287,212.779246 124.8731,212.872354 L124.692308,212.877551 L72.3846154,212.877551 L72.0257812,212.856956 C70.4955083,212.680124 69.3076923,211.386232 69.3076923,209.816327 C69.3076923,208.18604 70.5886359,206.853407 72.2038228,206.760299 L72.3846154,206.755102 L93.9230769,206.755102 L94.1996173,206.730442 C94.8724516,206.608942 95.392832,206.052081 95.4552513,205.363807 L95.4615385,205.22449 L95.4615385,186.857143 L95.4367518,186.582013 C95.3146288,185.912612 94.7549119,185.394887 94.0631083,185.332786 L93.9230769,185.326531 L80.0769231,185.326531 L79.5711517,185.310252 C75.6421675,185.056537 72.5172276,181.868079 72.388727,177.926088 L72.3846154,177.673469 L72.3846154,79.7142857 L72.4009775,79.2110948 C72.6559936,75.3021565 75.8608024,72.1931601 79.8230088,72.0653152 L80.0769231,72.0612245 L117,72.0612245 Z M98.5384615,165.428571 C95.1397862,165.428571 92.3846154,168.169685 92.3846154,171.55102 C92.3846154,174.932356 95.1397862,177.673469 98.5384615,177.673469 C101.937137,177.673469 104.692308,174.932356 104.692308,171.55102 C104.692308,168.169685 101.937137,165.428571 98.5384615,165.428571 Z M64.6923077,142.469388 L64.9688481,142.494048 C65.6416824,142.615548 66.1620628,143.172409 66.224482,143.860683 L66.2307692,144 L66.2307692,156.244898 L66.2059826,156.520027 C66.0838596,157.189429 65.5241427,157.707154 64.8323391,157.769255 L64.6923077,157.77551 L61.6153846,157.77551 L61.3388442,157.75085 C60.66601,157.62935 60.1456296,157.072489 60.0832103,156.384215 L60.0769231,156.244898 L60.0769231,144 L60.1017098,143.724871 C60.2238327,143.055469 60.7835496,142.537744 61.4753533,142.475643 L61.6153846,142.469388 L64.6923077,142.469388 Z M135.461538,142.469388 L135.738079,142.494048 C136.410913,142.615548 136.931294,143.172409 136.993713,143.860683 L137,144 L137,156.244898 L136.975213,156.520027 C136.85309,157.189429 136.293373,157.707154 135.60157,157.769255 L135.461538,157.77551 L132.384615,157.77551 L132.108075,157.75085 C131.435241,157.62935 130.91486,157.072489 130.852441,156.384215 L130.846154,156.244898 L130.846154,144 L130.870941,143.724871 C130.993063,143.055469 131.55278,142.537744 132.244584,142.475643 L132.384615,142.469388 L135.461538,142.469388 Z" id="Icon-fill" fill="#FFFFFF" fill-rule="nonzero" opacity="0.7"></path>
        <path d="M117,69 C119.981089,69 122.679271,70.2050904 124.629233,72.1523323 L124.535451,72.0598156 L129.307692,72.0612245 C135.057118,72.0612245 139.754235,76.5437069 140.060988,82.1876473 L140.076923,82.7755102 L140.076923,147.061224 C140.076923,144.6744 141.907348,142.712912 144.247815,142.490408 L144.692308,142.469388 L147.769231,142.469388 C150.168296,142.469388 152.139842,144.290474 152.363487,146.619 L152.384615,147.061224 L152.384615,159.306122 C152.384615,161.692947 150.554191,163.654435 148.213723,163.876939 L147.769231,163.897959 L144.692308,163.897959 C142.293243,163.897959 140.321696,162.076873 140.098051,159.748347 L140.076923,159.306122 L140.076923,180.734694 C140.076923,186.454786 135.571454,191.127938 129.89857,191.433126 L129.307692,191.44898 L117,191.44898 L116.999792,203.692918 L104.692308,203.693878 L124.692308,203.693878 C126.889752,203.693878 128.818187,204.839769 129.906857,206.56371 L130.025,206.759 L130.023026,206.755355 L137,206.755102 C140.081981,206.755102 142.634795,209.009173 143.083786,211.950691 L143.136967,212.420625 L143.153846,212.877551 C143.153846,216.105189 140.643453,218.749485 137.459269,218.983207 L137,219 L84.6923077,219 C82.4145555,219 80.4258348,217.768823 79.3617922,215.938871 L72.3846154,215.938776 C68.98594,215.938776 66.2307692,213.197662 66.2307692,209.816327 C66.2307692,206.588688 68.7411624,203.944392 71.9253466,203.710671 L72.3846154,203.693878 L92.3846154,203.693878 L92.3846154,191.44898 C89.4502662,191.44898 86.7900226,190.281382 84.847652,188.38769 L80.0769231,188.387755 C74.5257533,188.387755 69.9555705,184.209079 69.3708847,178.840909 L69.3236273,178.261332 L69.3076923,177.673469 L69.3076923,156.244898 C69.3076923,158.631723 67.4772674,160.59321 65.1368,160.815715 L64.6923077,160.836735 L61.6153846,160.836735 C59.2163196,160.836735 57.2447733,159.015649 57.0211279,156.687122 L57,156.244898 L57,144 C57,141.613175 58.8304249,139.651688 61.1708923,139.429183 L61.6153846,139.408163 L64.6923077,139.408163 C67.0913727,139.408163 69.062919,141.229249 69.2865644,143.557775 L69.3076923,144 L69.3076923,79.7142857 C69.3076923,73.9941937 73.8131618,69.3210415 79.4860455,69.0158537 L80.0769231,69 L117,69 Z M124.692,153.183 L72.384,153.183 L72.3846154,177.673469 C72.3846154,181.731072 75.5585721,185.051139 79.5711517,185.310252 L80.0769231,185.326531 L93.9230769,185.326531 C94.6783381,185.326531 95.3064873,185.867985 95.4367518,186.582013 L95.4615385,186.857143 L95.4615385,205.22449 C95.4615385,205.975898 94.9173072,206.600842 94.1996173,206.730442 L93.9230769,206.755102 L72.3846154,206.755102 C70.6852777,206.755102 69.3076923,208.125659 69.3076923,209.816327 C69.3076923,211.386232 70.4955083,212.680124 72.0257812,212.856956 L72.3846154,212.877551 L124.692308,212.877551 C126.391645,212.877551 127.769231,211.506994 127.769231,209.816327 C127.769231,208.246421 126.581415,206.952529 125.051142,206.775697 L124.692308,206.755102 L103.153846,206.755102 C102.398585,206.755102 101.770436,206.213647 101.640171,205.499619 L101.615385,205.22449 L101.615385,186.857143 C101.615385,186.105735 102.159616,185.480791 102.877306,185.351191 L103.153846,185.326531 L117,185.326531 C121.07841,185.326531 124.415504,182.168768 124.675946,178.17666 L124.692308,177.673469 L124.692,153.183 Z M98.5384615,165.428571 C101.937137,165.428571 104.692308,168.169685 104.692308,171.55102 C104.692308,174.932356 101.937137,177.673469 98.5384615,177.673469 C95.1397862,177.673469 92.3846154,174.932356 92.3846154,171.55102 C92.3846154,168.169685 95.1397862,165.428571 98.5384615,165.428571 Z M194.650905,113.477831 C196.149689,114.053375 197.351459,115.203854 197.993734,116.666786 L198.101215,116.928141 L199.798534,121.348701 C201.384613,119.348537 204.141855,118.514339 206.650905,119.477831 C208.149689,120.053375 209.351459,121.203854 209.993734,122.666786 L210.101215,122.928141 L212.860566,130.114429 L216.515997,130.307264 C219.610021,130.469801 222.03311,132.948713 222.192984,135.97515 L228.515997,136.307264 C231.674727,136.4732 234.134165,139.053409 234.20003,142.16573 L234.200641,142.388918 L234.192974,142.613764 C234.108749,144.217044 233.385946,145.715513 232.193088,146.778424 L231.977739,146.961407 L221.433,155.502 L224.943917,168.609283 C225.76174,171.662958 224.070207,174.797527 221.133646,175.82374 L220.916572,175.895035 L220.700362,175.957223 C219.149524,176.372562 217.501037,176.148188 216.121536,175.34217 L215.880962,175.193905 L208.028519,170.096569 C206.685925,170.295771 205.310407,170.034007 204.13068,169.347502 L203.880962,169.193905 L203.119566,168.699429 L193.119038,175.193905 C190.477019,176.909185 186.988715,176.279776 185.100502,173.825991 L184.954802,173.62849 L184.819401,173.428683 C183.945155,172.082096 183.649137,170.444956 183.989416,168.883899 L184.056083,168.609283 L184.484566,167.008429 L181.119038,169.193905 C178.477019,170.909185 174.988715,170.279776 173.100502,167.825991 L172.954802,167.62849 L172.819401,167.428683 C171.945155,166.082096 171.649137,164.444956 171.989416,162.883899 L172.056083,162.609283 L175.566,149.502 L165.022261,140.961407 C162.577729,138.98136 162.096429,135.475925 163.838458,132.922714 L163.984581,132.717833 L164.136359,132.522499 C165.146883,131.274924 166.612421,130.48749 168.202226,130.328721 L168.484003,130.307264 L182.034,129.595 L186.898785,116.928141 C188.086697,113.834675 191.55744,112.289919 194.650905,113.477831 Z M190.694576,118.218324 L190.632928,118.362078 L184.837649,133.453679 L168.693844,134.301756 C168.12798,134.331482 167.601285,134.599847 167.244629,135.040167 C166.584156,135.855576 166.670453,137.032964 167.41664,137.744741 L167.53993,137.853137 L180.102056,148.028336 L175.919915,163.644078 C175.773325,164.191432 175.865797,164.775278 176.174354,165.250544 C176.745757,166.130667 177.892186,166.412427 178.799711,165.922712 L178.9409,165.838952 L191.410931,157.743027 C192.025989,157.343713 192.80576,157.31519 193.444348,157.65746 L193.589069,157.743027 L206.0591,165.838952 C206.534366,166.147509 207.118212,166.239981 207.665567,166.093391 C208.684036,165.820629 209.307367,164.809061 209.1134,163.789678 L209.080085,163.644078 L204.897944,148.028336 L217.46007,137.853137 C217.90039,137.496481 218.168755,136.969786 218.198482,136.403922 C218.253794,135.351012 217.484355,134.445597 216.454925,134.315064 L216.306156,134.301756 L200.162351,133.453679 L194.367072,118.362078 C194.163939,117.833095 193.745951,117.415108 193.216968,117.211975 C192.234916,116.83486 191.138796,117.283948 190.694576,118.218324 Z M64.6923077,142.469388 L61.6153846,142.469388 C60.8601234,142.469388 60.2319742,143.010842 60.1017098,143.724871 L60.0769231,144 L60.0769231,156.244898 C60.0769231,156.996306 60.6211543,157.62125 61.3388442,157.75085 L61.6153846,157.77551 L64.6923077,157.77551 C65.4475689,157.77551 66.0757181,157.234056 66.2059826,156.520027 L66.2307692,156.244898 L66.2307692,144 C66.2307692,143.248592 65.686538,142.623648 64.9688481,142.494048 L64.6923077,142.469388 Z M135.461538,142.469388 L132.384615,142.469388 C131.629354,142.469388 131.001205,143.010842 130.870941,143.724871 L130.846154,144 L130.846154,156.244898 C130.846154,156.996306 131.390385,157.62125 132.108075,157.75085 L132.384615,157.77551 L135.461538,157.77551 C136.2168,157.77551 136.844949,157.234056 136.975213,156.520027 L137,156.244898 L137,144 C137,143.248592 136.455769,142.623648 135.738079,142.494048 L135.461538,142.469388 Z M117,72.0612245 L80.0769231,72.0612245 C75.9985126,72.0612245 72.6614195,75.2189876 72.4009775,79.2110948 L72.3846154,79.7142857 L72.384,150.122 L76.615,150.122 L76.5193284,149.981433 C76.3370176,149.688953 76.2317584,149.343951 76.2317584,148.97449 C76.2317584,147.917823 77.0927492,147.061224 78.1548353,147.061224 C79.2169214,147.061224 80.0779122,147.917823 80.0779122,148.97449 C80.0779122,149.405094 79.9349308,149.802474 79.6936258,150.1222 L84.308,150.122 L84.2116361,149.981433 C84.0293253,149.688953 83.9240661,149.343951 83.9240661,148.97449 C83.9240661,147.917823 84.7850569,147.061224 85.847143,147.061224 C86.909229,147.061224 87.7702199,147.917823 87.7702199,148.97449 C87.7702199,149.405094 87.6272385,149.802474 87.3859335,150.1222 L92,150.122 L91.9039437,149.981433 C91.721633,149.688953 91.6163738,149.343951 91.6163738,148.97449 C91.6163738,147.917823 92.4773646,147.061224 93.5394507,147.061224 C94.6015367,147.061224 95.4625276,147.917823 95.4625276,148.97449 C95.4625276,149.405094 95.3195462,149.802474 95.0782412,150.1222 L99.692,150.122 L99.5962514,149.981433 C99.4139407,149.688953 99.3086814,149.343951 99.3086814,148.97449 C99.3086814,147.917823 100.169672,147.061224 101.231758,147.061224 C102.293844,147.061224 103.154835,147.917823 103.154835,148.97449 C103.154835,149.405094 103.011854,149.802474 102.770549,150.1222 L107.385,150.122 L107.288559,149.981433 C107.106248,149.688953 107.000989,149.343951 107.000989,148.97449 C107.000989,147.917823 107.86198,147.061224 108.924066,147.061224 C109.986152,147.061224 110.847143,147.917823 110.847143,148.97449 C110.847143,149.405094 110.704162,149.802474 110.462857,150.1222 L115.077,150.122 L114.980867,149.981433 C114.798556,149.688953 114.693297,149.343951 114.693297,148.97449 C114.693297,147.917823 115.554288,147.061224 116.616374,147.061224 C117.67846,147.061224 118.539451,147.917823 118.539451,148.97449 C118.539451,149.405094 118.396469,149.802474 118.155164,150.1222 L122.769,150.122 L122.673175,149.981433 C122.490864,149.688953 122.385605,149.343951 122.385605,148.97449 C122.385605,148.349306 122.687,147.794158 123.153119,147.445022 L123.154835,150.122449 L124.692,150.122 L124.692308,79.7142857 C124.692308,75.6566835 121.518351,72.3366163 117.505771,72.0775031 L117,72.0612245 Z M82.0009891,142.622449 C83.0630752,142.622449 83.9240661,143.479047 83.9240661,144.535714 C83.9240661,145.592382 83.0630752,146.44898 82.0009891,146.44898 C80.9389031,146.44898 80.0779122,145.592382 80.0779122,144.535714 C80.0779122,143.479047 80.9389031,142.622449 82.0009891,142.622449 Z M105.077912,142.622449 C106.139998,142.622449 107.000989,143.479047 107.000989,144.535714 C107.000989,145.592382 106.139998,146.44898 105.077912,146.44898 C104.015826,146.44898 103.154835,145.592382 103.154835,144.535714 C103.154835,143.479047 104.015826,142.622449 105.077912,142.622449 Z M120.462528,142.622449 C121.524614,142.622449 122.385605,143.479047 122.385605,144.535714 C122.385605,145.592382 121.524614,146.44898 120.462528,146.44898 C119.400442,146.44898 118.539451,145.592382 118.539451,144.535714 C118.539451,143.479047 119.400442,142.622449 120.462528,142.622449 Z M74.3086814,142.622449 C75.3707675,142.622449 76.2317584,143.479047 76.2317584,144.535714 C76.2317584,145.592382 75.3707675,146.44898 74.3086814,146.44898 C74.1767607,146.44898 74.0479424,146.435764 73.9234911,146.410591 L73.9234911,142.660837 C74.0479424,142.635664 74.1767607,142.622449 74.3086814,142.622449 Z M97.3856045,142.622449 C98.4476906,142.622449 99.3086814,143.479047 99.3086814,144.535714 C99.3086814,145.592382 98.4476906,146.44898 97.3856045,146.44898 C96.3235185,146.44898 95.4625276,145.592382 95.4625276,144.535714 C95.4625276,143.479047 96.3235185,142.622449 97.3856045,142.622449 Z M89.6932968,142.622449 C90.7553829,142.622449 91.6163738,143.479047 91.6163738,144.535714 C91.6163738,145.592382 90.7553829,146.44898 89.6932968,146.44898 C88.6312108,146.44898 87.7702199,145.592382 87.7702199,144.535714 C87.7702199,143.479047 88.6312108,142.622449 89.6932968,142.622449 Z M112.77022,142.622449 C113.832306,142.622449 114.693297,143.479047 114.693297,144.535714 C114.693297,145.592382 113.832306,146.44898 112.77022,146.44898 C111.708134,146.44898 110.847143,145.592382 110.847143,144.535714 C110.847143,143.479047 111.708134,142.622449 112.77022,142.622449 Z M85.847143,138.489796 C86.909229,138.489796 87.7702199,139.346394 87.7702199,140.403061 C87.7702199,141.459728 86.909229,142.316327 85.847143,142.316327 C84.7850569,142.316327 83.9240661,141.459728 83.9240661,140.403061 C83.9240661,139.346394 84.7850569,138.489796 85.847143,138.489796 Z M108.924066,138.489796 C109.986152,138.489796 110.847143,139.346394 110.847143,140.403061 C110.847143,141.459728 109.986152,142.316327 108.924066,142.316327 C107.86198,142.316327 107.000989,141.459728 107.000989,140.403061 C107.000989,139.346394 107.86198,138.489796 108.924066,138.489796 Z M116.616374,138.489796 C117.67846,138.489796 118.539451,139.346394 118.539451,140.403061 C118.539451,141.459728 117.67846,142.316327 116.616374,142.316327 C115.554288,142.316327 114.693297,141.459728 114.693297,140.403061 C114.693297,139.346394 115.554288,138.489796 116.616374,138.489796 Z M93.5394507,138.489796 C94.6015367,138.489796 95.4625276,139.346394 95.4625276,140.403061 C95.4625276,141.459728 94.6015367,142.316327 93.5394507,142.316327 C92.4773646,142.316327 91.6163738,141.459728 91.6163738,140.403061 C91.6163738,139.346394 92.4773646,138.489796 93.5394507,138.489796 Z M78.1548353,138.489796 C79.2169214,138.489796 80.0779122,139.346394 80.0779122,140.403061 C80.0779122,141.459728 79.2169214,142.316327 78.1548353,142.316327 C77.0927492,142.316327 76.2317584,141.459728 76.2317584,140.403061 C76.2317584,139.346394 77.0927492,138.489796 78.1548353,138.489796 Z M101.231758,138.489796 C102.293844,138.489796 103.154835,139.346394 103.154835,140.403061 C103.154835,141.459728 102.293844,142.316327 101.231758,142.316327 C100.169672,142.316327 99.3086814,141.459728 99.3086814,140.403061 C99.3086814,139.346394 100.169672,138.489796 101.231758,138.489796 Z M123.153119,138.873593 L123.153119,141.932529 C122.687,141.583393 122.385605,141.028245 122.385605,140.403061 C122.385605,139.777878 122.687,139.22273 123.153119,138.873593 Z M89.6932968,133.897959 C90.7553829,133.897959 91.6163738,134.754557 91.6163738,135.811224 C91.6163738,136.867892 90.7553829,137.72449 89.6932968,137.72449 C88.6312108,137.72449 87.7702199,136.867892 87.7702199,135.811224 C87.7702199,134.754557 88.6312108,133.897959 89.6932968,133.897959 Z M97.3856045,133.897959 C98.4476906,133.897959 99.3086814,134.754557 99.3086814,135.811224 C99.3086814,136.867892 98.4476906,137.72449 97.3856045,137.72449 C96.3235185,137.72449 95.4625276,136.867892 95.4625276,135.811224 C95.4625276,134.754557 96.3235185,133.897959 97.3856045,133.897959 Z M74.3086814,133.897959 C75.3707675,133.897959 76.2317584,134.754557 76.2317584,135.811224 C76.2317584,136.867892 75.3707675,137.72449 74.3086814,137.72449 C74.1767607,137.72449 74.0479424,137.711274 73.9234911,137.686101 L73.9234911,133.936348 C74.0479424,133.911175 74.1767607,133.897959 74.3086814,133.897959 Z M82.0009891,133.897959 C83.0630752,133.897959 83.9240661,134.754557 83.9240661,135.811224 C83.9240661,136.867892 83.0630752,137.72449 82.0009891,137.72449 C80.9389031,137.72449 80.0779122,136.867892 80.0779122,135.811224 C80.0779122,134.754557 80.9389031,133.897959 82.0009891,133.897959 Z M105.077912,133.897959 C106.139998,133.897959 107.000989,134.754557 107.000989,135.811224 C107.000989,136.867892 106.139998,137.72449 105.077912,137.72449 C104.015826,137.72449 103.154835,136.867892 103.154835,135.811224 C103.154835,134.754557 104.015826,133.897959 105.077912,133.897959 Z M112.77022,133.897959 C113.832306,133.897959 114.693297,134.754557 114.693297,135.811224 C114.693297,136.867892 113.832306,137.72449 112.77022,137.72449 C111.708134,137.72449 110.847143,136.867892 110.847143,135.811224 C110.847143,134.754557 111.708134,133.897959 112.77022,133.897959 Z M120.462528,133.897959 C121.524614,133.897959 122.385605,134.754557 122.385605,135.811224 C122.385605,136.867892 121.524614,137.72449 120.462528,137.72449 C119.400442,137.72449 118.539451,136.867892 118.539451,135.811224 C118.539451,134.754557 119.400442,133.897959 120.462528,133.897959 Z M85.847143,129.765306 C86.909229,129.765306 87.7702199,130.621904 87.7702199,131.678571 C87.7702199,132.735239 86.909229,133.591837 85.847143,133.591837 C84.7850569,133.591837 83.9240661,132.735239 83.9240661,131.678571 C83.9240661,130.621904 84.7850569,129.765306 85.847143,129.765306 Z M101.231758,129.765306 C102.293844,129.765306 103.154835,130.621904 103.154835,131.678571 C103.154835,132.735239 102.293844,133.591837 101.231758,133.591837 C100.169672,133.591837 99.3086814,132.735239 99.3086814,131.678571 C99.3086814,130.621904 100.169672,129.765306 101.231758,129.765306 Z M108.924066,129.765306 C109.986152,129.765306 110.847143,130.621904 110.847143,131.678571 C110.847143,132.735239 109.986152,133.591837 108.924066,133.591837 C107.86198,133.591837 107.000989,132.735239 107.000989,131.678571 C107.000989,130.621904 107.86198,129.765306 108.924066,129.765306 Z M116.616374,129.765306 C117.67846,129.765306 118.539451,130.621904 118.539451,131.678571 C118.539451,132.735239 117.67846,133.591837 116.616374,133.591837 C115.554288,133.591837 114.693297,132.735239 114.693297,131.678571 C114.693297,130.621904 115.554288,129.765306 116.616374,129.765306 Z M93.5394507,129.765306 C94.6015367,129.765306 95.4625276,130.621904 95.4625276,131.678571 C95.4625276,132.735239 94.6015367,133.591837 93.5394507,133.591837 C92.4773646,133.591837 91.6163738,132.735239 91.6163738,131.678571 C91.6163738,130.621904 92.4773646,129.765306 93.5394507,129.765306 Z M78.1548353,129.765306 C79.2169214,129.765306 80.0779122,130.621904 80.0779122,131.678571 C80.0779122,132.735239 79.2169214,133.591837 78.1548353,133.591837 C77.0927492,133.591837 76.2317584,132.735239 76.2317584,131.678571 C76.2317584,130.621904 77.0927492,129.765306 78.1548353,129.765306 Z M123.153119,130.149103 L123.153119,133.20804 C122.687,132.858903 122.385605,132.303755 122.385605,131.678571 C122.385605,131.053388 122.687,130.49824 123.153119,130.149103 Z M120.462528,125.479592 C121.524614,125.479592 122.385605,126.33619 122.385605,127.392857 C122.385605,128.449524 121.524614,129.306122 120.462528,129.306122 C119.400442,129.306122 118.539451,128.449524 118.539451,127.392857 C118.539451,126.33619 119.400442,125.479592 120.462528,125.479592 Z M89.6932968,125.479592 C90.7553829,125.479592 91.6163738,126.33619 91.6163738,127.392857 C91.6163738,128.449524 90.7553829,129.306122 89.6932968,129.306122 C88.6312108,129.306122 87.7702199,128.449524 87.7702199,127.392857 C87.7702199,126.33619 88.6312108,125.479592 89.6932968,125.479592 Z M97.3856045,125.479592 C98.4476906,125.479592 99.3086814,126.33619 99.3086814,127.392857 C99.3086814,128.449524 98.4476906,129.306122 97.3856045,129.306122 C96.3235185,129.306122 95.4625276,128.449524 95.4625276,127.392857 C95.4625276,126.33619 96.3235185,125.479592 97.3856045,125.479592 Z M74.3086814,125.479592 C75.3707675,125.479592 76.2317584,126.33619 76.2317584,127.392857 C76.2317584,128.449524 75.3707675,129.306122 74.3086814,129.306122 C74.1767607,129.306122 74.0479424,129.292907 73.9234911,129.267734 L73.9234911,125.51798 C74.0479424,125.492807 74.1767607,125.479592 74.3086814,125.479592 Z M82.0009891,125.479592 C83.0630752,125.479592 83.9240661,126.33619 83.9240661,127.392857 C83.9240661,128.449524 83.0630752,129.306122 82.0009891,129.306122 C80.9389031,129.306122 80.0779122,128.449524 80.0779122,127.392857 C80.0779122,126.33619 80.9389031,125.479592 82.0009891,125.479592 Z M105.077912,125.479592 C106.139998,125.479592 107.000989,126.33619 107.000989,127.392857 C107.000989,128.449524 106.139998,129.306122 105.077912,129.306122 C104.015826,129.306122 103.154835,128.449524 103.154835,127.392857 C103.154835,126.33619 104.015826,125.479592 105.077912,125.479592 Z M112.77022,125.479592 C113.832306,125.479592 114.693297,126.33619 114.693297,127.392857 C114.693297,128.449524 113.832306,129.306122 112.77022,129.306122 C111.708134,129.306122 110.847143,128.449524 110.847143,127.392857 C110.847143,126.33619 111.708134,125.479592 112.77022,125.479592 Z M85.847143,121.346939 C86.909229,121.346939 87.7702199,122.203537 87.7702199,123.260204 C87.7702199,124.316871 86.909229,125.173469 85.847143,125.173469 C84.7850569,125.173469 83.9240661,124.316871 83.9240661,123.260204 C83.9240661,122.203537 84.7850569,121.346939 85.847143,121.346939 Z M116.616374,121.346939 C117.67846,121.346939 118.539451,122.203537 118.539451,123.260204 C118.539451,124.316871 117.67846,125.173469 116.616374,125.173469 C115.554288,125.173469 114.693297,124.316871 114.693297,123.260204 C114.693297,122.203537 115.554288,121.346939 116.616374,121.346939 Z M93.5394507,121.346939 C94.6015367,121.346939 95.4625276,122.203537 95.4625276,123.260204 C95.4625276,124.316871 94.6015367,125.173469 93.5394507,125.173469 C92.4773646,125.173469 91.6163738,124.316871 91.6163738,123.260204 C91.6163738,122.203537 92.4773646,121.346939 93.5394507,121.346939 Z M78.1548353,121.346939 C79.2169214,121.346939 80.0779122,122.203537 80.0779122,123.260204 C80.0779122,124.316871 79.2169214,125.173469 78.1548353,125.173469 C77.0927492,125.173469 76.2317584,124.316871 76.2317584,123.260204 C76.2317584,122.203537 77.0927492,121.346939 78.1548353,121.346939 Z M108.924066,121.346939 C109.986152,121.346939 110.847143,122.203537 110.847143,123.260204 C110.847143,124.316871 109.986152,125.173469 108.924066,125.173469 C107.86198,125.173469 107.000989,124.316871 107.000989,123.260204 C107.000989,122.203537 107.86198,121.346939 108.924066,121.346939 Z M101.231758,121.346939 C102.293844,121.346939 103.154835,122.203537 103.154835,123.260204 C103.154835,124.316871 102.293844,125.173469 101.231758,125.173469 C100.169672,125.173469 99.3086814,124.316871 99.3086814,123.260204 C99.3086814,122.203537 100.169672,121.346939 101.231758,121.346939 Z M123.153119,121.730736 L123.153119,124.789672 C122.687,124.440536 122.385605,123.885388 122.385605,123.260204 C122.385605,122.63502 122.687,122.079872 123.153119,121.730736 Z M89.6932968,116.755102 C90.7553829,116.755102 91.6163738,117.6117 91.6163738,118.668367 C91.6163738,119.725035 90.7553829,120.581633 89.6932968,120.581633 C88.6312108,120.581633 87.7702199,119.725035 87.7702199,118.668367 C87.7702199,117.6117 88.6312108,116.755102 89.6932968,116.755102 Z M112.77022,116.755102 C113.832306,116.755102 114.693297,117.6117 114.693297,118.668367 C114.693297,119.725035 113.832306,120.581633 112.77022,120.581633 C111.708134,120.581633 110.847143,119.725035 110.847143,118.668367 C110.847143,117.6117 111.708134,116.755102 112.77022,116.755102 Z M105.077912,116.755102 C106.139998,116.755102 107.000989,117.6117 107.000989,118.668367 C107.000989,119.725035 106.139998,120.581633 105.077912,120.581633 C104.015826,120.581633 103.154835,119.725035 103.154835,118.668367 C103.154835,117.6117 104.015826,116.755102 105.077912,116.755102 Z M97.3856045,116.755102 C98.4476906,116.755102 99.3086814,117.6117 99.3086814,118.668367 C99.3086814,119.725035 98.4476906,120.581633 97.3856045,120.581633 C96.3235185,120.581633 95.4625276,119.725035 95.4625276,118.668367 C95.4625276,117.6117 96.3235185,116.755102 97.3856045,116.755102 Z M82.0009891,116.755102 C83.0630752,116.755102 83.9240661,117.6117 83.9240661,118.668367 C83.9240661,119.725035 83.0630752,120.581633 82.0009891,120.581633 C80.9389031,120.581633 80.0779122,119.725035 80.0779122,118.668367 C80.0779122,117.6117 80.9389031,116.755102 82.0009891,116.755102 Z M120.462528,116.755102 C121.524614,116.755102 122.385605,117.6117 122.385605,118.668367 C122.385605,119.725035 121.524614,120.581633 120.462528,120.581633 C119.400442,120.581633 118.539451,119.725035 118.539451,118.668367 C118.539451,117.6117 119.400442,116.755102 120.462528,116.755102 Z M74.3086814,116.755102 C75.3707675,116.755102 76.2317584,117.6117 76.2317584,118.668367 C76.2317584,119.725035 75.3707675,120.581633 74.3086814,120.581633 C74.1767607,120.581633 74.0479424,120.568417 73.9234911,120.543244 L73.9234911,116.79349 C74.0479424,116.768318 74.1767607,116.755102 74.3086814,116.755102 Z M85.847143,112.622449 C86.909229,112.622449 87.7702199,113.479047 87.7702199,114.535714 C87.7702199,115.592382 86.909229,116.44898 85.847143,116.44898 C84.7850569,116.44898 83.9240661,115.592382 83.9240661,114.535714 C83.9240661,113.479047 84.7850569,112.622449 85.847143,112.622449 Z M93.5394507,112.622449 C94.6015367,112.622449 95.4625276,113.479047 95.4625276,114.535714 C95.4625276,115.592382 94.6015367,116.44898 93.5394507,116.44898 C92.4773646,116.44898 91.6163738,115.592382 91.6163738,114.535714 C91.6163738,113.479047 92.4773646,112.622449 93.5394507,112.622449 Z M78.1548353,112.622449 C79.2169214,112.622449 80.0779122,113.479047 80.0779122,114.535714 C80.0779122,115.592382 79.2169214,116.44898 78.1548353,116.44898 C77.0927492,116.44898 76.2317584,115.592382 76.2317584,114.535714 C76.2317584,113.479047 77.0927492,112.622449 78.1548353,112.622449 Z M108.924066,112.622449 C109.986152,112.622449 110.847143,113.479047 110.847143,114.535714 C110.847143,115.592382 109.986152,116.44898 108.924066,116.44898 C107.86198,116.44898 107.000989,115.592382 107.000989,114.535714 C107.000989,113.479047 107.86198,112.622449 108.924066,112.622449 Z M116.616374,112.622449 C117.67846,112.622449 118.539451,113.479047 118.539451,114.535714 C118.539451,115.592382 117.67846,116.44898 116.616374,116.44898 C115.554288,116.44898 114.693297,115.592382 114.693297,114.535714 C114.693297,113.479047 115.554288,112.622449 116.616374,112.622449 Z M101.231758,112.622449 C102.293844,112.622449 103.154835,113.479047 103.154835,114.535714 C103.154835,115.592382 102.293844,116.44898 101.231758,116.44898 C100.169672,116.44898 99.3086814,115.592382 99.3086814,114.535714 C99.3086814,113.479047 100.169672,112.622449 101.231758,112.622449 Z M123.153119,113.006246 L123.153119,116.065183 C122.687,115.716046 122.385605,115.160898 122.385605,114.535714 C122.385605,113.910531 122.687,113.355383 123.153119,113.006246 Z M112.77022,107.877551 C113.832306,107.877551 114.693297,108.734149 114.693297,109.790816 C114.693297,110.847484 113.832306,111.704082 112.77022,111.704082 C111.708134,111.704082 110.847143,110.847484 110.847143,109.790816 C110.847143,108.734149 111.708134,107.877551 112.77022,107.877551 Z M97.3856045,107.877551 C98.4476906,107.877551 99.3086814,108.734149 99.3086814,109.790816 C99.3086814,110.847484 98.4476906,111.704082 97.3856045,111.704082 C96.3235185,111.704082 95.4625276,110.847484 95.4625276,109.790816 C95.4625276,108.734149 96.3235185,107.877551 97.3856045,107.877551 Z M105.077912,107.877551 C106.139998,107.877551 107.000989,108.734149 107.000989,109.790816 C107.000989,110.847484 106.139998,111.704082 105.077912,111.704082 C104.015826,111.704082 103.154835,110.847484 103.154835,109.790816 C103.154835,108.734149 104.015826,107.877551 105.077912,107.877551 Z M89.6932968,107.877551 C90.7553829,107.877551 91.6163738,108.734149 91.6163738,109.790816 C91.6163738,110.847484 90.7553829,111.704082 89.6932968,111.704082 C88.6312108,111.704082 87.7702199,110.847484 87.7702199,109.790816 C87.7702199,108.734149 88.6312108,107.877551 89.6932968,107.877551 Z M74.3086814,107.877551 C75.3707675,107.877551 76.2317584,108.734149 76.2317584,109.790816 C76.2317584,110.847484 75.3707675,111.704082 74.3086814,111.704082 C74.1767607,111.704082 74.0479424,111.690866 73.9234911,111.665693 L73.9234911,107.915939 C74.0479424,107.890767 74.1767607,107.877551 74.3086814,107.877551 Z M82.0009891,107.877551 C83.0630752,107.877551 83.9240661,108.734149 83.9240661,109.790816 C83.9240661,110.847484 83.0630752,111.704082 82.0009891,111.704082 C80.9389031,111.704082 80.0779122,110.847484 80.0779122,109.790816 C80.0779122,108.734149 80.9389031,107.877551 82.0009891,107.877551 Z M120.462528,107.877551 C121.524614,107.877551 122.385605,108.734149 122.385605,109.790816 C122.385605,110.847484 121.524614,111.704082 120.462528,111.704082 C119.400442,111.704082 118.539451,110.847484 118.539451,109.790816 C118.539451,108.734149 119.400442,107.877551 120.462528,107.877551 Z M108.924066,103.744898 C109.986152,103.744898 110.847143,104.601496 110.847143,105.658163 C110.847143,106.714831 109.986152,107.571429 108.924066,107.571429 C107.86198,107.571429 107.000989,106.714831 107.000989,105.658163 C107.000989,104.601496 107.86198,103.744898 108.924066,103.744898 Z M116.616374,103.744898 C117.67846,103.744898 118.539451,104.601496 118.539451,105.658163 C118.539451,106.714831 117.67846,107.571429 116.616374,107.571429 C115.554288,107.571429 114.693297,106.714831 114.693297,105.658163 C114.693297,104.601496 115.554288,103.744898 116.616374,103.744898 Z M93.5394507,103.744898 C94.6015367,103.744898 95.4625276,104.601496 95.4625276,105.658163 C95.4625276,106.714831 94.6015367,107.571429 93.5394507,107.571429 C92.4773646,107.571429 91.6163738,106.714831 91.6163738,105.658163 C91.6163738,104.601496 92.4773646,103.744898 93.5394507,103.744898 Z M85.847143,103.744898 C86.909229,103.744898 87.7702199,104.601496 87.7702199,105.658163 C87.7702199,106.714831 86.909229,107.571429 85.847143,107.571429 C84.7850569,107.571429 83.9240661,106.714831 83.9240661,105.658163 C83.9240661,104.601496 84.7850569,103.744898 85.847143,103.744898 Z M101.231758,103.744898 C102.293844,103.744898 103.154835,104.601496 103.154835,105.658163 C103.154835,106.714831 102.293844,107.571429 101.231758,107.571429 C100.169672,107.571429 99.3086814,106.714831 99.3086814,105.658163 C99.3086814,104.601496 100.169672,103.744898 101.231758,103.744898 Z M78.1548353,103.744898 C79.2169214,103.744898 80.0779122,104.601496 80.0779122,105.658163 C80.0779122,106.714831 79.2169214,107.571429 78.1548353,107.571429 C77.0927492,107.571429 76.2317584,106.714831 76.2317584,105.658163 C76.2317584,104.601496 77.0927492,103.744898 78.1548353,103.744898 Z M123.153119,104.128695 L123.153119,107.187631 C122.687,106.838495 122.385605,106.283347 122.385605,105.658163 C122.385605,105.03298 122.687,104.477832 123.153119,104.128695 Z M74.3086814,99.1530612 C75.3707675,99.1530612 76.2317584,100.009659 76.2317584,101.066327 C76.2317584,102.122994 75.3707675,102.979592 74.3086814,102.979592 C74.1767607,102.979592 74.0479424,102.966376 73.9234911,102.941203 L73.9234911,99.1914497 C74.0479424,99.1662767 74.1767607,99.1530612 74.3086814,99.1530612 Z M89.6932968,99.1530612 C90.7553829,99.1530612 91.6163738,100.009659 91.6163738,101.066327 C91.6163738,102.122994 90.7553829,102.979592 89.6932968,102.979592 C88.6312108,102.979592 87.7702199,102.122994 87.7702199,101.066327 C87.7702199,100.009659 88.6312108,99.1530612 89.6932968,99.1530612 Z M105.077912,99.1530612 C106.139998,99.1530612 107.000989,100.009659 107.000989,101.066327 C107.000989,102.122994 106.139998,102.979592 105.077912,102.979592 C104.015826,102.979592 103.154835,102.122994 103.154835,101.066327 C103.154835,100.009659 104.015826,99.1530612 105.077912,99.1530612 Z M120.462528,99.1530612 C121.524614,99.1530612 122.385605,100.009659 122.385605,101.066327 C122.385605,102.122994 121.524614,102.979592 120.462528,102.979592 C119.400442,102.979592 118.539451,102.122994 118.539451,101.066327 C118.539451,100.009659 119.400442,99.1530612 120.462528,99.1530612 Z M97.3856045,99.1530612 C98.4476906,99.1530612 99.3086814,100.009659 99.3086814,101.066327 C99.3086814,102.122994 98.4476906,102.979592 97.3856045,102.979592 C96.3235185,102.979592 95.4625276,102.122994 95.4625276,101.066327 C95.4625276,100.009659 96.3235185,99.1530612 97.3856045,99.1530612 Z M112.77022,99.1530612 C113.832306,99.1530612 114.693297,100.009659 114.693297,101.066327 C114.693297,102.122994 113.832306,102.979592 112.77022,102.979592 C111.708134,102.979592 110.847143,102.122994 110.847143,101.066327 C110.847143,100.009659 111.708134,99.1530612 112.77022,99.1530612 Z M82.0009891,99.1530612 C83.0630752,99.1530612 83.9240661,100.009659 83.9240661,101.066327 C83.9240661,102.122994 83.0630752,102.979592 82.0009891,102.979592 C80.9389031,102.979592 80.0779122,102.122994 80.0779122,101.066327 C80.0779122,100.009659 80.9389031,99.1530612 82.0009891,99.1530612 Z M85.847143,95.0204082 C86.909229,95.0204082 87.7702199,95.8770062 87.7702199,96.9336735 C87.7702199,97.9903407 86.909229,98.8469388 85.847143,98.8469388 C84.7850569,98.8469388 83.9240661,97.9903407 83.9240661,96.9336735 C83.9240661,95.8770062 84.7850569,95.0204082 85.847143,95.0204082 Z M92.1932557,95.567368 C93.0976689,96.4197707 94.1748772,97.0913719 95.3671774,97.5253033 L95.3250075,97.6455489 C95.041132,98.3496846 94.3486591,98.8469388 93.5394507,98.8469388 C92.4773646,98.8469388 91.6163738,97.9903407 91.6163738,96.9336735 C91.6163738,96.3984784 91.8372486,95.9146082 92.1932557,95.567368 Z M108.924066,95.0204082 C109.986152,95.0204082 110.847143,95.8770062 110.847143,96.9336735 C110.847143,97.9903407 109.986152,98.8469388 108.924066,98.8469388 C107.86198,98.8469388 107.000989,97.9903407 107.000989,96.9336735 C107.000989,95.8770062 107.86198,95.0204082 108.924066,95.0204082 Z M116.616374,95.0204082 C117.67846,95.0204082 118.539451,95.8770062 118.539451,96.9336735 C118.539451,97.9903407 117.67846,98.8469388 116.616374,98.8469388 C115.554288,98.8469388 114.693297,97.9903407 114.693297,96.9336735 C114.693297,95.8770062 115.554288,95.0204082 116.616374,95.0204082 Z M78.1548353,95.0204082 C79.2169214,95.0204082 80.0779122,95.8770062 80.0779122,96.9336735 C80.0779122,97.9903407 79.2169214,98.8469388 78.1548353,98.8469388 C77.0927492,98.8469388 76.2317584,97.9903407 76.2317584,96.9336735 C76.2317584,95.8770062 77.0927492,95.0204082 78.1548353,95.0204082 Z M103.15255,96.8537662 C103.154272,96.879772 103.154835,96.9066574 103.154835,96.9336735 C103.154835,97.9903407 102.293844,98.8469388 101.231758,98.8469388 C100.573427,98.8469388 99.9923577,98.517824 99.645708,98.0159485 C100.911479,97.8656045 102.097939,97.4604861 103.15255,96.8537662 Z M123.153119,95.4042052 L123.153119,98.4631417 C122.687,98.1140052 122.385605,97.5588571 122.385605,96.9336735 C122.385605,96.3084898 122.687,95.7533418 123.153119,95.4042052 Z M98.5893038,82.4694035 C99.9171538,82.4694035 101.195282,82.8619347 102.283997,83.6042821 C103.34742,84.3294737 104.161973,85.3376981 104.638696,86.5191806 C104.699749,86.6703812 104.755696,86.8262561 104.805164,86.9829236 L104.805164,86.9829236 L104.664968,87.3400631 L103.562255,87.9707568 L103.11063,87.7805258 C103.074923,87.6402711 103.032131,87.5005695 102.983269,87.3647599 C102.324188,85.5322429 100.558085,84.30009 98.5893038,84.30009 C96.0185608,84.30009 93.9276336,86.3635044 93.9276336,88.8979749 C93.9276336,91.4324005 96.0185685,93.4958072 98.5893038,93.4958072 C99.5887879,93.4958072 100.541031,93.1874048 101.345367,92.6033085 C102.133512,92.0309023 102.710659,91.2476539 103.004255,90.3830213 L103.003,90.386 L102.935385,90.5510204 L97.5938462,87.5357143 L97.5938462,90.205102 L99.5170073,89.2517114 L100.585884,89.8546321 L100.586836,90.3866917 L97.1705965,92.1575073 L96.0699056,91.5386262 L95.9136017,91.2721196 L95.9136017,86.4456562 L96.068612,86.179881 L97.4720502,85.5544446 L104.844847,89.7199545 L104.995697,90.0406991 C104.729422,91.5039106 103.948714,92.839509 102.79526,93.8047794 C101.622381,94.7862404 100.12886,95.3265463 98.5893038,95.3265463 C96.8510556,95.3265463 95.215183,94.6578723 93.9857056,93.4445906 C92.7557242,92.2307562 92.0775429,90.6150098 92.0775429,88.8979749 C92.0775429,87.1808444 92.7557178,85.5651421 93.9857056,84.3514117 C95.2151668,83.1380908 96.8510368,82.4694035 98.5893038,82.4694035 Z M89.4946004,90.7447824 C89.7467486,91.9733265 90.2446647,93.1111738 90.9350278,94.1067627 L90.8960834,94.1409016 C90.5667205,94.4038902 90.1484766,94.5612245 89.6932968,94.5612245 C88.6312108,94.5612245 87.7702199,93.7046264 87.7702199,92.6479592 C87.7702199,91.6580396 88.525872,90.8437116 89.4946004,90.7447824 Z M74.3086814,90.7346939 C75.3707675,90.7346939 76.2317584,91.5912919 76.2317584,92.6479592 C76.2317584,93.7046264 75.3707675,94.5612245 74.3086814,94.5612245 C74.1767607,94.5612245 74.0479424,94.548009 73.9234911,94.522836 L73.9234911,90.7730823 C74.0479424,90.7479094 74.1767607,90.7346939 74.3086814,90.7346939 Z M82.0009891,90.7346939 C83.0630752,90.7346939 83.9240661,91.5912919 83.9240661,92.6479592 C83.9240661,93.7046264 83.0630752,94.5612245 82.0009891,94.5612245 C80.9389031,94.5612245 80.0779122,93.7046264 80.0779122,92.6479592 C80.0779122,91.5912919 80.9389031,90.7346939 82.0009891,90.7346939 Z M112.77022,90.7346939 C113.832306,90.7346939 114.693297,91.5912919 114.693297,92.6479592 C114.693297,93.7046264 113.832306,94.5612245 112.77022,94.5612245 C111.708134,94.5612245 110.847143,93.7046264 110.847143,92.6479592 C110.847143,91.5912919 111.708134,90.7346939 112.77022,90.7346939 Z M120.462528,90.7346939 C121.524614,90.7346939 122.385605,91.5912919 122.385605,92.6479592 C122.385605,93.7046264 121.524614,94.5612245 120.462528,94.5612245 C119.400442,94.5612245 118.539451,93.7046264 118.539451,92.6479592 C118.539451,91.5912919 119.400442,90.7346939 120.462528,90.7346939 Z M106.999263,92.5757236 C107.000527,92.5990909 107.000989,92.6234713 107.000989,92.6479592 C107.000989,93.382192 106.58528,94.0198261 105.975254,94.340599 C106.378579,93.7946533 106.723181,93.2035051 106.999263,92.5757236 Z M108.924066,86.6020408 C109.986152,86.6020408 110.847143,87.4586389 110.847143,88.5153061 C110.847143,89.5719734 109.986152,90.4285714 108.924066,90.4285714 C108.460775,90.4285714 108.035748,90.2655798 107.703757,89.994089 C107.747147,89.6343485 107.769231,89.2687196 107.769231,88.8979592 C107.769231,88.2936489 107.710563,87.7029713 107.598584,87.1312565 C107.942523,86.802941 108.409713,86.6020408 108.924066,86.6020408 Z M116.616374,86.6020408 C117.67846,86.6020408 118.539451,87.4586389 118.539451,88.5153061 C118.539451,89.5719734 117.67846,90.4285714 116.616374,90.4285714 C115.554288,90.4285714 114.693297,89.5719734 114.693297,88.5153061 C114.693297,87.4586389 115.554288,86.6020408 116.616374,86.6020408 Z M78.1548353,86.6020408 C79.2169214,86.6020408 80.0779122,87.4586389 80.0779122,88.5153061 C80.0779122,89.5719734 79.2169214,90.4285714 78.1548353,90.4285714 C77.0927492,90.4285714 76.2317584,89.5719734 76.2317584,88.5153061 C76.2317584,87.4586389 77.0927492,86.6020408 78.1548353,86.6020408 Z M85.847143,86.6020408 C86.909229,86.6020408 87.7702199,87.4586389 87.7702199,88.5153061 C87.7702199,89.5719734 86.909229,90.4285714 85.847143,90.4285714 C84.7850569,90.4285714 83.9240661,89.5719734 83.9240661,88.5153061 C83.9240661,87.4586389 84.7850569,86.6020408 85.847143,86.6020408 Z M123.153119,86.9858379 L123.153119,90.0447743 C122.687,89.6956378 122.385605,89.1404898 122.385605,88.5153061 C122.385605,87.8901225 122.687,87.3349744 123.153119,86.9858379 Z M89.6932968,82.0102041 C90.4438376,82.0102041 91.093956,82.4379701 91.4107789,83.0618173 C90.7342827,83.8789619 90.1969722,84.8140288 89.8348029,85.8314977 L89.6932968,85.8367347 C88.6312108,85.8367347 87.7702199,84.9801366 87.7702199,83.9234694 C87.7702199,82.8668021 88.6312108,82.0102041 89.6932968,82.0102041 Z M120.462528,82.0102041 C121.524614,82.0102041 122.385605,82.8668021 122.385605,83.9234694 C122.385605,84.9801366 121.524614,85.8367347 120.462528,85.8367347 C119.400442,85.8367347 118.539451,84.9801366 118.539451,83.9234694 C118.539451,82.8668021 119.400442,82.0102041 120.462528,82.0102041 Z M74.3086814,82.0102041 C75.3707675,82.0102041 76.2317584,82.8668021 76.2317584,83.9234694 C76.2317584,84.9801366 75.3707675,85.8367347 74.3086814,85.8367347 C74.1767607,85.8367347 74.0479424,85.8235192 73.9234911,85.7983462 L73.9234911,82.0485925 C74.0479424,82.0234196 74.1767607,82.0102041 74.3086814,82.0102041 Z M82.0009891,82.0102041 C83.0630752,82.0102041 83.9240661,82.8668021 83.9240661,83.9234694 C83.9240661,84.9801366 83.0630752,85.8367347 82.0009891,85.8367347 C80.9389031,85.8367347 80.0779122,84.9801366 80.0779122,83.9234694 C80.0779122,82.8668021 80.9389031,82.0102041 82.0009891,82.0102041 Z M112.77022,82.0102041 C113.832306,82.0102041 114.693297,82.8668021 114.693297,83.9234694 C114.693297,84.9801366 113.832306,85.8367347 112.77022,85.8367347 C111.708134,85.8367347 110.847143,84.9801366 110.847143,83.9234694 C110.847143,82.8668021 111.708134,82.0102041 112.77022,82.0102041 Z M105.077912,82.0102041 C106.139998,82.0102041 107.000989,82.8668021 107.000989,83.9234694 C107.000989,84.2343016 106.926486,84.5278215 106.794277,84.7873175 C106.270553,83.7463529 105.552991,82.8184287 104.689132,82.0499086 C104.814161,82.0237304 104.944449,82.0102041 105.077912,82.0102041 Z M85.847143,77.877551 C86.909229,77.877551 87.7702199,78.7341491 87.7702199,79.7908163 C87.7702199,80.8474836 86.909229,81.7040816 85.847143,81.7040816 C84.7850569,81.7040816 83.9240661,80.8474836 83.9240661,79.7908163 C83.9240661,78.7341491 84.7850569,77.877551 85.847143,77.877551 Z M78.1548353,77.877551 C79.2169214,77.877551 80.0779122,78.7341491 80.0779122,79.7908163 C80.0779122,80.8474836 79.2169214,81.7040816 78.1548353,81.7040816 C77.0927492,81.7040816 76.2317584,80.8474836 76.2317584,79.7908163 C76.2317584,78.7341491 77.0927492,77.877551 78.1548353,77.877551 Z M108.924066,77.877551 C109.986152,77.877551 110.847143,78.7341491 110.847143,79.7908163 C110.847143,80.8474836 109.986152,81.7040816 108.924066,81.7040816 C107.86198,81.7040816 107.000989,80.8474836 107.000989,79.7908163 C107.000989,78.7341491 107.86198,77.877551 108.924066,77.877551 Z M116.616374,77.877551 C117.67846,77.877551 118.539451,78.7341491 118.539451,79.7908163 C118.539451,80.8474836 117.67846,81.7040816 116.616374,81.7040816 C115.554288,81.7040816 114.693297,80.8474836 114.693297,79.7908163 C114.693297,78.7341491 115.554288,77.877551 116.616374,77.877551 Z M93.5394507,77.877551 C94.6015367,77.877551 95.4625276,78.7341491 95.4625276,79.7908163 C95.4625276,79.9522667 95.4424274,80.1090463 95.4045809,80.2588135 C94.5057368,80.5799839 93.6728715,81.0368669 92.9292139,81.6037761 C92.1664365,81.3521745 91.6163738,80.6354047 91.6163738,79.7908163 C91.6163738,78.7341491 92.4773646,77.877551 93.5394507,77.877551 Z M123.003325,78.3858224 C123.10271,78.8229084 123.154835,79.2782084 123.154835,79.7456829 L123.153119,81.3202845 C122.687,80.971148 122.385605,80.416 122.385605,79.7908163 C122.385605,79.2354429 122.623449,78.7353375 123.003325,78.3858224 Z M101.231758,77.877551 C102.293844,77.877551 103.154835,78.7341491 103.154835,79.7908163 C103.154835,80.1565695 103.051678,80.498352 102.872731,80.7889366 C101.794484,80.2160702 100.589274,79.8512366 99.3100597,79.7459143 L99.308,79.785 L99.3144673,79.6412958 C99.3911366,78.6545107 100.220248,77.877551 101.231758,77.877551 Z M89.6932968,73.5918367 C90.7553829,73.5918367 91.6163738,74.4484348 91.6163738,75.505102 C91.6163738,76.5617693 90.7553829,77.4183673 89.6932968,77.4183673 C88.6312108,77.4183673 87.7702199,76.5617693 87.7702199,75.505102 C87.7702199,74.4484348 88.6312108,73.5918367 89.6932968,73.5918367 Z M112.77022,73.5918367 C113.832306,73.5918367 114.693297,74.4484348 114.693297,75.505102 C114.693297,76.5617693 113.832306,77.4183673 112.77022,77.4183673 C111.708134,77.4183673 110.847143,76.5617693 110.847143,75.505102 C110.847143,74.4484348 111.708134,73.5918367 112.77022,73.5918367 Z M105.077912,73.5918367 C106.139998,73.5918367 107.000989,74.4484348 107.000989,75.505102 C107.000989,76.5617693 106.139998,77.4183673 105.077912,77.4183673 C104.015826,77.4183673 103.154835,76.5617693 103.154835,75.505102 C103.154835,74.4484348 104.015826,73.5918367 105.077912,73.5918367 Z M82.0009891,73.5918367 C83.0630752,73.5918367 83.9240661,74.4484348 83.9240661,75.505102 C83.9240661,76.5617693 83.0630752,77.4183673 82.0009891,77.4183673 C80.9389031,77.4183673 80.0779122,76.5617693 80.0779122,75.505102 C80.0779122,74.4484348 80.9389031,73.5918367 82.0009891,73.5918367 Z M97.3856045,73.5918367 C98.4476906,73.5918367 99.3086814,74.4484348 99.3086814,75.505102 C99.3086814,76.5617693 98.4476906,77.4183673 97.3856045,77.4183673 C96.3235185,77.4183673 95.4625276,76.5617693 95.4625276,75.505102 C95.4625276,74.4484348 96.3235185,73.5918367 97.3856045,73.5918367 Z M119.252505,74.0179657 C120.453447,74.4891225 121.469878,75.3280957 122.164066,76.3958536 L122.123048,76.4707637 C121.789267,77.0376571 121.170585,77.4183673 120.462528,77.4183673 C119.400442,77.4183673 118.539451,76.5617693 118.539451,75.505102 C118.539451,74.904615 118.817505,74.3687397 119.252505,74.0179657 Z M76.1615682,74.9986665 C76.2080871,75.1601901 76.2317584,75.3298958 76.2317584,75.505102 C76.2317584,76.5374436 75.4099532,77.3788216 74.3817049,77.4170134 C74.7681701,76.468784 75.3848033,75.6402374 76.1615682,74.9986665 Z" id="shadow-with-outline" fill="#000000" fill-rule="nonzero"></path>
        <path d="M193.216968,117.211975 C193.745951,117.415108 194.163939,117.833095 194.367072,118.362078 L200.162351,133.453679 L216.306156,134.301756 C217.409205,134.359702 218.256428,135.300874 218.198482,136.403922 C218.168755,136.969786 217.90039,137.496481 217.46007,137.853137 L204.897944,148.028336 L209.080085,163.644078 C209.365836,164.711045 208.732534,165.80764 207.665567,166.093391 C207.118212,166.239981 206.534366,166.147509 206.0591,165.838952 L193.589069,157.743027 C192.926699,157.312996 192.073301,157.312996 191.410931,157.743027 L178.9409,165.838952 C178.014455,166.440428 176.77583,166.176989 176.174354,165.250544 C175.865797,164.775278 175.773325,164.191432 175.919915,163.644078 L180.102056,148.028336 L167.53993,137.853137 C166.681605,137.157902 166.549394,135.898493 167.244629,135.040167 C167.601285,134.599847 168.12798,134.331482 168.693844,134.301756 L184.837649,133.453679 L190.632928,118.362078 C191.028899,117.330923 192.185813,116.816004 193.216968,117.211975 Z" id="Star-fill---yellow-100%" fill="#FFCF4B" fill-rule="nonzero"></path>
        <path d="M77,163.897959 C77.7552612,163.897959 78.3834104,164.439414 78.5136749,165.153442 L78.5384615,165.428571 L78.5384615,175.736818 C78.5384615,177.651735 80.098769,179.204082 82.0235057,179.204082 C82.8731745,179.204082 83.5619672,179.88936 83.5619672,180.734694 C83.5619672,181.580028 82.8731745,182.265306 82.0235057,182.265306 C78.5569997,182.265306 75.7183045,179.591043 75.4780144,176.203056 L75.4615385,175.736818 L75.4615385,165.428571 C75.4615385,164.583238 76.1503312,163.897959 77,163.897959 Z M185.467793,136.000645 C186.295864,135.976345 186.986847,136.627929 187.011148,137.455999 C187.03402,138.23536 186.458183,138.893287 185.699991,138.988253 L185.555794,138.999355 L174.904182,139.311941 C174.076111,139.336242 173.385127,138.684658 173.360826,137.856588 C173.337955,137.077227 173.913791,136.4193 174.671984,136.324334 L174.81618,136.313232 L185.467793,136.000645 Z" id="Highlight" fill="#FFFFFF" fill-rule="nonzero"></path>
    </g>
</svg>