<?xml version="1.0" encoding="UTF-8"?>
<svg width="288px" height="288px" viewBox="0 0 288 288" version="1.1" xmlns="http://www.w3.org/2000/svg" xmlns:xlink="http://www.w3.org/1999/xlink">
    <title>Adjust output +</title>
    <g id="Adjust-output-+" stroke="none" stroke-width="1" fill="none" fill-rule="evenodd">
        <rect id="Background" fill="#1652FF" fill-rule="nonzero" x="0" y="0" width="288" height="288"></rect>
        <path d="M140.43414,78.2281303 C141.777659,79.8403534 142.513426,81.8725797 142.513426,83.9712239 L142.513573,85.5244105 C145.958481,84.2894802 149.955229,85.2534377 152.43414,88.2281303 C153.777659,89.8403534 154.513426,91.8725797 154.513426,93.9712239 L154.513426,203.685794 C154.513426,208.64034 150.496973,212.656793 145.542427,212.656793 C143.443783,212.656793 141.411557,211.921026 139.799334,210.577506 L99.0053706,176.582537 L75.4564984,176.582537 C69.2056854,176.582537 63.9503234,172.320505 62.4378944,166.543922 C55.4820681,166.024135 50,160.21529 50,153.126039 L50,124.530979 C50,117.099161 56.0246795,111.074481 63.4564984,111.074481 L87.0053706,111.074481 L127.799334,77.0795116 C131.605522,73.9076886 137.262317,74.4219427 140.43414,78.2281303 Z M131.544276,81.264675 L131.388767,81.3868318 L89.0353391,116.681355 L63.4564984,116.681355 C59.2046405,116.681355 55.742347,120.061882 55.6107543,124.2818 L55.6068743,124.530979 L55.6068743,153.126039 C55.6068743,157.377896 58.9874013,160.84019 63.2073189,160.971783 L63.4564984,160.975663 L89.0353391,160.975663 L131.388767,196.270186 C131.993351,196.774006 132.755436,197.049919 133.542427,197.049919 C135.33845,197.049919 136.80575,195.642487 136.901574,193.870374 L136.906552,193.685794 L136.906552,83.9712239 C136.906552,83.2629315 136.683063,82.5748135 136.27108,82.0035313 L136.12682,81.8175638 C134.979866,80.4412192 132.96642,80.2127474 131.544276,81.264675 Z M202.2375,103.375 C204.754423,103.375 206.808029,105.358692 206.920176,107.847933 L206.925,108.0625 L206.925,108.375 L207.2375,108.375 C209.754423,108.375 211.808029,110.358692 211.920176,112.847933 L211.925,113.0625 L211.925,126.574 L225.4375,126.575 C227.880396,126.575 229.886828,128.44372 230.10528,130.829644 L230.120176,131.047933 L230.125,131.2625 L230.125,131.574 L230.4375,131.575 C232.880396,131.575 234.886828,133.44372 235.10528,135.829644 L235.120176,136.047933 L235.125,136.2625 L235.125,144.7375 C235.125,147.254423 233.141308,149.308029 230.652067,149.420176 L230.4375,149.425 L211.925,149.425 L211.925,167.9375 C211.925,170.380396 210.05628,172.386828 207.670356,172.60528 L207.452067,172.620176 L207.2375,172.625 L198.7625,172.625 C196.245577,172.625 194.191971,170.641308 194.079824,168.1522 L194.075,167.937644 L194.075,167.625 L193.7625,167.625 C191.245577,167.625 189.191971,165.641308 189.079824,163.1522 L189.075,162.937644 L189.074,149.425 L175.5625,149.425 C173.119604,149.425 171.113172,147.55628 170.89472,145.170356 L170.879824,144.952067 L170.875,144.7375 L170.875,144.425 L170.5625,144.425 C168.119604,144.425 166.113172,142.55628 165.89472,140.170356 L165.879824,139.952067 L165.875,139.7375 L165.875,131.2625 C165.875,128.745577 167.858692,126.691971 170.347933,126.579824 L170.5625,126.575 L189.075,126.575 L189.075,108.0625 C189.075,105.619604 190.94372,103.613172 193.329644,103.39472 L193.547933,103.379824 L193.7625,103.375 L202.2375,103.375 Z M202.2375,106.5 L193.7625,106.5 C192.947496,106.5 192.278233,107.123986 192.206385,107.920281 L192.2,108.0625 L192.2,129.7 L170.5625,129.7 C169.747496,129.7 169.078233,130.323986 169.006385,131.120281 L169,131.2625 L169,139.7375 C169,140.552504 169.623986,141.221767 170.420281,141.293615 L170.5625,141.3 L192.199,141.3 L192.2,162.9375 C192.2,163.752504 192.823986,164.421767 193.620281,164.493615 L193.7625,164.5 L202.2375,164.5 C203.052504,164.5 203.721767,163.876014 203.793615,163.079719 L203.8,162.9375 L203.8,141.3 L225.4375,141.3 C226.252504,141.3 226.921767,140.676014 226.993615,139.879719 L227,139.7375 L227,131.2625 C227,130.447496 226.376014,129.778233 225.579719,129.706385 L225.4375,129.7 L203.8,129.7 L203.8,108.0625 C203.8,107.199555 203.100445,106.5 202.2375,106.5 Z" id="Shadow-with-outline" fill="#000000" fill-rule="nonzero"></path>
        <path d="M131.544276,81.264675 C132.96642,80.2127474 134.979866,80.4412192 136.12682,81.8175638 L136.12682,81.8175638 L136.27108,82.0035313 C136.683063,82.5748135 136.906552,83.2629315 136.906552,83.9712239 L136.906552,83.9712239 L136.906552,193.685794 L136.901574,193.870374 C136.80575,195.642487 135.33845,197.049919 133.542427,197.049919 C132.755436,197.049919 131.993351,196.774006 131.388767,196.270186 L131.388767,196.270186 L89.0353391,160.975663 L63.4564984,160.975663 L63.2073189,160.971783 C58.9874013,160.84019 55.6068743,157.377896 55.6068743,153.126039 L55.6068743,153.126039 L55.6068743,124.530979 L55.6107543,124.2818 C55.742347,120.061882 59.2046405,116.681355 63.4564984,116.681355 L63.4564984,116.681355 L89.0353391,116.681355 L131.388767,81.3868318 Z M202.2375,106.5 C203.100445,106.5 203.8,107.199555 203.8,108.0625 L203.8,129.7 L225.4375,129.7 C226.300445,129.7 227,130.399555 227,131.2625 L227,139.7375 C227,140.600445 226.300445,141.3 225.4375,141.3 L203.8,141.3 L203.8,162.9375 C203.8,163.800445 203.100445,164.5 202.2375,164.5 L193.7625,164.5 C192.899555,164.5 192.2,163.800445 192.2,162.9375 L192.199,141.3 L170.5625,141.3 C169.699555,141.3 169,140.600445 169,139.7375 L169,131.2625 C169,130.399555 169.699555,129.7 170.5625,129.7 L192.2,129.7 L192.2,108.0625 C192.2,107.199555 192.899555,106.5 193.7625,106.5 L202.2375,106.5 Z" id="Icon-Fill" fill-opacity="0.7" fill="#FFFFFF" fill-rule="nonzero"></path>
        <path d="M175.000747,132 L184.375747,132.004668 C185.204174,132.00508 185.875412,132.676988 185.875,133.505415 C185.874612,134.285111 185.279405,134.925567 184.518717,134.997873 L184.374253,135.004668 L174.999253,135 C174.170826,134.999587 173.499588,134.32768 173.5,133.499253 C173.500388,132.719557 174.095595,132.079101 174.856283,132.006795 L175.000747,132 Z M128.166712,94.6299478 C129.050661,95.6823186 129.049048,97.1811505 128.229885,98.1849845 L127.884509,98.5363805 L98.9953137,122.986499 C97.8450142,123.960045 96.1063567,123.789505 95.1119135,122.605588 C94.2279641,121.553217 94.2295768,120.054385 95.0487403,119.050551 L95.3941165,118.699155 L124.283311,94.249037 C125.433611,93.275491 127.172268,93.4460306 128.166712,94.6299478 Z" id="Highlight" fill="#FFFFFF" fill-rule="nonzero"></path>
    </g>
</svg>