<?xml version="1.0" encoding="UTF-8"?>
<svg width="288px" height="288px" viewBox="0 0 288 288" version="1.1" xmlns="http://www.w3.org/2000/svg" xmlns:xlink="http://www.w3.org/1999/xlink">
    <title>Set mic=pc balance</title>
    <g id="Set-mic=pc-balance" stroke="none" stroke-width="1" fill="none" fill-rule="evenodd">
        <rect id="Background" fill="#1652FF" fill-rule="nonzero" x="0" y="0" width="288" height="288"></rect>
        <path d="M99.8,87.4 L100.194502,87.4127624 C103.247977,87.6109524 105.678846,90.0932951 105.795608,93.1682905 L105.8,93.4 L105.8,170.2 L105.787238,170.594502 C105.589048,173.647977 103.106705,176.078846 100.031709,176.195608 L99.8,176.2 L89,176.2 L88.7842985,176.219334 C88.264486,176.313682 87.8613332,176.742884 87.8063921,177.275386 L87.8,177.4 L87.8,191.8 L87.8193336,192.015702 C87.9136823,192.535514 88.3428839,192.938667 88.8753864,192.993608 L89,193 L105.8,193 L106.079891,193.016147 C107.273504,193.154783 108.2,194.169194 108.2,195.4 C108.2,196.670255 107.213161,197.710021 105.964319,197.794463 L105.8,197.8 L65,197.8 L64.7201093,197.783853 C63.5264965,197.645217 62.6,196.630806 62.6,195.4 C62.6,194.129745 63.586839,193.089979 64.8356813,193.005537 L65,193 L81.8,193 L82.0157015,192.980666 C82.535514,192.886318 82.9386668,192.457116 82.9936079,191.924614 L83,191.8 L83,177.4 L82.9806664,177.184298 C82.8863177,176.664486 82.4571161,176.261333 81.9246136,176.206392 L81.8,176.2 L71,176.2 L70.6054983,176.187238 C67.5520231,175.989048 65.1211543,173.506705 65.0043918,170.431709 L65,170.2 L65,93.4 L65.0127624,93.0054983 C65.2109524,89.9520231 67.6932951,87.5211543 70.7682905,87.4043918 L71,87.4 L99.8,87.4 Z M239.361702,108 C242.475648,108 245,110.468174 245,113.512821 L245,166.435897 C245,169.480544 242.475648,171.948718 239.361702,171.948718 L194.255319,171.948718 C193.63253,171.948718 193.12766,172.442353 193.12766,173.051282 L193.12766,188.487179 C193.12766,189.096109 193.63253,189.589744 194.255319,189.589744 L216.808511,189.589744 C217.4313,189.589744 217.93617,190.083378 217.93617,190.692308 L217.93617,192.897436 C217.93617,193.506365 217.4313,194 216.808511,194 L167.191489,194 C166.5687,194 166.06383,193.506365 166.06383,192.897436 L166.06383,190.692308 C166.06383,190.083378 166.5687,189.589744 167.191489,189.589744 L187.489362,189.589744 C188.112151,189.589744 188.617021,189.096109 188.617021,188.487179 L188.617021,173.051282 C188.617021,172.442353 188.112151,171.948718 187.489362,171.948718 L144.638298,171.948718 C141.524352,171.948718 139,169.480544 139,166.435897 L139,113.512821 C139,110.468174 141.524352,108 144.638298,108 L239.361702,108 Z M85.4,160.6 C82.7490332,160.6 80.6,162.749033 80.6,165.4 C80.6,168.050967 82.7490332,170.2 85.4,170.2 C88.0509668,170.2 90.2,168.050967 90.2,165.4 C90.2,162.749033 88.0509668,160.6 85.4,160.6 Z M191.397727,158.166667 C188.404093,158.166667 185.977273,160.573136 185.977273,163.541667 C185.977273,166.510197 188.404093,168.916667 191.397727,168.916667 C194.391362,168.916667 196.818182,166.510197 196.818182,163.541667 C196.818182,160.573136 194.391362,158.166667 191.397727,158.166667 Z M59,142.6 L59.2157015,142.619334 C59.735514,142.713682 60.1386668,143.142884 60.1936079,143.675386 L60.2,143.8 L60.2,153.4 L60.1806664,153.615702 C60.0863177,154.135514 59.6571161,154.538667 59.1246136,154.593608 L59,154.6 L56.6,154.6 L56.3842985,154.580666 C55.864486,154.486318 55.4613332,154.057116 55.4063921,153.524614 L55.4,153.4 L55.4,143.8 L55.4193336,143.584298 C55.5136823,143.064486 55.9428839,142.661333 56.4753864,142.606392 L56.6,142.6 L59,142.6 Z M114.2,142.6 L114.415702,142.619334 C114.935514,142.713682 115.338667,143.142884 115.393608,143.675386 L115.4,143.8 L115.4,153.4 L115.380666,153.615702 C115.286318,154.135514 114.857116,154.538667 114.324614,154.593608 L114.2,154.6 L111.8,154.6 L111.584298,154.580666 C111.064486,154.486318 110.661333,154.057116 110.606392,153.524614 L110.6,153.4 L110.6,143.8 L110.619334,143.584298 C110.713682,143.064486 111.142884,142.661333 111.675386,142.606392 L111.8,142.6 L114.2,142.6 Z" id="icon_fill-" fill="#FFFFFF" fill-rule="nonzero" opacity="0.7"></path>
        <path d="M238.625,105 C242.549018,105 245.791045,107.940723 246.296813,111.753284 C249.942581,112.241747 252.786789,115.291834 252.988547,119.049558 L253,119.477273 L253,172.931818 C253,177.093618 249.761694,180.493691 245.684309,180.715738 L245.259615,180.727273 L202.134615,180.727273 L202.134615,187.409091 L216.509615,187.409091 C218.126173,187.409091 219.472661,188.573622 219.767107,190.115149 L219.811737,190.428248 L219.826923,190.75 L219.826923,192.977273 C219.826923,193.368338 219.760207,193.74371 219.637612,194.092475 L223.144231,194.090909 C224.760788,194.090909 226.107276,195.255441 226.401722,196.796968 L226.446353,197.110066 L226.461538,197.431818 L226.461538,199.659091 C226.461538,201.395687 225.145921,202.822818 223.46371,202.984706 L223.144231,203 L174.490385,203 C172.766057,203 171.349008,201.675022 171.188263,199.980843 L171.173077,199.659091 L171.173077,197.431818 C171.173077,197.041581 171.239511,196.666971 171.36161,196.318833 L167.855769,196.318182 C166.131441,196.318182 164.714392,194.993204 164.553647,193.299025 L164.538462,192.977273 L164.538462,190.75 C164.538462,189.013404 165.854079,187.586273 167.53629,187.424385 L167.855769,187.409091 L186.653846,187.409091 L186.653846,180.727273 L152.375,180.727273 C148.450982,180.727273 145.208955,177.78655 144.703187,173.973989 C141.197641,173.504313 138.433182,170.666271 138.046355,167.108052 L138.011453,166.677715 L138,166.25 L138,112.795455 C138,108.633654 141.238306,105.233582 145.315691,105.011535 L145.740385,105 L238.625,105 Z M99.8,85 C101.997788,85 103.998437,85.8440498 105.495478,87.2256792 L105.691,87.412 L105.677597,87.3988414 L109.4,87.4 C113.884552,87.4 117.548303,90.9142662 117.787571,95.3391155 L117.8,95.8 L117.8,146.199 L117.805051,146.007652 C117.898937,144.224295 119.290682,142.784908 121.053296,142.61648 L121.4,142.6 L123.8,142.6 C125.671271,142.6 127.209077,144.027731 127.38352,145.853296 L127.4,146.2 L127.4,155.8 C127.4,157.671271 125.972269,159.209077 124.146704,159.38352 L123.8,159.4 L121.4,159.4 C119.528729,159.4 117.990923,157.972269 117.81648,156.146704 L117.8,155.8 L117.8,172.6 C117.8,177.084552 114.285734,180.748303 109.860884,180.987571 L109.4,181 L99.8,181 L99.7992433,190.599841 L90.2,190.6 L90.2,178.6 L90.2,178.6 L90.2,190.6 L105.8,190.6 C107.501543,190.6 108.996299,191.485361 109.84872,192.820536 L109.957,193 L109.957655,192.999671 L115.4,193 C117.803945,193 119.79514,194.767191 120.145353,197.073342 L120.186834,197.44177 L120.2,197.8 C120.2,200.330468 118.241893,202.403596 115.75823,202.586834 L115.4,202.6 L74.6,202.6 C72.8237156,202.6 71.2727838,201.635151 70.4427057,200.200953 L65,200.2 C62.3490332,200.2 60.2,198.050967 60.2,195.4 C60.2,192.869532 62.1581067,190.796404 64.6417704,190.613166 L65,190.6 L80.6,190.6 L80.599,181 L80.2745531,180.993811 C78.1150999,180.911546 76.1644798,180.014097 74.7216127,178.600384 L71,178.6 C66.6700876,178.6 63.105345,175.323918 62.6492901,171.115273 L62.6124293,170.660884 L62.6,170.2 L62.6,153.4 C62.6,155.271271 61.1722686,156.809077 59.346704,156.98352 L59,157 L56.6,157 C54.7287293,157 53.1909232,155.572269 53.0164798,153.746704 L53,153.4 L53,143.8 C53,141.928729 54.4277314,140.390923 56.253296,140.21648 L56.6,140.2 L59,140.2 C60.8712707,140.2 62.4090768,141.627731 62.5835202,143.453296 L62.6,143.798 L62.6,93.4 C62.6,88.9154478 66.1142662,85.2516965 70.5391155,85.0124293 L71,85 L99.8,85 Z M105.8,150.999 L64.999,150.999 L65,170.2 C65,173.38116 67.4756862,175.984093 70.6054983,176.187238 L71,176.2 L81.8,176.2 C82.3891037,176.2 82.8790601,176.6245 82.9806664,177.184298 L83,177.4 L83,191.8 C83,192.389104 82.5754996,192.87906 82.0157015,192.980666 L81.8,193 L65,193 C63.6745166,193 62.6,194.074517 62.6,195.4 C62.6,196.630806 63.5264965,197.645217 64.7201093,197.783853 L65,197.8 L105.8,197.8 C107.125483,197.8 108.2,196.725483 108.2,195.4 C108.2,194.169194 107.273504,193.154783 106.079891,193.016147 L105.8,193 L89,193 C88.4108963,193 87.9209399,192.5755 87.8193336,192.015702 L87.8,191.8 L87.8,177.4 C87.8,176.810896 88.2245004,176.32094 88.7842985,176.219334 L89,176.2 L99.8,176.2 C102.98116,176.2 105.584093,173.724314 105.787238,170.594502 L105.8,170.2 L105.8,150.999 Z M239.071033,107.390244 L145.939384,107.390244 C143.00023,107.390244 140.595315,109.697814 140.407625,112.61509 L140.395833,112.982802 L140.395833,166.671357 C140.395833,169.636494 142.683182,172.062669 145.574894,172.252019 L145.939384,172.263915 L188.070368,172.263915 C188.614656,172.263915 189.067339,172.659589 189.161215,173.181373 L189.179078,173.382427 L189.179078,189.041588 C189.179078,189.590688 188.786871,190.047373 188.26966,190.142079 L188.070368,190.1601 L168.113586,190.1601 C167.569298,190.1601 167.116615,190.555774 167.022739,191.077558 L167.004876,191.278612 L167.004876,193.515635 C167.004876,194.064734 167.397082,194.521419 167.914294,194.616126 L168.113586,194.634146 L216.896831,194.634146 C217.441118,194.634146 217.893801,194.238473 217.987678,193.716689 L218.005541,193.515635 L218.005541,191.278612 C218.005541,190.729512 217.613334,190.272827 217.096123,190.178121 L216.896831,190.1601 L194.722629,190.1601 C194.178341,190.1601 193.725658,189.764426 193.631781,189.242642 L193.613918,189.041588 L193.613918,173.382427 C193.613918,172.833327 194.006125,172.376642 194.523337,172.281936 L194.722629,172.263915 L239.071033,172.263915 C242.010186,172.263915 244.415101,169.956345 244.602792,167.039069 L244.614583,166.671357 L244.614583,112.982802 C244.614583,112.837675 244.609104,112.69384 244.598342,112.551494 L244.572623,112.291269 L244.503906,111.865355 L244.431763,111.553007 C243.838485,109.283084 241.866192,107.577959 239.473537,107.40476 L239.071033,107.390244 Z M85.4,160.6 C88.0509668,160.6 90.2,162.749033 90.2,165.4 C90.2,168.050967 88.0509668,170.2 85.4,170.2 C82.7490332,170.2 80.6,168.050967 80.6,165.4 C80.6,162.749033 82.7490332,160.6 85.4,160.6 Z M191.307292,157.585366 C194.284452,157.585366 196.697917,159.9932 196.697917,162.963415 C196.697917,165.933629 194.284452,168.341463 191.307292,168.341463 C188.330132,168.341463 185.916667,165.933629 185.916667,162.963415 C185.916667,159.9932 188.330132,157.585366 191.307292,157.585366 Z M114.2,142.6 L111.8,142.6 C111.210896,142.6 110.72094,143.0245 110.619334,143.584298 L110.6,143.8 L110.6,153.4 C110.6,153.989104 111.0245,154.47906 111.584298,154.580666 L111.8,154.6 L114.2,154.6 C114.789104,154.6 115.27906,154.1755 115.380666,153.615702 L115.4,153.4 L115.4,143.8 C115.4,143.210896 114.9755,142.72094 114.415702,142.619334 L114.2,142.6 Z M59,142.6 L56.6,142.6 C56.0108963,142.6 55.5209399,143.0245 55.4193336,143.584298 L55.4,143.8 L55.4,153.4 C55.4,153.989104 55.8245004,154.47906 56.3842985,154.580666 L56.6,154.6 L59,154.6 C59.5891037,154.6 60.0790601,154.1755 60.1806664,153.615702 L60.2,153.4 L60.2,143.8 C60.2,143.210896 59.7754996,142.72094 59.2157015,142.619334 L59,142.6 Z M99.8,87.4 L71,87.4 C67.8188398,87.4 65.2159072,89.8756862 65.0127624,93.0054983 L65,93.4 L64.999,148.599 L68.3,148.599 L68.2135301,148.470514 C68.0784389,148.245312 68.0007715,147.981726 68.0007715,147.7 C68.0007715,146.871573 68.6723444,146.2 69.5007715,146.2 C70.3291987,146.2 71.0007715,146.871573 71.0007715,147.7 C71.0007715,148.037638 70.8892171,148.349221 70.7009547,148.599902 L74.3,148.599 L74.2135301,148.470514 C74.0784389,148.245312 74.0007715,147.981726 74.0007715,147.7 C74.0007715,146.871573 74.6723444,146.2 75.5007715,146.2 C76.3291987,146.2 77.0007715,146.871573 77.0007715,147.7 C77.0007715,148.037638 76.8892171,148.349221 76.7009547,148.599902 L80.3,148.599 L80.2135301,148.470514 C80.0784389,148.245312 80.0007715,147.981726 80.0007715,147.7 C80.0007715,146.871573 80.6723444,146.2 81.5007715,146.2 C82.3291987,146.2 83.0007715,146.871573 83.0007715,147.7 C83.0007715,148.037638 82.8892171,148.349221 82.7009547,148.599902 L86.3,148.599 L86.2135301,148.470514 C86.0784389,148.245312 86.0007715,147.981726 86.0007715,147.7 C86.0007715,146.871573 86.6723444,146.2 87.5007715,146.2 C88.3291987,146.2 89.0007715,146.871573 89.0007715,147.7 C89.0007715,148.037638 88.8892171,148.349221 88.7009547,148.599902 L92.3,148.599 L92.2135301,148.470514 C92.0784389,148.245312 92.0007715,147.981726 92.0007715,147.7 C92.0007715,146.871573 92.6723444,146.2 93.5007715,146.2 C94.3291987,146.2 95.0007715,146.871573 95.0007715,147.7 C95.0007715,148.037638 94.8892171,148.349221 94.7009547,148.599902 L98.3,148.599 L98.2135301,148.470514 C98.0784389,148.245312 98.0007715,147.981726 98.0007715,147.7 C98.0007715,146.871573 98.6723444,146.2 99.5007715,146.2 C100.329199,146.2 101.000772,146.871573 101.000772,147.7 C101.000772,148.037638 100.889217,148.349221 100.700955,148.599902 L104.3,148.599 L104.21353,148.470514 C104.078439,148.245312 104.000772,147.981726 104.000772,147.7 C104.000772,147.209209 104.236481,146.773471 104.600873,146.499814 L104.6,148.599 L105.8,148.599 L105.8,93.4 C105.8,90.2188398 103.324314,87.6159072 100.194502,87.4127624 L99.8,87.4 Z M102.500772,142.72 C103.329199,142.72 104.000772,143.391573 104.000772,144.22 C104.000772,145.048427 103.329199,145.72 102.500772,145.72 C101.672344,145.72 101.000772,145.048427 101.000772,144.22 C101.000772,143.391573 101.672344,142.72 102.500772,142.72 Z M66.5007715,142.72 C67.3291987,142.72 68.0007715,143.391573 68.0007715,144.22 C68.0007715,145.048427 67.3291987,145.72 66.5007715,145.72 C66.397895,145.72 66.2974373,145.709643 66.2003843,145.689916 L66.2003843,142.750084 C66.2974373,142.730357 66.397895,142.72 66.5007715,142.72 Z M84.5007715,142.72 C85.3291987,142.72 86.0007715,143.391573 86.0007715,144.22 C86.0007715,145.048427 85.3291987,145.72 84.5007715,145.72 C83.6723444,145.72 83.0007715,145.048427 83.0007715,144.22 C83.0007715,143.391573 83.6723444,142.72 84.5007715,142.72 Z M78.5007715,142.72 C79.3291987,142.72 80.0007715,143.391573 80.0007715,144.22 C80.0007715,145.048427 79.3291987,145.72 78.5007715,145.72 C77.6723444,145.72 77.0007715,145.048427 77.0007715,144.22 C77.0007715,143.391573 77.6723444,142.72 78.5007715,142.72 Z M96.5007715,142.72 C97.3291987,142.72 98.0007715,143.391573 98.0007715,144.22 C98.0007715,145.048427 97.3291987,145.72 96.5007715,145.72 C95.6723444,145.72 95.0007715,145.048427 95.0007715,144.22 C95.0007715,143.391573 95.6723444,142.72 96.5007715,142.72 Z M90.5007715,142.72 C91.3291987,142.72 92.0007715,143.391573 92.0007715,144.22 C92.0007715,145.048427 91.3291987,145.72 90.5007715,145.72 C89.6723444,145.72 89.0007715,145.048427 89.0007715,144.22 C89.0007715,143.391573 89.6723444,142.72 90.5007715,142.72 Z M72.5007715,142.72 C73.3291987,142.72 74.0007715,143.391573 74.0007715,144.22 C74.0007715,145.048427 73.3291987,145.72 72.5007715,145.72 C71.6723444,145.72 71.0007715,145.048427 71.0007715,144.22 C71.0007715,143.391573 71.6723444,142.72 72.5007715,142.72 Z M75.5007715,139.48 C76.3291987,139.48 77.0007715,140.151573 77.0007715,140.98 C77.0007715,141.808427 76.3291987,142.48 75.5007715,142.48 C74.6723444,142.48 74.0007715,141.808427 74.0007715,140.98 C74.0007715,140.151573 74.6723444,139.48 75.5007715,139.48 Z M69.5007715,139.48 C70.3291987,139.48 71.0007715,140.151573 71.0007715,140.98 C71.0007715,141.808427 70.3291987,142.48 69.5007715,142.48 C68.6723444,142.48 68.0007715,141.808427 68.0007715,140.98 C68.0007715,140.151573 68.6723444,139.48 69.5007715,139.48 Z M99.5007715,139.48 C100.329199,139.48 101.000772,140.151573 101.000772,140.98 C101.000772,141.808427 100.329199,142.48 99.5007715,142.48 C98.6723444,142.48 98.0007715,141.808427 98.0007715,140.98 C98.0007715,140.151573 98.6723444,139.48 99.5007715,139.48 Z M87.5007715,139.48 C88.3291987,139.48 89.0007715,140.151573 89.0007715,140.98 C89.0007715,141.808427 88.3291987,142.48 87.5007715,142.48 C86.6723444,142.48 86.0007715,141.808427 86.0007715,140.98 C86.0007715,140.151573 86.6723444,139.48 87.5007715,139.48 Z M93.5007715,139.48 C94.3291987,139.48 95.0007715,140.151573 95.0007715,140.98 C95.0007715,141.808427 94.3291987,142.48 93.5007715,142.48 C92.6723444,142.48 92.0007715,141.808427 92.0007715,140.98 C92.0007715,140.151573 92.6723444,139.48 93.5007715,139.48 Z M81.5007715,139.48 C82.3291987,139.48 83.0007715,140.151573 83.0007715,140.98 C83.0007715,141.808427 82.3291987,142.48 81.5007715,142.48 C80.6723444,142.48 80.0007715,141.808427 80.0007715,140.98 C80.0007715,140.151573 80.6723444,139.48 81.5007715,139.48 Z M104.600873,139.779814 L104.600873,142.180186 C104.236481,141.906529 104.000772,141.470791 104.000772,140.98 C104.000772,140.489209 104.236481,140.053471 104.600873,139.779814 Z M78.5007715,135.88 C79.3291987,135.88 80.0007715,136.551573 80.0007715,137.38 C80.0007715,138.208427 79.3291987,138.88 78.5007715,138.88 C77.6723444,138.88 77.0007715,138.208427 77.0007715,137.38 C77.0007715,136.551573 77.6723444,135.88 78.5007715,135.88 Z M84.5007715,135.88 C85.3291987,135.88 86.0007715,136.551573 86.0007715,137.38 C86.0007715,138.208427 85.3291987,138.88 84.5007715,138.88 C83.6723444,138.88 83.0007715,138.208427 83.0007715,137.38 C83.0007715,136.551573 83.6723444,135.88 84.5007715,135.88 Z M66.5007715,135.88 C67.3291987,135.88 68.0007715,136.551573 68.0007715,137.38 C68.0007715,138.208427 67.3291987,138.88 66.5007715,138.88 C66.397895,138.88 66.2974373,138.869643 66.2003843,138.849916 L66.2003843,135.910084 C66.2974373,135.890357 66.397895,135.88 66.5007715,135.88 Z M72.5007715,135.88 C73.3291987,135.88 74.0007715,136.551573 74.0007715,137.38 C74.0007715,138.208427 73.3291987,138.88 72.5007715,138.88 C71.6723444,138.88 71.0007715,138.208427 71.0007715,137.38 C71.0007715,136.551573 71.6723444,135.88 72.5007715,135.88 Z M90.5007715,135.88 C91.3291987,135.88 92.0007715,136.551573 92.0007715,137.38 C92.0007715,138.208427 91.3291987,138.88 90.5007715,138.88 C89.6723444,138.88 89.0007715,138.208427 89.0007715,137.38 C89.0007715,136.551573 89.6723444,135.88 90.5007715,135.88 Z M96.5007715,135.88 C97.3291987,135.88 98.0007715,136.551573 98.0007715,137.38 C98.0007715,138.208427 97.3291987,138.88 96.5007715,138.88 C95.6723444,138.88 95.0007715,138.208427 95.0007715,137.38 C95.0007715,136.551573 95.6723444,135.88 96.5007715,135.88 Z M102.500772,135.88 C103.329199,135.88 104.000772,136.551573 104.000772,137.38 C104.000772,138.208427 103.329199,138.88 102.500772,138.88 C101.672344,138.88 101.000772,138.208427 101.000772,137.38 C101.000772,136.551573 101.672344,135.88 102.500772,135.88 Z M75.5007715,132.64 C76.3291987,132.64 77.0007715,133.311573 77.0007715,134.14 C77.0007715,134.968427 76.3291987,135.64 75.5007715,135.64 C74.6723444,135.64 74.0007715,134.968427 74.0007715,134.14 C74.0007715,133.311573 74.6723444,132.64 75.5007715,132.64 Z M87.5007715,132.64 C88.3291987,132.64 89.0007715,133.311573 89.0007715,134.14 C89.0007715,134.968427 88.3291987,135.64 87.5007715,135.64 C86.6723444,135.64 86.0007715,134.968427 86.0007715,134.14 C86.0007715,133.311573 86.6723444,132.64 87.5007715,132.64 Z M93.5007715,132.64 C94.3291987,132.64 95.0007715,133.311573 95.0007715,134.14 C95.0007715,134.968427 94.3291987,135.64 93.5007715,135.64 C92.6723444,135.64 92.0007715,134.968427 92.0007715,134.14 C92.0007715,133.311573 92.6723444,132.64 93.5007715,132.64 Z M99.5007715,132.64 C100.329199,132.64 101.000772,133.311573 101.000772,134.14 C101.000772,134.968427 100.329199,135.64 99.5007715,135.64 C98.6723444,135.64 98.0007715,134.968427 98.0007715,134.14 C98.0007715,133.311573 98.6723444,132.64 99.5007715,132.64 Z M81.5007715,132.64 C82.3291987,132.64 83.0007715,133.311573 83.0007715,134.14 C83.0007715,134.968427 82.3291987,135.64 81.5007715,135.64 C80.6723444,135.64 80.0007715,134.968427 80.0007715,134.14 C80.0007715,133.311573 80.6723444,132.64 81.5007715,132.64 Z M69.5007715,132.64 C70.3291987,132.64 71.0007715,133.311573 71.0007715,134.14 C71.0007715,134.968427 70.3291987,135.64 69.5007715,135.64 C68.6723444,135.64 68.0007715,134.968427 68.0007715,134.14 C68.0007715,133.311573 68.6723444,132.64 69.5007715,132.64 Z M104.600873,132.939814 L104.600873,135.340186 C104.236481,135.066529 104.000772,134.630791 104.000772,134.14 C104.000772,133.649209 104.236481,133.213471 104.600873,132.939814 Z M96.5007715,129.28 C97.3291987,129.28 98.0007715,129.951573 98.0007715,130.78 C98.0007715,131.608427 97.3291987,132.28 96.5007715,132.28 C95.6723444,132.28 95.0007715,131.608427 95.0007715,130.78 C95.0007715,129.951573 95.6723444,129.28 96.5007715,129.28 Z M90.5007715,129.28 C91.3291987,129.28 92.0007715,129.951573 92.0007715,130.78 C92.0007715,131.608427 91.3291987,132.28 90.5007715,132.28 C89.6723444,132.28 89.0007715,131.608427 89.0007715,130.78 C89.0007715,129.951573 89.6723444,129.28 90.5007715,129.28 Z M72.5007715,129.28 C73.3291987,129.28 74.0007715,129.951573 74.0007715,130.78 C74.0007715,131.608427 73.3291987,132.28 72.5007715,132.28 C71.6723444,132.28 71.0007715,131.608427 71.0007715,130.78 C71.0007715,129.951573 71.6723444,129.28 72.5007715,129.28 Z M66.5007715,129.28 C67.3291987,129.28 68.0007715,129.951573 68.0007715,130.78 C68.0007715,131.608427 67.3291987,132.28 66.5007715,132.28 C66.397895,132.28 66.2974373,132.269643 66.2003843,132.249916 L66.2003843,129.310084 C66.2974373,129.290357 66.397895,129.28 66.5007715,129.28 Z M84.5007715,129.28 C85.3291987,129.28 86.0007715,129.951573 86.0007715,130.78 C86.0007715,131.608427 85.3291987,132.28 84.5007715,132.28 C83.6723444,132.28 83.0007715,131.608427 83.0007715,130.78 C83.0007715,129.951573 83.6723444,129.28 84.5007715,129.28 Z M78.5007715,129.28 C79.3291987,129.28 80.0007715,129.951573 80.0007715,130.78 C80.0007715,131.608427 79.3291987,132.28 78.5007715,132.28 C77.6723444,132.28 77.0007715,131.608427 77.0007715,130.78 C77.0007715,129.951573 77.6723444,129.28 78.5007715,129.28 Z M102.500772,129.28 C103.329199,129.28 104.000772,129.951573 104.000772,130.78 C104.000772,131.608427 103.329199,132.28 102.500772,132.28 C101.672344,132.28 101.000772,131.608427 101.000772,130.78 C101.000772,129.951573 101.672344,129.28 102.500772,129.28 Z M75.5007715,126.04 C76.3291987,126.04 77.0007715,126.711573 77.0007715,127.54 C77.0007715,128.368427 76.3291987,129.04 75.5007715,129.04 C74.6723444,129.04 74.0007715,128.368427 74.0007715,127.54 C74.0007715,126.711573 74.6723444,126.04 75.5007715,126.04 Z M99.5007715,126.04 C100.329199,126.04 101.000772,126.711573 101.000772,127.54 C101.000772,128.368427 100.329199,129.04 99.5007715,129.04 C98.6723444,129.04 98.0007715,128.368427 98.0007715,127.54 C98.0007715,126.711573 98.6723444,126.04 99.5007715,126.04 Z M81.5007715,126.04 C82.3291987,126.04 83.0007715,126.711573 83.0007715,127.54 C83.0007715,128.368427 82.3291987,129.04 81.5007715,129.04 C80.6723444,129.04 80.0007715,128.368427 80.0007715,127.54 C80.0007715,126.711573 80.6723444,126.04 81.5007715,126.04 Z M93.5007715,126.04 C94.3291987,126.04 95.0007715,126.711573 95.0007715,127.54 C95.0007715,128.368427 94.3291987,129.04 93.5007715,129.04 C92.6723444,129.04 92.0007715,128.368427 92.0007715,127.54 C92.0007715,126.711573 92.6723444,126.04 93.5007715,126.04 Z M87.5007715,126.04 C88.3291987,126.04 89.0007715,126.711573 89.0007715,127.54 C89.0007715,128.368427 88.3291987,129.04 87.5007715,129.04 C86.6723444,129.04 86.0007715,128.368427 86.0007715,127.54 C86.0007715,126.711573 86.6723444,126.04 87.5007715,126.04 Z M69.5007715,126.04 C70.3291987,126.04 71.0007715,126.711573 71.0007715,127.54 C71.0007715,128.368427 70.3291987,129.04 69.5007715,129.04 C68.6723444,129.04 68.0007715,128.368427 68.0007715,127.54 C68.0007715,126.711573 68.6723444,126.04 69.5007715,126.04 Z M104.600873,126.339814 L104.600873,128.740186 C104.236481,128.466529 104.000772,128.030791 104.000772,127.54 C104.000772,127.049209 104.236481,126.613471 104.600873,126.339814 Z M78.5007715,122.44 C79.3291987,122.44 80.0007715,123.111573 80.0007715,123.94 C80.0007715,124.768427 79.3291987,125.44 78.5007715,125.44 C77.6723444,125.44 77.0007715,124.768427 77.0007715,123.94 C77.0007715,123.111573 77.6723444,122.44 78.5007715,122.44 Z M90.5007715,122.44 C91.3291987,122.44 92.0007715,123.111573 92.0007715,123.94 C92.0007715,124.768427 91.3291987,125.44 90.5007715,125.44 C89.6723444,125.44 89.0007715,124.768427 89.0007715,123.94 C89.0007715,123.111573 89.6723444,122.44 90.5007715,122.44 Z M96.5007715,122.44 C97.3291987,122.44 98.0007715,123.111573 98.0007715,123.94 C98.0007715,124.768427 97.3291987,125.44 96.5007715,125.44 C95.6723444,125.44 95.0007715,124.768427 95.0007715,123.94 C95.0007715,123.111573 95.6723444,122.44 96.5007715,122.44 Z M72.5007715,122.44 C73.3291987,122.44 74.0007715,123.111573 74.0007715,123.94 C74.0007715,124.768427 73.3291987,125.44 72.5007715,125.44 C71.6723444,125.44 71.0007715,124.768427 71.0007715,123.94 C71.0007715,123.111573 71.6723444,122.44 72.5007715,122.44 Z M66.5007715,122.44 C67.3291987,122.44 68.0007715,123.111573 68.0007715,123.94 C68.0007715,124.768427 67.3291987,125.44 66.5007715,125.44 C66.397895,125.44 66.2974373,125.429643 66.2003843,125.409916 L66.2003843,122.470084 C66.2974373,122.450357 66.397895,122.44 66.5007715,122.44 Z M102.500772,122.44 C103.329199,122.44 104.000772,123.111573 104.000772,123.94 C104.000772,124.768427 103.329199,125.44 102.500772,125.44 C101.672344,125.44 101.000772,124.768427 101.000772,123.94 C101.000772,123.111573 101.672344,122.44 102.500772,122.44 Z M84.5007715,122.44 C85.3291987,122.44 86.0007715,123.111573 86.0007715,123.94 C86.0007715,124.768427 85.3291987,125.44 84.5007715,125.44 C83.6723444,125.44 83.0007715,124.768427 83.0007715,123.94 C83.0007715,123.111573 83.6723444,122.44 84.5007715,122.44 Z M75.5007715,119.2 C76.3291987,119.2 77.0007715,119.871573 77.0007715,120.7 C77.0007715,121.528427 76.3291987,122.2 75.5007715,122.2 C74.6723444,122.2 74.0007715,121.528427 74.0007715,120.7 C74.0007715,119.871573 74.6723444,119.2 75.5007715,119.2 Z M93.5007715,119.2 C94.3291987,119.2 95.0007715,119.871573 95.0007715,120.7 C95.0007715,121.528427 94.3291987,122.2 93.5007715,122.2 C92.6723444,122.2 92.0007715,121.528427 92.0007715,120.7 C92.0007715,119.871573 92.6723444,119.2 93.5007715,119.2 Z M69.5007715,119.2 C70.3291987,119.2 71.0007715,119.871573 71.0007715,120.7 C71.0007715,121.528427 70.3291987,122.2 69.5007715,122.2 C68.6723444,122.2 68.0007715,121.528427 68.0007715,120.7 C68.0007715,119.871573 68.6723444,119.2 69.5007715,119.2 Z M81.5007715,119.2 C82.3291987,119.2 83.0007715,119.871573 83.0007715,120.7 C83.0007715,121.528427 82.3291987,122.2 81.5007715,122.2 C80.6723444,122.2 80.0007715,121.528427 80.0007715,120.7 C80.0007715,119.871573 80.6723444,119.2 81.5007715,119.2 Z M99.5007715,119.2 C100.329199,119.2 101.000772,119.871573 101.000772,120.7 C101.000772,121.528427 100.329199,122.2 99.5007715,122.2 C98.6723444,122.2 98.0007715,121.528427 98.0007715,120.7 C98.0007715,119.871573 98.6723444,119.2 99.5007715,119.2 Z M87.5007715,119.2 C88.3291987,119.2 89.0007715,119.871573 89.0007715,120.7 C89.0007715,121.528427 88.3291987,122.2 87.5007715,122.2 C86.6723444,122.2 86.0007715,121.528427 86.0007715,120.7 C86.0007715,119.871573 86.6723444,119.2 87.5007715,119.2 Z M104.600873,119.499814 L104.600873,121.900186 C104.236481,121.626529 104.000772,121.190791 104.000772,120.7 C104.000772,120.209209 104.236481,119.773471 104.600873,119.499814 Z M78.5007715,115.48 C79.3291987,115.48 80.0007715,116.151573 80.0007715,116.98 C80.0007715,117.808427 79.3291987,118.48 78.5007715,118.48 C77.6723444,118.48 77.0007715,117.808427 77.0007715,116.98 C77.0007715,116.151573 77.6723444,115.48 78.5007715,115.48 Z M66.5007715,115.48 C67.3291987,115.48 68.0007715,116.151573 68.0007715,116.98 C68.0007715,117.808427 67.3291987,118.48 66.5007715,118.48 C66.397895,118.48 66.2974373,118.469643 66.2003843,118.449916 L66.2003843,115.510084 C66.2974373,115.490357 66.397895,115.48 66.5007715,115.48 Z M90.5007715,115.48 C91.3291987,115.48 92.0007715,116.151573 92.0007715,116.98 C92.0007715,117.808427 91.3291987,118.48 90.5007715,118.48 C89.6723444,118.48 89.0007715,117.808427 89.0007715,116.98 C89.0007715,116.151573 89.6723444,115.48 90.5007715,115.48 Z M84.5007715,115.48 C85.3291987,115.48 86.0007715,116.151573 86.0007715,116.98 C86.0007715,117.808427 85.3291987,118.48 84.5007715,118.48 C83.6723444,118.48 83.0007715,117.808427 83.0007715,116.98 C83.0007715,116.151573 83.6723444,115.48 84.5007715,115.48 Z M102.500772,115.48 C103.329199,115.48 104.000772,116.151573 104.000772,116.98 C104.000772,117.808427 103.329199,118.48 102.500772,118.48 C101.672344,118.48 101.000772,117.808427 101.000772,116.98 C101.000772,116.151573 101.672344,115.48 102.500772,115.48 Z M72.5007715,115.48 C73.3291987,115.48 74.0007715,116.151573 74.0007715,116.98 C74.0007715,117.808427 73.3291987,118.48 72.5007715,118.48 C71.6723444,118.48 71.0007715,117.808427 71.0007715,116.98 C71.0007715,116.151573 71.6723444,115.48 72.5007715,115.48 Z M96.5007715,115.48 C97.3291987,115.48 98.0007715,116.151573 98.0007715,116.98 C98.0007715,117.808427 97.3291987,118.48 96.5007715,118.48 C95.6723444,118.48 95.0007715,117.808427 95.0007715,116.98 C95.0007715,116.151573 95.6723444,115.48 96.5007715,115.48 Z M75.5007715,112.24 C76.3291987,112.24 77.0007715,112.911573 77.0007715,113.74 C77.0007715,114.568427 76.3291987,115.24 75.5007715,115.24 C74.6723444,115.24 74.0007715,114.568427 74.0007715,113.74 C74.0007715,112.911573 74.6723444,112.24 75.5007715,112.24 Z M87.5007715,112.24 C88.3291987,112.24 89.0007715,112.911573 89.0007715,113.74 C89.0007715,114.568427 88.3291987,115.24 87.5007715,115.24 C86.6723444,115.24 86.0007715,114.568427 86.0007715,113.74 C86.0007715,112.911573 86.6723444,112.24 87.5007715,112.24 Z M93.5007715,112.24 C94.3291987,112.24 95.0007715,112.911573 95.0007715,113.74 C95.0007715,114.568427 94.3291987,115.24 93.5007715,115.24 C92.6723444,115.24 92.0007715,114.568427 92.0007715,113.74 C92.0007715,112.911573 92.6723444,112.24 93.5007715,112.24 Z M69.5007715,112.24 C70.3291987,112.24 71.0007715,112.911573 71.0007715,113.74 C71.0007715,114.568427 70.3291987,115.24 69.5007715,115.24 C68.6723444,115.24 68.0007715,114.568427 68.0007715,113.74 C68.0007715,112.911573 68.6723444,112.24 69.5007715,112.24 Z M81.5007715,112.24 C82.3291987,112.24 83.0007715,112.911573 83.0007715,113.74 C83.0007715,114.568427 82.3291987,115.24 81.5007715,115.24 C80.6723444,115.24 80.0007715,114.568427 80.0007715,113.74 C80.0007715,112.911573 80.6723444,112.24 81.5007715,112.24 Z M99.5007715,112.24 C100.329199,112.24 101.000772,112.911573 101.000772,113.74 C101.000772,114.568427 100.329199,115.24 99.5007715,115.24 C98.6723444,115.24 98.0007715,114.568427 98.0007715,113.74 C98.0007715,112.911573 98.6723444,112.24 99.5007715,112.24 Z M104.600873,112.539814 L104.600873,114.940186 C104.236481,114.666529 104.000772,114.230791 104.000772,113.74 C104.000772,113.249209 104.236481,112.813471 104.600873,112.539814 Z M78.5007715,108.64 C79.3291987,108.64 80.0007715,109.311573 80.0007715,110.14 C80.0007715,110.968427 79.3291987,111.64 78.5007715,111.64 C77.6723444,111.64 77.0007715,110.968427 77.0007715,110.14 C77.0007715,109.311573 77.6723444,108.64 78.5007715,108.64 Z M66.5007715,108.64 C67.3291987,108.64 68.0007715,109.311573 68.0007715,110.14 C68.0007715,110.968427 67.3291987,111.64 66.5007715,111.64 C66.397895,111.64 66.2974373,111.629643 66.2003843,111.609916 L66.2003843,108.670084 C66.2974373,108.650357 66.397895,108.64 66.5007715,108.64 Z M90.5007715,108.64 C91.3291987,108.64 92.0007715,109.311573 92.0007715,110.14 C92.0007715,110.968427 91.3291987,111.64 90.5007715,111.64 C89.6723444,111.64 89.0007715,110.968427 89.0007715,110.14 C89.0007715,109.311573 89.6723444,108.64 90.5007715,108.64 Z M102.500772,108.64 C103.329199,108.64 104.000772,109.311573 104.000772,110.14 C104.000772,110.968427 103.329199,111.64 102.500772,111.64 C101.672344,111.64 101.000772,110.968427 101.000772,110.14 C101.000772,109.311573 101.672344,108.64 102.500772,108.64 Z M84.5007715,108.64 C85.3291987,108.64 86.0007715,109.311573 86.0007715,110.14 C86.0007715,110.968427 85.3291987,111.64 84.5007715,111.64 C83.6723444,111.64 83.0007715,110.968427 83.0007715,110.14 C83.0007715,109.311573 83.6723444,108.64 84.5007715,108.64 Z M72.5007715,108.64 C73.3291987,108.64 74.0007715,109.311573 74.0007715,110.14 C74.0007715,110.968427 73.3291987,111.64 72.5007715,111.64 C71.6723444,111.64 71.0007715,110.968427 71.0007715,110.14 C71.0007715,109.311573 71.6723444,108.64 72.5007715,108.64 Z M96.5007715,108.64 C97.3291987,108.64 98.0007715,109.311573 98.0007715,110.14 C98.0007715,110.968427 97.3291987,111.64 96.5007715,111.64 C95.6723444,111.64 95.0007715,110.968427 95.0007715,110.14 C95.0007715,109.311573 95.6723444,108.64 96.5007715,108.64 Z M75.5007715,105.4 C76.3291987,105.4 77.0007715,106.071573 77.0007715,106.9 C77.0007715,107.728427 76.3291987,108.4 75.5007715,108.4 C74.6723444,108.4 74.0007715,107.728427 74.0007715,106.9 C74.0007715,106.071573 74.6723444,105.4 75.5007715,105.4 Z M80.4511453,105.828419 C81.1565707,106.497341 81.9966012,107.023701 82.9263588,107.363823 L82.8959351,107.452015 C82.6760533,108.007281 82.1342746,108.4 81.5007715,108.4 C80.6723444,108.4 80.0007715,107.728427 80.0007715,106.9 C80.0007715,106.480203 80.1732218,106.100683 80.4511453,105.828419 Z M88.9977413,106.838074 C89.0003408,106.858138 89.0007715,106.879019 89.0007715,106.9 C89.0007715,107.728427 88.3291987,108.4 87.5007715,108.4 C86.9873556,108.4 86.5341853,108.142057 86.2637831,107.748694 C87.2509973,107.630507 88.1756978,107.313203 88.9977413,106.838074 Z M93.5007715,105.4 C94.3291987,105.4 95.0007715,106.071573 95.0007715,106.9 C95.0007715,107.728427 94.3291987,108.4 93.5007715,108.4 C92.6723444,108.4 92.0007715,107.728427 92.0007715,106.9 C92.0007715,106.071573 92.6723444,105.4 93.5007715,105.4 Z M99.5007715,105.4 C100.329199,105.4 101.000772,106.071573 101.000772,106.9 C101.000772,107.728427 100.329199,108.4 99.5007715,108.4 C98.6723444,108.4 98.0007715,107.728427 98.0007715,106.9 C98.0007715,106.071573 98.6723444,105.4 99.5007715,105.4 Z M69.5007715,105.4 C70.3291987,105.4 71.0007715,106.071573 71.0007715,106.9 C71.0007715,107.728427 70.3291987,108.4 69.5007715,108.4 C68.6723444,108.4 68.0007715,107.728427 68.0007715,106.9 C68.0007715,106.071573 68.6723444,105.4 69.5007715,105.4 Z M104.600873,105.699814 L104.600873,108.100186 C104.236481,107.826529 104.000772,107.390791 104.000772,106.9 C104.000772,106.409209 104.236481,105.973471 104.600873,105.699814 Z M85.4396569,95.5600123 C86.47538,95.5600123 87.4723201,95.8677568 88.3215175,96.4497572 C89.1509876,97.0183074 89.7863387,97.8087553 90.1581827,98.7350376 L90.2264938,98.9152176 L90.2264938,98.9152176 L90.2880281,99.0986121 L90.1786748,99.3786095 L89.318559,99.8730734 L88.9662912,99.7239322 C88.9384403,99.6139725 88.9050624,99.5044465 88.8669495,99.3979718 C88.3528665,97.9612784 86.9753063,96.9952706 85.4396569,96.9952706 C83.4344774,96.9952706 81.8035542,98.6129875 81.8035542,100.600012 C81.8035542,102.587002 83.4344834,104.204713 85.4396569,104.204713 C86.2192545,104.204713 86.9620045,103.962925 87.5893862,103.504994 C88.1358333,103.10609 88.5522432,102.576579 88.7988699,101.987744 L88.872,101.792 L88.8296,101.896 L84.6632,99.532 L84.6632,101.6248 L86.1632657,100.877342 L86.9969892,101.350032 L86.9977322,101.767166 L84.3330653,103.155486 L83.4745263,102.670283 L83.3526093,102.461342 L83.3526093,98.6773945 L83.4735174,98.4690267 L84.5681991,97.9786846 L90.3189807,101.244444 L90.436644,101.495908 C90.2289492,102.643066 89.6199967,103.690175 88.7203025,104.446947 C87.8054573,105.216412 86.6405106,105.640012 85.4396569,105.640012 C84.0838234,105.640012 82.8078427,105.115772 81.8488504,104.164559 C80.8894649,103.212913 80.3604834,101.946168 80.3604834,100.600012 C80.3604834,99.253782 80.8894599,97.9870714 81.8488504,97.0355068 C82.8078301,96.0842632 84.0838087,95.5600123 85.4396569,95.5600123 Z M78.3461342,102.047874 C78.5420232,103.010089 78.9305499,103.902759 79.4693646,104.683764 L79.4084037,104.734339 C79.156411,104.926135 78.8418886,105.04 78.5007715,105.04 C77.6723444,105.04 77.0007715,104.368427 77.0007715,103.54 C77.0007715,102.763785 77.59036,102.125275 78.3461342,102.047874 Z M66.5007715,102.04 C67.3291987,102.04 68.0007715,102.711573 68.0007715,103.54 C68.0007715,104.368427 67.3291987,105.04 66.5007715,105.04 C66.397895,105.04 66.2974373,105.029643 66.2003843,105.009916 L66.2003843,102.070084 C66.2974373,102.050357 66.397895,102.04 66.5007715,102.04 Z M102.500772,102.04 C103.329199,102.04 104.000772,102.711573 104.000772,103.54 C104.000772,104.368427 103.329199,105.04 102.500772,105.04 C101.672344,105.04 101.000772,104.368427 101.000772,103.54 C101.000772,102.711573 101.672344,102.04 102.500772,102.04 Z M96.5007715,102.04 C97.3291987,102.04 98.0007715,102.711573 98.0007715,103.54 C98.0007715,104.368427 97.3291987,105.04 96.5007715,105.04 C95.6723444,105.04 95.0007715,104.368427 95.0007715,103.54 C95.0007715,102.711573 95.6723444,102.04 96.5007715,102.04 Z M72.5007715,102.04 C73.3291987,102.04 74.0007715,102.711573 74.0007715,103.54 C74.0007715,104.368427 73.3291987,105.04 72.5007715,105.04 C71.6723444,105.04 71.0007715,104.368427 71.0007715,103.54 C71.0007715,102.711573 71.6723444,102.04 72.5007715,102.04 Z M91.998634,103.485174 C92.0004325,103.502854 92.0007715,103.521387 92.0007715,103.54 C92.0007715,104.116172 91.6759165,104.616471 91.1993732,104.867729 C91.5146404,104.439989 91.7833165,103.976925 91.998634,103.485174 Z M75.5007715,98.8 C76.3291987,98.8 77.0007715,99.4715729 77.0007715,100.3 C77.0007715,101.128427 76.3291987,101.8 75.5007715,101.8 C74.6723444,101.8 74.0007715,101.128427 74.0007715,100.3 C74.0007715,99.4715729 74.6723444,98.8 75.5007715,98.8 Z M69.5007715,98.8 C70.3291987,98.8 71.0007715,99.4715729 71.0007715,100.3 C71.0007715,101.128427 70.3291987,101.8 69.5007715,101.8 C68.6723444,101.8 68.0007715,101.128427 68.0007715,100.3 C68.0007715,99.4715729 68.6723444,98.8 69.5007715,98.8 Z M93.5007715,98.8 C94.3291987,98.8 95.0007715,99.4715729 95.0007715,100.3 C95.0007715,101.128427 94.3291987,101.8 93.5007715,101.8 C93.1385689,101.8 92.8063504,101.671623 92.5471352,101.457888 C92.5828287,101.176433 92.6,100.890222 92.6,100.6 C92.6,100.126086 92.554213,99.6628663 92.4668214,99.2145231 C92.7354948,98.9573646 93.0997559,98.8 93.5007715,98.8 Z M99.5007715,98.8 C100.329199,98.8 101.000772,99.4715729 101.000772,100.3 C101.000772,101.128427 100.329199,101.8 99.5007715,101.8 C98.6723444,101.8 98.0007715,101.128427 98.0007715,100.3 C98.0007715,99.4715729 98.6723444,98.8 99.5007715,98.8 Z M104.600873,99.099814 L104.600873,101.500186 C104.236481,101.226529 104.000772,100.790791 104.000772,100.3 C104.000772,99.8092091 104.236481,99.3734712 104.600873,99.099814 Z M78.5007715,95.2 C79.0867132,95.2 79.5941861,95.5359644 79.8410652,96.025768 C79.3126585,96.6653281 78.8937942,97.3980087 78.6113819,98.195229 L78.5007715,98.2 C77.6723444,98.2 77.0007715,97.5284271 77.0007715,96.7 C77.0007715,95.8715729 77.6723444,95.2 78.5007715,95.2 Z M102.500772,95.2 C103.329199,95.2 104.000772,95.8715729 104.000772,96.7 C104.000772,97.5284271 103.329199,98.2 102.500772,98.2 C101.672344,98.2 101.000772,97.5284271 101.000772,96.7 C101.000772,95.8715729 101.672344,95.2 102.500772,95.2 Z M66.5007715,95.2 C67.3291987,95.2 68.0007715,95.8715729 68.0007715,96.7 C68.0007715,97.5284271 67.3291987,98.2 66.5007715,98.2 C66.397895,98.2 66.2974373,98.1896434 66.2003843,98.1699159 L66.2003843,95.2300841 C66.2974373,95.2103566 66.397895,95.2 66.5007715,95.2 Z M72.5007715,95.2 C73.3291987,95.2 74.0007715,95.8715729 74.0007715,96.7 C74.0007715,97.5284271 73.3291987,98.2 72.5007715,98.2 C71.6723444,98.2 71.0007715,97.5284271 71.0007715,96.7 C71.0007715,95.8715729 71.6723444,95.2 72.5007715,95.2 Z M96.5007715,95.2 C97.3291987,95.2 98.0007715,95.8715729 98.0007715,96.7 C98.0007715,97.5284271 97.3291987,98.2 96.5007715,98.2 C95.6723444,98.2 95.0007715,97.5284271 95.0007715,96.7 C95.0007715,95.8715729 95.6723444,95.2 96.5007715,95.2 Z M90.5007715,95.2 C91.3291987,95.2 92.0007715,95.8715729 92.0007715,96.7 C92.0007715,96.943655 91.942677,97.1737414 91.8395837,97.3771632 L91.7646298,97.2306986 C91.3632436,96.4740505 90.8308787,95.797523 90.1977555,95.2313363 C90.2947164,95.2106391 90.3965015,95.2 90.5007715,95.2 Z M75.5007715,91.96 C76.3291987,91.96 77.0007715,92.6315729 77.0007715,93.46 C77.0007715,94.2884271 76.3291987,94.96 75.5007715,94.96 C74.6723444,94.96 74.0007715,94.2884271 74.0007715,93.46 C74.0007715,92.6315729 74.6723444,91.96 75.5007715,91.96 Z M69.5007715,91.96 C70.3291987,91.96 71.0007715,92.6315729 71.0007715,93.46 C71.0007715,94.2884271 70.3291987,94.96 69.5007715,94.96 C68.6723444,94.96 68.0007715,94.2884271 68.0007715,93.46 C68.0007715,92.6315729 68.6723444,91.96 69.5007715,91.96 Z M93.5007715,91.96 C94.3291987,91.96 95.0007715,92.6315729 95.0007715,93.46 C95.0007715,94.2884271 94.3291987,94.96 93.5007715,94.96 C92.6723444,94.96 92.0007715,94.2884271 92.0007715,93.46 C92.0007715,92.6315729 92.6723444,91.96 93.5007715,91.96 Z M99.5007715,91.96 C100.329199,91.96 101.000772,92.6315729 101.000772,93.46 C101.000772,94.2884271 100.329199,94.96 99.5007715,94.96 C98.6723444,94.96 98.0007715,94.2884271 98.0007715,93.46 C98.0007715,92.6315729 98.6723444,91.96 99.5007715,91.96 Z M81.5007715,91.96 C82.3291987,91.96 83.0007715,92.6315729 83.0007715,93.46 C83.0007715,93.5868439 82.9850272,93.7100106 82.9553862,93.8276524 C82.2540328,94.0790145 81.6051127,94.4368274 81.0256163,94.880725 C80.4298065,94.6840865 80.0007715,94.1221465 80.0007715,93.46 C80.0007715,92.6315729 80.6723444,91.96 81.5007715,91.96 Z M104.486993,92.3544322 C104.56137,92.6912923 104.600772,93.0410448 104.600772,93.4 L104.600873,94.660186 C104.236481,94.3865288 104.000772,93.9507909 104.000772,93.46 C104.000772,93.0224362 104.188127,92.6286316 104.486993,92.3544322 Z M87.5007715,91.96 C88.3291987,91.96 89.0007715,92.6315729 89.0007715,93.46 C89.0007715,93.7466044 88.9203911,94.0144349 88.7809438,94.2421781 C87.9408207,93.7938428 87.0009901,93.5077028 86.0034341,93.4249284 L86.0007715,93.46 C86.0007715,92.6315729 86.6723444,91.96 87.5007715,91.96 Z M96.5007715,88.6 C97.3291987,88.6 98.0007715,89.2715729 98.0007715,90.1 C98.0007715,90.9284271 97.3291987,91.6 96.5007715,91.6 C95.6723444,91.6 95.0007715,90.9284271 95.0007715,90.1 C95.0007715,89.2715729 95.6723444,88.6 96.5007715,88.6 Z M101.55926,88.9322201 C102.497531,89.3021548 103.290637,89.9581236 103.831588,90.792705 L103.772433,90.8959117 C103.507181,91.3188224 103.036813,91.6 102.500772,91.6 C101.672344,91.6 101.000772,90.9284271 101.000772,90.1 C101.000772,89.6281527 101.218637,89.2071904 101.55926,88.9322201 Z M78.5007715,88.6 C79.3291987,88.6 80.0007715,89.2715729 80.0007715,90.1 C80.0007715,90.9284271 79.3291987,91.6 78.5007715,91.6 C77.6723444,91.6 77.0007715,90.9284271 77.0007715,90.1 C77.0007715,89.2715729 77.6723444,88.6 78.5007715,88.6 Z M84.5007715,88.6 C85.3291987,88.6 86.0007715,89.2715729 86.0007715,90.1 C86.0007715,90.9284271 85.3291987,91.6 84.5007715,91.6 C83.6723444,91.6 83.0007715,90.9284271 83.0007715,90.1 C83.0007715,89.2715729 83.6723444,88.6 84.5007715,88.6 Z M72.5007715,88.6 C73.3291987,88.6 74.0007715,89.2715729 74.0007715,90.1 C74.0007715,90.9284271 73.3291987,91.6 72.5007715,91.6 C71.6723444,91.6 71.0007715,90.9284271 71.0007715,90.1 C71.0007715,89.2715729 71.6723444,88.6 72.5007715,88.6 Z M90.5007715,88.6 C91.3291987,88.6 92.0007715,89.2715729 92.0007715,90.1 C92.0007715,90.9284271 91.3291987,91.6 90.5007715,91.6 C89.6723444,91.6 89.0007715,90.9284271 89.0007715,90.1 C89.0007715,89.2715729 89.6723444,88.6 90.5007715,88.6 Z M67.9452023,89.6980054 C67.9818576,89.8263642 68.0007715,89.9609733 68.0007715,90.1 C68.0007715,90.9115066 67.356352,91.572501 66.5513323,91.5991639 C66.8521972,90.8535595 67.3354008,90.2018989 67.9452023,89.6980054 Z M144.852339,22.400403 C146.351123,22.9759462 147.552893,24.1264253 148.195167,25.5893578 L148.302649,25.8507124 L149.999968,30.2712721 C151.586046,28.2711088 154.343289,27.4369103 156.852339,28.400403 C158.351123,28.9759462 159.552893,30.1264253 160.195167,31.5893578 L160.302649,31.8507124 L163.062,39.037 L166.717431,39.2298352 C169.811455,39.3923725 172.234544,41.871284 172.394418,44.897722 L178.717431,45.2298352 C181.876161,45.3957717 184.335599,47.9759809 184.402075,51.0883014 L184.402075,51.3114896 L184.394407,51.5363352 C184.310183,53.1396156 183.58738,54.6380847 182.394522,55.700995 L182.179172,55.8839787 L171.634434,64.4245715 L175.145351,77.5318541 C175.963174,80.5855299 174.271641,83.720099 171.33508,84.7463118 L171.118006,84.8176061 L170.901795,84.8797949 C169.350958,85.2951335 167.702471,85.0707592 166.32297,84.2647414 L166.082395,84.116477 L158.229953,79.0191403 C156.887359,79.2183428 155.511841,78.9565788 154.332114,78.2700732 L154.082395,78.116477 L153.321,77.622 L143.320472,84.116477 C140.678453,85.8317565 137.190149,85.2023477 135.301936,82.7485623 L135.156236,82.5510616 L135.020834,82.3512541 C134.146589,81.004667 133.850571,79.3675271 134.19085,77.8064703 L134.257516,77.5318541 L134.686,75.931 L131.320472,78.116477 C128.678453,79.8317565 125.190149,79.2023477 123.301936,76.7485623 L123.156236,76.5510616 L123.020834,76.3512541 C122.146589,75.004667 121.850571,73.3675271 122.19085,71.8064703 L122.257516,71.5318541 L125.767434,58.4245715 L115.223695,49.8839787 C112.779163,47.9039311 112.297863,44.3984964 114.039892,41.8452857 L114.186015,41.6404042 L114.337793,41.4450702 C115.348317,40.1974951 116.813855,39.4100613 118.40366,39.2512929 L118.685436,39.2298352 L132.235434,38.5175715 L137.100219,25.8507124 C138.288131,22.757247 141.758874,21.2124908 144.852339,22.400403 Z M140.971456,26.9974453 L140.89601,27.1408958 L140.834362,27.2846493 L135.039083,42.3762502 L118.895278,43.2243272 C118.329414,43.2540536 117.802719,43.5224183 117.446063,43.9627389 C116.78559,44.7781478 116.871886,45.9555352 117.618074,46.6673125 L117.741364,46.7757084 L130.30349,56.9509078 L126.121349,72.5666491 C125.974759,73.1140034 126.067231,73.6978498 126.375788,74.1731158 C126.94719,75.0532384 128.093619,75.3349983 129.001144,74.8452832 L129.142334,74.7615234 L141.612365,66.6655985 C142.227423,66.2662841 143.007193,66.2377616 143.645782,66.5800311 L143.790503,66.6655985 L156.260534,74.7615234 C156.7358,75.0700806 157.319646,75.1625528 157.867,75.0159627 C158.88547,74.7432007 159.508801,73.7316321 159.314834,72.7122494 L159.281519,72.5666491 L155.099378,56.9509078 L167.661504,46.7757084 C168.101824,46.419053 168.370189,45.8923576 168.399915,45.3264939 C168.455227,44.273584 167.685789,43.3681689 166.656359,43.2376358 L166.50759,43.2243272 L150.363785,42.3762502 L144.568505,27.2846493 C144.365372,26.7556669 143.947385,26.337679 143.418402,26.1345461 C142.488037,25.7772793 141.455295,26.1615359 140.971456,26.9974453 Z" id="shadow-with-outline" fill="#000000" fill-rule="nonzero"></path>
        <path d="M143.418402,26.1345461 C143.947384,26.337679 144.365372,26.7556669 144.568505,27.2846493 L150.363785,42.3762502 L166.50759,43.2243272 C167.610638,43.2822733 168.457861,44.2234454 168.399915,45.3264939 C168.370189,45.8923576 168.101824,46.419053 167.661503,46.7757084 L155.099378,56.9509078 L159.281519,72.5666491 C159.56727,73.6336169 158.933968,74.730212 157.867,75.0159627 C157.319646,75.1625528 156.7358,75.0700806 156.260534,74.7615234 L143.790503,66.6655985 C143.128133,66.2355676 142.274735,66.2355676 141.612364,66.6655985 L129.142334,74.7615234 C128.215889,75.3629997 126.977264,75.0995606 126.375788,74.1731158 C126.06723,73.6978498 125.974758,73.1140034 126.121348,72.5666491 L130.303489,56.9509078 L117.741364,46.7757084 C116.883039,46.0804734 116.750828,44.8210641 117.446063,43.9627389 C117.802718,43.5224183 118.329414,43.2540536 118.895277,43.2243272 L135.039083,42.3762502 L140.834362,27.2846493 C141.230333,26.2534941 142.387247,25.7385754 143.418402,26.1345461 Z" id="Star-fill---yellow-100%" fill="#FFCF4B" fill-rule="nonzero"></path>
        <path d="M159.736566,124.289777 C160.048784,124.633217 160.083475,125.166333 159.840639,125.551923 L159.736566,125.688945 L151.535405,134.710223 C151.18416,135.096592 150.614679,135.096592 150.263434,134.710223 C149.951216,134.366783 149.916525,133.833667 150.159361,133.448077 L150.263434,133.311055 L158.464595,124.289777 C158.81584,123.903408 159.385321,123.903408 159.736566,124.289777 Z M158.736566,118.289777 C159.048784,118.633217 159.083475,119.166333 158.840639,119.551923 L158.736566,119.688945 L150.535405,128.710223 C150.18416,129.096592 149.614679,129.096592 149.263434,128.710223 C148.951216,128.366783 148.916525,127.833667 149.159361,127.448077 L149.263434,127.311055 L157.464595,118.289777 C157.81584,117.903408 158.385321,117.903408 158.736566,118.289777 Z M68.6,159.4 C69.1891037,159.4 69.6790601,159.8245 69.7806664,160.384298 L69.8,160.6 L69.8,168.681666 C69.8,170.18296 71.0170398,171.4 72.5183344,171.4 C73.1810761,171.4 73.7183344,171.937258 73.7183344,172.6 C73.7183344,173.262742 73.1810761,173.8 72.5183344,173.8 C69.8144598,173.8 67.6002775,171.703378 67.4128512,169.047196 L67.4,168.681666 L67.4,160.6 C67.4,159.937258 67.9372583,159.4 68.6,159.4 Z M166.744408,117.298191 C167.047332,117.651602 167.08099,118.200196 166.845383,118.596982 L166.744408,118.737982 L162.489699,123.701809 C162.14891,124.099397 161.596381,124.099397 161.255592,123.701809 C160.952668,123.348398 160.91901,122.799804 161.154617,122.403018 L161.255592,122.262018 L165.510301,117.298191 C165.85109,116.900603 166.403619,116.900603 166.744408,117.298191 Z M135.669227,44.923217 C136.497297,44.8989161 137.188281,45.5505002 137.212582,46.3785708 C137.235454,47.1579314 136.659617,47.8158585 135.901425,47.9108248 L135.757228,47.921926 L125.105615,48.2345129 C124.277545,48.2588139 123.586561,47.6072298 123.56226,46.7791592 C123.539389,45.9997986 124.115225,45.3418714 124.873418,45.2469051 L125.017614,45.2358039 L135.669227,44.923217 Z" id="Highlight" fill="#FCFBFF" fill-rule="nonzero"></path>
    </g>
</svg>