<?xml version="1.0" encoding="UTF-8"?>
<svg width="288px" height="288px" viewBox="0 0 288 288" version="1.1" xmlns="http://www.w3.org/2000/svg" xmlns:xlink="http://www.w3.org/1999/xlink">
    <title>Adjust MIC&gt;pc balance</title>
    <g id="Adjust-MIC&gt;pc-balance" stroke="none" stroke-width="1" fill="none" fill-rule="evenodd">
        <rect id="Background" fill="#1652FF" fill-rule="nonzero" x="0" y="0" width="288" height="288"></rect>
        <g id="PC" opacity="0.4" transform="translate(129.000000, 105.000000)" fill-rule="nonzero">
            <path d="M99.5212766,2 C102.547092,2 105,4.46817382 105,7.51282051 L105,60.4358974 C105,63.4805441 102.547092,65.9487179 99.5212766,65.9487179 L55.6914894,65.9487179 C55.0863263,65.9487179 54.5957447,66.4423527 54.5957447,67.0512821 L54.5957447,82.4871795 C54.5957447,83.0961088 55.0863263,83.5897436 55.6914894,83.5897436 L77.606383,83.5897436 C78.2115461,83.5897436 78.7021277,84.0833784 78.7021277,84.6923077 L78.7021277,86.8974359 C78.7021277,87.5063652 78.2115461,88 77.606383,88 L29.393617,88 C28.7884539,88 28.2978723,87.5063652 28.2978723,86.8974359 L28.2978723,84.6923077 C28.2978723,84.0833784 28.7884539,83.5897436 29.393617,83.5897436 L49.1170213,83.5897436 C49.7221844,83.5897436 50.212766,83.0961088 50.212766,82.4871795 L50.212766,67.0512821 C50.212766,66.4423527 49.7221844,65.9487179 49.1170213,65.9487179 L7.4787234,65.9487179 C4.45290802,65.9487179 2,63.4805441 2,60.4358974 L2,7.51282051 C2,4.46817382 4.45290802,2 7.4787234,2 L99.5212766,2 Z M52.4042553,51.6153846 C49.3784399,51.6153846 46.9255319,54.0835584 46.9255319,57.1282051 C46.9255319,60.1728518 49.3784399,62.6410256 52.4042553,62.6410256 C55.4300707,62.6410256 57.8829787,60.1728518 57.8829787,57.1282051 C57.8829787,54.0835584 55.4300707,51.6153846 52.4042553,51.6153846 Z" id="icon_fill-" fill="#FFFFFF" opacity="0.7"></path>
            <path d="M99.75,0 C103.639896,0 106.853732,2.91071538 107.355102,6.68437294 C110.969167,7.16785145 113.788643,10.1868155 113.988646,13.9061951 L114,14.3295455 L114,67.2386364 C114,71.3579693 110.789853,74.7233469 106.747923,74.9431284 L106.326923,74.9545455 L63.5769231,74.9545455 L63.5769231,81.5681818 L77.8269231,81.5681818 C79.4294235,81.5681818 80.7642029,82.7208303 81.0560887,84.2466275 L81.100331,84.5565313 L81.1153846,84.875 L81.1153846,87.0795455 C81.1153846,87.4666205 81.0492486,87.8381624 80.9277198,88.1833679 L84.4038462,88.1818182 C86.0063466,88.1818182 87.341126,89.3344667 87.6330118,90.8602639 L87.677254,91.1701677 L87.6923077,91.4886364 L87.6923077,93.6931818 C87.6923077,95.4120573 86.38813,96.8246255 84.7205469,96.9848623 L84.4038462,97 L36.1730769,97 C34.4637431,97 33.0590164,95.6885422 32.899669,94.0116505 L32.8846154,93.6931818 L32.8846154,91.4886364 C32.8846154,91.1023814 32.9504715,90.7315938 33.0715086,90.3870084 L29.5961538,90.3863636 C27.8868201,90.3863636 26.4820933,89.0749058 26.322746,87.3980141 L26.3076923,87.0795455 L26.3076923,84.875 C26.3076923,83.1561245 27.61187,81.7435563 29.2794531,81.5833195 L29.5961538,81.5681818 L48.2307692,81.5681818 L48.2307692,74.9545455 L14.25,74.9545455 C10.3601041,74.9545455 7.14626835,72.0438301 6.64489843,68.2701725 C3.16983573,67.8052893 0.429415422,64.9962072 0.0459520445,61.4742968 L0.0113536606,61.0483503 L0,60.625 L0,7.71590909 C0,3.59657613 3.21014704,0.23119851 7.25207667,0.0114170383 L7.67307692,0 L99.75,0 Z M99.75,2.20454545 L7.67307692,2.20454545 C4.76720947,2.20454545 2.3895306,4.47861331 2.20396568,7.35353542 L2.19230769,7.71590909 L2.19230769,60.625 C2.19230769,63.5470884 4.45375186,65.9380398 7.31271484,66.1246406 L7.67307692,66.1363636 L49.3269231,66.1363636 C49.8650467,66.1363636 50.312603,66.526293 50.4054164,67.0405014 L50.4230769,67.2386364 L50.4230769,82.6704545 C50.4230769,83.211582 50.0353121,83.6616366 49.5239581,83.7549682 L49.3269231,83.7727273 L29.5961538,83.7727273 C29.0580302,83.7727273 28.610474,84.1626566 28.5176605,84.6768651 L28.5,84.875 L28.5,87.0795455 C28.5,87.6206729 28.8877648,88.0707275 29.3991188,88.1640591 L29.5961538,88.1818182 L77.8269231,88.1818182 C78.3650467,88.1818182 78.812603,87.7918889 78.9054164,87.2776804 L78.9230769,87.0795455 L78.9230769,84.875 C78.9230769,84.3338725 78.5353121,83.8838179 78.0239581,83.7904864 L77.8269231,83.7727273 L55.9038462,83.7727273 C55.3657226,83.7727273 54.9181663,83.3827979 54.8253528,82.8685895 L54.8076923,82.6704545 L54.8076923,67.2386364 C54.8076923,66.6975089 55.1954571,66.2474543 55.7068111,66.1541227 L55.9038462,66.1363636 L99.75,66.1363636 C102.655867,66.1363636 105.033546,63.8622958 105.219111,60.9873737 L105.230769,60.625 L105.230769,7.71590909 C105.230769,7.57288946 105.225352,7.4311422 105.214712,7.29086348 L105.189284,7.03441655 L105.121346,6.6146853 L105.050019,6.30687267 C104.46346,4.06990466 102.513504,2.38953527 100.147945,2.21885087 L99.75,2.20454545 Z M52.6153846,51.8068182 C55.6423299,51.8068182 58.0961538,54.2743397 58.0961538,57.3181818 C58.0961538,60.3620239 55.6423299,62.8295455 52.6153846,62.8295455 C49.5884394,62.8295455 47.1346154,60.3620239 47.1346154,57.3181818 C47.1346154,54.2743397 49.5884394,51.8068182 52.6153846,51.8068182 Z" id="shadow-with-outline" fill="#000000"></path>
            <path d="M23.057871,17.956267 C23.4434621,18.3424677 23.4863055,18.9419612 23.1864014,19.3755602 L23.057871,19.529643 L12.9293847,29.6741432 C12.4955947,30.1086189 11.7922823,30.1086189 11.3584924,29.6741432 C10.9729013,29.2879425 10.9300579,28.688449 11.229962,28.25485 L11.3584924,28.1007672 L21.4869788,17.956267 C21.9207687,17.5217913 22.6240811,17.5217913 23.057871,17.956267 Z M22.0247211,11.0018758 C22.4103122,11.3880765 22.4531556,11.9875699 22.1532515,12.421169 L22.0247211,12.5752518 L11.8962347,22.7197519 C11.4624448,23.1542277 10.7591324,23.1542277 10.3253424,22.7197519 C9.9397514,22.3335513 9.89690795,21.7340578 10.1968121,21.3004587 L10.3253424,21.146376 L20.4538288,11.0018758 C20.8876187,10.5674 21.5909312,10.5674 22.0247211,11.0018758 Z M31.6746576,9.32585683 C32.0602486,9.71205752 32.1030921,10.311551 31.8031879,10.74515 L31.6746576,10.8992328 L26.2588477,16.3236054 C25.8250578,16.7580811 25.1217454,16.7580811 24.6879554,16.3236054 C24.3023644,15.9374047 24.259521,15.3379112 24.5594251,14.9043122 L24.6879554,14.7502294 L30.1037653,9.32585683 C30.5375552,8.89138106 31.2408676,8.89138106 31.6746576,9.32585683 Z" id="Highlight" fill="#FCFBFF"></path>
        </g>
        <path d="M92.8,87.4 L93.1945017,87.4127624 C96.2479769,87.6109524 98.6788457,90.0932951 98.7956082,93.1682905 L98.8,93.4 L98.8,170.2 L98.7872376,170.594502 C98.5890476,173.647977 96.1067049,176.078846 93.0317095,176.195608 L92.8,176.2 L82,176.2 L81.7842985,176.219334 C81.264486,176.313682 80.8613332,176.742884 80.8063921,177.275386 L80.8,177.4 L80.8,191.8 L80.8193336,192.015702 C80.9136823,192.535514 81.3428839,192.938667 81.8753864,192.993608 L82,193 L98.8,193 L99.0798907,193.016147 C100.273504,193.154783 101.2,194.169194 101.2,195.4 C101.2,196.670255 100.213161,197.710021 98.9643187,197.794463 L98.8,197.8 L58,197.8 L57.7201093,197.783853 C56.5264965,197.645217 55.6,196.630806 55.6,195.4 C55.6,194.129745 56.586839,193.089979 57.8356813,193.005537 L58,193 L74.8,193 L75.0157015,192.980666 C75.535514,192.886318 75.9386668,192.457116 75.9936079,191.924614 L76,191.8 L76,177.4 L75.9806664,177.184298 C75.8863177,176.664486 75.4571161,176.261333 74.9246136,176.206392 L74.8,176.2 L64,176.2 L63.6054983,176.187238 C60.5520231,175.989048 58.1211543,173.506705 58.0043918,170.431709 L58,170.2 L58,93.4 L58.0127624,93.0054983 C58.2109524,89.9520231 60.6932951,87.5211543 63.7682905,87.4043918 L64,87.4 L92.8,87.4 Z M78.4,160.6 C75.7490332,160.6 73.6,162.749033 73.6,165.4 C73.6,168.050967 75.7490332,170.2 78.4,170.2 C81.0509668,170.2 83.2,168.050967 83.2,165.4 C83.2,162.749033 81.0509668,160.6 78.4,160.6 Z M52,142.6 L52.2157015,142.619334 C52.735514,142.713682 53.1386668,143.142884 53.1936079,143.675386 L53.2,143.8 L53.2,153.4 L53.1806664,153.615702 C53.0863177,154.135514 52.6571161,154.538667 52.1246136,154.593608 L52,154.6 L49.6,154.6 L49.3842985,154.580666 C48.864486,154.486318 48.4613332,154.057116 48.4063921,153.524614 L48.4,153.4 L48.4,143.8 L48.4193336,143.584298 C48.5136823,143.064486 48.9428839,142.661333 49.4753864,142.606392 L49.6,142.6 L52,142.6 Z M107.2,142.6 L107.415702,142.619334 C107.935514,142.713682 108.338667,143.142884 108.393608,143.675386 L108.4,143.8 L108.4,153.4 L108.380666,153.615702 C108.286318,154.135514 107.857116,154.538667 107.324614,154.593608 L107.2,154.6 L104.8,154.6 L104.584298,154.580666 C104.064486,154.486318 103.661333,154.057116 103.606392,153.524614 L103.6,153.4 L103.6,143.8 L103.619334,143.584298 C103.713682,143.064486 104.142884,142.661333 104.675386,142.606392 L104.8,142.6 L107.2,142.6 Z" id="Icon-fill" fill-opacity="0.8" fill="#FFFFFF" fill-rule="nonzero"></path>
        <path d="M92.8,85 C94.9977879,85 96.9984375,85.8440498 98.4954784,87.2256792 L98.694,87.415 L98.6775967,87.3988414 L102.4,87.4 C106.884552,87.4 110.548303,90.9142662 110.787571,95.3391155 L110.8,95.8 L110.8,146.2 C110.8,144.328729 112.227731,142.790923 114.053296,142.61648 L114.4,142.6 L116.8,142.6 C118.671271,142.6 120.209077,144.027731 120.38352,145.853296 L120.4,146.2 L120.4,155.8 C120.4,157.671271 118.972269,159.209077 117.146704,159.38352 L116.8,159.4 L114.4,159.4 C112.528729,159.4 110.990923,157.972269 110.81648,156.146704 L110.8,155.8 L110.8,172.6 C110.8,177.084552 107.285734,180.748303 102.860884,180.987571 L102.4,181 L92.8,181 L92.7992433,190.599841 L83.2,190.6 L83.2,178.6 L83.2,178.6 L83.2,190.6 L98.8,190.6 C100.501543,190.6 101.996299,191.485361 102.84872,192.820536 L102.957,193 L102.957655,192.999671 L108.4,193 C110.803945,193 112.79514,194.767191 113.145353,197.073342 L113.186834,197.44177 L113.2,197.8 C113.2,200.330468 111.241893,202.403596 108.75823,202.586834 L108.4,202.6 L67.6,202.6 C65.8237156,202.6 64.2727838,201.635151 63.4427057,200.200953 L58,200.2 C55.3490332,200.2 53.2,198.050967 53.2,195.4 C53.2,192.869532 55.1581067,190.796404 57.6417704,190.613166 L58,190.6 L73.6,190.6 L73.599,181 L73.2745531,180.993811 C71.1150999,180.911546 69.1644798,180.014097 67.7216127,178.600384 L64,178.6 C59.6700876,178.6 56.105345,175.323918 55.6492901,171.115273 L55.6124293,170.660884 L55.6,170.2 L55.6,153.4 C55.6,155.271271 54.1722686,156.809077 52.346704,156.98352 L52,157 L49.6,157 C47.7287293,157 46.1909232,155.572269 46.0164798,153.746704 L46,153.4 L46,143.8 C46,141.928729 47.4277314,140.390923 49.253296,140.21648 L49.6,140.2 L52,140.2 C53.8712707,140.2 55.4090768,141.627731 55.5835202,143.453296 L55.6,143.799 L55.6,93.4 C55.6,88.9154478 59.1142662,85.2516965 63.5391155,85.0124293 L64,85 L92.8,85 Z M98.8,150.999 L57.999,150.999 L58,170.2 C58,173.38116 60.4756862,175.984093 63.6054983,176.187238 L64,176.2 L74.8,176.2 C75.3891037,176.2 75.8790601,176.6245 75.9806664,177.184298 L76,177.4 L76,191.8 C76,192.389104 75.5754996,192.87906 75.0157015,192.980666 L74.8,193 L58,193 C56.6745166,193 55.6,194.074517 55.6,195.4 C55.6,196.630806 56.5264965,197.645217 57.7201093,197.783853 L58,197.8 L98.8,197.8 C100.125483,197.8 101.2,196.725483 101.2,195.4 C101.2,194.169194 100.273504,193.154783 99.0798907,193.016147 L98.8,193 L82,193 C81.4108963,193 80.9209399,192.5755 80.8193336,192.015702 L80.8,191.8 L80.8,177.4 C80.8,176.810896 81.2245004,176.32094 81.7842985,176.219334 L82,176.2 L92.8,176.2 C95.9811602,176.2 98.5840928,173.724314 98.7872376,170.594502 L98.8,170.2 L98.8,150.999 Z M78.4,160.6 C81.0509668,160.6 83.2,162.749033 83.2,165.4 C83.2,168.050967 81.0509668,170.2 78.4,170.2 C75.7490332,170.2 73.6,168.050967 73.6,165.4 C73.6,162.749033 75.7490332,160.6 78.4,160.6 Z M52,142.6 L49.6,142.6 C49.0108963,142.6 48.5209399,143.0245 48.4193336,143.584298 L48.4,143.8 L48.4,153.4 C48.4,153.989104 48.8245004,154.47906 49.3842985,154.580666 L49.6,154.6 L52,154.6 C52.5891037,154.6 53.0790601,154.1755 53.1806664,153.615702 L53.2,153.4 L53.2,143.8 C53.2,143.210896 52.7754996,142.72094 52.2157015,142.619334 L52,142.6 Z M107.2,142.6 L104.8,142.6 C104.210896,142.6 103.72094,143.0245 103.619334,143.584298 L103.6,143.8 L103.6,153.4 C103.6,153.989104 104.0245,154.47906 104.584298,154.580666 L104.8,154.6 L107.2,154.6 C107.789104,154.6 108.27906,154.1755 108.380666,153.615702 L108.4,153.4 L108.4,143.8 C108.4,143.210896 107.9755,142.72094 107.415702,142.619334 L107.2,142.6 Z M92.8,87.4 L64,87.4 C60.8188398,87.4 58.2159072,89.8756862 58.0127624,93.0054983 L58,93.4 L57.999,148.599 L61.3,148.599 L61.2135301,148.470514 C61.0784389,148.245312 61.0007715,147.981726 61.0007715,147.7 C61.0007715,146.871573 61.6723444,146.2 62.5007715,146.2 C63.3291987,146.2 64.0007715,146.871573 64.0007715,147.7 C64.0007715,148.037638 63.8892171,148.349221 63.7009547,148.599902 L67.3,148.599 L67.2135301,148.470514 C67.0784389,148.245312 67.0007715,147.981726 67.0007715,147.7 C67.0007715,146.871573 67.6723444,146.2 68.5007715,146.2 C69.3291987,146.2 70.0007715,146.871573 70.0007715,147.7 C70.0007715,148.037638 69.8892171,148.349221 69.7009547,148.599902 L73.3,148.599 L73.2135301,148.470514 C73.0784389,148.245312 73.0007715,147.981726 73.0007715,147.7 C73.0007715,146.871573 73.6723444,146.2 74.5007715,146.2 C75.3291987,146.2 76.0007715,146.871573 76.0007715,147.7 C76.0007715,148.037638 75.8892171,148.349221 75.7009547,148.599902 L79.3,148.599 L79.2135301,148.470514 C79.0784389,148.245312 79.0007715,147.981726 79.0007715,147.7 C79.0007715,146.871573 79.6723444,146.2 80.5007715,146.2 C81.3291987,146.2 82.0007715,146.871573 82.0007715,147.7 C82.0007715,148.037638 81.8892171,148.349221 81.7009547,148.599902 L85.3,148.599 L85.2135301,148.470514 C85.0784389,148.245312 85.0007715,147.981726 85.0007715,147.7 C85.0007715,146.871573 85.6723444,146.2 86.5007715,146.2 C87.3291987,146.2 88.0007715,146.871573 88.0007715,147.7 C88.0007715,148.037638 87.8892171,148.349221 87.7009547,148.599902 L91.3,148.599 L91.2135301,148.470514 C91.0784389,148.245312 91.0007715,147.981726 91.0007715,147.7 C91.0007715,146.871573 91.6723444,146.2 92.5007715,146.2 C93.3291987,146.2 94.0007715,146.871573 94.0007715,147.7 C94.0007715,148.037638 93.8892171,148.349221 93.7009547,148.599902 L97.3,148.599 L97.2135301,148.470514 C97.0784389,148.245312 97.0007715,147.981726 97.0007715,147.7 C97.0007715,147.209209 97.2364812,146.773471 97.6008729,146.499814 L97.6,148.599 L98.8,148.599 L98.8,93.4 C98.8,90.2188398 96.3243138,87.6159072 93.1945017,87.4127624 L92.8,87.4 Z M89.5007715,142.72 C90.3291987,142.72 91.0007715,143.391573 91.0007715,144.22 C91.0007715,145.048427 90.3291987,145.72 89.5007715,145.72 C88.6723444,145.72 88.0007715,145.048427 88.0007715,144.22 C88.0007715,143.391573 88.6723444,142.72 89.5007715,142.72 Z M71.5007715,142.72 C72.3291987,142.72 73.0007715,143.391573 73.0007715,144.22 C73.0007715,145.048427 72.3291987,145.72 71.5007715,145.72 C70.6723444,145.72 70.0007715,145.048427 70.0007715,144.22 C70.0007715,143.391573 70.6723444,142.72 71.5007715,142.72 Z M77.5007715,142.72 C78.3291987,142.72 79.0007715,143.391573 79.0007715,144.22 C79.0007715,145.048427 78.3291987,145.72 77.5007715,145.72 C76.6723444,145.72 76.0007715,145.048427 76.0007715,144.22 C76.0007715,143.391573 76.6723444,142.72 77.5007715,142.72 Z M59.5007715,142.72 C60.3291987,142.72 61.0007715,143.391573 61.0007715,144.22 C61.0007715,145.048427 60.3291987,145.72 59.5007715,145.72 C59.397895,145.72 59.2974373,145.709643 59.2003843,145.689916 L59.2003843,142.750084 C59.2974373,142.730357 59.397895,142.72 59.5007715,142.72 Z M65.5007715,142.72 C66.3291987,142.72 67.0007715,143.391573 67.0007715,144.22 C67.0007715,145.048427 66.3291987,145.72 65.5007715,145.72 C64.6723444,145.72 64.0007715,145.048427 64.0007715,144.22 C64.0007715,143.391573 64.6723444,142.72 65.5007715,142.72 Z M83.5007715,142.72 C84.3291987,142.72 85.0007715,143.391573 85.0007715,144.22 C85.0007715,145.048427 84.3291987,145.72 83.5007715,145.72 C82.6723444,145.72 82.0007715,145.048427 82.0007715,144.22 C82.0007715,143.391573 82.6723444,142.72 83.5007715,142.72 Z M95.5007715,142.72 C96.3291987,142.72 97.0007715,143.391573 97.0007715,144.22 C97.0007715,145.048427 96.3291987,145.72 95.5007715,145.72 C94.6723444,145.72 94.0007715,145.048427 94.0007715,144.22 C94.0007715,143.391573 94.6723444,142.72 95.5007715,142.72 Z M68.5007715,139.48 C69.3291987,139.48 70.0007715,140.151573 70.0007715,140.98 C70.0007715,141.808427 69.3291987,142.48 68.5007715,142.48 C67.6723444,142.48 67.0007715,141.808427 67.0007715,140.98 C67.0007715,140.151573 67.6723444,139.48 68.5007715,139.48 Z M80.5007715,139.48 C81.3291987,139.48 82.0007715,140.151573 82.0007715,140.98 C82.0007715,141.808427 81.3291987,142.48 80.5007715,142.48 C79.6723444,142.48 79.0007715,141.808427 79.0007715,140.98 C79.0007715,140.151573 79.6723444,139.48 80.5007715,139.48 Z M86.5007715,139.48 C87.3291987,139.48 88.0007715,140.151573 88.0007715,140.98 C88.0007715,141.808427 87.3291987,142.48 86.5007715,142.48 C85.6723444,142.48 85.0007715,141.808427 85.0007715,140.98 C85.0007715,140.151573 85.6723444,139.48 86.5007715,139.48 Z M92.5007715,139.48 C93.3291987,139.48 94.0007715,140.151573 94.0007715,140.98 C94.0007715,141.808427 93.3291987,142.48 92.5007715,142.48 C91.6723444,142.48 91.0007715,141.808427 91.0007715,140.98 C91.0007715,140.151573 91.6723444,139.48 92.5007715,139.48 Z M74.5007715,139.48 C75.3291987,139.48 76.0007715,140.151573 76.0007715,140.98 C76.0007715,141.808427 75.3291987,142.48 74.5007715,142.48 C73.6723444,142.48 73.0007715,141.808427 73.0007715,140.98 C73.0007715,140.151573 73.6723444,139.48 74.5007715,139.48 Z M62.5007715,139.48 C63.3291987,139.48 64.0007715,140.151573 64.0007715,140.98 C64.0007715,141.808427 63.3291987,142.48 62.5007715,142.48 C61.6723444,142.48 61.0007715,141.808427 61.0007715,140.98 C61.0007715,140.151573 61.6723444,139.48 62.5007715,139.48 Z M97.6008729,139.779814 L97.6008729,142.180186 C97.2364812,141.906529 97.0007715,141.470791 97.0007715,140.98 C97.0007715,140.489209 97.2364812,140.053471 97.6008729,139.779814 Z M71.5007715,135.88 C72.3291987,135.88 73.0007715,136.551573 73.0007715,137.38 C73.0007715,138.208427 72.3291987,138.88 71.5007715,138.88 C70.6723444,138.88 70.0007715,138.208427 70.0007715,137.38 C70.0007715,136.551573 70.6723444,135.88 71.5007715,135.88 Z M77.5007715,135.88 C78.3291987,135.88 79.0007715,136.551573 79.0007715,137.38 C79.0007715,138.208427 78.3291987,138.88 77.5007715,138.88 C76.6723444,138.88 76.0007715,138.208427 76.0007715,137.38 C76.0007715,136.551573 76.6723444,135.88 77.5007715,135.88 Z M59.5007715,135.88 C60.3291987,135.88 61.0007715,136.551573 61.0007715,137.38 C61.0007715,138.208427 60.3291987,138.88 59.5007715,138.88 C59.397895,138.88 59.2974373,138.869643 59.2003843,138.849916 L59.2003843,135.910084 C59.2974373,135.890357 59.397895,135.88 59.5007715,135.88 Z M65.5007715,135.88 C66.3291987,135.88 67.0007715,136.551573 67.0007715,137.38 C67.0007715,138.208427 66.3291987,138.88 65.5007715,138.88 C64.6723444,138.88 64.0007715,138.208427 64.0007715,137.38 C64.0007715,136.551573 64.6723444,135.88 65.5007715,135.88 Z M83.5007715,135.88 C84.3291987,135.88 85.0007715,136.551573 85.0007715,137.38 C85.0007715,138.208427 84.3291987,138.88 83.5007715,138.88 C82.6723444,138.88 82.0007715,138.208427 82.0007715,137.38 C82.0007715,136.551573 82.6723444,135.88 83.5007715,135.88 Z M89.5007715,135.88 C90.3291987,135.88 91.0007715,136.551573 91.0007715,137.38 C91.0007715,138.208427 90.3291987,138.88 89.5007715,138.88 C88.6723444,138.88 88.0007715,138.208427 88.0007715,137.38 C88.0007715,136.551573 88.6723444,135.88 89.5007715,135.88 Z M95.5007715,135.88 C96.3291987,135.88 97.0007715,136.551573 97.0007715,137.38 C97.0007715,138.208427 96.3291987,138.88 95.5007715,138.88 C94.6723444,138.88 94.0007715,138.208427 94.0007715,137.38 C94.0007715,136.551573 94.6723444,135.88 95.5007715,135.88 Z M68.5007715,132.64 C69.3291987,132.64 70.0007715,133.311573 70.0007715,134.14 C70.0007715,134.968427 69.3291987,135.64 68.5007715,135.64 C67.6723444,135.64 67.0007715,134.968427 67.0007715,134.14 C67.0007715,133.311573 67.6723444,132.64 68.5007715,132.64 Z M80.5007715,132.64 C81.3291987,132.64 82.0007715,133.311573 82.0007715,134.14 C82.0007715,134.968427 81.3291987,135.64 80.5007715,135.64 C79.6723444,135.64 79.0007715,134.968427 79.0007715,134.14 C79.0007715,133.311573 79.6723444,132.64 80.5007715,132.64 Z M86.5007715,132.64 C87.3291987,132.64 88.0007715,133.311573 88.0007715,134.14 C88.0007715,134.968427 87.3291987,135.64 86.5007715,135.64 C85.6723444,135.64 85.0007715,134.968427 85.0007715,134.14 C85.0007715,133.311573 85.6723444,132.64 86.5007715,132.64 Z M92.5007715,132.64 C93.3291987,132.64 94.0007715,133.311573 94.0007715,134.14 C94.0007715,134.968427 93.3291987,135.64 92.5007715,135.64 C91.6723444,135.64 91.0007715,134.968427 91.0007715,134.14 C91.0007715,133.311573 91.6723444,132.64 92.5007715,132.64 Z M74.5007715,132.64 C75.3291987,132.64 76.0007715,133.311573 76.0007715,134.14 C76.0007715,134.968427 75.3291987,135.64 74.5007715,135.64 C73.6723444,135.64 73.0007715,134.968427 73.0007715,134.14 C73.0007715,133.311573 73.6723444,132.64 74.5007715,132.64 Z M62.5007715,132.64 C63.3291987,132.64 64.0007715,133.311573 64.0007715,134.14 C64.0007715,134.968427 63.3291987,135.64 62.5007715,135.64 C61.6723444,135.64 61.0007715,134.968427 61.0007715,134.14 C61.0007715,133.311573 61.6723444,132.64 62.5007715,132.64 Z M97.6008729,132.939814 L97.6008729,135.340186 C97.2364812,135.066529 97.0007715,134.630791 97.0007715,134.14 C97.0007715,133.649209 97.2364812,133.213471 97.6008729,132.939814 Z M95.5007715,129.28 C96.3291987,129.28 97.0007715,129.951573 97.0007715,130.78 C97.0007715,131.608427 96.3291987,132.28 95.5007715,132.28 C94.6723444,132.28 94.0007715,131.608427 94.0007715,130.78 C94.0007715,129.951573 94.6723444,129.28 95.5007715,129.28 Z M71.5007715,129.28 C72.3291987,129.28 73.0007715,129.951573 73.0007715,130.78 C73.0007715,131.608427 72.3291987,132.28 71.5007715,132.28 C70.6723444,132.28 70.0007715,131.608427 70.0007715,130.78 C70.0007715,129.951573 70.6723444,129.28 71.5007715,129.28 Z M77.5007715,129.28 C78.3291987,129.28 79.0007715,129.951573 79.0007715,130.78 C79.0007715,131.608427 78.3291987,132.28 77.5007715,132.28 C76.6723444,132.28 76.0007715,131.608427 76.0007715,130.78 C76.0007715,129.951573 76.6723444,129.28 77.5007715,129.28 Z M59.5007715,129.28 C60.3291987,129.28 61.0007715,129.951573 61.0007715,130.78 C61.0007715,131.608427 60.3291987,132.28 59.5007715,132.28 C59.397895,132.28 59.2974373,132.269643 59.2003843,132.249916 L59.2003843,129.310084 C59.2974373,129.290357 59.397895,129.28 59.5007715,129.28 Z M65.5007715,129.28 C66.3291987,129.28 67.0007715,129.951573 67.0007715,130.78 C67.0007715,131.608427 66.3291987,132.28 65.5007715,132.28 C64.6723444,132.28 64.0007715,131.608427 64.0007715,130.78 C64.0007715,129.951573 64.6723444,129.28 65.5007715,129.28 Z M83.5007715,129.28 C84.3291987,129.28 85.0007715,129.951573 85.0007715,130.78 C85.0007715,131.608427 84.3291987,132.28 83.5007715,132.28 C82.6723444,132.28 82.0007715,131.608427 82.0007715,130.78 C82.0007715,129.951573 82.6723444,129.28 83.5007715,129.28 Z M89.5007715,129.28 C90.3291987,129.28 91.0007715,129.951573 91.0007715,130.78 C91.0007715,131.608427 90.3291987,132.28 89.5007715,132.28 C88.6723444,132.28 88.0007715,131.608427 88.0007715,130.78 C88.0007715,129.951573 88.6723444,129.28 89.5007715,129.28 Z M68.5007715,126.04 C69.3291987,126.04 70.0007715,126.711573 70.0007715,127.54 C70.0007715,128.368427 69.3291987,129.04 68.5007715,129.04 C67.6723444,129.04 67.0007715,128.368427 67.0007715,127.54 C67.0007715,126.711573 67.6723444,126.04 68.5007715,126.04 Z M92.5007715,126.04 C93.3291987,126.04 94.0007715,126.711573 94.0007715,127.54 C94.0007715,128.368427 93.3291987,129.04 92.5007715,129.04 C91.6723444,129.04 91.0007715,128.368427 91.0007715,127.54 C91.0007715,126.711573 91.6723444,126.04 92.5007715,126.04 Z M74.5007715,126.04 C75.3291987,126.04 76.0007715,126.711573 76.0007715,127.54 C76.0007715,128.368427 75.3291987,129.04 74.5007715,129.04 C73.6723444,129.04 73.0007715,128.368427 73.0007715,127.54 C73.0007715,126.711573 73.6723444,126.04 74.5007715,126.04 Z M62.5007715,126.04 C63.3291987,126.04 64.0007715,126.711573 64.0007715,127.54 C64.0007715,128.368427 63.3291987,129.04 62.5007715,129.04 C61.6723444,129.04 61.0007715,128.368427 61.0007715,127.54 C61.0007715,126.711573 61.6723444,126.04 62.5007715,126.04 Z M86.5007715,126.04 C87.3291987,126.04 88.0007715,126.711573 88.0007715,127.54 C88.0007715,128.368427 87.3291987,129.04 86.5007715,129.04 C85.6723444,129.04 85.0007715,128.368427 85.0007715,127.54 C85.0007715,126.711573 85.6723444,126.04 86.5007715,126.04 Z M80.5007715,126.04 C81.3291987,126.04 82.0007715,126.711573 82.0007715,127.54 C82.0007715,128.368427 81.3291987,129.04 80.5007715,129.04 C79.6723444,129.04 79.0007715,128.368427 79.0007715,127.54 C79.0007715,126.711573 79.6723444,126.04 80.5007715,126.04 Z M97.6008729,126.339814 L97.6008729,128.740186 C97.2364812,128.466529 97.0007715,128.030791 97.0007715,127.54 C97.0007715,127.049209 97.2364812,126.613471 97.6008729,126.339814 Z M83.5007715,122.44 C84.3291987,122.44 85.0007715,123.111573 85.0007715,123.94 C85.0007715,124.768427 84.3291987,125.44 83.5007715,125.44 C82.6723444,125.44 82.0007715,124.768427 82.0007715,123.94 C82.0007715,123.111573 82.6723444,122.44 83.5007715,122.44 Z M89.5007715,122.44 C90.3291987,122.44 91.0007715,123.111573 91.0007715,123.94 C91.0007715,124.768427 90.3291987,125.44 89.5007715,125.44 C88.6723444,125.44 88.0007715,124.768427 88.0007715,123.94 C88.0007715,123.111573 88.6723444,122.44 89.5007715,122.44 Z M65.5007715,122.44 C66.3291987,122.44 67.0007715,123.111573 67.0007715,123.94 C67.0007715,124.768427 66.3291987,125.44 65.5007715,125.44 C64.6723444,125.44 64.0007715,124.768427 64.0007715,123.94 C64.0007715,123.111573 64.6723444,122.44 65.5007715,122.44 Z M59.5007715,122.44 C60.3291987,122.44 61.0007715,123.111573 61.0007715,123.94 C61.0007715,124.768427 60.3291987,125.44 59.5007715,125.44 C59.397895,125.44 59.2974373,125.429643 59.2003843,125.409916 L59.2003843,122.470084 C59.2974373,122.450357 59.397895,122.44 59.5007715,122.44 Z M95.5007715,122.44 C96.3291987,122.44 97.0007715,123.111573 97.0007715,123.94 C97.0007715,124.768427 96.3291987,125.44 95.5007715,125.44 C94.6723444,125.44 94.0007715,124.768427 94.0007715,123.94 C94.0007715,123.111573 94.6723444,122.44 95.5007715,122.44 Z M77.5007715,122.44 C78.3291987,122.44 79.0007715,123.111573 79.0007715,123.94 C79.0007715,124.768427 78.3291987,125.44 77.5007715,125.44 C76.6723444,125.44 76.0007715,124.768427 76.0007715,123.94 C76.0007715,123.111573 76.6723444,122.44 77.5007715,122.44 Z M71.5007715,122.44 C72.3291987,122.44 73.0007715,123.111573 73.0007715,123.94 C73.0007715,124.768427 72.3291987,125.44 71.5007715,125.44 C70.6723444,125.44 70.0007715,124.768427 70.0007715,123.94 C70.0007715,123.111573 70.6723444,122.44 71.5007715,122.44 Z M68.5007715,119.2 C69.3291987,119.2 70.0007715,119.871573 70.0007715,120.7 C70.0007715,121.528427 69.3291987,122.2 68.5007715,122.2 C67.6723444,122.2 67.0007715,121.528427 67.0007715,120.7 C67.0007715,119.871573 67.6723444,119.2 68.5007715,119.2 Z M74.5007715,119.2 C75.3291987,119.2 76.0007715,119.871573 76.0007715,120.7 C76.0007715,121.528427 75.3291987,122.2 74.5007715,122.2 C73.6723444,122.2 73.0007715,121.528427 73.0007715,120.7 C73.0007715,119.871573 73.6723444,119.2 74.5007715,119.2 Z M62.5007715,119.2 C63.3291987,119.2 64.0007715,119.871573 64.0007715,120.7 C64.0007715,121.528427 63.3291987,122.2 62.5007715,122.2 C61.6723444,122.2 61.0007715,121.528427 61.0007715,120.7 C61.0007715,119.871573 61.6723444,119.2 62.5007715,119.2 Z M86.5007715,119.2 C87.3291987,119.2 88.0007715,119.871573 88.0007715,120.7 C88.0007715,121.528427 87.3291987,122.2 86.5007715,122.2 C85.6723444,122.2 85.0007715,121.528427 85.0007715,120.7 C85.0007715,119.871573 85.6723444,119.2 86.5007715,119.2 Z M92.5007715,119.2 C93.3291987,119.2 94.0007715,119.871573 94.0007715,120.7 C94.0007715,121.528427 93.3291987,122.2 92.5007715,122.2 C91.6723444,122.2 91.0007715,121.528427 91.0007715,120.7 C91.0007715,119.871573 91.6723444,119.2 92.5007715,119.2 Z M80.5007715,119.2 C81.3291987,119.2 82.0007715,119.871573 82.0007715,120.7 C82.0007715,121.528427 81.3291987,122.2 80.5007715,122.2 C79.6723444,122.2 79.0007715,121.528427 79.0007715,120.7 C79.0007715,119.871573 79.6723444,119.2 80.5007715,119.2 Z M97.6008729,119.499814 L97.6008729,121.900186 C97.2364812,121.626529 97.0007715,121.190791 97.0007715,120.7 C97.0007715,120.209209 97.2364812,119.773471 97.6008729,119.499814 Z M59.5007715,115.48 C60.3291987,115.48 61.0007715,116.151573 61.0007715,116.98 C61.0007715,117.808427 60.3291987,118.48 59.5007715,118.48 C59.397895,118.48 59.2974373,118.469643 59.2003843,118.449916 L59.2003843,115.510084 C59.2974373,115.490357 59.397895,115.48 59.5007715,115.48 Z M71.5007715,115.48 C72.3291987,115.48 73.0007715,116.151573 73.0007715,116.98 C73.0007715,117.808427 72.3291987,118.48 71.5007715,118.48 C70.6723444,118.48 70.0007715,117.808427 70.0007715,116.98 C70.0007715,116.151573 70.6723444,115.48 71.5007715,115.48 Z M83.5007715,115.48 C84.3291987,115.48 85.0007715,116.151573 85.0007715,116.98 C85.0007715,117.808427 84.3291987,118.48 83.5007715,118.48 C82.6723444,118.48 82.0007715,117.808427 82.0007715,116.98 C82.0007715,116.151573 82.6723444,115.48 83.5007715,115.48 Z M77.5007715,115.48 C78.3291987,115.48 79.0007715,116.151573 79.0007715,116.98 C79.0007715,117.808427 78.3291987,118.48 77.5007715,118.48 C76.6723444,118.48 76.0007715,117.808427 76.0007715,116.98 C76.0007715,116.151573 76.6723444,115.48 77.5007715,115.48 Z M95.5007715,115.48 C96.3291987,115.48 97.0007715,116.151573 97.0007715,116.98 C97.0007715,117.808427 96.3291987,118.48 95.5007715,118.48 C94.6723444,118.48 94.0007715,117.808427 94.0007715,116.98 C94.0007715,116.151573 94.6723444,115.48 95.5007715,115.48 Z M65.5007715,115.48 C66.3291987,115.48 67.0007715,116.151573 67.0007715,116.98 C67.0007715,117.808427 66.3291987,118.48 65.5007715,118.48 C64.6723444,118.48 64.0007715,117.808427 64.0007715,116.98 C64.0007715,116.151573 64.6723444,115.48 65.5007715,115.48 Z M89.5007715,115.48 C90.3291987,115.48 91.0007715,116.151573 91.0007715,116.98 C91.0007715,117.808427 90.3291987,118.48 89.5007715,118.48 C88.6723444,118.48 88.0007715,117.808427 88.0007715,116.98 C88.0007715,116.151573 88.6723444,115.48 89.5007715,115.48 Z M62.5007715,112.24 C63.3291987,112.24 64.0007715,112.911573 64.0007715,113.74 C64.0007715,114.568427 63.3291987,115.24 62.5007715,115.24 C61.6723444,115.24 61.0007715,114.568427 61.0007715,113.74 C61.0007715,112.911573 61.6723444,112.24 62.5007715,112.24 Z M80.5007715,112.24 C81.3291987,112.24 82.0007715,112.911573 82.0007715,113.74 C82.0007715,114.568427 81.3291987,115.24 80.5007715,115.24 C79.6723444,115.24 79.0007715,114.568427 79.0007715,113.74 C79.0007715,112.911573 79.6723444,112.24 80.5007715,112.24 Z M68.5007715,112.24 C69.3291987,112.24 70.0007715,112.911573 70.0007715,113.74 C70.0007715,114.568427 69.3291987,115.24 68.5007715,115.24 C67.6723444,115.24 67.0007715,114.568427 67.0007715,113.74 C67.0007715,112.911573 67.6723444,112.24 68.5007715,112.24 Z M74.5007715,112.24 C75.3291987,112.24 76.0007715,112.911573 76.0007715,113.74 C76.0007715,114.568427 75.3291987,115.24 74.5007715,115.24 C73.6723444,115.24 73.0007715,114.568427 73.0007715,113.74 C73.0007715,112.911573 73.6723444,112.24 74.5007715,112.24 Z M92.5007715,112.24 C93.3291987,112.24 94.0007715,112.911573 94.0007715,113.74 C94.0007715,114.568427 93.3291987,115.24 92.5007715,115.24 C91.6723444,115.24 91.0007715,114.568427 91.0007715,113.74 C91.0007715,112.911573 91.6723444,112.24 92.5007715,112.24 Z M86.5007715,112.24 C87.3291987,112.24 88.0007715,112.911573 88.0007715,113.74 C88.0007715,114.568427 87.3291987,115.24 86.5007715,115.24 C85.6723444,115.24 85.0007715,114.568427 85.0007715,113.74 C85.0007715,112.911573 85.6723444,112.24 86.5007715,112.24 Z M97.6008729,112.539814 L97.6008729,114.940186 C97.2364812,114.666529 97.0007715,114.230791 97.0007715,113.74 C97.0007715,113.249209 97.2364812,112.813471 97.6008729,112.539814 Z M71.5007715,108.64 C72.3291987,108.64 73.0007715,109.311573 73.0007715,110.14 C73.0007715,110.968427 72.3291987,111.64 71.5007715,111.64 C70.6723444,111.64 70.0007715,110.968427 70.0007715,110.14 C70.0007715,109.311573 70.6723444,108.64 71.5007715,108.64 Z M89.5007715,108.64 C90.3291987,108.64 91.0007715,109.311573 91.0007715,110.14 C91.0007715,110.968427 90.3291987,111.64 89.5007715,111.64 C88.6723444,111.64 88.0007715,110.968427 88.0007715,110.14 C88.0007715,109.311573 88.6723444,108.64 89.5007715,108.64 Z M59.5007715,108.64 C60.3291987,108.64 61.0007715,109.311573 61.0007715,110.14 C61.0007715,110.968427 60.3291987,111.64 59.5007715,111.64 C59.397895,111.64 59.2974373,111.629643 59.2003843,111.609916 L59.2003843,108.670084 C59.2974373,108.650357 59.397895,108.64 59.5007715,108.64 Z M83.5007715,108.64 C84.3291987,108.64 85.0007715,109.311573 85.0007715,110.14 C85.0007715,110.968427 84.3291987,111.64 83.5007715,111.64 C82.6723444,111.64 82.0007715,110.968427 82.0007715,110.14 C82.0007715,109.311573 82.6723444,108.64 83.5007715,108.64 Z M95.5007715,108.64 C96.3291987,108.64 97.0007715,109.311573 97.0007715,110.14 C97.0007715,110.968427 96.3291987,111.64 95.5007715,111.64 C94.6723444,111.64 94.0007715,110.968427 94.0007715,110.14 C94.0007715,109.311573 94.6723444,108.64 95.5007715,108.64 Z M77.5007715,108.64 C78.3291987,108.64 79.0007715,109.311573 79.0007715,110.14 C79.0007715,110.968427 78.3291987,111.64 77.5007715,111.64 C76.6723444,111.64 76.0007715,110.968427 76.0007715,110.14 C76.0007715,109.311573 76.6723444,108.64 77.5007715,108.64 Z M65.5007715,108.64 C66.3291987,108.64 67.0007715,109.311573 67.0007715,110.14 C67.0007715,110.968427 66.3291987,111.64 65.5007715,111.64 C64.6723444,111.64 64.0007715,110.968427 64.0007715,110.14 C64.0007715,109.311573 64.6723444,108.64 65.5007715,108.64 Z M68.5007715,105.4 C69.3291987,105.4 70.0007715,106.071573 70.0007715,106.9 C70.0007715,107.728427 69.3291987,108.4 68.5007715,108.4 C67.6723444,108.4 67.0007715,107.728427 67.0007715,106.9 C67.0007715,106.071573 67.6723444,105.4 68.5007715,105.4 Z M73.4511453,105.828419 C74.1565707,106.497341 74.9966012,107.023701 75.9263588,107.363823 L75.8959351,107.452015 C75.6760533,108.007281 75.1342746,108.4 74.5007715,108.4 C73.6723444,108.4 73.0007715,107.728427 73.0007715,106.9 C73.0007715,106.480203 73.1732218,106.100683 73.4511453,105.828419 Z M81.9977413,106.838074 C82.0003408,106.858138 82.0007715,106.879019 82.0007715,106.9 C82.0007715,107.728427 81.3291987,108.4 80.5007715,108.4 C79.9873556,108.4 79.5341853,108.142057 79.2637831,107.748694 C80.2509973,107.630507 81.1756978,107.313203 81.9977413,106.838074 Z M86.5007715,105.4 C87.3291987,105.4 88.0007715,106.071573 88.0007715,106.9 C88.0007715,107.728427 87.3291987,108.4 86.5007715,108.4 C85.6723444,108.4 85.0007715,107.728427 85.0007715,106.9 C85.0007715,106.071573 85.6723444,105.4 86.5007715,105.4 Z M92.5007715,105.4 C93.3291987,105.4 94.0007715,106.071573 94.0007715,106.9 C94.0007715,107.728427 93.3291987,108.4 92.5007715,108.4 C91.6723444,108.4 91.0007715,107.728427 91.0007715,106.9 C91.0007715,106.071573 91.6723444,105.4 92.5007715,105.4 Z M62.5007715,105.4 C63.3291987,105.4 64.0007715,106.071573 64.0007715,106.9 C64.0007715,107.728427 63.3291987,108.4 62.5007715,108.4 C61.6723444,108.4 61.0007715,107.728427 61.0007715,106.9 C61.0007715,106.071573 61.6723444,105.4 62.5007715,105.4 Z M97.6008729,105.699814 L97.6008729,108.100186 C97.2364812,107.826529 97.0007715,107.390791 97.0007715,106.9 C97.0007715,106.409209 97.2364812,105.973471 97.6008729,105.699814 Z M78.4396569,95.5600123 C79.47538,95.5600123 80.4723201,95.8677568 81.3215175,96.4497572 C82.1509876,97.0183074 82.7863387,97.8087553 83.1581827,98.7350376 C83.2058041,98.8535789 83.2494425,98.9757848 83.2880281,99.0986121 L83.2880281,99.0986121 L83.1786748,99.3786095 L82.318559,99.8730734 L81.9662912,99.7239322 C81.9384403,99.6139725 81.9050624,99.5044465 81.8669495,99.3979718 C81.3528665,97.9612784 79.9753063,96.9952706 78.4396569,96.9952706 C76.4344774,96.9952706 74.8035542,98.6129875 74.8035542,100.600012 C74.8035542,102.587002 76.4344834,104.204713 78.4396569,104.204713 C79.2192545,104.204713 79.9620045,103.962925 80.5893862,103.504994 C81.2041392,103.056227 81.6543139,102.442161 81.8833187,101.764289 L81.882,101.767 L81.8296,101.896 L77.6632,99.532 L77.6632,101.6248 L79.1632657,100.877342 L79.9969892,101.350032 L79.9977322,101.767166 L77.3330653,103.155486 L76.4745263,102.670283 L76.3526093,102.461342 L76.3526093,98.6773945 L76.4735174,98.4690267 L77.5681991,97.9786846 L83.3189807,101.244444 L83.436644,101.495908 C83.2289492,102.643066 82.6199967,103.690175 81.7203025,104.446947 C80.8054573,105.216412 79.6405106,105.640012 78.4396569,105.640012 C77.0838234,105.640012 75.8078427,105.115772 74.8488504,104.164559 C73.8894649,103.212913 73.3604834,101.946168 73.3604834,100.600012 C73.3604834,99.253782 73.8894599,97.9870714 74.8488504,97.0355068 C75.8078301,96.0842632 77.0838087,95.5600123 78.4396569,95.5600123 Z M71.3461342,102.047874 C71.5420232,103.010089 71.9305499,103.902759 72.4693646,104.683764 L72.4084037,104.734339 C72.156411,104.926135 71.8418886,105.04 71.5007715,105.04 C70.6723444,105.04 70.0007715,104.368427 70.0007715,103.54 C70.0007715,102.763785 70.59036,102.125275 71.3461342,102.047874 Z M65.5007715,102.04 C66.3291987,102.04 67.0007715,102.711573 67.0007715,103.54 C67.0007715,104.368427 66.3291987,105.04 65.5007715,105.04 C64.6723444,105.04 64.0007715,104.368427 64.0007715,103.54 C64.0007715,102.711573 64.6723444,102.04 65.5007715,102.04 Z M89.5007715,102.04 C90.3291987,102.04 91.0007715,102.711573 91.0007715,103.54 C91.0007715,104.368427 90.3291987,105.04 89.5007715,105.04 C88.6723444,105.04 88.0007715,104.368427 88.0007715,103.54 C88.0007715,102.711573 88.6723444,102.04 89.5007715,102.04 Z M95.5007715,102.04 C96.3291987,102.04 97.0007715,102.711573 97.0007715,103.54 C97.0007715,104.368427 96.3291987,105.04 95.5007715,105.04 C94.6723444,105.04 94.0007715,104.368427 94.0007715,103.54 C94.0007715,102.711573 94.6723444,102.04 95.5007715,102.04 Z M59.5007715,102.04 C60.3291987,102.04 61.0007715,102.711573 61.0007715,103.54 C61.0007715,104.368427 60.3291987,105.04 59.5007715,105.04 C59.397895,105.04 59.2974373,105.029643 59.2003843,105.009916 L59.2003843,102.070084 C59.2974373,102.050357 59.397895,102.04 59.5007715,102.04 Z M84.998634,103.485174 C85.0004325,103.502854 85.0007715,103.521387 85.0007715,103.54 C85.0007715,104.116172 84.6759165,104.616471 84.1993732,104.867729 C84.5146404,104.439989 84.7833165,103.976925 84.998634,103.485174 Z M68.5007715,98.8 C69.3291987,98.8 70.0007715,99.4715729 70.0007715,100.3 C70.0007715,101.128427 69.3291987,101.8 68.5007715,101.8 C67.6723444,101.8 67.0007715,101.128427 67.0007715,100.3 C67.0007715,99.4715729 67.6723444,98.8 68.5007715,98.8 Z M62.5007715,98.8 C63.3291987,98.8 64.0007715,99.4715729 64.0007715,100.3 C64.0007715,101.128427 63.3291987,101.8 62.5007715,101.8 C61.6723444,101.8 61.0007715,101.128427 61.0007715,100.3 C61.0007715,99.4715729 61.6723444,98.8 62.5007715,98.8 Z M92.5007715,98.8 C93.3291987,98.8 94.0007715,99.4715729 94.0007715,100.3 C94.0007715,101.128427 93.3291987,101.8 92.5007715,101.8 C91.6723444,101.8 91.0007715,101.128427 91.0007715,100.3 C91.0007715,99.4715729 91.6723444,98.8 92.5007715,98.8 Z M86.5007715,98.8 C87.3291987,98.8 88.0007715,99.4715729 88.0007715,100.3 C88.0007715,101.128427 87.3291987,101.8 86.5007715,101.8 C86.1385689,101.8 85.8063504,101.671623 85.5471352,101.457888 C85.5828287,101.176433 85.6,100.890222 85.6,100.6 C85.6,100.126086 85.554213,99.6628663 85.4668214,99.2145231 C85.7354948,98.9573646 86.0997559,98.8 86.5007715,98.8 Z M97.6008729,99.099814 L97.6008729,101.500186 C97.2364812,101.226529 97.0007715,100.790791 97.0007715,100.3 C97.0007715,99.8092091 97.2364812,99.3734712 97.6008729,99.099814 Z M71.5007715,95.2 C72.0867132,95.2 72.5941861,95.5359644 72.8410652,96.025768 C72.3126585,96.6653281 71.8937942,97.3980087 71.6113819,98.195229 L71.5007715,98.2 C70.6723444,98.2 70.0007715,97.5284271 70.0007715,96.7 C70.0007715,95.8715729 70.6723444,95.2 71.5007715,95.2 Z M95.5007715,95.2 C96.3291987,95.2 97.0007715,95.8715729 97.0007715,96.7 C97.0007715,97.5284271 96.3291987,98.2 95.5007715,98.2 C94.6723444,98.2 94.0007715,97.5284271 94.0007715,96.7 C94.0007715,95.8715729 94.6723444,95.2 95.5007715,95.2 Z M59.5007715,95.2 C60.3291987,95.2 61.0007715,95.8715729 61.0007715,96.7 C61.0007715,97.5284271 60.3291987,98.2 59.5007715,98.2 C59.397895,98.2 59.2974373,98.1896434 59.2003843,98.1699159 L59.2003843,95.2300841 C59.2974373,95.2103566 59.397895,95.2 59.5007715,95.2 Z M65.5007715,95.2 C66.3291987,95.2 67.0007715,95.8715729 67.0007715,96.7 C67.0007715,97.5284271 66.3291987,98.2 65.5007715,98.2 C64.6723444,98.2 64.0007715,97.5284271 64.0007715,96.7 C64.0007715,95.8715729 64.6723444,95.2 65.5007715,95.2 Z M89.5007715,95.2 C90.3291987,95.2 91.0007715,95.8715729 91.0007715,96.7 C91.0007715,97.5284271 90.3291987,98.2 89.5007715,98.2 C88.6723444,98.2 88.0007715,97.5284271 88.0007715,96.7 C88.0007715,95.8715729 88.6723444,95.2 89.5007715,95.2 Z M83.5007715,95.2 C84.3291987,95.2 85.0007715,95.8715729 85.0007715,96.7 C85.0007715,96.943655 84.942677,97.1737414 84.8395837,97.3771632 L84.7646298,97.2306986 C84.3632436,96.4740505 83.8308787,95.797523 83.1977555,95.2313363 C83.2947164,95.2106391 83.3965015,95.2 83.5007715,95.2 Z M68.5007715,91.96 C69.3291987,91.96 70.0007715,92.6315729 70.0007715,93.46 C70.0007715,94.2884271 69.3291987,94.96 68.5007715,94.96 C67.6723444,94.96 67.0007715,94.2884271 67.0007715,93.46 C67.0007715,92.6315729 67.6723444,91.96 68.5007715,91.96 Z M62.5007715,91.96 C63.3291987,91.96 64.0007715,92.6315729 64.0007715,93.46 C64.0007715,94.2884271 63.3291987,94.96 62.5007715,94.96 C61.6723444,94.96 61.0007715,94.2884271 61.0007715,93.46 C61.0007715,92.6315729 61.6723444,91.96 62.5007715,91.96 Z M86.5007715,91.96 C87.3291987,91.96 88.0007715,92.6315729 88.0007715,93.46 C88.0007715,94.2884271 87.3291987,94.96 86.5007715,94.96 C85.6723444,94.96 85.0007715,94.2884271 85.0007715,93.46 C85.0007715,92.6315729 85.6723444,91.96 86.5007715,91.96 Z M92.5007715,91.96 C93.3291987,91.96 94.0007715,92.6315729 94.0007715,93.46 C94.0007715,94.2884271 93.3291987,94.96 92.5007715,94.96 C91.6723444,94.96 91.0007715,94.2884271 91.0007715,93.46 C91.0007715,92.6315729 91.6723444,91.96 92.5007715,91.96 Z M74.5007715,91.96 C75.3291987,91.96 76.0007715,92.6315729 76.0007715,93.46 C76.0007715,93.5868439 75.9850272,93.7100106 75.9553862,93.8276524 C75.2540328,94.0790145 74.6051127,94.4368274 74.0256163,94.880725 C73.4298065,94.6840865 73.0007715,94.1221465 73.0007715,93.46 C73.0007715,92.6315729 73.6723444,91.96 74.5007715,91.96 Z M97.4869935,92.3544322 C97.5613698,92.6912923 97.6007715,93.0410448 97.6007715,93.4 L97.6008729,94.660186 C97.2364812,94.3865288 97.0007715,93.9507909 97.0007715,93.46 C97.0007715,93.0224362 97.1881274,92.6286316 97.4869935,92.3544322 Z M80.5007715,91.96 C81.3291987,91.96 82.0007715,92.6315729 82.0007715,93.46 C82.0007715,93.7466044 81.9203911,94.0144349 81.7809438,94.2421781 C80.9408207,93.7938428 80.0009901,93.5077028 79.0034341,93.4249284 L79.0007715,93.46 C79.0007715,92.6315729 79.6723444,91.96 80.5007715,91.96 Z M94.5592599,88.9322201 C95.4975308,89.3021548 96.2906367,89.9581236 96.8315882,90.792705 L96.7724327,90.8959117 C96.5071811,91.3188224 96.0368126,91.6 95.5007715,91.6 C94.6723444,91.6 94.0007715,90.9284271 94.0007715,90.1 C94.0007715,89.6281527 94.2186366,89.2071904 94.5592599,88.9322201 Z M71.5007715,88.6 C72.3291987,88.6 73.0007715,89.2715729 73.0007715,90.1 C73.0007715,90.9284271 72.3291987,91.6 71.5007715,91.6 C70.6723444,91.6 70.0007715,90.9284271 70.0007715,90.1 C70.0007715,89.2715729 70.6723444,88.6 71.5007715,88.6 Z M77.5007715,88.6 C78.3291987,88.6 79.0007715,89.2715729 79.0007715,90.1 C79.0007715,90.9284271 78.3291987,91.6 77.5007715,91.6 C76.6723444,91.6 76.0007715,90.9284271 76.0007715,90.1 C76.0007715,89.2715729 76.6723444,88.6 77.5007715,88.6 Z M65.5007715,88.6 C66.3291987,88.6 67.0007715,89.2715729 67.0007715,90.1 C67.0007715,90.9284271 66.3291987,91.6 65.5007715,91.6 C64.6723444,91.6 64.0007715,90.9284271 64.0007715,90.1 C64.0007715,89.2715729 64.6723444,88.6 65.5007715,88.6 Z M83.5007715,88.6 C84.3291987,88.6 85.0007715,89.2715729 85.0007715,90.1 C85.0007715,90.9284271 84.3291987,91.6 83.5007715,91.6 C82.6723444,91.6 82.0007715,90.9284271 82.0007715,90.1 C82.0007715,89.2715729 82.6723444,88.6 83.5007715,88.6 Z M89.5007715,88.6 C90.3291987,88.6 91.0007715,89.2715729 91.0007715,90.1 C91.0007715,90.9284271 90.3291987,91.6 89.5007715,91.6 C88.6723444,91.6 88.0007715,90.9284271 88.0007715,90.1 C88.0007715,89.2715729 88.6723444,88.6 89.5007715,88.6 Z M60.9452023,89.6980054 C60.9818576,89.8263642 61.0007715,89.9609733 61.0007715,90.1 C61.0007715,90.9115066 60.356352,91.572501 59.5513323,91.5991639 C59.8521972,90.8535595 60.3354008,90.2018989 60.9452023,89.6980054 Z" id="shadow-with-outline" fill="#000000" fill-rule="nonzero"></path>
        <path d="M61.6,159.4 C62.1891037,159.4 62.6790601,159.8245 62.7806664,160.384298 L62.8,160.6 L62.8,168.681666 C62.8,170.18296 64.0170398,171.4 65.5183344,171.4 C66.1810761,171.4 66.7183344,171.937258 66.7183344,172.6 C66.7183344,173.262742 66.1810761,173.8 65.5183344,173.8 C62.8144598,173.8 60.6002775,171.703378 60.4128512,169.047196 L60.4,168.681666 L60.4,160.6 C60.4,159.937258 60.9372583,159.4 61.6,159.4 Z" id="Highlight" fill="#FFFFFF" fill-rule="nonzero"></path>
    </g>
</svg>