<svg xmlns="http://www.w3.org/2000/svg" viewBox="0 0 144 144">
    <path id="background" fill="#B521FF" d="M0 0h144v144H0z"/>
    <path id="shadow-with-outline" fill="#000" d="M108 67c1.6192 0 2.9388 1.2828 2.998 2.8875L111 70v4h3c1.1046 0 2 .8954 2 2v6c0 1.1046-.8954 2-2 2H42c-1.1046 0-2-.8954-2-2v-3h-4c-1.6192 0-2.9388-1.2828-2.998-2.8875L33 76v-6c0-1.6192 1.2828-2.9388 2.8875-2.998L36 67h72zm0 2H36c-.5272 0-.959.408-.9973.9254L35 70v6c0 .5272.408.959.9254.9973L36 77h72c.5272 0 .959-.408.9973-.9254L109 76v-6c0-.5272-.408-.959-.9254-.9973L108 69z"/>
    <path id="Icon-fill-" fill="#FFF" d="M36 69h72c.5523 0 1 .4477 1 1v6c0 .5523-.4477 1-1 1H36c-.5523 0-1-.4477-1-1v-6c0-.5523.4477-1 1-1z" opacity=".7"/>
    <path id="highlight" fill="#FFF" d="M52.7984 69.5026c.5509-.0398 1.0297.3745 1.0695.9253.0354.4896-.288.9224-.7472 1.0405l-.178.029-13.8343 1c-.5509.0398-1.0297-.3745-1.0695-.9253-.0354-.4896.288-.9224.7471-1.0405l.1782-.029 13.8342-1z" transform="rotate(4.134 45.953 71)"/>
</svg>