<svg xmlns="http://www.w3.org/2000/svg" width="144" height="144" viewBox="0 0 144 144">
  <g id="Monitor-Output-Toggle-Headphone" fill="none" fill-rule="evenodd" stroke="none" stroke-width="1">
    <rect id="background" width="144" height="144" x="0" y="0" fill="#1E183C" fill-rule="nonzero"/>
    <path id="headphone_shadow-with-outline" fill="#000" d="M68,37 C72.6495,37 76.4755,40.526 76.9505,45.0495 C81.419,45.5185 84.914,49.2575 84.9985,53.8305 L85,54 L85,106 C85,110.9155 81.0595,114.9105 76.1655,114.9985 L76,115 L24,115 C19.3505,115 15.5245,111.474 15.0495,106.95 C10.664,106.49 7.2165,102.88 7.01,98.4235 L7,98 L7,46 C7,41.1715 10.8025,37.231 15.5765,37.01 L16,37 L68,37 Z M68,39 L16,39 L15.8405,39.002 C12.23,39.0825 9.2945,41.8965 9.021,45.456 L9.0105,45.616 L9,46 L9,98 L9.002,98.1595 C9.0825,101.77 11.8965,104.7055 15.456,104.979 L15.616,104.9895 L16,105 L68,105 L68.1595,104.998 C71.77,104.9175 74.7055,102.1035 74.979,98.544 L74.9895,98.384 L75,98 L75,46 L74.998,45.8405 C74.9175,42.23 72.1035,39.2945 68.544,39.021 L68.384,39.0105 L68,39 Z M30.3665,75.68 C32.071,75.68 33.4765,76.959 33.676,78.61 L33.688,78.7255 L33.7,79.0135 L33.6985,93.067 L33.6805,93.3755 L33.6645,93.4995 C33.4475,94.982 32.263,96.132 30.7915,96.32 L30.6645,96.3335 L30.3665,96.3465 L25.646,96.345 L25.338,96.327 L25.2135,96.3115 C23.731,96.0945 22.581,94.91 22.3935,93.438 L22.38,93.3115 L22.3665,93.0135 L22.368,78.9595 L22.386,78.6515 L22.402,78.527 C22.619,77.0445 23.8035,75.8945 25.275,75.707 L25.402,75.693 L25.7,75.68 L30.3665,75.68 L30.3665,75.68 Z M58.3665,75.68 C60.071,75.68 61.4765,76.959 61.676,78.61 L61.688,78.7255 L61.7,79.0135 L61.6985,93.067 L61.6805,93.3755 L61.6645,93.4995 C61.4475,94.982 60.263,96.132 58.7915,96.32 L58.6645,96.3335 L58.3665,96.3465 L53.646,96.345 L53.338,96.327 L53.2135,96.3115 C51.731,96.0945 50.581,94.91 50.3935,93.438 L50.38,93.3115 L50.3665,93.0135 L50.368,78.9595 L50.386,78.6515 L50.402,78.527 C50.619,77.0445 51.8035,75.8945 53.275,75.707 L53.402,75.693 L53.7,75.68 L58.3665,75.68 L58.3665,75.68 Z M42.0335,47.68 C54.886,47.68 65.4505,57.659 66.3105,70.3555 L66.3335,70.741 L66.3575,71.3465 L66.3665,72.0135 L66.3635,84.927 L66.3385,85.197 L66.319,85.3 C66.108,86.29 65.2305,87.0135 64.2,87.0135 C63.264,87.0135 62.4525,86.416 62.146,85.499 L62.114,85.396 L62.056,85.1455 L62.0335,84.8465 L62.0335,72.0265 L62.026,71.4715 L62.015,71.1475 C61.561,60.484 52.7685,52.0135 42.0335,52.0135 C31.5005,52.0135 22.835,60.168 22.086,70.538 L22.066,70.853 L22.042,71.4085 L22.0335,72.0135 L22.03,84.927 L22.005,85.197 L21.9855,85.3 C21.7745,86.29 20.897,87.0135 19.8665,87.0135 C18.9305,87.0135 18.119,86.416 17.8125,85.499 L17.7805,85.396 L17.723,85.1455 L17.7,84.8465 L17.7,72.001 L17.7075,71.3955 L17.7205,71.001 C18.2525,58.0085 28.957,47.68 42.0335,47.68 L42.0335,47.68 Z"/>
    <path id="headphone_fill" fill="#FFF" fill-opacity=".9" fill-rule="nonzero" d="M68,39 L68.384,39.0105 C71.9445,39.203 74.797,42.0555 74.9895,45.616 L75,46 L75,98 L74.9895,98.384 C74.797,101.9445 71.9445,104.797 68.384,104.9895 L68,105 L16,105 L15.616,104.9895 C12.0555,104.797 9.203,101.9445 9.0105,98.384 L9,98 L9,46 L9.0105,45.616 C9.203,42.0555 12.0555,39.203 15.616,39.0105 L16,39 L68,39 Z M30.3665,75.68 L25.7,75.68 L25.402,75.693 C23.929,75.824 22.718,76.9165 22.431,78.3585 L22.386,78.6515 L22.368,78.9595 L22.3665,93.0135 L22.38,93.3115 C22.511,94.7845 23.603,95.995 25.045,96.282 L25.338,96.327 L25.646,96.345 L30.3665,96.3465 L30.6645,96.3335 C32.138,96.2025 33.3485,95.1105 33.6355,93.668 L33.6805,93.3755 L33.6985,93.067 L33.7,79.0135 L33.688,78.7255 C33.5505,77.12 32.2745,75.839 30.671,75.6935 L30.3665,75.68 L30.3665,75.68 Z M58.3665,75.68 L53.7,75.68 L53.402,75.693 C51.929,75.824 50.718,76.9165 50.431,78.3585 L50.386,78.6515 L50.368,78.9595 L50.3665,93.0135 L50.38,93.3115 C50.511,94.7845 51.603,95.995 53.045,96.282 L53.338,96.327 L53.646,96.345 L58.3665,96.3465 L58.6645,96.3335 C60.138,96.2025 61.3485,95.1105 61.6355,93.668 L61.6805,93.3755 L61.6985,93.067 L61.7,79.0135 L61.688,78.7255 C61.5505,77.12 60.2745,75.839 58.671,75.6935 L58.3665,75.68 L58.3665,75.68 Z M42.0335,47.68 C29.028,47.68 18.369,57.896 17.7305,70.789 L17.7075,71.3955 L17.7,72.001 L17.7,84.8465 L17.723,85.1455 L17.7805,85.396 C18.0595,86.371 18.896,87.0135 19.8665,87.0135 C20.8505,87.0135 21.695,86.3535 21.953,85.4325 L22.005,85.197 L22.03,84.927 L22.0335,72.0135 L22.042,71.4085 L22.066,70.853 C22.6605,60.334 31.394,52.0135 42.0335,52.0135 C52.69,52.0135 61.4325,60.3605 62.0035,70.914 L62.026,71.4715 L62.0335,72.0265 L62.0335,84.8465 L62.056,85.1455 L62.114,85.396 C62.3925,86.371 63.229,87.0135 64.2,87.0135 C65.184,87.0135 66.0285,86.3535 66.2865,85.4325 L66.3385,85.197 L66.3635,84.927 L66.3665,72.0135 L66.3575,71.3465 L66.3335,70.741 C65.6635,57.8615 55.0155,47.68 42.0335,47.68 L42.0335,47.68 Z"/>
    <path id="speaker_shadow-with-outline" fill="#000" d="M92.2735,95.0395 C90.8095,93.4655 89.913,91.356 89.913,89.038 C89.913,89.038 89.913,55.1735 89.913,55.1735 C89.913,50.3065 93.8655,46.3545 98.7325,46.3545 C98.7325,46.3545 119.971,46.3545 119.971,46.3545 C123.9685,46.3545 127.349,49.021 128.429,52.6705 C129.894,54.2455 130.79,56.356 130.79,58.6735 L130.79,92.538 C130.79,97.4055 126.838,101.3545 121.971,101.3545 C121.971,101.3545 100.7325,101.3545 100.7325,101.3545 C96.734,101.3545 93.353,98.6895 92.2735,95.0395 L92.2735,95.0395 Z M121.0245,74.1005 C118.744,71.289 115.2605,69.492 111.3565,69.492 C104.484,69.492 98.912,75.0645 98.912,81.9365 C98.912,83.4615 99.186,84.922 99.688,86.273 C101.97,89.085 105.4535,90.881 109.3565,90.881 C116.2315,90.881 121.801,85.3115 121.801,78.4365 C121.801,76.9115 121.5265,75.4505 121.0245,74.1005 Z M104.763,83.424 C103.441,82.202 102.616,80.4595 102.616,78.529 C102.616,74.844 105.6235,71.843 109.353,71.843 C112.595,71.843 115.294,74.115 115.94,77.134 C117.262,78.356 118.087,80.0985 118.087,82.029 C118.087,85.7145 115.079,88.7155 111.353,88.7155 C108.107,88.7155 105.4085,86.442 104.763,83.424 Z"/>
    <path id="speaker_fill" fill="#FFF" fill-opacity=".9" d="M119.732502,95.4786396 L98.8121325,95.4786396 C95.0526847,95.4786396 91.9999,92.4289956 91.9999,88.6695478 L91.9999,55.3119075 C91.9999,51.5524597 95.0526847,48.499675 98.8121325,48.499675 L119.732502,48.499675 C123.49195,48.499675 126.544734,51.5524597 126.544734,55.3119075 L126.544734,88.6695478 C126.544734,92.4289956 123.49195,95.4786396 119.732502,95.4786396 Z M109.277028,64.0933746 C117.084871,64.0933746 123.410291,70.4219355 123.410291,78.2266371 C123.410291,86.0344795 117.084871,92.3598996 109.277028,92.3598996 C101.472327,92.3598996 95.1437657,86.0344795 95.1437657,78.2266371 C95.1437657,70.4219355 101.472327,64.0933746 109.277028,64.0933746 Z M109.273888,73.6066307 C111.902674,73.6066307 114.032086,75.7171979 114.032086,78.3177182 C114.032086,80.9182385 111.902674,83.0288057 109.273888,83.0288057 C106.64196,83.0288057 104.512548,80.9182385 104.512548,78.3177182 C104.512548,75.7171979 106.64196,73.6066307 109.273888,73.6066307 Z M109.277028,51.5304746 C111.880689,51.5304746 113.988116,53.6410418 113.988116,56.2415621 C113.988116,58.8452232 111.880689,60.9526496 109.277028,60.9526496 C106.676508,60.9526496 104.565941,58.8452232 104.565941,56.2415621 C104.565941,53.6410418 106.676508,51.5304746 109.277028,51.5304746 Z M109.273888,53.9268478 C110.614977,53.9268478 111.701668,55.0041165 111.701668,56.3326432 C111.701668,57.6611698 110.614977,58.7384385 109.273888,58.7384385 C107.929657,58.7384385 106.842966,57.6611698 106.842966,56.3326432 C106.842966,55.0041165 107.929657,53.9268478 109.273888,53.9268478 Z"/>
  </g>
</svg>
