<?xml version="1.0" encoding="UTF-8"?>
<svg width="288px" height="288px" viewBox="0 0 288 288" version="1.1" xmlns="http://www.w3.org/2000/svg" xmlns:xlink="http://www.w3.org/1999/xlink">
    <!-- Generator: Sketch 64 (93537) - https://sketch.com -->
    <title>System / Monitor Stream</title>
    <desc>Created with Sketch.</desc>
    <g id="System-/-Monitor-Stream" stroke="none" stroke-width="1" fill="none" fill-rule="evenodd">
        <rect id="Background" fill="#1E183C" fill-rule="nonzero" x="0" y="0" width="288" height="288"></rect>
        <path d="M252,74 C261.299081,74 268.951188,81.0515292 269.900819,90.099083 C278.837889,91.0369638 285.827709,98.5151134 285.996863,107.660528 L286,108 L286,212 C286,221.830669 278.119217,229.820682 268.330665,229.997024 L268,230 L164,230 C154.700756,230 147.048543,222.948223 146.099131,213.90044 C137.327909,212.980226 130.432628,205.760301 130.019592,196.847343 L130,196 L130,92 C130,82.3429067 137.604946,74.4620436 147.152657,74.019592 L148,74 L252,74 Z M252,78 L148,78 L147.231859,78.0207155 C140.111412,78.4057432 134.405743,84.1114121 134.020715,91.2318592 L134.020715,91.2318592 L134,92 L134,196 L134.020715,196.768141 C134.405743,203.888588 140.111412,209.594257 147.231859,209.979285 L147.231859,209.979285 L148,210 L252,210 L252.768141,209.979285 C259.888588,209.594257 265.594257,203.888588 265.979285,196.768141 L265.979285,196.768141 L266,196 L266,92 L265.979285,91.2318592 C265.594257,84.1114121 259.888588,78.4057432 252.768141,78.0207155 L252.768141,78.0207155 L252,78 Z M66.6666667,92 C82.6691166,92 96.9680566,99.429224 106.261898,111.060587 C117.232087,119.8257 124.491895,133.06373 125.265891,148.062246 L125.315028,149.305548 L125.333333,150.666667 L125.333333,176.333333 C125.333333,179.831137 122.497803,182.666667 119,182.666667 C117.918556,182.666667 116.894172,182.393997 115.994744,181.894545 L116,192.666667 C116,197.245027 112.449875,200.994212 107.952271,201.311573 L107.333333,201.333333 L98,201.333333 C93.4294617,201.333333 89.6852686,197.795329 89.3567505,193.308649 C85.0753132,192.996042 81.6574735,189.570891 81.3550938,185.285605 L81.3333333,184.666667 L81.3333333,156.666667 C81.3333333,152.088306 84.8834585,148.339122 89.3810621,148.02176 L90,148 L99.3333333,148 C101.34564,148 103.197765,148.685823 104.668719,149.836482 L104.666667,142.666667 C104.666667,134.213766 101.906701,126.40549 97.2387689,120.093838 C90.9278433,115.426633 83.1195673,112.666667 74.6666667,112.666667 C54.5982928,112.666667 38.0978154,128.248192 36.75609,148.000232 L43.3333333,148 C47.9038408,148 51.6480141,151.537957 51.9765762,156.024593 C56.258551,156.337824 59.6758833,159.762775 59.9782395,164.047729 L60,164.666667 L60,192.666667 C60,197.245027 56.4498748,200.994212 51.9522713,201.311573 L51.3333333,201.333333 L42,201.333333 C37.4294617,201.333333 33.6852686,197.795329 33.3567505,193.308649 C29.0753132,192.996042 25.6574735,189.570891 25.3550938,185.285605 L25.3333333,184.666667 L25.334427,180.140617 C24.8205608,179.449838 24.4264165,178.63649 24.1878873,177.724829 L24.0535645,177.109847 L24,176.333333 L23.999757,174.445146 C23.4687816,174.589579 22.9100598,174.666667 22.3333333,174.666667 C19.4510701,174.666667 16.9741203,172.729819 16.1878873,169.724829 L16.0535645,169.109847 L16,168.333333 L16,142.666667 C16,114.684239 38.6842393,92 66.6666667,92 Z M198.02406,154.70829 C199.444423,153.761381 201.258222,153.750386 202.851234,154.773421 L202.851234,154.773421 L203.3219,155.111451 L204.026847,155.908847 L227.696904,191.423718 L227.933322,191.85317 L228.112651,192.295094 C228.267169,192.745662 228.34674,193.220053 228.34674,193.699302 C228.34674,195.420592 227.333088,196.946878 225.571387,197.698417 L225.571387,197.698417 L225.072576,197.883738 L224.018069,198.027974 L176.685031,198.022546 L176.196564,197.98104 L175.729387,197.885116 C175.268781,197.763752 174.829925,197.566814 174.431166,197.300975 C172.998967,196.346175 172.291293,194.656134 172.64319,192.773432 L172.64319,192.773432 L172.765684,192.255599 L173.230609,191.298188 L196.900105,155.801757 L197.169983,155.456697 L197.432392,155.182559 C197.615119,155.007697 197.813063,154.848954 198.02406,154.70829 Z M43.3333333,152 L34,152 L33.7825248,152.004978 C31.5481312,152.107475 29.7236826,153.781276 29.3884713,155.947088 L29.3607167,156.158182 L29.3333333,156.666667 L29.3333333,184.666667 L29.338311,184.884142 C29.4408085,187.118535 31.1146091,188.942984 33.2804209,189.278195 L33.4915153,189.30595 L34,189.333333 L43.3333333,189.333333 L43.8418181,189.30595 L44.0574031,189.277498 C46.054911,188.96634 47.6330063,187.388244 47.9441648,185.390736 L47.9726166,185.175151 L48,184.666667 L48,156.666667 L47.9950223,156.449192 C47.8925248,154.214798 46.2187242,152.390349 44.0529125,152.055138 L43.8418181,152.027383 L43.3333333,152 Z M99.3333333,152 L90,152 L89.7825248,152.004978 C87.5481312,152.107475 85.7236826,153.781276 85.3884713,155.947088 L85.3607167,156.158182 L85.3333333,156.666667 L85.3333333,184.666667 L85.338311,184.884142 C85.4408085,187.118535 87.1146091,188.942984 89.2804209,189.278195 L89.4915153,189.30595 L90,189.333333 L99.3333333,189.333333 L99.8418181,189.30595 L100.057403,189.277498 C102.054911,188.96634 103.633006,187.388244 103.944165,185.390736 L103.972617,185.175151 L104,184.666667 L104,156.666667 L103.995022,156.449192 C103.892525,154.214798 102.218724,152.390349 100.052912,152.055138 L99.8418181,152.027383 L99.3333333,152 Z M66.6666667,96 C41.5436582,96 21.0574185,115.852367 20.0396445,140.725404 L20.0147772,141.480654 L20,142.666667 L20,168.333333 L20.0375931,168.752753 L20.0746973,168.921259 C20.2903818,169.752198 20.9524926,170.403218 21.7897187,170.603006 L21.9594185,170.636867 L22.3333333,170.666667 L22.7118121,170.636127 L22.8834852,170.601436 C23.7302514,170.396773 24.3967726,169.730251 24.6014361,168.883485 L24.6361273,168.711812 L24.6666667,168.333333 L24.6666667,142.666667 L24.6845732,141.428309 L24.7095786,140.750973 C25.7109693,118.444175 44.1127382,100.666667 66.6666667,100.666667 C89.2542075,100.666667 107.677204,118.497203 108.628116,140.850736 L108.65157,141.529486 L108.666667,142.666667 L108.666667,168.333333 L108.70426,168.752753 L108.741364,168.921259 C108.957048,169.752198 109.619159,170.403218 110.456385,170.603006 L110.626085,170.636867 L111,170.666667 L111.378479,170.636127 L111.550152,170.601436 C112.396918,170.396773 113.063439,169.730251 113.268103,168.883485 L113.302794,168.711812 L113.333333,168.333333 L113.333333,142.666667 L113.315405,141.360444 L113.28869,140.606873 C112.210799,115.789327 91.7497551,96 66.6666667,96 Z M229.528305,94.0635339 C231.643145,91.9486946 235.071977,91.9486946 237.186816,94.0635339 C257.489709,114.366428 257.489709,147.283922 237.186816,167.586816 C235.071977,169.701655 231.643145,169.701655 229.528305,167.586816 C227.413466,165.471977 227.413466,162.043145 229.528305,159.928305 C245.601521,143.85509 245.601521,117.795259 229.528305,101.722044 C227.413466,99.607205 227.413466,96.1783731 229.528305,94.0635339 Z M163.663534,94.0635339 C165.778373,91.9486946 169.207205,91.9486946 171.322044,94.0635339 C173.436883,96.1783731 173.436883,99.607205 171.322044,101.722044 C155.248829,117.795259 155.248829,143.85509 171.322044,159.928305 C173.436883,162.043145 173.436883,165.471977 171.322044,167.586816 C169.207205,169.701655 165.778373,169.701655 163.663534,167.586816 C143.36064,147.283922 143.36064,114.366428 163.663534,94.0635339 Z M216.355351,107.236487 C218.47019,105.121648 221.899022,105.121648 224.013861,107.236487 C237.041533,120.264159 237.041533,141.386188 224.013861,154.41386 C221.899022,156.5287 218.47019,156.5287 216.355351,154.41386 C214.240512,152.299021 214.240512,148.870189 216.355351,146.75535 C225.153345,137.957357 225.153345,123.692991 216.355351,114.894997 C214.240512,112.780158 214.240512,109.351326 216.355351,107.236487 Z M176.836488,107.236487 C178.951327,105.121648 182.380159,105.121648 184.494999,107.236487 C186.609838,109.351326 186.609838,112.780158 184.494999,114.894997 C175.697005,123.692991 175.697005,137.957357 184.494999,146.75535 C186.609838,148.870189 186.609838,152.299021 184.494999,154.41386 C182.380159,156.5287 178.951327,156.5287 176.836488,154.41386 C163.808816,141.386188 163.808816,120.264159 176.836488,107.236487 Z M200.425175,119.510482 C206.674103,119.510482 211.73986,124.576239 211.73986,130.825167 C211.73986,137.074095 206.674103,142.139853 200.425175,142.139853 C194.176247,142.139853 189.11049,137.074095 189.11049,130.825167 C189.11049,124.576239 194.176247,119.510482 200.425175,119.510482 Z" id="shadow-with-outline" fill="#000000" fill-rule="nonzero"></path>
        <path d="M252,78 L252.768141,78.0207155 C259.888588,78.4057432 265.594257,84.1114121 265.979285,91.2318592 L266,92 L266,196 L265.979285,196.768141 C265.594257,203.888588 259.888588,209.594257 252.768141,209.979285 L252,210 L148,210 L147.231859,209.979285 C140.111412,209.594257 134.405743,203.888588 134.020715,196.768141 L134,196 L134,92 L134.020715,91.2318592 C134.405743,84.1114121 140.111412,78.4057432 147.231859,78.0207155 L148,78 L252,78 Z M198.02406,154.70829 C197.813063,154.848954 197.615119,155.007697 197.432392,155.182559 L197.169983,155.456697 L196.900105,155.801757 L173.230609,191.298188 L172.765684,192.255599 L172.64319,192.773432 C172.291293,194.656134 172.998967,196.346175 174.431166,197.300975 C174.829925,197.566814 175.268781,197.763752 175.729387,197.885116 L176.196564,197.98104 L176.685031,198.022546 L224.018069,198.027974 L225.072576,197.883738 L225.571387,197.698417 C227.333088,196.946878 228.34674,195.420592 228.34674,193.699302 C228.34674,193.220053 228.267169,192.745662 228.112651,192.295094 L227.933322,191.85317 L227.696904,191.423718 L204.026847,155.908847 L203.3219,155.111451 L202.851234,154.773421 C201.258222,153.750386 199.444423,153.761381 198.02406,154.70829 Z M43.3333333,152 L43.8418181,152.027383 C46.109102,152.27307 47.8892185,154.142721 47.9950223,156.449192 L48,156.666667 L48,184.666667 L47.9726166,185.175151 C47.7451924,187.273907 46.1262506,188.955227 44.0574031,189.277498 L43.8418181,189.30595 L43.3333333,189.333333 L34,189.333333 L33.4915153,189.30595 C31.2242314,189.060264 29.4441149,187.190613 29.338311,184.884142 L29.3333333,184.666667 L29.3333333,156.666667 L29.3607167,156.158182 C29.6064029,153.890898 31.476054,152.110782 33.7825248,152.004978 L34,152 L43.3333333,152 Z M99.3333333,152 L99.8418181,152.027383 C102.109102,152.27307 103.889218,154.142721 103.995022,156.449192 L104,156.666667 L104,184.666667 L103.972617,185.175151 C103.745192,187.273907 102.126251,188.955227 100.057403,189.277498 L99.8418181,189.30595 L99.3333333,189.333333 L90,189.333333 L89.4915153,189.30595 C87.2242314,189.060264 85.4441149,187.190613 85.338311,184.884142 L85.3333333,184.666667 L85.3333333,156.666667 L85.3607167,156.158182 C85.6064029,153.890898 87.476054,152.110782 89.7825248,152.004978 L90,152 L99.3333333,152 Z M66.6666667,96 C91.7497551,96 112.210799,115.789327 113.28869,140.606873 L113.315405,141.360444 L113.333333,142.666667 L113.333333,168.333333 L113.302794,168.711812 C113.151508,169.639329 112.453369,170.383128 111.550152,170.601436 L111.378479,170.636127 L111,170.666667 L110.626085,170.636867 C109.709425,170.489221 108.971427,169.807594 108.741364,168.921259 L108.70426,168.752753 L108.666667,168.333333 L108.666667,142.666667 L108.65157,141.529486 C108.04896,118.859235 89.4823645,100.666667 66.6666667,100.666667 C44.1127382,100.666667 25.7109693,118.444175 24.7095786,140.750973 L24.6845732,141.428309 L24.6666667,142.666667 L24.6666667,168.333333 L24.6361273,168.711812 C24.484841,169.639329 23.7867024,170.383128 22.8834852,170.601436 L22.7118121,170.636127 L22.3333333,170.666667 L21.9594185,170.636867 C21.0427581,170.489221 20.3047607,169.807594 20.0746973,168.921259 L20.0375931,168.752753 L20,168.333333 L20,142.666667 L20.0147772,141.480654 C20.6440282,116.25545 41.2898905,96 66.6666667,96 Z M229.528305,94.0635339 C227.413466,96.1783731 227.413466,99.607205 229.528305,101.722044 C245.601521,117.795259 245.601521,143.85509 229.528305,159.928305 C227.413466,162.043145 227.413466,165.471977 229.528305,167.586816 C231.643145,169.701655 235.071977,169.701655 237.186816,167.586816 C257.489709,147.283922 257.489709,114.366428 237.186816,94.0635339 C235.071977,91.9486946 231.643145,91.9486946 229.528305,94.0635339 Z M163.663534,94.0635339 C143.36064,114.366428 143.36064,147.283922 163.663534,167.586816 C165.778373,169.701655 169.207205,169.701655 171.322044,167.586816 C173.436883,165.471977 173.436883,162.043145 171.322044,159.928305 C155.248829,143.85509 155.248829,117.795259 171.322044,101.722044 C173.436883,99.607205 173.436883,96.1783731 171.322044,94.0635339 C169.207205,91.9486946 165.778373,91.9486946 163.663534,94.0635339 Z M216.355351,107.236487 C214.240512,109.351326 214.240512,112.780158 216.355351,114.894997 C225.153345,123.692991 225.153345,137.957357 216.355351,146.75535 C214.240512,148.870189 214.240512,152.299021 216.355351,154.41386 C218.47019,156.5287 221.899022,156.5287 224.013861,154.41386 C237.041533,141.386188 237.041533,120.264159 224.013861,107.236487 C221.899022,105.121648 218.47019,105.121648 216.355351,107.236487 Z M176.836488,107.236487 C163.808816,120.264159 163.808816,141.386188 176.836488,154.41386 C178.951327,156.5287 182.380159,156.5287 184.494999,154.41386 C186.549414,152.359445 186.608111,149.06505 184.671091,146.939779 L184.494999,146.75535 C175.791607,138.051959 175.698022,123.999119 184.214244,115.180686 L184.494999,114.894997 C186.609838,112.780158 186.609838,109.351326 184.494999,107.236487 C182.380159,105.121648 178.951327,105.121648 176.836488,107.236487 Z M200.425175,119.510482 C194.176247,119.510482 189.11049,124.576239 189.11049,130.825167 C189.11049,137.074095 194.176247,142.139853 200.425175,142.139853 C206.674103,142.139853 211.73986,137.074095 211.73986,130.825167 C211.73986,124.576239 206.674103,119.510482 200.425175,119.510482 Z" id="Icon-Fill" fill="#FFFFFF" fill-rule="nonzero" opacity="0.9"></path>
    </g>
</svg>