<?xml version="1.0" encoding="UTF-8"?>
<svg width="288px" height="288px" viewBox="0 0 288 288" version="1.1" xmlns="http://www.w3.org/2000/svg" xmlns:xlink="http://www.w3.org/1999/xlink">
    <!-- Generator: Sketch 64 (93537) - https://sketch.com -->
    <title>System / Monitor Local</title>
    <desc>Created with Sketch.</desc>
    <g id="System-/-Monitor-Local" stroke="none" stroke-width="1" fill="none" fill-rule="evenodd">
        <rect id="Background" fill="#1E183C" fill-rule="nonzero" x="0" y="0" width="288" height="288"></rect>
        <path d="M136,74 C145.299081,74 152.951188,81.0515292 153.900819,90.099083 C162.837889,91.0369638 169.827709,98.5151134 169.996863,107.660528 L170,108 L169.999386,111.499497 C172.628121,104.628854 176.711432,98.1872082 182.24932,92.6493203 C185.145208,89.7534325 189.84037,89.7534325 192.736258,92.6493203 C193.323169,93.2362313 193.79113,93.897048 194.140142,94.6018135 C196.45942,94.1731652 198.942867,94.8559292 200.736258,96.6493203 C202.703735,98.6167975 203.334501,101.414801 202.628555,103.914805 C203.82976,104.241855 204.965106,104.878167 205.909212,105.822273 C206.496123,106.409184 206.964085,107.070001 207.313096,107.774767 C209.632375,107.346118 212.115821,108.028882 213.909212,109.822273 C216.279363,112.192425 216.709655,115.767851 215.200086,118.575627 C216.80366,117.88985 218.570114,117.510482 220.425175,117.510482 C224.201013,117.510482 227.609759,119.082189 230.032873,121.607063 C235.083994,122.214029 239.265746,125.651012 240.946362,130.286748 C240.818732,125.363845 238.929099,120.47716 235.277916,116.653829 L234.941138,116.309211 C232.04525,113.413323 232.04525,108.718161 234.941138,105.822273 C237.837025,102.926386 242.532187,102.926386 245.428075,105.822273 C246.043133,106.437332 246.630796,107.069411 247.191063,107.716996 C249.404245,107.419099 251.726693,108.120891 253.428075,109.822273 L253.582759,109.978161 C252.052543,107.549225 250.229654,105.25182 248.114092,103.136258 C245.218204,100.24037 245.218204,95.5452082 248.114092,92.6493203 C251.00998,89.7534325 255.705141,89.7534325 258.601029,92.6493203 C259.219966,93.2682569 259.820733,93.8984825 260.403331,94.5393343 C262.604476,94.2544297 264.909646,94.9579372 266.601029,96.6493203 C287.684972,117.733263 287.684972,151.917087 266.601029,173.001029 C263.705141,175.896917 259.00998,175.896917 256.114092,173.001029 C255.527181,172.414118 255.059219,171.753302 254.710207,171.048536 C252.392355,171.477576 249.907998,170.794935 248.114092,169.001029 C246.146727,167.033664 245.515921,164.235868 246.221674,161.735972 C245.021013,161.40873 243.88542,160.772357 242.941138,159.828074 C242.354227,159.241163 241.886265,158.580346 241.537253,157.875581 C239.219401,158.304621 236.735044,157.62198 234.941138,155.828074 C232.570986,153.457923 232.140695,149.882497 233.650264,147.07472 C232.04669,147.760484 230.280236,148.139853 228.425175,148.139853 C224.649835,148.139853 221.24149,146.56856 218.818435,144.044271 C213.765629,143.436218 209.583401,139.998334 207.903262,135.361585 C208.035222,140.43502 210.037138,145.469062 213.909212,149.341136 C215.14571,150.577635 215.854243,152.142168 216.034811,153.754605 C216.304603,153.49176 216.599494,153.2543 216.91466,153.044189 C219.023174,151.638513 221.724462,151.643554 223.805935,152.959102 L224.312689,153.315233 L224.788114,153.751224 L225.295175,154.297794 L225.690948,154.799447 L226.648198,156.235012 C228.378686,155.728739 230.262671,155.983717 231.805935,156.959102 L232.312689,157.315233 L232.788114,157.751224 L233.295175,158.297794 L233.690948,158.799447 L257.283841,194.188787 C257.976905,195.228382 258.34674,196.449865 258.34674,197.699302 C258.34674,200.248506 256.826199,202.504946 254.554701,203.498151 L254.017529,203.704486 L253.391044,203.85822 L252.655004,203.976937 L252.018069,204.027974 L204.832281,204.027974 C203.582843,204.027974 202.361361,203.658139 201.321766,202.965075 C200.218071,202.229279 199.408706,201.194892 198.947294,200.027978 L196.832281,200.027974 C195.582843,200.027974 194.361361,199.658139 193.321766,198.965075 C191.200701,197.551032 190.166673,195.034217 190.600277,192.593286 L190.726565,192.031878 L190.946162,191.425334 L191.255665,190.747059 L191.566508,190.188787 L210.514913,161.766931 C208.059569,162.396614 205.344529,161.750329 203.422275,159.828074 C202.807216,159.213016 202.219554,158.580936 201.659287,157.933352 C199.446805,158.231459 197.123913,157.529712 195.422275,155.828074 L195.266855,155.671021 C196.669692,157.897941 198.318534,160.01431 200.213382,161.981356 L200.736258,162.514092 C203.632146,165.40998 203.632146,170.105141 200.736258,173.001029 C197.84037,175.896917 193.145208,175.896917 190.24932,173.001029 C189.630384,172.382093 189.029617,171.751867 188.447019,171.111015 C186.245874,171.39592 183.940703,170.692412 182.24932,169.001029 C176.711432,163.463141 172.628121,157.021496 169.999386,150.150852 L170,212 C170,221.830669 162.119217,229.820682 152.330665,229.997024 L152,230 L48,230 C38.7007559,230 31.0485426,222.948223 30.0991312,213.90044 C21.3279095,212.980226 14.4326285,205.760301 14.019592,196.847343 L14,196 L14,92 C14,82.3429067 21.6049461,74.4620436 31.1526572,74.019592 L32,74 L136,74 Z M136,78 L32,78 L31.680525,78.0035733 C24.4602127,78.1652428 18.588764,83.7932461 18.041642,90.9121205 L18.0207155,91.2318592 L18,92 L18,196 L18.0035733,196.319475 C18.1652428,203.539787 23.7932461,209.411236 30.9121205,209.958358 L31.2318592,209.979285 L32,210 L136,210 L136.319475,209.996427 C143.539787,209.834757 149.411236,204.206754 149.958358,197.08788 L149.979285,196.768141 L150,196 L150,92 L149.996427,91.680525 C149.834757,84.4602127 144.206754,78.588764 137.08788,78.041642 L136.768141,78.0207155 L136,78 Z M244.018069,196.027974 L244.754109,195.909257 L244.914648,195.849112 C245.755679,195.497953 246.34674,194.667652 246.34674,193.699302 C246.34674,193.42346 246.29775,193.15132 246.203475,192.895118 L246.124335,192.706146 L245.95564,192.407588 L222.362746,157.018247 L221.855686,156.471677 L221.707689,156.365566 C220.949934,155.866236 219.936029,155.837344 219.13346,156.37239 C219.019767,156.448186 218.913245,156.533654 218.815005,156.627683 L218.673997,156.775007 L218.487603,157.018247 L194.894709,192.407588 L194.585206,193.085863 L194.546198,193.252802 C194.371861,194.14737 194.734851,195.09973 195.540567,195.636874 C195.770082,195.789884 196.02369,195.900078 196.289158,195.963752 L196.490291,196.002726 L196.832281,196.027974 L244.018069,196.027974 Z M60.7333333,151.36 C64.1421722,151.36 66.9534489,153.918468 67.3516835,157.219924 L67.3755294,157.451441 L67.4,158.026667 L67.3971062,186.134217 L67.3609768,186.750613 L67.3293119,186.999394 C66.8954735,189.964305 64.5262714,192.264174 61.5828813,192.639539 L61.3292163,192.666971 L60.7333333,192.693333 L51.2924501,192.690439 L50.6760537,192.65431 L50.4272722,192.622645 C47.4623615,192.188807 45.1624928,189.819605 44.7871276,186.876215 L44.7596959,186.62255 L44.7333333,186.026667 L44.7362272,157.919117 L44.7723565,157.30272 L44.8040214,157.053939 C45.2378598,154.089028 47.607062,151.789159 50.550452,151.413794 L50.8041171,151.386363 L51.4,151.36 L60.7333333,151.36 Z M116.733333,151.36 C120.142172,151.36 122.953449,153.918468 123.351684,157.219924 L123.375529,157.451441 L123.4,158.026667 L123.397106,186.134217 L123.360977,186.750613 L123.329312,186.999394 C122.895474,189.964305 120.526271,192.264174 117.582881,192.639539 L117.329216,192.666971 L116.733333,192.693333 L107.29245,192.690439 L106.676054,192.65431 L106.427272,192.622645 C103.462362,192.188807 101.162493,189.819605 100.787128,186.876215 L100.759696,186.62255 L100.733333,186.026667 L100.736227,157.919117 L100.772356,157.30272 L100.804021,157.053939 C101.23786,154.089028 103.607062,151.789159 106.550452,151.413794 L106.804117,151.386363 L107.4,151.36 L116.733333,151.36 Z M84.0666667,95.36 C109.771826,95.36 130.901071,115.317709 132.620935,140.710532 L132.667096,141.481661 L132.715217,142.692996 L132.733333,144.026667 L132.726854,169.85419 L132.676709,170.393775 L132.637868,170.6004 C132.216023,172.579771 130.460793,174.026667 128.4,174.026667 C126.52773,174.026667 124.905102,172.831841 124.29181,170.998475 L124.227858,170.792168 L124.112245,170.2913 L124.066667,169.693333 L124.066843,144.053216 L124.052276,142.94263 L124.029895,142.295019 C123.122438,120.967717 105.537494,104.026667 84.0666667,104.026667 C63.0009458,104.026667 45.6703298,120.336455 44.1723663,141.076132 L44.1318322,141.705951 L44.0843641,142.817226 L44.0666667,144.026667 L44.0601874,169.85419 L44.0100421,170.393775 L43.9712015,170.6004 C43.5493564,172.579771 41.7941268,174.026667 39.7333333,174.026667 C37.8610629,174.026667 36.2384356,172.831841 35.6251431,170.998475 L35.5611917,170.792168 L35.4455788,170.2913 L35.4,169.693333 L35.4,144.001749 L35.4153992,142.790778 L35.4413818,142.001734 C36.5048457,116.016564 57.9136637,95.36 84.0666667,95.36 Z M187.492789,94.4774045 C186.618716,94.4774045 185.744643,94.8108521 185.077747,95.4777475 L184.50757,96.0570814 L184.50757,96.0570814 L183.816352,96.7849388 L183.816352,96.7849388 L183.295984,97.3524394 L183.295984,97.3524394 L182.728917,97.9911661 L182.728917,97.9911661 L182.197755,98.6097836 L182.197755,98.6097836 L181.72933,99.1726271 L181.72933,99.1726271 L181.139581,99.9057685 L181.139581,99.9057685 L180.616919,100.579886 L180.616919,100.579886 L180.143867,101.211162 L180.143867,101.211162 L179.570717,102.004937 L179.570717,102.004937 L179.118371,102.655466 L179.118371,102.655466 L178.605947,103.420142 L178.605947,103.420142 L178.164833,104.103896 L178.164833,104.103896 L177.857976,104.594502 L177.857976,104.594502 L177.359532,105.419666 L177.359532,105.419666 L176.971164,106.088799 L176.971164,106.088799 L176.650927,106.659304 L176.650927,106.659304 L176.20995,107.475117 L176.20995,107.475117 L175.880712,108.109076 L175.880712,108.109076 L175.573416,108.721772 L175.573416,108.721772 L175.25689,109.375948 L175.25689,109.375948 L175.005359,109.913945 L175.005359,109.913945 L174.725803,110.532436 L174.562328,110.904907 L174.562328,110.904907 C174.355681,111.381036 174.156782,111.85976 173.965646,112.340853 C173.833197,112.674233 173.704511,113.008656 173.579551,113.344152 L173.452608,113.688859 L173.452608,113.688859 L173.244579,114.271486 L173.244579,114.271486 L172.974905,115.063115 L172.974905,115.063115 L172.745788,115.772394 L172.745788,115.772394 L172.491788,116.604571 L172.491788,116.604571 L172.322635,117.189707 L172.322635,117.189707 L172.170941,117.738668 L172.170941,117.738668 L172.020915,118.307176 L172.020915,118.307176 L171.794852,119.220215 L171.794852,119.220215 L171.566484,120.227348 L171.566484,120.227348 L171.410473,120.977672 L171.410473,120.977672 L171.257419,121.776833 L171.257419,121.776833 L171.091941,122.73265 L171.091941,122.73265 L170.961182,123.579414 L170.961182,123.579414 L170.869929,124.236151 L170.869929,124.236151 L170.773752,125.009701 L170.773752,125.009701 L170.695784,125.723598 L170.695784,125.723598 L170.641912,126.282769 L170.641912,126.282769 L170.57755,127.059214 L170.57755,127.059214 L170.531357,127.735335 C170.452695,129.013346 170.422887,130.293781 170.441932,131.573625 C170.447072,131.918969 170.455765,132.264163 170.468012,132.609254 L170.492748,133.20617 L170.492748,133.20617 L170.536411,133.996055 L170.536411,133.996055 L170.57095,134.502201 L170.57095,134.502201 L170.617441,135.089189 L170.617441,135.089189 L170.657991,135.541492 L170.657991,135.541492 L170.728977,136.242342 L170.728977,136.242342 L170.832886,137.127699 L170.832886,137.127699 L170.928641,137.843946 L170.928641,137.843946 L171.075829,138.818334 L171.075829,138.818334 L171.203921,139.576301 L171.203921,139.576301 L171.306882,140.139579 L171.306882,140.139579 L171.487936,141.052437 L171.487936,141.052437 L171.589917,141.530951 L171.589917,141.530951 L171.827946,142.568528 L171.827946,142.568528 L172.007122,143.289507 L172.007122,143.289507 L172.21682,144.080307 L172.21682,144.080307 L172.419436,144.798762 L172.419436,144.798762 L172.663427,145.613757 L172.663427,145.613757 C172.897192,146.371041 173.149486,147.124213 173.420202,147.872218 L173.579871,148.307056 L173.579871,148.307056 C173.768533,148.813561 173.965774,149.317829 174.171515,149.819431 L174.412852,150.39741 L174.412852,150.39741 L174.684126,151.02374 L174.684126,151.02374 L174.950567,151.616942 L175.312683,152.391505 L175.312683,152.391505 L175.631,153.045013 L175.631,153.045013 L175.918752,153.615675 L175.918752,153.615675 L176.103707,153.973088 L176.103707,153.973088 L176.443932,154.61264 L176.443932,154.61264 L176.908733,155.451704 L176.908733,155.451704 L177.262796,156.066247 L177.262796,156.066247 L177.686648,156.776281 L177.686648,156.776281 L178.094478,157.435088 L178.094478,157.435088 L178.559909,158.159984 L178.559909,158.159984 L178.944558,158.738922 L178.944558,158.738922 L179.403652,159.407717 L179.403652,159.407717 L179.878566,160.075842 L179.878566,160.075842 L180.31492,160.66986 L180.31492,160.66986 L180.73186,161.22076 L180.73186,161.22076 L181.282754,161.925172 L181.282754,161.925172 L181.905208,162.691012 L181.905208,162.691012 L182.337781,163.205623 L182.337781,163.205623 L182.66439,163.585104 L182.66439,163.585104 L182.873919,163.82459 C183.577356,164.623582 184.312555,165.40741 185.077747,166.172602 C185.689068,166.783923 186.474476,167.115055 187.274391,167.165998 L187.492789,167.172945 L187.928866,167.145158 L188.145107,167.110424 C188.79095,166.985381 189.407659,166.672774 189.907831,166.172602 C191.241621,164.838812 191.241621,162.67631 189.907831,161.342519 C173.053567,144.488255 173.053567,117.162094 189.907831,100.307831 C190.966169,99.2494929 191.184735,97.6693881 190.563531,96.3955409 L190.486387,96.2485787 L190.486387,96.2485787 L190.364711,96.0429837 L190.364711,96.0429837 L190.266298,95.8988283 L190.266298,95.8988283 L190.193735,95.8018888 L190.193735,95.8018888 C190.106731,95.6896596 190.011294,95.5812103 189.907831,95.4777475 C189.407659,94.977576 188.79095,94.6649688 188.145107,94.5399259 L187.928866,94.5051918 L187.492789,94.4774045 Z M250.942519,95.4777475 C249.608728,96.8115381 249.608728,98.97404 250.942519,100.307831 C251.21965,100.584962 251.492225,100.864925 251.760243,101.147625 L252.158851,101.573718 L252.547872,102.000786 L252.733588,102.208726 L253.235208,102.784082 L253.502034,103.098616 L253.502034,103.098616 L253.765346,103.415048 L254.250752,104.014851 L254.66394,104.543191 C267.688915,121.46726 266.448442,145.836596 250.942519,161.342519 C250.649704,161.635334 250.421173,161.968089 250.256924,162.323248 L250.156213,162.568332 L250.156213,162.568332 C250.070271,162.796889 250.010732,163.033233 249.976592,163.272503 L249.950756,163.521107 L249.950756,163.521107 L249.943878,163.649401 L249.943878,163.649401 L249.942755,163.820659 L249.942755,163.820659 L249.949565,163.982792 L249.949565,163.982792 L249.967218,164.171623 L249.967218,164.171623 C249.979829,164.274103 249.996821,164.375753 250.018421,164.476616 L250.050984,164.614884 L250.050984,164.614884 L250.116898,164.838167 L250.116898,164.838167 L250.186755,165.029023 L250.186755,165.029023 L250.244352,165.164358 L250.244352,165.164358 L250.328989,165.338313 L250.328989,165.338313 L250.350335,165.378521 C250.430489,165.527126 250.52259,165.67121 250.626531,165.809208 L250.732204,165.942476 L250.732204,165.942476 L250.804717,166.0266 L250.942519,166.172602 C251.55384,166.783923 252.339247,167.115055 253.139162,167.165998 L253.357561,167.172945 L253.793638,167.145158 L254.009878,167.110424 C254.583961,166.999275 255.135025,166.739926 255.601682,166.332379 L255.772602,166.172602 C275.099229,146.845976 275.292495,115.631403 256.352401,96.0670173 L256.251,95.964 L256.157026,95.8665801 L255.772602,95.4777475 L255.772602,95.4777475 C255.216856,94.9220013 254.517237,94.5978161 253.793638,94.5051918 L253.357561,94.4774045 C252.483487,94.4774045 251.609414,94.8108521 250.942519,95.4777475 Z M200.665743,107.650358 C200.590231,107.650358 200.514719,107.652846 200.43934,107.657824 L200.665743,107.650358 L200.487286,107.654994 L200.487286,107.654994 L200.201538,107.681864 C199.486661,107.779819 198.798729,108.102673 198.250702,108.650701 C191.339844,115.561559 188.328833,124.895471 189.217669,133.917743 L189.269355,134.406679 L189.306541,134.718131 L189.306541,134.718131 L189.403605,135.431224 L189.403605,135.431224 L189.507506,136.086897 L189.507506,136.086897 L189.591051,136.557297 L189.591051,136.557297 L189.706168,137.148814 L189.706168,137.148814 L189.78889,137.53892 L189.78889,137.53892 L189.947651,138.229859 L189.947651,138.229859 L190.079743,138.755795 L190.079743,138.755795 L190.271515,139.45824 L190.271515,139.45824 C190.351057,139.737429 190.434458,140.015036 190.521786,140.291671 L190.643672,140.669407 L190.821776,141.193711 L190.821776,141.193711 L191.06774,141.872446 L191.06774,141.872446 L191.225583,142.283649 L191.225583,142.283649 L191.570622,143.127665 L191.570622,143.127665 L191.876655,143.822566 L191.876655,143.822566 L192.108738,144.320801 L192.108738,144.320801 C192.217391,144.548713 192.328991,144.775731 192.443503,145.001651 L192.611056,145.327484 L192.611056,145.327484 L192.835757,145.750178 L192.835757,145.750178 L193.120073,146.26358 L193.120073,146.26358 L193.427589,146.7945 L193.427589,146.7945 L193.814969,147.430833 L193.814969,147.430833 L194.124802,147.916316 L194.124802,147.916316 L194.301775,148.185014 L194.301775,148.185014 L194.601856,148.627281 L194.601856,148.627281 L194.910399,149.065662 L195.244062,149.522416 L195.244062,149.522416 L195.586797,149.974212 L195.91153,150.387142 L195.91153,150.387142 L196.467919,151.063115 L196.467919,151.063115 L197.069108,151.752687 L197.069108,151.752687 L197.472848,152.194052 L197.886977,152.629981 L197.886977,152.629981 L198.250702,152.999647 C198.862022,153.610967 199.64743,153.9421 200.447345,153.993043 L200.665743,153.99999 L201.101821,153.972202 L201.318061,153.937468 C201.963904,153.812425 202.580613,153.499818 203.080785,152.999647 C204.414576,151.665856 204.414576,149.503354 203.080785,148.169563 C193.501743,138.590521 193.501743,123.059826 203.080785,113.480784 C204.096473,112.465096 204.33871,110.968848 203.807496,109.723937 L203.721225,109.539201 L203.659614,109.421167 L203.659614,109.421167 L203.537019,109.214936 L203.537019,109.214936 L203.485015,109.136987 L203.485015,109.136987 L203.360211,108.966466 L203.360211,108.966466 C203.274642,108.856892 203.181517,108.751433 203.080785,108.650701 C202.580613,108.150529 201.963904,107.837922 201.318061,107.712879 L201.101821,107.678145 L200.665743,107.650358 Z M237.769565,108.650701 C236.435774,109.984491 236.435774,112.146993 237.769565,113.480784 L238.261028,113.986298 L238.261028,113.986298 L238.658213,114.416588 L238.658213,114.416588 L239.0432,114.853884 L239.41633,115.298377 L239.749403,115.713862 L240.02769,116.075696 L240.2345,116.353908 L240.2345,116.353908 L240.547003,116.790549 L240.848298,117.231642 L241.084281,117.592226 L241.22327,117.811311 L241.22327,117.811311 L241.359455,118.031105 C241.600449,118.424723 241.829088,118.823227 242.045633,119.226511 L242.042,119.222 L242.078338,119.287628 L242.286283,119.686386 L242.286283,119.686386 L242.528003,120.173947 L242.528003,120.173947 L242.788793,120.7331 L243.011073,121.241249 L243.163069,121.608075 L243.323603,122.015069 L243.466864,122.397572 L243.466864,122.397572 L243.667187,122.968215 C243.735675,123.171325 243.801415,123.375107 243.864422,123.579551 L244.01855,124.100112 L244.01855,124.100112 L244.210147,124.815597 L244.210147,124.815597 L244.320946,125.274491 L244.320946,125.274491 L244.414265,125.694725 L244.414265,125.694725 L244.456335,125.896494 L244.572088,126.502238 L244.667271,127.075791 L244.667271,127.075791 L244.754168,127.692449 L244.754168,127.692449 L244.80415,128.111222 C244.841029,128.444453 244.87108,128.778099 244.894323,129.112129 C244.927453,129.588301 244.946751,130.065155 244.952222,130.542106 L244.950059,131.25753 L244.932713,131.846321 L244.932713,131.846321 L244.925985,131.997588 C244.915493,132.218151 244.902058,132.438358 244.885667,132.658386 L244.835349,133.240619 L244.835349,133.240619 L244.771262,133.821367 C244.738429,134.089675 244.701173,134.357514 244.659489,134.624797 C244.607878,134.955734 244.549497,135.285727 244.484333,135.614642 L244.396113,136.040163 L244.396113,136.040163 L244.265435,136.610598 L244.159041,137.034282 L244.159041,137.034282 L244.008377,137.58595 L244.008377,137.58595 L243.874275,138.038746 L243.76278,138.392691 L243.76278,138.392691 C243.701307,138.582792 243.637499,138.772162 243.571315,138.960884 C243.500963,139.161496 243.427831,139.361628 243.352007,139.560969 L243.248139,139.829268 L243.248139,139.829268 L243.040732,140.338831 L242.920672,140.619581 L242.745247,141.013233 L242.583485,141.360493 L242.583485,141.360493 L242.416097,141.705531 L242.115343,142.293058 L241.915163,142.663582 L241.637379,143.153772 L241.637379,143.153772 L241.494858,143.395406 L241.233574,143.822587 L241.233574,143.822587 L240.986155,144.209751 L240.986155,144.209751 C240.86294,144.398614 240.736854,144.586151 240.607899,144.772303 C240.497983,144.930957 240.386487,145.087912 240.272925,145.24383 L240.016078,145.590032 L240.016078,145.590032 L239.752221,145.932889 L239.51739,146.227842 L239.101135,146.728826 L238.812706,147.060762 L238.812706,147.060762 L238.663658,147.227719 C238.513834,147.394029 238.361236,147.558886 238.205958,147.72213 L238.059808,147.874481 L237.769565,148.169563 C236.435774,149.503354 236.435774,151.665856 237.769565,152.999647 C238.380885,153.610967 239.166293,153.9421 239.966208,153.993043 L240.184606,153.99999 L240.620684,153.972202 L240.836924,153.937468 C241.482767,153.812425 242.099476,153.499818 242.599648,152.999647 C254.467886,141.131409 254.83458,122.117027 243.69973,109.807199 L243.358347,109.435429 C243.111199,109.171099 242.858152,108.909205 242.599648,108.650701 C242.043902,108.094954 241.344282,107.770769 240.620684,107.678145 L240.184606,107.650358 C239.310533,107.650358 238.43646,107.983805 237.769565,108.650701 Z M215.543773,138.759876 L215.738235,138.87652 C216.841941,139.520409 218.090018,139.943848 219.422101,140.086473 L219.787434,140.118363 L220.425175,140.139853 L221.062915,140.118363 L221.326267,140.096827 C226.047829,139.643595 229.73986,135.665541 229.73986,130.825167 C229.73986,127.044589 227.487571,123.790061 224.251602,122.330192 L224.054924,122.244295 L223.838806,122.155925 L223.838806,122.155925 L223.530265,122.040579 L223.530265,122.040579 L223.331213,121.972768 L223.331213,121.972768 L222.999793,121.870867 L222.999793,121.870867 L222.587072,121.762652 L222.587072,121.762652 L222.292975,121.697791 L222.292975,121.697791 L221.867559,121.621479 L221.867559,121.621479 L221.545557,121.577169 L221.545557,121.577169 L221.373828,121.558195 L221.373828,121.558195 L221.164364,121.539382 L221.164364,121.539382 L220.775783,121.516958 L220.775783,121.516958 L220.425175,121.510482 C215.371068,121.510482 211.257117,125.535765 211.114323,130.555328 L211.11049,130.825167 C211.11049,130.949216 211.112914,131.072699 211.117719,131.195571 L211.137896,131.545059 L211.137896,131.545059 L211.169981,131.883764 L211.169981,131.883764 L211.198078,132.10782 L211.198078,132.10782 C211.231956,132.353847 211.27547,132.596912 211.328217,132.836551 L211.444486,133.305981 L211.444486,133.305981 L211.512895,133.541893 L211.512895,133.541893 L211.602852,133.821361 L211.602852,133.821361 L211.704264,134.104816 L211.704264,134.104816 C211.789165,134.330452 211.882535,134.551854 211.984004,134.768679 L212.175539,135.154376 L212.175539,135.154376 L212.318238,135.415504 L212.318238,135.415504 C212.493333,135.724051 212.685437,136.021495 212.89332,136.306651 L213.139221,136.62903 L213.139221,136.62903 L213.383632,136.922935 L213.383632,136.922935 L213.585846,137.148755 L213.585846,137.148755 L213.813234,137.386083 L213.813234,137.386083 C213.958014,137.531984 214.107616,137.673141 214.261769,137.809283 L214.592395,138.087962 L214.592395,138.087962 L214.789294,138.242009 L214.789294,138.242009 L215.017459,138.410253 L215.017459,138.410253 C215.18863,138.532508 215.36418,138.649155 215.543773,138.759876 Z" id="shadow-with-outline" fill="#000000" fill-rule="nonzero"></path>
        <path d="M136,78 L136.768141,78.0207155 C143.888588,78.4057432 149.594257,84.1114121 149.979285,91.2318592 L150,92 L150,196 L149.979285,196.768141 C149.594257,203.888588 143.888588,209.594257 136.768141,209.979285 L136,210 L32,210 L31.2318592,209.979285 C24.1114121,209.594257 18.4057432,203.888588 18.0207155,196.768141 L18,196 L18,92 L18.0207155,91.2318592 C18.4057432,84.1114121 24.1114121,78.4057432 31.2318592,78.0207155 L32,78 L136,78 Z M221.552861,156.272 L221.855686,156.471677 L222.362746,157.018247 L245.95564,192.407588 L246.124335,192.706146 C246.270193,193.015482 246.34674,193.354499 246.34674,193.699302 C246.34674,194.599565 245.835875,195.380509 245.088227,195.768052 L244.754109,195.909257 L244.018069,196.027974 L196.832281,196.027974 L196.490291,196.002726 C196.152,195.952499 195.82746,195.828137 195.540567,195.636874 C194.791503,195.137498 194.425095,194.279243 194.51736,193.442193 L194.585206,193.085863 L194.894709,192.407588 L218.487603,157.018247 L218.673997,156.775007 C218.808515,156.62154 218.96292,156.486083 219.13346,156.37239 C219.775515,155.944354 220.552825,155.877237 221.226038,156.123169 L221.552861,156.272 Z M60.7333333,151.36 L51.4,151.36 L50.8041171,151.386363 C47.8577445,151.648176 45.4363851,153.832813 44.8621776,156.716933 L44.7723565,157.30272 L44.7362272,157.919117 L44.7333333,186.026667 L44.7596959,186.62255 C45.0215095,189.568922 47.2061467,191.990282 50.0902659,192.564489 L50.6760537,192.65431 L51.2924501,192.690439 L60.7333333,192.693333 L61.3292163,192.666971 C64.2755889,192.405157 66.6969483,190.22052 67.2711558,187.336401 L67.3609768,186.750613 L67.3971062,186.134217 L67.4,158.026667 L67.3755294,157.451441 C67.1010384,154.239591 64.5493092,151.677698 61.3419921,151.387412 L60.7333333,151.36 Z M116.733333,151.36 L107.4,151.36 L106.804117,151.386363 C103.857744,151.648176 101.436385,153.832813 100.862178,156.716933 L100.772356,157.30272 L100.736227,157.919117 L100.733333,186.026667 L100.759696,186.62255 C101.021509,189.568922 103.206147,191.990282 106.090266,192.564489 L106.676054,192.65431 L107.29245,192.690439 L116.733333,192.693333 L117.329216,192.666971 C120.275589,192.405157 122.696948,190.22052 123.271156,187.336401 L123.360977,186.750613 L123.397106,186.134217 L123.4,158.026667 L123.375529,157.451441 C123.101038,154.239591 120.549309,151.677698 117.341992,151.387412 L116.733333,151.36 Z M84.0666667,95.36 C58.05591,95.36 36.7378714,115.792473 35.4605374,141.578209 L35.4153992,142.790778 L35.4,144.001749 L35.4,169.693333 L35.4455788,170.2913 L35.5611917,170.792168 C36.1185834,172.741696 37.7917196,174.026667 39.7333333,174.026667 C41.7011998,174.026667 43.3904385,172.707318 43.9060954,170.864834 L44.0100421,170.393775 L44.0601874,169.85419 L44.0666667,144.026667 L44.0843641,142.817226 L44.1318322,141.705951 C45.3205974,120.66761 62.7881608,104.026667 84.0666667,104.026667 C105.380445,104.026667 122.864979,120.720792 124.007311,141.827731 L124.052276,142.94263 L124.066843,144.053216 L124.066667,169.693333 L124.112245,170.2913 L124.227858,170.792168 C124.78525,172.741696 126.458386,174.026667 128.4,174.026667 C130.367866,174.026667 132.057105,172.707318 132.572762,170.864834 L132.676709,170.393775 L132.726854,169.85419 L132.733333,144.026667 L132.715217,142.692996 L132.667096,141.481661 C131.327458,115.722931 110.031474,95.36 84.0666667,95.36 Z M253.357561,94.4774045 L253.793638,94.5051918 C254.517237,94.5978161 255.216856,94.9220013 255.772602,95.4777475 C275.294447,114.999593 275.294447,146.650757 255.772602,166.172602 C255.328005,166.617199 254.791329,166.913597 254.22396,167.061796 L253.793638,167.145158 L253.357561,167.172945 C252.483487,167.172945 251.609414,166.839498 250.942519,166.172602 C249.608728,164.838812 249.608728,162.67631 250.942519,161.342519 C267.796783,144.488255 267.796783,117.162094 250.942519,100.307831 C249.608728,98.97404 249.608728,96.8115381 250.942519,95.4777475 C251.609414,94.8108521 252.483487,94.4774045 253.357561,94.4774045 Z M187.492789,94.4774045 L187.928866,94.5051918 C188.652465,94.5978161 189.352085,94.9220013 189.907831,95.4777475 C191.241621,96.8115381 191.241621,98.97404 189.907831,100.307831 C173.053567,117.162094 173.053567,144.488255 189.907831,161.342519 C191.241621,162.67631 191.241621,164.838812 189.907831,166.172602 C189.463234,166.617199 188.926558,166.913597 188.359189,167.061796 L187.928866,167.145158 L187.492789,167.172945 C186.618716,167.172945 185.744643,166.839498 185.077747,166.172602 C165.555902,146.650757 165.555902,114.999593 185.077747,95.4777475 C185.744643,94.8108521 186.618716,94.4774045 187.492789,94.4774045 Z M240.184606,107.650358 L240.620684,107.678145 C241.344282,107.770769 242.043902,108.094954 242.599648,108.650701 C254.846271,120.897324 254.846271,140.753023 242.599648,152.999647 C242.155051,153.444244 241.618375,153.740642 241.051006,153.888841 L240.620684,153.972202 L240.184606,153.99999 C239.310533,153.99999 238.43646,153.666542 237.769565,152.999647 C236.435774,151.665856 236.435774,149.503354 237.769565,148.169563 C247.348607,138.590521 247.348607,123.059826 237.769565,113.480784 C236.435774,112.146993 236.435774,109.984491 237.769565,108.650701 C238.43646,107.983805 239.310533,107.650358 240.184606,107.650358 Z M200.665743,107.650358 L201.101821,107.678145 C201.825419,107.770769 202.525039,108.094954 203.080785,108.650701 C204.414576,109.984491 204.414576,112.146993 203.080785,113.480784 C193.501743,123.059826 193.501743,138.590521 203.080785,148.169563 C204.414576,149.503354 204.414576,151.665856 203.080785,152.999647 C202.636188,153.444244 202.099512,153.740642 201.532143,153.888841 L201.101821,153.972202 L200.665743,153.99999 C199.79167,153.99999 198.917597,153.666542 198.250702,152.999647 C186.004078,140.753023 186.004078,120.897324 198.250702,108.650701 C198.917597,107.983805 199.79167,107.650358 200.665743,107.650358 Z M220.425175,121.510482 C225.569533,121.510482 229.73986,125.680809 229.73986,130.825167 C229.73986,135.540829 226.235627,139.438034 221.689122,140.05482 L221.062915,140.118363 L220.425175,140.139853 L219.787434,140.118363 C214.940529,139.790634 211.11049,135.755178 211.11049,130.825167 C211.11049,125.680809 215.280816,121.510482 220.425175,121.510482 Z" id="Icon-Fill" fill="#FFFFFF" fill-rule="nonzero" opacity="0.9"></path>
    </g>
</svg>