<?xml version="1.0" encoding="UTF-8"?>
<svg width="288px" height="288px" viewBox="0 0 288 288" version="1.1" xmlns="http://www.w3.org/2000/svg" xmlns:xlink="http://www.w3.org/1999/xlink" xml:space="preserve" style="fill-rule:evenodd;clip-rule:evenodd;stroke-linejoin:round;stroke-miterlimit:2;">
	<title>ToggleMonitorMixOutput_Speaker-selected</title>
    <g id="ToggleMonitorMixOutput_Speaker-selected">
        <rect id="Background" fill="#1E183C" fill-rule="nonzero" x="0" y="0" width="288" height="288"></rect>
        <g id="Headphone" transform="matrix(1,0,0,1,17,92)">
            <path id="Headphone_shadow-with-outline" d="M50.667,0c16.002,0 30.301,7.429 39.595,19.061c10.97,8.765 18.23,22.003 19.004,37.001l0.049,1.244l0.018,1.361l0,25.666c0,3.498 -2.835,6.334 -6.333,6.334c-1.081,0 -2.106,-0.273 -3.005,-0.772l0.005,10.772c0,4.578 -3.55,8.327 -8.048,8.645l-0.619,0.021l-9.333,0c-4.571,0 -8.315,-3.538 -8.643,-8.024c-4.282,-0.313 -7.7,-3.738 -8.002,-8.023l-0.022,-0.619l0,-28c0,-4.579 3.55,-8.328 8.048,-8.645l0.619,-0.022l9.333,0c2.013,0 3.865,0.686 5.336,1.836l-0.002,-7.169c0,-8.453 -2.76,-16.262 -7.428,-22.573c-6.311,-4.667 -14.119,-7.427 -22.572,-7.427c-20.069,0 -36.569,15.581 -37.911,35.333l6.577,0c4.571,0 8.315,3.538 8.644,8.025c4.282,0.313 7.699,3.738 8.001,8.023l0.022,0.619l0,28c0,4.578 -3.55,8.327 -8.048,8.645l-0.619,0.021l-9.333,0c-4.571,0 -8.315,-3.538 -8.643,-8.024c-4.282,-0.313 -7.7,-3.738 -8.002,-8.023l-0.022,-0.619l0.001,-4.526c-0.513,-0.691 -0.908,-1.505 -1.146,-2.416l-0.134,-0.615l-0.054,-0.777l0,-1.888c-0.531,0.145 -1.09,0.222 -1.667,0.222c-2.882,0 -5.359,-1.937 -6.145,-4.942l-0.134,-0.615l-0.054,-0.777l0,-25.666c0,-27.983 22.684,-50.667 50.667,-50.667Zm-23.334,60l-9.333,0l-0.217,0.005c-2.235,0.102 -4.059,1.776 -4.395,3.942l-0.027,0.211l-0.028,0.509l0,28l0.005,0.217c0.103,2.235 1.777,4.059 3.942,4.394l0.212,0.028l0.508,0.027l9.333,0l0.509,-0.027l0.215,-0.029c1.998,-0.311 3.576,-1.889 3.887,-3.886l0.029,-0.216l0.027,-0.508l0,-28l-0.005,-0.218c-0.102,-2.234 -1.776,-4.059 -3.942,-4.394l-0.211,-0.028l-0.509,-0.027Zm56,0l-9.333,0l-0.217,0.005c-2.235,0.102 -4.059,1.776 -4.395,3.942l-0.027,0.211l-0.028,0.509l0,28l0.005,0.217c0.103,2.235 1.777,4.059 3.942,4.394l0.212,0.028l0.508,0.027l9.333,0l0.509,-0.027l0.215,-0.029c1.998,-0.311 3.576,-1.889 3.887,-3.886l0.029,-0.216l0.027,-0.508l0,-28l-0.005,-0.218c-0.102,-2.234 -1.776,-4.059 -3.942,-4.394l-0.211,-0.028l-0.509,-0.027Zm-32.666,-56c-25.123,0 -45.61,19.852 -46.627,44.725l-0.025,0.756l-0.015,1.186l0,25.666l0.038,0.42l0.037,0.168c0.215,0.831 0.877,1.482 1.715,1.682l0.169,0.034l0.374,0.03l0.379,-0.031l0.171,-0.035c0.847,-0.204 1.514,-0.871 1.718,-1.718l0.035,-0.171l0.031,-0.379l0,-25.666l0.018,-1.239l0.025,-0.677c1.001,-22.307 19.403,-40.084 41.957,-40.084c22.587,0 41.01,17.83 41.961,40.184l0.024,0.678l0.015,1.138l0,25.666l0.037,0.42l0.037,0.168c0.216,0.831 0.878,1.482 1.715,1.682l0.17,0.034l0.374,0.03l0.378,-0.031l0.172,-0.035c0.847,-0.204 1.513,-0.871 1.718,-1.718l0.035,-0.171l0.03,-0.379l0,-25.666l-0.018,-1.307l-0.026,-0.753c-1.078,-24.818 -21.539,-44.607 -46.622,-44.607Z" style="fill-rule:nonzero;"/>
            <path id="Headphone_Fill" d="M27.333,60l0.509,0.027c2.267,0.246 4.047,2.116 4.153,4.422l0.005,0.218l0,28l-0.027,0.508c-0.228,2.099 -1.847,3.78 -3.916,4.102l-0.215,0.029l-0.509,0.027l-9.333,0l-0.508,-0.027c-2.268,-0.246 -4.048,-2.115 -4.154,-4.422l-0.005,-0.217l0,-28l0.028,-0.509c0.245,-2.267 2.115,-4.047 4.422,-4.153l0.217,-0.005l9.333,0Zm56,0l0.509,0.027c2.267,0.246 4.047,2.116 4.153,4.422l0.005,0.218l0,28l-0.027,0.508c-0.228,2.099 -1.847,3.78 -3.916,4.102l-0.215,0.029l-0.509,0.027l-9.333,0l-0.508,-0.027c-2.268,-0.246 -4.048,-2.115 -4.154,-4.422l-0.005,-0.217l0,-28l0.028,-0.509c0.245,-2.267 2.115,-4.047 4.422,-4.153l0.217,-0.005l9.333,0Zm-32.666,-56c25.083,0 45.544,19.789 46.622,44.607l0.026,0.753l0.018,1.307l0,25.666l-0.03,0.379c-0.151,0.927 -0.85,1.671 -1.753,1.889l-0.172,0.035l-0.378,0.031l-0.374,-0.03c-0.917,-0.148 -1.655,-0.829 -1.885,-1.716l-0.037,-0.168l-0.037,-0.42l0,-25.666l-0.015,-1.138c-0.603,-22.67 -19.17,-40.862 -41.985,-40.862c-22.554,0 -40.956,17.777 -41.957,40.084l-0.025,0.677l-0.018,1.239l0,25.666l-0.031,0.379c-0.151,0.927 -0.849,1.671 -1.753,1.889l-0.171,0.035l-0.379,0.031l-0.374,-0.03c-0.916,-0.148 -1.654,-0.829 -1.884,-1.716l-0.037,-0.168l-0.038,-0.42l0,-25.666l0.015,-1.186c0.629,-25.226 21.275,-45.481 46.652,-45.481Z" style="fill:white;fill-opacity:0.9;fill-rule:nonzero;"/>
        </g>
        <g id="Speaker" transform="matrix(1,0,0,1,37,90)">
            <g id="shadow-with-outline" transform="matrix(1,0,0,1,79,-90)">
                <path d="M136,74c9.299,0 16.951,7.052 17.901,16.099c8.937,0.938 15.927,8.416 16.096,17.562l0.003,0.339l0,104c0,9.831 -7.881,17.821 -17.669,17.997l-0.331,0.003l-104,0c-9.299,0 -16.951,-7.052 -17.901,-16.1c-8.771,-0.92 -15.666,-8.14 -16.079,-17.053l-0.02,-0.847l0,-104c0,-9.657 7.605,-17.538 17.153,-17.98l0.847,-0.02l104,0Zm14,18.2l0,-0.2l-0.004,-0.319c-0.161,-7.221 -5.789,-13.092 -12.908,-13.639l-0.32,-0.021l-0.768,-0.021l-104,0l-0.319,0.004c-7.221,0.161 -13.092,5.789 -13.639,12.908l-0.021,0.32l-0.021,0.768l0,104l0.004,0.319c0.161,7.221 5.789,13.092 12.908,13.639l0.32,0.021l0.768,0.021l13.404,0c-1.51,-2.043 -2.404,-4.57 -2.404,-7.304l0,-99.392c0,-6.791 5.513,-12.304 12.304,-12.304l89.392,0c1.899,0 3.698,0.431 5.304,1.2Z" style="fill-rule:nonzero;"/>
            </g>
            <g transform="matrix(1,0,0,1,-37,-90)">
                <path d="M251.848,77.983l0.768,0.021c7.12,0.385 12.826,6.09 13.211,13.211l0.021,0.768l0,104l-0.021,0.768c-0.385,7.121 -6.091,12.826 -13.211,13.211l-0.768,0.021l-104,0l-0.768,-0.021c-7.121,-0.385 -12.827,-6.09 -13.212,-13.211l-0.02,-0.768l0,-104l0.02,-0.768c0.385,-7.121 6.091,-12.826 13.212,-13.211l0.768,-0.021l104,0Zm-30.174,114.958l-43.622,0c-7.839,0 -14.204,-6.359 -14.204,-14.198l0,-69.556c0,-7.839 6.365,-14.204 14.204,-14.204l43.622,0c7.839,0 14.205,6.365 14.205,14.204l0,69.556c0,7.839 -6.366,14.198 -14.205,14.198Zm-21.649,-65.426c16.281,0 29.47,13.196 29.47,29.47c0,16.281 -13.189,29.47 -29.47,29.47c-16.274,0 -29.47,-13.189 -29.47,-29.47c0,-16.274 13.196,-29.47 29.47,-29.47Zm-0.006,19.837c5.481,0 9.921,4.401 9.921,9.823c0,5.422 -4.44,9.823 -9.921,9.823c-5.488,0 -9.928,-4.401 -9.928,-9.823c0,-5.422 4.44,-9.823 9.928,-9.823Zm0.006,-46.032c5.429,0 9.824,4.401 9.824,9.823c0,5.429 -4.395,9.823 -9.824,9.823c-5.422,0 -9.823,-4.394 -9.823,-9.823c0,-5.422 4.401,-9.823 9.823,-9.823Zm-0.006,4.996c2.796,0 5.062,2.247 5.062,5.017c0,2.77 -2.266,5.016 -5.062,5.016c-2.803,0 -5.069,-2.246 -5.069,-5.016c0,-2.77 2.266,-5.017 5.069,-5.017Z" style="fill:white;fill-opacity:0.9;"/>
            </g>
        </g>
    </g>
</svg>
