<?xml version="1.0" encoding="UTF-8"?>
<svg width="288px" height="288px" viewBox="0 0 288 288" version="1.1" xmlns="http://www.w3.org/2000/svg" xmlns:xlink="http://www.w3.org/1999/xlink" xml:space="preserve" style="fill-rule:evenodd;clip-rule:evenodd;stroke-linejoin:round;stroke-miterlimit:2;">
	<title>SetMonitorMixOutput</title>
    <g id="SetMonitorMixOutput">
        <rect id="Background" fill="#1E183C" fill-rule="nonzero" x="0" y="0" width="288" height="288"></rect>
        <g id="Monitor-mix" transform="matrix(1,0,0,1,37,90)">
            <g id="Star_shadow-with-outline" transform="matrix(1,0,0,1,-90,-157)">
                <path d="M200.151,104.478c1.499,0.575 2.7,1.726 3.343,3.189l0.107,0.261l1.698,4.421c1.586,-2 4.343,-2.835 6.852,-1.871c1.499,0.575 2.7,1.726 3.343,3.189l0.107,0.261l2.76,7.186l3.655,0.193c3.094,0.163 5.517,2.642 5.677,5.668l6.323,0.332c3.159,0.166 5.618,2.746 5.685,5.859l0,0.223l-0.008,0.225c-0.084,1.603 -0.807,3.102 -2,4.164l-0.215,0.183l-10.545,8.541l3.511,13.107c0.818,3.054 -0.874,6.189 -3.81,7.215l-0.217,0.071l-0.217,0.062c-1.55,0.416 -3.199,0.191 -4.578,-0.615l-0.241,-0.148l-7.852,-5.097c-1.343,0.199 -2.719,-0.063 -3.898,-0.749l-0.25,-0.154l-0.761,-0.495l-10.001,6.495c-2.642,1.715 -6.13,1.086 -8.018,-1.368l-0.146,-0.198l-0.136,-0.199c-0.874,-1.347 -1.17,-2.984 -0.83,-4.545l0.067,-0.275l0.429,-1.601l-3.366,2.186c-2.642,1.715 -6.13,1.086 -8.018,-1.368l-0.146,-0.198l-0.136,-0.199c-0.874,-1.347 -1.17,-2.984 -0.83,-4.545l0.067,-0.275l3.51,-13.107l-10.544,-8.541c-2.444,-1.98 -2.926,-5.485 -1.184,-8.038l0.147,-0.205l0.151,-0.196c1.011,-1.247 2.476,-2.035 4.066,-2.193l0.282,-0.022l13.55,-0.712l4.865,-12.667c1.188,-3.093 4.658,-4.638 7.752,-3.45Zm-3.956,4.74l-0.062,0.144l-5.795,15.092l-16.144,0.848c-0.566,0.029 -1.093,0.298 -1.449,0.738c-0.661,0.816 -0.575,1.993 0.172,2.705l0.123,0.108l12.562,10.175l-4.182,15.616c-0.147,0.547 -0.054,1.131 0.254,1.607c0.572,0.88 1.718,1.161 2.626,0.672l0.141,-0.084l12.47,-8.096c0.615,-0.399 1.395,-0.428 2.033,-0.086l0.145,0.086l12.47,8.096c0.475,0.309 1.059,0.401 1.607,0.254c1.018,-0.272 1.641,-1.284 1.447,-2.303l-0.033,-0.146l-4.182,-15.616l12.562,-10.175c0.44,-0.357 0.709,-0.883 0.738,-1.449c0.056,-1.053 -0.714,-1.958 -1.743,-2.089l-0.149,-0.013l-16.144,-0.848l-5.795,-15.092c-0.203,-0.529 -0.621,-0.947 -1.15,-1.15c-0.93,-0.357 -1.963,0.027 -2.447,0.863l-0.075,0.143Z" style="fill-rule:nonzero;"/>
            </g>
            <g id="Star-fill---yellow-100-" transform="matrix(1,0,0,1,-90,-157)">
                <path d="M198.717,108.212c0.529,0.203 0.947,0.621 1.15,1.15l5.795,15.092l16.144,0.848c1.103,0.058 1.95,0.999 1.892,2.102c-0.029,0.566 -0.298,1.092 -0.738,1.449l-12.562,10.175l4.182,15.616c0.286,1.067 -0.347,2.164 -1.414,2.449c-0.548,0.147 -1.132,0.055 -1.607,-0.254l-12.47,-8.096c-0.662,-0.43 -1.516,-0.43 -2.178,0l-12.47,8.096c-0.927,0.601 -2.165,0.338 -2.767,-0.588c-0.308,-0.476 -0.401,-1.06 -0.254,-1.607l4.182,-15.616l-12.562,-10.175c-0.858,-0.695 -0.991,-1.955 -0.295,-2.813c0.356,-0.44 0.883,-0.709 1.449,-0.738l16.144,-0.848l5.795,-15.092c0.396,-1.031 1.553,-1.546 2.584,-1.15Z" style="fill:rgb(255,207,75);fill-rule:nonzero;"/>
            </g>
            <g id="Star-Highlight" transform="matrix(1,0,0,1,-90,-157)">
                <path d="M190.968,127.001c0.828,-0.025 1.519,0.627 1.543,1.455c0.023,0.779 -0.553,1.437 -1.311,1.532l-0.144,0.011l-10.652,0.313c-0.828,0.024 -1.519,-0.627 -1.543,-1.455c-0.023,-0.78 0.553,-1.438 1.311,-1.533l0.144,-0.011l10.652,-0.312Z" style="fill:white;fill-rule:nonzero;"/>
            </g>
            <g id="Headphone" transform="matrix(1,0,0,1,0,2)">
                <path id="Headphone_shadow-with-outline" d="M50.667,0c16.002,0 30.301,7.429 39.595,19.061c10.97,8.765 18.23,22.003 19.004,37.001l0.049,1.244l0.018,1.361l0,25.666c0,3.498 -2.835,6.334 -6.333,6.334c-1.081,0 -2.106,-0.273 -3.005,-0.772l0.005,10.772c0,4.578 -3.55,8.327 -8.048,8.645l-0.619,0.021l-9.333,0c-4.571,0 -8.315,-3.538 -8.643,-8.024c-4.282,-0.313 -7.7,-3.738 -8.002,-8.023l-0.022,-0.619l0,-28c0,-4.579 3.55,-8.328 8.048,-8.645l0.619,-0.022l9.333,0c2.013,0 3.865,0.686 5.336,1.836l-0.002,-7.169c0,-8.453 -2.76,-16.262 -7.428,-22.573c-6.311,-4.667 -14.119,-7.427 -22.572,-7.427c-20.069,0 -36.569,15.581 -37.911,35.333l6.577,0c4.571,0 8.315,3.538 8.644,8.025c4.282,0.313 7.699,3.738 8.001,8.023l0.022,0.619l0,28c0,4.578 -3.55,8.327 -8.048,8.645l-0.619,0.021l-9.333,0c-4.571,0 -8.315,-3.538 -8.643,-8.024c-4.282,-0.313 -7.7,-3.738 -8.002,-8.023l-0.022,-0.619l0.001,-4.526c-0.513,-0.691 -0.908,-1.505 -1.146,-2.416l-0.134,-0.615l-0.054,-0.777l0,-1.888c-0.531,0.145 -1.09,0.222 -1.667,0.222c-2.882,0 -5.359,-1.937 -6.145,-4.942l-0.134,-0.615l-0.054,-0.777l0,-25.666c0,-27.983 22.684,-50.667 50.667,-50.667Zm-23.334,60l-9.333,0l-0.217,0.005c-2.235,0.102 -4.059,1.776 -4.395,3.942l-0.027,0.211l-0.028,0.509l0,28l0.005,0.217c0.103,2.235 1.777,4.059 3.942,4.394l0.212,0.028l0.508,0.027l9.333,0l0.509,-0.027l0.215,-0.029c1.998,-0.311 3.576,-1.889 3.887,-3.886l0.029,-0.216l0.027,-0.508l0,-28l-0.005,-0.218c-0.102,-2.234 -1.776,-4.059 -3.942,-4.394l-0.211,-0.028l-0.509,-0.027Zm56,0l-9.333,0l-0.217,0.005c-2.235,0.102 -4.059,1.776 -4.395,3.942l-0.027,0.211l-0.028,0.509l0,28l0.005,0.217c0.103,2.235 1.777,4.059 3.942,4.394l0.212,0.028l0.508,0.027l9.333,0l0.509,-0.027l0.215,-0.029c1.998,-0.311 3.576,-1.889 3.887,-3.886l0.029,-0.216l0.027,-0.508l0,-28l-0.005,-0.218c-0.102,-2.234 -1.776,-4.059 -3.942,-4.394l-0.211,-0.028l-0.509,-0.027Zm-32.666,-56c-25.123,0 -45.61,19.852 -46.627,44.725l-0.025,0.756l-0.015,1.186l0,25.666l0.038,0.42l0.037,0.168c0.215,0.831 0.877,1.482 1.715,1.682l0.169,0.034l0.374,0.03l0.379,-0.031l0.171,-0.035c0.847,-0.204 1.514,-0.871 1.718,-1.718l0.035,-0.171l0.031,-0.379l0,-25.666l0.018,-1.239l0.025,-0.677c1.001,-22.307 19.403,-40.084 41.957,-40.084c22.587,0 41.01,17.83 41.961,40.184l0.024,0.678l0.015,1.138l0,25.666l0.037,0.42l0.037,0.168c0.216,0.831 0.878,1.482 1.715,1.682l0.17,0.034l0.374,0.03l0.378,-0.031l0.172,-0.035c0.847,-0.204 1.513,-0.871 1.718,-1.718l0.035,-0.171l0.03,-0.379l0,-25.666l-0.018,-1.307l-0.026,-0.753c-1.078,-24.818 -21.539,-44.607 -46.622,-44.607Z" style="fill-rule:nonzero;"/>
                <path id="Headphone_fill" d="M27.333,60l0.509,0.027c2.267,0.246 4.047,2.116 4.153,4.422l0.005,0.218l0,28l-0.027,0.508c-0.228,2.099 -1.847,3.78 -3.916,4.102l-0.215,0.029l-0.509,0.027l-9.333,0l-0.508,-0.027c-2.268,-0.246 -4.048,-2.115 -4.154,-4.422l-0.005,-0.217l0,-28l0.028,-0.509c0.245,-2.267 2.115,-4.047 4.422,-4.153l0.217,-0.005l9.333,0Zm56,0l0.509,0.027c2.267,0.246 4.047,2.116 4.153,4.422l0.005,0.218l0,28l-0.027,0.508c-0.228,2.099 -1.847,3.78 -3.916,4.102l-0.215,0.029l-0.509,0.027l-9.333,0l-0.508,-0.027c-2.268,-0.246 -4.048,-2.115 -4.154,-4.422l-0.005,-0.217l0,-28l0.028,-0.509c0.245,-2.267 2.115,-4.047 4.422,-4.153l0.217,-0.005l9.333,0Zm-32.666,-56c25.083,0 45.544,19.789 46.622,44.607l0.026,0.753l0.018,1.307l0,25.666l-0.03,0.379c-0.151,0.927 -0.85,1.671 -1.753,1.889l-0.172,0.035l-0.378,0.031l-0.374,-0.03c-0.917,-0.148 -1.655,-0.829 -1.885,-1.716l-0.037,-0.168l-0.037,-0.42l0,-25.666l-0.015,-1.138c-0.603,-22.67 -19.17,-40.862 -41.985,-40.862c-22.554,0 -40.956,17.777 -41.957,40.084l-0.025,0.677l-0.018,1.239l0,25.666l-0.031,0.379c-0.151,0.927 -0.849,1.671 -1.753,1.889l-0.171,0.035l-0.379,0.031l-0.374,-0.03c-0.916,-0.148 -1.654,-0.829 -1.884,-1.716l-0.037,-0.168l-0.038,-0.42l0,-25.666l0.015,-1.186c0.629,-25.226 21.275,-45.481 46.652,-45.481Z" style="fill:white;fill-opacity:0.9;fill-rule:nonzero;"/>
            </g>
            <g id="Speaker" transform="matrix(1,0,0,1,-8,0)">
                <g id="Speaker_shadow-with-outline" transform="matrix(1,0,0,1,-29,-90)">
                    <path d="M168.547,190.079c-2.928,-3.148 -4.721,-7.367 -4.721,-12.003c0,0 0,-67.729 0,-67.729c0,-9.734 7.905,-17.638 17.639,-17.638c0,0 42.477,0 42.477,0c7.995,0 14.756,5.333 16.916,12.632c2.93,3.15 4.722,7.371 4.722,12.006l0,67.729c0,9.735 -7.904,17.633 -17.638,17.633c0,0 -42.477,0 -42.477,0c-7.997,0 -14.759,-5.33 -16.918,-12.63Zm57.502,-41.878c-4.561,-5.623 -11.528,-9.217 -19.336,-9.217c-13.745,0 -24.889,11.145 -24.889,24.889c0,3.05 0.548,5.971 1.552,8.673c4.564,5.624 11.531,9.216 19.337,9.216c13.75,0 24.889,-11.139 24.889,-24.889c0,-3.05 -0.549,-5.972 -1.553,-8.672Zm-32.523,18.647c-2.644,-2.444 -4.294,-5.929 -4.294,-9.79c0,-7.37 6.015,-13.372 13.474,-13.372c6.484,0 11.882,4.544 13.174,10.582c2.644,2.444 4.294,5.929 4.294,9.79c0,7.371 -6.016,13.373 -13.468,13.373c-6.492,0 -11.889,-4.547 -13.18,-10.583Z"/>
                </g>
                <g id="Speaker_fill" transform="matrix(6.28145,0,0,6.28145,-87.1324,-263.103)">
                    <path d="M44.83,57.958l-6.661,0c-1.197,0 -2.169,-0.971 -2.169,-2.168l0,-10.621c0,-1.197 0.972,-2.169 2.169,-2.169l6.661,0c1.197,0 2.169,0.972 2.169,2.169l0,10.621c0,1.197 -0.972,2.168 -2.169,2.168Zm-3.329,-9.993c2.486,0 4.5,2.015 4.5,4.5c0,2.486 -2.014,4.5 -4.5,4.5c-2.485,0 -4.5,-2.014 -4.5,-4.5c0,-2.485 2.015,-4.5 4.5,-4.5Zm-0.001,3.029c0.837,0 1.515,0.672 1.515,1.5c0,0.828 -0.678,1.5 -1.515,1.5c-0.838,0 -1.516,-0.672 -1.516,-1.5c0,-0.828 0.678,-1.5 1.516,-1.5Zm0.001,-7.029c0.829,0 1.5,0.672 1.5,1.5c0,0.829 -0.671,1.5 -1.5,1.5c-0.828,0 -1.5,-0.671 -1.5,-1.5c0,-0.828 0.672,-1.5 1.5,-1.5Zm-0.001,0.763c0.427,0 0.773,0.343 0.773,0.766c0,0.423 -0.346,0.766 -0.773,0.766c-0.428,0 -0.774,-0.343 -0.774,-0.766c0,-0.423 0.346,-0.766 0.774,-0.766Z" style="fill:white;fill-opacity:0.9;"/>
                </g>
            </g>
        </g>
    </g>
</svg>
