<?xml version="1.0" encoding="UTF-8"?>
<svg width="288px" height="288px" viewBox="0 0 288 288" version="1.1" xmlns="http://www.w3.org/2000/svg" xmlns:xlink="http://www.w3.org/1999/xlink">
    <!-- Generator: Sketch 64 (93537) - https://sketch.com -->
    <title>System / More</title>
    <desc>Created with Sketch.</desc>
    <g id="System-/-More" stroke="none" stroke-width="1" fill="none" fill-rule="evenodd">
        <rect id="Background" fill="#1E183C" fill-rule="nonzero" x="0" y="0" width="288" height="288"></rect>
        <path d="M98,130 C105.600579,130 111.963353,135.299674 113.59459,142.405291 C120.700326,144.036647 126,150.399421 126,158 C126,166.836556 118.836556,174 110,174 C102.399421,174 96.0366467,168.700326 94.40541,161.594709 C87.2996744,159.963353 82,153.600579 82,146 C82,137.163444 89.163444,130 98,130 Z M142,130 C149.600579,130 155.963353,135.299674 157.59459,142.405291 C164.700326,144.036647 170,150.399421 170,158 C170,166.836556 162.836556,174 154,174 C146.399421,174 140.036647,168.700326 138.40541,161.594709 C131.299674,159.963353 126,153.600579 126,146 C126,137.163444 133.163444,130 142,130 Z M186,130 C193.600579,130 199.963353,135.299674 201.59459,142.405291 C208.700326,144.036647 214,150.399421 214,158 C214,166.836556 206.836556,174 198,174 C190.399421,174 184.036647,168.700326 182.40541,161.594709 C175.299674,159.963353 170,153.600579 170,146 C170,137.163444 177.163444,130 186,130 Z" id="shadow-with-outline" fill="#000000" fill-rule="nonzero"></path>
        <path d="M98,134 C104.627417,134 110,139.372583 110,146 C110,152.627417 104.627417,158 98,158 C91.372583,158 86,152.627417 86,146 C86,139.372583 91.372583,134 98,134 Z M142,134 C148.627417,134 154,139.372583 154,146 C154,152.627417 148.627417,158 142,158 C135.372583,158 130,152.627417 130,146 C130,139.372583 135.372583,134 142,134 Z M186,134 C192.627417,134 198,139.372583 198,146 C198,152.627417 192.627417,158 186,158 C179.372583,158 174,152.627417 174,146 C174,139.372583 179.372583,134 186,134 Z" id="Icon-Fill" fill="#FFFFFF" fill-rule="nonzero" opacity="0.9"></path>
    </g>
</svg>