<?xml version="1.0" encoding="UTF-8"?>
<svg width="288px" height="288px" viewBox="0 0 288 288" version="1.1" xmlns="http://www.w3.org/2000/svg" xmlns:xlink="http://www.w3.org/1999/xlink">
    <!-- Generator: Sketch 64 (93537) - https://sketch.com -->
    <title>Input / Music Stream</title>
    <desc>Created with Sketch.</desc>
    <g id="Input-/-Music-Stream" stroke="none" stroke-width="1" fill="none" fill-rule="evenodd">
        <rect id="Background" fill="#FF00E8" fill-rule="nonzero" x="0" y="0" width="288" height="288"></rect>
        <path d="M264.752309,-10.1310623 C317.082564,42.1991928 317.082564,127.0433 264.752309,179.373555 C262.260392,181.865472 258.220196,181.865472 255.728279,179.373555 C253.236362,176.881638 253.236362,172.841443 255.728279,170.349526 C303.074701,123.003104 303.074701,46.2393884 255.728279,-1.10703292 C253.236362,-3.59894983 253.236362,-7.63914541 255.728279,-10.1310623 C258.220196,-12.6229792 262.260392,-12.6229792 264.752309,-10.1310623 Z M84.2717207,-10.1310623 C86.7636376,-7.63914541 86.7636376,-3.59894983 84.2717207,-1.10703292 C36.9252994,46.2393884 36.9252994,123.003104 84.2717207,170.349526 C86.7636376,172.841443 86.7636376,176.881638 84.2717207,179.373555 C81.7798038,181.865472 77.7396082,181.865472 75.2476913,179.373555 C22.9174362,127.0433 22.9174362,42.1991928 75.2476913,-10.1310623 C77.7396082,-12.6229792 81.7798038,-12.6229792 84.2717207,-10.1310623 Z M231.39697,27.2242767 C264.20101,60.0283172 264.20101,113.214175 231.39697,146.018216 C228.873582,148.541604 224.782362,148.541604 222.258974,146.018216 C219.735587,143.494828 219.735587,139.403608 222.258974,136.880221 C250.016239,109.122956 250.016239,64.1195371 222.258974,36.3622721 C219.735587,33.8388843 219.735587,29.7476645 222.258974,27.2242767 C224.782362,24.700889 228.873582,24.700889 231.39697,27.2242767 Z M121.741026,27.2242767 C124.264413,29.7476645 124.264413,33.8388843 121.741026,36.3622721 C93.9837607,64.1195371 93.9837607,109.122956 121.741026,136.880221 C124.264413,139.403608 124.264413,143.494828 121.741026,146.018216 C119.217638,148.541604 115.126418,148.541604 112.60303,146.018216 C79.7989899,113.214175 79.7989899,60.0283172 112.60303,27.2242767 C115.126418,24.700889 119.217638,24.700889 121.741026,27.2242767 Z M174,62.6212464 C188.359403,62.6212464 200,74.2618429 200,88.6212464 C200,102.98065 188.359403,114.621246 174,114.621246 C159.640597,114.621246 148,102.98065 148,88.6212464 C148,74.2618429 159.640597,62.6212464 174,62.6212464 Z" id="Stream_bg" fill="#000000" fill-rule="nonzero" opacity="0.3"></path>
        <path d="M201.932,59.26 L202.006863,60.1655455 L202,180 C202,192.150264 192.150264,202 180,202 C167.849736,202 158,192.150264 158,180 C158,167.849736 167.849736,158 180,158 C183.923336,158 187.692163,159.026588 191.010399,160.948845 L194.013435,162.688506 L193.999499,66.8857134 L118,110.319427 L118,204 C118,216.150264 108.150264,226 96,226 C83.8497355,226 74,216.150264 74,204 C74,191.849736 83.8497355,182 96,182 C99.9233355,182 103.692163,183.026588 107.010399,184.948845 L110.013527,186.688559 L110,107.999656 C110,106.812386 110.527559,105.689482 111.433261,104.931948 L112.165224,104.432401 L196.015444,56.5270274 C198.296822,55.2233831 201.131468,56.4504482 201.835871,58.8407463 L201.932,59.26 Z" id="Icon-Fill" fill="#FFFFFF" fill-rule="nonzero" opacity="0.5"></path>
        <path d="M205.768843,58.0651019 L205.886398,58.6356624 L205.9075,58.8033982 L206,60 L206,63.3727873 L207.023166,62.7905411 C210.715419,60.6806824 215.240105,62.9793397 215.914363,66.9689436 L216,68 L216,188 C216,201.254834 205.254834,212 192,212 C185.725968,212 180.014227,209.592546 175.738165,205.651026 C163.405309,203.617868 154,192.907298 154,180 C154,165.640597 165.640597,154 180,154 C182.94778,154 185.825708,154.491937 188.540048,155.435435 L189.693047,155.86732 L190.012,156 L190,86.3287873 L132,119.48 L132,212 C132,225.254834 121.254834,236 108,236 C101.725968,236 96.014227,233.592546 91.738165,229.651026 C79.4053094,227.617868 70,216.907298 70,204 C70,189.640597 81.6405965,178 96,178 C98.9477796,178 101.825708,178.491937 104.540048,179.435435 L105.693047,179.86732 L106.012,180 L106,108 C106,106.099783 106.675167,104.282655 107.945225,102.800674 L108.449225,102.261133 L109.008056,101.755966 L110.030888,101.054055 L194.030888,53.0540549 C198.536533,50.4794011 204.107813,52.829881 205.61345,57.514373 L205.768843,58.0651019 Z M201.835871,58.8407463 C201.175493,56.5998418 198.642831,55.3813101 196.449031,56.311917 L196.015444,56.5270274 L112.165224,104.432401 L111.433261,104.931948 C110.656945,105.581263 110.158448,106.499013 110.031864,107.495644 L110,107.999656 L110.013527,186.688559 L107.010399,184.948845 C103.692163,183.026588 99.9233355,182 96,182 C83.8497355,182 74,191.849736 74,204 C74,216.150264 83.8497355,226 96,226 C107.853917,226 117.518157,216.62488 117.982531,204.884829 L118,204 L118,110.319427 L193.999499,66.8857134 L194.013435,162.688506 L191.010399,160.948845 C187.692163,159.026588 183.923336,158 180,158 C167.849736,158 158,167.849736 158,180 C158,192.150264 167.849736,202 180,202 C191.853917,202 201.518157,192.62488 201.982531,180.884829 L202,180 L202.006863,60.1655455 L201.932,59.26 L201.835871,58.8407463 Z" id="shadow-with-outline" fill="#000000" fill-rule="nonzero"></path>
        <path d="M93.1842446,187.557292 C94.2888141,187.557292 95.1842446,188.452723 95.1842446,189.557292 C95.1842446,190.661862 94.2888141,191.557292 93.1842446,191.557292 C88.2881172,191.557292 84.540586,195.545607 81.9613441,204.115848 C81.6430235,205.173556 80.5275321,205.772947 79.4698243,205.454627 C78.4121165,205.136306 77.8127248,204.020815 78.1310454,202.963107 C81.1624489,192.890434 86.1736176,187.557292 93.1842446,187.557292 Z M177.13805,166 C178.242619,166 179.13805,166.895431 179.13805,168 C179.13805,169.104569 178.242619,170 177.13805,170 C172.241922,170 168.494391,173.988315 165.915149,182.558556 C165.596829,183.616264 164.481337,184.215655 163.42363,183.897335 C162.365922,183.579014 161.76653,182.463523 162.084851,181.405815 C165.116254,171.333142 170.127423,166 177.13805,166 Z" id="highlight" fill="#FFFFFF" fill-rule="nonzero"></path>
    </g>
</svg>