<?xml version="1.0" encoding="UTF-8"?>
<svg width="288px" height="288px" viewBox="0 0 288 288" version="1.1" xmlns="http://www.w3.org/2000/svg" xmlns:xlink="http://www.w3.org/1999/xlink">
    <!-- Generator: Sketch 64 (93537) - https://sketch.com -->
    <title>Input / Music Local</title>
    <desc>Created with Sketch.</desc>
    <g id="Input-/-Music-Local" stroke="none" stroke-width="1" fill="none" fill-rule="evenodd">
        <rect id="Background" fill="#FF00E8" fill-rule="nonzero" x="0" y="0" width="288" height="288"></rect>
        <path d="M41,219.2 C46.8542183,219.2 51.6,223.945782 51.6,229.8 L51.6,293.4 C51.6,299.254218 46.8542183,304 41,304 L19.8,304 C13.9457817,304 9.2,299.254218 9.2,293.4 L9.2,229.8 C9.2,223.945782 13.9457817,219.2 19.8,219.2 L41,219.2 Z M168.2,219.2 C174.054218,219.2 178.8,223.945782 178.8,229.8 L178.8,293.4 C178.8,299.254218 174.054218,304 168.2,304 L147,304 C141.145782,304 136.4,299.254218 136.4,293.4 L136.4,229.8 C136.4,223.945782 141.145782,219.2 147,219.2 L168.2,219.2 Z M94,92 C151.549943,92 198.388076,137.86271 199.959277,195.033009 L200,198 L200,256.3 C200,259.227109 197.627109,261.6 194.7,261.6 C192.098125,261.6 189.934151,259.725123 189.48539,257.252682 L189.4,256.3 L189.4,198 C189.4,145.312035 146.687965,102.6 94,102.6 C42.2528914,102.6 0.128610917,143.800225 -1.35932668,195.18716 L-1.4,198 L-1.4,256.3 C-1.4,259.227109 -3.77289083,261.6 -6.7,261.6 C-9.30187482,261.6 -11.4658487,259.725123 -11.9146099,257.252682 L-12,256.3 L-12,198 C-12,139.457817 35.4578165,92 94,92 Z" id="Local_bg" fill="#000000" fill-rule="nonzero" opacity="0.3"></path>
        <path d="M201.932,59.26 L202.006863,60.1655455 L202,180 C202,192.150264 192.150264,202 180,202 C167.849736,202 158,192.150264 158,180 C158,167.849736 167.849736,158 180,158 C183.923336,158 187.692163,159.026588 191.010399,160.948845 L194.013435,162.688506 L193.999499,66.8857134 L118,110.319427 L118,204 C118,216.150264 108.150264,226 96,226 C83.8497355,226 74,216.150264 74,204 C74,191.849736 83.8497355,182 96,182 C99.9233355,182 103.692163,183.026588 107.010399,184.948845 L110.013527,186.688559 L110,107.999656 C110,106.812386 110.527559,105.689482 111.433261,104.931948 L112.165224,104.432401 L196.015444,56.5270274 C198.296822,55.2233831 201.131468,56.4504482 201.835871,58.8407463 L201.932,59.26 Z" id="Icon-Fill" fill="#FFFFFF" fill-rule="nonzero" opacity="0.5"></path>
        <path d="M205.768843,58.0651019 L205.886398,58.6356624 L205.9075,58.8033982 L206,60 L206,63.3727873 L207.023166,62.7905411 C210.715419,60.6806824 215.240105,62.9793397 215.914363,66.9689436 L216,68 L216,188 C216,201.254834 205.254834,212 192,212 C185.725968,212 180.014227,209.592546 175.738165,205.651026 C163.405309,203.617868 154,192.907298 154,180 C154,165.640597 165.640597,154 180,154 C182.94778,154 185.825708,154.491937 188.540048,155.435435 L189.693047,155.86732 L190.012,156 L190,86.3287873 L132,119.48 L132,212 C132,225.254834 121.254834,236 108,236 C101.725968,236 96.014227,233.592546 91.738165,229.651026 C79.4053094,227.617868 70,216.907298 70,204 C70,189.640597 81.6405965,178 96,178 C98.9477796,178 101.825708,178.491937 104.540048,179.435435 L105.693047,179.86732 L106.012,180 L106,108 C106,106.099783 106.675167,104.282655 107.945225,102.800674 L108.449225,102.261133 L109.008056,101.755966 L110.030888,101.054055 L194.030888,53.0540549 C198.536533,50.4794011 204.107813,52.829881 205.61345,57.514373 L205.768843,58.0651019 Z M201.835871,58.8407463 C201.175493,56.5998418 198.642831,55.3813101 196.449031,56.311917 L196.015444,56.5270274 L112.165224,104.432401 L111.433261,104.931948 C110.656945,105.581263 110.158448,106.499013 110.031864,107.495644 L110,107.999656 L110.013527,186.688559 L107.010399,184.948845 C103.692163,183.026588 99.9233355,182 96,182 C83.8497355,182 74,191.849736 74,204 C74,216.150264 83.8497355,226 96,226 C107.853917,226 117.518157,216.62488 117.982531,204.884829 L118,204 L118,110.319427 L193.999499,66.8857134 L194.013435,162.688506 L191.010399,160.948845 C187.692163,159.026588 183.923336,158 180,158 C167.849736,158 158,167.849736 158,180 C158,192.150264 167.849736,202 180,202 C191.853917,202 201.518157,192.62488 201.982531,180.884829 L202,180 L202.006863,60.1655455 L201.932,59.26 L201.835871,58.8407463 Z" id="shadow-with-outline" fill="#000000" fill-rule="nonzero"></path>
        <path d="M93.1842446,187.557292 C94.2888141,187.557292 95.1842446,188.452723 95.1842446,189.557292 C95.1842446,190.661862 94.2888141,191.557292 93.1842446,191.557292 C88.2881172,191.557292 84.540586,195.545607 81.9613441,204.115848 C81.6430235,205.173556 80.5275321,205.772947 79.4698243,205.454627 C78.4121165,205.136306 77.8127248,204.020815 78.1310454,202.963107 C81.1624489,192.890434 86.1736176,187.557292 93.1842446,187.557292 Z M177.13805,166 C178.242619,166 179.13805,166.895431 179.13805,168 C179.13805,169.104569 178.242619,170 177.13805,170 C172.241922,170 168.494391,173.988315 165.915149,182.558556 C165.596829,183.616264 164.481337,184.215655 163.42363,183.897335 C162.365922,183.579014 161.76653,182.463523 162.084851,181.405815 C165.116254,171.333142 170.127423,166 177.13805,166 Z" id="highlight" fill="#FFFFFF" fill-rule="nonzero"></path>
    </g>
</svg>