<?xml version="1.0" encoding="UTF-8"?>
<svg width="288px" height="288px" viewBox="0 0 288 288" version="1.1" xmlns="http://www.w3.org/2000/svg" xmlns:xlink="http://www.w3.org/1999/xlink">
    <title>Stream Mute</title>
    <g id="Stream-Mute" stroke="none" stroke-width="1" fill="none" fill-rule="evenodd">
        <rect id="Background" fill="#1E183C" fill-rule="nonzero" x="0" y="0" width="288" height="288"></rect>
        <rect id="Black-Overlay" fill="#000000" opacity="0.5" x="0" y="0" width="288" height="288"></rect>
        <path d="M143.232929,160.087954 C144.793793,159.047378 146.860521,159.356666 148.055888,160.740373 L148.055888,160.740373 L148.335779,161.108524 L185.616775,217.030018 L185.835789,217.404667 C186.09716,217.919211 186.234783,218.489983 186.234783,219.071158 C186.234783,220.958249 184.814264,222.51356 182.984198,222.726119 L182.984198,222.726119 L182.555065,222.750875 L107.993073,222.750875 L107.559859,222.725288 C106.98675,222.657344 106.4355,222.455245 105.951933,222.132868 C104.39107,221.092292 103.881671,219.065586 104.699182,217.429975 L104.699182,217.429975 L104.931363,217.030018 L142.212359,161.108524 L142.506894,160.724161 C142.719457,160.481655 142.963446,160.267609 143.232929,160.087954 Z M197.313134,64 L197.782962,64.0299379 C198.562563,64.1297309 199.31633,64.4790064 199.915088,65.0777643 C230.092489,95.2551655 230.092489,144.1824 199.915088,174.359801 C199.31633,174.958559 198.562563,175.307835 197.782962,175.407628 L197.782962,175.407628 L197.313134,175.437566 C196.371413,175.437566 195.429691,175.078311 194.711181,174.359801 C193.274162,172.922782 193.274162,170.592914 194.711181,169.155895 C222.014544,141.852532 222.014544,97.5850338 194.711181,70.2816708 C193.274162,68.8446517 193.274162,66.5147834 194.711181,65.0777643 C195.429691,64.3592548 196.371413,64 197.313134,64 L197.313134,64 Z M93.2350042,64 L93.7048317,64.0299379 C94.4844329,64.1297309 95.2381994,64.4790064 95.8369574,65.0777643 C97.2739765,66.5147834 97.2739765,68.8446517 95.8369574,70.2816708 C68.5335944,97.5850338 68.5335944,141.852532 95.8369574,169.155895 C97.2739765,170.592914 97.2739765,172.922782 95.8369574,174.359801 C95.2381994,174.958559 94.4844329,175.307835 93.7048317,175.407628 L93.7048317,175.407628 L93.2350042,175.437566 C92.2932823,175.437566 91.3515604,175.078311 90.6330509,174.359801 C60.4556497,144.1824 60.4556497,95.2551655 90.6330509,65.0777643 C91.3515604,64.3592548 92.2932823,64 93.2350042,64 L93.2350042,64 Z M176.497508,84.8156261 L176.967336,84.845564 C177.746937,84.945357 178.500704,85.2946324 179.099462,85.8933904 C197.78071,104.574639 197.78071,134.862927 179.099462,153.544175 C178.500704,154.142933 177.746937,154.492209 176.967336,154.592002 L176.967336,154.592002 L176.497508,154.621939 C175.555787,154.621939 174.614065,154.262685 173.895555,153.544175 C172.458536,152.107156 172.458536,149.777288 173.895555,148.340269 C189.702765,132.533058 189.702765,106.904507 173.895555,91.0972969 C172.458536,89.6602778 172.458536,87.3304095 173.895555,85.8933904 C174.614065,85.1748808 175.555787,84.8156261 176.497508,84.8156261 L176.497508,84.8156261 Z M114.05063,84.8156261 L114.520458,84.845564 C115.300059,84.945357 116.053826,85.2946324 116.652583,85.8933904 C118.089603,87.3304095 118.089603,89.6602778 116.652583,91.0972969 C100.845373,106.904507 100.845373,132.533058 116.652583,148.340269 C118.089603,149.777288 118.089603,152.107156 116.652583,153.544175 C116.053826,154.142933 115.300059,154.492209 114.520458,154.592002 L114.520458,154.592002 L114.05063,154.621939 C113.108908,154.621939 112.167187,154.262685 111.448677,153.544175 C92.7674286,134.862927 92.7674286,104.574639 111.448677,85.8933904 C112.167187,85.1748808 113.108908,84.8156261 114.05063,84.8156261 L114.05063,84.8156261 Z M145.274069,104.999912 C153.403077,104.999912 159.99294,111.589775 159.99294,119.718783 C159.99294,127.585564 153.821372,134.010899 146.055773,134.417251 L146.055773,134.417251 L145.274069,134.437653 L144.492366,134.417251 C136.726767,134.010899 130.555199,127.585564 130.555199,119.718783 C130.555199,111.589775 137.145062,104.999912 145.274069,104.999912 Z" id="Icon-Fill" fill="#FFFFFF" fill-rule="nonzero" opacity="0.9"></path>
        <path d="M98.5274125,62.3873093 C101.450329,65.3102257 101.450329,70.0492095 98.5274125,72.9721259 C82.5118058,88.9877326 76.4313206,111.176232 80.2859568,131.87904 C81.2021627,112.426828 89.0878472,93.2420579 103.942596,78.3873093 C106.865512,75.4643928 111.604496,75.4643928 114.527412,78.3873093 C115.394782,79.2546788 116.004761,80.28197 116.357351,81.3742701 C117.448378,81.7255865 118.475669,82.3355658 119.343039,83.2029353 C122.265955,86.1258517 122.265955,90.8648356 119.343039,93.787752 C109.615038,103.515753 106.494951,117.349385 109.982777,129.711006 C111.279872,118.562094 116.205461,107.755697 124.758222,99.2029353 C127.681138,96.2800189 132.420122,96.2800189 135.343039,99.2029353 C136.411281,100.271178 137.089111,101.581991 137.37653,102.95807 C139.771506,101.827485 142.448929,101.195034 145.274069,101.195034 C154.700603,101.195034 162.48256,108.236303 163.647292,117.346193 C171.780165,118.385526 178.264591,124.700072 179.561248,132.750379 C184.524958,119.670513 181.739311,104.321963 171.2051,93.787752 C168.282184,90.8648356 168.282184,86.1258517 171.2051,83.2029353 C174.128017,80.2800189 178.867,80.2800189 181.789917,83.2029353 C185.947622,87.3606407 189.248165,92.0509183 191.691546,97.0541756 C193.86505,96.8196088 196.122857,97.5358757 197.789917,99.2029353 C204.585879,105.998898 209.091725,114.217756 211.307456,122.900529 C212.167855,104.937298 205.738865,86.6902643 192.020726,72.9721259 C189.09781,70.0492095 189.09781,65.3102257 192.020726,62.3873093 C194.943643,59.4643928 199.682626,59.4643928 202.605543,62.3873093 C206.884453,66.6662199 210.585121,71.3044046 213.707546,76.2047603 C215.487902,76.2982473 217.243808,77.0255741 218.605543,78.3873093 C250.268841,110.050608 250.268841,161.386958 218.605543,193.050256 C215.682626,195.973173 210.943643,195.973173 208.020726,193.050256 C205.09781,190.12734 205.09781,185.388356 208.020726,182.46544 C224.036333,166.449833 230.116818,144.261333 226.262182,123.558525 C225.345999,143.010682 217.460313,162.195486 202.605543,177.050256 C199.682626,179.973173 194.943643,179.973173 192.020726,177.050256 C191.153528,176.183058 190.543618,175.156001 190.190997,174.063943 C189.099355,173.711738 188.072298,173.101828 187.2051,172.23463 C184.282184,169.311714 184.282184,164.57273 187.2051,161.649814 C196.932858,151.922055 200.053032,138.08887 196.565622,125.727485 C195.267972,136.876117 190.342422,147.682125 181.789917,156.23463 C178.867,159.157547 174.128017,159.157547 171.2051,156.23463 C170.136599,155.166129 169.458699,153.854939 169.1714,152.478495 C166.776633,153.61008 164.099209,154.242531 161.274069,154.242531 C151.847588,154.242531 144.065665,147.20134 142.900866,138.091523 C134.767978,137.05204 128.283554,130.7375 126.986893,122.687199 C122.023243,135.7674 124.808947,151.115722 135.343039,161.649814 C135.751609,162.058384 136.103069,162.502438 136.397418,162.972057 L139.046509,158.997957 C139.594643,158.175757 140.300163,157.470237 141.122363,156.922104 C144.086347,154.946114 147.987702,155.350119 150.484109,157.774796 L150.93515,158.253015 L151.084805,158.437601 L151.501629,158.997957 L160.017515,171.770108 C162.327079,171.378066 164.746088,172.086714 166.484109,173.774796 L166.93515,174.253015 L167.084805,174.437601 L167.501629,174.997957 L204.782625,230.919451 C205.602276,232.148927 206.039661,233.593511 206.039661,235.071158 C206.039661,238.669 203.489931,241.712917 199.855638,242.42381 L199.203332,242.524682 L198.555065,242.555753 L123.993073,242.555753 C122.515427,242.555753 121.070843,242.118368 119.841367,241.298718 C116.867091,239.315867 115.74198,235.539982 117.136243,232.119265 L117.408579,231.519733 L117.765513,230.919451 L120.674122,226.555122 L107.993073,226.555753 C106.515427,226.555753 105.070843,226.118368 103.841367,225.298718 C100.867091,223.315867 99.7419803,219.539982 101.136243,216.119265 L101.408579,215.519733 L101.765513,214.919451 L128.827731,174.326818 C127.337651,174.081346 125.907541,173.38395 124.758222,172.23463 C120.60041,168.076819 117.299805,163.386407 114.856405,158.383006 C112.683088,158.617957 110.425282,157.90169 108.758222,156.23463 C101.961476,149.437884 97.4553741,141.217914 95.2399166,132.534032 C94.3793289,150.497558 100.808256,168.746283 114.527412,182.46544 C117.450329,185.388356 117.450329,190.12734 114.527412,193.050256 C111.604496,195.973173 106.865512,195.973173 103.942596,193.050256 C99.6636852,188.771346 95.9630174,184.133161 92.8405925,179.232805 C91.0608732,179.139582 89.3045777,178.412238 87.9425958,177.050256 C56.2792973,145.386958 56.2792973,94.0506078 87.9425958,62.3873093 C90.8655122,59.4643928 95.6044961,59.4643928 98.5274125,62.3873093 Z M105.34817,221.630547 C105.420118,221.704754 105.495653,221.776365 105.574721,221.845123 L105.622066,221.885596 L105.622066,221.885596 L105.633657,221.895295 C105.734317,221.979183 105.840443,222.058541 105.951933,222.132868 L105.951933,222.132868 C106.366419,222.409191 106.830631,222.597147 107.315713,222.687996 L107.559859,222.725288 L107.993073,222.750875 L182.555065,222.750875 L182.984198,222.726119 L183.172013,222.699382 C184.910542,222.405902 186.234783,220.893177 186.234783,219.071158 C186.234783,218.489983 186.09716,217.919211 185.835789,217.404667 L185.835789,217.404667 L185.616775,217.030018 L148.335779,161.108524 L148.055888,160.740373 L147.919554,160.591063 C146.708124,159.335607 144.735983,159.085918 143.232929,160.087954 C142.963446,160.267609 142.719457,160.481655 142.506894,160.724161 L142.506894,160.724161 L142.212359,161.108524 L106.338122,214.919122 L104.931363,217.030018 L104.699182,217.429975 L104.616657,217.606653 C104.580474,217.689808 104.547589,217.773819 104.517968,217.858513 L104.481769,217.967482 L104.481769,217.967482 L104.477378,217.981528 C104.441293,218.097784 104.411236,218.215154 104.387121,218.333202 L104.387007,218.333761 C104.382556,218.355546 104.378205,218.377914 104.374065,218.400303 C104.365144,218.448584 104.357261,218.496607 104.350345,218.544698 C104.348827,218.555252 104.347339,218.565927 104.345899,218.576605 C104.338944,218.628188 104.333099,218.679823 104.328356,218.731494 C104.325894,218.758323 104.323739,218.785028 104.321876,218.811737 C104.319657,218.843543 104.317843,218.875569 104.316449,218.907593 C104.315061,218.939526 104.314096,218.971148 104.313538,219.002761 C104.312862,219.040999 104.312784,219.079332 104.313302,219.117636 C104.313665,219.144672 104.314338,219.172059 104.315316,219.199425 C104.31651,219.232841 104.318152,219.266129 104.320242,219.299378 C104.322347,219.332801 104.324874,219.365828 104.327842,219.398805 C104.330477,219.428109 104.33351,219.457808 104.336901,219.487461 C104.340667,219.520375 104.344852,219.553073 104.349472,219.585705 C104.353098,219.611313 104.35696,219.636673 104.361084,219.661989 C104.366167,219.693204 104.371684,219.724527 104.377602,219.755773 C104.385308,219.796459 104.39371,219.837075 104.402793,219.877542 C104.407936,219.900458 104.413331,219.923466 104.418946,219.946422 C104.427862,219.982862 104.437262,220.018913 104.447206,220.05482 C104.455119,220.0834 104.463455,220.11215 104.472141,220.140801 C104.479965,220.166606 104.488063,220.192301 104.496443,220.217912 C104.509669,220.258325 104.523533,220.29835 104.53809,220.338144 C104.545792,220.359202 104.553696,220.380213 104.561793,220.401157 C104.572682,220.429325 104.583997,220.457555 104.595665,220.485653 C104.612903,220.527155 104.630806,220.56814 104.649466,220.608818 C104.65551,220.621995 104.661699,220.635277 104.667968,220.648526 C104.686703,220.688109 104.70604,220.727158 104.726087,220.765889 C104.738358,220.789596 104.750909,220.81321 104.763725,220.8367 C104.78254,220.871181 104.801856,220.905272 104.821738,220.939082 C104.833865,220.959713 104.84644,220.980624 104.859233,221.001422 C104.877377,221.03091 104.895655,221.05971 104.914355,221.088281 C104.932425,221.115899 104.951271,221.143855 104.970526,221.171579 C105.032505,221.26078 105.098198,221.346961 105.167995,221.430466 C105.17968,221.444444 105.191477,221.458346 105.20339,221.472172 C105.223186,221.495147 105.2433,221.517912 105.263729,221.540459 L105.327585,221.609142 L105.327585,221.609142 Z M197.313134,64 C196.371413,64 195.429691,64.3592548 194.711181,65.0777643 C193.274162,66.5147834 193.274162,68.8446517 194.711181,70.2816708 C195.047726,70.6182159 195.380123,70.9573384 195.708371,71.2989747 L195.443774,71.0250566 C195.694556,71.2832867 195.942949,71.5429744 196.188953,71.8040918 L195.708371,71.2989747 C195.963843,71.5648664 196.216803,71.8322808 196.467249,72.1011879 L196.188953,71.8040918 C196.428451,72.0583034 196.665685,72.3138701 196.900654,72.5707664 L196.467249,72.1011879 C196.708773,72.3605152 196.947961,72.6212308 197.184811,72.8833079 L196.900654,72.5707664 C197.167756,72.8627935 197.431932,73.1565386 197.693183,73.4519641 L197.184811,72.8833079 C197.415592,73.1386687 197.644154,73.3953221 197.870497,73.6532432 L197.870888,73.6536892 C198.378578,74.2322085 198.87548,74.8175616 199.361202,75.4090214 L199.292941,75.3260291 C199.502622,75.5805607 199.710228,75.8362279 199.915761,76.0930082 L199.361202,75.4090214 C199.641316,75.7501127 199.917711,76.0932349 200.190388,76.4383342 L199.915761,76.0930082 C200.094826,76.3167227 200.272317,76.541282 200.448234,76.7666714 L200.190388,76.4383342 C200.399421,76.7028861 200.606269,76.9685998 200.810932,77.2354511 L200.448234,76.7666714 C200.723206,77.1189731 200.99433,77.4733029 201.261608,77.8296038 L201.262099,77.8302587 C201.509618,78.1602196 201.754316,78.4925326 201.995701,78.8264975 C202.050629,78.9024916 202.105561,78.9788158 202.16032,79.0552255 L201.995701,78.8264975 C202.206733,79.1184672 202.415233,79.4116996 202.621201,79.7061643 L202.16032,79.0552255 C202.396095,79.3842212 202.62867,79.7148028 202.858045,80.0469273 L202.621201,79.7061643 C202.821594,79.9926584 203.019591,80.2803191 203.215191,80.5691183 L202.858045,80.0469273 C203.051526,80.3270795 203.24273,80.6083296 203.431658,80.8906516 L203.215191,80.5691183 C203.384989,80.8198208 203.552981,81.0713813 203.719167,81.3237816 L203.431658,80.8906516 C203.637263,81.197896 203.840172,81.50641 204.040383,81.8161602 L203.719167,81.3237816 C203.974405,81.7114325 204.225383,82.1010644 204.472101,82.492611 L204.471688,82.4919569 C204.68516,82.8307401 204.895042,83.1702971 205.101747,83.5112395 L204.68333,82.8299761 C204.866887,83.1250205 205.048039,83.4211353 205.226785,83.7182926 L205.101747,83.5112395 C205.274276,83.7958108 205.444591,84.0813472 205.612694,84.3678239 L205.226785,83.7182926 C205.412306,84.0267108 205.595234,84.336252 205.775572,84.6468847 L205.775557,84.6468589 C206.884263,86.5566124 207.895017,88.5075966 208.807834,90.4925484 L208.707876,90.276165 C208.853334,90.5896295 208.996345,90.9039499 209.136907,91.2190973 L208.807834,90.4925484 C208.937009,90.7734442 209.064223,91.0550203 209.189476,91.337256 L209.189437,91.3371695 C209.353348,91.7065148 209.513863,92.0769027 209.671021,92.4483733 L209.610333,92.3053731 C209.72898,92.5840755 209.845733,92.8633917 209.960594,93.143302 L209.671021,92.4483733 C209.803179,92.760751 209.932962,93.0738944 210.060372,93.387776 L210.060267,93.3875186 C210.206845,93.7486223 210.35018,94.1104442 210.490378,94.4731998 L210.428706,94.3142063 C210.550278,94.6264871 210.669521,94.9394655 210.786435,95.2531147 L210.490378,94.4731998 C210.625351,94.8224366 210.757416,95.1725389 210.886573,95.5234693 L210.786435,95.2531147 C210.920378,95.6124491 211.051265,95.972664 211.179096,96.3337193 L210.886573,95.5234693 C211.023612,95.8958148 211.157376,96.2690927 211.287867,96.6432584 L211.179096,96.3337193 C211.298572,96.671176 211.415377,97.0093668 211.529512,97.3482589 L211.287867,96.6432584 C211.395056,96.9506089 211.500036,97.2585584 211.602807,97.5670823 L211.529512,97.3482589 C211.637181,97.6679505 211.742474,97.9882661 211.845391,98.3091782 L211.84548,98.3094567 C211.957338,98.6582477 212.066473,99.008023 212.172798,99.3584687 L211.971229,98.7056283 C212.065006,99.0041556 212.156733,99.3031878 212.24641,99.6027028 L212.24637,99.6025669 C212.456732,100.305163 212.655778,101.01028 212.843549,101.717767 L212.843514,101.717636 C213.027688,102.411573 213.200984,103.10766 213.363436,103.805758 L213.312684,103.589224 C213.384917,103.895218 213.455065,104.201604 213.523126,104.50836 L213.523197,104.508679 C213.607676,104.889431 213.689007,105.271073 213.767119,105.653241 L213.604283,104.878886 C213.678416,105.221785 213.749948,105.565133 213.818878,105.9089 L213.767119,105.653241 C213.83945,106.007124 213.90902,106.361457 213.975831,106.716209 L213.818878,105.9089 C213.88842,106.255719 213.955314,106.602964 214.019561,106.950601 L213.975831,106.716209 C214.043452,107.075268 214.108246,107.434754 214.170212,107.794632 L214.019561,106.950601 C214.090138,107.332497 214.157521,107.714867 214.221707,108.097668 L214.170212,107.794632 C214.230464,108.144553 214.288043,108.494845 214.342948,108.845474 L214.221707,108.097668 C214.275223,108.416828 214.326517,108.736289 214.375591,109.056024 L214.342948,108.845474 C214.399115,109.20416 214.452484,109.5632 214.503056,109.922557 L214.375591,109.056024 C214.440305,109.477671 214.501157,109.899796 214.558146,110.322343 L214.503056,109.922557 C214.552412,110.273275 214.599104,110.624296 214.64313,110.975588 L214.558146,110.322343 C214.596347,110.605588 214.632812,110.889022 214.667542,111.172629 L214.64313,110.975588 C214.683115,111.294628 214.720902,111.613892 214.756491,111.933354 L214.756494,111.933378 C214.802699,112.348131 214.845201,112.763243 214.883999,113.178636 L214.803589,112.368433 C214.836512,112.681687 214.867324,112.99512 214.896026,113.308709 L214.883999,113.178636 C214.919115,113.554614 214.951196,113.930821 214.980241,114.307219 L214.896026,113.308709 C214.93077,113.688328 214.962421,114.068177 214.990979,114.448215 L214.980241,114.307219 C215.002691,114.598143 215.023328,114.889181 215.042151,115.180315 L214.990979,114.448215 C215.016505,114.787902 215.039559,115.127741 215.060142,115.467701 L215.060128,115.467477 C215.104173,116.194961 215.136894,116.922779 215.158305,117.650867 L215.15226,117.454617 C215.162561,117.774514 215.170678,118.094469 215.176612,118.414457 L215.158305,117.650867 C215.167454,117.961964 215.174537,118.273111 215.179556,118.584285 L215.179556,118.584339 C215.186052,118.987078 215.189088,119.389917 215.188665,119.792753 L215.188665,119.792608 C215.187178,121.206857 215.143056,122.620924 215.056299,124.032861 L215.056314,124.032624 C214.98959,125.118523 214.897674,126.202926 214.780551,127.285117 L214.806604,127.040388 C214.766596,127.422566 214.723446,127.804477 214.677154,128.186079 L214.780551,127.285117 C214.739939,127.660365 214.696296,128.035346 214.649622,128.410022 L214.677154,128.186079 C214.638147,128.507626 214.596909,128.828955 214.553441,129.150039 L214.649622,128.410022 C214.607272,128.749987 214.562427,129.089701 214.515087,129.429133 L214.553441,129.150039 C214.506543,129.49646 214.457048,129.842598 214.404956,130.18842 L214.404901,130.188788 C214.348759,130.561497 214.289539,130.934207 214.227297,131.30651 L214.350675,130.542629 C214.298035,130.880373 214.242914,131.217805 214.185313,131.554896 L214.227297,131.30651 C214.167648,131.663305 214.105224,132.019727 214.040023,132.37574 L214.185313,131.554896 C214.129494,131.881566 214.071345,132.207916 214.010867,132.533919 L214.010912,132.533675 C213.938436,132.924352 213.862665,133.314288 213.783553,133.70368 L213.826875,133.488721 C213.770302,133.771718 213.711965,134.054433 213.651866,134.336848 L213.651865,134.336854 C213.564809,134.745942 213.474054,135.154407 213.379599,135.562189 L213.528079,134.906868 C213.461984,135.205219 213.393917,135.503221 213.323877,135.800854 L213.323799,135.801183 C210.447384,148.024361 204.243152,159.623924 194.711181,169.155895 C193.341705,170.525371 193.277337,172.705738 194.518077,174.151441 L194.517766,174.150383 L194.555349,174.194204 C194.605266,174.2506 194.65721,174.30583 194.711181,174.359801 L194.576122,174.216122 L194.611865,174.256537 C194.644124,174.291445 194.677252,174.325872 194.711181,174.359801 C195.374421,175.023041 196.227853,175.38017 197.095916,175.431188 L197.313134,175.437566 L197.782962,175.407628 L198.015938,175.370205 C198.711766,175.235485 199.376206,174.898683 199.915088,174.359801 C199.923038,174.351851 199.930986,174.3439 199.938932,174.335947 L199.915088,174.359801 C200.194056,174.080833 200.470446,173.800262 200.744256,173.518119 C200.786779,173.474302 200.82939,173.430292 200.871937,173.386245 C201.127058,173.122128 201.379783,172.856796 201.630259,172.59012 C201.681354,172.535721 201.732523,172.481086 201.783597,172.426395 C202.03129,172.161164 202.2766,171.894798 202.519697,171.627138 C202.584221,171.556094 202.647943,171.485673 202.711513,171.415164 C202.925662,171.177639 203.138278,170.938878 203.349157,170.699123 C203.383698,170.659852 203.418199,170.620547 203.452654,170.581215 C203.683754,170.317397 203.912479,170.052709 204.139111,169.786848 C204.198492,169.717189 204.257644,169.647549 204.316653,169.577829 C204.812174,168.992373 205.297866,168.400945 205.773445,167.804107 L205.808734,167.759787 L205.808734,167.759787 L205.86503,167.688947 C206.070111,167.43057 206.273301,167.171185 206.4746,166.91081 C206.541873,166.823796 206.60911,166.736442 206.676134,166.648978 C206.875612,166.388669 207.073305,166.127252 207.269117,165.864875 C207.326403,165.788116 207.383584,165.711197 207.440605,165.634196 C207.871457,165.052369 208.29313,164.465811 208.705586,163.874775 C208.748936,163.812657 208.792315,163.750299 208.835592,163.687892 C209.036814,163.397719 209.235653,163.106726 209.432282,162.814688 C209.474206,162.752421 209.516229,162.689809 209.55815,162.627149 C209.753134,162.335705 209.945677,162.043606 210.13603,161.7505 C210.167111,161.702641 210.198138,161.654749 210.229107,161.60683 C210.40792,161.330145 210.584763,161.052605 210.75966,160.774192 C210.793064,160.721017 210.826272,160.668009 210.85941,160.61497 C211.060285,160.293461 211.25865,159.970665 211.454424,159.646742 C211.472388,159.61702 211.490449,159.587091 211.508488,159.557152 C211.699552,159.240041 211.887872,158.922306 212.073719,158.603526 C212.100176,158.558144 212.126465,158.512943 212.152705,158.467721 C212.314482,158.188918 212.474395,157.909275 212.63242,157.628855 C212.663403,157.573876 212.694512,157.518511 212.725548,157.463117 C212.888741,157.171834 213.049606,156.880262 213.208444,156.58788 C213.249655,156.512021 213.290626,156.4363 213.331461,156.360525 C213.495788,156.055597 213.658034,155.749574 213.81808,155.442703 C213.844253,155.392517 213.870242,155.342552 213.896172,155.292564 C214.04403,155.007529 214.190103,154.721549 214.334278,154.434858 C214.393413,154.317268 214.452164,154.199687 214.510598,154.081988 C214.635951,153.829495 214.75983,153.576475 214.882243,153.322925 C214.918239,153.248368 214.954135,153.17371 214.989904,153.099006 C215.137892,152.789928 215.283575,152.480352 215.42709,152.17002 C215.46508,152.08787 215.502765,152.006003 215.540298,151.924083 C215.677924,151.623702 215.813397,151.322907 215.946846,151.021432 C215.972628,150.963189 215.998613,150.904288 216.02452,150.845362 C216.138197,150.586798 216.250076,150.32847 216.360477,150.069662 C216.405118,149.965015 216.449634,149.86001 216.493908,149.754927 C216.622194,149.450438 216.748236,149.145798 216.872246,148.840527 C216.88565,148.80753 216.899292,148.77388 216.91291,148.740221 C217.195718,148.041198 217.467626,147.339562 217.728909,146.634879 C217.744631,146.592478 217.760296,146.550114 217.775923,146.507739 C217.897713,146.177487 218.017208,145.846467 218.134371,145.514808 C218.166833,145.422916 218.199243,145.330611 218.231473,145.238258 C218.59878,144.18574 218.942591,143.127045 219.262968,142.062803 C219.278006,142.01285 219.292896,141.963204 219.307736,141.913545 C219.406627,141.582627 219.503301,141.251012 219.597709,140.918889 C219.61611,140.854156 219.634298,140.78985 219.652402,140.725526 C219.952066,139.660809 220.228566,138.590532 220.481791,137.515886 C220.502908,137.426269 220.523862,137.336626 220.544654,137.246954 C220.699963,136.577127 220.846194,135.905865 220.983402,135.233129 C221.001786,135.142995 221.01998,135.052966 221.038014,134.962912 C221.103102,134.637875 221.166123,134.312308 221.227038,133.986424 C221.241587,133.908589 221.256107,133.830241 221.270506,133.751874 C221.473104,132.649178 221.651552,131.543312 221.80592,130.434737 C221.816607,130.357987 221.827167,130.281314 221.837612,130.204628 C221.878867,129.901723 221.91834,129.598512 221.956014,129.295121 C221.969316,129.187992 221.982289,129.081711 221.995042,128.975409 C222.031695,128.669908 222.066597,128.363577 222.099669,128.057085 C222.105476,128.003274 222.111207,127.949636 222.116882,127.895992 C222.147832,127.603456 222.177122,127.310707 222.204746,127.017831 C222.214869,126.910509 222.224798,126.802836 222.234502,126.695146 C222.265276,126.353631 222.293763,126.012227 222.319989,125.670681 C222.324984,125.605633 222.329918,125.540302 222.334769,125.474967 C222.388352,124.753248 222.431833,124.031123 222.465227,123.308619 C222.467327,123.263169 222.469382,123.217843 222.471398,123.172515 C222.486341,122.836453 222.499107,122.500156 222.509688,122.163804 C222.51176,122.097956 222.513743,122.032283 222.515642,121.966607 C222.535369,121.284555 222.546116,120.602113 222.547879,119.919651 C222.548162,119.810047 222.548214,119.700384 222.548033,119.590721 C222.545576,118.095787 222.499994,116.600682 222.411289,115.10766 C222.404566,114.994505 222.397581,114.881138 222.390348,114.767784 C222.368439,114.42446 222.344268,114.081497 222.317818,113.738676 L222.317811,113.73859 C222.260905,113.001018 222.193445,112.264021 222.115438,111.527929 C222.105258,111.431877 222.094937,111.336187 222.084437,111.240512 C222.007601,110.540321 221.92116,109.84058 221.825157,109.1419 C220.07481,96.408209 215.151204,84.0310891 207.053791,73.28556 C206.934491,73.1285317 206.815097,72.9712769 206.695019,72.814378 C206.57014,72.6501416 206.444205,72.4870171 206.317529,72.3242827 C206.215785,72.1944575 206.113973,72.0644777 206.011685,71.9347506 C205.893508,71.784137 205.774125,71.6339297 205.654102,71.4840656 C205.505875,71.2995684 205.357088,71.1154715 205.207327,70.9319034 C205.120028,70.8244365 205.031807,70.716916 204.943252,70.6095786 C204.445974,70.0071153 203.938859,69.4108595 203.421219,68.8206125 C203.34806,68.7370761 203.274713,68.6538089 203.201157,68.5706622 C203.020754,68.3668201 202.838974,68.1634778 202.655929,67.960872 C202.57079,67.8665841 202.485386,67.7725203 202.399708,67.6786168 C202.206925,67.467354 202.012631,67.256727 201.81695,67.0469242 C201.725979,66.949373 201.634717,66.8520259 201.543155,66.7548579 C201.369007,66.5700534 201.193542,66.3856431 201.016991,66.201891 L200.811357,65.9886738 L200.811357,65.9886738 L200.754965,65.930485 C200.477653,65.6446207 200.197694,65.3603703 199.915088,65.0777643 C199.376206,64.5388822 198.711766,64.2020808 198.015938,64.0673603 L197.782962,64.0299379 Z M93.2350042,64 C92.2932823,64 91.3515604,64.3592548 90.6330509,65.0777643 C90.2445414,65.4662738 89.8610337,65.857891 89.4825276,66.2525358 C88.999715,66.7559343 88.5250164,67.2642857 88.058457,67.7773978 C87.9392939,67.9084491 87.8203132,68.0401994 87.7018666,68.1722594 C87.522912,68.3717829 87.3453289,68.5718397 87.1689628,68.7725923 C86.7311166,69.2709801 86.3007531,69.7736786 85.8778909,70.2805194 C85.7795375,70.3984043 85.6813948,70.5167502 85.5836594,70.6353192 C85.3946931,70.8645694 85.2075685,71.0942582 85.0219617,71.3247648 C84.949154,71.4151841 84.8762955,71.5060858 84.8036724,71.5971134 C84.6486114,71.7914731 84.4948781,71.9860819 84.3422144,72.1812553 C84.2406932,72.3110456 84.1396808,72.4410394 84.039141,72.5712804 C83.8984743,72.7534995 83.758367,72.9366853 83.6191899,73.1203512 C83.504114,73.2722129 83.3898423,73.4241773 83.2762046,73.5764652 C83.1376365,73.7621634 83.0000739,73.948257 82.863453,74.1348249 C82.7613486,74.2742554 82.6594241,74.4144302 82.5580291,74.554869 C82.4170274,74.7501704 82.2775478,74.9452788 82.1390852,75.1408867 C82.0442316,75.2748843 81.9493658,75.4098173 81.8549823,75.5449847 C81.717772,75.7414882 81.5819649,75.9379261 81.4471711,76.1348494 C81.3471583,76.2809592 81.2475453,76.4275706 81.148492,76.574447 C81.031383,76.7480962 80.9150391,76.9221418 80.7994778,77.096553 C80.6909826,77.2603007 80.5833052,77.4241742 80.4763158,77.5883651 C80.3787392,77.7381081 80.281374,77.8886773 80.1845856,78.0395094 C80.0641481,78.2271965 79.9447282,78.4150927 79.8261991,78.6033891 C79.7162084,78.7781207 79.606908,78.9533214 79.4983759,79.1288623 C79.3840353,79.313797 79.2704575,79.4992576 79.1577337,79.6850909 C79.0845994,79.805659 79.0119457,79.9261818 78.9396504,80.0468594 C78.8075418,80.2673758 78.6763914,80.4888162 78.5464419,80.7107659 C78.4406543,80.8914487 78.3357456,81.0723246 78.2316314,81.2535324 C78.1487935,81.3977086 78.0663687,81.5422539 77.984448,81.6870072 C77.8623792,81.9027014 77.741385,82.1189381 77.621511,82.3356286 C77.5348741,82.4922381 77.4488313,82.6490681 77.3633734,82.8061319 C77.2813233,82.9569311 77.1996877,83.1081789 77.118593,83.25964 C76.9953555,83.4898132 76.873463,83.7202953 76.7528178,83.9512594 C76.69561,84.0607772 76.6385411,84.1706777 76.581754,84.280686 C76.4625095,84.51169 76.3446866,84.742814 76.2281027,84.9744022 C76.1463247,85.1368462 76.0648432,85.300152 75.9839759,85.4636844 C75.9012881,85.6309004 75.8194038,85.7980214 75.7381592,85.9653748 C75.6387637,86.1701148 75.5401916,86.3754851 75.4425797,86.5811976 C75.3662798,86.7419952 75.2905049,86.9031341 75.2153177,87.0644791 C75.1252634,87.2577269 75.0360244,87.4513314 74.9476288,87.6452262 C74.8657587,87.8248081 74.7846486,88.0045574 74.7042614,88.1845512 C74.6123137,88.3904264 74.5211163,88.5970698 74.4308688,88.8040277 C74.365702,88.9534695 74.3010016,89.1031426 74.2367969,89.2529775 C74.1497793,89.4560539 74.063841,89.6590244 73.9788096,89.8622845 C73.8962872,90.059543 73.8143978,90.2576157 73.7333673,90.455957 C73.6746635,90.59965 73.6165004,90.7432598 73.5587867,90.887008 C73.4795931,91.0842567 73.4012604,91.2817285 73.3237735,91.4794552 C73.2530878,91.6598237 73.1829256,91.8408748 73.113471,92.0221349 C73.0283757,92.2442137 72.9443615,92.4665555 72.8614088,92.689203 C72.8106758,92.8253734 72.7604458,92.9613693 72.7106111,93.0974772 C72.635274,93.3032337 72.5607081,93.5096182 72.487049,93.7162536 C72.4108862,93.9299116 72.3356619,94.1439277 72.261408,94.3582055 C72.2069496,94.5153578 72.1529854,94.6727327 72.0995438,94.8302457 C72.0306703,95.033244 71.9627375,95.2362514 71.8956705,95.439482 C71.8332456,95.628646 71.7715611,95.8180337 71.7106271,96.0076103 C71.6579085,96.1716234 71.6056038,96.3362488 71.5538641,96.5010133 C71.4867949,96.7145993 71.4208363,96.9278897 71.3558224,97.1414061 C71.305491,97.3066975 71.2555495,97.4727179 71.2061782,97.6388717 C71.1447943,97.8454536 71.0843362,98.0520882 71.0247581,98.2589226 C70.9739324,98.435371 70.9237117,98.6120912 70.8741325,98.7889535 C70.8138005,99.0041745 70.754434,99.2195476 70.6960169,99.4351244 C70.6529086,99.5942056 70.6102671,99.7535875 70.5681437,99.9130779 C70.5125355,100.123627 70.4578495,100.334289 70.404066,100.545134 C70.3578854,100.726172 70.312313,100.907575 70.2674076,101.089109 C70.2226972,101.269854 70.1786187,101.45085 70.1352023,101.631974 C70.077968,101.870746 70.0219392,102.109498 69.9670587,102.348462 C69.9366889,102.480696 69.9065857,102.613375 69.8768361,102.746116 C69.8223628,102.989179 69.7691264,103.232214 69.7170735,103.475452 C69.6887228,103.607931 69.6606902,103.740628 69.6330096,103.873383 C69.5809865,104.122884 69.5302036,104.372606 69.4806638,104.622526 C69.4469206,104.792754 69.4137538,104.963076 69.3811638,105.133487 C69.3420517,105.337999 69.3037609,105.542691 69.2663011,105.747506 C69.2308499,105.941338 69.1961457,106.135265 69.1621857,106.329297 C69.1288376,106.519833 69.0961993,106.710516 69.0642789,106.901296 C69.0321948,107.093053 69.0008073,107.285088 68.9701465,107.477216 C68.9394469,107.669588 68.9094831,107.862006 68.8802476,108.054514 C68.8487471,108.261939 68.8181163,108.469299 68.7883296,108.676757 C68.7629353,108.85362 68.7381363,109.030688 68.7139517,109.207824 C68.6845314,109.423308 68.6560152,109.638931 68.6284087,109.854648 C68.6065218,110.025668 68.585177,110.196991 68.5644055,110.36837 C68.5381766,110.584784 68.5128909,110.80103 68.4885172,111.017359 C68.4681957,111.197723 68.4485114,111.378116 68.4294609,111.558562 C68.4156403,111.689465 68.4021157,111.820771 68.3889265,111.952104 C68.3612925,112.227282 68.3351571,112.502293 68.3104912,112.77741 C68.2959987,112.939049 68.2819863,113.101051 68.2684833,113.263087 C68.2512623,113.469748 68.2348934,113.676152 68.2193506,113.882607 C68.2069567,114.047223 68.1950618,114.212251 68.1836945,114.377309 C68.1669134,114.620991 68.1513017,114.86441 68.1368368,115.107884 C68.1254543,115.299459 68.1147612,115.491463 68.1047811,115.683498 C68.0959409,115.853615 68.0876794,116.023335 68.0799746,116.193075 C68.0686984,116.441455 68.0585955,116.690406 68.0496897,116.939392 C68.0435328,117.11156 68.0379639,117.283205 68.0329639,117.454865 C68.0277568,117.633584 68.0231532,117.812907 68.0191703,117.992242 C68.0143325,118.2101 68.0104146,118.427693 68.0074103,118.645295 C68.0051412,118.809642 68.0033931,118.974002 68.0021662,119.138366 C68.0005079,119.360586 67.999802,119.582669 68.0000475,119.804752 C68.0001586,119.905519 68.0004668,120.006539 68.0009719,120.107559 C68.0024371,120.400554 68.005557,120.693461 68.0103321,120.986345 C68.0124743,121.117707 68.014942,121.248716 68.0177409,121.379718 C68.0230992,121.630551 68.0296792,121.881604 68.0374756,122.132626 C68.0435983,122.329757 68.05047,122.526836 68.0580916,122.723891 C68.066499,122.941283 68.0758321,123.15892 68.0860802,123.376523 C68.0893421,123.445772 68.0926682,123.514446 68.0960854,123.583117 C68.1119878,123.902723 68.1298967,124.222767 68.1497865,124.542711 C68.1582146,124.678278 68.1669849,124.813629 68.1761099,124.94896 C68.1923386,125.189649 68.2096936,125.430339 68.2281709,125.670958 C68.2430614,125.864873 68.2586923,126.05888 68.2750531,126.252836 C68.2918153,126.451542 68.3093122,126.649853 68.3275724,126.848108 C68.3454401,127.042114 68.3640883,127.23656 68.3834713,127.430948 C68.4038345,127.63516 68.4249832,127.839069 68.446941,128.042908 C68.6962622,130.357378 69.0498657,132.662613 69.5077653,134.951123 C69.5399038,135.111748 69.5725972,135.27249 69.6058056,135.433146 C69.6592585,135.691742 69.7140545,135.950157 69.7701854,136.20834 C69.8472957,136.563009 69.9267998,136.916701 70.0088153,137.269927 L70.008713,137.269487 C70.0970678,137.650016 70.1882282,138.029566 70.2822964,138.408543 L70.2822681,138.408429 C70.3329888,138.612769 70.3845255,138.816829 70.4369068,139.020716 C70.4891799,139.224179 70.5422037,139.427131 70.5960657,139.629906 C70.6357279,139.779228 70.6759958,139.92901 70.7167215,140.078693 C70.8869883,140.704473 71.0651039,141.328015 71.2512093,141.949676 C71.2677301,142.004862 71.2843699,142.060219 71.3010731,142.115561 C71.3997883,142.442625 71.5006258,142.768873 71.6036733,143.094574 C71.6398191,143.208821 71.6763281,143.323285 71.7131105,143.43768 C71.7947857,143.69169 71.877689,143.945003 71.9619358,144.197966 C71.9962865,144.301111 72.0309814,144.404555 72.0659011,144.50794 C72.1579955,144.780593 72.2515313,145.052484 72.3466274,145.32395 C72.3767384,145.409905 72.4069305,145.495605 72.4372782,145.581263 C72.5441191,145.882823 72.6528724,146.183807 72.7635545,146.484241 C72.7996798,146.582301 72.8361762,146.680746 72.8728801,146.779132 C72.9672971,147.032214 73.0629069,147.284436 73.1598837,147.536252 C73.2163471,147.682868 73.2732571,147.829304 73.3306302,147.975601 C73.4304741,148.230196 73.5318409,148.484667 73.6346136,148.738702 C73.6761503,148.84137 73.7177032,148.943447 73.7594833,149.045452 C73.8561732,149.28152 73.9542078,149.517509 74.0534629,149.753106 C74.1389663,149.956062 74.2254504,150.158901 74.3128419,150.361442 C74.3716711,150.497786 74.430897,150.633962 74.4905339,150.770002 C74.5767947,150.966771 74.6637153,151.162807 74.7514917,151.358553 C74.8362253,151.547512 74.9216842,151.736043 75.0079393,151.924299 C75.0821784,152.08633 75.1571077,152.248373 75.2326285,152.410208 C75.3259152,152.610112 75.4200172,152.809517 75.5150199,153.0086 C75.6016626,153.19016 75.6887743,153.370876 75.7766304,153.551321 C75.8627169,153.728133 75.9496793,153.90501 76.037359,154.081622 C76.1270546,154.262291 76.2173159,154.442317 76.3083249,154.622061 C76.4051198,154.813231 76.5026375,155.003845 76.6009989,155.194136 C76.6821193,155.351074 76.7639872,155.508123 76.8464314,155.664948 C76.9466494,155.855579 77.047475,156.045424 77.149148,156.234935 C77.230423,156.386427 77.3123005,156.537816 77.3947204,156.688988 C77.517966,156.915039 77.6422373,157.14027 77.7677175,157.365007 C77.8383478,157.491506 77.9091873,157.617541 77.9804081,157.743419 C78.1011917,157.956897 78.2231959,158.170139 78.3462987,158.382918 C78.4416156,158.547671 78.5375517,158.71208 78.6341458,158.876208 C78.7433382,159.061741 78.8532575,159.246727 78.9640161,159.43135 C79.0538153,159.581035 79.1441302,159.730423 79.2349963,159.87957 C79.3513668,160.070579 79.4686261,160.261168 79.5867892,160.451355 C79.6932875,160.622767 79.800461,160.793759 79.908368,160.964421 C80.0189245,161.139271 80.1300869,161.313521 80.242017,161.487419 C80.3601629,161.670977 80.4793199,161.854381 80.5993343,162.037388 C80.6938917,162.181577 80.7891702,162.325804 80.8849831,162.46978 C81.0068496,162.652902 81.1291049,162.834917 81.252218,163.016525 C81.3692245,163.189127 81.4873324,163.361834 81.6062194,163.534166 C81.721363,163.70107 81.8370944,163.867419 81.9535548,164.033412 C82.0751273,164.20669 82.1973853,164.379429 82.3204364,164.551775 C82.4137969,164.682539 82.5079111,164.813487 82.6024848,164.944207 C82.7417393,165.136679 82.8814379,165.327906 83.0221247,165.518633 C83.1437425,165.683509 83.2661978,165.848144 83.3893929,166.012399 C83.5153508,166.180339 83.6421452,166.347966 83.7697135,166.515191 C83.9009016,166.68716 84.0327567,166.858509 84.1654284,167.02943 C84.2869446,167.18598 84.4093091,167.342377 84.5323606,167.498409 C84.6571487,167.656643 84.7824693,167.814284 84.9084943,167.971547 C85.0320685,168.125753 85.1564893,168.279802 85.2815892,168.433483 C85.4406003,168.628822 85.6006002,168.823435 85.761696,169.017444 C85.8349419,169.105655 85.9083498,169.193663 85.9819839,169.281547 C86.1669525,169.50231 86.3533222,169.722253 86.5411184,169.941393 C86.6463559,170.064195 86.7518973,170.186578 86.8578856,170.308709 C87.0193102,170.494717 87.1816409,170.679991 87.3450062,170.86467 C87.4510026,170.984496 87.5575324,171.104181 87.6644986,171.223613 C87.8367318,171.415918 88.0099766,171.607436 88.1843512,171.798292 L88.3294494,171.956667 L88.3294494,171.956667 L88.5955511,172.244866 C88.7238637,172.383137 88.8527759,172.521054 88.9822876,172.658611 L89.181122,172.869122 C89.3614358,173.059165 89.5484974,173.254401 89.7367821,173.448892 L90.6330509,174.359801 C91.3515604,175.078311 92.2932823,175.437566 93.2350042,175.437566 L93.2350042,175.437566 L93.7048317,175.407628 L93.9378078,175.370205 C94.6336362,175.235485 95.2980752,174.898683 95.8369574,174.359801 C97.2739765,172.922782 97.2739765,170.592914 95.8369574,169.155895 C88.9644419,162.283379 83.8218038,154.336056 80.409043,145.855003 L80.5644931,146.238441 C80.4090823,145.858773 80.2571516,145.478015 80.108701,145.096216 L80.108588,145.095485 C79.9730108,144.747235 79.8402282,144.397384 79.710353,144.0467 L79.9944023,144.799809 C79.8806274,144.503187 79.7689472,144.205945 79.6593616,143.908107 L79.710353,144.0467 C79.5967997,143.740088 79.4854691,143.432839 79.3763611,143.124979 L79.6593616,143.908107 C79.5264855,143.546969 79.3966891,143.184955 79.2699722,142.822104 L79.2696793,142.821742 C79.167293,142.528084 79.0666357,142.233515 78.9680006,141.938419 C78.8612977,141.619681 78.7570076,141.29998 78.6550816,140.979689 C78.6246419,140.883528 78.5942445,140.787285 78.5640604,140.69099 L78.6550816,140.979689 C78.5479752,140.64312 78.4434794,140.305899 78.3415941,139.96806 L78.5640604,140.69099 C78.4614432,140.363616 78.3612905,140.035636 78.2636023,139.70708 L78.2634096,139.706965 C78.0530612,138.998963 77.8539676,138.288167 77.6663216,137.574985 L77.7349842,137.834503 C77.642809,137.489564 77.5533162,137.144057 77.4665057,136.798016 L77.6663216,137.574985 C77.5832116,137.25911 77.5023471,136.942767 77.4237284,136.62598 L77.4665057,136.798016 C77.3832288,136.466061 77.3024204,136.133614 77.2240803,135.800704 L77.4237284,136.62598 C77.3388009,136.283774 77.256494,135.94105 77.1768075,135.597842 L77.2240803,135.800704 C77.1383895,135.436556 77.055652,135.071854 76.9758678,134.706637 L77.1768075,135.597842 C77.0856239,135.205115 76.9978716,134.811754 76.9135505,134.417805 L76.9758678,134.706637 C76.9029556,134.372877 76.8325099,134.038686 76.7645306,133.704094 L76.9135505,134.417805 C76.8449929,134.097503 76.7787035,133.776813 76.7146823,133.45576 L76.7645306,133.704094 C76.6980725,133.376988 76.6339717,133.049498 76.5722282,132.721652 L76.7146823,133.45576 C76.6477733,133.120226 76.5833418,132.784295 76.5213878,132.447998 L76.5211309,132.447333 C76.3829714,131.696649 76.2569215,130.94347 76.1432381,130.188788 L76.1908153,130.500709 C76.1410641,130.180222 76.0935456,129.859456 76.0482597,129.538436 L76.1432381,130.188788 C76.0944921,129.865189 76.0480197,129.541314 76.0038211,129.217189 L76.0036024,129.216484 C75.9040258,128.485351 75.8158219,127.752237 75.7392093,127.018141 L75.7390606,127.017812 C75.6294849,125.96677 75.5435367,124.913387 75.4813647,123.858864 L75.4917198,124.032591 C75.4702076,123.682445 75.4513175,123.332168 75.4350493,122.981792 L75.4813647,123.858864 C75.4617128,123.525541 75.4444364,123.192104 75.4295356,122.85858 L75.4294496,122.858866 C75.3965904,122.121171 75.3752576,121.38334 75.3655374,120.645384 L75.3679678,120.820311 C75.362607,120.477885 75.3597466,120.135426 75.3593868,119.792966 L75.3655374,120.645384 C75.3606303,120.272836 75.3586827,119.900256 75.3596947,119.527683 L75.3593868,119.792966 C75.3590276,119.451216 75.3611586,119.109463 75.3657798,118.767739 L75.3596947,119.527683 C75.3605824,119.200876 75.3637472,118.874075 75.3691892,118.547304 L75.3690995,118.547705 C75.3814305,117.812256 75.405194,117.077364 75.4404796,116.342923 L75.4404208,116.342579 C75.4559425,116.021074 75.4736181,115.699312 75.4935065,115.377661 L75.4934535,115.377353 C75.5399874,114.625932 75.5985541,113.874811 75.6692066,113.124613 L75.647125,113.362724 C75.6805707,112.994177 75.7169317,112.625845 75.756208,112.257765 L75.6692066,113.124613 C75.7022581,112.773668 75.7379545,112.422924 75.7762958,112.072416 L75.7761802,112.072914 C75.8600747,111.306523 75.9564818,110.54175 76.0655171,109.778435 L76.0172949,110.121688 C76.0624426,109.794083 76.1099138,109.466737 76.1597085,109.139677 L76.0655171,109.778435 C76.1075689,109.484046 76.151499,109.189874 76.1973074,108.895937 L76.1597085,109.139677 C76.2150051,108.776479 76.2731671,108.413632 76.3341943,108.051175 L76.1973074,108.895937 C76.250412,108.555185 76.3060408,108.214749 76.3641941,107.874662 L76.3341943,108.051175 C76.395154,107.689118 76.4589727,107.327449 76.5256504,106.966204 L76.3641941,107.874662 C76.4330853,107.471776 76.5055192,107.069378 76.5814958,106.667518 L76.5256504,106.966204 C76.5874771,106.63124 76.6517618,106.296641 76.7185047,105.962435 L76.5814958,106.667518 C76.652725,106.290768 76.7270679,105.914491 76.8045246,105.538727 L76.7185047,105.962435 C76.7907401,105.600727 76.8658549,105.239479 76.9438489,104.878729 L76.8045246,105.538727 C76.8627045,105.256481 76.9226412,104.974524 76.9843346,104.692875 L76.9438489,104.878729 C77.0240016,104.507995 77.1071952,104.137786 77.1934297,103.768142 L76.9843346,104.692875 C77.0650038,104.324595 77.1486768,103.956842 77.2353533,103.589653 L77.1934297,103.768142 C77.2716879,103.43269 77.3524505,103.097702 77.4357175,102.76321 L77.2353533,103.589653 C77.321342,103.225378 77.4102869,102.861659 77.502188,102.498534 L77.4357175,102.76321 C77.51563,102.442194 77.5978491,102.121634 77.6823749,101.801557 L77.502188,102.498534 C77.5848041,102.172096 77.6698093,101.846138 77.7572035,101.520689 L77.7571904,101.52062 C77.9514421,100.797358 78.157482,100.076536 78.375323,99.3585277 L78.3018634,99.6021611 C78.3963179,99.286701 78.4930465,98.9717766 78.592049,98.6574134 L78.375323,99.3585277 C78.4725707,99.0379974 78.5721702,98.718028 78.6741216,98.3986464 L78.6740835,98.3986884 C78.8970381,97.700319 79.1311982,97.0048021 79.3766019,96.3123794 L79.3013257,96.5258185 C79.412672,96.2083746 79.5263772,95.8915738 79.6424412,95.5754432 L79.3766019,96.3123794 C79.5020191,95.9585063 79.630373,95.6054413 79.7616636,95.2532223 L79.7615669,95.2534319 C80.0251391,94.5463854 80.3004413,93.8429556 80.5875704,93.1432388 L80.4505001,93.4797358 C80.582054,93.1543128 80.7161574,92.8296796 80.8528103,92.5058668 L80.5875704,93.1432388 C80.7131823,92.83713 80.8410576,92.5317318 80.9711964,92.2270698 L80.8528103,92.5058668 C80.9858961,92.1905067 81.1214,91.8759247 81.259322,91.5621492 L80.9711964,92.2270698 C81.0981964,91.9297561 81.2273519,91.6331436 81.358663,91.337256 L81.35854,91.3375056 C81.675498,90.6233216 82.0048826,89.9136076 82.3468169,89.2084483 L82.1610165,89.5946314 C82.3367973,89.2263483 82.5159853,88.8592852 82.6985804,88.4934894 L82.3468169,89.2084483 C82.4915219,88.9100282 82.6384745,88.6124238 82.7876747,88.3156604 L82.6985804,88.4934894 C82.8676134,88.1548628 83.0395662,87.8173223 83.2144388,87.4809053 L82.7876747,88.3156604 C82.9671431,87.9586927 83.1498635,87.602942 83.3358359,87.2484523 L83.2144388,87.4809053 C83.3601049,87.2006754 83.5077969,86.9212251 83.6575149,86.6425762 L83.3358359,87.2484523 C83.5195118,86.8983399 83.70636,86.5494576 83.8963804,86.2018479 L83.6575149,86.6425762 C83.8338511,86.3143864 84.0129976,85.9873081 84.1949546,85.6613768 L83.8963804,86.2018479 C84.0331452,85.95166 84.1715534,85.7021313 84.3116048,85.4532777 L84.3113643,85.4536955 C84.6766379,84.80466 85.0528345,84.1606283 85.4401945,83.5214632 L85.391187,83.6024466 C85.5514826,83.337135 85.7136991,83.0726587 85.8778367,82.8090379 L85.4401945,83.5214632 C85.6396403,83.1923669 85.8420455,82.8645607 86.0474102,82.5380829 L85.8778367,82.8090379 C86.0839079,82.4780677 86.293007,82.1484458 86.5051339,81.8202119 L86.5051781,81.8201476 C86.7150892,81.4953384 86.9280106,81.1718246 87.1438983,80.849709 L86.5911634,81.6874302 C86.8333473,81.3145521 87.0794478,80.9434761 87.3294649,80.5742607 L87.1438983,80.849709 C87.3355242,80.5637931 87.529487,80.2789788 87.7257869,79.9952929 L87.3294649,80.5742607 C87.5244332,80.2863392 87.7217832,79.999549 87.921515,79.7139179 L87.7257869,79.9952929 C87.9435775,79.6805493 88.1642448,79.3671947 88.3877888,79.0552658 L88.3878189,79.0552255 C88.6113991,78.7432443 88.8378879,78.4326493 89.0672551,78.1235175 C89.1398078,78.0257345 89.2127791,77.9279225 89.2860394,77.8302587 L89.0672551,78.1235175 C89.2880627,77.825922 89.5115379,77.5296825 89.7376807,77.2348319 L89.2860394,77.8302587 C89.4944737,77.5523935 89.7052477,77.2757271 89.9183613,77.0002865 L89.7376807,77.2348319 C89.9713621,76.9301522 90.2078919,76.6269555 90.4472702,76.3252779 L89.9183613,77.0002865 C90.1264995,76.7312765 90.3368694,76.4634356 90.5494709,76.1967889 L90.549522,76.1967244 C91.0312505,75.592537 91.5244905,74.9944178 92.0291909,74.4027232 L91.8894146,74.5671019 C92.1314161,74.2816189 92.3760748,73.9976192 92.6233908,73.7151354 L92.0291909,74.4027232 C92.2553461,74.1375859 92.4838025,73.8737387 92.7145601,73.6112077 L92.6233908,73.7151354 C93.1228955,73.1446021 93.6332394,72.5802524 94.1544226,72.0223548 L93.6830777,72.5318808 C93.9063511,72.2881369 94.1316648,72.0455923 94.359019,71.8042688 L94.1544226,72.0223548 C94.3849564,71.7755812 94.617611,71.53007 94.8523862,71.2858443 L94.8522222,71.286015 L95.1265122,71.0022611 L95.1265122,71.0022611 L95.8369574,70.2816708 C97.2739765,68.8446517 97.2739765,66.5147834 95.8369574,65.0777643 C95.2381994,64.4790064 94.4844329,64.1297309 93.7048317,64.0299379 L93.7048317,64.0299379 Z M191.675678,131.376387 C191.691664,131.312501 191.707516,131.248589 191.723235,131.184651 C191.755484,131.053471 191.78721,130.922021 191.818372,130.790463 C191.84206,130.690461 191.865478,130.590155 191.888569,130.489788 C191.924013,130.335725 191.958612,130.181852 191.992444,130.027844 C192.005558,129.968144 192.018544,129.908486 192.031414,129.848809 C192.128359,129.399308 192.2188,128.948519 192.302705,128.496756 C192.315907,128.425666 192.328846,128.355117 192.341625,128.284544 C192.366175,128.148968 192.390193,128.012986 192.41362,127.876922 C192.431117,127.775298 192.448274,127.673691 192.465102,127.572041 C192.498019,127.373202 192.529669,127.17425 192.560059,126.975142 L192.560076,126.975032 C192.585756,126.806785 192.610554,126.638318 192.634451,126.469747 C192.654275,126.329912 192.673502,126.18984 192.692108,126.049702 C192.710594,125.910467 192.728462,125.771209 192.745718,125.63189 C192.759523,125.520417 192.772869,125.409484 192.785826,125.298515 C192.801475,125.164505 192.81659,125.030146 192.831137,124.895737 C192.840519,124.809051 192.849653,124.722454 192.858551,124.635837 C192.871435,124.510419 192.883818,124.38503 192.895707,124.259603 C192.906347,124.147371 192.916627,124.034693 192.926509,123.921987 C192.933759,123.839286 192.940735,123.757296 192.9475,123.675292 C192.961289,123.508169 192.974244,123.340423 192.986317,123.172625 C193.004372,122.921676 193.020444,122.670838 193.034548,122.41991 L193.034564,122.419625 C193.042415,122.279951 193.04967,122.139963 193.056313,121.999952 C193.060686,121.90779 193.064786,121.815796 193.068622,121.723793 C193.074637,121.579525 193.080006,121.435128 193.084724,121.290714 C193.086849,121.225698 193.088841,121.160674 193.090702,121.095648 C193.110604,120.400133 193.115423,119.704321 193.10516,119.00869 C193.104431,118.959302 193.103633,118.910327 193.102761,118.861353 C193.099493,118.677888 193.09517,118.494232 193.089796,118.310601 C193.088427,118.263832 193.086983,118.216842 193.085471,118.169855 C193.07776,117.930382 193.068266,117.691058 193.056985,117.451802 L193.056984,117.451789 L193.054601,117.401799 L193.054601,117.401799 C192.681581,109.668518 190.442542,102.010469 186.337388,95.1585615 C186.319033,95.1288959 186.301262,95.0992987 186.283456,95.0697165 C186.033456,94.6535495 185.775917,94.2402643 185.511475,93.8301373 C185.497997,93.8098189 185.48488,93.7895057 185.471747,93.7692004 C185.389581,93.641619 185.306284,93.5142061 185.222316,93.3871057 C185.158054,93.2903056 185.093833,93.1938469 185.029225,93.097571 C184.938017,92.9612491 184.845542,92.8249997 184.752286,92.6891248 C184.706328,92.6225108 184.660434,92.555997 184.614353,92.4895741 C183.617842,91.0530517 182.533467,89.6590348 181.361398,88.3149119 C181.016468,87.9193427 180.663413,87.5275145 180.302739,87.1402116 C179.910751,86.7192795 179.509609,86.3035375 179.099462,85.8933904 L179.565146,86.3654414 C179.41123,86.2072851 179.256002,86.0499303 179.099462,85.8933904 C178.56058,85.3545082 177.89614,85.0177069 177.200312,84.8829863 L176.967336,84.845564 L176.497508,84.8156261 C175.555787,84.8156261 174.614065,85.1748808 173.895555,85.8933904 C172.458536,87.3304095 172.458536,89.6602778 173.895555,91.0972969 C174.412649,91.6143911 174.912828,92.1419952 175.396091,92.6794216 L175.217114,92.4816842 C175.357214,92.6354602 175.495917,92.7900548 175.633222,92.9454514 L175.396091,92.6794216 C175.532999,92.8316742 175.66855,92.9847152 175.802743,93.1385288 L175.633222,92.9454514 C175.785743,93.1180687 175.93654,93.2916758 176.085612,93.4662502 L175.802743,93.1385288 C175.93407,93.2890571 176.064096,93.4403255 176.192823,93.5923192 L176.085612,93.4662502 C176.188776,93.5870632 176.291115,93.7083395 176.392628,93.8300717 L176.192823,93.5923192 C176.34435,93.7712356 176.494076,93.9511571 176.642,94.1320598 L176.392628,93.8300717 C176.533844,93.9994165 176.673463,94.1696435 176.811483,94.3407327 L176.642,94.1320598 C176.770641,94.2893793 176.897918,94.4474408 177.023834,94.6062286 L177.023601,94.6059357 C177.461361,95.1579814 177.882437,95.7185041 178.287062,96.2871371 L178.155135,96.1028333 C178.250538,96.2353258 178.345043,96.3682653 178.43865,96.5016433 L178.438501,96.5014322 C178.569391,96.6879345 178.698379,96.8750812 178.825614,97.0630605 L178.709942,96.893101 C178.799517,97.0239969 178.888238,97.155302 178.976103,97.2870085 L178.825614,97.0630605 C178.952111,97.2499489 179.076874,97.4376602 179.199905,97.6261719 L178.976103,97.2870085 C179.07777,97.4394016 179.178292,97.5923322 179.27767,97.745788 L179.199905,97.6261719 C179.301012,97.7810912 179.400949,97.9365511 179.499715,98.092539 L179.27767,97.745788 C179.403156,97.9395602 179.526818,98.13417 179.648656,98.329593 L179.499715,98.092539 C179.634707,98.3057407 179.767513,98.5199289 179.898132,98.7350714 L179.648656,98.329593 C179.74406,98.4826166 179.838345,98.6361389 179.931511,98.7901481 L179.931522,98.7901666 C180.041474,98.9719238 180.149879,99.1543779 180.256725,99.3374912 L180.256644,99.3373511 C180.720853,100.132911 181.155574,100.940769 181.560891,101.759489 L181.439538,101.516433 C181.536076,101.708162 181.630992,101.900498 181.724288,102.093421 L181.560891,101.759489 C181.653791,101.947142 181.745146,102.135365 181.834956,102.324141 L181.724288,102.093421 C181.811064,102.272863 181.896437,102.452812 181.980407,102.633252 L181.834956,102.324141 C181.917609,102.497872 181.998953,102.67207 182.078989,102.84672 L181.980407,102.633252 C182.069005,102.823634 182.15604,103.014564 182.241515,103.206021 L182.078989,102.84672 C182.160209,103.023954 182.240081,103.201654 182.318606,103.379804 L182.241515,103.206021 C182.310738,103.361075 182.378937,103.516476 182.446111,103.672213 L182.318606,103.379804 C182.411031,103.589489 182.50159,103.799798 182.590282,104.010706 L182.590063,104.010184 C182.713633,104.304033 182.833374,104.598519 182.949504,104.894095 C182.997495,105.01624 183.044888,105.138621 183.091663,105.261184 C183.203572,105.554409 183.311963,105.848714 183.416822,106.143993 C183.493536,106.360021 183.568303,106.576405 183.641182,106.793284 L183.46032,106.267116 C183.53445,106.47803 183.606782,106.689436 183.677313,106.90131 L183.677285,106.901225 C183.813233,107.309606 183.942472,107.719639 184.065028,108.131237 L184.024672,107.996559 C184.074351,108.161303 184.122957,108.326301 184.170491,108.491542 L184.065028,108.131237 C184.121832,108.322008 184.1772,108.513115 184.231133,108.704541 L184.170491,108.491542 C184.223049,108.674246 184.274297,108.857248 184.324233,109.040533 L184.231133,108.704541 C184.286505,108.901076 184.340363,109.097947 184.392709,109.295136 L184.39288,109.29578 C184.525384,109.794928 184.648338,110.296763 184.761573,110.800343 C184.870015,111.282613 184.969517,111.766349 185.06011,112.251423 L184.975867,111.813693 C185.010153,111.986717 185.043302,112.159921 185.075313,112.333294 L185.06011,112.251423 C185.092817,112.426555 185.124364,112.601861 185.154749,112.777329 L185.075313,112.333294 C185.125006,112.602436 185.171959,112.871984 185.21617,113.141893 L185.154749,112.777329 C185.184032,112.946434 185.212236,113.115689 185.239362,113.285083 L185.21617,113.141893 C185.244097,113.312388 185.27093,113.483027 185.29667,113.6538 L185.239362,113.285083 C185.271239,113.484151 185.301627,113.683411 185.330525,113.882846 L185.29667,113.6538 C185.324403,113.837802 185.350867,114.021958 185.376061,114.206255 L185.330525,113.882846 C185.365773,114.1261 185.398804,114.369613 185.429619,114.613354 L185.376061,114.206255 C185.401618,114.393212 185.425869,114.580313 185.448813,114.767544 L185.448777,114.767244 C185.500341,115.188023 185.545278,115.609155 185.583624,116.030773 L185.58359,116.030402 C185.643017,116.683794 185.686599,117.337981 185.714372,117.992714 L185.701851,117.719255 C185.713246,117.951061 185.722658,118.182947 185.730087,118.414885 L185.714372,117.992714 C185.721696,118.165384 185.727921,118.338093 185.733046,118.510828 L185.730087,118.414885 C185.736064,118.601504 185.740758,118.788156 185.744168,118.974827 L185.733046,118.510828 C185.74036,118.757305 185.745434,119.003835 185.748269,119.250387 L185.744168,118.974827 C185.747462,119.155164 185.749559,119.335519 185.750457,119.51588 L185.748269,119.250387 C185.749785,119.38216 185.750661,119.513939 185.750897,119.64572 L185.750898,119.6459 C185.751358,119.902608 185.749389,120.159499 185.744989,120.416357 L185.744978,120.416995 C185.738561,120.791636 185.726945,121.166843 185.710141,121.541861 L185.710148,121.541706 C185.691501,121.957861 185.666478,122.373629 185.635071,122.789005 C185.606972,123.160718 185.573678,123.532933 185.535249,123.904718 L185.554718,123.71187 C185.53871,123.874303 185.521723,124.036657 185.503757,124.198923 L185.535249,123.904718 C185.513782,124.112399 185.490713,124.319946 185.466042,124.527338 L185.503757,124.198923 C185.481448,124.400408 185.45763,124.601757 185.432301,124.802952 L185.466042,124.527338 C185.442649,124.723991 185.417815,124.920506 185.39154,125.116864 L185.432301,124.802952 C185.40801,124.99591 185.382329,125.188726 185.35526,125.381384 L185.39154,125.116864 C185.366815,125.301642 185.340815,125.486282 185.313538,125.670769 L185.35526,125.381384 C185.325858,125.590645 185.294818,125.79972 185.262139,126.008589 L185.313538,125.670769 C185.286707,125.852249 185.258641,126.033582 185.22934,126.214754 L185.262139,126.008589 C185.231759,126.202768 185.199962,126.396768 185.166749,126.590573 L185.166729,126.590694 C185.104127,126.955994 185.036469,127.32072 184.963777,127.68464 C184.959292,127.707098 184.954746,127.729753 184.950182,127.752405 C184.905686,127.973198 184.85938,128.193493 184.811223,128.413464 L184.83159,128.319903 C184.790674,128.508936 184.748393,128.697732 184.704746,128.886276 L184.811223,128.413464 C184.769347,128.604746 184.726072,128.795782 184.681396,128.986558 L184.704746,128.886276 C184.654305,129.104164 184.602041,129.321716 184.547953,129.538907 L184.681396,128.986558 C184.635638,129.181958 184.588412,129.377084 184.539717,129.571919 L184.539727,129.571882 C184.477132,129.822334 184.412121,130.072267 184.344685,130.321681 L184.418293,130.045569 C184.369721,130.230387 184.319822,130.414929 184.268594,130.599179 L184.344685,130.321681 C184.29167,130.517757 184.237156,130.713512 184.181143,130.908928 L184.268594,130.599179 C184.207419,130.819208 184.14435,131.038822 184.079388,131.257994 L184.181143,130.908928 C184.13365,131.074623 184.085079,131.240074 184.03543,131.40527 L184.079388,131.257994 C184.019112,131.461355 183.957205,131.664336 183.893669,131.866916 L184.03543,131.40527 C183.975295,131.605357 183.913579,131.805069 183.850283,132.004389 L183.850108,132.004938 C183.730724,132.380876 183.605525,132.755959 183.474685,133.129508 C183.437802,133.234805 183.400659,133.339457 183.363071,133.443986 L183.363202,133.443623 C183.260744,133.728555 183.155128,134.012207 183.046224,134.294882 L183.164223,133.984796 C183.105562,134.140881 183.045903,134.296677 182.985246,134.452174 L183.046224,134.294882 C182.97711,134.474274 182.906673,134.653273 182.834911,134.831863 L182.985246,134.452174 C182.908426,134.649105 182.830006,134.845556 182.749985,135.041507 L182.834911,134.831863 C182.768914,134.996105 182.701797,135.160002 182.63356,135.323542 L182.749985,135.041507 C182.664221,135.251522 182.576619,135.460963 182.487178,135.669804 L182.63356,135.323542 C182.549986,135.523839 182.464732,135.723602 182.377797,135.922807 L182.487178,135.669804 C182.420525,135.825438 182.35285,135.980739 182.284155,136.135697 L182.377797,135.922807 C182.277982,136.151526 182.175952,136.37951 182.071706,136.606728 L182.284155,136.135697 C182.196574,136.333257 182.107333,136.53026 182.016433,136.726684 L182.071706,136.606728 C182.007929,136.74574 181.943322,136.884465 181.877887,137.022896 L182.016433,136.726684 C181.921449,136.931931 181.824654,137.136547 181.726047,137.340507 L181.725874,137.340864 C181.353153,138.111803 180.954348,138.873719 180.529633,139.624951 L180.529613,139.624987 C180.320699,139.994513 180.105494,140.361488 179.884018,140.725723 L180.00154,140.531212 C179.898309,140.703167 179.793688,140.874521 179.687676,141.045257 L179.884018,140.725723 C179.781687,140.894016 179.678018,141.061723 179.573009,141.22883 L179.687676,141.045257 C179.565455,141.242101 179.441385,141.438123 179.315468,141.633299 L179.573009,141.22883 C179.459456,141.409534 179.344337,141.589537 179.227653,141.768818 L179.315468,141.633299 C179.234816,141.758313 179.153406,141.88298 179.071238,142.007293 L179.071404,142.007042 C178.890633,142.280532 178.706366,142.552063 178.518436,142.821817 L178.163502,143.323108 C176.898925,145.080613 175.476276,146.759548 173.895555,148.340269 C173.280493,148.955331 172.928685,149.733959 172.840131,150.536136 C172.839597,150.551524 172.838014,150.566562 172.836523,150.581608 C172.794836,150.995389 172.824289,151.415215 172.923803,151.821389 C172.928844,151.841094 172.933856,151.86087 172.939035,151.880612 C172.951355,151.928266 172.96482,151.975636 172.979253,152.022774 C172.985291,152.04201 172.991287,152.061051 172.997442,152.080053 C173.011252,152.123081 173.026054,152.166016 173.041673,152.208721 C173.053692,152.241315 173.066047,152.273682 173.078876,152.305904 C173.092546,152.34043 173.106817,152.374732 173.121631,152.408855 C173.134768,152.438982 173.148284,152.469013 173.162224,152.498895 C173.177461,152.531659 173.193288,152.564303 173.209625,152.596756 C173.223154,152.623558 173.236975,152.650198 173.251145,152.6767 C173.273668,152.71887 173.297025,152.760565 173.321257,152.801888 C173.330986,152.81845 173.340919,152.835089 173.350995,152.851665 C173.415842,152.958349 173.486538,153.062337 173.563138,153.163274 C173.576129,153.180387 173.589167,153.19726 173.602372,153.214045 C173.692321,153.328386 173.790066,153.438686 173.895555,153.544175 L173.895555,153.544175 C174.558795,154.207415 175.412227,154.564544 176.28029,154.615562 L176.497508,154.621939 L176.967336,154.592002 L177.200312,154.554579 C177.89614,154.419859 178.56058,154.083057 179.099462,153.544175 C179.15014,153.493497 179.20068,153.442734 179.251083,153.391886 L179.099462,153.544175 C179.269956,153.373681 179.438895,153.202219 179.606277,153.029809 C179.669042,152.965157 179.731332,152.90064 179.793405,152.835991 C179.914099,152.710288 180.03405,152.584005 180.15318,152.457231 C180.207613,152.399305 180.261461,152.34172 180.31514,152.284034 C180.402098,152.190588 180.488889,152.096576 180.575235,152.002302 C180.653631,151.916706 180.731343,151.831244 180.808691,151.745569 C181.12126,151.39935 181.427886,151.049647 181.728555,150.696609 C181.796127,150.617269 181.863719,150.537378 181.931008,150.457318 C181.996478,150.379423 182.061613,150.301425 182.12646,150.22327 C182.225961,150.103347 182.324556,149.983336 182.422478,149.86296 C182.518256,149.745219 182.613553,149.626926 182.708204,149.508288 C182.74161,149.466415 182.774434,149.42513 182.807181,149.383804 C182.928824,149.230293 183.049572,149.075971 183.16924,148.921084 C183.210439,148.867761 183.251429,148.814475 183.292291,148.761123 C183.415733,148.599951 183.537903,148.438317 183.65891,148.276091 C183.695244,148.227381 183.7316,148.178447 183.76785,148.129459 C183.878999,147.979252 183.988987,147.828778 184.097985,147.677811 C184.14125,147.617888 184.18456,147.557607 184.227713,147.497248 C184.308862,147.38374 184.389135,147.270413 184.468857,147.156816 C184.539421,147.056272 184.60998,146.954898 184.680101,146.853313 C184.756455,146.742696 184.831885,146.632428 184.906801,146.521916 C184.957667,146.446882 185.008495,146.371439 185.059085,146.295884 C185.299979,145.936104 185.535186,145.574223 185.765001,145.209916 C185.825944,145.113307 185.886448,145.016625 185.946573,144.919774 C186.031487,144.782995 186.115737,144.645731 186.19923,144.508136 C186.248503,144.426934 186.297258,144.346042 186.345752,144.265038 C186.428796,144.126321 186.511091,143.987248 186.592621,143.847851 C186.618044,143.804384 186.643494,143.760713 186.668868,143.717009 C186.749829,143.577562 186.829689,143.438388 186.908792,143.298902 C187.108532,142.946696 187.303506,142.592382 187.493653,142.23617 C187.560917,142.110157 187.627405,141.984237 187.693292,141.858084 C187.717948,141.810877 187.742566,141.763546 187.7671,141.716184 C187.850827,141.554547 187.933554,141.392565 188.015297,141.230215 C188.074192,141.113241 188.132311,140.996613 188.189924,140.879799 C188.361339,140.532249 188.528433,140.182711 188.69104,139.831606 C188.71789,139.773631 188.744586,139.715683 188.77116,139.657692 C188.838695,139.510311 188.905439,139.362668 188.971393,139.214759 C189.004941,139.139526 189.038291,139.064208 189.071438,138.988821 C189.137068,138.839558 189.20193,138.689954 189.265991,138.54009 C189.294613,138.473131 189.323082,138.406106 189.351391,138.339029 C189.523683,137.930784 189.689998,137.52077 189.850395,137.108983 C189.89068,137.005558 189.930618,136.901955 189.970182,136.798241 C190.016396,136.677089 190.061887,136.556362 190.106872,136.435489 C190.140873,136.344132 190.174791,136.252132 190.208416,136.160049 C190.460995,135.468331 190.696901,134.772538 190.916346,134.072698 L190.916205,134.073148 C190.965627,133.915533 191.014078,133.758164 191.061699,133.600598 C191.08876,133.511061 191.11568,133.421033 191.142329,133.330942 C191.177609,133.211674 191.212384,133.0924 191.246686,132.973018 C191.274672,132.875612 191.302218,132.778584 191.329451,132.681486 C191.439446,132.289316 191.544437,131.895663 191.644323,131.500983 Z M97.4377407,119.718783 C97.4377407,119.743434 97.4377596,119.768085 97.4377975,119.792737 C97.438239,119.963505 97.4394072,120.134204 97.4414833,120.304894 C97.4422966,120.386061 97.4434979,120.467714 97.4449069,120.549363 C97.4607923,121.460049 97.502316,122.369813 97.5696585,123.278022 C97.5770361,123.37936 97.5849045,123.481083 97.5930968,123.582784 C97.6023375,123.695858 97.6118392,123.808835 97.6217409,123.921783 C97.6291725,124.008017 97.6369478,124.094031 97.6449552,124.180027 C97.6837594,124.595475 97.7278745,125.010691 97.7774106,125.425383 C97.7878556,125.513763 97.7986562,125.602088 97.8097028,125.690389 C97.8316883,125.865258 97.8545224,126.039986 97.8783211,126.214608 C97.8875565,126.283138 97.8970258,126.35151 97.9066431,126.419866 C97.9321709,126.600589 97.9586399,126.781262 97.9861438,126.961808 C97.9932939,127.009381 98.0005781,127.056717 98.0079335,127.104044 C98.0291744,127.240109 98.0509657,127.376457 98.0733483,127.512728 C98.0889675,127.608376 98.1049116,127.703639 98.1211449,127.798862 C98.156214,128.004052 98.1925166,128.208955 98.2301607,128.413659 C98.2882572,128.730038 98.3497081,129.046262 98.4143699,129.36196 C98.4915596,129.738469 98.5732725,130.114371 98.6595561,130.489435 C98.6772822,130.566777 98.6951873,130.643731 98.713285,130.720649 C98.820961,131.178036 98.9354828,131.63453 99.0568261,132.089583 L99.056872,132.089965 C99.11311,132.300655 99.1708614,132.511417 99.2300805,132.721852 C99.2424649,132.766046 99.2550965,132.810683 99.2677941,132.855306 C99.3130948,133.014322 99.3590284,133.172624 99.4057956,133.330733 C99.4324584,133.421033 99.4593782,133.511061 99.4865686,133.601024 C99.6230193,134.052359 99.7663428,134.502397 99.9164879,134.950652 L99.9163163,134.950255 C99.981742,135.145466 100.048285,135.339945 100.116116,135.534073 C100.127578,135.56698 100.139252,135.600271 100.150964,135.633551 C100.232243,135.864416 100.315119,136.09426 100.399811,136.323584 L100.399874,136.32384 C100.458259,136.481847 100.517572,136.639863 100.577751,136.797624 C100.608842,136.879206 100.639956,136.960103 100.671297,137.040933 C100.839797,137.475435 101.014966,137.90824 101.196726,138.338924 C101.21885,138.3914 101.24105,138.44374 101.263347,138.496048 C101.337195,138.66924 101.412142,138.842208 101.48816,139.014818 C101.505423,139.054061 101.522789,139.093348 101.54021,139.132615 C101.60685,139.282781 101.674176,139.432441 101.742311,139.581822 C101.779994,139.664478 101.817942,139.747048 101.856138,139.829533 C101.919884,139.967156 101.984319,140.104573 102.049443,140.241744 C102.120653,140.391765 102.192676,140.541436 102.265524,140.690805 C102.322174,140.806933 102.379177,140.922615 102.436676,141.038114 C102.468291,141.101646 102.500355,141.165691 102.532572,141.229679 C102.59655,141.356722 102.660825,141.482969 102.725696,141.608988 C102.76859,141.692335 102.811612,141.775305 102.854894,141.858175 C102.920819,141.98438 102.987356,142.110392 103.054495,142.236167 C103.104283,142.329458 103.154412,142.422616 103.204872,142.515643 C103.256,142.609882 103.307197,142.703511 103.358731,142.797004 L103.540905,143.124459 L103.540905,143.124459 L103.546362,143.134161 C103.655768,143.328885 103.766643,143.523007 103.878988,143.71651 C103.904645,143.760713 103.930094,143.804384 103.955619,143.848024 C104.041846,143.995442 104.129082,144.142764 104.217176,144.289715 C104.280775,144.395814 104.34467,144.501459 104.409009,144.606909 C104.457161,144.68582 104.505671,144.764806 104.554431,144.843682 C104.624529,144.957078 104.695003,145.070015 104.765994,145.18272 C105.001167,145.556081 105.242224,145.927239 105.488951,146.295726 C105.539644,146.371439 105.590472,146.446882 105.641538,146.522211 C105.716205,146.632352 105.791582,146.742545 105.867472,146.85249 C105.923344,146.933435 105.978922,147.013427 106.034773,147.093285 C106.131486,147.231572 106.229392,147.369993 106.328121,147.508006 C106.367626,147.563232 106.407113,147.618184 106.446731,147.673071 C106.713246,148.042297 106.985681,148.408588 107.264029,148.771802 C107.302322,148.82177 107.340515,148.871404 107.378818,148.92098 C107.498626,149.076047 107.619387,149.230385 107.741229,149.384146 C107.773704,149.42513 107.806529,149.466415 107.839432,149.507658 C107.947273,149.642829 108.055543,149.777051 108.164646,149.910821 C108.239876,150.00306 108.315486,150.095065 108.391493,150.186853 C108.466361,150.277266 108.541562,150.367407 108.617146,150.457336 C108.683572,150.53637 108.75031,150.615257 108.817344,150.693979 C109.108974,151.036449 109.406003,151.375552 109.708629,151.7114 C109.784507,151.795605 109.860469,151.879315 109.936781,151.962818 C110.047696,152.084188 110.159421,152.2052 110.271885,152.325773 C110.309628,152.366238 110.347326,152.406515 110.385106,152.446743 C110.507606,152.577179 110.630809,152.706923 110.754879,152.836142 L110.893844,152.980279 L110.893844,152.980279 L110.94191,153.029859 C111.059504,153.150985 111.177867,153.271643 111.296998,153.391827 L111.448677,153.544175 C111.506133,153.601631 111.565016,153.656789 111.625212,153.709651 L111.448677,153.544175 C111.530818,153.626316 111.615876,153.703762 111.703518,153.776513 C111.74055,153.807253 111.778098,153.837198 111.816084,153.866302 C111.839138,153.883962 111.862001,153.901054 111.885014,153.917846 C111.928552,153.949618 111.972775,153.980411 112.017504,154.010121 C112.04087,154.025646 112.064769,154.041124 112.088805,154.056297 C112.129236,154.081813 112.169654,154.106233 112.210428,154.129806 C112.240942,154.147456 112.272293,154.164976 112.303841,154.182001 C112.343141,154.203201 112.382117,154.223324 112.421366,154.242704 C112.451901,154.257786 112.482963,154.272583 112.514184,154.286921 C112.562294,154.309016 112.610944,154.330085 112.659938,154.350054 C112.678489,154.357614 112.69687,154.364931 112.715296,154.372094 C112.774095,154.394952 112.833494,154.416285 112.893298,154.436043 C112.907606,154.440772 112.922327,154.445534 112.937072,154.450201 C112.986873,154.465958 113.036547,154.480523 113.08645,154.49402 L113.160686,154.51327 L113.160686,154.51327 C113.451883,154.585633 113.751257,154.621939 114.05063,154.621939 L114.05063,154.621939 L114.520458,154.592002 L114.753434,154.554579 C115.449262,154.419859 116.113701,154.083057 116.652583,153.544175 C118.089603,152.107156 118.089603,149.777288 116.652583,148.340269 C113.604608,145.292293 111.144348,141.879157 109.271805,138.241682 L109.433029,138.551048 C109.309959,138.317003 109.18934,138.082006 109.071171,137.846095 L109.271805,138.241682 C109.190341,138.083435 109.109989,137.924763 109.030749,137.765679 L109.031122,137.765918 C108.829688,137.362021 108.635789,136.955705 108.449052,136.546919 L108.531883,136.726545 C108.441024,136.530213 108.351823,136.333303 108.264279,136.135835 L108.449052,136.546919 C108.364005,136.360744 108.280444,136.174056 108.198368,135.986875 L108.264279,136.135835 C108.201196,135.993541 108.138974,135.850958 108.077612,135.708094 L108.198368,135.986875 C108.114668,135.795989 108.032513,135.604589 107.951903,135.412694 L108.077612,135.708094 C107.999771,135.526861 107.923315,135.345175 107.848244,135.163053 L107.847876,135.162701 C107.789426,135.020358 107.731458,134.877395 107.67434,134.734172 C107.512875,134.329826 107.358498,133.923655 107.21089,133.515587 L107.337999,133.861455 C107.264213,133.663164 107.192033,133.46441 107.121461,133.265215 L107.21089,133.515587 C107.146756,133.338283 107.083899,133.160621 107.02232,132.982614 L107.121461,133.265215 C107.060837,133.094098 107.001398,132.922655 106.943146,132.750898 L107.02232,132.982614 C106.968523,132.827101 106.915701,132.671326 106.863855,132.515298 L106.943146,132.750898 C106.873083,132.544317 106.804735,132.337283 106.738103,132.129817 L106.73782,132.129529 C106.609444,131.729222 106.487181,131.32702 106.371315,130.923369 L106.401871,131.029891 C106.360265,130.886427 106.319469,130.742779 106.279481,130.598952 L106.371315,130.923369 C106.313842,130.723147 106.257943,130.522568 106.203618,130.321652 L106.279481,130.598952 C106.227273,130.41117 106.176444,130.223085 106.126994,130.034713 L106.203618,130.321652 C106.143424,130.099033 106.085163,129.876001 106.028834,129.652581 L106.126994,130.034713 C106.083669,129.869673 106.041402,129.704413 106.000195,129.538944 L106.000206,129.538333 C105.87421,129.033054 105.758121,128.525206 105.651927,128.015707 L105.737197,128.414056 C105.698974,128.239479 105.661916,128.064698 105.626024,127.889726 L105.651927,128.015707 C105.625751,127.890121 105.600177,127.764436 105.575203,127.638654 L105.626024,127.889726 C105.584909,127.68929 105.545324,127.488604 105.507269,127.287684 L105.507089,127.287485 C105.448274,126.976213 105.392955,126.664183 105.341313,126.351663 C105.277067,125.963648 105.218621,125.574884 105.165842,125.1855 L105.188684,125.350562 C105.162532,125.163402 105.137691,124.976095 105.11416,124.788655 L105.165842,125.1855 C105.136163,124.966537 105.108276,124.747378 105.08218,124.528047 L105.082223,124.527422 C105.004048,123.871342 104.941981,123.213091 104.895978,122.553928 L104.91819,122.854675 C104.903228,122.66098 104.889654,122.467199 104.877469,122.273346 L104.877394,122.273735 C104.866433,122.097779 104.856535,121.922154 104.847777,121.746483 L104.8477,121.746851 C104.836193,121.514143 104.826601,121.281723 104.819002,121.04925 L104.827913,121.300824 C104.823078,121.17646 104.818814,121.052078 104.81512,120.927682 L104.819002,121.04925 C104.812512,120.850734 104.807475,120.652179 104.80389,120.453604 L104.803801,120.453384 C104.801194,120.304199 104.799319,120.154781 104.798267,120.005359 C104.795845,119.673155 104.797574,119.34072 104.803372,119.008342 L104.803448,119.008358 C104.80928,118.669711 104.819411,118.331139 104.833767,117.992714 C104.852464,117.553498 104.878206,117.114544 104.911062,116.676023 L104.892518,116.933664 C104.904292,116.7619 104.917158,116.590197 104.931114,116.418566 L104.911062,116.676023 C104.924708,116.493892 104.939581,116.311837 104.955682,116.129869 L104.931114,116.418566 C104.946865,116.224855 104.964006,116.031236 104.982536,115.837725 L104.955682,116.129869 C104.974717,115.914729 104.995469,115.699712 105.017935,115.48484 L105.017894,115.484716 C105.028013,115.388456 105.038436,115.2921 105.049204,115.195776 C105.12055,114.55714 105.207096,113.920042 105.308806,113.284902 L105.264133,113.570659 C105.291872,113.389162 105.320848,113.207817 105.35106,113.026638 L105.308806,113.284902 C105.339007,113.096309 105.370545,112.907889 105.40342,112.719657 L105.35106,113.026638 C105.378732,112.860687 105.407441,112.694876 105.437188,112.529215 L105.437113,112.529411 C105.522089,112.056392 105.615438,111.584789 105.717234,111.114648 L105.644309,111.458491 C105.682823,111.272851 105.72265,111.087429 105.763791,110.90224 L105.717234,111.114648 C105.760168,110.916363 105.804604,110.718339 105.850543,110.520593 L105.763791,110.90224 C105.802296,110.728911 105.841952,110.555787 105.882758,110.382879 L105.850543,110.520593 C105.898006,110.316284 105.947073,110.112273 105.997745,109.908578 L105.882758,110.382879 C105.929663,110.18413 105.978088,109.985666 106.028033,109.787507 L106.027988,109.787797 C106.202487,109.095352 106.395485,108.406909 106.607028,107.722967 L106.499427,108.076653 C106.543622,107.928985 106.588679,107.78152 106.634596,107.634265 L106.607028,107.722967 C106.651106,107.580457 106.69599,107.438141 106.741679,107.296029 L106.634596,107.634265 C106.711679,107.387061 106.791187,107.14045 106.873121,106.89447 L106.741679,107.296029 C106.795215,107.129505 106.849858,106.96326 106.905605,106.797305 L106.905577,106.797443 C107.060142,106.337266 107.223173,105.879452 107.394699,105.424109 L107.287391,105.712346 C107.35454,105.529876 107.423047,105.347792 107.492911,105.16611 L107.394699,105.424109 C107.454196,105.266165 107.514715,105.108518 107.576257,104.951179 L107.492911,105.16611 C107.567024,104.973381 107.642665,104.781106 107.719835,104.589301 L107.576257,104.951179 C107.651533,104.758722 107.72834,104.566726 107.806675,104.375208 L107.719835,104.589301 C107.797671,104.395839 107.877062,104.202857 107.958007,104.010373 L107.957857,104.010706 L108.035729,103.826831 L108.035729,103.826831 L108.254213,103.323926 C108.372047,103.057693 108.492893,102.79247 108.616752,102.52831 L108.478121,102.827177 C108.569571,102.627898 108.662726,102.429209 108.757585,102.231133 L108.616752,102.52831 C108.68491,102.382945 108.753981,102.237902 108.823963,102.093188 L108.823953,102.093225 C108.996615,101.736173 109.174818,101.381168 109.358573,101.028302 C109.378598,100.989858 109.39864,100.951524 109.418747,100.913214 C109.627048,100.516348 109.842276,100.122425 110.064537,99.7314145 L109.935808,99.9596167 C110.026056,99.7984086 110.117494,99.6376869 110.21012,99.4774642 L110.064537,99.7314145 C110.151412,99.5785805 110.239362,99.4261916 110.328387,99.2742587 L110.21012,99.4774642 C110.331708,99.267144 110.455345,99.0576838 110.58103,98.8491125 L110.328387,99.2742587 C110.434083,99.0938722 110.541295,98.9141286 110.650022,98.7350463 L110.649988,98.7351064 C110.873457,98.3670283 111.103289,98.0018032 111.339519,97.6395307 L111.311542,97.6824977 C111.413191,97.5261773 111.51603,97.3704047 111.620059,97.2151929 L111.339519,97.6395307 C111.477012,97.4286763 111.616673,97.2188222 111.758501,97.0099998 L111.620059,97.2151929 C111.718978,97.0676043 111.818972,96.9205228 111.920043,96.7739592 L111.758501,97.0099998 C111.868382,96.8482144 111.979564,96.6870483 112.092047,96.5265163 L111.920043,96.7739592 C112.032475,96.6109194 112.146239,96.4485206 112.261333,96.286778 L112.092047,96.5265163 C112.201844,96.3698169 112.312881,96.2137217 112.425157,96.0582442 L112.261333,96.286778 C112.411718,96.0754417 112.564375,95.8652258 112.719305,95.656164 L112.719204,95.6563002 C112.773031,95.5836669 112.827029,95.5113087 112.881302,95.4390906 C113.125457,95.1142002 113.375127,94.7921681 113.630327,94.4731018 L113.501355,94.6351984 C113.63475,94.4666615 113.76968,94.2989409 113.906142,94.1320554 L113.630327,94.4731018 C113.762393,94.3079855 113.895939,94.1436634 114.030967,93.9801534 L113.906142,94.1320554 C114.054111,93.9510976 114.203883,93.7711216 114.355458,93.5921513 L114.355316,93.5923192 C114.644533,93.2508299 114.940164,92.9131665 115.242353,92.5793271 L114.979622,92.8723963 C115.107814,92.7280102 115.237216,92.5843211 115.367828,92.4413421 L115.242353,92.5793271 C115.377313,92.4302307 115.513582,92.2818971 115.651158,92.1343409 L115.367828,92.4413421 C115.516492,92.2786027 115.666724,92.1167834 115.818524,91.9559034 L115.651158,92.1343409 C115.787113,91.9885239 115.924346,91.8434661 116.062855,91.6991819 L116.063155,91.6988696 L116.234515,91.5214349 L116.234515,91.5214349 L116.652583,91.0972969 C118.089603,89.6602778 118.089603,87.3304095 116.652583,85.8933904 L116.652583,85.8933904 C116.59964,85.8404471 116.545485,85.7894544 116.490207,85.7404122 C116.478227,85.7297857 116.466506,85.7195207 116.454736,85.7093427 L116.441976,85.6983588 L116.441976,85.6983588 C115.881647,85.2182466 115.211193,84.9339816 114.520458,84.845564 L114.520458,84.845564 L114.05063,84.8156261 C113.108908,84.8156261 112.167187,85.1748808 111.448677,85.8933904 C102.438724,94.9033438 97.7742646,106.613241 97.4553,118.41872 L97.4553945,118.422662 C97.4447229,118.818624 97.4389399,119.214692 97.4380457,119.610769 Z M132.11148,126.313168 C132.117898,126.325953 132.124334,126.338727 132.130788,126.351491 C132.279183,126.644956 132.43698,126.932546 132.603896,127.214094 C132.67541,127.334715 132.748375,127.453873 132.822971,127.571898 C133.020137,127.883838 133.228565,128.187672 133.447793,128.483008 C133.488757,128.538193 133.530128,128.593121 133.571872,128.647747 C133.614671,128.703754 133.657913,128.759508 133.701544,128.814942 L133.701451,128.814824 C133.744033,128.868922 133.786891,128.922599 133.830114,128.975966 C133.934201,129.104475 134.040179,129.230931 134.148217,129.355554 C134.169398,129.379987 134.190619,129.404305 134.211919,129.428552 C134.254261,129.47675 134.296668,129.524398 134.339378,129.571766 C134.359308,129.593872 134.379511,129.616142 134.39978,129.638349 C134.451901,129.695447 134.50381,129.751436 134.556146,129.807019 C134.580245,129.832613 134.604595,129.858289 134.629036,129.883877 C134.667966,129.92463 134.706848,129.964875 134.745957,130.004898 L134.812428,130.072489 L134.812428,130.072489 L134.926456,130.186451 C134.932733,130.192656 134.939015,130.198856 134.945302,130.20505 C134.99301,130.252046 135.041077,130.298757 135.08946,130.345141 C135.115872,130.370463 135.142623,130.395918 135.169469,130.421274 C135.219723,130.468741 135.270722,130.516235 135.322056,130.563369 C135.346614,130.585915 135.370623,130.607812 135.394706,130.629631 C135.44853,130.678402 135.503249,130.727247 135.558332,130.775687 C135.588174,130.80193 135.61805,130.82799 135.648031,130.853931 C135.683832,130.884907 135.719842,130.915763 135.756002,130.946448 C135.808883,130.991322 135.862226,131.035947 135.915888,131.080198 C135.938591,131.098918 135.961021,131.117303 135.983505,131.135622 C136.136564,131.260334 136.292537,131.382298 136.450985,131.50114 L136.451312,131.501386 C136.514273,131.548609 136.577956,131.59558 136.642029,131.642046 C136.67298,131.664493 136.704057,131.686847 136.735225,131.709083 C136.863734,131.800763 136.993653,131.890344 137.12506,131.977869 L137.225474,132.044161 L137.225474,132.044161 L137.258726,132.065855 C137.38385,132.147248 137.510288,132.226791 137.638002,132.304444 L137.757008,132.376037 L137.757008,132.376037 L137.770157,132.383853 C137.985656,132.511809 138.204699,132.634422 138.427106,132.751508 C138.613203,132.849478 138.801588,132.943547 138.992219,133.033644 C139.040912,133.056658 139.089962,133.07951 139.139158,133.102098 C139.479137,133.258197 139.825976,133.401681 140.179187,133.532004 C140.207785,133.542555 140.236105,133.552904 140.264465,133.563168 C140.310912,133.57998 140.357851,133.596698 140.404899,133.613185 C140.568046,133.670354 140.73239,133.724694 140.897988,133.776189 C140.924815,133.784531 140.951455,133.792731 140.978128,133.800858 C141.04638,133.821654 141.115081,133.842037 141.18399,133.861929 C141.212046,133.870028 141.240083,133.878031 141.268153,133.885952 C141.349803,133.908994 141.43186,133.931381 141.514199,133.953072 C141.541928,133.960376 141.569221,133.967481 141.596546,133.974509 C141.660374,133.990928 141.724739,134.00702 141.78927,134.022686 C141.834674,134.03371 141.880357,134.044569 141.926122,134.055214 C141.972377,134.065972 142.018395,134.076441 142.064495,134.086693 C142.127693,134.100749 142.191093,134.114408 142.254643,134.127658 C142.304183,134.137988 142.354136,134.148132 142.404179,134.158022 C142.453227,134.167715 142.502182,134.177131 142.551223,134.186303 C142.597164,134.194896 142.64317,134.203273 142.68925,134.211436 L142.809279,134.232186 L142.809279,134.232186 C143.360505,134.32512 143.922138,134.387412 144.492366,134.417251 L144.492366,134.417251 L145.274069,134.437653 L146.055773,134.417251 L146.373998,134.397175 C153.989298,133.834592 159.99294,127.4778 159.99294,119.718783 C159.99294,118.675425 159.88438,117.657423 159.677941,116.675456 L159.677917,116.675508 C159.647573,116.531008 159.615088,116.387339 159.580518,116.244484 C159.548059,116.110378 159.513772,115.976971 159.477675,115.84431 C159.466106,115.801817 159.454392,115.75953 159.442495,115.717319 C159.42819,115.666519 159.41351,115.615492 159.398562,115.564578 C159.38014,115.501902 159.361389,115.439594 159.342238,115.377461 C159.295928,115.227106 159.24708,115.077281 159.195914,114.928534 C159.182533,114.88975 159.168921,114.850719 159.15515,114.811764 C159.134804,114.754082 159.1141,114.69666 159.09305,114.639406 C159.082747,114.611512 159.072209,114.583121 159.061585,114.554771 C159.036551,114.487824 159.011124,114.421449 158.985233,114.355306 C158.973524,114.325539 158.961624,114.295432 158.949626,114.265373 C158.913432,114.174535 158.87632,114.084193 158.838341,113.994307 L158.838163,113.994042 C158.813356,113.935173 158.787995,113.876237 158.762262,113.817501 C158.730725,113.745684 158.698781,113.67434 158.666288,113.603299 C158.654245,113.576801 158.641745,113.549687 158.629165,113.522617 C158.611351,113.484451 158.593451,113.446365 158.575393,113.408369 C158.46807,113.182378 158.355065,112.959532 158.236647,112.740036 C158.116274,112.517124 157.990958,112.298574 157.860291,112.083636 C157.752229,111.905728 157.640517,111.730462 157.52525,111.55777 C157.381464,111.342484 157.231968,111.130817 157.077131,110.92337 C157.04589,110.881384 157.014615,110.839942 156.983126,110.798672 C156.95741,110.765093 156.931002,110.73079 156.904447,110.696607 C156.878535,110.663128 156.852929,110.630457 156.827188,110.597897 C156.781632,110.540391 156.735302,110.482678 156.688549,110.425324 C156.673105,110.406256 156.657514,110.387229 156.641878,110.368241 C156.605076,110.323671 156.5681,110.279302 156.530869,110.235154 C156.425951,110.110627 156.318685,109.987621 156.209433,109.866439 C156.182644,109.836831 156.155961,109.807473 156.129161,109.778223 C156.089636,109.73498 156.049483,109.691678 156.009074,109.648619 C155.976504,109.614011 155.943813,109.579511 155.910957,109.545169 C155.876379,109.508927 155.841239,109.47257 155.805914,109.436394 C155.542738,109.166983 155.269669,108.907862 154.986996,108.659407 C154.76626,108.465324 154.53963,108.277786 154.30744,108.097053 C154.284247,108.079057 154.261144,108.061184 154.237986,108.043378 C154.209671,108.02155 154.181094,107.999743 154.152435,107.978037 C154.022068,107.879359 153.890366,107.783003 153.757028,107.688808 C153.696733,107.646165 153.635798,107.603801 153.574529,107.561889 C153.552574,107.546914 153.530874,107.532154 153.509132,107.517451 C153.455534,107.481162 153.401455,107.445108 153.347125,107.409405 C153.314095,107.387738 153.281052,107.366213 153.247918,107.344817 C153.207727,107.318828 153.167702,107.293257 153.127545,107.267876 C153.074082,107.234115 153.019748,107.200261 152.965178,107.166753 C152.926135,107.142748 152.887586,107.119323 152.848921,107.096071 C152.803199,107.068606 152.75716,107.041259 152.710959,107.014156 C152.681154,106.99664 152.651156,106.979185 152.621091,106.961833 C152.55451,106.923436 152.487856,106.885658 152.42088,106.848387 C152.389743,106.831033 152.358453,106.81377 152.327094,106.796618 C152.279785,106.770769 152.232532,106.745259 152.185124,106.720001 C152.135447,106.69351 152.085443,106.667238 152.035271,106.641246 C151.997216,106.621555 151.959311,106.602127 151.921311,106.58286 C151.882543,106.563182 151.843774,106.543741 151.804908,106.524467 C151.545716,106.395938 151.281805,106.274636 151.013832,106.161046 C150.995287,106.153171 150.976545,106.145273 150.957783,106.137412 C150.899401,106.112964 150.840905,106.0889 150.782221,106.065203 C150.497854,105.950373 150.20951,105.844324 149.917093,105.747198 C149.876352,105.733674 149.835886,105.72043 149.795343,105.707357 C149.761741,105.696516 149.72784,105.685721 149.693887,105.675046 C149.522131,105.62105 149.349024,105.570114 149.174624,105.522306 C149.158871,105.517983 149.142896,105.513633 149.126909,105.509309 C149.041022,105.486082 148.955038,105.463664 148.868752,105.442007 C148.840261,105.434852 148.811602,105.427751 148.78291,105.420734 C148.726457,105.40693 148.669795,105.39343 148.613007,105.380259 L148.53723,105.362893 L148.53723,105.362893 L148.352273,105.322288 C148.342313,105.320169 148.332348,105.318059 148.32238,105.31596 C148.259928,105.302803 148.19662,105.289904 148.133165,105.277413 C148.080308,105.267011 148.027972,105.257007 147.975539,105.24728 C147.924548,105.237819 147.873169,105.228571 147.821698,105.219589 C147.773958,105.211261 147.726354,105.203196 147.678673,105.195361 C147.619466,105.185631 147.560094,105.176248 147.500604,105.167221 C147.456233,105.160488 147.411281,105.153878 147.366263,105.147472 C147.311226,105.139642 147.256851,105.132217 147.202381,105.12509 C147.128951,105.115478 147.054608,105.106321 146.980094,105.097721 C146.959005,105.095287 146.938335,105.092946 146.917651,105.090648 C146.825261,105.08038 146.732248,105.070935 146.638983,105.062359 C146.622617,105.060854 146.606279,105.059379 146.589934,105.057931 C146.505167,105.050421 146.420214,105.043631 146.33506,105.037566 C146.309521,105.035746 146.283819,105.033983 146.2581,105.032285 C146.20769,105.028958 146.157322,105.025891 146.106887,105.023078 C145.941873,105.013873 145.776081,105.007385 145.609607,105.003662 L145.274069,104.999912 C145.156097,104.999912 145.038449,105.0013 144.921141,105.004061 L145.274069,104.999912 C145.09608,104.999912 144.918828,105.003072 144.742368,105.009337 C144.687745,105.011276 144.633121,105.013517 144.578575,105.016054 C144.51339,105.019088 144.44872,105.022522 144.384162,105.026372 C144.29464,105.03171 144.20528,105.037853 144.116143,105.04479 C144.092838,105.046603 144.069231,105.048496 144.045641,105.050446 C143.919148,105.0609 143.793445,105.072917 143.668214,105.086505 C143.653079,105.088148 143.638061,105.089801 143.623051,105.091476 C143.517149,105.103297 143.411525,105.116249 143.306253,105.130314 C143.275146,105.134469 143.243826,105.138756 143.212537,105.143141 C143.115242,105.156778 143.018302,105.171358 142.921677,105.186878 C142.895816,105.191033 142.870187,105.19522 142.844579,105.199473 C142.725596,105.219233 142.60693,105.240452 142.488765,105.263084 C142.45821,105.268936 142.427459,105.274928 142.396743,105.281015 C142.315348,105.297146 142.234366,105.313912 142.15363,105.33134 C142.107688,105.341257 142.061651,105.351427 142.015695,105.361813 C141.927204,105.381814 141.839534,105.402486 141.752171,105.423937 C141.736341,105.427823 141.720047,105.431853 141.703764,105.43591 C141.346008,105.525062 140.993882,105.627154 140.647456,105.741765 C140.60045,105.757316 140.553409,105.773145 140.506474,105.789206 C140.461747,105.804511 140.417356,105.819942 140.373062,105.835578 C140.307832,105.858606 140.242846,105.882068 140.178074,105.905972 C139.966647,105.983997 139.75728,106.066832 139.55033,106.154265 C139.509527,106.171505 139.46912,106.188792 139.428806,106.206255 C139.109558,106.344528 138.79561,106.494076 138.488026,106.654168 C138.472347,106.662329 138.456689,106.670515 138.441047,106.678728 C138.351481,106.725758 138.262566,106.773626 138.174205,106.822374 C138.14636,106.837737 138.118743,106.853091 138.091181,106.86853 C138.02466,106.905792 137.95827,106.943664 137.892205,106.982036 C137.849203,107.007013 137.806361,107.032188 137.763659,107.057573 C137.670646,107.112868 137.578566,107.16899 137.487158,107.226087 C137.458535,107.243963 137.4294,107.262303 137.400334,107.280741 C137.344479,107.316176 137.28926,107.351728 137.234296,107.387637 C137.169337,107.430078 137.104979,107.472852 137.040979,107.516117 C137.018926,107.531026 136.996897,107.546005 136.97491,107.561043 L136.833881,107.658706 L136.833881,107.658706 C134.569727,109.246759 132.774445,111.453791 131.6931,114.034142 L131.688016,114.042063 L131.598512,114.265373 C131.589692,114.287472 131.580924,114.309596 131.572208,114.331747 L131.688016,114.042063 C131.618182,114.209388 131.551332,114.378279 131.487537,114.54867 C131.479037,114.574805 131.469705,114.59989 131.46044,114.625007 C131.417006,114.739593 131.375674,114.856375 131.335779,114.973824 C131.307247,115.060576 131.278784,115.146847 131.251101,115.233467 C131.237108,115.274746 131.224131,115.316057 131.211331,115.357446 C131.191503,115.423883 131.171372,115.490544 131.151703,115.557402 L131.109695,115.700919 L131.109695,115.700919 L131.094405,115.757414 C131.067469,115.854035 131.041494,115.951056 131.016491,116.048466 C131.003903,116.09587 130.991857,116.143871 130.980047,116.191964 C130.919684,116.439033 130.865255,116.688131 130.817219,116.939498 L130.805491,117.00068 C130.801473,117.022223 130.797502,117.043782 130.793578,117.065358 C130.775603,117.164964 130.758457,117.265008 130.742326,117.365391 C130.735784,117.405449 130.729474,117.445816 130.723329,117.486238 C130.685374,117.73632 130.653651,117.988153 130.628372,118.241884 C130.624533,118.28016 130.620825,118.318937 130.617268,118.357756 C130.591457,118.63952 130.573571,118.923463 130.563845,119.209477 C130.562964,119.235356 130.562136,119.261723 130.561378,119.288108 L130.558522,119.402858 L130.558522,119.402858 L130.555199,119.718783 C130.555199,120.014712 130.563932,120.308601 130.581155,120.600207 C130.585504,120.673848 130.590403,120.747463 130.595841,120.820928 C130.608852,120.996685 130.624951,121.171603 130.644083,121.345609 C130.645779,121.361043 130.647525,121.376693 130.649296,121.392336 C130.658956,121.477675 130.669293,121.562381 130.680346,121.646861 C130.701633,121.809562 130.725576,121.971414 130.75213,122.132385 C130.81382,122.506298 130.889518,122.875115 130.97872,123.238628 C131.014698,123.385242 131.05285,123.53091 131.093159,123.675679 C131.104378,123.71597 131.115676,123.755883 131.127138,123.795727 C131.144489,123.856044 131.162177,123.916071 131.180235,123.975937 C131.20302,124.051475 131.226438,124.126888 131.250443,124.20204 L131.250468,124.202118 C131.268905,124.259836 131.287714,124.317477 131.306868,124.374961 C131.360376,124.535537 131.416485,124.694637 131.475223,124.852457 C131.487353,124.885045 131.499499,124.917328 131.511756,124.949557 C131.536436,125.014451 131.561433,125.078798 131.586867,125.142923 C131.602297,125.181827 131.617963,125.220836 131.633792,125.259762 C131.660629,125.32576 131.687836,125.39129 131.7155,125.45658 C131.73362,125.499344 131.751837,125.541774 131.770247,125.584101 C131.790338,125.630295 131.810752,125.676574 131.831398,125.722728 C131.848614,125.761214 131.865836,125.799274 131.883214,125.837247 C131.950272,125.983777 132.019765,126.129218 132.091551,126.273315 Z" id="shadow-with-outline" fill="#000000" fill-rule="nonzero"></path>
        <path d="M136.893659,179.816932 C137.529366,178.913633 138.776978,178.696707 139.680277,179.332414 C140.48321,179.897488 140.743823,180.946041 140.345346,181.806493 L140.164794,182.119033 L120.334426,210.296694 C119.698718,211.199993 118.451106,211.416919 117.547807,210.781211 C116.744874,210.216138 116.484261,209.167585 116.882738,208.307133 L117.06329,207.994593 L136.893659,179.816932 Z" id="Highlight" fill="#FFFFFF" fill-rule="nonzero"></path>
        <path d="M231.681241,220.367532 C233.243338,221.92963 233.243338,224.462289 231.681241,226.024387 L226.024387,231.681241 C224.462289,233.243338 221.92963,233.243338 220.367532,231.681241 L56.3187591,67.6324676 C54.756662,66.0703705 54.756662,63.5377105 56.3187591,61.9756134 L61.9756134,56.3187591 C63.5377105,54.756662 66.0703705,54.756662 67.6324676,56.3187591 L231.681241,220.367532 Z M228.852814,223.195959 L64.8040405,59.1471863 L59.1471863,64.8040405 L223.195959,228.852814 L228.852814,223.195959 Z" id="Shape" fill="#000000" fill-rule="nonzero"></path>
        <polygon id="White-Part-Mute" fill="#FFFFFF" fill-rule="nonzero" transform="translate(144.000000, 144.000000) rotate(45.000000) translate(-144.000000, -144.000000) " points="260 140 28 140 28 148 260 148"></polygon>
        <path d="M228,1.73194792e-13 C240.042438,1.73194792e-13 260.042438,1.73194792e-13 288,1.73194792e-13 C288,21.8047636 288,41.8047636 288,60 L288,228 C288,237.553655 288,257.553655 288,288 C260.537735,288 240.537735,288 228,288 L60,288 C46.7794484,288 26.7794484,288 -1.27897692e-13,288 C-1.27897692e-13,256.870838 -1.27897692e-13,236.870838 -1.27897692e-13,228 L-1.27897692e-13,60 C-1.27897692e-13,48.3560235 -1.27897692e-13,28.3560235 -1.27897692e-13,1.73194792e-13 C29.5525866,1.73194792e-13 49.5525866,1.73194792e-13 60,1.73194792e-13 L228,1.73194792e-13 Z M228,16 L56,16 C31.9424763,16 16.3944495,31.3074515 16.0058947,55.2723795 L16,60 L16,232 C16,256.057524 31.3074515,271.60555 55.2723795,271.994105 L60,272 L232,272 C256.057524,272 271.60555,256.692548 271.994105,232.72762 L272,228 L272,56 C272,31.9424763 256.692548,16.3944495 232.72762,16.0058947 L228,16 Z" id="Rectangle" fill="#1551FF" fill-rule="nonzero"></path>
    </g>
</svg>