<?xml version="1.0" encoding="UTF-8"?>
<svg width="288px" height="288px" viewBox="0 0 288 288" version="1.1" xmlns="http://www.w3.org/2000/svg" xmlns:xlink="http://www.w3.org/1999/xlink">
    <title>Local Mute</title>
    <g id="Local-Mute" stroke="none" stroke-width="1" fill="none" fill-rule="evenodd">
        <rect id="Background" fill="#1E183C" fill-rule="nonzero" x="0" y="0" width="288" height="288"></rect>
        <rect id="Black-Overlay" fill="#000000" opacity="0.5" x="0" y="0" width="288" height="288"></rect>
        <path d="M105.111111,160.444444 L105.71894,160.467845 C109.730404,160.77793 112.888889,164.131224 112.888889,168.222222 L112.888889,168.222222 L112.888889,214.888889 L112.865488,215.496718 C112.570908,219.307608 109.529831,222.348686 105.71894,222.643266 L105.71894,222.643266 L105.111111,222.666667 L89.5555556,222.666667 L88.9477268,222.643266 C84.9362628,222.333181 81.7777778,218.979887 81.7777778,214.888889 L81.7777778,214.888889 L81.7777778,168.222222 L81.8011782,167.614393 C82.111263,163.602929 85.4645574,160.444444 89.5555556,160.444444 L89.5555556,160.444444 L105.111111,160.444444 Z M198.444444,160.444444 L199.052273,160.467845 C203.063737,160.77793 206.222222,164.131224 206.222222,168.222222 L206.222222,168.222222 L206.222222,214.888889 L206.198822,215.496718 C205.904241,219.307608 202.863164,222.348686 199.052273,222.643266 L199.052273,222.643266 L198.444444,222.666667 L182.888889,222.666667 L182.28106,222.643266 C178.269596,222.333181 175.111111,218.979887 175.111111,214.888889 L175.111111,214.888889 L175.111111,168.222222 L175.134512,167.614393 C175.444596,163.602929 178.797891,160.444444 182.888889,160.444444 L182.888889,160.444444 L198.444444,160.444444 Z M144,67.1111111 C186.227422,67.1111111 220.595024,100.762995 221.747897,142.711851 L221.747897,142.711851 L221.777778,144.888889 L221.777778,187.666667 L221.751614,188.120193 C221.544252,189.905512 220.127734,191.32203 218.342415,191.529392 L218.342415,191.529392 L217.888889,191.555556 L217.418842,191.527438 C215.723859,191.323228 214.364495,190.02868 214.062655,188.365699 L214.062655,188.365699 L214,187.666667 L214,144.888889 L213.987894,143.573808 C213.286781,105.520729 182.220615,74.8888889 144,74.8888889 C106.030423,74.8888889 75.1216223,105.119662 74.0298442,142.82496 L74.0298442,142.82496 L74,144.888889 L74,187.666667 L73.9738366,188.120193 C73.7664747,189.905512 72.3499561,191.32203 70.5646377,191.529392 L70.5646377,191.529392 L70.1111111,191.555556 L69.6410644,191.527438 C67.9460816,191.323228 66.5867171,190.02868 66.2848774,188.365699 L66.2848774,188.365699 L66.2222222,187.666667 L66.2222222,144.888889 L66.234013,143.520763 C66.9640426,101.196449 101.501493,67.1111111 144,67.1111111 Z" id="Icon-Fill" fill="#FFFFFF" fill-rule="nonzero" opacity="0.9"></path>
        <path d="M144,63.3015873 C182.445766,63.3015873 214.785669,89.931812 223.361773,125.908592 C227.216708,134.773131 229.46715,144.496478 229.747897,154.711851 L229.777778,156.888889 L229.777778,199.666667 C229.777778,201.814441 228.036663,203.555556 225.888889,203.555556 C223.979756,203.555556 222.391935,202.17986 222.062655,200.365699 L222,199.666667 L222.000645,194.176221 C220.81107,194.929191 219.400883,195.365079 217.888889,195.365079 C216.568592,195.365079 215.318192,195.030649 214.221943,194.422559 L214.222222,226.888889 C214.222222,231.184437 210.739992,234.666667 206.444444,234.666667 L190.888889,234.666667 C186.593341,234.666667 183.111111,231.184437 183.111111,226.888889 L183.110698,226.475587 L182.888889,226.47619 C176.717952,226.47619 171.673691,221.65232 171.321257,215.569731 L171.301587,214.888889 L171.301587,168.222222 C171.301587,162.051285 176.125458,157.007024 182.208047,156.654591 L182.888889,156.634921 L198.444444,156.634921 C204.615381,156.634921 209.659643,161.458791 210.012076,167.54138 L210.031746,168.222222 L210.032494,173.319711 C210.085526,173.347335 210.1382,173.375551 210.190506,173.404352 L210.190476,144.888889 C210.190476,127.407187 203.413317,111.508375 192.342986,99.6764429 C180.940122,91.6212096 167.022707,86.8888889 152,86.8888889 C114.030423,86.8888889 83.1216223,117.119662 82.0298442,154.82496 L82,156.888889 L82.0001483,159.436665 C83.8681734,157.828734 86.2546717,156.8064 88.8747136,156.654591 L89.5555556,156.634921 L105.111111,156.634921 C111.282048,156.634921 116.326309,161.458791 116.678743,167.54138 L116.698413,168.222222 L116.698828,173.319538 C119.188689,174.616305 120.888889,177.220712 120.888889,180.222222 L120.888889,226.888889 C120.888889,231.184437 117.406659,234.666667 113.111111,234.666667 L97.5555556,234.666667 C93.2600075,234.666667 89.7777778,231.184437 89.7777778,226.888889 L89.7776984,226.475587 L89.5555556,226.47619 C83.3846188,226.47619 78.3403574,221.65232 77.9879242,215.569731 L77.968254,214.888889 L77.9676984,203.550587 L77.9078334,203.550334 C76.0901681,203.456732 74.6023971,202.115068 74.2848774,200.365699 L74.2222222,199.666667 L74.2228668,194.176221 C73.0332925,194.929191 71.6231053,195.365079 70.1111111,195.365079 C66.5818339,195.365079 63.5519961,192.975427 62.6308943,189.356877 L62.4905644,188.705789 L62.4126984,187.666667 L62.4126984,144.888889 C62.4126984,99.8294664 98.9405776,63.3015873 144,63.3015873 Z M103.999698,160.443587 L89.5555556,160.444444 L89.3008496,160.448536 C85.3261576,160.576418 82.1048029,163.686502 81.8011782,167.614393 L81.8011782,167.614393 L81.7777778,168.222222 L81.7777778,214.888889 L81.7818695,215.143595 C81.9097515,219.118287 85.019835,222.339642 88.9477268,222.643266 L88.9477268,222.643266 L89.5555556,222.666667 L103.999698,222.666587 L103.999698,160.443587 Z M198.444444,160.444444 L183.999698,160.443587 L183.999698,222.666587 L198.444444,222.666667 L199.052273,222.643266 L199.30517,222.61958 C202.996967,222.213147 205.910788,219.222922 206.198822,215.496718 L206.198822,215.496718 L206.222222,214.888889 L206.222222,168.222222 L206.21813,167.967516 C206.090248,163.992824 202.980165,160.77147 199.052273,160.467845 L199.052273,160.467845 L198.444444,160.444444 Z M108.000623,160.998876 L108.000498,222.112285 C110.686373,221.036951 112.632794,218.507004 112.865488,215.496718 L112.865488,215.496718 L112.888889,214.888889 L112.888889,168.222222 L112.884797,167.967516 C112.782982,164.803015 110.790825,162.116036 108.000623,160.998876 Z M179.999954,160.998645 C177.313845,162.073876 175.367219,164.603938 175.134512,167.614393 L175.134512,167.614393 L175.111111,168.222222 L175.111111,214.888889 L175.115203,215.143595 C175.217018,218.308096 177.209175,220.995076 179.999377,222.112235 Z M144,67.1111111 C101.501493,67.1111111 66.9640426,101.196449 66.234013,143.520763 L66.234013,143.520763 L66.2222222,144.888889 L66.2222222,187.666667 L66.2848774,188.365699 L66.3261281,188.563442 C66.6960033,190.130499 68.0138809,191.331396 69.6410644,191.527438 L69.6410644,191.527438 L70.1111111,191.555556 L70.5646377,191.529392 L70.761446,191.501419 C72.4532247,191.216597 73.7741547,189.839389 73.9738366,188.120193 L73.9738366,188.120193 L74,187.666667 L74,144.888889 L74.0298442,142.82496 L74.0715198,141.696066 C75.7405044,104.51807 106.410119,74.8888889 144,74.8888889 C182.220615,74.8888889 213.286781,105.520729 213.987894,143.573808 L213.987894,143.573808 L214,144.888889 L214,187.666667 L214.062655,188.365699 L214.103906,188.563442 C214.473781,190.130499 215.791659,191.331396 217.418842,191.527438 L217.418842,191.527438 L217.888889,191.555556 L218.342415,191.529392 L218.539224,191.501419 C220.231002,191.216597 221.551933,189.839389 221.751614,188.120193 L221.751614,188.120193 L221.777778,187.666667 L221.777778,144.888889 L221.747897,142.711851 L221.703372,141.4559 C219.906886,100.093323 185.805147,67.1111111 144,67.1111111 Z M144,78.6984127 C113.874933,78.6984127 88.365862,98.8550488 80.3935831,126.475611 C92.1673988,98.7885774 119.530448,79.3283092 151.464316,79.1129172 C149.014952,78.8396827 146.523974,78.6984127 144,78.6984127 Z" id="shadow-with-outline" fill="#000000" fill-rule="nonzero"></path>
        <path d="M97.3447998,164.785366 C98.4493693,164.785366 99.3447998,165.680796 99.3447998,166.785366 C99.3447998,167.767205 98.6372992,168.583799 97.7043024,168.753143 L97.3447998,168.785366 L93.8266501,168.785366 C90.7078657,168.785366 88.1448554,171.164918 87.8541164,174.207526 L87.8266501,174.785366 L87.8266501,184.726289 C87.8266501,185.830858 86.9312196,186.726289 85.8266501,186.726289 C84.8448106,186.726289 84.0282167,186.018788 83.8588728,185.085791 L83.8266501,184.726289 L83.8266501,174.785366 C83.8266501,169.483432 87.9527939,165.145211 93.1691474,164.806636 L93.8266501,164.785366 L97.3447998,164.785366 Z" id="Highlight" fill="#FFFFFF" fill-rule="nonzero"></path>
        <path d="M231.681241,220.367532 C233.243338,221.92963 233.243338,224.462289 231.681241,226.024387 L226.024387,231.681241 C224.462289,233.243338 221.92963,233.243338 220.367532,231.681241 L56.3187591,67.6324676 C54.756662,66.0703705 54.756662,63.5377105 56.3187591,61.9756134 L61.9756134,56.3187591 C63.5377105,54.756662 66.0703705,54.756662 67.6324676,56.3187591 L231.681241,220.367532 Z M228.852814,223.195959 L64.8040405,59.1471863 L59.1471863,64.8040405 L223.195959,228.852814 L228.852814,223.195959 Z" id="Shape" fill="#000000" fill-rule="nonzero"></path>
        <polygon id="White-Part-Mute" fill="#FFFFFF" fill-rule="nonzero" transform="translate(144.000000, 144.000000) rotate(45.000000) translate(-144.000000, -144.000000) " points="260 140 28 140 28 148 260 148"></polygon>
        <path d="M228,1.73194792e-13 C240.042438,1.73194792e-13 260.042438,1.73194792e-13 288,1.73194792e-13 C288,21.8047636 288,41.8047636 288,60 L288,228 C288,237.553655 288,257.553655 288,288 C260.537735,288 240.537735,288 228,288 L60,288 C46.7794484,288 26.7794484,288 -1.27897692e-13,288 C-1.27897692e-13,256.870838 -1.27897692e-13,236.870838 -1.27897692e-13,228 L-1.27897692e-13,60 C-1.27897692e-13,48.3560235 -1.27897692e-13,28.3560235 -1.27897692e-13,1.73194792e-13 C29.5525866,1.73194792e-13 49.5525866,1.73194792e-13 60,1.73194792e-13 L228,1.73194792e-13 Z M228,16 L56,16 C31.9424763,16 16.3944495,31.3074515 16.0058947,55.2723795 L16,60 L16,232 C16,256.057524 31.3074515,271.60555 55.2723795,271.994105 L60,272 L232,272 C256.057524,272 271.60555,256.692548 271.994105,232.72762 L272,228 L272,56 C272,31.9424763 256.692548,16.3944495 232.72762,16.0058947 L228,16 Z" id="Rectangle" fill="#A7C2FF" fill-rule="nonzero"></path>
    </g>
</svg>