<svg xmlns="http://www.w3.org/2000/svg" width="288" height="288" viewBox="0 0 288 288">
  <g id="All-local" fill="none" fill-rule="evenodd" stroke="none" stroke-width="1">
    <rect id="Background" width="288" height="288" x="0" y="0" fill="#1E183C" fill-rule="nonzero"/>
    <rect id="Black-Overlay" width="288" height="288" x="0" y="0" fill="#000" fill-rule="nonzero" opacity=".5"/>
    <g id="Monitor-all" fill-rule="nonzero" transform="translate(37 90)">
      <g id="local" transform="translate(0 2)">
        <path id="headphone_shadow-with-outline" fill="#000" d="M50.6666667,0 C66.6691166,0 80.9680566,7.429224 90.261898,19.060587 C101.232087,27.8257 108.491895,41.06373 109.265891,56.062246 L109.315028,57.305548 L109.333333,58.666667 L109.333333,84.333333 C109.333333,87.831137 106.497803,90.666667 103,90.666667 C101.918556,90.666667 100.894172,90.393997 99.994744,89.894545 L100,100.666667 C100,105.245027 96.449875,108.994212 91.952271,109.311573 L91.333333,109.333333 L82,109.333333 C77.4294617,109.333333 73.6852686,105.795329 73.3567505,101.308649 C69.0753132,100.996042 65.6574735,97.570891 65.3550938,93.285605 L65.3333333,92.666667 L65.3333333,64.666667 C65.3333333,60.088306 68.8834585,56.339122 73.3810621,56.02176 L74,56 L83.3333333,56 C85.34564,56 87.197765,56.685823 88.668719,57.836482 L88.666667,50.666667 C88.666667,42.213766 85.906701,34.40549 81.2387689,28.093838 C74.9278433,23.426633 67.1195673,20.666667 58.6666667,20.666667 C38.5982928,20.666667 22.0978154,36.248192 20.75609,56.000232 L27.3333333,56 C31.9038408,56 35.6480141,59.537957 35.9765762,64.024593 C40.258551,64.337824 43.6758833,67.762775 43.9782395,72.047729 L44,72.666667 L44,100.666667 C44,105.245027 40.4498748,108.994212 35.9522713,109.311573 L35.3333333,109.333333 L26,109.333333 C21.4294617,109.333333 17.6852686,105.795329 17.3567505,101.308649 C13.0753132,100.996042 9.6574735,97.570891 9.3550938,93.285605 L9.3333333,92.666667 L9.334427,88.140617 C8.8205608,87.449838 8.4264165,86.63649 8.1878873,85.724829 L8.0535645,85.109847 L8,84.333333 L7.999757,82.445146 C7.4687816,82.589579 6.9100598,82.666667 6.3333333,82.666667 C3.4510701,82.666667 0.9741203,80.729819 0.1878873,77.724829 L0.0535645,77.109847 L-7.10542736e-15,76.333333 L-7.10542736e-15,50.666667 C-7.10542736e-15,22.684239 22.6842393,0 50.6666667,0 Z M27.3333333,60 L18,60 L17.7825248,60.004978 C15.5481312,60.107475 13.7236826,61.781276 13.3884713,63.947088 L13.3607167,64.158182 L13.3333333,64.666667 L13.3333333,92.666667 L13.338311,92.884142 C13.4408085,95.118535 15.1146091,96.942984 17.2804209,97.278195 L17.4915153,97.30595 L18,97.333333 L27.3333333,97.333333 L27.8418181,97.30595 L28.0574031,97.277498 C30.054911,96.96634 31.6330063,95.388244 31.9441648,93.390736 L31.9726166,93.175151 L32,92.666667 L32,64.666667 L31.9950223,64.449192 C31.8925248,62.214798 30.2187242,60.390349 28.0529125,60.055138 L27.8418181,60.027383 L27.3333333,60 Z M83.3333333,60 L74,60 L73.7825248,60.004978 C71.5481312,60.107475 69.7236826,61.781276 69.3884713,63.947088 L69.3607167,64.158182 L69.3333333,64.666667 L69.3333333,92.666667 L69.338311,92.884142 C69.4408085,95.118535 71.1146091,96.942984 73.2804209,97.278195 L73.4915153,97.30595 L74,97.333333 L83.3333333,97.333333 L83.8418181,97.30595 L84.057403,97.277498 C86.054911,96.96634 87.633006,95.388244 87.944165,93.390736 L87.972617,93.175151 L88,92.666667 L88,64.666667 L87.995022,64.449192 C87.892525,62.214798 86.218724,60.390349 84.052912,60.055138 L83.8418181,60.027383 L83.3333333,60 Z M50.6666667,4 C25.5436582,4 5.0574185,23.852367 4.0396445,48.725404 L4.0147772,49.480654 L4,50.666667 L4,76.333333 L4.0375931,76.752753 L4.0746973,76.921259 C4.2903818,77.752198 4.9524926,78.403218 5.7897187,78.603006 L5.9594185,78.636867 L6.3333333,78.666667 L6.7118121,78.636127 L6.8834852,78.601436 C7.7302514,78.396773 8.3967726,77.730251 8.6014361,76.883485 L8.6361273,76.711812 L8.6666667,76.333333 L8.6666667,50.666667 L8.6845732,49.428309 L8.7095786,48.750973 C9.7109693,26.444175 28.1127382,8.666667 50.6666667,8.666667 C73.2542075,8.666667 91.677204,26.497203 92.628116,48.850736 L92.65157,49.529486 L92.666667,50.666667 L92.666667,76.333333 L92.70426,76.752753 L92.741364,76.921259 C92.957048,77.752198 93.619159,78.403218 94.456385,78.603006 L94.626085,78.636867 L95,78.666667 L95.378479,78.636127 L95.550152,78.601436 C96.396918,78.396773 97.063439,77.730251 97.268103,76.883485 L97.302794,76.711812 L97.333333,76.333333 L97.333333,50.666667 L97.315405,49.360444 L97.28869,48.606873 C96.210799,23.789327 75.7497551,4 50.6666667,4 Z"/>
        <path id="headphone_fill" fill="#FFF" d="M27.3333333,60 L27.8418181,60.027383 C30.109102,60.27307 31.8892185,62.142721 31.9950223,64.449192 L32,64.666667 L32,92.666667 L31.9726166,93.175151 C31.7451924,95.273907 30.1262506,96.955227 28.0574031,97.277498 L27.8418181,97.30595 L27.3333333,97.333333 L18,97.333333 L17.4915153,97.30595 C15.2242314,97.060264 13.4441149,95.190613 13.338311,92.884142 L13.3333333,92.666667 L13.3333333,64.666667 L13.3607167,64.158182 C13.6064029,61.890898 15.476054,60.110782 17.7825248,60.004978 L18,60 L27.3333333,60 Z M83.3333333,60 L83.8418181,60.027383 C86.109102,60.27307 87.889218,62.142721 87.995022,64.449192 L88,64.666667 L88,92.666667 L87.972617,93.175151 C87.745192,95.273907 86.126251,96.955227 84.057403,97.277498 L83.8418181,97.30595 L83.3333333,97.333333 L74,97.333333 L73.4915153,97.30595 C71.2242314,97.060264 69.4441149,95.190613 69.338311,92.884142 L69.3333333,92.666667 L69.3333333,64.666667 L69.3607167,64.158182 C69.6064029,61.890898 71.476054,60.110782 73.7825248,60.004978 L74,60 L83.3333333,60 Z M50.6666667,4 C75.7497551,4 96.210799,23.789327 97.28869,48.606873 L97.315405,49.360444 L97.333333,50.666667 L97.333333,76.333333 L97.302794,76.711812 C97.151508,77.639329 96.453369,78.383128 95.550152,78.601436 L95.378479,78.636127 L95,78.666667 L94.626085,78.636867 C93.709425,78.489221 92.971427,77.807594 92.741364,76.921259 L92.70426,76.752753 L92.666667,76.333333 L92.666667,50.666667 L92.65157,49.529486 C92.04896,26.859235 73.4823645,8.666667 50.6666667,8.666667 C28.1127382,8.666667 9.7109693,26.444175 8.7095786,48.750973 L8.6845732,49.428309 L8.6666667,50.666667 L8.6666667,76.333333 L8.6361273,76.711812 C8.484841,77.639329 7.7867024,78.383128 6.8834852,78.601436 L6.7118121,78.636127 L6.3333333,78.666667 L5.9594185,78.636867 C5.0427581,78.489221 4.3047607,77.807594 4.0746973,76.921259 L4.0375931,76.752753 L4,76.333333 L4,50.666667 L4.0147772,49.480654 C4.6440282,24.25545 25.2898905,4 50.6666667,4 Z" opacity=".9"/>
      </g>
      <g id="stream" transform="translate(110)">
        <path id="shadow-with-outline" fill="#000" d="M0.5,40 C0.5,33.6666667 1.666462,27.4998323 3.999386,21.499497 C6.628121,14.628854 10.711432,8.1872082 16.24932,2.6493203 C19.145208,-0.2465675 23.84037,-0.2465675 26.736258,2.6493203 C27.323169,3.2362313 27.79113,3.897048 28.140142,4.6018135 C30.45942,4.1731652 32.942867,4.8559292 34.736258,6.6493203 C36.703735,8.6167975 37.334501,11.414801 36.628555,13.914805 C37.82976,14.241855 38.965106,14.878167 39.909212,15.822273 C40.496123,16.409184 40.964085,17.070001 41.313096,17.774767 C43.632375,17.346118 46.115821,18.028882 47.909212,19.822273 C50.279363,22.192425 50.709655,25.767851 49.200086,28.575627 C50.80366,27.88985 52.570114,27.510482 54.425175,27.510482 C58.201013,27.510482 61.609759,29.082189 64.032873,31.607063 C69.083994,32.214029 73.265746,35.651012 74.946362,40.286748 C74.818732,35.363845 72.929099,30.47716 69.277916,26.653829 L68.941138,26.309211 C66.04525,23.413323 66.04525,18.718161 68.941138,15.822273 C71.837025,12.926386 76.532187,12.926386 79.428075,15.822273 C80.043133,16.437332 80.630796,17.069411 81.191063,17.716996 C83.404245,17.419099 85.726693,18.120891 87.428075,19.822273 L87.582759,19.978161 C86.052543,17.549225 84.229654,15.25182 82.114092,13.136258 C79.218204,10.24037 79.218204,5.5452082 82.114092,2.6493203 C85.00998,-0.2465675 89.705141,-0.2465675 92.601029,2.6493203 C93.219966,3.2682569 93.820733,3.8984825 94.403331,4.5393343 C96.604476,4.2544297 98.909646,4.9579372 100.601029,6.6493203 C121.684972,27.733263 121.684972,61.917087 100.601029,83.001029 C97.705141,85.896917 93.00998,85.896917 90.114092,83.001029 C89.527181,82.414118 89.059219,81.753302 88.710207,81.048536 C86.392355,81.477576 83.907998,80.794935 82.114092,79.001029 C80.146727,77.033664 79.515921,74.235868 80.221674,71.735972 C79.021013,71.40873 77.88542,70.772357 76.941138,69.828074 C76.354227,69.241163 75.886265,68.580346 75.537253,67.875581 C73.219401,68.304621 70.735044,67.62198 68.941138,65.828074 C66.570986,63.457923 66.140695,59.882497 67.650264,57.07472 C66.04669,57.760484 64.280236,58.139853 62.425175,58.139853 C58.649835,58.139853 55.24149,56.56856 52.818435,54.044271 C47.765629,53.436218 43.583401,49.998334 41.903262,45.361585 C42.035222,50.43502 44.037138,55.469062 47.909212,59.341136 C49.14571,60.577635 49.854243,62.142168 50.034811,63.754605 C50.304603,63.49176 50.599494,63.2543 50.91466,63.044189 C53.023174,61.638513 55.724462,61.643554 57.805935,62.959102 L58.312689,63.315233 L58.788114,63.751224 L59.295175,64.297794 L59.690948,64.799447 L60.648198,66.235012 C62.378686,65.728739 64.262671,65.983717 65.805935,66.959102 L66.312689,67.315233 L66.788114,67.751224 L67.295175,68.297794 L67.690948,68.799447 L91.283841,104.188787 C91.976905,105.228382 92.34674,106.449865 92.34674,107.699302 C92.34674,110.248506 90.826199,112.504946 88.554701,113.498151 L88.017529,113.704486 L87.391044,113.85822 L86.655004,113.976937 L86.018069,114.027974 L38.832281,114.027974 C37.582843,114.027974 36.361361,113.658139 35.321766,112.965075 C34.218071,112.229279 33.408706,111.194892 32.947294,110.027978 L30.832281,110.027974 C29.582843,110.027974 28.361361,109.658139 27.321766,108.965075 C25.200701,107.551032 24.166673,105.034217 24.600277,102.593286 L24.726565,102.031878 L24.946162,101.425334 L25.255665,100.747059 L25.566508,100.188787 L44.514913,71.766931 C42.059569,72.396614 39.344529,71.750329 37.422275,69.828074 C36.807216,69.213016 36.219554,68.580936 35.659287,67.933352 C33.446805,68.231459 31.123913,67.529712 29.422275,65.828074 L29.266855,65.671021 C30.669692,67.897941 32.318534,70.01431 34.213382,71.981356 L34.736258,72.514092 C37.632146,75.40998 37.632146,80.105141 34.736258,83.001029 C31.84037,85.896917 27.145208,85.896917 24.24932,83.001029 C23.630384,82.382093 23.029617,81.751867 22.447019,81.111015 C20.245874,81.39592 17.940703,80.692412 16.24932,79.001029 C10.711432,73.463141 6.628121,67.021496 3.999386,60.150852 C1.666462,53.050284 0.5,46.3333333 0.5,40 Z M78.018069,106.027974 L78.754109,105.909257 L78.914648,105.849112 C79.755679,105.497953 80.34674,104.667652 80.34674,103.699302 C80.34674,103.42346 80.29775,103.15132 80.203475,102.895118 L80.124335,102.706146 L79.95564,102.407588 L56.362746,67.018247 L55.855686,66.471677 L55.707689,66.365566 C54.949934,65.866236 53.936029,65.837344 53.13346,66.37239 C53.019767,66.448186 52.913245,66.533654 52.815005,66.627683 L52.673997,66.775007 L52.487603,67.018247 L28.894709,102.407588 L28.585206,103.085863 L28.546198,103.252802 C28.371861,104.14737 28.734851,105.09973 29.540567,105.636874 C29.770082,105.789884 30.02369,105.900078 30.289158,105.963752 L30.490291,106.002726 L30.832281,106.027974 L78.018069,106.027974 Z M21.492789,4.4774045 C20.618716,4.4774045 19.744643,4.8108521 19.077747,5.4777475 L18.50757,6.0570814 L18.50757,6.0570814 L17.816352,6.7849388 L17.816352,6.7849388 L17.295984,7.3524394 L17.295984,7.3524394 L16.728917,7.9911661 L16.728917,7.9911661 L16.197755,8.6097836 L16.197755,8.6097836 L15.72933,9.1726271 L15.72933,9.1726271 L15.139581,9.9057685 L15.139581,9.9057685 L14.616919,10.579886 L14.616919,10.579886 L14.143867,11.211162 L14.143867,11.211162 L13.570717,12.004937 L13.570717,12.004937 L13.118371,12.655466 L13.118371,12.655466 L12.605947,13.420142 L12.605947,13.420142 L12.164833,14.103896 L12.164833,14.103896 L11.857976,14.594502 L11.857976,14.594502 L11.359532,15.419666 L11.359532,15.419666 L10.971164,16.088799 L10.971164,16.088799 L10.650927,16.659304 L10.650927,16.659304 L10.20995,17.475117 L10.20995,17.475117 L9.880712,18.109076 L9.880712,18.109076 L9.573416,18.721772 L9.573416,18.721772 L9.25689,19.375948 L9.25689,19.375948 L9.005359,19.913945 L9.005359,19.913945 L8.725803,20.532436 L8.562328,20.904907 L8.562328,20.904907 C8.355681,21.381036 8.156782,21.85976 7.965646,22.340853 C7.833197,22.674233 7.704511,23.008656 7.579551,23.344152 L7.452608,23.688859 L7.452608,23.688859 L7.244579,24.271486 L7.244579,24.271486 L6.974905,25.063115 L6.974905,25.063115 L6.745788,25.772394 L6.745788,25.772394 L6.491788,26.604571 L6.491788,26.604571 L6.322635,27.189707 L6.322635,27.189707 L6.170941,27.738668 L6.170941,27.738668 L6.020915,28.307176 L6.020915,28.307176 L5.794852,29.220215 L5.794852,29.220215 L5.566484,30.227348 L5.566484,30.227348 L5.410473,30.977672 L5.410473,30.977672 L5.257419,31.776833 L5.257419,31.776833 L5.091941,32.73265 L5.091941,32.73265 L4.961182,33.579414 L4.961182,33.579414 L4.869929,34.236151 L4.869929,34.236151 L4.773752,35.009701 L4.773752,35.009701 L4.695784,35.723598 L4.695784,35.723598 L4.641912,36.282769 L4.641912,36.282769 L4.57755,37.059214 L4.57755,37.059214 L4.531357,37.735335 C4.452695,39.013346 4.422887,40.293781 4.441932,41.573625 C4.447072,41.918969 4.455765,42.264163 4.468012,42.609254 L4.492748,43.20617 L4.492748,43.20617 L4.536411,43.996055 L4.536411,43.996055 L4.57095,44.502201 L4.57095,44.502201 L4.617441,45.089189 L4.617441,45.089189 L4.657991,45.541492 L4.657991,45.541492 L4.728977,46.242342 L4.728977,46.242342 L4.832886,47.127699 L4.832886,47.127699 L4.928641,47.843946 L4.928641,47.843946 L5.075829,48.818334 L5.075829,48.818334 L5.203921,49.576301 L5.203921,49.576301 L5.306882,50.139579 L5.306882,50.139579 L5.487936,51.052437 L5.487936,51.052437 L5.589917,51.530951 L5.589917,51.530951 L5.827946,52.568528 L5.827946,52.568528 L6.007122,53.289507 L6.007122,53.289507 L6.21682,54.080307 L6.21682,54.080307 L6.419436,54.798762 L6.419436,54.798762 L6.663427,55.613757 L6.663427,55.613757 C6.897192,56.371041 7.149486,57.124213 7.420202,57.872218 L7.579871,58.307056 L7.579871,58.307056 C7.768533,58.813561 7.965774,59.317829 8.171515,59.819431 L8.412852,60.39741 L8.412852,60.39741 L8.684126,61.02374 L8.684126,61.02374 L8.950567,61.616942 L9.312683,62.391505 L9.312683,62.391505 L9.631,63.045013 L9.631,63.045013 L9.918752,63.615675 L9.918752,63.615675 L10.103707,63.973088 L10.103707,63.973088 L10.443932,64.61264 L10.443932,64.61264 L10.908733,65.451704 L10.908733,65.451704 L11.262796,66.066247 L11.262796,66.066247 L11.686648,66.776281 L11.686648,66.776281 L12.094478,67.435088 L12.094478,67.435088 L12.559909,68.159984 L12.559909,68.159984 L12.944558,68.738922 L12.944558,68.738922 L13.403652,69.407717 L13.403652,69.407717 L13.878566,70.075842 L13.878566,70.075842 L14.31492,70.66986 L14.31492,70.66986 L14.73186,71.22076 L14.73186,71.22076 L15.282754,71.925172 L15.282754,71.925172 L15.905208,72.691012 L15.905208,72.691012 L16.337781,73.205623 L16.337781,73.205623 L16.66439,73.585104 L16.66439,73.585104 L16.873919,73.82459 C17.577356,74.623582 18.312555,75.40741 19.077747,76.172602 C19.689068,76.783923 20.474476,77.115055 21.274391,77.165998 L21.492789,77.172945 L21.928866,77.145158 L22.145107,77.110424 C22.79095,76.985381 23.407659,76.672774 23.907831,76.172602 C25.241621,74.838812 25.241621,72.67631 23.907831,71.342519 C7.053567,54.488255 7.053567,27.162094 23.907831,10.307831 C24.966169,9.2494929 25.184735,7.6693881 24.563531,6.3955409 L24.486387,6.2485787 L24.486387,6.2485787 L24.364711,6.0429837 L24.364711,6.0429837 L24.266298,5.8988283 L24.266298,5.8988283 L24.193735,5.8018888 L24.193735,5.8018888 C24.106731,5.6896596 24.011294,5.5812103 23.907831,5.4777475 C23.407659,4.977576 22.79095,4.6649688 22.145107,4.5399259 L21.928866,4.5051918 L21.492789,4.4774045 Z M84.942519,5.4777475 C83.608728,6.8115381 83.608728,8.97404 84.942519,10.307831 C85.21965,10.584962 85.492225,10.864925 85.760243,11.147625 L86.158851,11.573718 L86.547872,12.000786 L86.733588,12.208726 L87.235208,12.784082 L87.502034,13.098616 L87.502034,13.098616 L87.765346,13.415048 L88.250752,14.014851 L88.66394,14.543191 C101.688915,31.46726 100.448442,55.836596 84.942519,71.342519 C84.649704,71.635334 84.421173,71.968089 84.256924,72.323248 L84.156213,72.568332 L84.156213,72.568332 C84.070271,72.796889 84.010732,73.033233 83.976592,73.272503 L83.950756,73.521107 L83.950756,73.521107 L83.943878,73.649401 L83.943878,73.649401 L83.942755,73.820659 L83.942755,73.820659 L83.949565,73.982792 L83.949565,73.982792 L83.967218,74.171623 L83.967218,74.171623 C83.979829,74.274103 83.996821,74.375753 84.018421,74.476616 L84.050984,74.614884 L84.050984,74.614884 L84.116898,74.838167 L84.116898,74.838167 L84.186755,75.029023 L84.186755,75.029023 L84.244352,75.164358 L84.244352,75.164358 L84.328989,75.338313 L84.328989,75.338313 L84.350335,75.378521 C84.430489,75.527126 84.52259,75.67121 84.626531,75.809208 L84.732204,75.942476 L84.732204,75.942476 L84.804717,76.0266 L84.942519,76.172602 C85.55384,76.783923 86.339247,77.115055 87.139162,77.165998 L87.357561,77.172945 L87.793638,77.145158 L88.009878,77.110424 C88.583961,76.999275 89.135025,76.739926 89.601682,76.332379 L89.772602,76.172602 C109.099229,56.845976 109.292495,25.631403 90.352401,6.0670173 L90.251,5.964 L90.157026,5.8665801 L89.772602,5.4777475 L89.772602,5.4777475 C89.216856,4.9220013 88.517237,4.5978161 87.793638,4.5051918 L87.357561,4.4774045 C86.483487,4.4774045 85.609414,4.8108521 84.942519,5.4777475 Z M34.665743,17.650358 C34.590231,17.650358 34.514719,17.652846 34.43934,17.657824 L34.665743,17.650358 L34.487286,17.654994 L34.487286,17.654994 L34.201538,17.681864 C33.486661,17.779819 32.798729,18.102673 32.250702,18.650701 C25.339844,25.561559 22.328833,34.895471 23.217669,43.917743 L23.269355,44.406679 L23.306541,44.718131 L23.306541,44.718131 L23.403605,45.431224 L23.403605,45.431224 L23.507506,46.086897 L23.507506,46.086897 L23.591051,46.557297 L23.591051,46.557297 L23.706168,47.148814 L23.706168,47.148814 L23.78889,47.53892 L23.78889,47.53892 L23.947651,48.229859 L23.947651,48.229859 L24.079743,48.755795 L24.079743,48.755795 L24.271515,49.45824 L24.271515,49.45824 C24.351057,49.737429 24.434458,50.015036 24.521786,50.291671 L24.643672,50.669407 L24.821776,51.193711 L24.821776,51.193711 L25.06774,51.872446 L25.06774,51.872446 L25.225583,52.283649 L25.225583,52.283649 L25.570622,53.127665 L25.570622,53.127665 L25.876655,53.822566 L25.876655,53.822566 L26.108738,54.320801 L26.108738,54.320801 C26.217391,54.548713 26.328991,54.775731 26.443503,55.001651 L26.611056,55.327484 L26.611056,55.327484 L26.835757,55.750178 L26.835757,55.750178 L27.120073,56.26358 L27.120073,56.26358 L27.427589,56.7945 L27.427589,56.7945 L27.814969,57.430833 L27.814969,57.430833 L28.124802,57.916316 L28.124802,57.916316 L28.301775,58.185014 L28.301775,58.185014 L28.601856,58.627281 L28.601856,58.627281 L28.910399,59.065662 L29.244062,59.522416 L29.244062,59.522416 L29.586797,59.974212 L29.91153,60.387142 L29.91153,60.387142 L30.467919,61.063115 L30.467919,61.063115 L31.069108,61.752687 L31.069108,61.752687 L31.472848,62.194052 L31.886977,62.629981 L31.886977,62.629981 L32.250702,62.999647 C32.862022,63.610967 33.64743,63.9421 34.447345,63.993043 L34.665743,63.99999 L35.101821,63.972202 L35.318061,63.937468 C35.963904,63.812425 36.580613,63.499818 37.080785,62.999647 C38.414576,61.665856 38.414576,59.503354 37.080785,58.169563 C27.501743,48.590521 27.501743,33.059826 37.080785,23.480784 C38.096473,22.465096 38.33871,20.968848 37.807496,19.723937 L37.721225,19.539201 L37.659614,19.421167 L37.659614,19.421167 L37.537019,19.214936 L37.537019,19.214936 L37.485015,19.136987 L37.485015,19.136987 L37.360211,18.966466 L37.360211,18.966466 C37.274642,18.856892 37.181517,18.751433 37.080785,18.650701 C36.580613,18.150529 35.963904,17.837922 35.318061,17.712879 L35.101821,17.678145 L34.665743,17.650358 Z M71.769565,18.650701 C70.435774,19.984491 70.435774,22.146993 71.769565,23.480784 L72.261028,23.986298 L72.261028,23.986298 L72.658213,24.416588 L72.658213,24.416588 L73.0432,24.853884 L73.41633,25.298377 L73.749403,25.713862 L74.02769,26.075696 L74.2345,26.353908 L74.2345,26.353908 L74.547003,26.790549 L74.848298,27.231642 L75.084281,27.592226 L75.22327,27.811311 L75.22327,27.811311 L75.359455,28.031105 C75.600449,28.424723 75.829088,28.823227 76.045633,29.226511 L76.042,29.222 L76.078338,29.287628 L76.286283,29.686386 L76.286283,29.686386 L76.528003,30.173947 L76.528003,30.173947 L76.788793,30.7331 L77.011073,31.241249 L77.163069,31.608075 L77.323603,32.015069 L77.466864,32.397572 L77.466864,32.397572 L77.667187,32.968215 C77.735675,33.171325 77.801415,33.375107 77.864422,33.579551 L78.01855,34.100112 L78.01855,34.100112 L78.210147,34.815597 L78.210147,34.815597 L78.320946,35.274491 L78.320946,35.274491 L78.414265,35.694725 L78.414265,35.694725 L78.456335,35.896494 L78.572088,36.502238 L78.667271,37.075791 L78.667271,37.075791 L78.754168,37.692449 L78.754168,37.692449 L78.80415,38.111222 C78.841029,38.444453 78.87108,38.778099 78.894323,39.112129 C78.927453,39.588301 78.946751,40.065155 78.952222,40.542106 L78.950059,41.25753 L78.932713,41.846321 L78.932713,41.846321 L78.925985,41.997588 C78.915493,42.218151 78.902058,42.438358 78.885667,42.658386 L78.835349,43.240619 L78.835349,43.240619 L78.771262,43.821367 C78.738429,44.089675 78.701173,44.357514 78.659489,44.624797 C78.607878,44.955734 78.549497,45.285727 78.484333,45.614642 L78.396113,46.040163 L78.396113,46.040163 L78.265435,46.610598 L78.159041,47.034282 L78.159041,47.034282 L78.008377,47.58595 L78.008377,47.58595 L77.874275,48.038746 L77.76278,48.392691 L77.76278,48.392691 C77.701307,48.582792 77.637499,48.772162 77.571315,48.960884 C77.500963,49.161496 77.427831,49.361628 77.352007,49.560969 L77.248139,49.829268 L77.248139,49.829268 L77.040732,50.338831 L76.920672,50.619581 L76.745247,51.013233 L76.583485,51.360493 L76.583485,51.360493 L76.416097,51.705531 L76.115343,52.293058 L75.915163,52.663582 L75.637379,53.153772 L75.637379,53.153772 L75.494858,53.395406 L75.233574,53.822587 L75.233574,53.822587 L74.986155,54.209751 L74.986155,54.209751 C74.86294,54.398614 74.736854,54.586151 74.607899,54.772303 C74.497983,54.930957 74.386487,55.087912 74.272925,55.24383 L74.016078,55.590032 L74.016078,55.590032 L73.752221,55.932889 L73.51739,56.227842 L73.101135,56.728826 L72.812706,57.060762 L72.812706,57.060762 L72.663658,57.227719 C72.513834,57.394029 72.361236,57.558886 72.205958,57.72213 L72.059808,57.874481 L71.769565,58.169563 C70.435774,59.503354 70.435774,61.665856 71.769565,62.999647 C72.380885,63.610967 73.166293,63.9421 73.966208,63.993043 L74.184606,63.99999 L74.620684,63.972202 L74.836924,63.937468 C75.482767,63.812425 76.099476,63.499818 76.599648,62.999647 C88.467886,51.131409 88.83458,32.117027 77.69973,19.807199 L77.358347,19.435429 C77.111199,19.171099 76.858152,18.909205 76.599648,18.650701 C76.043902,18.094954 75.344282,17.770769 74.620684,17.678145 L74.184606,17.650358 C73.310533,17.650358 72.43646,17.983805 71.769565,18.650701 Z M49.543773,48.759876 L49.738235,48.87652 C50.841941,49.520409 52.090018,49.943848 53.422101,50.086473 L53.787434,50.118363 L54.425175,50.139853 L55.062915,50.118363 L55.326267,50.096827 C60.047829,49.643595 63.73986,45.665541 63.73986,40.825167 C63.73986,37.044589 61.487571,33.790061 58.251602,32.330192 L58.054924,32.244295 L57.838806,32.155925 L57.838806,32.155925 L57.530265,32.040579 L57.530265,32.040579 L57.331213,31.972768 L57.331213,31.972768 L56.999793,31.870867 L56.999793,31.870867 L56.587072,31.762652 L56.587072,31.762652 L56.292975,31.697791 L56.292975,31.697791 L55.867559,31.621479 L55.867559,31.621479 L55.545557,31.577169 L55.545557,31.577169 L55.373828,31.558195 L55.373828,31.558195 L55.164364,31.539382 L55.164364,31.539382 L54.775783,31.516958 L54.775783,31.516958 L54.425175,31.510482 C49.371068,31.510482 45.257117,35.535765 45.114323,40.555328 L45.11049,40.825167 C45.11049,40.949216 45.112914,41.072699 45.117719,41.195571 L45.137896,41.545059 L45.137896,41.545059 L45.169981,41.883764 L45.169981,41.883764 L45.198078,42.10782 L45.198078,42.10782 C45.231956,42.353847 45.27547,42.596912 45.328217,42.836551 L45.444486,43.305981 L45.444486,43.305981 L45.512895,43.541893 L45.512895,43.541893 L45.602852,43.821361 L45.602852,43.821361 L45.704264,44.104816 L45.704264,44.104816 C45.789165,44.330452 45.882535,44.551854 45.984004,44.768679 L46.175539,45.154376 L46.175539,45.154376 L46.318238,45.415504 L46.318238,45.415504 C46.493333,45.724051 46.685437,46.021495 46.89332,46.306651 L47.139221,46.62903 L47.139221,46.62903 L47.383632,46.922935 L47.383632,46.922935 L47.585846,47.148755 L47.585846,47.148755 L47.813234,47.386083 L47.813234,47.386083 C47.958014,47.531984 48.107616,47.673141 48.261769,47.809283 L48.592395,48.087962 L48.592395,48.087962 L48.789294,48.242009 L48.789294,48.242009 L49.017459,48.410253 L49.017459,48.410253 C49.18863,48.532508 49.36418,48.649155 49.543773,48.759876 Z"/>
        <path id="Icon-Fill" fill="#FFF" d="M55.552861,66.272 L55.855686,66.471677 L56.362746,67.018247 L79.95564,102.407588 L80.124335,102.706146 C80.270193,103.015482 80.34674,103.354499 80.34674,103.699302 C80.34674,104.599565 79.835875,105.380509 79.088227,105.768052 L78.754109,105.909257 L78.018069,106.027974 L30.832281,106.027974 L30.490291,106.002726 C30.152,105.952499 29.82746,105.828137 29.540567,105.636874 C28.791503,105.137498 28.425095,104.279243 28.51736,103.442193 L28.585206,103.085863 L28.894709,102.407588 L52.487603,67.018247 L52.673997,66.775007 C52.808515,66.62154 52.96292,66.486083 53.13346,66.37239 C53.775515,65.944354 54.552825,65.877237 55.226038,66.123169 L55.552861,66.272 Z M87.357561,4.4774045 L87.793638,4.5051918 C88.517237,4.5978161 89.216856,4.9220013 89.772602,5.4777475 C109.294447,24.999593 109.294447,56.650757 89.772602,76.172602 C89.328005,76.617199 88.791329,76.913597 88.22396,77.061796 L87.793638,77.145158 L87.357561,77.172945 C86.483487,77.172945 85.609414,76.839498 84.942519,76.172602 C83.608728,74.838812 83.608728,72.67631 84.942519,71.342519 C101.796783,54.488255 101.796783,27.162094 84.942519,10.307831 C83.608728,8.97404 83.608728,6.8115381 84.942519,5.4777475 C85.609414,4.8108521 86.483487,4.4774045 87.357561,4.4774045 Z M21.492789,4.4774045 L21.928866,4.5051918 C22.652465,4.5978161 23.352085,4.9220013 23.907831,5.4777475 C25.241621,6.8115381 25.241621,8.97404 23.907831,10.307831 C7.053567,27.162094 7.053567,54.488255 23.907831,71.342519 C25.241621,72.67631 25.241621,74.838812 23.907831,76.172602 C23.463234,76.617199 22.926558,76.913597 22.359189,77.061796 L21.928866,77.145158 L21.492789,77.172945 C20.618716,77.172945 19.744643,76.839498 19.077747,76.172602 C-0.444098,56.650757 -0.444098,24.999593 19.077747,5.4777475 C19.744643,4.8108521 20.618716,4.4774045 21.492789,4.4774045 Z M74.184606,17.650358 L74.620684,17.678145 C75.344282,17.770769 76.043902,18.094954 76.599648,18.650701 C88.846271,30.897324 88.846271,50.753023 76.599648,62.999647 C76.155051,63.444244 75.618375,63.740642 75.051006,63.888841 L74.620684,63.972202 L74.184606,63.99999 C73.310533,63.99999 72.43646,63.666542 71.769565,62.999647 C70.435774,61.665856 70.435774,59.503354 71.769565,58.169563 C81.348607,48.590521 81.348607,33.059826 71.769565,23.480784 C70.435774,22.146993 70.435774,19.984491 71.769565,18.650701 C72.43646,17.983805 73.310533,17.650358 74.184606,17.650358 Z M34.665743,17.650358 L35.101821,17.678145 C35.825419,17.770769 36.525039,18.094954 37.080785,18.650701 C38.414576,19.984491 38.414576,22.146993 37.080785,23.480784 C27.501743,33.059826 27.501743,48.590521 37.080785,58.169563 C38.414576,59.503354 38.414576,61.665856 37.080785,62.999647 C36.636188,63.444244 36.099512,63.740642 35.532143,63.888841 L35.101821,63.972202 L34.665743,63.99999 C33.79167,63.99999 32.917597,63.666542 32.250702,62.999647 C20.004078,50.753023 20.004078,30.897324 32.250702,18.650701 C32.917597,17.983805 33.79167,17.650358 34.665743,17.650358 Z M54.425175,31.510482 C59.569533,31.510482 63.73986,35.680809 63.73986,40.825167 C63.73986,45.540829 60.235627,49.438034 55.689122,50.05482 L55.062915,50.118363 L54.425175,50.139853 L53.787434,50.118363 C48.940529,49.790634 45.11049,45.755178 45.11049,40.825167 C45.11049,35.680809 49.280816,31.510482 54.425175,31.510482 Z" opacity=".9"/>
      </g>
    </g>
    <g id="mute" fill-rule="nonzero">
      <path id="Shape" fill="#000" d="M231.681241,220.367532 C233.243338,221.92963 233.243338,224.462289 231.681241,226.024387 L226.024387,231.681241 C224.462289,233.243338 221.92963,233.243338 220.367532,231.681241 L56.3187591,67.6324676 C54.756662,66.0703705 54.756662,63.5377105 56.3187591,61.9756134 L61.9756134,56.3187591 C63.5377105,54.756662 66.0703705,54.756662 67.6324676,56.3187591 L231.681241,220.367532 Z M228.852814,223.195959 L64.8040405,59.1471863 L59.1471863,64.8040405 L223.195959,228.852814 L228.852814,223.195959 Z"/>
      <polygon id="White-Part-Mute" fill="#FFF" points="260 140 28 140 28 148 260 148" transform="rotate(45 144 144)"/>
      <path id="Rectangle" fill="#A7C2FF" d="M228,0 C240.042438,0 260.042438,0 288,0 C288,21.8047636 288,41.8047636 288,60 L288,228 C288,237.553655 288,257.553655 288,288 C260.537735,288 240.537735,288 228,288 L60,288 C46.7794484,288 26.7794484,288 0,288 C0,256.870838 0,236.870838 0,228 L0,60 C0,48.3560235 0,28.3560235 0,0 C29.5525866,0 49.5525866,0 60,0 L228,0 Z M228,16 L56,16 C31.9424763,16 16.3944495,31.3074515 16.0058947,55.2723795 L16,60 L16,232 C16,256.057524 31.3074515,271.60555 55.2723795,271.994105 L60,272 L232,272 C256.057524,272 271.60555,256.692548 271.994105,232.72762 L272,228 L272,56 C272,31.9424763 256.692548,16.3944495 232.72762,16.0058947 L228,16 Z"/>
    </g>
  </g>
</svg>
