<?xml version="1.0" encoding="UTF-8"?>
<svg width="288px" height="288px" viewBox="0 0 288 288" version="1.1" xmlns="http://www.w3.org/2000/svg" xmlns:xlink="http://www.w3.org/1999/xlink">
    <title>Input / SFX Mute</title>
    <g id="Input-/-SFX-Mute" stroke="none" stroke-width="1" fill="none" fill-rule="evenodd">
        <rect fill="#FFFFFF" x="0" y="0" width="288" height="288"></rect>
        <rect id="Background" fill="#FF6C3E" fill-rule="nonzero" x="0" y="0" width="288" height="288"></rect>
        <rect id="Rectangle" fill="#000000" opacity="0.5" x="0" y="0" width="288" height="288"></rect>
        <path d="M124.279417,82.9456391 C125.184805,83.5515032 125.716504,84.3520988 125.823662,85.1650531 L125.816618,85.9832112 C122.286727,117.207251 122.261122,140.228847 125.773519,154.494963 C127.097274,159.871589 128.737343,165.254491 130.693622,170.643702 L134.856017,181.556129 L136.322708,171.810122 C137.074043,167.27657 137.988883,162.680299 139.062629,158.050594 L140.800247,151.050498 C144.769697,136.035306 152.21145,119.841515 163.131219,102.484903 L166.208809,97.7021415 C167.405173,95.8829992 170.522607,95.1069218 173.036926,96.1555954 C174.462918,96.7503488 175.340259,97.7913207 175.474123,98.8656746 L175.476228,99.5749733 C174.114418,115.132597 175.617758,129.133638 179.998711,141.345155 C181.260394,144.861983 182.641366,148.300062 184.141656,151.659432 L188.992321,161.988362 L190.25941,154.4025 C191.24656,148.966746 192.635453,144.133126 194.42198,139.917074 L195.561125,137.419863 C199.604553,129.167645 205.545127,120.910574 213.363735,112.700801 L216.858077,109.156874 C218.548566,107.499116 221.844087,107.226706 224.018626,108.632823 C224.914356,109.212026 225.462159,109.982678 225.607003,110.774411 L225.643693,111.568088 C225.297929,117.664152 226.015355,122.995732 227.801237,127.262579 C229.083853,130.327017 231.292413,133.741407 234.402439,137.488227 L237.099453,140.609538 L245.120331,140.628381 C247.904773,140.634923 250,142.308498 250,144.11981 C250,145.675361 248.420494,147.167068 246.100909,147.502367 L244.98635,147.574355 L234.379912,147.5296 C233.558401,147.540324 232.865999,147.418358 232.25377,147.170397 C231.637541,146.920816 231.035829,146.515161 230.445557,145.938431 C224.520908,139.729323 220.526307,134.149735 218.44668,129.181069 C218.1496,128.471284 217.877704,127.740822 217.630934,126.989434 L216.245513,122.24006 L213.021336,126.403481 C210.509264,129.733329 208.338179,133.047431 206.493224,136.366033 L204.778617,139.643588 C200.799863,147.763971 198.616837,158.914426 198.21226,173.008054 L198.146329,176.897625 C198.136027,178.728738 196.028673,180.392255 193.247739,180.382455 C191.702602,180.37701 190.27129,179.834168 189.359327,178.955129 L188.795323,178.287721 C181.255315,167.606629 175.131765,155.794111 170.542797,143.002771 C168.693959,137.849298 167.329073,132.411526 166.44792,126.687314 L165.119515,116.699673 L160.853646,125.097397 C156.939057,133.012095 153.865722,140.623013 151.625892,147.947712 L150.39091,152.27606 C146.766978,165.98361 144.549975,179.353925 143.730406,192.424603 L143.438311,198.90136 C143.387531,200.752546 141.233695,202.39497 138.448256,202.347842 C136.743821,202.317339 135.209853,201.637197 134.360003,200.606766 L133.927582,199.960648 C125.757148,185.253859 119.804184,170.428981 116.164469,155.645745 C113.620324,145.312329 112.833106,130.833939 113.814341,112.127513 L114.657717,98.2830794 L110.209467,104.622871 C107.010268,109.380855 104.429532,114.229703 102.444849,119.203682 L101.086264,122.905965 C97.2996625,134.212154 94.547755,146.664935 92.8120982,160.310702 L92.1332408,166.206368 L91.4496276,172.81995 C91.38415,173.453536 90.3997135,174.118305 89.120387,174.034448 C88.3662157,173.985015 87.7251991,173.673639 87.4023842,173.261316 L83.0091884,167.649998 C77.0151684,159.993989 72.2651427,152.514805 68.7554365,145.210452 C66.6654467,140.860794 65.1514789,135.231702 64.2118312,128.27138 L63.3789718,121.648631 L59.9956523,127.091834 C57.608302,131.15994 55.9127674,135.985019 54.8866119,141.584618 L54.4366254,144.399121 L54.0783397,146.342501 C53.9886732,146.694464 53.8507264,146.960311 53.7358954,147.066933 C53.562726,147.227723 52.7960849,147.530983 52.83115,147.53015 L38.8701895,147.592264 C36.4156625,147.594399 34.4286519,146.263015 34.0614945,144.662463 L33.9872901,143.894692 C34,142.311376 36.0953245,140.640675 38.8768824,140.63805 L45.2245967,140.63206 L45.8768297,137.566244 C46.7983983,133.672496 48.0711344,130.095923 49.6868909,126.873239 L50.9945908,124.466493 C53.5612536,120.093625 57.0502523,115.768968 61.4305384,111.553438 L64.2036688,109.00317 C66.0124904,107.411065 69.3262658,107.278658 71.3912142,108.766058 C72.1385099,109.304341 72.6083084,109.981057 72.7648344,110.678619 L72.8368984,111.379455 C73.0182603,125.559908 74.7485296,136.279101 77.9919041,143.029168 C78.6570749,144.413512 79.3699835,145.805215 80.1305883,147.204257 L83.7960543,153.537083 L84.8776682,148.042158 C86.2413541,140.424022 87.9402628,133.232649 89.9808587,126.432754 L91.5846303,121.377767 C95.6804564,109.146333 103.079249,97.5556843 113.768835,86.6592307 L117.107109,83.3797603 C118.836066,81.7414653 122.138714,81.5131331 124.279417,82.9456391 Z" id="Icon-Fill" fill="#FFFFFF" fill-rule="nonzero" opacity="0.3"></path>
        <path d="M126.503989,79.6212925 C128.252307,80.7912246 129.42069,82.4869078 129.764651,84.5948112 L129.806421,84.884797 L129.803975,86.1880581 C129.707627,87.0439149 129.613917,87.8933718 129.522843,88.7364183 C131.958208,87.6133818 135.113863,87.7591913 137.391703,89.2834658 C138.767755,90.2042864 139.622408,91.5070007 139.806511,92.9036865 L139.816529,93.9643217 C137.312827,116.204653 136.584515,134.117697 137.595581,147.624419 C141.732389,133.159663 148.904153,117.752198 159.114382,101.363236 L159.756478,100.337648 L162.855836,95.5210459 C165.171717,91.9992659 170.363791,90.7067122 174.576689,92.4638304 C177.173711,93.5469975 178.996941,95.6436658 179.419716,98.3039856 L179.45843,98.5811833 L179.468387,99.7107562 C179.390634,100.606321 179.322448,101.495676 179.263824,102.378825 C181.221773,101.510565 183.673421,101.419919 185.806808,102.309713 C187.878952,103.173964 189.232795,104.804716 189.458776,106.618389 L189.475882,107.537767 C188.514073,118.615985 188.994048,128.769658 190.900012,138.002531 L191.945219,135.710441 C196.072935,127.284403 202.007174,118.954661 209.759141,110.691827 L210.491214,109.917381 L214.03336,106.32494 C217.105796,103.311277 222.469775,102.867887 226.19061,105.273882 C227.894687,106.375785 229.073689,107.972724 229.510404,109.982907 L229.570317,110.287523 L229.636702,111.549831 C229.584074,112.516574 229.558176,113.454453 229.558725,114.3632 C231.921252,113.368566 234.899616,113.527537 237.104618,114.953352 C238.455864,115.827105 239.327854,117.067114 239.574351,118.414494 L239.639658,119.441117 C239.307589,125.541108 240.001682,130.561397 241.646156,134.490391 C241.933647,135.177267 242.273899,135.887844 242.667076,136.621709 L245.129728,136.628393 C249.634871,136.638976 253.473456,139.473484 253.950214,143.311596 L253.975179,143.547821 L254,144.11981 C254,145.000754 253.822709,145.841311 253.49547,146.619576 L257.12503,146.628387 C260.925247,146.637315 264,149.093292 264,152.11981 C264,154.795218 261.579287,157.02035 258.387038,157.481794 L257.125075,157.569538 L246.372481,157.529586 C245.326131,157.543619 244.369631,157.375133 243.502983,157.024128 C242.636335,156.673124 241.817956,156.1214 241.047847,155.368957 C239.806508,154.068387 238.645288,152.792615 237.564459,151.54096 L234.399302,151.529406 C233.093861,151.546914 231.873264,151.331907 230.752196,150.877859 C229.635128,150.425431 228.600083,149.727639 227.601073,148.749843 C225.505097,146.553858 223.633587,144.427352 221.984845,142.364843 C221.372852,143.356477 220.791932,144.347303 220.241251,145.337837 L218.550934,148.570352 C214.757547,156.313912 212.610416,167.166794 212.211437,181.065443 L212.146043,184.931451 C212.129243,187.95533 209.037612,190.395822 205.240691,190.382443 C203.180822,190.375184 201.257164,189.634494 199.971345,188.395096 L199.280408,187.59349 C198.397647,186.344848 197.53505,185.08343 196.692613,183.809248 C195.623572,184.183673 194.452231,184.386724 193.233644,184.38243 C190.799286,184.373852 188.473287,183.531457 186.695427,181.924699 L186.45643,181.700864 L185.647314,180.748049 C178.60323,170.784376 172.823491,160.014787 168.310143,148.447107 C167.274098,151.182477 166.350314,153.877665 165.538469,156.532562 L164.314199,160.824656 C160.732408,174.374268 158.537506,187.615426 157.726486,200.549763 L157.436285,206.991371 C157.35387,210.014567 154.209743,212.412145 150.41368,212.34651 C148.129124,212.307009 146.045676,211.368973 144.817069,209.879304 L144.277028,209.090105 C143.634048,207.934125 143.004875,206.778261 142.389511,205.622516 C141.170748,206.110953 139.804485,206.370856 138.379105,206.346211 C135.65679,206.299142 133.103995,205.211878 131.370554,203.248554 L131.166515,203.008761 L130.529207,202.062279 C122.093241,186.895692 116.007633,171.740484 112.280456,156.60201 C111.581841,153.764483 111.011217,150.645364 110.567877,147.241424 C109.004609,153.978872 107.747037,161.086876 106.796114,168.563056 L106.120118,174.4351 L105.439032,181.025544 C105.252162,182.833775 103.260071,184.17899 100.989574,184.030166 C99.6900042,183.944983 98.5175292,183.37545 97.8276098,182.494234 L93.4344141,176.882916 L93.3409428,176.76198 C92.1338836,177.656602 90.5307351,178.135476 88.8587602,178.025883 C87.1108963,177.911316 85.4896114,177.162428 84.4250362,175.935958 L84.2528355,175.727151 L79.8596397,170.115834 C75.346054,164.350745 71.5082968,158.667365 68.3473115,153.062504 L68.0452957,154.704557 C67.8451385,155.521918 67.5289574,156.131253 67.0967522,156.532562 C66.4484444,157.134525 65.1645249,157.522793 64.8786583,157.529586 L50.8791408,157.592244 C47.5059064,157.595196 44.6976059,155.661921 44.1121265,153.109637 L44,152.11981 C44,151.933842 44.0116285,151.750036 44.0343383,151.568826 L38.8808914,151.592243 C34.766553,151.595844 31.1449096,149.230526 30.1860608,145.585266 L30.1248364,145.334755 L30,144.11981 C30,139.956874 33.9092129,136.762782 38.6064084,136.641614 L38.873108,136.638052 L41.984,136.632 L42.4264336,134.898101 C43.1394376,132.243515 44.0099015,129.735325 45.0475563,127.357563 L45.3996469,126.569784 L46.1413019,125.022685 L47.5118201,122.500306 C50.177635,117.956245 53.6867555,113.550295 58.059161,109.253521 L58.6896652,108.640436 L61.5279382,106.030196 C64.7807041,103.166015 70.1620106,102.950997 73.7290916,105.520394 C75.1561667,106.548328 76.1649044,107.940902 76.6230799,109.676672 L76.7025037,110.006145 L76.82291,111.117772 C76.8375851,112.200659 76.8611711,113.261233 76.8935885,114.299289 C79.3495324,113.328005 82.4038432,113.590019 84.5601529,115.143226 C85.6977041,115.962613 86.450213,117.054867 86.7163084,118.240727 L86.8230936,119.144873 C86.8403839,120.420734 86.8698774,121.665738 86.9114523,122.879761 L87.7817384,120.13801 C92.0024995,107.532657 99.5079226,95.6550994 110.276087,84.513247 L110.939439,83.8320121 L114.329579,80.5015599 C117.459951,77.534531 122.830701,77.1632182 126.503989,79.6212925 Z M124.279417,82.9456391 C122.138714,81.5131331 118.836066,81.7414653 117.107109,83.3797603 L117.107109,83.3797603 L113.768835,86.6592307 C103.079249,97.5556843 95.6804564,109.146333 91.5846303,121.377767 L91.5846303,121.377767 L89.9808587,126.432754 C87.9402628,133.232649 86.2413541,140.424022 84.8776682,148.042158 L84.8776682,148.042158 L83.7960543,153.537083 L80.1305883,147.204257 C79.3699835,145.805215 78.6570749,144.413512 77.9919041,143.029168 C74.7485296,136.279101 73.0182603,125.559908 72.8368984,111.379455 L72.8368984,111.379455 L72.7648344,110.678619 C72.6083084,109.981057 72.1385099,109.304341 71.3912142,108.766058 C69.3262658,107.278658 66.0124904,107.411065 64.2036688,109.00317 L64.2036688,109.00317 L61.4305384,111.553438 C57.0502523,115.768968 53.5612536,120.093625 50.9945908,124.466493 L50.9945908,124.466493 L49.6868909,126.873239 C48.0711344,130.095923 46.7983983,133.672496 45.8768297,137.566244 L45.8768297,137.566244 L45.2245967,140.63206 L38.8768824,140.63805 C36.0953245,140.640675 34,142.311376 33.9872901,143.894692 L33.9872901,143.894692 L34.0614945,144.662463 C34.4286519,146.263015 36.4156625,147.594399 38.8701895,147.592264 L38.8701895,147.592264 L52.83115,147.53015 C52.7960849,147.530983 53.562726,147.227723 53.7358954,147.066933 C53.8507264,146.960311 53.9886732,146.694464 54.0783397,146.342501 L54.0783397,146.342501 L54.4366254,144.399121 L54.8866119,141.584618 C55.9127674,135.985019 57.608302,131.15994 59.9956523,127.091834 L59.9956523,127.091834 L63.3789718,121.648631 L64.2118312,128.27138 C65.1514789,135.231702 66.6654467,140.860794 68.7554365,145.210452 C72.2651427,152.514805 77.0151684,159.993989 83.0091884,167.649998 L83.0091884,167.649998 L87.4023842,173.261316 C87.7251991,173.673639 88.3662157,173.985015 89.120387,174.034448 C90.3997135,174.118305 91.38415,173.453536 91.4496276,172.81995 L91.4496276,172.81995 L92.1332408,166.206368 L92.8120982,160.310702 C94.547755,146.664935 97.2996625,134.212154 101.086264,122.905965 L101.086264,122.905965 L102.444849,119.203682 C104.429532,114.229703 107.010268,109.380855 110.209467,104.622871 L110.209467,104.622871 L114.657717,98.2830794 L113.814341,112.127513 C112.833106,130.833939 113.620324,145.312329 116.164469,155.645745 C119.804184,170.428981 125.757148,185.253859 133.927582,199.960648 L133.927582,199.960648 L134.360003,200.606766 C135.209853,201.637197 136.743821,202.317339 138.448256,202.347842 C141.233695,202.39497 143.387531,200.752546 143.438311,198.90136 L143.438311,198.90136 L143.730406,192.424603 C144.549975,179.353925 146.766978,165.98361 150.39091,152.27606 L150.39091,152.27606 L151.625892,147.947712 C153.865722,140.623013 156.939057,133.012095 160.853646,125.097397 L160.853646,125.097397 L165.119515,116.699673 L166.44792,126.687314 C167.329073,132.411526 168.693959,137.849298 170.542797,143.002771 C175.131765,155.794111 181.255315,167.606629 188.795323,178.287721 L188.795323,178.287721 L189.359327,178.955129 C190.27129,179.834168 191.702602,180.37701 193.247739,180.382455 C196.028673,180.392255 198.136027,178.728738 198.146329,176.897625 L198.146329,176.897625 L198.21226,173.008054 C198.616837,158.914426 200.799863,147.763971 204.778617,139.643588 L204.778617,139.643588 L206.493224,136.366033 C208.338179,133.047431 210.509264,129.733329 213.021336,126.403481 L213.021336,126.403481 L216.245513,122.24006 L217.630934,126.989434 C217.877704,127.740822 218.1496,128.471284 218.44668,129.181069 C220.526307,134.149735 224.520908,139.729323 230.445557,145.938431 C231.035829,146.515161 231.637541,146.920816 232.25377,147.170397 C232.865999,147.418358 233.558401,147.540324 234.379912,147.5296 L234.379912,147.5296 L244.98635,147.574355 L246.100909,147.502367 C248.420494,147.167068 250,145.675361 250,144.11981 C250,142.308498 247.904773,140.634923 245.120331,140.628381 L245.120331,140.628381 L237.099453,140.609538 L234.402439,137.488227 C231.292413,133.741407 229.083853,130.327017 227.801237,127.262579 C226.015355,122.995732 225.297929,117.664152 225.643693,111.568088 L225.643693,111.568088 L225.607003,110.774411 C225.462159,109.982678 224.914356,109.212026 224.018626,108.632823 C221.844087,107.226706 218.548566,107.499116 216.858077,109.156874 L216.858077,109.156874 L213.363735,112.700801 C205.545127,120.910574 199.604553,129.167645 195.561125,137.419863 L195.561125,137.419863 L194.42198,139.917074 C192.635453,144.133126 191.24656,148.966746 190.25941,154.4025 L190.25941,154.4025 L188.992321,161.988362 L184.141656,151.659432 C182.641366,148.300062 181.260394,144.861983 179.998711,141.345155 C175.617758,129.133638 174.114418,115.132597 175.476228,99.5749733 L175.476228,99.5749733 L175.474123,98.8656746 C175.340259,97.7913207 174.462918,96.7503488 173.036926,96.1555954 C170.522607,95.1069218 167.405173,95.8829992 166.208809,97.7021415 L166.208809,97.7021415 L163.131219,102.484903 C152.21145,119.841515 144.769697,136.035306 140.800247,151.050498 L140.800247,151.050498 L139.062629,158.050594 C137.988883,162.680299 137.074043,167.27657 136.322708,171.810122 L136.322708,171.810122 L134.856017,181.556129 L130.693622,170.643702 C128.737343,165.254491 127.097274,159.871589 125.773519,154.494963 C122.261122,140.228847 122.286727,117.207251 125.816618,85.9832112 L125.816618,85.9832112 L125.823662,85.1650531 C125.716504,84.3520988 125.184805,83.5515032 124.279417,82.9456391 Z" id="shadow-with-outline" fill="#000000" fill-rule="nonzero"></path>
        <path d="M119.019443,87.0378521 C119.983197,86.498174 121.201969,86.8419551 121.741647,87.8057089 C122.281325,88.7694626 121.937544,89.988235 120.97379,90.5279131 C112.554266,95.2426375 106.769693,101.752051 103.553113,110.105805 C103.156209,111.136601 101.998829,111.650472 100.968033,111.253568 C99.9372366,110.856664 99.4233654,109.699284 99.8202695,108.668488 C103.37873,99.4268408 109.800774,92.2000781 119.019443,87.0378521 Z" id="Highlight" fill="#FFFFFF" fill-rule="nonzero"></path>
        <path d="M231.681241,220.367532 C233.243338,221.92963 233.243338,224.462289 231.681241,226.024387 L226.024387,231.681241 C224.462289,233.243338 221.92963,233.243338 220.367532,231.681241 L56.3187591,67.6324676 C54.756662,66.0703705 54.756662,63.5377105 56.3187591,61.9756134 L61.9756134,56.3187591 C63.5377105,54.756662 66.0703705,54.756662 67.6324676,56.3187591 L231.681241,220.367532 Z M228.852814,223.195959 L64.8040405,59.1471863 L59.1471863,64.8040405 L223.195959,228.852814 L228.852814,223.195959 Z" id="Shape" fill="#000000" fill-rule="nonzero"></path>
        <polygon id="White-Part-Mute" fill="#FFFFFF" fill-rule="nonzero" transform="translate(144.000000, 144.000000) rotate(45.000000) translate(-144.000000, -144.000000) " points="260 140 28 140 28 148 260 148"></polygon>
        <path d="M228,1.73194792e-13 C240.042438,1.73194792e-13 260.042438,1.73194792e-13 288,1.73194792e-13 C288,21.8047636 288,41.8047636 288,60 L288,228 C288,237.553655 288,257.553655 288,288 C260.537735,288 240.537735,288 228,288 L60,288 C46.7794484,288 26.7794484,288 -1.27897692e-13,288 C-1.27897692e-13,256.870838 -1.27897692e-13,236.870838 -1.27897692e-13,228 L-1.27897692e-13,60 C-1.27897692e-13,48.3560235 -1.27897692e-13,28.3560235 -1.27897692e-13,1.73194792e-13 C29.5525866,1.73194792e-13 49.5525866,1.73194792e-13 60,1.73194792e-13 L228,1.73194792e-13 Z M228,16 L56,16 C31.9424763,16 16.3944495,31.3074515 16.0058947,55.2723795 L16,60 L16,232 C16,256.057524 31.3074515,271.60555 55.2723795,271.994105 L60,272 L232,272 C256.057524,272 271.60555,256.692548 271.994105,232.72762 L272,228 L272,56 C272,31.9424763 256.692548,16.3944495 232.72762,16.0058947 L228,16 Z" id="Rectangle" fill="#FF6C3E" fill-rule="nonzero"></path>
    </g>
</svg>