<svg xmlns="http://www.w3.org/2000/svg" viewBox="0 0 144 144">
  <g fill="none" fill-rule="nonzero">
    <path id="background" opacity="0" fill="#FF6C3E" d="M0 0h144v144H0z"/>
    <path fill="#FFF" d="M62.1397 41.4728c.4527.303.7186.7032.7721 1.1097l-.0035.4091c-1.765 15.612-1.7777 27.1228-.0215 34.2559.6618 2.6883 1.4819 5.3797 2.46 8.0744l2.0812 5.4562.7334-4.873c.3756-2.2668.833-4.565 1.37-6.8798l.8687-3.5c1.9847-7.5076 5.7056-15.6045 11.1655-24.2828l1.5388-2.3914c.5982-.9096 2.1569-1.2976 3.414-.7733.713.2974 1.1517.8179 1.2187 1.355l.001.3547c-.6809 7.7788.0708 14.7793 2.2613 20.885a73.539 73.539 0 002.0714 5.1572l2.4254 5.1645.6335-3.793c.4936-2.7178 1.188-5.1346 2.0813-7.2427l.5696-1.2486c2.0217-4.126 4.992-8.2546 8.9013-12.3595l1.7471-1.772c.8453-.8288 2.493-.965 3.5803-.262.4479.2896.7218.675.7942 1.0708l.0183.3968c-.1728 3.048.1859 5.7139 1.0788 7.8473.6413 1.5322 1.7456 3.2394 3.3006 5.1128l1.3485 1.5607 4.0105.0094c1.3922.0033 2.4398.84 2.4398 1.7457 0 .7778-.7898 1.5236-1.9495 1.6913l-.5573.036-5.3032-.0224c-.4108.0054-.757-.0556-1.0631-.1796-.3081-.1248-.609-.3276-.9041-.616-2.9623-3.1045-4.9596-5.8943-5.9995-8.3787a14.7864 14.7864 0 01-.4078-1.0958l-.6927-2.3747-1.6121 2.0817c-1.256 1.665-2.3416 3.322-3.264 4.9813l-.8574 1.6388c-1.9894 4.0602-3.0809 9.6354-3.2832 16.6822l-.033 1.9448c-.005.9156-1.0588 1.7473-2.4492 1.7424-.7726-.0027-1.4883-.2741-1.9442-.7136l-.282-.3337c-3.77-5.3406-6.8318-11.2468-9.1263-17.6425-.9244-2.5768-1.6069-5.2956-2.0474-8.1577l-.6642-4.9939-2.133 4.1989c-1.9573 3.9573-3.494 7.7628-4.6139 11.4252l-.6174 2.1641c-1.812 6.8538-2.9205 13.539-3.3303 20.0743l-.146 3.2384c-.0254.9256-1.1024 1.7468-2.495 1.7237-.8523-.0157-1.6193-.3558-2.0442-.871l-.2162-.323c-4.0852-7.3535-7.0617-14.766-8.8816-22.1575-1.272-5.1667-1.6656-12.406-1.175-21.7591l.4217-6.9223-2.2242 3.17c-1.5996 2.379-2.89 4.8034-3.8823 7.2903l-.6793 1.8512c-1.8933 5.653-3.2692 11.8795-4.137 18.7024l-.3395 2.9478-.3418 3.3068c-.0327.3168-.525.6492-1.1646.6072-.377-.0247-.6976-.1804-.859-.3865l-2.1966-2.8057c-2.997-3.828-5.372-7.5676-7.1269-11.2198-1.045-2.1748-1.802-4.9893-2.2718-8.4695l-.4164-3.3114-1.6917 2.7216c-1.1936 2.034-2.0414 4.4466-2.5545 7.2464l-.225 1.4073-.1791.9717c-.0449.176-.1138.3089-.1713.3622-.0865.0804-.4699.232-.4523.2316l-6.9805.031c-1.2273.0011-2.2208-.6646-2.4044-1.4649l-.037-.3839c.0063-.7916 1.054-1.627 2.4447-1.6283l3.1739-.003.3261-1.5329c.4608-1.9469 1.0972-3.7351 1.905-5.3465l.6539-1.2034c1.2833-2.1864 3.0278-4.3487 5.218-6.4565l1.3865-1.2751c.9044-.796 2.5613-.8623 3.5938-.1186.3737.2692.6086.6075.6868.9563l.036.3504c.0907 7.0903.9559 12.4499 2.5776 15.8249.3325.6922.689 1.388 1.0693 2.0875l1.8327 3.1664.5408-2.7474c.6819-3.809 1.5313-7.4048 2.5516-10.8047l.802-2.5275c2.0478-6.1157 5.7472-11.911 11.092-17.3593l1.6692-1.6397c.8644-.8192 2.5158-.9333 3.5861-.217z" opacity=".5"/>
    <path fill="#000" d="M63.252 39.8106c.8742.585 1.4583 1.4329 1.6303 2.4868l.021.145-.0013.6516c-.0482.428-.095.8527-.1406 1.2742 1.2177-.5615 2.7955-.4886 3.9345.2735.688.4604 1.1153 1.1118 1.2074 1.8101l.005.5304c-1.2519 11.1201-1.616 20.0766-1.1105 26.83 2.0684-7.2324 5.6543-14.9361 10.7594-23.1306l.321-.5128 1.5497-2.4083c1.158-1.7609 3.754-2.4071 5.8604-1.5286 1.2986.5416 2.2102 1.59 2.4216 2.92l.0193.1387.005.5648c-.0389.4478-.073.8924-.1023 1.334.979-.4341 2.2048-.4794 3.2715-.0345 1.036.432 1.713 1.2475 1.826 2.1543l.0085.4597c-.4809 5.539-.2409 10.616.7121 15.2324l.5226-1.146c2.0639-4.2131 5.031-8.378 8.907-12.5094l.366-.3872 1.771-1.7962c1.5363-1.5069 4.2183-1.7286 6.0787-.5256.852.551 1.4415 1.3495 1.6599 2.3546l.03.1523.0332.6311a25.6079 25.6079 0 00-.039 1.4067c1.1812-.4973 2.6704-.4178 3.773.295.6755.437 1.1115 1.057 1.2348 1.7306l.0326.5134c-.166 3.05.181 5.5601 1.0033 7.5246.1437.3434.3139.6987.5104 1.0657l1.2314.0033c2.2525.0053 4.1718 1.4225 4.4102 3.3416l.0125.1181.0124.286c0 .4405-.0886.8608-.2523 1.2499l1.8148.0044c1.9001.0045 3.4375 1.2324 3.4375 2.7457 0 1.3377-1.2104 2.4503-2.8065 2.681l-.631.0439-5.3763-.02c-.5231.007-1.0014-.0772-1.4347-.2527s-.8425-.4514-1.2276-.8276c-.6206-.6503-1.2013-1.2882-1.7417-1.914l-1.5825-.0058c-.6528.0088-1.263-.0987-1.8236-.3258-.5585-.2262-1.076-.575-1.5756-1.064-1.048-1.098-1.9837-2.1612-2.808-3.1925-.306.4958-.5965.9913-.8719 1.4865l-.8451 1.6163c-1.8967 3.8718-2.9703 9.2982-3.1698 16.2475l-.0327 1.933c-.0084 1.512-1.5542 2.7322-3.4527 2.7255-1.0299-.0036-1.9917-.374-2.6346-.9937l-.3455-.4008a73.4364 73.4364 0 01-1.2939-1.892c-.5345.1871-1.1202.2887-1.7295.2865-1.2172-.0043-2.3802-.4255-3.269-1.2289l-.1196-.1119-.4045-.4764c-3.522-4.9818-6.412-10.3666-8.6686-16.1504-.518 1.3676-.98 2.7152-1.3859 4.0427l-.6121 2.146c-1.7909 6.7748-2.8883 13.3954-3.2939 19.8626l-.145 3.2208c-.0413 1.5116-1.6133 2.7104-3.5114 2.6782-1.1422-.0204-2.184-.4894-2.7983-1.2342l-.27-.3946c-.3215-.578-.636-1.156-.9437-1.7338-.6094.2442-1.2926.3741-2.0052.3618-1.3612-.0235-2.6376-.5672-3.5043-1.5488l-.102-.12-.3187-.4732c-4.218-7.5833-7.2608-15.1609-9.1244-22.73-.3493-1.4189-.6346-2.9784-.8563-4.6804-.7816 3.3687-1.4104 6.9227-1.8858 10.6608l-.338 2.936-.3406 3.2953c-.0934.904-1.0895 1.5767-2.2247 1.5023-.6498-.0426-1.236-.3274-1.581-.768l-2.1966-2.8056-.0467-.0605c-.6036.4473-1.4051.6867-2.2411.632-.874-.0573-1.6846-.4318-2.2169-1.045l-.086-.1044-2.1967-2.8057c-2.2568-2.8825-4.1757-5.7242-5.7561-8.5266l-.151.821c-.1001.4087-.2582.7133-.4743.914-.3242.301-.9661.4951-1.109.4985l-6.9998.0313c-1.6866.0015-3.0908-.9651-3.3835-2.2413L22 76.06c0-.093.0058-.1849.0172-.2755l-2.5768.0117c-2.0571.0018-3.868-1.1808-4.3474-3.0035l-.0306-.1252L15 72.0599c0-2.0815 1.9546-3.6785 4.3032-3.739l.1334-.0019 1.5554-.003.2212-.867c.3565-1.3272.7918-2.5813 1.3106-3.7702l.176-.394.3709-.7735.6852-1.2611c1.333-2.272 3.0875-4.475 5.2737-6.6234l.3152-.3066 1.4192-1.3051c1.6264-1.432 4.317-1.5396 6.1005-.2549.7136.514 1.218 1.2103 1.447 2.0781l.0398.1648.0602.5558c.0073.5414.019 1.0717.0353 1.5907 1.228-.4856 2.7551-.3546 3.8333.422.5688.4097.945.9558 1.078 1.5488l.0534.452c.0087.638.0234 1.2605.0442 1.8675l.4352-1.3709c2.1103-6.3027 5.863-12.2415 11.2471-17.8124l.3317-.3406 1.695-1.6652c1.5653-1.4835 4.2507-1.6692 6.0873-.4402zm-1.1123 1.6622c-1.0703-.7162-2.7217-.602-3.5861.217l-1.6692 1.6398c-5.3448 5.4482-9.0442 11.2436-11.092 17.3593l-.802 2.5275c-1.0203 3.4-1.8697 6.9956-2.5516 10.8047l-.5408 2.7474-1.8327-3.1664a46.8807 46.8807 0 01-1.0693-2.0875c-1.6217-3.375-2.4869-8.7346-2.5776-15.8249l-.036-.3504c-.0782-.3488-.3131-.6871-.6868-.9563-1.0325-.7437-2.6894-.6775-3.5938.1186l-1.3865 1.2751c-2.1902 2.1078-3.9347 4.2701-5.218 6.4565l-.6539 1.2034c-.8078 1.6114-1.4442 3.3996-1.905 5.3465l-.3261 1.533-3.1739.003c-1.3907.0012-2.4384.8366-2.4448 1.6282l.0371.384c.1836.8002 1.1771 1.4659 2.4044 1.4648l6.9805-.031c-.0176.0004.3658-.1512.4523-.2316.0575-.0533.1264-.1863.1713-.3622l.1791-.9717.225-1.4073c.513-2.7998 1.3609-5.2123 2.5545-7.2464l1.6917-2.7216.4164 3.3114c.4698 3.4802 1.2268 6.2947 2.2718 8.4695 1.7549 3.6522 4.1299 7.3918 7.1269 11.2198l2.1966 2.8057c.1614.2061.482.3618.859.3865.6397.042 1.1319-.2904 1.1646-.6072l.3418-3.3068.3394-2.9478c.8679-6.823 2.2438-13.0493 4.1371-18.7024l.6793-1.8512c.9924-2.487 2.2827-4.9114 3.8823-7.2904l2.2242-3.1699-.4217 6.9223c-.4906 9.3532-.097 16.5924 1.175 21.759 1.8199 7.3917 4.7964 14.8041 8.8816 22.1575l.2162.323c.425.5153 1.192.8554 2.0441.8711 1.3927.023 2.4697-.7981 2.495-1.7237l.1461-3.2384c.4098-6.5353 1.5183-13.2205 3.3303-20.0743l.6174-2.1641c1.12-3.6624 2.6566-7.4679 4.614-11.4252l2.1329-4.1989.6642 4.9939c.4405 2.862 1.123 5.581 2.0474 8.1577 2.2945 6.3957 5.3563 12.302 9.1263 17.6425l.282.3337c.456.4395 1.1716.711 1.9442.7136 1.3904.005 2.4441-.8268 2.4493-1.7424l.033-1.9448c.2022-7.0468 1.2937-12.622 3.2831-16.6822l.8573-1.6388c.9225-1.6593 2.008-3.3163 3.264-4.9813l1.6122-2.0817.6927 2.3747c.1234.3757.2593.741.4078 1.0958 1.0399 2.4844 3.0372 5.2742 5.9995 8.3787.2951.2884.596.4912.904.616.3062.124.6524.185 1.0632.1796l5.3032.0224.5573-.036c1.1597-.1677 1.9495-.9135 1.9495-1.6913 0-.9057-1.0476-1.7424-2.4398-1.7457l-4.0105-.0094-1.3485-1.5607c-1.555-1.8734-2.6593-3.5806-3.3006-5.1128-.893-2.1334-1.2516-4.7992-1.0788-7.8473l-.0183-.3968c-.0724-.3959-.3463-.7812-.7942-1.0708-1.0873-.703-2.735-.5668-3.5803.262l-1.7471 1.772c-3.9093 4.1049-6.8796 8.2334-8.9013 12.3595l-.5696 1.2486c-.8933 2.108-1.5877 4.5249-2.0813 7.2428l-.6335 3.7929-2.4254-5.1645a73.539 73.539 0 01-2.0714-5.1571c-2.1905-6.1058-2.9422-13.1063-2.2613-20.8851l-.001-.3547c-.067-.5371-.5056-1.0576-1.2186-1.355-1.2572-.5243-2.816-.1363-3.4141.7733l-1.5388 2.3914c-5.4599 8.6783-9.1808 16.7752-11.1655 24.2827l-.8688 3.5001c-.5369 2.3148-.9943 4.613-1.37 6.8798l-.7333 4.873-2.0812-5.4562c-.9781-2.6947-1.7982-5.3861-2.46-8.0744-1.7562-7.133-1.7434-18.6439.0215-34.2559l.0035-.409c-.0535-.4066-.3194-.8068-.772-1.1098z"/>
    <path fill="#FFF" d="M59.5097 43.519c.4819-.27 1.0913-.098 1.3611.3839.2699.4818.098 1.0912-.384 1.361-4.2097 2.3574-7.102 5.6121-8.7102 9.789-.1985.5154-.7772.7723-1.2926.5739-.5154-.1985-.7723-.7772-.5739-1.2926 1.7793-4.6208 4.9903-8.2342 9.5996-10.8153z"/>
  </g>
</svg>