<?xml version="1.0" encoding="UTF-8"?>
<svg width="288px" height="288px" viewBox="0 0 288 288" version="1.1" xmlns="http://www.w3.org/2000/svg" xmlns:xlink="http://www.w3.org/1999/xlink">
    <title>Input/ System Stream Mute@2x</title>
    <g id="Input/-System-Stream-Mute" stroke="none" stroke-width="1" fill="none" fill-rule="evenodd">
        <rect id="Background" fill="#1B0371" fill-rule="nonzero" x="0" y="0" width="288" height="288"></rect>
        <rect id="Black-Overlay" fill="#000000" opacity="0.5" x="0" y="0" width="288" height="288"></rect>
        <path d="M264.752309,-10.1310623 C317.082564,42.1991928 317.082564,127.0433 264.752309,179.373555 C262.260392,181.865472 258.220196,181.865472 255.728279,179.373555 C253.236362,176.881638 253.236362,172.841443 255.728279,170.349526 C303.074701,123.003104 303.074701,46.2393884 255.728279,-1.10703292 C253.236362,-3.59894983 253.236362,-7.63914541 255.728279,-10.1310623 C258.220196,-12.6229792 262.260392,-12.6229792 264.752309,-10.1310623 Z M84.2717207,-10.1310623 C86.7636376,-7.63914541 86.7636376,-3.59894983 84.2717207,-1.10703292 C36.9252994,46.2393884 36.9252994,123.003104 84.2717207,170.349526 C86.7636376,172.841443 86.7636376,176.881638 84.2717207,179.373555 C81.7798038,181.865472 77.7396082,181.865472 75.2476913,179.373555 C22.9174362,127.0433 22.9174362,42.1991928 75.2476913,-10.1310623 C77.7396082,-12.6229792 81.7798038,-12.6229792 84.2717207,-10.1310623 Z M231.39697,27.2242767 C264.20101,60.0283172 264.20101,113.214175 231.39697,146.018216 C228.873582,148.541604 224.782362,148.541604 222.258974,146.018216 C219.735587,143.494828 219.735587,139.403608 222.258974,136.880221 C250.016239,109.122956 250.016239,64.1195371 222.258974,36.3622721 C219.735587,33.8388843 219.735587,29.7476645 222.258974,27.2242767 C224.782362,24.700889 228.873582,24.700889 231.39697,27.2242767 Z M121.741026,27.2242767 C124.264413,29.7476645 124.264413,33.8388843 121.741026,36.3622721 C93.9837607,64.1195371 93.9837607,109.122956 121.741026,136.880221 C124.264413,139.403608 124.264413,143.494828 121.741026,146.018216 C119.217638,148.541604 115.126418,148.541604 112.60303,146.018216 C79.7989899,113.214175 79.7989899,60.0283172 112.60303,27.2242767 C115.126418,24.700889 119.217638,24.700889 121.741026,27.2242767 Z M174,62.6212464 C188.359403,62.6212464 200,74.2618429 200,88.6212464 C200,102.98065 188.359403,114.621246 174,114.621246 C159.640597,114.621246 148,102.98065 148,88.6212464 C148,74.2618429 159.640597,62.6212464 174,62.6212464 Z" id="Stream_bg" fill="#000000" fill-rule="nonzero" opacity="0.3"></path>
        <path d="M228,66 C233.522847,66 238,70.4771525 238,76 L238,172 C238,177.522847 233.522847,182 228,182 L148,182 C146.895431,182 146,182.895431 146,184 L146,212 C146,213.104569 146.895431,214 148,214 L188,214 C189.104569,214 190,214.895431 190,216 L190,220 C190,221.104569 189.104569,222 188,222 L100,222 C98.8954305,222 98,221.104569 98,220 L98,216 C98,214.895431 98.8954305,214 100,214 L136,214 C137.104569,214 138,213.104569 138,212 L138,184 C138,182.895431 137.104569,182 136,182 L60,182 C54.4771525,182 50,177.522847 50,172 L50,76 C50,70.4771525 54.4771525,66 60,66 L228,66 Z M142,156 C136.477153,156 132,160.477153 132,166 C132,171.522847 136.477153,176 142,176 C147.522847,176 152,171.522847 152,166 C152,160.477153 147.522847,156 142,156 Z" id="icon_fill-" fill="#FFFFFF" fill-rule="nonzero" opacity="0.3"></path>
        <path d="M228,62 C235.097354,62 240.961195,67.281298 241.875975,74.1283468 C248.470059,75.0055861 253.614366,80.4832941 253.979285,87.2318592 L254,88 L254,184 C254,191.474254 248.14289,197.580506 240.768141,197.979285 L240,198 L162,198 L162,210 L188,210 C190.92386,210 193.359247,212.091403 193.891811,214.85986 L193.972534,215.42216 L194,216 L194,220 C194,220.702322 193.879331,221.37646 193.657594,222.002812 L200,222 C202.92386,222 205.359247,224.091403 205.891811,226.85986 L205.972534,227.42216 L206,228 L206,232 C206,235.118784 203.620448,237.681795 200.57784,237.972534 L200,238 L112,238 C108.881216,238 106.318205,235.620448 106.027466,232.57784 L106,232 L106,228 C106,227.299166 106.120159,226.626397 106.340998,226.00117 L100,226 C96.8812155,226 94.3182053,223.620448 94.0274663,220.57784 L94,220 L94,216 C94,212.881216 96.3795523,210.318205 99.42216,210.027466 L100,210 L134,210 L134,198 L72,198 C64.9026461,198 59.0388054,192.718702 58.1240252,185.871653 C51.7835599,185.028154 46.7834948,179.931263 46.0838423,173.540992 L46.0207155,172.768141 L46,172 L46,76 C46,68.5257464 51.8571104,62.4194942 59.2318592,62.0207155 L60,62 L228,62 Z M228,66 L60,66 C54.6980664,66 50.3598453,70.1261437 50.0212707,75.3424972 L50,76 L50,172 C50,177.301934 54.1261437,181.640155 59.3424972,181.978729 L60,182 L136,182 C136.98184,182 137.798433,182.707501 137.967777,183.640497 L138,184 L138,212 C138,212.98184 137.292499,213.798433 136.359503,213.967777 L136,214 L100,214 C99.0181604,214 98.2015665,214.707501 98.0322227,215.640497 L98,216 L98,220 C98,220.98184 98.7075006,221.798433 99.6404975,221.967777 L100,222 L188,222 C188.98184,222 189.798433,221.292499 189.967777,220.359503 L190,220 L190,216 C190,215.01816 189.292499,214.201567 188.359503,214.032223 L188,214 L148,214 C147.01816,214 146.201567,213.292499 146.032223,212.359503 L146,212 L146,184 C146,183.01816 146.707501,182.201567 147.640497,182.032223 L148,182 L228,182 C233.301934,182 237.640155,177.873856 237.978729,172.657503 L238,172 L238,76 C238,75.7405005 237.990116,75.4833096 237.970703,75.2287832 L237.924307,74.7634775 L237.80035,74.0019032 L237.67021,73.4433978 C236.599998,69.3845693 233.042182,66.3356516 228.726076,66.0259562 L228,66 Z M142,156 C147.522847,156 152,160.477153 152,166 C152,171.522847 147.522847,176 142,176 C136.477153,176 132,171.522847 132,166 C132,160.477153 136.477153,156 142,156 Z" id="shadow-with-outline" fill="#000000" fill-rule="nonzero"></path>
        <path d="M87.6507826,94.5857864 C88.345048,95.2800518 88.4221886,96.3577494 87.8822044,97.137222 L87.6507826,97.4142136 L69.4142136,115.650783 C68.633165,116.431831 67.366835,116.431831 66.5857864,115.650783 C65.891521,114.956517 65.8143804,113.87882 66.3543646,113.099347 L66.5857864,112.822355 L84.8223554,94.5857864 C85.603404,93.8047379 86.869734,93.8047379 87.6507826,94.5857864 Z M85.7905727,82.0840137 C86.4848381,82.7782791 86.5619787,83.8559767 86.0219945,84.6354493 L85.7905727,84.9124408 L67.5540037,103.14901 C66.7729551,103.930058 65.5066252,103.930058 64.7255766,103.14901 C64.0313112,102.454744 63.9541706,101.377047 64.4941548,100.597574 L64.7255766,100.320583 L82.9621456,82.0840137 C83.7431942,81.3029651 85.0095241,81.3029651 85.7905727,82.0840137 Z M103.165502,79.0710673 C103.859767,79.7653327 103.936908,80.8430303 103.396924,81.6225028 L103.165502,81.8994944 L93.4142136,91.6507826 C92.633165,92.4318312 91.366835,92.4318312 90.5857864,91.6507826 C89.891521,90.9565172 89.8143804,89.8788196 90.3543646,89.099347 L90.5857864,88.8223554 L100.337075,79.0710673 C101.118123,78.2900187 102.384453,78.2900187 103.165502,79.0710673 Z" id="Highlight" fill="#FCFBFF" fill-rule="nonzero"></path>
        <path d="M231.681241,220.367532 C233.243338,221.92963 233.243338,224.462289 231.681241,226.024387 L226.024387,231.681241 C224.462289,233.243338 221.92963,233.243338 220.367532,231.681241 L56.3187591,67.6324676 C54.756662,66.0703705 54.756662,63.5377105 56.3187591,61.9756134 L61.9756134,56.3187591 C63.5377105,54.756662 66.0703705,54.756662 67.6324676,56.3187591 L231.681241,220.367532 Z M228.852814,223.195959 L64.8040405,59.1471863 L59.1471863,64.8040405 L223.195959,228.852814 L228.852814,223.195959 Z" id="Shape" fill="#000000" fill-rule="nonzero"></path>
        <polygon id="White-Part-Mute" fill="#FFFFFF" fill-rule="nonzero" transform="translate(144.000000, 144.000000) rotate(45.000000) translate(-144.000000, -144.000000) " points="260 140 28 140 28 148 260 148"></polygon>
        <path d="M228,1.73194792e-13 C240.042438,1.73194792e-13 260.042438,1.73194792e-13 288,1.73194792e-13 C288,21.8047636 288,41.8047636 288,60 L288,228 C288,237.553655 288,257.553655 288,288 C260.537735,288 240.537735,288 228,288 L60,288 C46.7794484,288 26.7794484,288 -1.27897692e-13,288 C-1.27897692e-13,256.870838 -1.27897692e-13,236.870838 -1.27897692e-13,228 L-1.27897692e-13,60 C-1.27897692e-13,48.3560235 -1.27897692e-13,28.3560235 -1.27897692e-13,1.73194792e-13 C29.5525866,1.73194792e-13 49.5525866,1.73194792e-13 60,1.73194792e-13 L228,1.73194792e-13 Z M228,16 L56,16 C31.9424763,16 16.3944495,31.3074515 16.0058947,55.2723795 L16,60 L16,232 C16,256.057524 31.3074515,271.60555 55.2723795,271.994105 L60,272 L232,272 C256.057524,272 271.60555,256.692548 271.994105,232.72762 L272,228 L272,56 C272,31.9424763 256.692548,16.3944495 232.72762,16.0058947 L228,16 Z" id="Rectangle" fill="#1B0371" fill-rule="nonzero"></path>
    </g>
</svg>