<?xml version="1.0" encoding="UTF-8"?>
<svg width="288px" height="288px" viewBox="0 0 288 288" version="1.1" xmlns="http://www.w3.org/2000/svg" xmlns:xlink="http://www.w3.org/1999/xlink">
    <!-- Generator: Sketch 64 (93537) - https://sketch.com -->
    <title>Input/ System Local@2x</title>
    <desc>Created with Sketch.</desc>
    <g id="Input/-System-Local" stroke="none" stroke-width="1" fill="none" fill-rule="evenodd">
        <rect id="Background" fill="#1B0371" fill-rule="nonzero" x="0" y="0" width="288" height="288"></rect>
        <path d="M41,219.2 C46.8542183,219.2 51.6,223.945782 51.6,229.8 L51.6,293.4 C51.6,299.254218 46.8542183,304 41,304 L19.8,304 C13.9457817,304 9.2,299.254218 9.2,293.4 L9.2,229.8 C9.2,223.945782 13.9457817,219.2 19.8,219.2 L41,219.2 Z M168.2,219.2 C174.054218,219.2 178.8,223.945782 178.8,229.8 L178.8,293.4 C178.8,299.254218 174.054218,304 168.2,304 L147,304 C141.145782,304 136.4,299.254218 136.4,293.4 L136.4,229.8 C136.4,223.945782 141.145782,219.2 147,219.2 L168.2,219.2 Z M94,92 C151.549943,92 198.388076,137.86271 199.959277,195.033009 L200,198 L200,256.3 C200,259.227109 197.627109,261.6 194.7,261.6 C192.098125,261.6 189.934151,259.725123 189.48539,257.252682 L189.4,256.3 L189.4,198 C189.4,145.312035 146.687965,102.6 94,102.6 C42.2528914,102.6 0.128610917,143.800225 -1.35932668,195.18716 L-1.4,198 L-1.4,256.3 C-1.4,259.227109 -3.77289083,261.6 -6.7,261.6 C-9.30187482,261.6 -11.4658487,259.725123 -11.9146099,257.252682 L-12,256.3 L-12,198 C-12,139.457817 35.4578165,92 94,92 Z" id="Local_bg" fill="#000000" fill-rule="nonzero" opacity="0.3"></path>
        <path d="M228,66 C233.522847,66 238,70.4771525 238,76 L238,172 C238,177.522847 233.522847,182 228,182 L148,182 C146.895431,182 146,182.895431 146,184 L146,212 C146,213.104569 146.895431,214 148,214 L188,214 C189.104569,214 190,214.895431 190,216 L190,220 C190,221.104569 189.104569,222 188,222 L100,222 C98.8954305,222 98,221.104569 98,220 L98,216 C98,214.895431 98.8954305,214 100,214 L136,214 C137.104569,214 138,213.104569 138,212 L138,184 C138,182.895431 137.104569,182 136,182 L60,182 C54.4771525,182 50,177.522847 50,172 L50,76 C50,70.4771525 54.4771525,66 60,66 L228,66 Z M142,156 C136.477153,156 132,160.477153 132,166 C132,171.522847 136.477153,176 142,176 C147.522847,176 152,171.522847 152,166 C152,160.477153 147.522847,156 142,156 Z" id="icon_fill-" fill="#FFFFFF" fill-rule="nonzero" opacity="0.5"></path>
        <path d="M228,62 C235.097354,62 240.961195,67.281298 241.875975,74.1283468 C248.470059,75.0055861 253.614366,80.4832941 253.979285,87.2318592 L254,88 L254,184 C254,191.474254 248.14289,197.580506 240.768141,197.979285 L240,198 L162,198 L162,210 L188,210 C190.92386,210 193.359247,212.091403 193.891811,214.85986 L193.972534,215.42216 L194,216 L194,220 C194,220.702322 193.879331,221.37646 193.657594,222.002812 L200,222 C202.92386,222 205.359247,224.091403 205.891811,226.85986 L205.972534,227.42216 L206,228 L206,232 C206,235.118784 203.620448,237.681795 200.57784,237.972534 L200,238 L112,238 C108.881216,238 106.318205,235.620448 106.027466,232.57784 L106,232 L106,228 C106,227.299166 106.120159,226.626397 106.340998,226.00117 L100,226 C96.8812155,226 94.3182053,223.620448 94.0274663,220.57784 L94,220 L94,216 C94,212.881216 96.3795523,210.318205 99.42216,210.027466 L100,210 L134,210 L134,198 L72,198 C64.9026461,198 59.0388054,192.718702 58.1240252,185.871653 C51.7835599,185.028154 46.7834948,179.931263 46.0838423,173.540992 L46.0207155,172.768141 L46,172 L46,76 C46,68.5257464 51.8571104,62.4194942 59.2318592,62.0207155 L60,62 L228,62 Z M228,66 L60,66 C54.6980664,66 50.3598453,70.1261437 50.0212707,75.3424972 L50,76 L50,172 C50,177.301934 54.1261437,181.640155 59.3424972,181.978729 L60,182 L136,182 C136.98184,182 137.798433,182.707501 137.967777,183.640497 L138,184 L138,212 C138,212.98184 137.292499,213.798433 136.359503,213.967777 L136,214 L100,214 C99.0181604,214 98.2015665,214.707501 98.0322227,215.640497 L98,216 L98,220 C98,220.98184 98.7075006,221.798433 99.6404975,221.967777 L100,222 L188,222 C188.98184,222 189.798433,221.292499 189.967777,220.359503 L190,220 L190,216 C190,215.01816 189.292499,214.201567 188.359503,214.032223 L188,214 L148,214 C147.01816,214 146.201567,213.292499 146.032223,212.359503 L146,212 L146,184 C146,183.01816 146.707501,182.201567 147.640497,182.032223 L148,182 L228,182 C233.301934,182 237.640155,177.873856 237.978729,172.657503 L238,172 L238,76 C238,75.7405005 237.990116,75.4833096 237.970703,75.2287832 L237.924307,74.7634775 L237.80035,74.0019032 L237.67021,73.4433978 C236.599998,69.3845693 233.042182,66.3356516 228.726076,66.0259562 L228,66 Z M142,156 C147.522847,156 152,160.477153 152,166 C152,171.522847 147.522847,176 142,176 C136.477153,176 132,171.522847 132,166 C132,160.477153 136.477153,156 142,156 Z" id="shadow-with-outline" fill="#000000" fill-rule="nonzero"></path>
        <path d="M87.6507826,94.5857864 C88.345048,95.2800518 88.4221886,96.3577494 87.8822044,97.137222 L87.6507826,97.4142136 L69.4142136,115.650783 C68.633165,116.431831 67.366835,116.431831 66.5857864,115.650783 C65.891521,114.956517 65.8143804,113.87882 66.3543646,113.099347 L66.5857864,112.822355 L84.8223554,94.5857864 C85.603404,93.8047379 86.869734,93.8047379 87.6507826,94.5857864 Z M85.7905727,82.0840137 C86.4848381,82.7782791 86.5619787,83.8559767 86.0219945,84.6354493 L85.7905727,84.9124408 L67.5540037,103.14901 C66.7729551,103.930058 65.5066252,103.930058 64.7255766,103.14901 C64.0313112,102.454744 63.9541706,101.377047 64.4941548,100.597574 L64.7255766,100.320583 L82.9621456,82.0840137 C83.7431942,81.3029651 85.0095241,81.3029651 85.7905727,82.0840137 Z M103.165502,79.0710673 C103.859767,79.7653327 103.936908,80.8430303 103.396924,81.6225028 L103.165502,81.8994944 L93.4142136,91.6507826 C92.633165,92.4318312 91.366835,92.4318312 90.5857864,91.6507826 C89.891521,90.9565172 89.8143804,89.8788196 90.3543646,89.099347 L90.5857864,88.8223554 L100.337075,79.0710673 C101.118123,78.2900187 102.384453,78.2900187 103.165502,79.0710673 Z" id="Highlight" fill="#FCFBFF" fill-rule="nonzero"></path>
    </g>
</svg>