<?xml version="1.0" encoding="UTF-8"?>
<svg width="288px" height="288px" viewBox="0 0 288 288" version="1.1" xmlns="http://www.w3.org/2000/svg" xmlns:xlink="http://www.w3.org/1999/xlink">
    <!-- Generator: Sketch 64 (93537) - https://sketch.com -->
    <title>System / Unlink</title>
    <desc>Created with Sketch.</desc>
    <g id="System-/-Unlink" stroke="none" stroke-width="1" fill="none" fill-rule="evenodd">
        <rect id="Background" fill="#1E183C" fill-rule="nonzero" x="0" y="0" width="288" height="288"></rect>
        <path d="M175,86 C194.824654,86 211.709264,94.3877431 221.954197,108.67418 C235.828852,118.634763 244.500223,135.020902 244.500223,155.5 C244.500223,189.528374 220.486094,213.435994 188.259695,213.028222 L187,213 L172,213 C168.881216,213 166.318205,210.620448 166.027466,207.57784 L166,207 L165.999,200.999 L160,201 C156.881216,201 154.318205,198.620448 154.027466,195.57784 L154,195 L154,185.5 C154,182.381216 156.379552,179.818205 159.42216,179.527466 L160,179.5 L175,179.5 C194.882251,179.5 211,163.382251 211,143.5 C211,136.6372 209.074746,130.209378 205.730823,124.738687 C201.048307,121.879793 195.660623,120.062053 189.883359,119.611721 L188.847557,119.545904 L187,119.5 L172,119.5 C168.881216,119.5 166.318205,117.120448 166.027466,114.07784 L166,113.5 L165.999,107.499 L160,107.5 C156.881216,107.5 154.318205,105.120448 154.027466,102.07784 L154,101.5 L154,92 C154,88.8812155 156.379552,86.3182053 159.42216,86.0274663 L160,86 L175,86 Z M126.500223,86 C129.363012,86 131.788752,88.0143113 132.377212,90.8422492 L132.469992,91.4183294 L132.500223,92 L132.5,97.999 L138.500223,98 C141.363012,98 143.788752,100.014311 144.377212,102.842249 L144.469992,103.418329 L144.500223,104 L144.500223,113.5 C144.500223,116.362789 142.485912,118.788529 139.657974,119.376989 L139.081894,119.469769 L138.500223,119.5 L123.54925,119.499399 L121.701826,119.544094 C102.589474,120.483513 87.500223,136.287177 87.500223,155.5 C87.500223,162.364488 89.4244157,168.788025 92.7651504,174.254108 C97.6576394,177.241756 103.320859,179.094096 109.390983,179.440267 L110.446229,179.485089 L111.500223,179.5 L126.500223,179.5 C129.363012,179.5 131.788752,181.514311 132.377212,184.342249 L132.469992,184.918329 L132.500223,185.5 L132.5,191.499 L138.500223,191.5 C141.363012,191.5 143.788752,193.514311 144.377212,196.342249 L144.469992,196.918329 L144.500223,197.5 L144.500223,207 C144.500223,209.862789 142.485912,212.288529 139.657974,212.876989 L139.081894,212.969769 L138.500223,213 L123.564359,212.998971 C103.804487,213.632953 87.0275347,205.210206 76.7710085,190.921115 C62.742142,180.878248 54,164.031312 54,143.5 C54,109.851283 77.3905423,87.229343 108.969489,86.0477988 L110.271824,86.011339 L111.500223,86 L126.500223,86 Z M175,90 L160,90 C159.01816,90 158.201567,90.7075006 158.032223,91.6404975 L158,92 L158,101.5 C158,102.48184 158.707501,103.298433 159.640497,103.467777 L160,103.5 L175.049027,103.500601 L176.99477,103.548917 C198.234836,104.592918 215,122.151843 215,143.5 C215,165.21696 197.693317,182.891727 176.119619,183.484633 L175,183.5 L160,183.5 C159.01816,183.5 158.201567,184.207501 158.032223,185.140497 L158,185.5 L158,195 C158,195.98184 158.707501,196.798433 159.640497,196.967777 L160,197 L175.064136,197.001029 C205.71994,197.984598 228.500223,175.719198 228.500223,143.5 C228.500223,111.64799 206.261976,90.5991896 176.289239,90.0125842 L175,90 Z M126.500223,89.9999135 L111.518824,89.9999135 L110.327668,90.0109057 C80.2283512,90.5714909 58,111.637309 58,143.5 C58,175.277839 80.1604406,197.372719 110.242268,197.027408 L111.500223,197 L126.385037,197.00332 L126.735962,196.986445 C127.624418,196.883252 128.327381,196.197795 128.472626,195.33224 L128.500223,195 L128.503543,185.615186 L128.486668,185.264261 C128.383475,184.375805 127.698018,183.672842 126.832463,183.527597 L126.500223,183.5 L111.472302,183.499805 L110.362417,183.484113 C88.7529515,182.879982 71.500223,165.16726 71.500223,143.5 C71.500223,122.526372 87.6822955,105.210187 108.438371,103.617328 L109.554613,103.547106 L111.500223,103.5 L126.385037,103.50332 L126.735962,103.486445 C127.624418,103.383252 128.327381,102.697795 128.472626,101.83224 L128.500223,101.5 L128.503543,92.1151861 L128.486668,91.7642611 C128.383475,90.8758046 127.698018,90.1728422 126.832463,90.027597 L126.500223,89.9999135 Z M172,134 C175.118784,134 177.681795,136.379552 177.972534,139.42216 L178,140 L177.999,146 L184,146 C187.118784,146 189.681795,148.379552 189.972534,151.42216 L190,152 L190,160 C190,163.118784 187.620448,165.681795 184.57784,165.972534 L184,166 L128,166 C124.881216,166 122.318205,163.620448 122.027466,160.57784 L122,160 L121.999,154 L116,154 C112.881216,154 110.318205,151.620448 110.027466,148.57784 L110,148 L110,140 C110,136.881216 112.379552,134.318205 115.42216,134.027466 L116,134 L172,134 Z M172,138 L116,138 C115.01816,138 114.201567,138.707501 114.032223,139.640497 L114,140 L114,148 C114,148.98184 114.707501,149.798433 115.640497,149.967777 L116,150 L172,150 C172.98184,150 173.798433,149.292499 173.967777,148.359503 L174,148 L174,140 C174,139.01816 173.292499,138.201567 172.359503,138.032223 L172,138 Z" id="shadow-with-outline" fill="#000000" fill-rule="nonzero"></path>
        <path d="M175,90 L160,90 C159.01816,90 158.201567,90.7075006 158.032223,91.6404975 L158,92 L158,101.5 C158,102.48184 158.707501,103.298433 159.640497,103.467777 L160,103.5 L175.049027,103.500601 L176.99477,103.548917 C198.234836,104.592918 215,122.151843 215,143.5 C215,165.21696 197.693317,182.891727 176.119619,183.484633 L175,183.5 L160,183.5 C159.01816,183.5 158.201567,184.207501 158.032223,185.140497 L158,185.5 L158,195 C158,195.98184 158.707501,196.798433 159.640497,196.967777 L160,197 L175.064136,197.001029 C205.71994,197.984598 228.500223,175.719198 228.500223,143.5 C228.500223,111.64799 206.261976,90.5991896 176.289239,90.0125842 L175,90 Z M126.500223,89.9999135 L111.518824,89.9999135 L110.327668,90.0109057 C80.2283512,90.5714909 58,111.637309 58,143.5 C58,175.277839 80.1604406,197.372719 110.242268,197.027408 L111.500223,197 L126.385037,197.00332 L126.735962,196.986445 C127.624418,196.883252 128.327381,196.197795 128.472626,195.33224 L128.500223,195 L128.503543,185.615186 L128.486668,185.264261 C128.383475,184.375805 127.698018,183.672842 126.832463,183.527597 L126.500223,183.5 L111.472302,183.499805 L110.362417,183.484113 C88.7529515,182.879982 71.500223,165.16726 71.500223,143.5 C71.500223,122.526372 87.6822955,105.210187 108.438371,103.617328 L109.554613,103.547106 L111.500223,103.5 L126.385037,103.50332 L126.735962,103.486445 C127.624418,103.383252 128.327381,102.697795 128.472626,101.83224 L128.500223,101.5 L128.503543,92.1151861 L128.486668,91.7642611 C128.383475,90.8758046 127.698018,90.1728422 126.832463,90.027597 L126.500223,89.9999135 Z M172,138 L116,138 C115.01816,138 114.201567,138.707501 114.032223,139.640497 L114,140 L114,148 C114,148.98184 114.707501,149.798433 115.640497,149.967777 L116,150 L172,150 C172.98184,150 173.798433,149.292499 173.967777,148.359503 L174,148 L174,140 C174,139.01816 173.292499,138.201567 172.359503,138.032223 L172,138 Z" id="Icon-Fill" fill="#FFFFFF" fill-rule="nonzero" opacity="0.9"></path>
    </g>
</svg>