<?xml version="1.0" encoding="UTF-8"?>
<svg width="288px" height="288px" viewBox="0 0 288 288" version="1.1" xmlns="http://www.w3.org/2000/svg" xmlns:xlink="http://www.w3.org/1999/xlink">
    <!-- Generator: Sketch 64 (93537) - https://sketch.com -->
    <title>Input / Voice Chat Stream</title>
    <desc>Created with Sketch.</desc>
    <g id="Input-/-Voice-Chat-Stream" stroke="none" stroke-width="1" fill="none" fill-rule="evenodd">
        <rect fill="#FFFFFF" x="0" y="0" width="288" height="288"></rect>
        <rect id="Background" fill="#CFD924" fill-rule="nonzero" x="0" y="0" width="288" height="288"></rect>
        <path d="M264.752309,-10.1310623 C317.082564,42.1991928 317.082564,127.0433 264.752309,179.373555 C262.260392,181.865472 258.220196,181.865472 255.728279,179.373555 C253.236362,176.881638 253.236362,172.841443 255.728279,170.349526 C303.074701,123.003104 303.074701,46.2393884 255.728279,-1.10703292 C253.236362,-3.59894983 253.236362,-7.63914541 255.728279,-10.1310623 C258.220196,-12.6229792 262.260392,-12.6229792 264.752309,-10.1310623 Z M84.2717207,-10.1310623 C86.7636376,-7.63914541 86.7636376,-3.59894983 84.2717207,-1.10703292 C36.9252994,46.2393884 36.9252994,123.003104 84.2717207,170.349526 C86.7636376,172.841443 86.7636376,176.881638 84.2717207,179.373555 C81.7798038,181.865472 77.7396082,181.865472 75.2476913,179.373555 C22.9174362,127.0433 22.9174362,42.1991928 75.2476913,-10.1310623 C77.7396082,-12.6229792 81.7798038,-12.6229792 84.2717207,-10.1310623 Z M231.39697,27.2242767 C264.20101,60.0283172 264.20101,113.214175 231.39697,146.018216 C228.873582,148.541604 224.782362,148.541604 222.258974,146.018216 C219.735587,143.494828 219.735587,139.403608 222.258974,136.880221 C250.016239,109.122956 250.016239,64.1195371 222.258974,36.3622721 C219.735587,33.8388843 219.735587,29.7476645 222.258974,27.2242767 C224.782362,24.700889 228.873582,24.700889 231.39697,27.2242767 Z M121.741026,27.2242767 C124.264413,29.7476645 124.264413,33.8388843 121.741026,36.3622721 C93.9837607,64.1195371 93.9837607,109.122956 121.741026,136.880221 C124.264413,139.403608 124.264413,143.494828 121.741026,146.018216 C119.217638,148.541604 115.126418,148.541604 112.60303,146.018216 C79.7989899,113.214175 79.7989899,60.0283172 112.60303,27.2242767 C115.126418,24.700889 119.217638,24.700889 121.741026,27.2242767 Z M174,62.6212464 C188.359403,62.6212464 200,74.2618429 200,88.6212464 C200,102.98065 188.359403,114.621246 174,114.621246 C159.640597,114.621246 148,102.98065 148,88.6212464 C148,74.2618429 159.640597,62.6212464 174,62.6212464 Z" id="Stream_bg" fill="#000000" fill-rule="nonzero" opacity="0.3"></path>
        <path d="M144,58 C189.287349,58 226,94.7126505 226,140 C226,157.130496 220.73748,173.46609 211.082623,187.170689 C208.207255,191.252132 208.456117,202.466108 211.475596,221.696902 C211.636066,222.718922 211.394299,223.763365 210.801061,224.610916 C209.688134,226.200941 207.599171,226.755599 205.858542,225.954913 L205.079772,225.498311 L202.856426,223.954174 L200.542114,222.399707 C189.639597,215.188361 182.824015,212.358978 179.169758,214.096624 C168.277013,219.276264 156.333853,222 144,222 C98.7126505,222 62,185.287349 62,140 C62,94.7126505 98.7126505,58 144,58 Z M144,128 C137.372583,128 132,133.372583 132,140 C132,146.627417 137.372583,152 144,152 C150.627417,152 156,146.627417 156,140 C156,133.372583 150.627417,128 144,128 Z M180,128 C173.372583,128 168,133.372583 168,140 C168,146.627417 173.372583,152 180,152 C186.627417,152 192,146.627417 192,140 C192,133.372583 186.627417,128 180,128 Z M108,128 C101.372583,128 96,133.372583 96,140 C96,146.627417 101.372583,152 108,152 C114.627417,152 120,146.627417 120,140 C120,133.372583 114.627417,128 108,128 Z" id="Icon-fill" fill="#FFFFFF" fill-rule="nonzero" opacity="0.5"></path>
        <path d="M144,54 C175.732969,54 203.451711,71.186947 218.355375,96.7599899 C238.783507,112.083436 252,136.498279 252,164 C252,181.988246 246.345761,198.655875 236.717624,212.322544 C234.287431,215.772084 234.532019,226.793462 237.45139,245.386677 C237.6921,246.919735 237.329442,248.486428 236.439568,249.757779 C234.750578,252.170818 231.607043,252.960673 229.022733,251.771895 L228.083764,251.23266 L225.719761,249.599772 L223.47061,248.09003 C213.242261,241.332326 206.7616,238.603256 204.028627,239.90282 C193.110286,245.094632 180.894436,248 168,248 C140.498279,248 116.083436,234.783507 100.760435,214.355486 C75.186947,199.451711 58,171.732969 58,140 C58,92.5035115 96.5035115,54 144,54 Z M144,58 C98.7126505,58 62,94.7126505 62,140 C62,185.287349 98.7126505,222 144,222 C156.333853,222 168.277013,219.276264 179.169758,214.096624 C182.571997,212.478816 188.714552,214.819823 198.344432,220.97029 L200.542114,222.399707 L202.856426,223.954174 L205.079772,225.498311 L205.858542,225.954913 C207.599171,226.755599 209.688134,226.200941 210.801061,224.610916 C211.394299,223.763365 211.636066,222.718922 211.475596,221.696902 L210.97158,218.386272 C208.43765,201.171497 208.376394,191.012048 211.082623,187.170689 C220.73748,173.46609 226,157.130496 226,140 C226,94.7126505 189.287349,58 144,58 Z M108,126 C108.601846,126 109.194822,126.037977 109.776663,126.111665 L110.815751,126.283256 L110.815751,126.283256 L111.087888,126.341666 C111.466851,126.426948 111.840894,126.527881 112.208397,126.643564 L113.391193,127.075712 L113.391193,127.075712 L113.76744,127.239396 L113.76744,127.239396 C114.759805,127.688522 115.691423,128.250749 116.544912,128.909298 L116.935338,129.221787 L116.935338,129.221787 L117.480595,129.698525 L117.480595,129.698525 L117.980906,130.182587 L118.580387,130.831492 L118.580387,130.831492 L118.935153,131.257175 L118.935153,131.257175 L119.409684,131.885194 L119.409684,131.885194 L119.868838,132.571491 L120.258083,133.231574 L120.720113,134.143941 L120.720113,134.143941 L121.060362,134.947046 L121.060362,134.947046 L121.313216,135.656707 L121.313216,135.656707 L121.578047,136.575076 L121.578047,136.575076 L121.68544,137.035112 L121.772982,137.475453 C121.921599,138.288825 122,139.135257 122,140 C122,147.731986 115.731986,154 108,154 C107.277393,154 106.567573,153.945254 105.874461,153.839684 L104.908,153.652 L104.153238,153.464892 L104.153238,153.464892 L103.323564,153.199658 L103.323564,153.199658 L102.519985,152.885172 L102.519985,152.885172 L101.698787,152.50499 L101.698787,152.50499 L101.208209,152.243846 L101.208209,152.243846 C100.662218,151.941606 100.139213,151.603049 99.6416831,151.232214 C99.3775434,151.034557 99.1196801,150.8279 98.8695166,150.612545 L98.4788765,150.263936 L98.4788765,150.263936 L97.6985077,149.480518 L97.6985077,149.480518 L97.5474654,149.313889 C97.3259513,149.065054 97.1134736,148.80911 96.9101728,148.545718 C96.2507489,147.691423 95.6885219,146.759805 95.2388981,145.76634 L95.0765899,145.393215 L95.0765899,145.393215 C94.8538481,144.859937 94.6637849,144.312087 94.5079015,143.750023 C94.3445558,143.160941 94.2188368,142.556862 94.133319,141.939931 C94.0454202,141.305769 94,140.658189 94,140 C94,132.525746 99.8571104,126.419494 107.231859,126.020715 L108,126 Z M144,126 C144.601846,126 145.194822,126.037977 145.776663,126.111665 L146.815751,126.283256 L146.815751,126.283256 L147.087888,126.341666 C147.466851,126.426948 147.840894,126.527881 148.208397,126.643564 L149.391193,127.075712 L149.391193,127.075712 L149.76744,127.239396 L149.76744,127.239396 C150.759805,127.688522 151.691423,128.250749 152.544912,128.909298 L152.935338,129.221787 L152.935338,129.221787 L153.480595,129.698525 L153.480595,129.698525 L153.980906,130.182587 L154.580387,130.831492 L154.580387,130.831492 L154.935153,131.257175 L154.935153,131.257175 L155.409684,131.885194 L155.409684,131.885194 L155.868838,132.571491 L156.258083,133.231574 L156.720113,134.143941 L156.720113,134.143941 L157.060362,134.947046 L157.060362,134.947046 L157.313216,135.656707 L157.313216,135.656707 L157.578047,136.575076 L157.578047,136.575076 L157.68544,137.035112 L157.772982,137.475453 C157.921599,138.288825 158,139.135257 158,140 C158,147.731986 151.731986,154 144,154 C143.277393,154 142.567573,153.945254 141.874461,153.839684 L140.908,153.652 L140.153238,153.464892 L140.153238,153.464892 L139.323564,153.199658 L139.323564,153.199658 L138.519985,152.885172 L138.519985,152.885172 L137.698787,152.50499 L137.698787,152.50499 L137.208209,152.243846 L137.208209,152.243846 C136.662218,151.941606 136.139213,151.603049 135.641683,151.232214 C135.377543,151.034557 135.11968,150.8279 134.869517,150.612545 L134.478877,150.263936 L134.478877,150.263936 L133.698508,149.480518 L133.698508,149.480518 L133.547465,149.313889 C133.325951,149.065054 133.113474,148.80911 132.910173,148.545718 C132.250749,147.691423 131.688522,146.759805 131.238898,145.76634 L131.07659,145.393215 L131.07659,145.393215 C130.853848,144.859937 130.663785,144.312087 130.507901,143.750023 C130.344556,143.160941 130.218837,142.556862 130.133319,141.939931 C130.04542,141.305769 130,140.658189 130,140 C130,132.525746 135.85711,126.419494 143.231859,126.020715 L144,126 Z M180,126 C180.601846,126 181.194822,126.037977 181.776663,126.111665 L182.815751,126.283256 L182.815751,126.283256 L183.087888,126.341666 C183.466851,126.426948 183.840894,126.527881 184.208397,126.643564 L185.391193,127.075712 L185.391193,127.075712 L185.76744,127.239396 L185.76744,127.239396 C186.759805,127.688522 187.691423,128.250749 188.544912,128.909298 L188.935338,129.221787 L188.935338,129.221787 L189.480595,129.698525 L189.480595,129.698525 L189.980906,130.182587 L190.580387,130.831492 L190.580387,130.831492 L190.935153,131.257175 L190.935153,131.257175 L191.409684,131.885194 L191.409684,131.885194 L191.868838,132.571491 L192.258083,133.231574 L192.720113,134.143941 L192.720113,134.143941 L193.060362,134.947046 L193.060362,134.947046 L193.313216,135.656707 L193.313216,135.656707 L193.578047,136.575076 L193.578047,136.575076 L193.68544,137.035112 L193.772982,137.475453 C193.921599,138.288825 194,139.135257 194,140 C194,147.731986 187.731986,154 180,154 C179.277393,154 178.567573,153.945254 177.874461,153.839684 L176.908,153.652 L176.153238,153.464892 L176.153238,153.464892 L175.323564,153.199658 L175.323564,153.199658 L174.519985,152.885172 L174.519985,152.885172 L173.698787,152.50499 L173.698787,152.50499 L173.208209,152.243846 L173.208209,152.243846 C172.662218,151.941606 172.139213,151.603049 171.641683,151.232214 C171.377543,151.034557 171.11968,150.8279 170.869517,150.612545 L170.478877,150.263936 L170.478877,150.263936 L169.698508,149.480518 L169.698508,149.480518 L169.547465,149.313889 C169.325951,149.065054 169.113474,148.80911 168.910173,148.545718 C168.250749,147.691423 167.688522,146.759805 167.238898,145.76634 L167.07659,145.393215 L167.07659,145.393215 C166.853848,144.859937 166.663785,144.312087 166.507901,143.750023 C166.344556,143.160941 166.218837,142.556862 166.133319,141.939931 C166.04542,141.305769 166,140.658189 166,140 C166,132.525746 171.85711,126.419494 179.231859,126.020715 L180,126 Z M116,136 C109.372583,136 104,141.372583 104,148 C104,148.403448 104.01991,148.802246 104.058801,149.195465 C105.272817,149.713518 106.602953,150 108,150 C113.522847,150 118,145.522847 118,140 C118,138.602953 117.713518,137.272817 117.196095,136.065136 C116.802246,136.01991 116.403448,136 116,136 Z M152,136 C145.372583,136 140,141.372583 140,148 C140,148.403448 140.01991,148.802246 140.058801,149.195465 C141.272817,149.713518 142.602953,150 144,150 C149.522847,150 154,145.522847 154,140 C154,138.602953 153.713518,137.272817 153.196095,136.065136 C152.802246,136.01991 152.403448,136 152,136 Z M188,136 C181.372583,136 176,141.372583 176,148 C176,148.403448 176.01991,148.802246 176.058801,149.195465 C177.272817,149.713518 178.602953,150 180,150 C185.522847,150 190,145.522847 190,140 C190,138.602953 189.713518,137.272817 189.196095,136.065136 C188.802246,136.01991 188.403448,136 188,136 Z" id="shadow-with-outline" fill="#000000" fill-rule="nonzero"></path>
        <path d="M121.877915,73.0994108 C122.932497,72.7708807 124.05373,73.3594616 124.38226,74.414043 C124.71079,75.4686243 124.122209,76.5898576 123.067628,76.9183876 C104.762805,82.6208251 92.2054439,94.1610719 85.2605553,111.653325 C84.8529614,112.679942 83.6903043,113.181758 82.663688,112.774164 C81.6370717,112.366571 81.1352549,111.203914 81.5428488,110.177297 C88.9357467,91.5566324 102.425765,79.1592711 121.877915,73.0994108 Z" id="Highlight" fill="#FFFFFF" fill-rule="nonzero"></path>
    </g>
</svg>