<?xml version="1.0" encoding="UTF-8"?>
<svg width="288px" height="288px" viewBox="0 0 288 288" version="1.1" xmlns="http://www.w3.org/2000/svg" xmlns:xlink="http://www.w3.org/1999/xlink">
    <!-- Generator: Sketch 64 (93537) - https://sketch.com -->
    <title>Input / Wave Local</title>
    <desc>Created with Sketch.</desc>
    <g id="Input-/-Wave-Local" stroke="none" stroke-width="1" fill="none" fill-rule="evenodd">
        <rect fill="#FFFFFF" x="0" y="0" width="288" height="288"></rect>
        <rect id="Background" fill="#1551FF" fill-rule="nonzero" x="0" y="0" width="288" height="288"></rect>
        <path d="M41,219.2 C46.8542183,219.2 51.6,223.945782 51.6,229.8 L51.6,293.4 C51.6,299.254218 46.8542183,304 41,304 L19.8,304 C13.9457817,304 9.2,299.254218 9.2,293.4 L9.2,229.8 C9.2,223.945782 13.9457817,219.2 19.8,219.2 L41,219.2 Z M168.2,219.2 C174.054218,219.2 178.8,223.945782 178.8,229.8 L178.8,293.4 C178.8,299.254218 174.054218,304 168.2,304 L147,304 C141.145782,304 136.4,299.254218 136.4,293.4 L136.4,229.8 C136.4,223.945782 141.145782,219.2 147,219.2 L168.2,219.2 Z M94,92 C151.549943,92 198.388076,137.86271 199.959277,195.033009 L200,198 L200,256.3 C200,259.227109 197.627109,261.6 194.7,261.6 C192.098125,261.6 189.934151,259.725123 189.48539,257.252682 L189.4,256.3 L189.4,198 C189.4,145.312035 146.687965,102.6 94,102.6 C42.2528914,102.6 0.128610917,143.800225 -1.35932668,195.18716 L-1.4,198 L-1.4,256.3 C-1.4,259.227109 -3.77289083,261.6 -6.7,261.6 C-9.30187482,261.6 -11.4658487,259.725123 -11.9146099,257.252682 L-12,256.3 L-12,198 C-12,139.457817 35.4578165,92 94,92 Z" id="Local_bg" fill="#000000" fill-rule="nonzero" opacity="0.3"></path>
        <path d="M168,54 L168.657503,54.0212707 C173.782341,54.3539054 177.854887,58.5470792 177.996206,63.7218571 L178,64 L178,192 L177.978729,192.657503 C177.646095,197.782341 173.452921,201.854887 168.278143,201.996206 L168,202 L150,202 L149.640497,202.032223 C148.759334,202.192159 148.079307,202.929425 148.006468,203.837973 L148,204 L148,228 L148.032223,228.359503 C148.192159,229.240666 148.929425,229.920693 149.837973,229.993532 L150,230 L178,230 L178.466485,230.026911 C180.455839,230.257971 182,231.948657 182,234 C182,236.142195 180.316032,237.891079 178.19964,237.995105 L178,238 L110,238 L109.533515,237.973089 C107.544161,237.742029 106,236.051343 106,234 C106,231.857805 107.683968,230.108921 109.80036,230.004895 L110,230 L138,230 L138.359503,229.967777 C139.240666,229.807841 139.920693,229.070575 139.993532,228.162027 L140,228 L140,204 L139.967777,203.640497 C139.807841,202.759334 139.070575,202.079307 138.162027,202.006468 L138,202 L120,202 L119.342497,201.978729 C114.217659,201.646095 110.145113,197.452921 110.003794,192.278143 L110,192 L110,64 L110.021271,63.3424972 C110.353905,58.2176587 114.547079,54.1451125 119.721857,54.0037935 L120,54 L168,54 Z M144,176 C139.581722,176 136,179.581722 136,184 C136,188.418278 139.581722,192 144,192 C148.418278,192 152,188.418278 152,184 C152,179.581722 148.418278,176 144,176 Z M100,146 L100.359503,146.032223 C101.240666,146.192159 101.920693,146.929425 101.993532,147.837973 L102,148 L102,164 L101.967777,164.359503 C101.807841,165.240666 101.070575,165.920693 100.162027,165.993532 L100,166 L96,166 L95.6404975,165.967777 C94.7593338,165.807841 94.0793072,165.070575 94.0064683,164.162027 L94,164 L94,148 L94.0322227,147.640497 C94.1921585,146.759334 94.9294255,146.079307 95.8379728,146.006468 L96,146 L100,146 Z M192,146 L192.359503,146.032223 C193.240666,146.192159 193.920693,146.929425 193.993532,147.837973 L194,148 L194,164 L193.967777,164.359503 C193.807841,165.240666 193.070575,165.920693 192.162027,165.993532 L192,166 L188,166 L187.640497,165.967777 C186.759334,165.807841 186.079307,165.070575 186.006468,164.162027 L186,164 L186,148 L186.032223,147.640497 C186.192159,146.759334 186.929425,146.079307 187.837973,146.006468 L188,146 L192,146 Z" id="Icon-fill" fill="#FFFFFF" fill-rule="nonzero" opacity="0.5"></path>
        <path d="M168,50 C171.704093,50 175.072206,51.4385058 177.576161,53.7873407 L177.812,54.014 L177.797401,53.9994464 L184,54 C191.474254,54 197.580506,59.8571104 197.979285,67.2318592 L198,68 L197.999,147.979 L198,148 L198,151.953 L198.004435,151.76716 C198.119392,148.754485 200.455618,146.310937 203.42216,146.027466 L204,146 L208,146 C211.118784,146 213.681795,148.379552 213.972534,151.42216 L214,152 L214,168 C214,171.118784 211.620448,173.681795 208.57784,173.972534 L208,174 L204,174 C200.881216,174 198.318205,171.620448 198.027466,168.57784 L198,168 L198,196 C198,203.474254 192.14289,209.580506 184.768141,209.979285 L184,210 L168,210 L167.999629,225.999446 L152,226 L178,226 C180.874282,226 183.394528,227.515809 184.804953,229.791644 L184.929512,229.999601 L194,230 C198.006575,230 201.325234,232.945319 201.908922,236.788903 L201.978057,237.402951 L202,238 C202,242.217447 198.736489,245.67266 194.597049,245.978057 L194,246 L126,246 C123.038937,246 120.453611,244.391277 119.07035,242.00016 L110,242 C105.581722,242 102,238.418278 102,234 C102,229.782553 105.263511,226.32734 109.402951,226.021943 L110,226 L136,226 L136,206 L136,206 L136,210 C132.185539,210 128.727379,208.474493 126.202331,206.00029 L120,206 C112.783479,206 106.842242,200.539864 106.08215,193.525454 L106.020715,192.768141 L106,192 L106,164 C106,167.118784 103.620448,169.681795 100.57784,169.972534 L100,170 L96,170 C92.8812155,170 90.3182053,167.620448 90.0274663,164.57784 L90,164 L90,148 C90,144.881216 92.3795523,142.318205 95.42216,142.027466 L96,142 L100,142 C103.118784,142 105.681795,144.379552 105.972534,147.42216 L106,148 L106,64 C106,56.5257464 111.85711,50.4194942 119.231859,50.0207155 L120,50 L168,50 Z M178,160 L110,160 L110,192 C110,197.301934 114.126144,201.640155 119.342497,201.978729 L120,202 L138,202 C138.98184,202 139.798433,202.707501 139.967777,203.640497 L140,204 L140,228 C140,228.98184 139.292499,229.798433 138.359503,229.967777 L138,230 L110,230 C107.790861,230 106,231.790861 106,234 C106,236.051343 107.544161,237.742029 109.533515,237.973089 L110,238 L178,238 C180.209139,238 182,236.209139 182,234 C182,231.948657 180.455839,230.257971 178.466485,230.026911 L178,230 L150,230 C149.01816,230 148.201567,229.292499 148.032223,228.359503 L148,228 L148,204 C148,203.01816 148.707501,202.201567 149.640497,202.032223 L150,202 L168,202 C173.301934,202 177.640155,197.873856 177.978729,192.657503 L178,192 L178,160 Z M144,176 C148.418278,176 152,179.581722 152,184 C152,188.418278 148.418278,192 144,192 C139.581722,192 136,188.418278 136,184 C136,179.581722 139.581722,176 144,176 Z M100,146 L96,146 C95.0181604,146 94.2015665,146.707501 94.0322227,147.640497 L94,148 L94,164 C94,164.98184 94.7075006,165.798433 95.6404975,165.967777 L96,166 L100,166 C100.98184,166 101.798433,165.292499 101.967777,164.359503 L102,164 L102,148 C102,147.01816 101.292499,146.201567 100.359503,146.032223 L100,146 Z M192,146 L188,146 C187.01816,146 186.201567,146.707501 186.032223,147.640497 L186,148 L186,164 C186,164.98184 186.707501,165.798433 187.640497,165.967777 L188,166 L192,166 C192.98184,166 193.798433,165.292499 193.967777,164.359503 L194,164 L194,148 C194,147.01816 193.292499,146.201567 192.359503,146.032223 L192,146 Z M168,54 L120,54 C114.698066,54 110.359845,58.1261437 110.021271,63.3424972 L110,64 L110,156 L115.501833,156.000971 C115.187547,155.582975 115.001286,155.063239 115.001286,154.5 C115.001286,153.119288 116.120574,152 117.501286,152 C118.881998,152 120.001286,153.119288 120.001286,154.5 C120.001286,155.063239 119.815025,155.582975 119.500739,156.000971 L125.501833,156.000971 C125.187547,155.582975 125.001286,155.063239 125.001286,154.5 C125.001286,153.119288 126.120574,152 127.501286,152 C128.881998,152 130.001286,153.119288 130.001286,154.5 C130.001286,155.063239 129.815025,155.582975 129.500739,156.000971 L135.501833,156.000971 C135.187547,155.582975 135.001286,155.063239 135.001286,154.5 C135.001286,153.119288 136.120574,152 137.501286,152 C138.881998,152 140.001286,153.119288 140.001286,154.5 C140.001286,155.063239 139.815025,155.582975 139.500739,156.000971 L145.501833,156.000971 C145.187547,155.582975 145.001286,155.063239 145.001286,154.5 C145.001286,153.119288 146.120574,152 147.501286,152 C148.881998,152 150.001286,153.119288 150.001286,154.5 C150.001286,155.063239 149.815025,155.582975 149.500739,156.000971 L155.501833,156.000971 C155.187547,155.582975 155.001286,155.063239 155.001286,154.5 C155.001286,153.119288 156.120574,152 157.501286,152 C158.881998,152 160.001286,153.119288 160.001286,154.5 C160.001286,155.063239 159.815025,155.582975 159.500739,156.000971 L165.501833,156.000971 C165.187547,155.582975 165.001286,155.063239 165.001286,154.5 C165.001286,153.119288 166.120574,152 167.501286,152 C168.881998,152 170.001286,153.119288 170.001286,154.5 C170.001286,155.063239 169.815025,155.582975 169.500739,156.000971 L175.501833,156.000971 C175.187547,155.582975 175.001286,155.063239 175.001286,154.5 C175.001286,153.682437 175.39373,152.956535 176.000514,152.500397 L176.001286,156 L178,156 L178,64 C178,58.6980664 173.873856,54.3598453 168.657503,54.0212707 L168,54 Z M162.501286,146.2 C163.881998,146.2 165.001286,147.319288 165.001286,148.7 C165.001286,150.080712 163.881998,151.2 162.501286,151.2 C161.120574,151.2 160.001286,150.080712 160.001286,148.7 C160.001286,147.319288 161.120574,146.2 162.501286,146.2 Z M132.501286,146.2 C133.881998,146.2 135.001286,147.319288 135.001286,148.7 C135.001286,150.080712 133.881998,151.2 132.501286,151.2 C131.120574,151.2 130.001286,150.080712 130.001286,148.7 C130.001286,147.319288 131.120574,146.2 132.501286,146.2 Z M142.501286,146.2 C143.881998,146.2 145.001286,147.319288 145.001286,148.7 C145.001286,150.080712 143.881998,151.2 142.501286,151.2 C141.120574,151.2 140.001286,150.080712 140.001286,148.7 C140.001286,147.319288 141.120574,146.2 142.501286,146.2 Z M112.501286,146.2 C113.881998,146.2 115.001286,147.319288 115.001286,148.7 C115.001286,150.080712 113.881998,151.2 112.501286,151.2 C112.329862,151.2 112.162469,151.182747 112.000747,151.149881 L112.000747,146.250119 C112.162469,146.217253 112.329862,146.2 112.501286,146.2 Z M122.501286,146.2 C123.881998,146.2 125.001286,147.319288 125.001286,148.7 C125.001286,150.080712 123.881998,151.2 122.501286,151.2 C121.120574,151.2 120.001286,150.080712 120.001286,148.7 C120.001286,147.319288 121.120574,146.2 122.501286,146.2 Z M152.501286,146.2 C153.881998,146.2 155.001286,147.319288 155.001286,148.7 C155.001286,150.080712 153.881998,151.2 152.501286,151.2 C151.120574,151.2 150.001286,150.080712 150.001286,148.7 C150.001286,147.319288 151.120574,146.2 152.501286,146.2 Z M172.501286,146.2 C173.881998,146.2 175.001286,147.319288 175.001286,148.7 C175.001286,150.080712 173.881998,151.2 172.501286,151.2 C171.120574,151.2 170.001286,150.080712 170.001286,148.7 C170.001286,147.319288 171.120574,146.2 172.501286,146.2 Z M127.501286,140.8 C128.881998,140.8 130.001286,141.919288 130.001286,143.3 C130.001286,144.680712 128.881998,145.8 127.501286,145.8 C126.120574,145.8 125.001286,144.680712 125.001286,143.3 C125.001286,141.919288 126.120574,140.8 127.501286,140.8 Z M147.501286,140.8 C148.881998,140.8 150.001286,141.919288 150.001286,143.3 C150.001286,144.680712 148.881998,145.8 147.501286,145.8 C146.120574,145.8 145.001286,144.680712 145.001286,143.3 C145.001286,141.919288 146.120574,140.8 147.501286,140.8 Z M157.501286,140.8 C158.881998,140.8 160.001286,141.919288 160.001286,143.3 C160.001286,144.680712 158.881998,145.8 157.501286,145.8 C156.120574,145.8 155.001286,144.680712 155.001286,143.3 C155.001286,141.919288 156.120574,140.8 157.501286,140.8 Z M167.501286,140.8 C168.881998,140.8 170.001286,141.919288 170.001286,143.3 C170.001286,144.680712 168.881998,145.8 167.501286,145.8 C166.120574,145.8 165.001286,144.680712 165.001286,143.3 C165.001286,141.919288 166.120574,140.8 167.501286,140.8 Z M137.501286,140.8 C138.881998,140.8 140.001286,141.919288 140.001286,143.3 C140.001286,144.680712 138.881998,145.8 137.501286,145.8 C136.120574,145.8 135.001286,144.680712 135.001286,143.3 C135.001286,141.919288 136.120574,140.8 137.501286,140.8 Z M117.501286,140.8 C118.881998,140.8 120.001286,141.919288 120.001286,143.3 C120.001286,144.680712 118.881998,145.8 117.501286,145.8 C116.120574,145.8 115.001286,144.680712 115.001286,143.3 C115.001286,141.919288 116.120574,140.8 117.501286,140.8 Z M176.000514,141.300397 L176.000514,145.299603 C175.39373,144.843465 175.001286,144.117563 175.001286,143.3 C175.001286,142.482437 175.39373,141.756535 176.000514,141.300397 Z M132.501286,134.8 C133.881998,134.8 135.001286,135.919288 135.001286,137.3 C135.001286,138.680712 133.881998,139.8 132.501286,139.8 C131.120574,139.8 130.001286,138.680712 130.001286,137.3 C130.001286,135.919288 131.120574,134.8 132.501286,134.8 Z M142.501286,134.8 C143.881998,134.8 145.001286,135.919288 145.001286,137.3 C145.001286,138.680712 143.881998,139.8 142.501286,139.8 C141.120574,139.8 140.001286,138.680712 140.001286,137.3 C140.001286,135.919288 141.120574,134.8 142.501286,134.8 Z M112.501286,134.8 C113.881998,134.8 115.001286,135.919288 115.001286,137.3 C115.001286,138.680712 113.881998,139.8 112.501286,139.8 C112.329862,139.8 112.162469,139.782747 112.000747,139.749881 L112.000747,134.850119 C112.162469,134.817253 112.329862,134.8 112.501286,134.8 Z M122.501286,134.8 C123.881998,134.8 125.001286,135.919288 125.001286,137.3 C125.001286,138.680712 123.881998,139.8 122.501286,139.8 C121.120574,139.8 120.001286,138.680712 120.001286,137.3 C120.001286,135.919288 121.120574,134.8 122.501286,134.8 Z M152.501286,134.8 C153.881998,134.8 155.001286,135.919288 155.001286,137.3 C155.001286,138.680712 153.881998,139.8 152.501286,139.8 C151.120574,139.8 150.001286,138.680712 150.001286,137.3 C150.001286,135.919288 151.120574,134.8 152.501286,134.8 Z M162.501286,134.8 C163.881998,134.8 165.001286,135.919288 165.001286,137.3 C165.001286,138.680712 163.881998,139.8 162.501286,139.8 C161.120574,139.8 160.001286,138.680712 160.001286,137.3 C160.001286,135.919288 161.120574,134.8 162.501286,134.8 Z M172.501286,134.8 C173.881998,134.8 175.001286,135.919288 175.001286,137.3 C175.001286,138.680712 173.881998,139.8 172.501286,139.8 C171.120574,139.8 170.001286,138.680712 170.001286,137.3 C170.001286,135.919288 171.120574,134.8 172.501286,134.8 Z M127.501286,129.4 C128.881998,129.4 130.001286,130.519288 130.001286,131.9 C130.001286,133.280712 128.881998,134.4 127.501286,134.4 C126.120574,134.4 125.001286,133.280712 125.001286,131.9 C125.001286,130.519288 126.120574,129.4 127.501286,129.4 Z M147.501286,129.4 C148.881998,129.4 150.001286,130.519288 150.001286,131.9 C150.001286,133.280712 148.881998,134.4 147.501286,134.4 C146.120574,134.4 145.001286,133.280712 145.001286,131.9 C145.001286,130.519288 146.120574,129.4 147.501286,129.4 Z M157.501286,129.4 C158.881998,129.4 160.001286,130.519288 160.001286,131.9 C160.001286,133.280712 158.881998,134.4 157.501286,134.4 C156.120574,134.4 155.001286,133.280712 155.001286,131.9 C155.001286,130.519288 156.120574,129.4 157.501286,129.4 Z M167.501286,129.4 C168.881998,129.4 170.001286,130.519288 170.001286,131.9 C170.001286,133.280712 168.881998,134.4 167.501286,134.4 C166.120574,134.4 165.001286,133.280712 165.001286,131.9 C165.001286,130.519288 166.120574,129.4 167.501286,129.4 Z M137.501286,129.4 C138.881998,129.4 140.001286,130.519288 140.001286,131.9 C140.001286,133.280712 138.881998,134.4 137.501286,134.4 C136.120574,134.4 135.001286,133.280712 135.001286,131.9 C135.001286,130.519288 136.120574,129.4 137.501286,129.4 Z M117.501286,129.4 C118.881998,129.4 120.001286,130.519288 120.001286,131.9 C120.001286,133.280712 118.881998,134.4 117.501286,134.4 C116.120574,134.4 115.001286,133.280712 115.001286,131.9 C115.001286,130.519288 116.120574,129.4 117.501286,129.4 Z M176.000514,129.900397 L176.000514,133.899603 C175.39373,133.443465 175.001286,132.717563 175.001286,131.9 C175.001286,131.082437 175.39373,130.356535 176.000514,129.900397 Z M172.501286,123.8 C173.881998,123.8 175.001286,124.919288 175.001286,126.3 C175.001286,127.680712 173.881998,128.8 172.501286,128.8 C171.120574,128.8 170.001286,127.680712 170.001286,126.3 C170.001286,124.919288 171.120574,123.8 172.501286,123.8 Z M132.501286,123.8 C133.881998,123.8 135.001286,124.919288 135.001286,126.3 C135.001286,127.680712 133.881998,128.8 132.501286,128.8 C131.120574,128.8 130.001286,127.680712 130.001286,126.3 C130.001286,124.919288 131.120574,123.8 132.501286,123.8 Z M142.501286,123.8 C143.881998,123.8 145.001286,124.919288 145.001286,126.3 C145.001286,127.680712 143.881998,128.8 142.501286,128.8 C141.120574,128.8 140.001286,127.680712 140.001286,126.3 C140.001286,124.919288 141.120574,123.8 142.501286,123.8 Z M112.501286,123.8 C113.881998,123.8 115.001286,124.919288 115.001286,126.3 C115.001286,127.680712 113.881998,128.8 112.501286,128.8 C112.329862,128.8 112.162469,128.782747 112.000747,128.749881 L112.000747,123.850119 C112.162469,123.817253 112.329862,123.8 112.501286,123.8 Z M122.501286,123.8 C123.881998,123.8 125.001286,124.919288 125.001286,126.3 C125.001286,127.680712 123.881998,128.8 122.501286,128.8 C121.120574,128.8 120.001286,127.680712 120.001286,126.3 C120.001286,124.919288 121.120574,123.8 122.501286,123.8 Z M152.501286,123.8 C153.881998,123.8 155.001286,124.919288 155.001286,126.3 C155.001286,127.680712 153.881998,128.8 152.501286,128.8 C151.120574,128.8 150.001286,127.680712 150.001286,126.3 C150.001286,124.919288 151.120574,123.8 152.501286,123.8 Z M162.501286,123.8 C163.881998,123.8 165.001286,124.919288 165.001286,126.3 C165.001286,127.680712 163.881998,128.8 162.501286,128.8 C161.120574,128.8 160.001286,127.680712 160.001286,126.3 C160.001286,124.919288 161.120574,123.8 162.501286,123.8 Z M127.501286,118.4 C128.881998,118.4 130.001286,119.519288 130.001286,120.9 C130.001286,122.280712 128.881998,123.4 127.501286,123.4 C126.120574,123.4 125.001286,122.280712 125.001286,120.9 C125.001286,119.519288 126.120574,118.4 127.501286,118.4 Z M167.501286,118.4 C168.881998,118.4 170.001286,119.519288 170.001286,120.9 C170.001286,122.280712 168.881998,123.4 167.501286,123.4 C166.120574,123.4 165.001286,122.280712 165.001286,120.9 C165.001286,119.519288 166.120574,118.4 167.501286,118.4 Z M137.501286,118.4 C138.881998,118.4 140.001286,119.519288 140.001286,120.9 C140.001286,122.280712 138.881998,123.4 137.501286,123.4 C136.120574,123.4 135.001286,122.280712 135.001286,120.9 C135.001286,119.519288 136.120574,118.4 137.501286,118.4 Z M117.501286,118.4 C118.881998,118.4 120.001286,119.519288 120.001286,120.9 C120.001286,122.280712 118.881998,123.4 117.501286,123.4 C116.120574,123.4 115.001286,122.280712 115.001286,120.9 C115.001286,119.519288 116.120574,118.4 117.501286,118.4 Z M157.501286,118.4 C158.881998,118.4 160.001286,119.519288 160.001286,120.9 C160.001286,122.280712 158.881998,123.4 157.501286,123.4 C156.120574,123.4 155.001286,122.280712 155.001286,120.9 C155.001286,119.519288 156.120574,118.4 157.501286,118.4 Z M147.501286,118.4 C148.881998,118.4 150.001286,119.519288 150.001286,120.9 C150.001286,122.280712 148.881998,123.4 147.501286,123.4 C146.120574,123.4 145.001286,122.280712 145.001286,120.9 C145.001286,119.519288 146.120574,118.4 147.501286,118.4 Z M176.000514,118.900397 L176.000514,122.899603 C175.39373,122.443465 175.001286,121.717563 175.001286,120.9 C175.001286,120.082437 175.39373,119.356535 176.000514,118.900397 Z M172.501286,112.4 C173.881998,112.4 175.001286,113.519288 175.001286,114.9 C175.001286,116.280712 173.881998,117.4 172.501286,117.4 C171.120574,117.4 170.001286,116.280712 170.001286,114.9 C170.001286,113.519288 171.120574,112.4 172.501286,112.4 Z M122.501286,112.4 C123.881998,112.4 125.001286,113.519288 125.001286,114.9 C125.001286,116.280712 123.881998,117.4 122.501286,117.4 C121.120574,117.4 120.001286,116.280712 120.001286,114.9 C120.001286,113.519288 121.120574,112.4 122.501286,112.4 Z M112.501286,112.4 C113.881998,112.4 115.001286,113.519288 115.001286,114.9 C115.001286,116.280712 113.881998,117.4 112.501286,117.4 C112.329862,117.4 112.162469,117.382747 112.000747,117.349881 L112.000747,112.450119 C112.162469,112.417253 112.329862,112.4 112.501286,112.4 Z M152.501286,112.4 C153.881998,112.4 155.001286,113.519288 155.001286,114.9 C155.001286,116.280712 153.881998,117.4 152.501286,117.4 C151.120574,117.4 150.001286,116.280712 150.001286,114.9 C150.001286,113.519288 151.120574,112.4 152.501286,112.4 Z M162.501286,112.4 C163.881998,112.4 165.001286,113.519288 165.001286,114.9 C165.001286,116.280712 163.881998,117.4 162.501286,117.4 C161.120574,117.4 160.001286,116.280712 160.001286,114.9 C160.001286,113.519288 161.120574,112.4 162.501286,112.4 Z M142.501286,112.4 C143.881998,112.4 145.001286,113.519288 145.001286,114.9 C145.001286,116.280712 143.881998,117.4 142.501286,117.4 C141.120574,117.4 140.001286,116.280712 140.001286,114.9 C140.001286,113.519288 141.120574,112.4 142.501286,112.4 Z M132.501286,112.4 C133.881998,112.4 135.001286,113.519288 135.001286,114.9 C135.001286,116.280712 133.881998,117.4 132.501286,117.4 C131.120574,117.4 130.001286,116.280712 130.001286,114.9 C130.001286,113.519288 131.120574,112.4 132.501286,112.4 Z M127.501286,107 C128.881998,107 130.001286,108.119288 130.001286,109.5 C130.001286,110.880712 128.881998,112 127.501286,112 C126.120574,112 125.001286,110.880712 125.001286,109.5 C125.001286,108.119288 126.120574,107 127.501286,107 Z M137.501286,107 C138.881998,107 140.001286,108.119288 140.001286,109.5 C140.001286,110.880712 138.881998,112 137.501286,112 C136.120574,112 135.001286,110.880712 135.001286,109.5 C135.001286,108.119288 136.120574,107 137.501286,107 Z M117.501286,107 C118.881998,107 120.001286,108.119288 120.001286,109.5 C120.001286,110.880712 118.881998,112 117.501286,112 C116.120574,112 115.001286,110.880712 115.001286,109.5 C115.001286,108.119288 116.120574,107 117.501286,107 Z M157.501286,107 C158.881998,107 160.001286,108.119288 160.001286,109.5 C160.001286,110.880712 158.881998,112 157.501286,112 C156.120574,112 155.001286,110.880712 155.001286,109.5 C155.001286,108.119288 156.120574,107 157.501286,107 Z M167.501286,107 C168.881998,107 170.001286,108.119288 170.001286,109.5 C170.001286,110.880712 168.881998,112 167.501286,112 C166.120574,112 165.001286,110.880712 165.001286,109.5 C165.001286,108.119288 166.120574,107 167.501286,107 Z M147.501286,107 C148.881998,107 150.001286,108.119288 150.001286,109.5 C150.001286,110.880712 148.881998,112 147.501286,112 C146.120574,112 145.001286,110.880712 145.001286,109.5 C145.001286,108.119288 146.120574,107 147.501286,107 Z M176.000514,107.500397 L176.000514,111.499603 C175.39373,111.043465 175.001286,110.317563 175.001286,109.5 C175.001286,108.682437 175.39373,107.956535 176.000514,107.500397 Z M112.501286,100.8 C113.881998,100.8 115.001286,101.919288 115.001286,103.3 C115.001286,104.680712 113.881998,105.8 112.501286,105.8 C112.329862,105.8 112.162469,105.782747 112.000747,105.749881 L112.000747,100.850119 C112.162469,100.817253 112.329862,100.8 112.501286,100.8 Z M132.501286,100.8 C133.881998,100.8 135.001286,101.919288 135.001286,103.3 C135.001286,104.680712 133.881998,105.8 132.501286,105.8 C131.120574,105.8 130.001286,104.680712 130.001286,103.3 C130.001286,101.919288 131.120574,100.8 132.501286,100.8 Z M152.501286,100.8 C153.881998,100.8 155.001286,101.919288 155.001286,103.3 C155.001286,104.680712 153.881998,105.8 152.501286,105.8 C151.120574,105.8 150.001286,104.680712 150.001286,103.3 C150.001286,101.919288 151.120574,100.8 152.501286,100.8 Z M142.501286,100.8 C143.881998,100.8 145.001286,101.919288 145.001286,103.3 C145.001286,104.680712 143.881998,105.8 142.501286,105.8 C141.120574,105.8 140.001286,104.680712 140.001286,103.3 C140.001286,101.919288 141.120574,100.8 142.501286,100.8 Z M172.501286,100.8 C173.881998,100.8 175.001286,101.919288 175.001286,103.3 C175.001286,104.680712 173.881998,105.8 172.501286,105.8 C171.120574,105.8 170.001286,104.680712 170.001286,103.3 C170.001286,101.919288 171.120574,100.8 172.501286,100.8 Z M122.501286,100.8 C123.881998,100.8 125.001286,101.919288 125.001286,103.3 C125.001286,104.680712 123.881998,105.8 122.501286,105.8 C121.120574,105.8 120.001286,104.680712 120.001286,103.3 C120.001286,101.919288 121.120574,100.8 122.501286,100.8 Z M162.501286,100.8 C163.881998,100.8 165.001286,101.919288 165.001286,103.3 C165.001286,104.680712 163.881998,105.8 162.501286,105.8 C161.120574,105.8 160.001286,104.680712 160.001286,103.3 C160.001286,101.919288 161.120574,100.8 162.501286,100.8 Z M117.501286,95.4 C118.881998,95.4 120.001286,96.5192881 120.001286,97.9 C120.001286,99.2807119 118.881998,100.4 117.501286,100.4 C116.120574,100.4 115.001286,99.2807119 115.001286,97.9 C115.001286,96.5192881 116.120574,95.4 117.501286,95.4 Z M147.501286,95.4 C148.881998,95.4 150.001286,96.5192881 150.001286,97.9 C150.001286,99.2807119 148.881998,100.4 147.501286,100.4 C146.120574,100.4 145.001286,99.2807119 145.001286,97.9 C145.001286,96.5192881 146.120574,95.4 147.501286,95.4 Z M127.501286,95.4 C128.881998,95.4 130.001286,96.5192881 130.001286,97.9 C130.001286,99.2807119 128.881998,100.4 127.501286,100.4 C126.120574,100.4 125.001286,99.2807119 125.001286,97.9 C125.001286,96.5192881 126.120574,95.4 127.501286,95.4 Z M137.501286,95.4 C138.881998,95.4 140.001286,96.5192881 140.001286,97.9 C140.001286,99.2807119 138.881998,100.4 137.501286,100.4 C136.120574,100.4 135.001286,99.2807119 135.001286,97.9 C135.001286,96.5192881 136.120574,95.4 137.501286,95.4 Z M167.501286,95.4 C168.881998,95.4 170.001286,96.5192881 170.001286,97.9 C170.001286,99.2807119 168.881998,100.4 167.501286,100.4 C166.120574,100.4 165.001286,99.2807119 165.001286,97.9 C165.001286,96.5192881 166.120574,95.4 167.501286,95.4 Z M157.501286,95.4 C158.881998,95.4 160.001286,96.5192881 160.001286,97.9 C160.001286,99.2807119 158.881998,100.4 157.501286,100.4 C156.120574,100.4 155.001286,99.2807119 155.001286,97.9 C155.001286,96.5192881 156.120574,95.4 157.501286,95.4 Z M176.000514,95.9003966 L176.000514,99.8996034 C175.39373,99.4434648 175.001286,98.7175625 175.001286,97.9 C175.001286,97.0824375 175.39373,96.3565352 176.000514,95.9003966 Z M132.501286,89.4 C133.881998,89.4 135.001286,90.5192881 135.001286,91.9 C135.001286,93.2807119 133.881998,94.4 132.501286,94.4 C131.120574,94.4 130.001286,93.2807119 130.001286,91.9 C130.001286,90.5192881 131.120574,89.4 132.501286,89.4 Z M112.501286,89.4 C113.881998,89.4 115.001286,90.5192881 115.001286,91.9 C115.001286,93.2807119 113.881998,94.4 112.501286,94.4 C112.329862,94.4 112.162469,94.3827465 112.000747,94.3498814 L112.000747,89.4501186 C112.162469,89.4172535 112.329862,89.4 112.501286,89.4 Z M152.501286,89.4 C153.881998,89.4 155.001286,90.5192881 155.001286,91.9 C155.001286,93.2807119 153.881998,94.4 152.501286,94.4 C151.120574,94.4 150.001286,93.2807119 150.001286,91.9 C150.001286,90.5192881 151.120574,89.4 152.501286,89.4 Z M172.501286,89.4 C173.881998,89.4 175.001286,90.5192881 175.001286,91.9 C175.001286,93.2807119 173.881998,94.4 172.501286,94.4 C171.120574,94.4 170.001286,93.2807119 170.001286,91.9 C170.001286,90.5192881 171.120574,89.4 172.501286,89.4 Z M142.501286,89.4 C143.881998,89.4 145.001286,90.5192881 145.001286,91.9 C145.001286,93.2807119 143.881998,94.4 142.501286,94.4 C141.120574,94.4 140.001286,93.2807119 140.001286,91.9 C140.001286,90.5192881 141.120574,89.4 142.501286,89.4 Z M162.501286,89.4 C163.881998,89.4 165.001286,90.5192881 165.001286,91.9 C165.001286,93.2807119 163.881998,94.4 162.501286,94.4 C161.120574,94.4 160.001286,93.2807119 160.001286,91.9 C160.001286,90.5192881 161.120574,89.4 162.501286,89.4 Z M122.501286,89.4 C123.881998,89.4 125.001286,90.5192881 125.001286,91.9 C125.001286,93.2807119 123.881998,94.4 122.501286,94.4 C121.120574,94.4 120.001286,93.2807119 120.001286,91.9 C120.001286,90.5192881 121.120574,89.4 122.501286,89.4 Z M127.501286,84 C128.881998,84 130.001286,85.1192881 130.001286,86.5 C130.001286,87.8807119 128.881998,89 127.501286,89 C126.120574,89 125.001286,87.8807119 125.001286,86.5 C125.001286,85.1192881 126.120574,84 127.501286,84 Z M135.751036,84.7148863 C136.927839,85.8291873 138.328634,86.7068085 139.879088,87.2737056 L139.873834,87.2901934 C139.543114,88.2836556 138.605855,89 137.501286,89 C136.120574,89 135.001286,87.8807119 135.001286,86.5 C135.001286,85.8007771 135.288342,85.1685998 135.751036,84.7148863 Z M149.999059,86.3951578 L150.001286,86.5 L150.001286,86.5 C150.001286,87.8807119 148.881998,89 147.501286,89 C146.645462,89 145.890078,88.5699642 145.439432,87.9141899 C147.085302,87.7176595 148.627915,87.188156 149.999059,86.3951578 Z M157.501286,84 C158.881998,84 160.001286,85.1192881 160.001286,86.5 C160.001286,87.8807119 158.881998,89 157.501286,89 C156.120574,89 155.001286,87.8807119 155.001286,86.5 C155.001286,85.1192881 156.120574,84 157.501286,84 Z M167.501286,84 C168.881998,84 170.001286,85.1192881 170.001286,86.5 C170.001286,87.8807119 168.881998,89 167.501286,89 C166.120574,89 165.001286,87.8807119 165.001286,86.5 C165.001286,85.1192881 166.120574,84 167.501286,84 Z M117.501286,84 C118.881998,84 120.001286,85.1192881 120.001286,86.5 C120.001286,87.8807119 118.881998,89 117.501286,89 C116.120574,89 115.001286,87.8807119 115.001286,86.5 C115.001286,85.1192881 116.120574,84 117.501286,84 Z M176.000514,84.5003966 L176.000514,88.4996034 C175.39373,88.0434648 175.001286,87.3175625 175.001286,86.5 C175.001286,85.6824375 175.39373,84.9565352 176.000514,84.5003966 Z M144.066095,67.6000205 C145.7923,67.6000205 147.453867,68.112928 148.869196,69.0829286 C150.251646,70.0305123 151.310565,71.3479255 151.930305,72.8917293 C152.009673,73.0892981 152.082404,73.2929747 152.146714,73.4976869 L152.146714,73.4976869 L151.964458,73.9643491 L150.530932,74.7884556 L149.943819,74.539887 C149.8974,74.3566208 149.841771,74.1740775 149.778249,73.9966196 C148.921444,71.6021307 146.62551,69.9921177 144.066095,69.9921177 C140.724129,69.9921177 138.005924,72.6883124 138.005924,76.0000205 C138.005924,79.3116699 140.724139,82.0078548 144.066095,82.0078548 C145.365424,82.0078548 146.603341,81.6048756 147.648977,80.8416564 C148.673565,80.0937123 149.423856,79.0702678 149.805531,77.9404812 L149.803,77.945 L149.716,78.16 L142.772,74.22 L142.772,77.708 L145.27211,76.4622362 L146.661649,77.2500526 L146.662887,77.9452772 L142.221775,80.2591428 L140.790877,79.4504716 L140.587682,79.1022363 L140.587682,72.7956575 L140.789196,72.4483779 L142.613665,71.631141 L152.198301,77.0740739 L152.394407,77.4931801 C152.048249,79.4051098 151.033328,81.1502917 149.533838,82.4115784 C148.009095,83.6940208 146.067518,84.4000205 144.066095,84.4000205 C141.806372,84.4000205 139.679738,83.5262865 138.081417,81.9409317 C136.482441,80.3548548 135.600806,78.2436128 135.600806,76.0000205 C135.600806,73.7563034 136.482433,71.645119 138.081417,70.059178 C139.679717,68.473772 141.806348,67.6000205 144.066095,67.6000205 Z M132.242812,78.4131997 C132.570644,80.0183959 133.218241,81.5057966 134.116207,82.8071425 L134.098914,82.8229938 C133.665701,83.1833058 133.108799,83.4 132.501286,83.4 C131.120574,83.4 130.001286,82.2807119 130.001286,80.9 C130.001286,79.6065628 130.983546,78.5425446 132.242812,78.4131997 Z M112.501286,78.4 C113.881998,78.4 115.001286,79.5192881 115.001286,80.9 C115.001286,82.2807119 113.881998,83.4 112.501286,83.4 C112.329862,83.4 112.162469,83.3827465 112.000747,83.3498814 L112.000747,78.4501186 C112.162469,78.4172535 112.329862,78.4 112.501286,78.4 Z M172.501286,78.4 C173.881998,78.4 175.001286,79.5192881 175.001286,80.9 C175.001286,82.2807119 173.881998,83.4 172.501286,83.4 C171.120574,83.4 170.001286,82.2807119 170.001286,80.9 C170.001286,79.5192881 171.120574,78.4 172.501286,78.4 Z M122.501286,78.4 C123.881998,78.4 125.001286,79.5192881 125.001286,80.9 C125.001286,82.2807119 123.881998,83.4 122.501286,83.4 C121.120574,83.4 120.001286,82.2807119 120.001286,80.9 C120.001286,79.5192881 121.120574,78.4 122.501286,78.4 Z M162.501286,78.4 C163.881998,78.4 165.001286,79.5192881 165.001286,80.9 C165.001286,82.2807119 163.881998,83.4 162.501286,83.4 C161.120574,83.4 160.001286,82.2807119 160.001286,80.9 C160.001286,79.5192881 161.120574,78.4 162.501286,78.4 Z M154.99885,80.8060498 C155.000698,80.8368267 155.001286,80.8683447 155.001286,80.9 C155.001286,81.8598467 154.460358,82.6933529 153.666716,83.1123045 C154.191822,82.3988822 154.639881,81.626405 154.99885,80.8060498 Z M127.501286,73 C128.881998,73 130.001286,74.1192881 130.001286,75.5 C130.001286,76.8807119 128.881998,78 127.501286,78 C126.120574,78 125.001286,76.8807119 125.001286,75.5 C125.001286,74.1192881 126.120574,73 127.501286,73 Z M157.501286,73 C158.881998,73 160.001286,74.1192881 160.001286,75.5 C160.001286,76.8807119 158.881998,78 157.501286,78 C156.898752,78 156.346004,77.7868436 155.914335,77.4318249 C155.971299,76.9620906 156,76.4843971 156,76 C156,75.2096322 155.92359,74.437111 155.777753,73.6894206 C156.225905,73.2622397 156.832971,73 157.501286,73 Z M167.501286,73 C168.881998,73 170.001286,74.1192881 170.001286,75.5 C170.001286,76.8807119 168.881998,78 167.501286,78 C166.120574,78 165.001286,76.8807119 165.001286,75.5 C165.001286,74.1192881 166.120574,73 167.501286,73 Z M117.501286,73 C118.881998,73 120.001286,74.1192881 120.001286,75.5 C120.001286,76.8807119 118.881998,78 117.501286,78 C116.120574,78 115.001286,76.8807119 115.001286,75.5 C115.001286,74.1192881 116.120574,73 117.501286,73 Z M176.000514,73.5003966 L176.000514,77.4996034 C175.39373,77.0434648 175.001286,76.3175625 175.001286,75.5 C175.001286,74.6824375 175.39373,73.9565352 176.000514,73.5003966 Z M132.501286,67 C133.477389,67 134.322836,67.5594062 134.734519,68.3751112 C133.854741,69.4416634 133.15641,70.6630795 132.685613,71.9921147 C132.625528,71.9977147 132.563674,72 132.501286,72 C131.120574,72 130.001286,70.8807119 130.001286,69.5 C130.001286,68.1192881 131.120574,67 132.501286,67 Z M172.501286,67 C173.881998,67 175.001286,68.1192881 175.001286,69.5 C175.001286,70.8807119 173.881998,72 172.501286,72 C171.120574,72 170.001286,70.8807119 170.001286,69.5 C170.001286,68.1192881 171.120574,67 172.501286,67 Z M112.501286,67 C113.881998,67 115.001286,68.1192881 115.001286,69.5 C115.001286,70.8807119 113.881998,72 112.501286,72 C112.329862,72 112.162469,71.9827465 112.000747,71.9498814 L112.000747,67.0501186 C112.162469,67.0172535 112.329862,67 112.501286,67 Z M122.501286,67 C123.881998,67 125.001286,68.1192881 125.001286,69.5 C125.001286,70.8807119 123.881998,72 122.501286,72 C121.120574,72 120.001286,70.8807119 120.001286,69.5 C120.001286,68.1192881 121.120574,67 122.501286,67 Z M162.501286,67 C163.881998,67 165.001286,68.1192881 165.001286,69.5 C165.001286,70.8807119 163.881998,72 162.501286,72 C161.120574,72 160.001286,70.8807119 160.001286,69.5 C160.001286,68.1192881 161.120574,67 162.501286,67 Z M152.501286,67 C153.881998,67 155.001286,68.1192881 155.001286,69.5 C155.001286,69.9058092 154.904596,70.2890354 154.732998,70.6278976 C154.051266,69.2679805 153.118621,68.0558433 151.995883,67.0518909 C152.158366,67.0176789 152.327762,67 152.501286,67 Z M127.501286,61.6 C128.881998,61.6 130.001286,62.7192881 130.001286,64.1 C130.001286,65.4807119 128.881998,66.6 127.501286,66.6 C126.120574,66.6 125.001286,65.4807119 125.001286,64.1 C125.001286,62.7192881 126.120574,61.6 127.501286,61.6 Z M117.501286,61.6 C118.881998,61.6 120.001286,62.7192881 120.001286,64.1 C120.001286,65.4807119 118.881998,66.6 117.501286,66.6 C116.120574,66.6 115.001286,65.4807119 115.001286,64.1 C115.001286,62.7192881 116.120574,61.6 117.501286,61.6 Z M157.501286,61.6 C158.881998,61.6 160.001286,62.7192881 160.001286,64.1 C160.001286,65.4807119 158.881998,66.6 157.501286,66.6 C156.120574,66.6 155.001286,65.4807119 155.001286,64.1 C155.001286,62.7192881 156.120574,61.6 157.501286,61.6 Z M167.501286,61.6 C168.881998,61.6 170.001286,62.7192881 170.001286,64.1 C170.001286,65.4807119 168.881998,66.6 167.501286,66.6 C166.120574,66.6 165.001286,65.4807119 165.001286,64.1 C165.001286,62.7192881 166.120574,61.6 167.501286,61.6 Z M137.501286,61.6 C138.881998,61.6 140.001286,62.7192881 140.001286,64.1 C140.001286,64.3102245 139.975338,64.5143886 139.92647,64.7094641 C138.757909,65.1307581 137.673659,65.728635 136.705729,66.4706579 C135.715196,66.1386394 135.001286,65.202691 135.001286,64.1 C135.001286,62.7192881 136.120574,61.6 137.501286,61.6 Z M175.811129,62.2578705 C175.93564,62.8190273 176.001286,63.4018474 176.001286,64 L176.000514,66.0996034 C175.39373,65.6434648 175.001286,64.9175625 175.001286,64.1 C175.001286,63.3709841 175.313326,62.714849 175.811129,62.2578705 Z M147.501286,61.6 C148.881998,61.6 150.001286,62.7192881 150.001286,64.1 C150.001286,64.5773916 149.867477,65.0235304 149.635318,65.4029569 C148.233108,64.6557751 146.666392,64.1790319 145.003472,64.0413607 L145.001286,64.1 C145.001286,62.7192881 146.120574,61.6 147.501286,61.6 Z M142.501286,56 C143.881998,56 145.001286,57.1192881 145.001286,58.5 C145.001286,59.8807119 143.881998,61 142.501286,61 C141.120574,61 140.001286,59.8807119 140.001286,58.5 C140.001286,57.1192881 141.120574,56 142.501286,56 Z M122.501286,56 C123.881998,56 125.001286,57.1192881 125.001286,58.5 C125.001286,59.8807119 123.881998,61 122.501286,61 C121.120574,61 120.001286,59.8807119 120.001286,58.5 C120.001286,57.1192881 121.120574,56 122.501286,56 Z M152.501286,56 C153.881998,56 155.001286,57.1192881 155.001286,58.5 C155.001286,59.8807119 153.881998,61 152.501286,61 C151.120574,61 150.001286,59.8807119 150.001286,58.5 C150.001286,57.1192881 151.120574,56 152.501286,56 Z M162.501286,56 C163.881998,56 165.001286,57.1192881 165.001286,58.5 C165.001286,59.8807119 163.881998,61 162.501286,61 C161.120574,61 160.001286,59.8807119 160.001286,58.5 C160.001286,57.1192881 161.120574,56 162.501286,56 Z M170.932895,56.5530584 C172.495479,57.1700227 173.817275,58.2631225 174.718911,59.653887 L174.685551,59.7170635 C174.258172,60.4824412 173.44017,61 172.501286,61 C171.120574,61 170.001286,59.8807119 170.001286,58.5 C170.001286,57.7132206 170.364733,57.0113289 170.932895,56.5530584 Z M132.501286,56 C133.881998,56 135.001286,57.1192881 135.001286,58.5 C135.001286,59.8807119 133.881998,61 132.501286,61 C131.120574,61 130.001286,59.8807119 130.001286,58.5 C130.001286,57.1192881 131.120574,56 132.501286,56 Z M114.909905,57.8289891 C114.969615,58.0428927 115.001286,58.2677478 115.001286,58.5 C115.001286,59.8527609 113.926857,60.9545753 112.58481,60.998631 C113.087144,59.7555047 113.892952,58.6689809 114.909905,57.8289891 Z" id="shadow-with-outline" fill="#000000" fill-rule="nonzero"></path>
        <path d="M116,174 C116.98184,174 117.798433,174.707501 117.967777,175.640497 L118,176 L118,189.469443 C118,191.9716 120.0284,194 122.530557,194 C123.635127,194 124.530557,194.895431 124.530557,196 C124.530557,197.104569 123.635127,198 122.530557,198 C118.0241,198 114.333796,194.505629 114.021419,190.07866 L114,189.469443 L114,176 C114,174.895431 114.895431,174 116,174 Z" id="Highlight" fill="#FFFFFF" fill-rule="nonzero"></path>
    </g>
</svg>