<?xml version="1.0" encoding="UTF-8"?>
<svg width="288px" height="288px" viewBox="0 0 288 288" version="1.1" xmlns="http://www.w3.org/2000/svg" xmlns:xlink="http://www.w3.org/1999/xlink">
    <!-- Generator: Sketch 64 (93537) - https://sketch.com -->
    <title>System / Wavelink</title>
    <desc>Created with Sketch.</desc>
    <g id="System-/-Wavelink" stroke="none" stroke-width="1" fill="none" fill-rule="evenodd">
        <rect id="Background" fill="#1E183C" fill-rule="nonzero" x="0" y="0" width="288" height="288"></rect>
        <path d="M150.109795,79.4285714 C155.727109,79.4285714 160.321748,83.80716 160.666872,89.3374963 L160.687683,90.0064586 L160.685401,96.9234082 C162.199376,96.0173155 163.958776,95.4790133 165.840161,95.431941 C167.779839,92.9960449 170.774683,91.4285714 174.13563,91.4285714 C179.752943,91.4285714 184.347582,95.80716 184.692706,101.337496 L184.713517,102.006459 L184.71193,108.922993 C186.297859,107.974001 188.153049,107.428571 190.13563,107.428571 C195.178413,107.428571 199.397019,110.957293 200.456901,115.680191 C204.981986,116.67715 208.421734,120.581407 208.71854,125.337496 L208.739351,126.006459 L208.73707,132.923408 C210.251474,132.017059 212.011442,131.478708 213.893429,131.431901 C215.831507,128.996045 218.826351,127.428571 222.187298,127.428571 C227.804611,127.428571 232.39925,131.80716 232.744375,137.337496 L232.765185,138.006459 L232.763599,144.922993 C234.349528,143.974001 236.204717,143.428571 238.187298,143.428571 C243.804611,143.428571 248.39925,147.80716 248.744375,153.337496 L248.765185,154.006459 L248.765185,165.993541 C248.765185,171.835547 244.029304,176.571429 238.187298,176.571429 C232.569985,176.571429 227.975346,172.19284 227.630222,166.662504 L227.609411,165.993541 L227.611692,159.076592 C226.729741,159.604427 225.764505,160.007452 224.740385,160.261263 L224.739351,177.993541 C224.739351,183.835547 220.00347,188.571429 214.161464,188.571429 C208.544151,188.571429 203.949512,184.19284 203.604388,178.662504 L203.583577,177.993541 L203.585164,171.077007 C202.7034,171.604639 201.738402,172.007518 200.714551,172.261263 L200.713517,201.993541 C200.713517,207.835547 195.977635,212.571429 190.13563,212.571429 C184.518316,212.571429 179.923677,208.19284 179.578553,202.662504 L179.557743,201.993541 L179.560024,195.076592 C178.678073,195.604427 177.712836,196.007452 176.688716,196.261263 L176.687683,213.993541 C176.687683,219.835547 171.951801,224.571429 166.109795,224.571429 C160.492482,224.571429 155.897843,220.19284 155.552719,214.662504 L155.531908,213.993541 L155.533495,207.077007 C153.947566,208.025999 152.092377,208.571429 150.109795,208.571429 C144.492482,208.571429 139.897843,204.19284 139.552719,198.662504 L139.531908,197.993541 L139.530875,176.261263 C135.130965,175.170817 131.817925,171.326187 131.526885,166.662504 L131.506074,165.993541 L131.507661,159.077007 C130.625898,159.604639 129.660899,160.007518 128.637048,160.261263 L128.636014,189.993541 C128.636014,195.835547 123.900133,200.571429 118.058127,200.571429 C112.440814,200.571429 107.846175,196.19284 107.501051,190.662504 L107.48024,189.993541 L107.478585,183.078946 C105.96442,183.984261 104.205015,184.521792 102.323749,184.568159 C100.384887,187.005628 97.3914461,188.571429 94.0322928,188.571429 C88.4149796,188.571429 83.8203405,184.19284 83.4752164,178.662504 L83.4544057,177.993541 L83.4559924,171.077007 C81.9406747,171.983746 80.1795403,172.522059 78.2963388,172.568197 C76.3590528,175.005628 73.3656119,176.571429 70.0064586,176.571429 C64.3891453,176.571429 59.7945063,172.19284 59.4493821,166.662504 L59.4285714,165.993541 L59.4269164,159.078946 C57.8417011,160.026742 55.987689,160.571429 54.0064586,160.571429 C48.3891453,160.571429 43.7945063,156.19284 43.4493821,150.662504 L43.4285714,149.993541 L43.4285714,138.006459 C43.4285714,132.164453 48.1644528,127.428571 54.0064586,127.428571 C59.6237718,127.428571 64.2184108,131.80716 64.563535,137.337496 L64.5843457,138.006459 L64.5820644,144.923408 C65.4640155,144.395573 66.4292521,143.992548 67.453372,143.738737 L67.4544057,126.006459 C67.4544057,120.164453 72.190287,115.428571 78.0322928,115.428571 C83.649606,115.428571 88.2442451,119.80716 88.5893692,125.337496 L88.6101799,126.006459 L88.6085932,132.922993 C89.4903565,132.395361 90.4553552,131.992482 91.4792062,131.738737 L91.4802399,114.006459 C91.4802399,108.164453 96.2161213,103.428571 102.058127,103.428571 C107.67544,103.428571 112.270079,107.80716 112.615203,113.337496 L112.636014,114.006459 L112.633733,120.923408 C114.219815,119.97416 116.075256,119.428571 118.058127,119.428571 C123.10091,119.428571 127.319516,122.957293 128.379399,127.680191 C132.906508,128.679449 136.344318,132.582807 136.641038,137.337496 L136.661848,138.006459 L136.660262,144.922993 C137.542025,144.395361 138.507024,143.992482 139.530875,143.738737 L139.531908,90.0064586 C139.531908,84.1644528 144.26779,79.4285714 150.109795,79.4285714 Z M150.109795,84 C147.065707,84 144.550521,86.2644969 144.1569,89.2008267 L144.130833,89.4279965 L144.103337,90.0064586 L144.103337,197.993541 L144.130833,198.572003 C144.395898,201.345932 146.547615,203.569331 149.288037,203.944253 L149.531333,203.972504 L150.109795,204 L150.688258,203.972504 L151.251162,203.891695 C153.757003,203.40965 155.708745,201.37034 156.059816,198.820337 L156.088758,198.572003 L156.116254,197.993541 L156.116254,90.0064586 L156.088758,89.4279965 C155.797706,86.3821137 153.231937,84 150.109795,84 Z M174.13563,96 C171.091542,96 168.576355,98.2644969 168.182734,101.200827 L168.156667,101.427997 L168.129171,102.006459 L168.129171,185.993541 L168.156667,186.572003 C168.421732,189.345932 170.573449,191.569331 173.313871,191.944253 L173.557168,191.972504 L174.13563,192 L174.714092,191.972504 L175.276997,191.891695 C177.782838,191.40965 179.73458,189.37034 180.08565,186.820337 L180.114592,186.572003 L180.142088,185.993541 L180.142088,102.006459 L180.114592,101.427997 C179.82354,98.3821137 177.257771,96 174.13563,96 Z M102.058127,108 C99.0140389,108 96.4988525,110.264497 96.1052315,113.200827 L96.0791643,113.427997 L96.0516685,114.006459 L96.0516685,173.993541 L96.0791643,174.572003 C96.3442295,177.345932 98.4959463,179.569331 101.236368,179.944253 L101.479665,179.972504 L102.058127,180 L102.636589,179.972504 L103.199494,179.891695 C105.705335,179.40965 107.657077,177.37034 108.008147,174.820337 L108.03709,174.572003 L108.064586,173.993541 L108.064586,114.006459 L108.03709,113.427997 C107.746038,110.382114 105.180269,108 102.058127,108 Z M78.0322928,120 C74.9882047,120 72.4730182,122.264497 72.0793972,125.200827 L72.0533301,125.427997 L72.0258342,126.006459 L72.0258342,161.993541 L72.0533301,162.572003 C72.3183953,165.345932 74.470112,167.569331 77.210534,167.944253 L77.4538307,167.972504 L78.0322928,168 L78.6107548,167.972504 L79.1736598,167.891695 C81.6795007,167.40965 83.6312428,165.37034 83.982313,162.820337 L84.0112555,162.572003 L84.0387513,161.993541 L84.0387513,126.006459 L84.0112555,125.427997 C83.7202035,122.382114 81.1544344,120 78.0322928,120 Z M198.161464,120 C195.117376,120 192.602189,122.264497 192.208568,125.200827 L192.182501,125.427997 L192.155005,126.006459 L192.155005,161.993541 L192.182501,162.572003 C192.447566,165.345932 194.599283,167.569331 197.339705,167.944253 L197.583002,167.972504 L198.161464,168 L198.739926,167.972504 L199.302831,167.891695 C201.808672,167.40965 203.760414,165.37034 204.111484,162.820337 L204.140427,162.572003 L204.167922,161.993541 L204.167922,126.006459 L204.140427,125.427997 C203.849375,122.382114 201.283606,120 198.161464,120 Z M54.0064586,132 C50.9623705,132 48.447184,134.264497 48.053563,137.200827 L48.0274959,137.427997 L48,138.006459 L48,149.993541 L48.0274959,150.572003 C48.292561,153.345932 50.4442778,155.569331 53.1846998,155.944253 L53.4279965,155.972504 L54.0064586,156 L54.5849206,155.972504 L55.1478256,155.891695 C57.6536664,155.40965 59.6054085,153.37034 59.9564787,150.820337 L59.9854212,150.572003 L60.0129171,149.993541 L60.0129171,138.006459 L59.9854212,137.427997 C59.6943693,134.382114 57.1286002,132 54.0064586,132 Z M126.083961,132 C123.039873,132 120.524687,134.264497 120.131066,137.200827 L120.104999,137.427997 L120.077503,138.006459 L120.077503,149.993541 L120.104999,150.572003 C120.370064,153.345932 122.52178,155.569331 125.262203,155.944253 L125.505499,155.972504 L126.083961,156 L126.662423,155.972504 L127.225328,155.891695 C129.731169,155.40965 131.682911,153.37034 132.033981,150.820337 L132.062924,150.572003 L132.09042,149.993541 L132.09042,138.006459 L132.062924,137.427997 C131.771872,134.382114 129.206103,132 126.083961,132 Z M222.187298,132 C219.14321,132 216.628024,134.264497 216.234403,137.200827 L216.208335,137.427997 L216.18084,138.006459 L216.18084,149.993541 L216.208335,150.572003 C216.473401,153.345932 218.625117,155.569331 221.365539,155.944253 L221.608836,155.972504 L222.187298,156 L222.76576,155.972504 L223.328665,155.891695 C225.834506,155.40965 227.786248,153.37034 228.137318,150.820337 L228.166261,150.572003 L228.193757,149.993541 L228.193757,138.006459 L228.166261,137.427997 C227.875209,134.382114 225.30944,132 222.187298,132 Z" id="shadow-with-outline" fill="#000000" fill-rule="nonzero"></path>
        <path d="M150.109795,84 C153.231937,84 155.797706,86.3821137 156.088758,89.4279965 L156.116254,90.0064586 L156.116254,197.993541 L156.088758,198.572003 C155.834088,201.237151 153.837837,203.3941 151.251162,203.891695 L150.688258,203.972504 L150.109795,204 L149.531333,203.972504 C146.675818,203.699643 144.403694,201.427519 144.130833,198.572003 L144.103337,197.993541 L144.103337,90.0064586 L144.130833,89.4279965 C144.421885,86.3821137 146.987654,84 150.109795,84 Z M174.13563,96 C177.257771,96 179.82354,98.3821137 180.114592,101.427997 L180.142088,102.006459 L180.142088,185.993541 L180.114592,186.572003 C179.859922,189.237151 177.863671,191.3941 175.276997,191.891695 L174.714092,191.972504 L174.13563,192 L173.557168,191.972504 C170.701653,191.699643 168.429528,189.427519 168.156667,186.572003 L168.129171,185.993541 L168.129171,102.006459 L168.156667,101.427997 C168.447719,98.3821137 171.013488,96 174.13563,96 Z M102.058127,108 C105.180269,108 107.746038,110.382114 108.03709,113.427997 L108.064586,114.006459 L108.064586,173.993541 L108.03709,174.572003 C107.782419,177.237151 105.786168,179.3941 103.199494,179.891695 L102.636589,179.972504 L102.058127,180 L101.479665,179.972504 C98.6241499,179.699643 96.3520255,177.427519 96.0791643,174.572003 L96.0516685,173.993541 L96.0516685,114.006459 L96.0791643,113.427997 C96.3702163,110.382114 98.9359854,108 102.058127,108 Z M78.0322928,120 C81.1544344,120 83.7202035,122.382114 84.0112555,125.427997 L84.0387513,126.006459 L84.0387513,161.993541 L84.0112555,162.572003 C83.756585,165.237151 81.7603342,167.3941 79.1736598,167.891695 L78.6107548,167.972504 L78.0322928,168 L77.4538307,167.972504 C74.5983156,167.699643 72.3261913,165.427519 72.0533301,162.572003 L72.0258342,161.993541 L72.0258342,126.006459 L72.0533301,125.427997 C72.344382,122.382114 74.9101512,120 78.0322928,120 Z M198.161464,120 C201.283606,120 203.849375,122.382114 204.140427,125.427997 L204.167922,126.006459 L204.167922,161.993541 L204.140427,162.572003 C203.885756,165.237151 201.889505,167.3941 199.302831,167.891695 L198.739926,167.972504 L198.161464,168 L197.583002,167.972504 C194.727487,167.699643 192.455362,165.427519 192.182501,162.572003 L192.155005,161.993541 L192.155005,126.006459 L192.182501,125.427997 C192.473553,122.382114 195.039322,120 198.161464,120 Z M54.0064586,132 C57.1286002,132 59.6943693,134.382114 59.9854212,137.427997 L60.0129171,138.006459 L60.0129171,149.993541 L59.9854212,150.572003 C59.7307508,153.237151 57.7345,155.3941 55.1478256,155.891695 L54.5849206,155.972504 L54.0064586,156 L53.4279965,155.972504 C50.5724814,155.699643 48.3003571,153.427519 48.0274959,150.572003 L48,149.993541 L48,138.006459 L48.0274959,137.427997 C48.3185478,134.382114 50.8843169,132 54.0064586,132 Z M126.083961,132 C129.206103,132 131.771872,134.382114 132.062924,137.427997 L132.09042,138.006459 L132.09042,149.993541 L132.062924,150.572003 C131.808253,153.237151 129.812003,155.3941 127.225328,155.891695 L126.662423,155.972504 L126.083961,156 L125.505499,155.972504 C122.649984,155.699643 120.37786,153.427519 120.104999,150.572003 L120.077503,149.993541 L120.077503,138.006459 L120.104999,137.427997 C120.396051,134.382114 122.96182,132 126.083961,132 Z M222.187298,132 C225.30944,132 227.875209,134.382114 228.166261,137.427997 L228.193757,138.006459 L228.193757,149.993541 L228.166261,150.572003 C227.91159,153.237151 225.91534,155.3941 223.328665,155.891695 L222.76576,155.972504 L222.187298,156 L221.608836,155.972504 C218.753321,155.699643 216.481197,153.427519 216.208335,150.572003 L216.18084,149.993541 L216.18084,138.006459 L216.208335,137.427997 C216.499387,134.382114 219.065157,132 222.187298,132 Z" id="Icon-fill" fill="#FFFFFF" fill-rule="nonzero" opacity="0.9"></path>
    </g>
</svg>