<svg xmlns="http://www.w3.org/2000/svg" viewBox="0 0 144 144">
    <rect id="background" width="144" height="144" x="0" y="0" fill="#1E183C" fill-rule="nonzero" />
    <g id="icon">
        <path id="shadow-with-outline" fill="#000" fill-rule="nonzero" d="M62.825045,35.7646374 L66.1982835,39.9813664 C67.1993185,40.2861686 68.1219945,40.8858243 68.825045,41.7646374 L95.825045,75.5146375 L96.302178,76.2306635 C97.373875,78.278332 97.1572225,80.5648875 95.825045,82.230109 L68.825045,115.980109 L68.285834,116.554296 C66.208325,118.374376 63.307393,118.449346 61.2701395,116.819543 C59.751287,115.604461 59.066283,113.733353 59.296159,111.935502 C57.881957,112.125906 56.4348925,111.751345 55.2701395,110.819543 C52.9521065,108.965117 52.576279,105.58267 54.4307055,103.264638 L78.738751,72.871249 L54.4305935,42.4799694 L53.9888865,41.8280083 C52.669237,39.4016404 53.2328855,36.5550063 55.2701395,34.9252034 C57.5881725,33.0707771 60.970619,33.4466045 62.825045,35.7646374 Z M56.5195295,36.486941 C56.4640205,36.5313482 56.4102855,36.5771508 56.358334,36.6242587 C55.197158,37.6751183 54.924891,39.3771133 55.6532365,40.7257173 L55.989754,41.2334079 L81.2984365,72.875062 L55.989754,104.516716 C54.825347,105.972225 55.0613315,108.096087 56.5168405,109.260494 C57.8106265,110.295523 59.6324935,110.224069 60.8391805,109.173162 L61.2606185,108.733408 L88.2606185,74.983408 C89.105839,73.9268825 89.2265845,72.489159 88.622856,71.32372 L88.2606185,70.7667165 L63.5339,39.8587051 C63.535405,39.8583936 63.5369105,39.8580827 63.5384155,39.8577725 L61.2633075,37.0140275 C60.0989005,35.5585184 57.9750385,35.3225338 56.5195295,36.486941 Z" />
        <path id="Icon-Fill" fill="#FFF" fill-rule="nonzero" d="M108.510557,57.2667782 C109.545585,58.5605642 109.474132,60.3824312 108.423224,61.5891182 L107.98347,62.0105562 L74.2334703,89.0105562 C73.1769448,89.8557767 71.7392218,89.9765222 70.5737828,89.3727937 L70.0167788,89.0105562 L36.2667788,62.0105562 C34.8112698,60.8461492 34.5752851,58.7222872 35.7396924,57.2667782 C36.774721,55.9729922 38.5678372,55.6427812 39.9757798,56.4031742 L40.4834704,56.7396917 L72.1251248,82.0483742 L103.766779,56.7396917 C105.222288,55.5752847 107.34615,55.8112692 108.510557,57.2667782 Z" opacity=".9" transform="matrix(0 1 1 0 -.75 .75)" />
    </g>
</svg>