<svg xmlns="http://www.w3.org/2000/svg" viewBox="0 0 144 144">
    <polygon id="background" fill="#1E183C" points="0 0 144 0 144 144 0 144" />
    <g id="icon">
        <path fill="#000" d="M88.71365,34.678 C90.1985,35.8659 90.9005,37.7002 90.66115,39.547 C92.0585,39.36315 93.5258,39.72775 94.71365,40.678 C96.6583,42.23375 97.26025,44.8982 96.1632,47.2475 L95.9949,47.58085 L95.5532,48.2328 L71.2453,78.62465 L95.55305,109.01745 C97.4075,111.33545 97.03165,114.71795 94.71365,116.57235 C92.7734,118.12455 90.04975,118.1305 88.00015,116.55525 L87.69795,116.3071 L87.15875,115.73295 L83.75265,111.47775 C83.16955,111.29155 82.6048,111.00485 82.0819,110.617 L81.6979,110.3071 L81.15875,109.73295 L54.15875,75.98295 C52.9049,74.41565 52.63925,72.298 53.5058,70.34715 L53.6816,69.9835 L54.15875,69.2675 L81.15875,35.5175 C83.01315,33.19945 86.3956,32.8236 88.71365,34.678 L88.71365,34.678 Z" />
        <path fill="#FFF" d="M87.7334,108.7605 C86.4396,109.7955 84.61775,109.72405 83.41105,108.67315 L82.98965,108.2334 L55.98965,74.4834 C55.1444,73.4269 55.02365,71.98915 55.6274,70.8237 L55.98965,70.2667 L82.98965,36.5167 C84.15405,35.0612 86.2779,34.8252 87.7334,35.98965 C89.0272,37.02465 89.3574,38.81775 88.597,40.2257 L88.2605,40.7334 L62.9518,72.37505 L88.2605,104.0167 C89.4249,105.4722 89.1889,107.5961 87.7334,108.7605 Z" opacity=".9" />
    </g>
</svg>