<svg xmlns="http://www.w3.org/2000/svg" viewBox="0 0 144 144">
    <rect id="background" width="144" height="144" x="0" y="0" fill="#1E183C" fill-rule="nonzero" />
    <path id="shadow-with-outline" fill="#000" fill-rule="nonzero" d="M64.755351,41.9549124 C66.2019115,43.1957433 66.773418,45.096544 66.3539565,46.8846753 C67.8516585,46.5302801 69.495198,46.873978 70.755351,47.9549124 C72.61846,49.5530506 73.029999,52.2459705 71.742314,54.3829195 L71.546773,54.684238 L71.2948855,55.0055865 L67.4366105,59.49791 L96.25,59.5 C98.2532875,59.5 99.912617,60.9726595 100.204461,62.8944515 L100.239028,63.2014755 L100.25,63.5 L100.24861,65.49991 L102.25,65.5 C104.253287,65.5 105.912617,66.9726595 106.204461,68.8944515 L106.239028,69.2014755 L106.25,69.5 L106.25,101.625 C106.25,104.179317 104.179317,106.25 101.625,106.25 C99.177113,106.25 97.1733965,104.348279 97.01067,101.941656 L97,101.625 L97.001332,100.041759 C96.566574,100.177091 96.1043015,100.25 95.625,100.25 C93.177113,100.25 91.1733965,98.348279 91.01067,95.941656 L91,95.625 L90.9986105,74.74791 L62.302,74.748 L71.297477,85.2474365 C72.806776,87.0095935 72.8848445,89.540019 71.538209,91.4290675 L71.300579,91.7377285 L71.050399,92.0186345 L70.7525635,92.297477 C68.892509,93.890626 66.1764515,93.8891015 64.2622715,92.300579 L63.9813655,92.050399 L63.702523,91.7525635 L59.7859805,87.1810645 C59.265943,86.9897535 58.767916,86.7102405 58.3135835,86.342627 L57.9813655,86.050399 L57.702523,85.7525635 L39.1646106,64.1089295 L57.7049125,42.494649 C59.502793,40.39868 62.659382,40.1570317 64.755351,41.9549124 Z M63.4532105,43.4729475 C62.274228,42.4616396 60.535934,42.5258645 59.434408,43.5740582 L59.2229475,43.7967894 L41.7987664,64.1098965 L59.221514,84.451538 L59.432811,84.6744245 C60.4601835,85.653493 62.0428805,85.7758235 63.2085005,84.966256 L63.451538,84.778486 L63.6744245,84.567189 C64.653493,83.5398165 64.7758235,81.9571195 63.966256,80.7914995 L63.778486,80.548462 L51.9587665,66.7499461 L93,66.75 L93,95.625 C93,97.0747475 94.1752525,98.25 95.625,98.25 C96.9841385,98.25 98.102021,97.217063 98.2364475,95.893391 L98.25,95.625 L98.25,63.5 C98.25,62.4743285 97.4779195,61.6289855 96.4832425,61.5134555 L96.25,61.5 L51.9387665,61.499946 L63.7770525,47.7032106 L63.965001,47.460311 C64.8333115,46.2120695 64.632193,44.4842554 63.4532105,43.4729475 Z" />
    <path id="Icon-Fill" fill="#FFF" fill-rule="nonzero" d="M63.4532105,43.4729475 C64.632193,44.4842554 64.8333115,46.2120695 63.965001,47.460311 L63.7770525,47.7032106 L51.9387665,61.499946 L96.25,61.5 C97.3545695,61.5 98.25,62.3954305 98.25,63.5 L98.25,95.625 C98.25,97.0747475 97.0747475,98.25 95.625,98.25 C94.1752525,98.25 93,97.0747475 93,95.625 L93,66.75 L51.9587665,66.7499461 L63.778486,80.548462 C64.788928,81.7281865 64.7234265,83.466433 63.6744245,84.567189 L63.451538,84.778486 C62.2718135,85.788928 60.533567,85.7234265 59.432811,84.6744245 L59.221514,84.451538 L41.7987664,64.1098965 L59.2229475,43.7967894 C60.301676,42.539208 62.195629,42.394219 63.4532105,43.4729475 Z" opacity=".9" />
</svg>