<svg xmlns="http://www.w3.org/2000/svg" viewBox="0 0 144 144">
    <rect id="background" width="144" height="144" x="0" y="0" fill="#1E183C" fill-rule="nonzero" />
    <path id="shadow-with-outline" fill="#000" fill-rule="nonzero" stroke="#000" d="M73.918979,33.4761449 C75.124652,33.4567611 76.3363075,33.8842801 77.2841695,34.7590956 L77.2841695,34.7590956 L81.078289,38.4812733 C81.942903,37.8617934 82.902685,37.5408751 83.847789,37.4986984 C84.972607,37.4485017 86.0789555,37.7926654 86.9892525,38.5078022 L86.9892525,38.5078022 L87.3845895,38.8544026 L111.646147,62.6809105 C113.419382,64.4223485 114.440458,66.7850975 114.497477,69.2640355 L114.497477,69.2640355 L114.5,104.689655 C114.5,106.001206 113.978834,107.191026 113.132324,108.063348 C112.281537,108.940078 111.102069,109.495974 109.792781,109.532562 L109.792781,109.532562 L58.3448275,109.534483 C57.157635,109.534483 56.0702175,109.107411 55.227681,108.398659 C54.375222,107.681561 53.7738125,106.675867 53.5731105,105.532327 L53.57311,105.532327 L48.3448276,105.534483 C47.0953684,105.534483 45.9564055,105.061469 45.0971485,104.284829 C44.2263303,103.497738 43.6430975,102.39865 43.5229637,101.164022 L43.5229637,101.164022 L43.5,100.702075 L43.5,65.483523 C43.5,62.9981725 44.4703137,60.614128 46.1990215,58.836502 L46.1990215,58.836502 L70.6053215,34.8643106 C71.5269075,33.9592501 72.719957,33.4967664 73.918979,33.4761449 Z M74.1155915,35.433937 C73.3227955,35.433937 72.5420065,35.8391076 71.8266935,36.3581592 L47.4062474,60.485977 C46.1884381,61.681952 45.5369929,63.5971475 45.4904868,65.489582 L45.4904868,100.689655 C45.4904868,101.301045 45.758404,102.098419 46.3321402,102.689713 C46.7742505,103.145354 47.4044171,103.466196 48.3534968,103.5 L99.563133,103.5 C100.288605,103.5 101.802673,102.987673 102.631092,102.2311 L102.631092,63.374688 C102.105988,62.2185565 101.254459,61.091142 100.33344,60.1516105 L75.924692,36.325584 C75.342308,35.6981744 74.731782,35.433937 74.1155915,35.433937 Z M82.1139985,79.00403 L89.4984895,79.0057305 C90.1888455,79.0057305 90.8138455,79.2855525 91.2662565,79.7379635 C91.7186675,80.1903745 91.9984895,80.8153745 91.9984895,81.5057645 L91.9984895,81.5057645 L91.997466,96.5116885 L82.1139985,96.5116885 L82.1139985,79.00403 Z M73.0862685,45.0158218 C73.3745515,44.7854315 73.9356565,44.811836 74.598598,45.2044155 C75.3253555,45.6347858 76.1415545,46.3980513 76.281132,46.5317851 L76.281132,46.5317851 L81.1544505,50.935993 L62.659981,69.102183 C62.586184,69.1746565 62.535624,69.266325 62.5131655,69.365605 L62.5131655,69.365605 L62.499753,96.511686 L54.1715955,96.511686 C53.603571,96.511686 53.0613225,96.1857225 52.6150165,95.6686075 L52.6150165,95.6686075 L52.6150165,65.8335415 C52.799127,65.096326 53.433548,64.402592 53.992575,63.8228195 C54.065488,63.7472 54.1364905,63.673578 54.2039225,63.6020645 L54.2039225,63.6020645 L73.0862685,45.0158218 Z" />
    <path id="Icon-Fill" fill="#FFF" fill-rule="nonzero" d="M75.642976,36.6479974 L99.8944455,60.464597 C101.241288,61.787289 102,63.5958 102,65.483523 L102,100.689655 C102,101.984668 100.950185,103.034483 99.6551725,103.034483 L48.3448276,103.034483 C47.049815,103.034483 46,101.984668 46,100.689655 L46,65.483523 C46,63.5958 46.758712,61.787289 48.1055547,60.464597 L72.357024,36.6479974 C73.2691835,35.7521943 74.7308165,35.7521943 75.642976,36.6479974 Z M72.59857,44.8184311 L52.3096405,64.7454455 C52.1511885,64.9010565 52.0480895,65.1023915 52.0131885,65.3188355 L52,65.483523 L52,95.034 C52,96.1385695 52.8954305,97.034 54,97.034 L67.5651355,97.034 L67.5651355,77.5057305 C67.5651355,76.401161 68.460566,75.5057305 69.5651355,75.5057305 L79.4984895,75.5057305 C80.603059,75.5057305 81.4984895,76.401161 81.4984895,77.5057305 L81.4984895,97.034 L94,97.034 C95.1045695,97.034 96,96.1385695 96,95.034 L96,65.483523 C96,65.261438 95.928592,65.046808 95.798619,64.8702485 L95.6903595,64.7454455 L75.40143,44.8184311 C74.623395,44.0542747 73.376605,44.0542747 72.59857,44.8184311 Z" opacity=".9" />
</svg>