<svg xmlns="http://www.w3.org/2000/svg" viewBox="0 0 144 144">
    <rect id="background" width="144" height="144" x="0" y="0" fill="#1E183C" fill-rule="nonzero" />
    <path id="shadow-with-outline" fill="#000" fill-rule="nonzero" d="M92.5,43 C102.412327,43 110.854632,47.1938715 115.977098,54.33709 C122.914426,59.3173815 127.250112,67.510451 127.250112,77.75 C127.250112,94.764187 115.243047,106.717997 99.1298475,106.514111 L98.5,106.5 L91,106.5 C89.440608,106.5 88.1591025,105.310224 88.013733,103.78892 L88,103.5 L88,100.4995 L85,100.5 C83.440608,100.5 82.1591025,99.310224 82.013733,97.78892 L82,97.5 L82,92.75 C82,91.190608 83.189776,89.9091025 84.71108,89.763733 L85,89.75 L92.5,89.75 C102.441125,89.75 110.5,81.6911255 110.5,71.75 C110.5,68.3186 109.537373,65.104689 107.865411,62.3693435 C105.524153,60.9398965 102.830311,60.0310265 99.9416795,59.8058605 L99.4237785,59.772952 L98.5,59.75 L91,59.75 C89.440608,59.75 88.1591025,58.560224 88.013733,57.03892 L88,56.75 L88,53.7495 L85,53.75 C83.440608,53.75 82.1591025,52.560224 82.013733,51.03892 L82,50.75 L82,46 C82,44.4406077 83.189776,43.1591027 84.71108,43.0137332 L85,43 L92.5,43 Z M58.2501115,43 L58.5390315,43.0137332 C59.965254,43.1500171 61.1000945,44.2848576 61.2363785,45.71108 L61.2501115,46 L61.25,48.9995 L64.2501115,49 C65.681506,49 66.894376,50.0071555 67.188606,51.4211245 L67.234996,51.7091645 L67.2501115,52 L67.2501115,56.75 C67.2501115,58.1813945 66.242956,59.3942645 64.828987,59.6884945 L64.540947,59.7348845 L64.2501115,59.75 L56.774625,59.7496995 L55.850913,59.772047 C46.2947368,60.2417565 38.7501115,68.1435885 38.7501115,77.75 C38.7501115,81.179741 39.7108053,84.3893285 41.3789224,87.1210745 C43.9676216,88.702761 46.9866703,89.6487205 50.219387,89.742326 L50.7501115,89.75 L58.2501115,89.75 L58.5390315,89.763733 C59.965254,89.900017 61.1000945,91.0348575 61.2363785,92.46108 L61.2501115,92.75 L61.25,95.7495 L64.2501115,95.75 C65.681506,95.75 66.894376,96.7571555 67.188606,98.1711245 L67.234996,98.4591645 L67.2501115,98.75 L67.2501115,103.5 C67.2501115,104.931394 66.242956,106.144265 64.828987,106.438495 L64.540947,106.484885 L64.2501115,106.5 L56.7821795,106.499486 C46.9068417,106.816329 38.5215759,102.609022 33.3926667,95.470531 C26.3770036,90.450552 22,82.02262 22,71.75 C22,54.683827 34.043935,43.3024917 50.105524,43.0059375 L50.7501115,43 L58.2501115,43 Z M84.3439265,45.2452831 C84.2964015,45.2866318 84.252819,45.3323957 84.213819,45.3819357 L84.1889365,45.414916 L84.1889365,45.414916 L84.141834,45.4863321 L84.141834,45.4863321 L84.1114015,45.540861 L84.1114015,45.540861 L84.0793865,45.6088657 L84.0793865,45.6088657 L84.0489935,45.6899566 L84.0489935,45.6899566 L84.0239,45.7816914 L84.0239,45.7816914 L84.0151665,45.8255361 L84.0038455,45.9116964 L84.0038455,45.9116964 L84,46 L84,50.75 L84.003016,50.828248 L84.003016,50.828248 L84.0135185,50.9148195 L84.0135185,50.9148195 L84.029959,50.9939145 L84.029959,50.9939145 L84.055243,51.078601 L84.055243,51.078601 L84.0817005,51.1465305 L84.0817005,51.1465305 L84.1161135,51.2181285 L84.1161135,51.2181285 L84.144794,51.2685705 L84.144794,51.2685705 L84.195194,51.343647 L84.195194,51.343647 L84.2279135,51.3855615 L84.2279135,51.3855615 L84.2360615,51.3953225 C84.299895,51.470802 84.3746535,51.5366545 84.45792,51.5904695 L84.5048535,51.619007 L84.5048535,51.619007 L84.566841,51.651573 L84.566841,51.651573 L84.6333695,51.6806535 L84.6333695,51.6806535 L84.6899565,51.7010065 L84.6899565,51.7010065 L84.7816915,51.7261 L84.7816915,51.7261 L84.825536,51.7348335 L84.9116965,51.7461545 L84.9116965,51.7461545 L85,51.75 L92.5245135,51.7503005 L93.497385,51.7744585 C101.857608,52.185384 108.831275,57.713488 111.420554,65.25473 L111.5522,65.651708 L111.647037,65.956514 L111.747677,66.3005605 L111.833922,66.615445 L111.908484,66.90555 L111.908484,66.90555 L111.948317,67.0684525 C112.006816,67.3121545 112.060831,67.557469 112.110288,67.8043665 L112.159212,68.057077 L112.220321,68.4006885 L112.274703,68.7406675 L112.315889,69.0272665 L112.315889,69.0272665 L112.339089,69.203288 C112.362116,69.384189 112.382727,69.565879 112.400885,69.7482915 L112.426277,70.0224435 L112.448926,70.3110985 L112.471055,70.665897 L112.488792,71.0748115 L112.488792,71.0748115 L112.492758,71.2071245 L112.497491,71.4303525 L112.5,71.75 C112.5,71.9990335 112.495448,72.2470035 112.486424,72.493832 L112.474902,72.760782 L112.474902,72.760782 L112.459914,73.026611 C112.442903,73.296595 112.420567,73.564822 112.39299,73.831494 C112.3784,73.97259 112.362339,74.113288 112.344825,74.2535345 L112.321155,74.4362365 L112.321155,74.4362365 L112.273162,74.772096 L112.273162,74.772096 L112.220268,75.102372 L112.220268,75.102372 L112.189712,75.278611 L112.13122,75.592582 L112.13122,75.592582 L112.067897,75.9046425 L111.991512,76.250895 L111.931083,76.505941 L111.833258,76.8902875 L111.766628,77.1352125 L111.654043,77.52353 L111.556832,77.837057 L111.459744,78.1332175 L111.354828,78.4368155 L111.25326,78.716522 L111.145726,78.999266 L111.00624,79.3479865 L110.902513,79.595591 L110.784707,79.8659875 L110.708521,80.035243 L110.58367,80.30387 L110.44966,80.581119 L110.311973,80.8551065 L110.177454,81.1130765 L110.089033,81.277801 L109.931264,81.5628675 L109.785122,81.8175195 L109.583211,82.155738 L109.400136,82.449894 L109.234626,82.7064195 L109.075584,82.945102 L108.806596,83.332684 L108.561641,83.669466 L108.336885,83.966051 L108.167897,84.181748 L107.954988,84.4451335 L107.765698,84.67189 L107.765698,84.67189 L107.601829,84.8628525 L107.472228,85.010521 L107.269891,85.235378 C107.162108,85.35336 107.053038,85.469933 106.942603,85.5851865 L106.731463,85.8022445 L106.731463,85.8022445 L106.517149,86.016034 C106.345514,86.1846905 106.170954,86.3501785 105.993456,86.512508 C105.869691,86.625698 105.744413,86.737425 105.617737,86.8475835 L105.503923,86.9458115 L105.203421,87.198169 L105.203421,87.198169 L105.039146,87.3319665 L104.658012,87.6315525 L104.658012,87.6315525 C104.089646,88.0673205 103.497154,88.473301 102.882919,88.847119 L102.511873,89.0674825 C102.338024,89.1682075 102.162555,89.2663695 101.985495,89.3619325 L101.718712,89.503323 L101.441953,89.644598 L101.081464,89.8205685 L100.747449,89.9756975 L100.509584,90.081635 L100.22054,90.205391 L99.860407,90.352099 L99.598485,90.453685 L99.3395205,90.549966 L99.1528785,90.6168295 L98.8498155,90.7209525 L98.552949,90.8176835 L98.2748485,90.903646 L97.983084,90.98906 L97.6860415,91.0710665 L97.402022,91.1448645 L97.0858165,91.2217855 L96.7813145,91.2907035 L96.465989,91.3568005 L96.1669325,91.4145855 L95.860813,91.468842 L95.6857115,91.4976695 L95.376166,91.54473 L95.0384735,91.59043 L94.865997,91.611517 L94.5357155,91.647671 L94.232775,91.67598 L94.084861,91.6881245 L93.7656375,91.710602 L93.4103795,91.729649 L93.008368,91.743665 L92.5,91.75 L85,91.75 L84.9490435,91.751276 L84.9490435,91.751276 L84.8717985,91.7581415 L84.8717985,91.7581415 L84.8104205,91.767946 L84.8104205,91.767946 L84.7560855,91.779959 L84.7560855,91.779959 L84.671399,91.805243 L84.671399,91.805243 L84.6034695,91.8317005 L84.6034695,91.8317005 L84.5318715,91.8661135 L84.5318715,91.8661135 L84.469151,91.902377 L84.469151,91.902377 L84.409924,91.9425675 L84.409924,91.9425675 L84.3439265,91.995283 C84.2812335,92.0498285 84.225402,92.1120565 84.177899,92.180501 L84.130993,92.2548535 L84.130993,92.2548535 L84.1114015,92.290861 L84.1114015,92.290861 L84.078127,92.3618395 L84.078127,92.3618395 L84.0493165,92.4389665 L84.0493165,92.4389665 L84.0239,92.5316915 L84.0239,92.5316915 L84.0151665,92.575536 L84.0038455,92.6616965 L84.0038455,92.6616965 L84,92.75 L84,97.5 C84,97.5263075 84.001016,97.5523775 84.0030105,97.5781735 L84,97.5 C84,97.52969 84.001294,97.5590775 84.0038285,97.58811 L84.015252,97.674951 L84.015252,97.674951 L84.029959,97.7439145 L84.029959,97.7439145 L84.055243,97.828601 L84.055243,97.828601 L84.0817005,97.8965305 L84.0817005,97.8965305 L84.1161135,97.9681285 L84.1161135,97.9681285 L84.144794,98.0185705 L84.144794,98.0185705 L84.213819,98.118064 L84.213819,98.118064 L84.2364995,98.1458395 L84.2364995,98.1458395 C84.2789785,98.1960045 84.326301,98.241919 84.377747,98.2828655 L84.482868,98.3560785 L84.482868,98.3560785 L84.5413535,98.3888535 L84.5413535,98.3888535 L84.6118395,98.421873 L84.6118395,98.421873 L84.6899565,98.4510065 L84.6899565,98.4510065 L84.7816915,98.4761 L84.7816915,98.4761 L84.825536,98.4848335 L84.9116965,98.4961545 L84.9116965,98.4961545 L85,98.5 L92.532068,98.5005145 C107.85997,98.992299 119.250112,87.859599 119.250112,71.75 C119.250112,63.1778635 116.028783,56.1706295 110.716956,51.48139 L110.516723,51.3063945 L110.516723,51.3063945 L110.32723,51.144494 L110.32723,51.144494 L110.097819,50.953111 L110.097819,50.953111 L109.809205,50.7186795 L109.809205,50.7186795 L109.477463,50.458391 L109.477463,50.458391 L109.345065,50.356894 L109.345065,50.356894 L109.148445,50.2091 L109.148445,50.2091 L108.853928,49.9931356 L108.853928,49.9931356 L108.480646,49.7291873 L108.480646,49.7291873 L108.170396,49.5175105 L108.170396,49.5175105 L107.874532,49.3219903 L107.874532,49.3219903 L107.462059,49.059425 L107.462059,49.059425 L107.154054,48.8706703 L107.154054,48.8706703 L106.808299,48.6659792 L106.808299,48.6659792 L106.438137,48.4549957 L106.438137,48.4549957 L106.062798,48.2494198 L106.062798,48.2494198 L105.749893,48.0841966 L105.749893,48.0841966 L105.397543,47.9048353 L104.96744,47.6949848 L104.96744,47.6949848 C104.743209,47.588119 104.516943,47.4842816 104.288692,47.3834898 L103.84845,47.1939323 L103.84845,47.1939323 L103.498959,47.0501334 L103.498959,47.0501334 L103.148001,46.9115332 L103.148001,46.9115332 L102.666005,46.7305223 L102.666005,46.7305223 L102.19556,46.5638772 L102.19556,46.5638772 L101.847725,46.4469328 L101.847725,46.4469328 L101.465494,46.3243731 L101.465494,46.3243731 L101.115065,46.2173948 L101.115065,46.2173948 L100.745071,46.1099122 L100.745071,46.1099122 L100.295117,45.9866594 L100.295117,45.9866594 L99.8714805,45.8779071 L99.8714805,45.8779071 L99.51495,45.7917625 L99.51495,45.7917625 L98.994388,45.6746415 L98.994388,45.6746415 L98.623896,45.5974292 L98.623896,45.5974292 L98.252884,45.5251375 L98.252884,45.5251375 L98.0509785,45.4878801 L98.0509785,45.4878801 L97.6280555,45.414551 L97.6280555,45.414551 L97.32673,45.3661473 L97.32673,45.3661473 L96.9376985,45.3083107 L96.9376985,45.3083107 L96.4406145,45.2419435 L96.4406145,45.2419435 L96.021099,45.1924102 L96.021099,45.1924102 L95.6253685,45.1510412 L95.6253685,45.1510412 L95.423365,45.1319064 L95.423365,45.1319064 L94.9964715,45.0958317 L94.9964715,45.0958317 L94.7058295,45.0746289 L94.7058295,45.0746289 L94.3317295,45.0512983 L94.3317295,45.0512983 L93.8556,45.0279851 L93.8556,45.0279851 L93.3710295,45.0115088 L93.3710295,45.0115088 L92.931338,45.0028126 L92.5,45 L92.5,45 L85,45 L84.9490435,45.0012758 L84.9490435,45.0012758 L84.8717985,45.0081415 L84.8717985,45.0081415 L84.8104205,45.0179462 L84.8104205,45.0179462 L84.7560855,45.0299592 L84.7560855,45.0299592 L84.671399,45.0552428 L84.671399,45.0552428 L84.6034695,45.0817007 L84.6034695,45.0817007 L84.5328805,45.1155791 L84.5328805,45.1155791 L84.4819465,45.1444799 L84.4819465,45.1444799 L84.406353,45.1951941 L84.406353,45.1951941 L84.3439265,45.2452831 Z M58.2501115,45 L50.7501115,45 L50.29195,45.0031739 C35.3622492,45.2103922 24.2246158,55.548139 24.0033561,71.2718795 L24.0006505,71.9606835 L24.0006505,71.9606835 L24.0045511,72.306451 L24.0045511,72.306451 C24.0117125,72.7432735 24.0273089,73.1763635 24.0511876,73.6055565 L24.0873642,74.1678855 L24.0873642,74.1678855 L24.1296557,74.6883095 L24.1296557,74.6883095 L24.1712971,75.1203045 L24.1712971,75.1203045 L24.2163515,75.530021 L24.2163515,75.530021 L24.2801803,76.0405345 L24.2801803,76.0405345 L24.3404495,76.469044 L24.3404495,76.469044 L24.4044302,76.88214 L24.4044302,76.88214 L24.4862267,77.362594 L24.4862267,77.362594 L24.5613007,77.766815 L24.5613007,77.766815 L24.6605532,78.258877 L24.6605532,78.258877 L24.6969933,78.4293965 L24.6969933,78.4293965 L24.752498,78.6800645 L24.752498,78.6800645 L24.8379399,79.0469405 L24.8379399,79.0469405 L24.9594493,79.5348645 L24.9594493,79.5348645 L25.0727526,79.9598115 L25.0727526,79.9598115 L25.1876315,80.365745 L25.3284148,80.8340615 L25.3284148,80.8340615 L25.4596818,81.245861 L25.4596818,81.245861 L25.5801709,81.6054815 L25.5801709,81.6054815 L25.7463118,82.0761425 L25.7463118,82.0761425 L25.8739386,82.4201235 L25.8739386,82.4201235 L26.0107149,82.7736855 L26.0107149,82.7736855 L26.200455,83.241085 L26.200455,83.241085 L26.3600319,83.6156165 L26.3600319,83.6156165 L26.5153639,83.9655625 L26.5153639,83.9655625 L26.6814886,84.325312 L26.6814886,84.325312 L26.8774914,84.732231 L26.8774914,84.732231 L27.0894225,85.1528745 L27.0894225,85.1528745 L27.2661104,85.4895805 L27.2661104,85.4895805 C27.3780797,85.6991595 27.4926866,85.9066475 27.6098969,86.112017 L27.8823167,86.577717 L27.8823167,86.577717 L28.1073738,86.945964 L28.1073738,86.945964 L28.3286329,87.2946395 L28.3286329,87.2946395 L28.5363734,87.610801 L28.5363734,87.610801 C28.6715219,87.813112 28.8093977,88.0130615 28.9499452,88.2105925 L29.2367699,88.6053575 L29.2367699,88.6053575 C29.4683815,88.9175665 29.7069001,89.223557 29.9520955,89.523099 L30.2695826,89.9029825 L30.2695826,89.9029825 L30.3481635,89.994615 C35.0962136,95.504496 42.1744341,98.6906935 50.4124055,98.5087935 L50.7180435,98.5005145 L58.2501115,98.5 L58.3247425,98.497257 C58.816301,98.4609915 59.209044,98.0693865 59.2470895,97.578325 L59.2501115,97.5 L59.2501115,92.75 L59.2473685,92.675369 L59.2426045,92.626855 L59.2426045,92.626855 L59.234,92.5702485 L59.224599,92.524572 L59.224599,92.524572 L59.2002935,92.437438 L59.2002935,92.437438 L59.166525,92.3491355 L59.166525,92.3491355 L59.15876,92.3318595 C59.1374155,92.2855545 59.112638,92.2411625 59.0847535,92.1990075 L59.028695,92.122404 L59.028695,92.122404 L58.9771085,92.0633555 L58.9771085,92.0633555 L58.92974,92.016438 L58.92974,92.016438 L58.8625605,91.9594305 L58.8625605,91.9594305 L58.798428,91.913594 L58.798428,91.913594 C58.75603,91.8857575 58.711493,91.861097 58.665084,91.8398995 L58.574381,91.8037475 L58.574381,91.8037475 L58.493025,91.779708 L58.493025,91.779708 L58.4245755,91.7651665 L58.338415,91.7538455 L58.338415,91.7538455 L58.2501115,91.75 L50.7501115,91.75 L50.2417435,91.743665 L49.8993966,91.732234 L49.8993966,91.732234 L49.558687,91.7150995 L49.2883507,91.697395 L49.2883507,91.697395 L48.9630666,91.6712485 L48.6346571,91.6394495 L48.4120401,91.6147885 L48.2731376,91.5981235 L47.9025788,91.5488325 L47.5746119,91.499301 L47.3948425,91.469779 L47.0838562,91.414711 L47.0838562,91.414711 L46.7536705,91.3506495 L46.7536705,91.3506495 L46.4559636,91.2879005 L46.4559636,91.2879005 L46.107439,91.208359 L45.9112935,91.160679 L45.6007489,91.0808495 L45.6007489,91.0808495 L45.2761815,90.9916615 L44.9465148,90.8949665 L44.6133661,90.7909025 L44.3110225,90.690849 C36.4243264,88.0104295 30.7501115,80.5428565 30.7501115,71.75 C30.7501115,61.182662 38.9658801,52.472238 49.4348031,51.7925895 L49.7527267,51.7744585 L50.7255985,51.7503005 L58.2501115,51.75 L58.3247425,51.747257 C58.816301,51.7109915 59.209044,51.3193865 59.2470895,50.828325 L59.2501115,50.75 L59.2501115,46 L59.2473685,45.9253688 L59.2426045,45.8768551 L59.2426045,45.8768551 L59.234,45.8202487 L59.224599,45.7745718 L59.224599,45.7745718 L59.2002935,45.6874378 L59.2002935,45.6874378 L59.1707875,45.6090122 C59.166658,45.5992957 59.162311,45.5895121 59.1578135,45.5798127 C59.1366015,45.5340554 59.1120065,45.4901407 59.0843585,45.4484096 L59.028695,45.3724041 L59.028695,45.3724041 L58.9761395,45.3123317 L58.9761395,45.3123317 L58.928542,45.2653298 L58.928542,45.2653298 L58.8625605,45.2094304 L58.8625605,45.2094304 L58.798428,45.163594 L58.798428,45.163594 C58.755644,45.1355044 58.710681,45.1106478 58.6638135,45.0893204 L58.574381,45.0537475 L58.574381,45.0537475 L58.493025,45.0297082 L58.493025,45.0297082 L58.4245755,45.0151664 L58.338415,45.0038452 L58.338415,45.0038452 L58.2501115,45 Z" />
    <path id="Icon-Fill" fill="#FFF" fill-rule="nonzero" d="M92.5,45 C107.81103,45 119.250112,55.5964805 119.250112,71.75 C119.250112,87.859599 107.85997,98.992299 92.532068,98.5005145 L85,98.5 C84.4477155,98.5 84,98.0522845 84,97.5 L84,92.75 C84,92.1977155 84.4477155,91.75 85,91.75 L92.5,91.75 C103.545695,91.75 112.5,82.795695 112.5,71.75 C112.5,61.0759215 104.117418,52.296459 93.497385,51.7744585 L92.5245135,51.7503005 L85,51.75 C84.4477155,51.75 84,51.3022845 84,50.75 L84,46 C84,45.4477153 84.4477155,45 85,45 L92.5,45 Z M58.2501115,45 C58.8023965,45 59.2501115,45.4477153 59.2501115,46 L59.2501115,46 L59.2501115,50.75 C59.2501115,51.3022845 58.8023965,51.75 58.2501115,51.75 L58.2501115,51.75 L50.7255985,51.7503005 L49.7527267,51.7744585 C39.1326934,52.296459 30.7501115,61.0759215 30.7501115,71.75 C30.7501115,82.795695 39.7044165,91.75 50.7501115,91.75 L50.7501115,91.75 L58.2501115,91.75 C58.8023965,91.75 59.2501115,92.1977155 59.2501115,92.75 L59.2501115,92.75 L59.2501115,97.5 C59.2501115,98.0522845 58.8023965,98.5 58.2501115,98.5 L58.2501115,98.5 L50.7180435,98.5005145 C35.3901416,98.992299 24,87.859599 24,71.75 C24,55.5964805 35.4390819,45 50.7501115,45 L50.7501115,45 L58.2501115,45 Z" opacity=".9" />
</svg>