<svg xmlns="http://www.w3.org/2000/svg" viewBox="0 0 144 144">
    <rect id="background" width="144" height="144" x="0" y="0" fill="#1652FF" fill-rule="nonzero" />
    <g id="icon" fill="none" fill-rule="evenodd" stroke="none" stroke-width="1">
        <path id="Shadow-with-outline" fill="#000" fill-rule="nonzero" d="M112.649904,60.5982815 C115.244111,60.5982815 117.41782,62.3726605 117.831017,64.724317 C120.154466,65.226637 121.901719,67.180255 121.901719,69.5384515 C121.901719,72.182823 119.701234,74.3269215 116.933903,74.4711495 L116.790268,74.4768185 L116.649904,74.4786215 L66.5585,74.4785 L38.7145832,95.2554535 C36.6366892,96.8856215 33.5970352,96.755502 31.6777344,94.9929405 L31.5661422,94.8873785 L31.4592583,94.780154 L31.36079,94.675117 C30.7151291,93.965821 30.3205328,93.1335715 30.169604,92.2741565 C29.267814,92.0786145 28.412215,91.657909 27.705475,91.0182315 L27.5661422,90.8873785 L27.4592583,90.780154 L27.36079,90.675117 C25.5287461,88.66251 25.7180832,85.659977 27.7598153,83.855801 L27.8730186,83.758593 L28.0023723,83.6547725 L57.303221,61.7444595 C58.148141,61.0815955 59.1904805,60.6872215 60.2945755,60.611298 L60.490029,60.601216 L60.6676145,60.5982815 L112.649904,60.5982815 Z M112.649904,62.401584 L60.683195,62.401584 L60.536771,62.4039795 C59.7550465,62.4310105 59.007674,62.699467 58.399807,63.176049 L58.399807,63.176049 L29.1095822,85.077897 L29.0179697,85.1518935 C27.665302,86.280706 27.5235264,88.174814 28.685002,89.4509215 L28.685002,89.4509215 L28.764453,89.5357025 C30.0106119,90.8226915 32.1671241,90.9618085 33.6187312,89.823316 L33.6187312,89.823316 L61.7199955,68.8542115 C61.875762,68.737979 62.0649135,68.6751845 62.2592665,68.6751845 L62.2592665,68.6751845 L112.637801,68.675266 L112.753934,68.6737885 C114.627743,68.623418 116.098281,67.2205135 116.098281,65.5384515 C116.098281,63.821674 114.568749,62.401584 112.649904,62.401584 L112.649904,62.401584 Z" />
        <path id="Highlight" fill="#FFF" fill-rule="nonzero" d="M79.000097,64 C79.5523815,64 80.000097,64.4477155 80.000097,65 C80.000097,65.527181 79.592158,65.9590825 79.074728,65.997257 L79.000097,66 L62.000097,66 C61.447812,66 61.000097,65.5522845 61.000097,65 C61.000097,64.472819 61.4080355,64.0409175 61.9254655,64.002743 L62.000097,64 L79.000097,64 Z" />
        <path id="Icon-Fill" fill="#FFF" fill-opacity=".7" fill-rule="nonzero" d="M60.683195,62.401584 L112.649904,62.401584 C114.568749,62.401584 116.098281,63.821674 116.098281,65.5384515 C116.098281,67.2205135 114.627743,68.623418 112.753934,68.6737885 L112.6378,68.675266 L62.2592665,68.6751845 C62.0649135,68.6751845 61.875762,68.737979 61.7199955,68.8542115 L33.6187312,89.823316 C32.1671241,90.9618085 30.0106118,90.8226915 28.764453,89.5357025 L28.6850019,89.4509215 C27.5235263,88.174814 27.665302,86.280706 29.0179696,85.1518935 L29.1095821,85.077897 L58.399807,63.176049 C59.007674,62.699467 59.7550465,62.4310105 60.536771,62.4039795 L60.683195,62.401584 Z" />
        <g id="button" fill-rule="nonzero" transform="translate(92.9 10.4)">
            <path id="Rectangle" fill="#000" d="M27.35,-7.10542735e-15 C34.7230014,-7.10542735e-15 40.7,5.9769986 40.7,13.35 C40.7,20.7230014 34.7230014,26.7 27.35,26.7 L27.35,26.7 L13.35,26.7 C5.9769986,26.7 2.84217095e-14,20.7230014 2.84217095e-14,13.35 C2.84217095e-14,5.9769986 5.9769986,-7.10542735e-15 13.35,-7.10542735e-15 L13.35,-7.10542735e-15 L27.35,-7.10542735e-15 Z M27.35,2.2 L13.35,2.2 C7.19202505,2.2 2.2,7.19202505 2.2,13.35 C2.2,19.507975 7.19202505,24.5 13.35,24.5 L13.35,24.5 L27.35,24.5 C33.5079749,24.5 38.5,19.507975 38.5,13.35 C38.5,7.19202505 33.5079749,2.2 27.35,2.2 L27.35,2.2 Z" />
            <path id="Path" fill="#17BB67" d="M13.35,2.2 L27.35,2.2 C33.5079749,2.2 38.5,7.19202505 38.5,13.35 C38.5,19.507975 33.5079749,24.5 27.35,24.5 L13.35,24.5 C7.19202505,24.5 2.2,19.507975 2.2,13.35 C2.2,7.19202505 7.19202505,2.2 13.35,2.2 Z" />
            <path id="Combined-Shape" fill="#000" d="M14.1,3.5 C19.6644624,3.5 24.2,7.7835633 24.2,13.1 C24.2,16.6697764 22.1551121,19.7738725 19.126907,21.4281943 C17.2790079,23.7235785 14.3668243,25.2 11.1,25.2 C5.5355376,25.2 1,20.9164367 1,15.6 C1,12.0302236 3.0448879,8.92612745 6.073093,7.2718057 C7.9209921,4.97642143 10.8331756,3.5 14.1,3.5 Z M14.1,5.7 C9.7233369,5.7 6.2,9.02759595 6.2,13.1 C6.2,17.1724041 9.7233369,20.5 14.1,20.5 C18.4766631,20.5 22,17.1724041 22,13.1 C22,9.02759595 18.4766631,5.7 14.1,5.7 Z" />
            <path fill="#FFF" d="M14.1,5.7 C18.4766631,5.7 22,9.02759595 22,13.1 C22,17.1724041 18.4766631,20.5 14.1,20.5 C9.7233369,20.5 6.2,17.1724041 6.2,13.1 C6.2,9.02759595 9.7233369,5.7 14.1,5.7 Z" />
        </g>
    </g>
</svg>