<svg xmlns="http://www.w3.org/2000/svg" viewBox="0 0 144 144">
    <rect id="background" width="144" height="144" x="0" y="0" fill="#1652FF" fill-rule="nonzero" />
    <g id="icon" fill="none" fill-rule="evenodd" stroke="none" stroke-width="1">
        <path id="shadow" fill="#000" fill-rule="nonzero" d="M70.21707,39.1140651 C70.8888295,39.9201767 71.256713,40.9362898 71.256713,41.9856119 L71.2567865,42.7622052 C72.9792405,42.1447401 74.9776145,42.6267188 76.21707,44.1140651 C76.8888295,44.9201767 77.256713,45.9362898 77.256713,46.9856119 L77.256713,101.842897 C77.256713,104.32017 75.2484865,106.328396 72.7712135,106.328396 C71.7218915,106.328396 70.7057785,105.960513 69.899667,105.288753 L49.5026853,88.2912685 L37.7282492,88.2912685 C34.6028427,88.2912685 31.9751617,86.1602525 31.2189472,83.271961 C27.741034,83.0120675 25,80.107645 25,76.5630195 L25,62.2654895 C25,58.5495805 28.0123397,55.5372405 31.7282492,55.5372405 L43.5026853,55.5372405 L63.899667,38.5397558 C65.802761,36.9538443 68.6311585,37.2109713 70.21707,39.1140651 Z M65.772138,40.6323375 L65.6943835,40.6934159 L44.5176696,58.3406775 L31.7282492,58.3406775 C29.6023202,58.3406775 27.8711735,60.030941 27.8053772,62.1409 L27.8034372,62.2654895 L27.8034372,76.5630195 C27.8034372,78.688948 29.4937007,80.420095 31.6036594,80.4858915 L31.7282492,80.4878315 L44.5176696,80.4878315 L65.6943835,98.135093 C65.9966755,98.387003 66.377718,98.5249595 66.7712135,98.5249595 C67.669225,98.5249595 68.402875,97.8212435 68.450787,96.935187 L68.453276,96.842897 L68.453276,41.9856119 C68.453276,41.6314657 68.3415315,41.2874067 68.13554,41.0017656 L68.06341,40.9087819 C67.489933,40.2206096 66.48321,40.1063737 65.772138,40.6323375 Z M100.075452,52.2389155 C100.824844,52.5266875 101.425729,53.101927 101.746866,53.833393 L101.800607,53.9640705 L102.649267,56.1743505 C103.442306,55.1742685 104.820927,54.7571695 106.075452,55.2389155 C106.824844,55.5266875 107.425729,56.101927 107.746866,56.833393 L107.800607,56.9640705 L109.180283,60.5572145 L111.007998,60.653632 C112.55501,60.7349005 113.766555,61.9743565 113.846492,63.487575 L117.007998,63.653632 C118.587363,63.7366 119.817082,65.0267045 119.85032,66.582865 L119.85032,66.694459 L119.846486,66.806882 C119.804374,67.608522 119.442973,68.3577565 118.846544,68.889212 L118.738869,68.9807035 L113.4665,73.251 L115.221958,79.8046415 C115.63087,81.331479 114.785103,82.8987635 113.316823,83.41187 L113.208286,83.4475175 L113.10018,83.4786115 C112.324762,83.686281 111.500518,83.574094 110.810768,83.171085 L110.69048,83.0969525 L106.764259,80.5482845 C106.092962,80.6478855 105.405203,80.5170035 104.81534,80.173751 L104.690481,80.0969525 L104.309783,79.8497145 L99.309519,83.0969525 C97.9885095,83.9545925 96.2443575,83.639888 95.300251,82.4129955 L95.227401,82.314245 L95.1597,82.2143415 C94.7225775,81.541048 94.5745685,80.722478 94.744708,79.9419495 L94.778041,79.8046415 L94.992283,79.0042145 L93.309519,80.0969525 C91.9885095,80.9545925 90.2443575,80.639888 89.300251,79.4129955 L89.227401,79.314245 L89.1597,79.2143415 C88.7225775,78.541048 88.5745685,77.722478 88.744708,76.9419495 L88.778041,76.8046415 L90.533,70.251 L85.2611305,65.9807035 C84.0388645,64.99068 83.7982145,63.2379625 84.669229,61.961357 L84.7422905,61.8589165 L84.8181795,61.7612495 C85.3234415,61.137462 86.0562105,60.743745 86.851113,60.6643605 L86.992001,60.653632 L93.767,60.2975 L96.1993925,53.9640705 C96.7933485,52.4173375 98.52872,51.6449595 100.075452,52.2389155 Z M98.097288,54.609162 L98.066464,54.681039 L95.1688245,62.2268395 L87.096922,62.650878 C86.81399,62.665741 86.5506425,62.7999235 86.3723145,63.0200835 C86.042078,63.427788 86.085226,64.016482 86.45832,64.3723705 L86.519965,64.4265685 L92.801028,69.514168 L90.7099575,77.322039 C90.6366625,77.595716 90.6828985,77.887639 90.837177,78.125272 C91.122878,78.5653335 91.6960925,78.7062135 92.149855,78.461356 L92.22045,78.419476 L98.4554655,74.3715135 C98.7629945,74.1718565 99.1528795,74.157595 99.472174,74.32873 L99.5445345,74.3715135 L105.77955,78.419476 C106.017183,78.5737545 106.309106,78.6199905 106.582783,78.5466955 C107.092018,78.4103145 107.403683,77.9045305 107.3067,77.394839 L107.290042,77.322039 L105.198972,69.514168 L111.480035,64.4265685 C111.700195,64.2482405 111.834378,63.984893 111.84924,63.701961 C111.876897,63.175506 111.492177,62.7227985 110.977463,62.657532 L110.903078,62.650878 L102.831176,62.2268395 L99.9335355,54.681039 C99.831969,54.4165475 99.6229755,54.207554 99.358484,54.1059875 C98.8933015,53.927354 98.3769305,54.119482 98.135011,54.537437 L98.097288,54.609162 Z" />
        <path id="speaker_fill" fill="#FFF" fill-opacity=".7" fill-rule="nonzero" d="M68.06341,40.9087819 C67.489933,40.2206096 66.48321,40.1063737 65.772138,40.6323375 L65.6943835,40.6934159 L44.5176695,58.3406775 L31.7282492,58.3406775 C29.6023202,58.3406775 27.8711735,60.030941 27.8053771,62.1409 L27.8034371,62.2654895 L27.8034371,76.5630195 C27.8034371,78.688948 29.4937006,80.420095 31.6036594,80.4858915 L31.7282492,80.4878315 L44.5176695,80.4878315 L65.6943835,98.135093 C65.9966755,98.387003 66.377718,98.5249595 66.7712135,98.5249595 C67.669225,98.5249595 68.402875,97.8212435 68.450787,96.935187 L68.453276,96.842897 L68.453276,41.9856119 C68.453276,41.6314657 68.3415315,41.2874067 68.13554,41.0017656 L68.06341,40.9087819 Z" />
        <path id="star_fill" fill="#FFCF4B" fill-rule="nonzero" d="M99.358484,54.1059875 C99.622975,54.207554 99.831969,54.4165475 99.9335355,54.681039 L102.831176,62.2268395 L110.903078,62.650878 C111.454602,62.679851 111.878214,63.150437 111.84924,63.701961 C111.834378,63.984893 111.700195,64.2482405 111.480035,64.4265685 L105.198972,69.514168 L107.290042,77.322039 C107.432918,77.8555225 107.116267,78.40382 106.582783,78.5466955 C106.309106,78.6199905 106.017183,78.5737545 105.77955,78.419476 L99.5445345,74.3715135 C99.2133495,74.156498 98.7866505,74.156498 98.455465,74.3715135 L92.22045,78.419476 C91.7572275,78.720214 91.137915,78.5884945 90.837177,78.125272 C90.682898,77.887639 90.636662,77.595716 90.709957,77.322039 L92.8010275,69.514168 L86.519965,64.4265685 C86.0908025,64.078951 86.024697,63.4492465 86.3723145,63.0200835 C86.550642,62.7999235 86.81399,62.665741 87.0969215,62.650878 L95.1688245,62.2268395 L98.066464,54.681039 C98.2644495,54.1654615 98.8429065,53.908002 99.358484,54.1059875 Z" />
        <path id="highlight" fill="#FFF" fill-rule="nonzero" d="M95.4838965,63.5003225 C95.8979315,63.4881725 96.2434235,63.8139645 96.255574,64.2279995 C96.26701,64.61768 95.9790915,64.9466435 95.5999955,64.9941265 L95.527897,64.9996775 L90.2020905,65.1559705 C89.7880555,65.168121 89.4425635,64.842329 89.430413,64.428294 C89.4189775,64.0386135 89.7068955,63.70965 90.085992,63.662167 L90.15809,63.656616 L95.4838965,63.5003225 Z M64.083356,47.3149739 C64.5253305,47.8411593 64.524524,48.5905753 64.1149425,49.0924922 L63.9422545,49.2681903 L49.4976568,61.4932495 C48.9225071,61.9800225 48.0531784,61.8947525 47.5559567,61.302794 C47.113982,60.7766085 47.1147884,60.0271925 47.5243702,59.5252755 L47.6970582,59.3495775 L62.1416555,47.1245185 C62.7168055,46.6377455 63.586134,46.7230153 64.083356,47.3149739 Z" />
    </g>
</svg>