<svg xmlns="http://www.w3.org/2000/svg" viewBox="0 0 144 144">
    <rect id="background" width="144" height="144" x="0" y="0" fill="#1652FF" fill-rule="nonzero" />
    <g id="icon">
        <path id="Shadow-with-outline" fill="#000" fill-rule="nonzero" d="M70.21707,39.1140651 C70.8888295,39.9201767 71.256713,40.9362898 71.256713,41.9856119 L71.2567865,42.7622052 C72.9792405,42.1447401 74.9776145,42.6267188 76.21707,44.1140651 C76.8888295,44.9201767 77.256713,45.9362898 77.256713,46.9856119 L77.256713,101.842897 C77.256713,104.32017 75.2484865,106.328396 72.7712135,106.328396 C71.7218915,106.328396 70.7057785,105.960513 69.899667,105.288753 L49.5026853,88.2912685 L37.7282492,88.2912685 C34.6028427,88.2912685 31.9751617,86.1602525 31.2189472,83.271961 C27.741034,83.0120675 25,80.107645 25,76.5630195 L25,62.2654895 C25,58.5495805 28.0123397,55.5372405 31.7282492,55.5372405 L43.5026853,55.5372405 L63.899667,38.5397558 C65.802761,36.9538443 68.6311585,37.2109713 70.21707,39.1140651 Z M65.772138,40.6323375 L65.6943835,40.6934159 L44.5176696,58.3406775 L31.7282492,58.3406775 C29.6023202,58.3406775 27.8711735,60.030941 27.8053772,62.1409 L27.8034372,62.2654895 L27.8034372,76.5630195 C27.8034372,78.688948 29.4937007,80.420095 31.6036594,80.4858915 L31.7282492,80.4878315 L44.5176696,80.4878315 L65.6943835,98.135093 C65.9966755,98.387003 66.377718,98.5249595 66.7712135,98.5249595 C67.669225,98.5249595 68.402875,97.8212435 68.450787,96.935187 L68.453276,96.842897 L68.453276,41.9856119 C68.453276,41.6314657 68.3415315,41.2874067 68.13554,41.0017656 L68.06341,40.9087819 C67.489933,40.2206096 66.48321,40.1063737 65.772138,40.6323375 Z M101.11875,51.6875 C102.377212,51.6875 103.404015,52.679346 103.460088,53.9239665 L103.4625,54.03125 L103.4625,54.1875 L103.61875,54.1875 C104.877212,54.1875 105.904015,55.179346 105.960088,56.4239665 L105.9625,56.53125 L105.9625,63.287 L112.71875,63.2875 C113.940198,63.2875 114.943414,64.22186 115.05264,65.414822 L115.060088,65.5239665 L115.0625,65.63125 L115.0625,65.787 L115.21875,65.7875 C116.440198,65.7875 117.443414,66.72186 117.55264,67.914822 L117.560088,68.0239665 L117.5625,68.13125 L117.5625,72.36875 C117.5625,73.6272115 116.570654,74.6540145 115.326033,74.710088 L115.21875,74.7125 L105.9625,74.7125 L105.9625,83.96875 C105.9625,85.190198 105.02814,86.193414 103.835178,86.30264 L103.726033,86.310088 L103.61875,86.3125 L99.38125,86.3125 C98.1227885,86.3125 97.0959855,85.320654 97.039912,84.0761 L97.0375,83.968822 L97.0375,83.8125 L96.88125,83.8125 C95.6227885,83.8125 94.5959855,82.820654 94.539912,81.5761 L94.5375,81.468822 L94.537,74.7125 L87.78125,74.7125 C86.559802,74.7125 85.556586,73.77814 85.44736,72.585178 L85.439912,72.4760335 L85.4375,72.36875 L85.4375,72.2125 L85.28125,72.2125 C84.059802,72.2125 83.056586,71.27814 82.94736,70.085178 L82.939912,69.9760335 L82.9375,69.86875 L82.9375,65.63125 C82.9375,64.3727885 83.929346,63.3459855 85.1739665,63.289912 L85.28125,63.2875 L94.5375,63.2875 L94.5375,54.03125 C94.5375,52.809802 95.47186,51.806586 96.664822,51.69736 L96.7739665,51.689912 L96.88125,51.6875 L101.11875,51.6875 Z M101.11875,53.25 L96.88125,53.25 C96.473748,53.25 96.1391165,53.561993 96.1031925,53.9601405 L96.1,54.03125 L96.1,64.85 L85.28125,64.85 C84.873748,64.85 84.5391165,65.161993 84.5031925,65.5601405 L84.5,65.63125 L84.5,69.86875 C84.5,70.276252 84.811993,70.6108835 85.2101405,70.6468075 L85.28125,70.65 L96.0995,70.65 L96.1,81.46875 C96.1,81.876252 96.411993,82.2108835 96.8101405,82.2468075 L96.88125,82.25 L101.11875,82.25 C101.526252,82.25 101.860883,81.938007 101.896807,81.5398595 L101.9,81.46875 L101.9,70.65 L112.71875,70.65 C113.126252,70.65 113.460883,70.338007 113.496808,69.9398595 L113.5,69.86875 L113.5,65.63125 C113.5,65.223748 113.188007,64.8891165 112.78986,64.8531925 L112.71875,64.85 L101.9,64.85 L101.9,54.03125 C101.9,53.5997775 101.550223,53.25 101.11875,53.25 Z" />
        <path id="Icon-Fill" fill="#FFF" fill-opacity=".7" fill-rule="nonzero" d="M65.772138,40.6323375 C66.48321,40.1063737 67.489933,40.2206096 68.06341,40.9087819 L68.06341,40.9087819 L68.13554,41.0017656 C68.3415315,41.2874067 68.453276,41.6314657 68.453276,41.9856119 L68.453276,41.9856119 L68.453276,96.842897 L68.450787,96.935187 C68.402875,97.8212435 67.669225,98.5249595 66.7712135,98.5249595 C66.377718,98.5249595 65.9966755,98.387003 65.6943835,98.135093 L65.6943835,98.135093 L44.5176695,80.4878315 L31.7282492,80.4878315 L31.6036594,80.4858915 C29.4937006,80.420095 27.8034371,78.688948 27.8034371,76.5630195 L27.8034371,76.5630195 L27.8034371,62.2654895 L27.8053771,62.1409 C27.8711735,60.030941 29.6023202,58.3406775 31.7282492,58.3406775 L31.7282492,58.3406775 L44.5176695,58.3406775 L65.6943835,40.6934159 L65.772138,40.6323375 Z M101.11875,53.25 C101.550223,53.25 101.9,53.5997775 101.9,54.03125 L101.9,64.85 L112.71875,64.85 C113.150222,64.85 113.5,65.1997775 113.5,65.63125 L113.5,69.86875 C113.5,70.3002225 113.150222,70.65 112.71875,70.65 L101.9,70.65 L101.9,81.46875 C101.9,81.9002225 101.550223,82.25 101.11875,82.25 L96.88125,82.25 C96.4497775,82.25 96.1,81.9002225 96.1,81.46875 L96.0995,70.65 L85.28125,70.65 C84.8497775,70.65 84.5,70.3002225 84.5,69.86875 L84.5,65.63125 C84.5,65.1997775 84.8497775,64.85 85.28125,64.85 L96.1,64.85 L96.1,54.03125 C96.1,53.5997775 96.4497775,53.25 96.88125,53.25 L101.11875,53.25 Z" />
        <path id="Highlight" fill="#FFF" fill-rule="nonzero" d="M87.5003735,66 L92.1878735,66.002334 C92.602087,66.00254 92.937706,66.338494 92.9375001,66.7527075 C92.937306,67.1425555 92.6397025,67.4627835 92.2593585,67.4989365 L92.1871265,67.502334 L87.4996265,67.5 C87.085413,67.4997935 86.749794,67.16384 86.7499999,66.7496265 C86.750194,66.3597785 87.0477975,66.0395505 87.4281415,66.0033975 L87.5003735,66 Z M64.083356,47.3149739 C64.5253305,47.8411593 64.524524,48.5905753 64.1149425,49.0924922 L63.9422545,49.2681903 L49.4976568,61.4932495 C48.9225071,61.9800225 48.0531784,61.8947525 47.5559567,61.302794 C47.113982,60.7766085 47.1147884,60.0271925 47.5243702,59.5252755 L47.6970582,59.3495775 L62.1416555,47.1245185 C62.7168055,46.6377455 63.586134,46.7230153 64.083356,47.3149739 Z" />
    </g>
</svg>