<svg xmlns="http://www.w3.org/2000/svg" xmlns:xlink="http://www.w3.org/1999/xlink" viewBox="0 0 144 144">
    <rect id="background" width="144" height="144" x="0" y="0" fill="#1652FF" fill-rule="nonzero" />
    <defs>
        <g fill="#000" id="grid">
            <use xlink:href="#dot" transform="translate(31)" />
            <use xlink:href="#dot" transform="translate(26)" />
            <use xlink:href="#dot" transform="translate(21)" />
            <use xlink:href="#dot" transform="translate(16)" />
            <use xlink:href="#dot" transform="translate(11)" />
            <use xlink:href="#dot" transform="translate(6)" />
            <use xlink:href="#dot" transform="translate(1)" />
        </g>
        <g id="bigGrid">
            <use xlink:href="#grid" />
            <use xlink:href="#grid" transform="translate(0 5)" />
            <use xlink:href="#grid" transform="translate(0 10)" />
            <use xlink:href="#grid" transform="translate(0 15)" />
            <use xlink:href="#grid" transform="translate(0 20)" />
            <use xlink:href="#grid" transform="translate(0 25)" />
            <use xlink:href="#grid" transform="translate(0 30)" />
            <use xlink:href="#grid" transform="translate(0 35)" />
            <use xlink:href="#grid" transform="translate(0 40)" />
            <use xlink:href="#grid" transform="translate(0 45)" />
        </g>
        <circle id="dot" cx="1.25" cy="1.25" r="1.25" />
        <path id="clipMask" d="M30 .2l.3288.0106c2.5624.1664 4.5986 2.263 4.6693 4.8503L35 5.2v63l-.0106.3288c-.1664 2.5624-2.263 4.5986-4.8503 4.6693L30 73.2h-8l-.1798.0161a1.0005 1.0005 0 00-.817.9029L21 74.2v12l.0161.1798c.08.4405.4486.7805.9029.817L22 87.2h14l.2332.0135C37.228 87.329 38 88.1743 38 89.2c0 1.0711-.842 1.9455-1.9002 1.9976L36 91.2H2l-.2332-.0135C.772 91.071 0 90.2257 0 89.2c0-1.0711.842-1.9455 1.9002-1.9976L2 87.2h14l.1798-.0161c.4405-.08.7805-.4486.817-.9029L17 86.2v-12l-.0161-.1798a1.0005 1.0005 0 00-.9029-.817L16 73.2H8l-.3288-.0106c-2.5624-.1664-4.5986-2.263-4.6693-4.8503L3 68.2v-63l.0106-.3288C3.177 2.3088 5.2736.2726 7.861.202L8 .2h22zm-11 4c-3.3137 0-6 2.6863-6 6s2.6863 6 6 6 6-2.6863 6-6-2.6863-6-6-6z" />
    </defs>
    <g id="icon" opacity="0.4" transform="scale(.6) translate(38,71)" fill="none" fill-rule="evenodd" stroke="none" stroke-width="1">
        <path id="body-shadow" fill="#000" fill-rule="nonzero" d="M39,0 C40.8520465,0 42.536103,0.7192529 43.7880805,1.89367035 L43.899,2 L43.8987005,1.9997232 L47,2 C50.737127,2 53.790253,4.9285552 53.9896425,8.6159296 L54,9 L53.9995,48.9895 L54,49 L54,50.9765 L54.0022175,50.88358 C54.059696,49.3772425 55.227809,48.1554685 56.71108,48.013733 L57,48 L59,48 C60.559392,48 61.8408975,49.189776 61.986267,50.71108 L62,51 L62,59 C62,60.559392 60.810224,61.8408975 59.28892,61.986267 L59,62 L57,62 C55.440608,62 54.1591025,60.810224 54.013733,59.28892 L54,59 L54,73 C54,76.737127 51.071445,79.790253 47.3840705,79.9896425 L47,80 L39,80 L38.9998145,87.999723 L31,88 L44,88 C45.437141,88 46.697264,88.7579045 47.4024765,89.895822 L47.464756,89.9998005 L52,90 C54.0032875,90 55.662617,91.4726595 55.954461,93.3944515 L55.9890285,93.7014755 L56,94 C56,96.1087235 54.3682445,97.83633 52.2985245,97.9890285 L52,98 L18,98 C16.5194685,98 15.2268055,97.1956385 14.535175,96.00008 L10,96 C7.790861,96 6,94.209139 6,92 C6,89.8912765 7.6317555,88.16367 9.7014755,88.0109715 L10,88 L23,88 L23,80 C21.0927695,80 19.3636895,79.2372465 18.1011655,78.000145 L15,78 C11.3917395,78 8.421121,75.269932 8.041075,71.762727 L8.0103575,71.3840705 L8,71 L8,57 C8,58.559392 6.810224,59.8408975 5.28892,59.986267 L5,60 L3,60 C1.44060775,60 0.15910265,58.810224 0.01373315,57.28892 L0,57 L0,49 C0,47.440608 1.18977615,46.1591025 2.71108,46.013733 L3,46 L5,46 C6.559392,46 7.8408975,47.189776 7.986267,48.71108 L8,48.999 L8,7 C8,3.2628732 10.928555,0.2097471 14.6159295,0.01035775 L15,0 L39,0 Z M39,2 L15,2 L14.8609285,2.00189675 C12.2735395,2.07255625 10.1769525,4.10882935 10.0106355,6.6712486 L10.0106355,6.6712486 L10,7 L10,71 L10.001897,71.1390715 C10.0725565,73.7264605 12.1088295,75.8230475 14.6712485,75.9893645 L14.6712485,75.9893645 L15,76 L24,76 L24.0810135,76.003234 C24.5352875,76.0396535 24.9039205,76.379667 24.9838885,76.8202485 L24.9838885,76.8202485 L25,77 L25,89 L24.996766,89.0810135 C24.9603465,89.5352875 24.620333,89.9039205 24.1797515,89.9838885 L24.1797515,89.9838885 L24,90 L10,90 L9.90018,90.0024475 C8.841984,90.0544605 8,90.9289025 8,92 C8,93.0256715 8.7720805,93.8710145 9.7667575,93.9865445 L9.7667575,93.9865445 L10,94 L44,94 L44.09982,93.9975525 C45.158016,93.9455395 46,93.0710975 46,92 C46,90.9743285 45.2279195,90.1289855 44.2332425,90.0134555 L44.2332425,90.0134555 L44,90 L30,90 L29.9189865,89.996766 C29.4647125,89.9603465 29.0960795,89.620333 29.0161115,89.1797515 L29.0161115,89.1797515 L29,89 L29,77 L29.003234,76.9189865 C29.0396535,76.4647125 29.379667,76.0960795 29.8202485,76.0161115 L29.8202485,76.0161115 L30,76 L39,76 L39.1390715,75.998103 C41.7264605,75.9274435 43.8230475,73.8911705 43.9893645,71.3287515 L43.9893645,71.3287515 L44,71 L44,7 L43.998103,6.86092855 C43.9274435,4.2735396 41.8911705,2.1769527 39.3287515,2.01063535 L39.3287515,2.01063535 L39,2 Z M5,48 L3,48 L2.9189864,48.003234 C2.46471275,48.0396535 2.09607925,48.379667 2.01611135,48.8202485 L2.01611135,48.8202485 L2,49 L2,57 L2.00323415,57.0810135 C2.0396536,57.5352875 2.3796669,57.9039205 2.82024875,57.9838885 L2.82024875,57.9838885 L3,58 L5,58 L5.0810135,57.996766 C5.5352875,57.9603465 5.9039205,57.620333 5.9838885,57.1797515 L5.9838885,57.1797515 L6,57 L6,49 L5.996766,48.9189865 C5.9603465,48.4647125 5.620333,48.0960795 5.1797515,48.0161115 L5.1797515,48.0161115 L5,48 Z M51,48 L49,48 L48.9189865,48.003234 C48.4647125,48.0396535 48.0960795,48.379667 48.0161115,48.8202485 L48.0161115,48.8202485 L48,49 L48,57 L48.003234,57.0810135 C48.0396535,57.5352875 48.379667,57.9039205 48.8202485,57.9838885 L48.8202485,57.9838885 L49,58 L51,58 L51.0810135,57.996766 C51.5352875,57.9603465 51.9039205,57.620333 51.9838885,57.1797515 L51.9838885,57.1797515 L52,57 L52,49 L51.996766,48.9189865 C51.9603465,48.4647125 51.620333,48.0960795 51.1797515,48.0161115 L51.1797515,48.0161115 L51,48 Z" />
        <path id="wave-fill-blue" fill="#FFF" opacity="0.7" fill-rule="nonzero" d="M39 2l.3288.0106c2.5624.1664 4.5986 2.263 4.6693 4.8503L44 7v64l-.0106.3288c-.1664 2.5624-2.263 4.5986-4.8503 4.6693L39 76h-9l-.1798.0161a1.0005 1.0005 0 00-.817.9029L29 77v12l.0161.1798c.08.4405.4486.7805.9029.817L30 90h14l.2332.0135C45.228 90.129 46 90.9743 46 92c0 1.0711-.842 1.9455-1.9002 1.9976L44 94H10l-.2332-.0135C8.772 93.871 8 93.0257 8 92c0-1.0711.842-1.9455 1.9002-1.9976L10 90h14l.1798-.0161c.4405-.08.7805-.4486.817-.9029L25 89V77l-.0161-.1798a1.0005 1.0005 0 00-.9029-.817L24 76h-9l-.3288-.0106c-2.5624-.1664-4.5986-2.263-4.6693-4.8503L10 71V7l.0106-.3288c.1664-2.5624 2.263-4.5986 4.8503-4.6693L15 2h24zM5 48l.1798.0161c.4405.08.7805.4486.817.9029L6 49v8l-.0161.1798a1.0005 1.0005 0 01-.9029.817L5 58H3l-.1798-.0161a1.0005 1.0005 0 01-.817-.9029L2 57v-8l.0161-.1798c.08-.4405.4486-.7805.9029-.817L3 48h2zm46 0l.1798.0161c.4405.08.7805.4486.817.9029L52 49v8l-.0161.1798a1.0005 1.0005 0 01-.9029.817L51 58h-2l-.1798-.0161a1.0005 1.0005 0 01-.817-.9029L48 57v-8l.0161-.1798c.08-.4405.4486-.7805.9029-.817L49 48h2z" />
        <path id="Highlight" fill="#FFF" fill-rule="nonzero" d="M13 62c.491 0 .8992.3538.9839.8202L14 63v6.7347C14 70.9858 15.0142 72 16.2653 72c.5523 0 1 .4477 1 1s-.4477 1-1 1c-2.2532 0-4.0984-1.7472-4.2546-3.9607L12 69.7347V63c0-.5523.4477-1 1-1z" />
        <path id="wave-fill-black" fill="#000" fill-rule="nonzero" d="M27 63c2.2091 0 4 1.7909 4 4 0 2.2091-1.7909 4-4 4-2.2091 0-4-1.7909-4-4 0-2.2091 1.7909-4 4-4zm17-10.5v2H10v-2h34z" />
        <g id="overlays" transform="translate(8 3)">
            <g id="dots-Clipped">
                <mask id="bodyMask" fill="#fff">
                    <use xlink:href="#clipMask" />
                </mask>
                <g id="dots" mask="url(#bodyMask)">
                    <g id="dots_grid">
                        <use xlink:href="#bigGrid" />
                        <use xlink:href="#bigGrid" transform="translate(2.5 2.8)" />
                    </g>
                </g>
            </g>
        </g>
        <circle id="dot2" fill="#FFF" opacity="0.5" cx="27" cy="13" r="6" />
        <path id="logo" fill="#000" fill-rule="nonzero" d="M27.033 8.8c.8631 0 1.694.2565 2.4016.7415.6912.4738 1.2207 1.1325 1.5306 1.9044.0396.0987.076.2006.1082.303l-.0912.2333-.7167.412-.2936-.1243a2.9795 2.9795 0 00-.0828-.2716c-.4284-1.1972-1.5763-2.0022-2.856-2.0022-1.671 0-3.0301 1.348-3.0301 3.004 0 1.6557 1.359 3.0038 3.03 3.0038.6497 0 1.2687-.2015 1.7915-.583.5123-.374.8874-.8858 1.0783-1.4507l-.0013.0023-.0435.1075-3.472-1.97v1.744l1.25-.6229.6948.394.0006.3475-2.2205 1.157-.7155-.4044-.1016-.174v-3.1534l.1008-.1736.9122-.4086 4.7924 2.7214.098.2096c-.173.956-.6805 1.8285-1.4303 2.4592-.7624.6412-1.7331.9942-2.7339.9942-1.1298 0-2.1931-.4369-2.9923-1.2295-.7995-.793-1.2403-1.8487-1.2403-2.9705s.4408-2.1774 1.2403-2.9704C24.84 9.2369 25.9032 8.8 27.033 8.8z" />
    </g>

    <g id="system" fill-rule="nonzero" transform="translate(65 53)">
        <path fill="#FFF" d="M49,1.07692308 C50.4869203,1.07692308 51.6923077,2.28231029 51.6923077,3.76923077 L51.6923077,29.6153846 C51.6923077,31.102305 50.4869203,32.3076923 49,32.3076923 L27.4615385,32.3076923 C27.1641545,32.3076923 26.9230769,32.5487699 26.9230769,32.8461538 L26.9230769,40.3846154 C26.9230769,40.6819993 27.1641545,40.9230769 27.4615385,40.9230769 L38.2307692,40.9230769 C38.5281532,40.9230769 38.7692308,41.1641545 38.7692308,41.4615385 L38.7692308,42.5384615 C38.7692308,42.8358455 38.5281532,43.0769231 38.2307692,43.0769231 L14.5384615,43.0769231 C14.2410774,43.0769231 14,42.8358455 14,42.5384615 L14,41.4615385 C14,41.1641545 14.2410774,40.9230769 14.5384615,40.9230769 L24.2307692,40.9230769 C24.5281532,40.9230769 24.7692308,40.6819993 24.7692308,40.3846154 L24.7692308,32.8461538 C24.7692308,32.5487699 24.5281532,32.3076923 24.2307692,32.3076923 L3.76923077,32.3076923 C2.28231029,32.3076923 1.07692308,31.102305 1.07692308,29.6153846 L1.07692308,3.76923077 C1.07692308,2.28231029 2.28231029,1.07692308 3.76923077,1.07692308 L49,1.07692308 Z M25.8461538,25.3076923 C24.3592335,25.3076923 23.1538462,26.5130797 23.1538462,28 C23.1538462,29.4869203 24.3592335,30.6923077 25.8461538,30.6923077 C27.3330742,30.6923077 28.5384615,29.4869203 28.5384615,28 C28.5384615,26.5130797 27.3330742,25.3076923 25.8461538,25.3076923 Z" opacity=".8" />
        <path id="shadow-with-outline" fill="#000" d="M49,0 C50.9108261,0 52.4895525,1.42188792 52.7358394,3.26532414 C54.5111695,3.50150395 55.8961755,4.97627149 55.9944232,6.79319286 L56,7 L56,32.8461538 C56,34.858453 54.4230858,36.5024439 52.4375764,36.6098075 L52.2307692,36.6153846 L31.2307692,36.6153846 L31.2307692,39.8461538 L38.2307692,39.8461538 C39.0179623,39.8461538 39.6736434,40.4092239 39.817026,41.1545777 L39.8387592,41.3059662 L39.8461538,41.4615385 L39.8461538,42.5384615 C39.8461538,42.7275482 39.813666,42.9090469 39.7539676,43.0776802 L41.4615385,43.0769231 C42.2487315,43.0769231 42.9044127,43.6399931 43.0477953,44.3853469 L43.0695284,44.5367354 L43.0769231,44.6923077 L43.0769231,45.7692308 C43.0769231,46.6089034 42.4362745,47.2989448 41.6171108,47.3772207 L41.4615385,47.3846154 L17.7692308,47.3846154 C16.9295582,47.3846154 16.2395167,46.7439668 16.1612408,45.9248031 L16.1538462,45.7692308 L16.1538462,44.6923077 C16.1538462,44.5036216 16.1861967,44.3224915 16.2456533,44.1541612 L14.5384615,44.1538462 C13.6987888,44.1538462 13.0087476,43.5131975 12.9304717,42.6940338 L12.9230769,42.5384615 L12.9230769,41.4615385 C12.9230769,40.6218658 13.5637256,39.9318244 14.3828892,39.8535485 L14.5384615,39.8461538 L23.6923077,39.8461538 L23.6923077,36.6153846 L7,36.6153846 C5.08917395,36.6153846 3.51044761,35.1934967 3.26416063,33.3500604 C1.55711228,33.1229645 0.210940908,31.7507247 0.0225729269,30.0302671 L0.00557725,29.8221918 L0,29.6153846 L0,3.76923077 C0,1.75693172 1.57691434,0.112940746 3.56242363,0.00557725 L3.76923077,0 L49,0 Z M49,1.07692308 L3.76923077,1.07692308 C2.34178711,1.07692308 1.1738045,2.18780792 1.0826498,3.59221078 L1.07692308,3.76923077 L1.07692308,29.6153846 C1.07692308,31.0428284 2.18780792,32.210811 3.59221078,32.3019655 L3.76923077,32.3076923 L24.2307692,32.3076923 C24.4951108,32.3076923 24.7149627,32.4981733 24.7605553,32.7493646 L24.7692308,32.8461538 L24.7692308,40.3846154 C24.7692308,40.6489569 24.5787497,40.8688089 24.3275585,40.9144015 L24.2307692,40.9230769 L14.5384615,40.9230769 C14.2741201,40.9230769 14.0542679,41.113558 14.0086754,41.3647492 L14,41.4615385 L14,42.5384615 C14,42.8028031 14.1904809,43.022655 14.4416724,43.0682477 L14.5384615,43.0769231 L38.2307692,43.0769231 C38.4951108,43.0769231 38.7149627,42.886442 38.7605553,42.6352508 L38.7692308,42.5384615 L38.7692308,41.4615385 C38.7692308,41.1971969 38.5787497,40.977345 38.3275585,40.9317523 L38.2307692,40.9230769 L27.4615385,40.9230769 C27.1971969,40.9230769 26.977345,40.7325959 26.9317523,40.4814047 L26.9230769,40.3846154 L26.9230769,32.8461538 C26.9230769,32.5818123 27.113558,32.3619603 27.3647492,32.3163677 L27.4615385,32.3076923 L49,32.3076923 C50.4274438,32.3076923 51.5954263,31.1968074 51.6865809,29.7924047 L51.6923077,29.6153846 L51.6923077,3.76923077 C51.6923077,3.69936552 51.6896466,3.63012182 51.68442,3.56159548 L51.6719288,3.43632087 L51.6385558,3.23128163 L51.6035181,3.08091479 C51.3153841,1.98815327 50.3575105,1.16729082 49.195482,1.08391128 L49,1.07692308 Z M25.8461538,25.3076923 C27.3330742,25.3076923 28.5384615,26.5130797 28.5384615,28 C28.5384615,29.4869203 27.3330742,30.6923077 25.8461538,30.6923077 C24.3592335,30.6923077 23.1538462,29.4869203 23.1538462,28 C23.1538462,26.5130797 24.3592335,25.3076923 25.8461538,25.3076923 Z" />
        <path id="Highlight" fill="#FCFBFF" d="M11.2136722,8.77309634 C11.4005898,8.96001395 11.4213585,9.2501633 11.2759781,9.46002131 L11.2136722,9.53459597 L6.30382674,14.4444416 C6.09354442,14.6547237 5.75260942,14.6547237 5.54232711,14.4444416 C5.3554095,14.2575238 5.33464088,13.9673746 5.48002124,13.7575165 L5.54232711,13.6829417 L10.4521726,8.77309634 C10.6624549,8.56281402 11.0033899,8.56281402 11.2136722,8.77309634 Z M10.7128465,5.40723443 C10.8997641,5.59415209 10.9205327,5.88430139 10.7751524,6.0941594 L10.7128465,6.16873406 L5.80300097,11.0785796 C5.59271871,11.2888618 5.25178371,11.2888618 5.04150139,11.0785796 C4.85458378,10.8916618 4.83381516,10.6015127 4.97919552,10.3916545 L5.04150139,10.31708 L9.95134689,5.40723443 C10.1616292,5.19695214 10.5025642,5.19695214 10.7128465,5.40723443 Z M15.3907121,4.59605658 C15.5776296,4.78297419 15.5983983,5.07312354 15.453018,5.28298152 L15.3907121,5.35755618 L12.7653652,7.98290301 C12.5550829,8.19318532 12.2141479,8.19318532 12.0038656,7.98290301 C11.816948,7.7959854 11.7961793,7.50583605 11.9415597,7.29597804 L12.0038656,7.22140338 L14.6292125,4.59605658 C14.8394947,4.38577427 15.1804297,4.38577427 15.3907121,4.59605658 Z" />
    </g>
</svg>