<svg xmlns="http://www.w3.org/2000/svg" viewBox="0 0 144 144">
    <g id="MicAdjustGain+" fill="none" fill-rule="evenodd" stroke="none" stroke-width="1">
        <rect id="background" width="144" height="144" x="0" y="0" fill="#1652FF" fill-rule="nonzero" />
        <svg xmlns="http://www.w3.org/2000/svg" xmlns:xlink="http://www.w3.org/1999/xlink" viewBox="0 0 144 144">
            <defs>
                <g fill="#000" id="grid">
                    <use xlink:href="#dot" transform="translate(31)" />
                    <use xlink:href="#dot" transform="translate(26)" />
                    <use xlink:href="#dot" transform="translate(21)" />
                    <use xlink:href="#dot" transform="translate(16)" />
                    <use xlink:href="#dot" transform="translate(11)" />
                    <use xlink:href="#dot" transform="translate(6)" />
                    <use xlink:href="#dot" transform="translate(1)" />
                </g>
                <g id="bigGrid">
                    <use xlink:href="#grid" transform="translate(0 0)" />
                    <use xlink:href="#grid" transform="translate(0 5)" />
                    <use xlink:href="#grid" transform="translate(0 10)" />
                    <use xlink:href="#grid" transform="translate(0 15)" />
                    <use xlink:href="#grid" transform="translate(0 20)" />
                    <use xlink:href="#grid" transform="translate(0 25)" />
                    <use xlink:href="#grid" transform="translate(0 30)" />
                    <use xlink:href="#grid" transform="translate(0 35)" />
                    <use xlink:href="#grid" transform="translate(0 40)" />
                    <use xlink:href="#grid" transform="translate(0 45)" />
                </g>
                <circle id="dot" cx="1.25" cy="1.25" r="1.25" />
                <path id="clipMask" d="M30 .2l.3288.0106c2.5624.1664 4.5986 2.263 4.6693 4.8503L35 5.2v63l-.0106.3288c-.1664 2.5624-2.263 4.5986-4.8503 4.6693L30 73.2h-8l-.1798.0161a1.0005 1.0005 0 00-.817.9029L21 74.2v12l.0161.1798c.08.4405.4486.7805.9029.817L22 87.2h14l.2332.0135C37.228 87.329 38 88.1743 38 89.2c0 1.0711-.842 1.9455-1.9002 1.9976L36 91.2H2l-.2332-.0135C.772 91.071 0 90.2257 0 89.2c0-1.0711.842-1.9455 1.9002-1.9976L2 87.2h14l.1798-.0161c.4405-.08.7805-.4486.817-.9029L17 86.2v-12l-.0161-.1798a1.0005 1.0005 0 00-.9029-.817L16 73.2H8l-.3288-.0106c-2.5624-.1664-4.5986-2.263-4.6693-4.8503L3 68.2v-63l.0106-.3288C3.177 2.3088 5.2736.2726 7.861.202L8 .2h22zm-11 4c-3.3137 0-6 2.6863-6 6s2.6863 6 6 6 6-2.6863 6-6-2.6863-6-6-6z" />
            </defs>
            <g id="icon" transform="scale(.75) translate(39,47)" fill="none" fill-rule="evenodd" stroke="none" stroke-width="1">
                <path id="body-shadow" fill="#000" fill-rule="nonzero" d="M39,0 C40.8520465,0 42.536103,0.7192529 43.7880805,1.89367035 L43.899,2 L43.8987005,1.9997232 L47,2 C50.737127,2 53.790253,4.9285552 53.9896425,8.6159296 L54,9 L53.9995,48.9895 L54,49 L54,50.9765 L54.0022175,50.88358 C54.059696,49.3772425 55.227809,48.1554685 56.71108,48.013733 L57,48 L59,48 C60.559392,48 61.8408975,49.189776 61.986267,50.71108 L62,51 L62,59 C62,60.559392 60.810224,61.8408975 59.28892,61.986267 L59,62 L57,62 C55.440608,62 54.1591025,60.810224 54.013733,59.28892 L54,59 L54,73 C54,76.737127 51.071445,79.790253 47.3840705,79.9896425 L47,80 L39,80 L38.9998145,87.999723 L31,88 L44,88 C45.437141,88 46.697264,88.7579045 47.4024765,89.895822 L47.464756,89.9998005 L52,90 C54.0032875,90 55.662617,91.4726595 55.954461,93.3944515 L55.9890285,93.7014755 L56,94 C56,96.1087235 54.3682445,97.83633 52.2985245,97.9890285 L52,98 L18,98 C16.5194685,98 15.2268055,97.1956385 14.535175,96.00008 L10,96 C7.790861,96 6,94.209139 6,92 C6,89.8912765 7.6317555,88.16367 9.7014755,88.0109715 L10,88 L23,88 L23,80 C21.0927695,80 19.3636895,79.2372465 18.1011655,78.000145 L15,78 C11.3917395,78 8.421121,75.269932 8.041075,71.762727 L8.0103575,71.3840705 L8,71 L8,57 C8,58.559392 6.810224,59.8408975 5.28892,59.986267 L5,60 L3,60 C1.44060775,60 0.15910265,58.810224 0.01373315,57.28892 L0,57 L0,49 C0,47.440608 1.18977615,46.1591025 2.71108,46.013733 L3,46 L5,46 C6.559392,46 7.8408975,47.189776 7.986267,48.71108 L8,48.999 L8,7 C8,3.2628732 10.928555,0.2097471 14.6159295,0.01035775 L15,0 L39,0 Z M39,2 L15,2 L14.8609285,2.00189675 C12.2735395,2.07255625 10.1769525,4.10882935 10.0106355,6.6712486 L10.0106355,6.6712486 L10,7 L10,71 L10.001897,71.1390715 C10.0725565,73.7264605 12.1088295,75.8230475 14.6712485,75.9893645 L14.6712485,75.9893645 L15,76 L24,76 L24.0810135,76.003234 C24.5352875,76.0396535 24.9039205,76.379667 24.9838885,76.8202485 L24.9838885,76.8202485 L25,77 L25,89 L24.996766,89.0810135 C24.9603465,89.5352875 24.620333,89.9039205 24.1797515,89.9838885 L24.1797515,89.9838885 L24,90 L10,90 L9.90018,90.0024475 C8.841984,90.0544605 8,90.9289025 8,92 C8,93.0256715 8.7720805,93.8710145 9.7667575,93.9865445 L9.7667575,93.9865445 L10,94 L44,94 L44.09982,93.9975525 C45.158016,93.9455395 46,93.0710975 46,92 C46,90.9743285 45.2279195,90.1289855 44.2332425,90.0134555 L44.2332425,90.0134555 L44,90 L30,90 L29.9189865,89.996766 C29.4647125,89.9603465 29.0960795,89.620333 29.0161115,89.1797515 L29.0161115,89.1797515 L29,89 L29,77 L29.003234,76.9189865 C29.0396535,76.4647125 29.379667,76.0960795 29.8202485,76.0161115 L29.8202485,76.0161115 L30,76 L39,76 L39.1390715,75.998103 C41.7264605,75.9274435 43.8230475,73.8911705 43.9893645,71.3287515 L43.9893645,71.3287515 L44,71 L44,7 L43.998103,6.86092855 C43.9274435,4.2735396 41.8911705,2.1769527 39.3287515,2.01063535 L39.3287515,2.01063535 L39,2 Z M5,48 L3,48 L2.9189864,48.003234 C2.46471275,48.0396535 2.09607925,48.379667 2.01611135,48.8202485 L2.01611135,48.8202485 L2,49 L2,57 L2.00323415,57.0810135 C2.0396536,57.5352875 2.3796669,57.9039205 2.82024875,57.9838885 L2.82024875,57.9838885 L3,58 L5,58 L5.0810135,57.996766 C5.5352875,57.9603465 5.9039205,57.620333 5.9838885,57.1797515 L5.9838885,57.1797515 L6,57 L6,49 L5.996766,48.9189865 C5.9603465,48.4647125 5.620333,48.0960795 5.1797515,48.0161115 L5.1797515,48.0161115 L5,48 Z M51,48 L49,48 L48.9189865,48.003234 C48.4647125,48.0396535 48.0960795,48.379667 48.0161115,48.8202485 L48.0161115,48.8202485 L48,49 L48,57 L48.003234,57.0810135 C48.0396535,57.5352875 48.379667,57.9039205 48.8202485,57.9838885 L48.8202485,57.9838885 L49,58 L51,58 L51.0810135,57.996766 C51.5352875,57.9603465 51.9039205,57.620333 51.9838885,57.1797515 L51.9838885,57.1797515 L52,57 L52,49 L51.996766,48.9189865 C51.9603465,48.4647125 51.620333,48.0960795 51.1797515,48.0161115 L51.1797515,48.0161115 L51,48 Z" />
                    <path id="wave-fill-blue" fill="#FFF" opacity="0.7" fill-rule="nonzero" d="M39 2l.3288.0106c2.5624.1664 4.5986 2.263 4.6693 4.8503L44 7v64l-.0106.3288c-.1664 2.5624-2.263 4.5986-4.8503 4.6693L39 76h-9l-.1798.0161a1.0005 1.0005 0 00-.817.9029L29 77v12l.0161.1798c.08.4405.4486.7805.9029.817L30 90h14l.2332.0135C45.228 90.129 46 90.9743 46 92c0 1.0711-.842 1.9455-1.9002 1.9976L44 94H10l-.2332-.0135C8.772 93.871 8 93.0257 8 92c0-1.0711.842-1.9455 1.9002-1.9976L10 90h14l.1798-.0161c.4405-.08.7805-.4486.817-.9029L25 89V77l-.0161-.1798a1.0005 1.0005 0 00-.9029-.817L24 76h-9l-.3288-.0106c-2.5624-.1664-4.5986-2.263-4.6693-4.8503L10 71V7l.0106-.3288c.1664-2.5624 2.263-4.5986 4.8503-4.6693L15 2h24zM5 48l.1798.0161c.4405.08.7805.4486.817.9029L6 49v8l-.0161.1798a1.0005 1.0005 0 01-.9029.817L5 58H3l-.1798-.0161a1.0005 1.0005 0 01-.817-.9029L2 57v-8l.0161-.1798c.08-.4405.4486-.7805.9029-.817L3 48h2zm46 0l.1798.0161c.4405.08.7805.4486.817.9029L52 49v8l-.0161.1798a1.0005 1.0005 0 01-.9029.817L51 58h-2l-.1798-.0161a1.0005 1.0005 0 01-.817-.9029L48 57v-8l.0161-.1798c.08-.4405.4486-.7805.9029-.817L49 48h2z" />
                <path id="Highlight" fill="#FFF" fill-rule="nonzero" d="M13 62c.491 0 .8992.3538.9839.8202L14 63v6.7347C14 70.9858 15.0142 72 16.2653 72c.5523 0 1 .4477 1 1s-.4477 1-1 1c-2.2532 0-4.0984-1.7472-4.2546-3.9607L12 69.7347V63c0-.5523.4477-1 1-1z" />
                <path id="wave-fill-black" fill="#000" fill-rule="nonzero" d="M27 63c2.2091 0 4 1.7909 4 4 0 2.2091-1.7909 4-4 4-2.2091 0-4-1.7909-4-4 0-2.2091 1.7909-4 4-4zm17-10.5v2H10v-2h34z" />
                <g id="overlays" transform="translate(8 3)">
                    <g id="dots-Clipped">
                        <mask id="bodyMask" fill="#fff">
                            <use xlink:href="#clipMask" />
                        </mask>
                        <g id="dots" mask="url(#bodyMask)">
                            <g id="dots_grid">
                                <use xlink:href="#bigGrid" />
                                <use xlink:href="#bigGrid" transform="translate(2.5 2.8)" />
                            </g>
                        </g>
                    </g>
                </g>
                <circle id="dot2" fill="#FFF" opacity="0.5" cx="27" cy="13" r="6" />
                <path id="logo" fill="#000" fill-rule="nonzero" d="M27.033 8.8c.8631 0 1.694.2565 2.4016.7415.6912.4738 1.2207 1.1325 1.5306 1.9044.0396.0987.076.2006.1082.303l-.0912.2333-.7167.412-.2936-.1243a2.9795 2.9795 0 00-.0828-.2716c-.4284-1.1972-1.5763-2.0022-2.856-2.0022-1.671 0-3.0301 1.348-3.0301 3.004 0 1.6557 1.359 3.0038 3.03 3.0038.6497 0 1.2687-.2015 1.7915-.583.5123-.374.8874-.8858 1.0783-1.4507l-.0013.0023-.0435.1075-3.472-1.97v1.744l1.25-.6229.6948.394.0006.3475-2.2205 1.157-.7155-.4044-.1016-.174v-3.1534l.1008-.1736.9122-.4086 4.7924 2.7214.098.2096c-.173.956-.6805 1.8285-1.4303 2.4592-.7624.6412-1.7331.9942-2.7339.9942-1.1298 0-2.1931-.4369-2.9923-1.2295-.7995-.793-1.2403-1.8487-1.2403-2.9705s.4408-2.1774 1.2403-2.9704C24.84 9.2369 25.9032 8.8 27.033 8.8z" />
            </g>
        </svg>

        <path id="shadow-with-outline" fill="#000" fill-rule="nonzero" d="M98.619,53.6875 C99.877,53.6875 100.904,54.6795 100.96,55.924 L100.9625,56.0315 L100.9625,56.1875 L101.119,56.1875 C102.377,56.1875 103.404,57.1795 103.46,58.424 L103.4625,58.5315 L103.4625,65.287 L110.219,65.2875 C111.44,65.2875 112.4435,66.222 112.5525,67.415 L112.56,67.524 L112.5625,67.6315 L112.5625,67.787 L112.719,67.7875 C113.94,67.7875 114.9435,68.722 115.0525,69.915 L115.06,70.024 L115.0625,70.1315 L115.0625,74.369 C115.0625,75.627 114.0705,76.654 112.826,76.71 L112.719,76.7125 L103.4625,76.7125 L103.4625,85.969 C103.4625,87.19 102.528,88.1935 101.335,88.3025 L101.226,88.31 L101.119,88.3125 L96.881,88.3125 C95.623,88.3125 94.596,87.3205 94.54,86.076 L94.5375,85.969 L94.5375,85.8125 L94.381,85.8125 C93.123,85.8125 92.096,84.8205 92.04,83.576 L92.0375,83.469 L92.037,76.7125 L85.2815,76.7125 C84.06,76.7125 83.0565,75.778 82.9475,74.585 L82.94,74.476 L82.9375,74.369 L82.9375,74.2125 L82.7815,74.2125 C81.56,74.2125 80.5565,73.278 80.4475,72.085 L80.44,71.976 L80.4375,71.869 L80.4375,67.6315 C80.4375,66.373 81.4295,65.346 82.674,65.29 L82.7815,65.2875 L92.0375,65.2875 L92.0375,56.0315 C92.0375,54.81 92.972,53.8065 94.165,53.6975 L94.274,53.69 L94.381,53.6875 L98.619,53.6875 Z M98.619,55.25 L94.381,55.25 C93.9735,55.25 93.639,55.562 93.603,55.96 L93.6,56.0315 L93.6,66.85 L82.7815,66.85 C82.3735,66.85 82.039,67.162 82.003,67.56 L82,67.6315 L82,71.869 C82,72.2765 82.312,72.611 82.71,72.647 L82.7815,72.65 L93.5995,72.65 L93.6,83.469 C93.6,83.8765 93.912,84.211 94.31,84.247 L94.381,84.25 L98.619,84.25 C99.0265,84.25 99.361,83.938 99.397,83.54 L99.4,83.469 L99.4,72.65 L110.219,72.65 C110.6265,72.65 110.961,72.338 110.997,71.94 L111,71.869 L111,67.6315 C111,67.2235 110.688,66.889 110.29,66.853 L110.219,66.85 L99.4,66.85 L99.4,56.0315 C99.4,55.6 99.05,55.25 98.619,55.25 Z" />
        <path id="Icon-fill-path" fill="#FFF" fill-opacity=".7" fill-rule="nonzero" d="M98.619,55.25 C99.05,55.25 99.4,55.6 99.4,56.0315 L99.4,66.85 L110.219,66.85 C110.65,66.85 111,67.2 111,67.6315 L111,71.869 C111,72.3 110.65,72.65 110.219,72.65 L99.4,72.65 L99.4,83.469 C99.4,83.9 99.05,84.25 98.619,84.25 L94.381,84.25 C93.95,84.25 93.6,83.9 93.6,83.469 L93.5995,72.65 L82.7815,72.65 C82.35,72.65 82,72.3 82,71.869 L82,67.6315 C82,67.2 82.35,66.85 82.7815,66.85 L93.6,66.85 L93.6,56.0315 C93.6,55.6 93.95,55.25 94.381,55.25 L98.619,55.25 Z" />
        <path id="Highlight-path" fill="#FFF" fill-rule="nonzero" d="M85.0005,68 L89.688,68.0025 C90.102,68.0025 90.4375,68.3385 90.4375,68.7525 C90.4375,69.1425 90.1395,69.463 89.7595,69.499 L89.687,69.5025 L84.9995,69.5 C84.5855,69.5 84.25,69.164 84.25,68.7495 C84.25,68.36 84.548,68.0395 84.928,68.0035 L85.0005,68 Z" />
    </g>
</svg>