<svg xmlns="http://www.w3.org/2000/svg" viewBox="0 0 144 144">
    <rect id="background" width="144" height="144" x="0" y="0" fill="#1652FF" fill-rule="nonzero" />
    <g id="icon" transform="translate(37 10)">
        <path id="fill-path" fill="#FFF" fill-opacity=".7" fill-rule="nonzero" d="M39.8685,37.0245 L40.008172,37.1376925 C42.190144,38.9387789 43.838185,41.3214325 44.7475015,44.04922 L50.559974,61.485598 C50.885273,62.461437 50.357906,63.516217 49.3820675,63.841516 C49.32252,63.8613665 49.2620075,63.878194 49.2007605,63.891934 L41.65932,65.583777 L41.594786,65.6012305 C41.1744365,65.7349115 40.95499,66.2084225 41.13822,66.620382 L44.002,73.0585 L43.8478915,73.0667255 C37.6395335,73.422853 34.3925495,76.4162705 34.3925495,81.928575 L34.3937825,82.1169335 C34.465264,87.5506495 37.64429,90.551566 43.671461,90.985992 L43.984,91.006 L43.8960365,93.737082 C43.8256455,95.918852 41.9999085,97.630463 39.818138,97.560072 L39.7395395,97.556753 L27.6354725,96.683808 L27.4119945,96.666179 C20.1249665,96.042388 14.1475495,90.735824 12.597625,83.6874135 L12.5755,83.584 L13.045472,79.4255635 C14.815482,63.91218 16.116089,54.4436735 16.935464,51.0804845 L16.989376,50.8653175 C17.0795605,50.5158935 17.160312,50.175737 17.243334,49.8007065 L17.5429805,48.3931445 L17.6042315,48.1226755 C18.0355925,46.2903345 18.54422,45.7143585 20.5531715,44.9233615 L20.85131,44.8095475 C22.4610265,44.2132305 24.9195495,43.580172 29.2633265,42.62194 C33.338539,41.7229535 36.8145305,39.9169547 39.6772045,37.2086007 L39.8685,37.0245 Z" />
        <path id="Shadow-with-outline" fill="#000" fill-rule="nonzero" d="M43.7509835,35.4247284 C46.425889,37.4001732 48.4592465,40.131543 49.5769625,43.302029 L49.670518,43.5748525 L55.4829905,61.011231 C56.070275,62.77298 55.1181835,64.677248 53.3564345,65.2645325 C53.2847645,65.288424 53.21232,65.30989 53.1392245,65.3288955 L53.029109,65.355555 L46.3805,66.8465 L49.329078,73.4759 C49.53165,73.931345 49.2420885,74.439761 48.7730925,74.519833 L48.7080555,74.528052 L48.6438045,74.5306945 C42.360516,74.5306945 39.3925495,76.9486545 39.3925495,81.928575 C39.3925495,86.9234125 42.2474045,89.404716 48.2740955,89.5358505 C48.6681105,89.5444235 48.983958,89.8551785 49.0065005,90.241032 L49.00739,90.309857 L48.8952565,93.785451 C48.798152,96.795218 46.279535,99.156396 43.2697685,99.059292 L43.161341,99.054713 L43.161341,99.054713 L43.053026,99.047978 L41.208763,98.915196 C40.7481855,99.024561 40.265643,99.07529 39.7697685,99.059292 L39.661341,99.054713 L39.661341,99.054713 L39.553026,99.047978 L27.5274765,98.179916 C19.391197,97.592601 12.7061327,91.655826 11.0824137,83.773752 C11.0665207,83.696602 11.0628806,83.61743 11.0716273,83.5391475 C13.120947,65.1978175 14.594547,54.247271 15.5094185,50.598784 L15.5369705,50.4904585 L15.589457,50.2837145 C15.623836,50.1460055 15.6571265,50.0080205 15.690146,49.8666545 L15.739573,49.6516825 L15.839656,49.19721 L16.112194,47.9177935 C16.648409,45.568253 17.426658,44.571624 19.843662,43.59156 L20.00363,43.5276525 L20.106655,43.4874905 C21.631126,42.899069 23.8233395,42.308564 27.5821725,41.4600245 L27.853337,41.3989725 L28.9401975,41.157158 C33.054115,40.249633 36.490525,38.3677969 39.2671325,35.5058003 C39.528563,35.2363302 39.948969,35.2016876 40.2509835,35.4247284 C40.737831,35.7842702 41.2034265,36.1688527 41.6461175,36.576566 C42.0308815,36.2363945 42.40463,35.8794508 42.7671325,35.5058003 C43.028563,35.2363302 43.448969,35.2016876 43.7509835,35.4247284 Z M39.8685,37.0245 L39.6772045,37.2086006 C36.8145305,39.9169546 33.338539,41.7229535 29.2633265,42.62194 C24.9195495,43.580172 22.4610265,44.2132305 20.85131,44.8095475 L20.85131,44.8095475 L20.5531715,44.9233615 C18.54422,45.7143585 18.0355925,46.2903345 17.6042315,48.1226755 L17.6042315,48.1226755 L17.5429805,48.3931445 L17.243334,49.8007065 C17.160312,50.175737 17.0795605,50.5158935 16.989376,50.8653175 L16.989376,50.8653175 L16.935464,51.0804845 C16.116089,54.4436735 14.815482,63.91218 13.045472,79.4255635 L13.045472,79.4255635 L12.5755,83.584 L12.597625,83.6874135 C14.1475495,90.735824 20.1249665,96.042388 27.4119945,96.666179 L27.4119945,96.666179 L27.6354725,96.683808 L39.7395395,97.556753 L39.818138,97.560072 C41.9999085,97.630463 43.8256455,95.918851 43.8960365,93.737081 L43.8960365,93.737081 L43.984,91.006 L43.671461,90.985992 C37.64429,90.551566 34.465264,87.5506495 34.3937825,82.1169335 L34.3937825,82.1169335 L34.3925495,81.928575 C34.3925495,76.4162705 37.6395335,73.422853 43.8478915,73.0667255 L43.8478915,73.0667255 L44.002,73.0585 L41.13822,66.620382 C40.95499,66.2084225 41.1744365,65.7349115 41.594786,65.6012305 L41.594786,65.6012305 L41.65932,65.583777 L49.2007605,63.891934 C49.2620075,63.878194 49.32252,63.8613665 49.3820675,63.841516 C50.357906,63.516217 50.885273,62.461437 50.559974,61.485598 L50.559974,61.485598 L44.7475015,44.04922 C43.838185,41.3214325 42.190144,38.9387789 40.008172,37.1376925 L40.008172,37.1376925 L39.8685,37.0245 Z M32.02375,55.65 C33.6108785,55.65 34.8975,56.9366215 34.8975,58.52375 C34.8975,60.1108785 33.6108785,61.3975 32.02375,61.3975 C30.4366215,61.3975 29.15,60.1108785 29.15,58.52375 C29.15,56.9366215 30.4366215,55.65 32.02375,55.65 Z M12.5291516,24.1526902 L12.9636682,24.1550161 C14.8671175,24.1810598 17.038421,24.4151938 19.5083995,24.8788259 C30.551623,26.9517166 38.68865,27.2173759 43.9194795,25.6758037 L44.12181,25.6148351 C44.4847235,25.5030108 44.86135,25.5883242 45.136434,25.8098167 L45.1438045,25.7936925 C47.2320205,27.8593452 47.8051425,29.7124696 46.8631695,31.3530654 C45.9211965,32.9936613 44.617499,35.0225808 42.9520765,37.4398241 L40.656038,36.167295 C37.8720455,39.3039036 34.1872865,41.377988 29.601762,42.389549 L28.091089,42.7268585 C16.8005615,45.282882 18.0592085,45.901374 16.844229,50.855705 L16.705939,51.406524 C15.768101,55.2626985 14.230646,66.8383825 12.0935746,86.133576 L12.0286313,86.7206415 L11.2223214,83.985572 C6.2617566,67.062755 3.0366341,54.218611 1.5469538,45.45314 L1.5,45.174776 C-0.4936758,33.2646583 0.2085071,24.1913476 12.5291516,24.1526902 Z M38.674581,49.16 C39.828856,49.16 40.764581,50.095725 40.764581,51.25 C40.764581,52.369297 39.8847075,53.2830885 38.778893,53.337442 L38.674581,53.34 L30.8,53.34 C29.645725,53.34 28.71,52.404275 28.71,51.25 C28.71,50.130703 29.5898735,49.2169115 30.695688,49.162558 L30.8,49.16 L38.674581,49.16 Z" />
        <path id="hole_head" fill="#B9CBFF" d="M10.9217072,26.0423265 C11.6514764,25.9948581 12.432961,25.9871261 13.2682948,26.0200896 C13.1018991,26.1968402 13,26.4365202 13,26.7 C13,27.2522847 13.4477153,27.7 14,27.7 C14.5522847,27.7 15,27.2522847 15,26.7 C15,26.4845823 14.9318857,26.2850736 14.8160197,26.1218365 C15.5251488,26.1866115 16.2693618,26.2767021 17.0489095,26.3929342 C17.0168125,26.4898799 17,26.5929765 17,26.7 C17,27.2522847 17.4477153,27.7 18,27.7 C18.5128358,27.7 18.9355072,27.3139598 18.9932723,26.8166211 L18.999,26.724 L19.3438257,26.7883562 C19.9324543,26.8970748 20.5130469,27.0007003 21.0856154,27.0992239 C21.237035,27.4528411 21.589654,27.7 22,27.7 C22.2929803,27.7 22.556533,27.5740051 22.7394303,27.3732432 C27.8863968,28.1915954 32.3494856,28.5735265 36.1376113,28.5118097 L36.3823634,28.5068462 C35.8855148,28.5650683 35.5,28.9875132 35.5,29.5 C35.5,30.0522847 35.9477153,30.5 36.5,30.5 C37.0522847,30.5 37.5,30.0522847 37.5,29.5 C37.5,28.9871641 37.1139598,28.5644928 36.6166211,28.5067277 L36.5540667,28.5031685 C38.8658864,28.4447555 40.9197159,28.2165799 42.7178113,27.8169773 L43.2018622,27.7037432 L43.3244047,27.6728075 L43.2018282,28.0397509 C41.5360289,32.895534 38.8161352,36.4213304 34.9993461,38.6694999 C34.9828693,38.1307858 34.5417424,37.7 34,37.7 C33.4477153,37.7 33,38.1477152 33,38.7 C33,39.0297751 33.159629,39.3222669 33.405833,39.5044215 C32.2132715,40.0577096 30.9266063,40.5042753 29.545775,40.8450326 L29.3022127,40.9028589 C29.1199076,40.6583442 28.8284454,40.5 28.5,40.5 C28.0154417,40.5 27.6113788,40.8446417 27.5195654,41.302171 L26.2408244,41.5965629 L26.2408244,41.5965629 L25.4571585,41.7814467 L25.4571585,41.7814467 C25.4859341,41.6924982 25.5,41.5978917 25.5,41.5 C25.5,40.9477152 25.0522847,40.5 24.5,40.5 C23.9477153,40.5 23.5,40.9477152 23.5,41.5 C23.5,41.7703693 23.6072978,42.0156779 23.7816344,42.1956669 L23.3962263,42.2959389 L23.3962263,42.2959389 L22.6742933,42.4906902 L22.6742933,42.4906902 L22.0132693,42.6789472 L22.0132693,42.6789472 L21.4080315,42.8621851 C21.0219968,42.9829984 20.6697379,43.101449 20.3444246,43.2195037 L19.8758102,43.3965346 L19.7078577,43.4636796 C19.3224421,43.620171 18.9723699,43.779423 18.6536564,43.9450541 C18.4797522,43.7922132 18.2506449,43.7 18,43.7 C17.4477153,43.7 17,44.1477152 17,44.7 C17,44.8280155 17.0240548,44.9504128 17.0678909,45.0629184 C16.6175219,45.5093209 16.2766615,46.0204424 16.0044306,46.6325594 C15.7028125,46.8039404 15.5,47.1282855 15.5,47.5 C15.5,47.6326566 15.5258306,47.7592802 15.5727364,47.8751154 L15.4737587,48.2655666 L15.3334708,48.8999833 L15.3334708,48.8999833 L15.2156317,49.4591781 L15.0640472,50.1576876 L14.981439,50.5129896 L14.981439,50.5129896 C14.8944393,50.0496256 14.4880494,49.7 14,49.7 C13.4477153,49.7 13,50.1477152 13,50.7 C13,51.2522847 13.4477153,51.7 14,51.7 C14.3155913,51.7 14.5970374,51.5538072 14.7803112,51.3254489 L14.7239119,51.5673686 L14.7239119,51.5673686 L14.5637344,52.3147794 L14.5637344,52.3147794 L14.4517623,52.8817626 L14.4517623,52.8817626 L14.3356302,53.5037674 L14.3356302,53.5037674 L14.1536127,54.5400418 L14.1536127,54.5400418 L13.9621856,55.7003761 L13.9621856,55.7003761 C13.4266493,55.721379 13,56.1608648 13,56.7 C13,57.133938 13.2763956,57.5033203 13.6627412,57.6417013 L13.4404296,59.1577383 L13.4404296,59.1577383 C13.3020033,58.7754111 12.9331645,58.5 12.5,58.5 C11.9477153,58.5 11.5,58.9477152 11.5,59.5 C11.5,60.0522847 11.9477153,60.5 12.5,60.5 C12.8328779,60.5 13.1277676,60.3373531 13.3095337,60.0871947 L13.0604574,61.8911433 L13.0604574,61.8911433 L12.8006804,63.8410053 C12.7712093,64.0657442 12.7415336,64.2931758 12.7116515,64.5232971 C12.6434202,64.5077395 12.5726139,64.5 12.5,64.5 C11.9477153,64.5 11.5,64.9477152 11.5,65.5 C11.5,66.0522847 11.9477153,66.5 12.5,66.5 L12.4586755,66.4967202 L12.0727584,69.5959277 L12.0727584,69.5959277 C11.7338325,69.7563541 11.5,70.1008698 11.5,70.5 C11.5,70.8127047 11.6435307,71.0918861 11.8683058,71.2752577 L11.4967986,74.3905535 L11.4967986,74.3905535 L11.0114047,78.5633076 L10.535737,76.8932846 L9.91606574,74.6945317 L9.91606574,74.6945317 L10,74.7 C10.5522847,74.7 11,74.2522847 11,73.7 C11,73.1477152 10.5522847,72.7 10,72.7 C9.78059314,72.7 9.5776899,72.7706604 9.41280522,72.8904663 L8.99374106,71.3665561 L8.99374106,71.3665561 C9.29674346,71.1967692 9.5,70.8721211 9.5,70.5 C9.5,69.9871641 9.11395981,69.5644928 8.61662113,69.5067277 L8.48485391,69.5001123 L8.48485391,69.5001123 L7.90928137,67.3529115 L7.90928137,67.3529115 L7.35990726,65.2680495 L7.35990726,65.2680495 L6.83687695,63.2455862 L6.83687695,63.2455862 C6.94029804,63.0894098 7,62.901677 7,62.7 C7,62.3201517 6.78821456,61.9897685 6.47628371,61.8204906 L6.03492421,60.0565993 L6.03492421,60.0565993 L5.61683128,58.3454704 C5.54905698,58.0646849 5.48222885,57.7861023 5.41633525,57.5097247 C5.58014994,57.6301934 5.78192288,57.7 6,57.7 C6.55228475,57.7 7,57.2522847 7,56.7 C7,56.1477152 6.55228475,55.7 6,55.7 C5.61567814,55.7 5.28199341,55.9168033 5.11457693,56.2347788 L4.71038917,54.4755508 L4.71038917,54.4755508 C5.16178386,54.3810452 5.5,53.9800199 5.5,53.5 C5.5,52.9477152 5.05228475,52.5 4.5,52.5 C4.42354592,52.5 4.34909575,52.5085798 4.27755982,52.524829 C3.79324532,50.3012434 3.38418758,48.2541354 3.05008749,46.3840248 L2.92831301,45.6910311 L2.84975712,45.2274329 C2.94499322,45.0743211 3,44.8935843 3,44.7 C3,44.3916249 2.86041647,44.1158514 2.64098417,43.9324141 C2.40613512,42.4040534 2.23458399,40.9923658 2.12833651,39.6901963 C2.62024104,39.6285956 3,39.2086465 3,38.7 C3,38.1871641 2.61395981,37.7644928 2.11662113,37.7067277 L2.01446321,37.6996881 C1.96893991,36.1941106 2.03052294,34.8582123 2.2042863,33.6768539 C2.65882572,33.5845436 3,33.1821145 3,32.7 C3,32.3671221 2.83735314,32.0722324 2.58719478,31.8904663 C2.8399558,31.0199806 3.17780713,30.2560791 3.60288641,29.5897363 L3.52372812,29.7175359 C3.62303996,30.1652187 4.02242381,30.5 4.5,30.5 C5.05228475,30.5 5.5,30.0522847 5.5,29.5 C5.5,28.9477152 5.05228475,28.5 4.5,28.5 L4.46775395,28.50051 L4.46775395,28.50051 C4.79417201,28.1684306 5.15890735,27.8678388 5.56365045,27.5998575 C5.69587247,27.6641649 5.84375137,27.7 6,27.7 C6.4974752,27.7 6.91010627,27.336739 6.98710693,26.8610035 C7.61915278,26.6040667 8.32276527,26.404258 9.09991395,26.2618427 C9.03619075,26.3944085 9,26.5429778 9,26.7 C9,27.2522847 9.44771525,27.7 10,27.7 C10.5522847,27.7 11,27.2522847 11,26.7 C11,26.453566 10.9108591,26.227952 10.7630628,26.0536434 L10.9217072,26.0423265 Z M10,66.7 C9.44771525,66.7 9,67.1477152 9,67.7 C9,68.2522847 9.44771525,68.7 10,68.7 C10.5522847,68.7 11,68.2522847 11,67.7 C11,67.1477152 10.5522847,66.7 10,66.7 Z M8.5,64.5 C7.94771525,64.5 7.5,64.9477152 7.5,65.5 C7.5,66.0522847 7.94771525,66.5 8.5,66.5 C9.05228475,66.5 9.5,66.0522847 9.5,65.5 C9.5,64.9477152 9.05228475,64.5 8.5,64.5 Z M10,61.7 C9.44771525,61.7 9,62.1477152 9,62.7 C9,63.2522847 9.44771525,63.7 10,63.7 C10.5522847,63.7 11,63.2522847 11,62.7 C11,62.1477152 10.5522847,61.7 10,61.7 Z M8.5,58.5 C7.94771525,58.5 7.5,58.9477152 7.5,59.5 C7.5,60.0522847 7.94771525,60.5 8.5,60.5 C9.05228475,60.5 9.5,60.0522847 9.5,59.5 C9.5,58.9477152 9.05228475,58.5 8.5,58.5 Z M10,55.7 C9.44771525,55.7 9,56.1477152 9,56.7 C9,57.2522847 9.44771525,57.7 10,57.7 C10.5522847,57.7 11,57.2522847 11,56.7 C11,56.1477152 10.5522847,55.7 10,55.7 Z M12.5,52.5 C11.9477153,52.5 11.5,52.9477152 11.5,53.5 C11.5,54.0522847 11.9477153,54.5 12.5,54.5 C13.0522847,54.5 13.5,54.0522847 13.5,53.5 C13.5,52.9477152 13.0522847,52.5 12.5,52.5 Z M8.5,52.5 C7.94771525,52.5 7.5,52.9477152 7.5,53.5 C7.5,54.0522847 7.94771525,54.5 8.5,54.5 C9.05228475,54.5 9.5,54.0522847 9.5,53.5 C9.5,52.9477152 9.05228475,52.5 8.5,52.5 Z M6,49.7 C5.44771525,49.7 5,50.1477152 5,50.7 C5,51.2522847 5.44771525,51.7 6,51.7 C6.55228475,51.7 7,51.2522847 7,50.7 C7,50.1477152 6.55228475,49.7 6,49.7 Z M10,49.7 C9.44771525,49.7 9,50.1477152 9,50.7 C9,51.2522847 9.44771525,51.7 10,51.7 C10.5522847,51.7 11,51.2522847 11,50.7 C11,50.1477152 10.5522847,49.7 10,49.7 Z M12.5,46.5 C11.9477153,46.5 11.5,46.9477152 11.5,47.5 C11.5,48.0522847 11.9477153,48.5 12.5,48.5 C13.0522847,48.5 13.5,48.0522847 13.5,47.5 C13.5,46.9477152 13.0522847,46.5 12.5,46.5 Z M4.5,46.5 C3.94771525,46.5 3.5,46.9477152 3.5,47.5 C3.5,48.0522847 3.94771525,48.5 4.5,48.5 C5.05228475,48.5 5.5,48.0522847 5.5,47.5 C5.5,46.9477152 5.05228475,46.5 4.5,46.5 Z M8.5,46.5 C7.94771525,46.5 7.5,46.9477152 7.5,47.5 C7.5,48.0522847 7.94771525,48.5 8.5,48.5 C9.05228475,48.5 9.5,48.0522847 9.5,47.5 C9.5,46.9477152 9.05228475,46.5 8.5,46.5 Z M6,43.7 C5.44771525,43.7 5,44.1477152 5,44.7 C5,45.2522847 5.44771525,45.7 6,45.7 C6.55228475,45.7 7,45.2522847 7,44.7 C7,44.1477152 6.55228475,43.7 6,43.7 Z M14,43.7 C13.4477153,43.7 13,44.1477152 13,44.7 C13,45.2522847 13.4477153,45.7 14,45.7 C14.5522847,45.7 15,45.2522847 15,44.7 C15,44.1477152 14.5522847,43.7 14,43.7 Z M10,43.7 C9.44771525,43.7 9,44.1477152 9,44.7 C9,45.2522847 9.44771525,45.7 10,45.7 C10.5522847,45.7 11,45.2522847 11,44.7 C11,44.1477152 10.5522847,43.7 10,43.7 Z M20.5,40.5 C19.9477153,40.5 19.5,40.9477152 19.5,41.5 C19.5,42.0522847 19.9477153,42.5 20.5,42.5 C21.0522847,42.5 21.5,42.0522847 21.5,41.5 C21.5,40.9477152 21.0522847,40.5 20.5,40.5 Z M4.5,40.5 C3.94771525,40.5 3.5,40.9477152 3.5,41.5 C3.5,42.0522847 3.94771525,42.5 4.5,42.5 C5.05228475,42.5 5.5,42.0522847 5.5,41.5 C5.5,40.9477152 5.05228475,40.5 4.5,40.5 Z M12.5,40.5 C11.9477153,40.5 11.5,40.9477152 11.5,41.5 C11.5,42.0522847 11.9477153,42.5 12.5,42.5 C13.0522847,42.5 13.5,42.0522847 13.5,41.5 C13.5,40.9477152 13.0522847,40.5 12.5,40.5 Z M16.5,40.5 C15.9477153,40.5 15.5,40.9477152 15.5,41.5 C15.5,42.0522847 15.9477153,42.5 16.5,42.5 C17.0522847,42.5 17.5,42.0522847 17.5,41.5 C17.5,40.9477152 17.0522847,40.5 16.5,40.5 Z M8.5,40.5 C7.94771525,40.5 7.5,40.9477152 7.5,41.5 C7.5,42.0522847 7.94771525,42.5 8.5,42.5 C9.05228475,42.5 9.5,42.0522847 9.5,41.5 C9.5,40.9477152 9.05228475,40.5 8.5,40.5 Z M22,37.7 C21.4477153,37.7 21,38.1477152 21,38.7 C21,39.2522847 21.4477153,39.7 22,39.7 C22.5522847,39.7 23,39.2522847 23,38.7 C23,38.1477152 22.5522847,37.7 22,37.7 Z M18,37.7 C17.4477153,37.7 17,38.1477152 17,38.7 C17,39.2522847 17.4477153,39.7 18,39.7 C18.5522847,39.7 19,39.2522847 19,38.7 C19,38.1477152 18.5522847,37.7 18,37.7 Z M10,37.7 C9.44771525,37.7 9,38.1477152 9,38.7 C9,39.2522847 9.44771525,39.7 10,39.7 C10.5522847,39.7 11,39.2522847 11,38.7 C11,38.1477152 10.5522847,37.7 10,37.7 Z M30,37.7 C29.4477153,37.7 29,38.1477152 29,38.7 C29,39.2522847 29.4477153,39.7 30,39.7 C30.5522847,39.7 31,39.2522847 31,38.7 C31,38.1477152 30.5522847,37.7 30,37.7 Z M6,37.7 C5.44771525,37.7 5,38.1477152 5,38.7 C5,39.2522847 5.44771525,39.7 6,39.7 C6.55228475,39.7 7,39.2522847 7,38.7 C7,38.1477152 6.55228475,37.7 6,37.7 Z M26,37.7 C25.4477153,37.7 25,38.1477152 25,38.7 C25,39.2522847 25.4477153,39.7 26,39.7 C26.5522847,39.7 27,39.2522847 27,38.7 C27,38.1477152 26.5522847,37.7 26,37.7 Z M14,37.7 C13.4477153,37.7 13,38.1477152 13,38.7 C13,39.2522847 13.4477153,39.7 14,39.7 C14.5522847,39.7 15,39.2522847 15,38.7 C15,38.1477152 14.5522847,37.7 14,37.7 Z M24.5,34.5 C23.9477153,34.5 23.5,34.9477152 23.5,35.5 C23.5,36.0522847 23.9477153,36.5 24.5,36.5 C25.0522847,36.5 25.5,36.0522847 25.5,35.5 C25.5,34.9477152 25.0522847,34.5 24.5,34.5 Z M20.5,34.5 C19.9477153,34.5 19.5,34.9477152 19.5,35.5 C19.5,36.0522847 19.9477153,36.5 20.5,36.5 C21.0522847,36.5 21.5,36.0522847 21.5,35.5 C21.5,34.9477152 21.0522847,34.5 20.5,34.5 Z M4.5,34.5 C3.94771525,34.5 3.5,34.9477152 3.5,35.5 C3.5,36.0522847 3.94771525,36.5 4.5,36.5 C5.05228475,36.5 5.5,36.0522847 5.5,35.5 C5.5,34.9477152 5.05228475,34.5 4.5,34.5 Z M32.5,34.5 C31.9477153,34.5 31.5,34.9477152 31.5,35.5 C31.5,36.0522847 31.9477153,36.5 32.5,36.5 C33.0522847,36.5 33.5,36.0522847 33.5,35.5 C33.5,34.9477152 33.0522847,34.5 32.5,34.5 Z M12.5,34.5 C11.9477153,34.5 11.5,34.9477152 11.5,35.5 C11.5,36.0522847 11.9477153,36.5 12.5,36.5 C13.0522847,36.5 13.5,36.0522847 13.5,35.5 C13.5,34.9477152 13.0522847,34.5 12.5,34.5 Z M28.5,34.5 C27.9477153,34.5 27.5,34.9477152 27.5,35.5 C27.5,36.0522847 27.9477153,36.5 28.5,36.5 C29.0522847,36.5 29.5,36.0522847 29.5,35.5 C29.5,34.9477152 29.0522847,34.5 28.5,34.5 Z M36.5,34.5 C35.9477153,34.5 35.5,34.9477152 35.5,35.5 C35.5,36.0522847 35.9477153,36.5 36.5,36.5 C37.0522847,36.5 37.5,36.0522847 37.5,35.5 C37.5,34.9477152 37.0522847,34.5 36.5,34.5 Z M8.5,34.5 C7.94771525,34.5 7.5,34.9477152 7.5,35.5 C7.5,36.0522847 7.94771525,36.5 8.5,36.5 C9.05228475,36.5 9.5,36.0522847 9.5,35.5 C9.5,34.9477152 9.05228475,34.5 8.5,34.5 Z M16.5,34.5 C15.9477153,34.5 15.5,34.9477152 15.5,35.5 C15.5,36.0522847 15.9477153,36.5 16.5,36.5 C17.0522847,36.5 17.5,36.0522847 17.5,35.5 C17.5,34.9477152 17.0522847,34.5 16.5,34.5 Z M26,31.7 C25.4477153,31.7 25,32.1477152 25,32.7 C25,33.2522847 25.4477153,33.7 26,33.7 C26.5522847,33.7 27,33.2522847 27,32.7 C27,32.1477152 26.5522847,31.7 26,31.7 Z M38,31.7 C37.4477153,31.7 37,32.1477152 37,32.7 C37,33.2522847 37.4477153,33.7 38,33.7 C38.5522847,33.7 39,33.2522847 39,32.7 C39,32.1477152 38.5522847,31.7 38,31.7 Z M6,31.7 C5.44771525,31.7 5,32.1477152 5,32.7 C5,33.2522847 5.44771525,33.7 6,33.7 C6.55228475,33.7 7,33.2522847 7,32.7 C7,32.1477152 6.55228475,31.7 6,31.7 Z M18,31.7 C17.4477153,31.7 17,32.1477152 17,32.7 C17,33.2522847 17.4477153,33.7 18,33.7 C18.5522847,33.7 19,33.2522847 19,32.7 C19,32.1477152 18.5522847,31.7 18,31.7 Z M14,31.7 C13.4477153,31.7 13,32.1477152 13,32.7 C13,33.2522847 13.4477153,33.7 14,33.7 C14.5522847,33.7 15,33.2522847 15,32.7 C15,32.1477152 14.5522847,31.7 14,31.7 Z M30,31.7 C29.4477153,31.7 29,32.1477152 29,32.7 C29,33.2522847 29.4477153,33.7 30,33.7 C30.5522847,33.7 31,33.2522847 31,32.7 C31,32.1477152 30.5522847,31.7 30,31.7 Z M10,31.7 C9.44771525,31.7 9,32.1477152 9,32.7 C9,33.2522847 9.44771525,33.7 10,33.7 C10.5522847,33.7 11,33.2522847 11,32.7 C11,32.1477152 10.5522847,31.7 10,31.7 Z M34,31.7 C33.4477153,31.7 33,32.1477152 33,32.7 C33,33.2522847 33.4477153,33.7 34,33.7 C34.5522847,33.7 35,33.2522847 35,32.7 C35,32.1477152 34.5522847,31.7 34,31.7 Z M22,31.7 C21.4477153,31.7 21,32.1477152 21,32.7 C21,33.2522847 21.4477153,33.7 22,33.7 C22.5522847,33.7 23,33.2522847 23,32.7 C23,32.1477152 22.5522847,31.7 22,31.7 Z M20.5,28.5 C19.9477153,28.5 19.5,28.9477152 19.5,29.5 C19.5,30.0522847 19.9477153,30.5 20.5,30.5 C21.0522847,30.5 21.5,30.0522847 21.5,29.5 C21.5,28.9477152 21.0522847,28.5 20.5,28.5 Z M24.5,28.5 C23.9477153,28.5 23.5,28.9477152 23.5,29.5 C23.5,30.0522847 23.9477153,30.5 24.5,30.5 C25.0522847,30.5 25.5,30.0522847 25.5,29.5 C25.5,28.9477152 25.0522847,28.5 24.5,28.5 Z M28.5,28.5 C27.9477153,28.5 27.5,28.9477152 27.5,29.5 C27.5,30.0522847 27.9477153,30.5 28.5,30.5 C29.0522847,30.5 29.5,30.0522847 29.5,29.5 C29.5,28.9477152 29.0522847,28.5 28.5,28.5 Z M40.5,28.5 C39.9477153,28.5 39.5,28.9477152 39.5,29.5 C39.5,30.0522847 39.9477153,30.5 40.5,30.5 C41.0522847,30.5 41.5,30.0522847 41.5,29.5 C41.5,28.9477152 41.0522847,28.5 40.5,28.5 Z M32.5,28.5 C31.9477153,28.5 31.5,28.9477152 31.5,29.5 C31.5,30.0522847 31.9477153,30.5 32.5,30.5 C33.0522847,30.5 33.5,30.0522847 33.5,29.5 C33.5,28.9477152 33.0522847,28.5 32.5,28.5 Z M8.5,28.5 C7.94771525,28.5 7.5,28.9477152 7.5,29.5 C7.5,30.0522847 7.94771525,30.5 8.5,30.5 C9.05228475,30.5 9.5,30.0522847 9.5,29.5 C9.5,28.9477152 9.05228475,28.5 8.5,28.5 Z M16.5,28.5 C15.9477153,28.5 15.5,28.9477152 15.5,29.5 C15.5,30.0522847 15.9477153,30.5 16.5,30.5 C17.0522847,30.5 17.5,30.0522847 17.5,29.5 C17.5,28.9477152 17.0522847,28.5 16.5,28.5 Z M12.5,28.5 C11.9477153,28.5 11.5,28.9477152 11.5,29.5 C11.5,30.0522847 11.9477153,30.5 12.5,30.5 C13.0522847,30.5 13.5,30.0522847 13.5,29.5 C13.5,28.9477152 13.0522847,28.5 12.5,28.5 Z" />
        <g id="Speak" fill="#000" fill-rule="nonzero" transform="translate(59.898 58.062)">
            <path id="Path-11" d="M14.4886475,0.273382793 C15.9949191,-0.416770868 17.7754734,0.244823385 18.4656271,1.75109491 C19.1397307,3.22233688 18.5242273,4.95525273 17.0916269,5.67817225 L16.987915,5.72807455 L4.54348955,11.4299454 C3.03721802,12.1200991 1.25666359,11.4585049 0.56650993,9.9522333 C-0.107593647,8.48099135 0.507909765,6.7480755 1.94051021,6.02515595 L2.04422206,5.9752537 L14.4886475,0.273382793 Z" opacity=".15" />
            <path id="Path" d="M18.3587926,17.3434954 C20.0000354,17.1165863 21.5144718,18.2631304 21.7413809,19.9043734 C21.9631329,21.5083153 20.873152,22.9911491 19.2916289,23.2695092 L19.1805029,23.2869617 L6.41158385,25.0523209 C4.77034093,25.27923 3.25590454,24.1326858 3.0289955,22.4914429 C2.80724347,20.8875009 3.89722437,19.4046671 5.47874745,19.1263071 L5.5898735,19.1088546 L18.3587926,17.3434954 Z" />
            <path d="M14.1955204,44.008487 C15.7017919,43.3183334 17.4823463,43.9799276 18.1725,45.4861991 C18.8466035,46.9574411 18.2311001,48.6903569 16.7984997,49.4132765 L16.6947878,49.4631788 L4.25036241,55.1650495 C2.74409088,55.8552035 0.963536455,55.193609 0.273382793,53.6873375 C-0.400720783,52.2160955 0.214782629,50.4831795 1.64738307,49.7602602 L1.75109491,49.7103579 L14.1955204,44.008487 Z" opacity=".15" transform="matrix(1 0 0 -1 0 99.174)" />
            <path d="M18.0656654,30.3865995 C19.7069083,30.1596905 21.2213447,31.3062346 21.4482537,32.9474774 C21.6700058,34.5514194 20.5800249,36.0342533 18.9985018,36.3126133 L18.8873757,36.3300658 L6.1184567,38.095425 C4.47721379,38.322334 2.9627774,37.1757899 2.73586836,35.534547 C2.51411634,33.9306051 3.60409723,32.4477712 5.18562035,32.1694112 L5.29674635,32.1519587 L18.0656654,30.3865995 Z" transform="matrix(1 0 0 -1 0 68.482)" />
        </g>

        <g id="Button" fill-rule="nonzero" transform="translate(55.9 .4)">
            <path id="Combined-Shape" fill="#000" d="M27.35,-1.42108547e-14 C34.7230014,-1.42108547e-14 40.7,5.9769986 40.7,13.35 C40.7,20.7230014 34.7230014,26.7 27.35,26.7 L27.35,26.7 L13.35,26.7 C5.9769986,26.7 5.6843419e-14,20.7230014 5.6843419e-14,13.35 C5.6843419e-14,5.9769986 5.9769986,-1.42108547e-14 13.35,-1.42108547e-14 L13.35,-1.42108547e-14 L27.35,-1.42108547e-14 Z M27.35,2.2 L13.35,2.2 C7.19202505,2.2 2.2,7.19202505 2.2,13.35 C2.2,19.507975 7.19202505,24.5 13.35,24.5 L13.35,24.5 L27.35,24.5 C33.507975,24.5 38.5,19.507975 38.5,13.35 C38.5,7.19202505 33.507975,2.2 27.35,2.2 L27.35,2.2 Z" />
            <path fill="#BAB9B9" d="M13.35,2.2 L27.35,2.2 C33.5079749,2.2 38.5,7.19202505 38.5,13.35 C38.5,19.507975 33.5079749,24.5 27.35,24.5 L13.35,24.5 C7.19202505,24.5 2.2,19.507975 2.2,13.35 C2.2,7.19202505 7.19202505,2.2 13.35,2.2 Z" />
            <path id="Shape" fill="#000" d="M27.1,3.5 C31.0197917,3.5 34.429004,5.6256156 36.1018724,8.740542 C37.4167761,10.3598182 38.2,12.3907277 38.2,14.6 C38.2,19.9164367 33.6644624,24.2 28.1,24.2 C24.1802084,24.2 20.770996,22.0743844 19.0981276,18.959458 C17.783224,17.3401818 17,15.3092723 17,13.1 C17,7.7835633 21.5355376,3.5 27.1,3.5 Z M27.1,5.7 C22.7233369,5.7 19.2,9.02759595 19.2,13.1 C19.2,17.1724041 22.7233369,20.5 27.1,20.5 C31.4766631,20.5 35,17.1724041 35,13.1 C35,9.02759595 31.4766631,5.7 27.1,5.7 Z" />
            <path fill="#EBEBEB" d="M27.1,5.7 C31.4766631,5.7 35,9.02759595 35,13.1 C35,17.1724041 31.4766631,20.5 27.1,20.5 C22.7233369,20.5 19.2,17.1724041 19.2,13.1 C19.2,9.02759595 22.7233369,5.7 27.1,5.7 Z" />
            <path fill="#17BB67" d="M13.35,2.2 L27.35,2.2 C33.5079749,2.2 38.5,7.19202505 38.5,13.35 C38.5,19.507975 33.5079749,24.5 27.35,24.5 L13.35,24.5 C7.19202505,24.5 2.2,19.507975 2.2,13.35 C2.2,7.19202505 7.19202505,2.2 13.35,2.2 Z" />
            <path fill="#000" d="M14.1,3.5 C19.6644624,3.5 24.2,7.7835633 24.2,13.1 C24.2,16.6697764 22.1551121,19.7738725 19.126907,21.4281943 C17.2790079,23.7235785 14.3668243,25.2 11.1,25.2 C5.5355376,25.2 1,20.9164367 1,15.6 C1,12.0302236 3.0448879,8.92612745 6.073093,7.2718057 C7.9209921,4.97642143 10.8331756,3.5 14.1,3.5 Z M14.1,5.7 C9.7233369,5.7 6.2,9.02759595 6.2,13.1 C6.2,17.1724041 9.7233369,20.5 14.1,20.5 C18.4766631,20.5 22,17.1724041 22,13.1 C22,9.02759595 18.4766631,5.7 14.1,5.7 Z" />
            <path fill="#FFF" d="M14.1,5.7 C18.4766631,5.7 22,9.02759595 22,13.1 C22,17.1724041 18.4766631,20.5 14.1,20.5 C9.7233369,20.5 6.2,17.1724041 6.2,13.1 C6.2,9.02759595 9.7233369,5.7 14.1,5.7 Z" />
        </g>
        <path id="Highlight" fill="#FFF" fill-rule="nonzero" d="M25.849324,47.226465 C26.2765355,47.068056 26.751275,47.285963 26.9096845,47.7131745 C27.068094,48.140386 26.850187,48.6151255 26.4229755,48.773535 L24.6578805,49.418402 C24.609363,49.4364905 24.568036,49.4520405 24.5357245,49.4644005 L24.3145975,49.550882 C21.382136,50.7245375 20.5692535,52.184611 19.8191575,58.453927 C19.765029,58.9063355 19.3543995,59.229205 18.9019915,59.1750765 C18.449583,59.1209475 18.1267135,58.7103185 18.1808425,58.25791 L18.238959,57.784731 C19.0508935,51.348508 20.2101675,49.421261 23.6905475,48.0234825 L23.946212,47.923305 C24.302887,47.7868665 25.6476185,47.3012575 25.849324,47.226465 Z" />
    </g>
</svg>