<svg xmlns="http://www.w3.org/2000/svg" viewBox="0 0 144 144">
    <rect id="background" width="144" height="144" x="0" y="0" fill="#1652FF" fill-rule="nonzero" />
    <path id="Shadow-with-outline" fill="#000" fill-rule="nonzero" d="M70.21707,39.1140651 C70.8888295,39.9201767 71.256713,40.9362898 71.256713,41.9856119 L71.2567865,42.7622052 C72.9792405,42.1447401 74.9776145,42.6267188 76.21707,44.1140651 C76.8888295,44.9201767 77.256713,45.9362898 77.256713,46.9856119 L77.256713,101.842897 C77.256713,104.32017 75.2484865,106.328396 72.7712135,106.328396 C71.7218915,106.328396 70.7057785,105.960513 69.899667,105.288753 L49.5026853,88.2912685 L37.7282492,88.2912685 C34.6028427,88.2912685 31.9751617,86.1602525 31.2189472,83.271961 C27.741034,83.0120675 25,80.107645 25,76.5630195 L25,62.2654895 C25,58.5495805 28.0123397,55.5372405 31.7282492,55.5372405 L43.5026853,55.5372405 L63.899667,38.5397558 C65.802761,36.9538443 68.6311585,37.2109713 70.21707,39.1140651 Z M65.772138,40.6323375 L65.6943835,40.6934159 L44.5176696,58.3406775 L31.7282492,58.3406775 C29.6023202,58.3406775 27.8711735,60.030941 27.8053772,62.1409 L27.8034372,62.2654895 L27.8034372,76.5630195 C27.8034372,78.688948 29.4937007,80.420095 31.6036594,80.4858915 L31.7282492,80.4878315 L44.5176696,80.4878315 L65.6943835,98.135093 C65.9966755,98.387003 66.377718,98.5249595 66.7712135,98.5249595 C67.669225,98.5249595 68.402875,97.8212435 68.450787,96.935187 L68.453276,96.842897 L68.453276,41.9856119 C68.453276,41.6314657 68.3415315,41.2874067 68.13554,41.0017656 L68.06341,40.9087819 C67.489933,40.2206096 66.48321,40.1063737 65.772138,40.6323375 Z M112.719656,62.908884 C114.37651,62.908884 115.719656,64.2520295 115.719656,65.908884 C117.338855,65.908884 118.658442,67.1916715 118.717587,68.796415 L118.719656,68.908884 L118.719656,72.708884 C118.719656,74.3280825 117.436869,75.64767 115.832126,75.7068145 L115.719656,75.708884 L88.7196565,75.708884 C87.062802,75.708884 85.7196565,74.365738 85.7196565,72.708884 C84.100458,72.708884 82.7808705,71.4260965 82.7217255,69.821353 L82.7196565,69.708884 L82.7196565,65.908884 C82.7196565,64.2896855 84.0024435,62.970098 85.607187,62.910953 L85.7196565,62.908884 L112.719656,62.908884 Z M112.719656,64.908884 L85.7196565,64.908884 C85.1924755,64.908884 84.7605735,65.316823 84.722399,65.834253 L84.7196565,65.908884 L84.7196565,69.708884 C84.7196565,70.236065 85.127595,70.6679665 85.645025,70.706141 L85.7196565,70.708884 L112.719656,70.708884 C113.246837,70.708884 113.678739,70.300945 113.716914,69.783515 L113.719656,69.708884 L113.719656,65.908884 C113.719656,65.356599 113.271941,64.908884 112.719656,64.908884 Z" />
    <path id="Icon-Fill" fill="#FFF" fill-opacity=".7" fill-rule="nonzero" d="M65.772138,40.6323375 C66.48321,40.1063737 67.489933,40.2206096 68.06341,40.9087819 L68.06341,40.9087819 L68.13554,41.0017656 C68.3415315,41.2874067 68.453276,41.6314657 68.453276,41.9856119 L68.453276,41.9856119 L68.453276,96.842897 L68.450787,96.935187 C68.402875,97.8212435 67.669225,98.5249595 66.7712135,98.5249595 C66.377718,98.5249595 65.9966755,98.387003 65.6943835,98.135093 L65.6943835,98.135093 L44.5176696,80.4878315 L31.7282492,80.4878315 L31.6036595,80.4858915 C29.4937007,80.420095 27.8034372,78.688948 27.8034372,76.5630195 L27.8034372,76.5630195 L27.8034372,62.2654895 L27.8053772,62.1409 C27.8711735,60.030941 29.6023203,58.3406775 31.7282492,58.3406775 L31.7282492,58.3406775 L44.5176696,58.3406775 L65.6943835,40.6934159 L65.772138,40.6323375 Z M112.719657,64.908884 C113.271941,64.908884 113.719657,65.356599 113.719657,65.908884 L113.719657,69.708884 C113.719657,70.2611685 113.271941,70.708884 112.719657,70.708884 L85.7196565,70.708884 C85.1673715,70.708884 84.7196565,70.2611685 84.7196565,69.708884 L84.7196565,65.908884 C84.7196565,65.356599 85.1673715,64.908884 85.7196565,64.908884 L112.719657,64.908884 Z" />
    <path id="Highlight" fill="#FFF" fill-rule="nonzero" d="M87.7200895,66.478884 L93.7200895,66.4823495 C94.134303,66.4825885 94.4698955,66.818569 94.4696559,67.2327825 C94.469431,67.6226305 94.171802,67.942835 93.791455,67.9789575 L93.719223,67.982349 L87.719223,67.978884 C87.3050095,67.9786445 86.969417,67.6426645 86.9696559,67.228451 C86.9698815,66.838603 87.2675105,66.5183985 87.6478575,66.4822755 L87.7200895,66.478884 Z M64.083356,47.3149739 C64.5253305,47.8411593 64.524524,48.5905753 64.1149425,49.0924922 L63.9422545,49.2681903 L49.4976568,61.4932495 C48.9225071,61.9800225 48.0531784,61.8947525 47.5559567,61.302794 C47.113982,60.7766085 47.1147884,60.0271925 47.5243702,59.5252755 L47.6970582,59.3495775 L62.1416555,47.1245185 C62.7168055,46.6377455 63.586134,46.7230153 64.083356,47.3149739 Z" />
</svg>