<svg xmlns="http://www.w3.org/2000/svg" viewBox="0 0 144 144">
    <rect id="background" width="144" height="144" x="0" y="0" fill="#1E183C" fill-rule="nonzero" />
    <g id="icon" fill-rule="nonzero" transform="translate(18.5 18.5)">
        <g id="star_shadow" fill="#000" transform="translate(39)">
            <path id="Shape" d="M16.0755,0.239 C16.825,0.5265 17.4255,1.102 17.747,1.8335 L17.8005,1.964 L18.6495,4.1745 C19.4425,3.1745 20.821,2.757 22.0755,3.239 C22.825,3.5265 23.4255,4.102 23.747,4.8335 L23.8005,4.964 L25.1805,8.557 L27.008,8.6535 C28.555,8.735 29.7665,9.9745 29.8465,11.4875 L33.008,11.6535 C34.5875,11.7365 35.817,13.0265 35.8505,14.583 L35.8505,14.6945 L35.8465,14.807 C35.8045,15.6085 35.443,16.358 34.8465,16.889 L34.739,16.9805 L29.4665,21.251 L31.222,27.8045 C31.631,29.3315 30.785,30.899 29.317,31.412 L29.2085,31.4475 L29.1,31.4785 C28.325,31.6865 27.5005,31.574 26.811,31.171 L26.6905,31.097 L22.7645,28.5485 C22.093,28.648 21.405,28.517 20.8155,28.174 L20.6905,28.097 L20.31,27.8495 L15.3095,31.097 C13.9885,31.9545 12.2445,31.64 11.3005,30.413 L11.2275,30.314 L11.1595,30.2145 C10.7225,29.541 10.5745,28.7225 10.7445,27.942 L10.778,27.8045 L10.9925,27.004 L9.3095,28.097 C7.9885,28.9545 6.2445,28.64 5.3005,27.413 L5.2275,27.314 L5.1595,27.2145 C4.7225,26.541 4.5745,25.7225 4.7445,24.942 L4.778,24.8045 L6.533,18.251 L1.261,13.9805 C0.039,12.9905 -0.202,11.238 0.669,9.9615 L0.7425,9.859 L0.818,9.761 C1.3235,9.1375 2.056,8.7435 2.851,8.6645 L2.992,8.6535 L9.767,8.2975 L12.1995,1.964 C12.7935,0.4175 14.5285,-0.355 16.0755,0.239 L16.0755,0.239 Z M14.0975,2.609 L14.0665,2.681 L11.169,10.227 L3.097,10.651 C2.814,10.6655 2.5505,10.8 2.3725,11.02 C2.042,11.428 2.085,12.0165 2.4585,12.3725 L2.52,12.4265 L8.801,17.514 L6.71,25.322 C6.6365,25.5955 6.683,25.8875 6.837,26.1255 C7.123,26.5655 7.696,26.706 8.15,26.4615 L8.2205,26.4195 L14.4555,22.3715 C14.763,22.172 15.153,22.1575 15.472,22.3285 L15.5445,22.3715 L21.7795,26.4195 C22.017,26.574 22.309,26.62 22.583,26.5465 C23.092,26.4105 23.4035,25.9045 23.3065,25.395 L23.29,25.322 L21.199,17.514 L27.48,12.4265 C27.7,12.248 27.8345,11.985 27.849,11.702 C27.877,11.1755 27.492,10.723 26.9775,10.6575 L26.903,10.651 L18.831,10.227 L15.9335,2.681 C15.832,2.4165 15.623,2.2075 15.3585,2.106 C14.8935,1.9275 14.377,2.1195 14.135,2.5375 L14.0975,2.609 L14.0975,2.609 Z" />
        </g>
        <g id="star_fill" fill="#FFCF4B" transform="translate(41 2)">
            <path id="Path" d="M13.3585,0.106 C13.623,0.2075 13.832,0.4165 13.9335,0.681 L16.831,8.227 L24.903,8.651 C25.4545,8.68 25.878,9.1505 25.849,9.702 C25.8345,9.985 25.7,10.248 25.48,10.4265 L19.199,15.514 L21.29,23.322 C21.433,23.8555 21.1165,24.404 20.583,24.5465 C20.309,24.62 20.017,24.574 19.7795,24.4195 L13.5445,20.3715 C13.2135,20.1565 12.7865,20.1565 12.4555,20.3715 L6.2205,24.4195 C5.757,24.72 5.138,24.5885 4.837,24.1255 C4.683,23.8875 4.6365,23.5955 4.71,23.322 L6.801,15.514 L0.52,10.4265 C0.091,10.079 0.0245,9.449 0.3725,9.02 C0.5505,8.8 0.814,8.6655 1.097,8.651 L9.169,8.227 L12.0665,0.681 C12.2645,0.1655 12.843,-0.092 13.3585,0.106 Z" />
        </g>
        <path id="star_highlight" fill="#FFF" d="M50.484,11.5005 C50.898,11.488 51.2435,11.814 51.2555,12.228 C51.267,12.6175 50.979,12.9465 50.6,12.994 L50.528,12.9995 L45.202,13.156 C44.788,13.168 44.4425,12.8425 44.4305,12.4285 C44.419,12.0385 44.707,11.7095 45.086,11.662 L45.158,11.6565 L50.484,11.5005 Z" />
        <g id="headphone" transform="translate(0 27.5)">
            <path id="headphone_shadow" fill="#000" d="M25.3335,0 C33.3345,0 40.484,3.7145 45.131,9.5305 C50.616,13.913 54.246,20.532 54.633,28.031 L54.6575,28.653 L54.6665,29.3335 L54.6665,42.1665 C54.6665,43.9155 53.249,45.3335 51.5,45.3335 C50.9595,45.3335 50.447,45.197 49.9975,44.9475 L50,50.3335 C50,52.6225 48.225,54.497 45.976,54.656 L45.6665,54.6665 L41,54.6665 C38.7145,54.6665 36.8425,52.8975 36.6785,50.6545 C34.5375,50.498 32.8285,48.7855 32.6775,46.643 L32.6665,46.3335 L32.6665,32.3335 C32.6665,30.044 34.4415,28.1695 36.6905,28.011 L37,28 L41.6665,28 C42.673,28 43.599,28.343 44.3345,28.918 L44.3335,25.3335 C44.3335,21.107 42.9535,17.2025 40.6195,14.047 C37.464,11.7135 33.56,10.3335 29.3335,10.3335 C19.299,10.3335 11.049,18.124 10.378,28 L13.6665,28 C15.952,28 17.824,29.769 17.9885,32.0125 C20.1295,32.169 21.838,33.8815 21.989,36.024 L22,36.3335 L22,50.3335 C22,52.6225 20.225,54.497 17.976,54.656 L17.6665,54.6665 L13,54.6665 C10.7145,54.6665 8.8425,52.8975 8.6785,50.6545 C6.5375,50.498 4.8285,48.7855 4.6775,46.643 L4.6665,46.3335 L4.667,44.0705 C4.4105,43.725 4.213,43.318 4.094,42.8625 L4.027,42.555 L4,42.1665 L4,41.2225 C3.7345,41.295 3.455,41.3335 3.1665,41.3335 C1.7255,41.3335 0.487,40.365 0.094,38.8625 L0.027,38.555 L2.96637714e-15,38.1665 L2.96637714e-15,25.3335 C2.96637714e-15,11.342 11.342,0 25.3335,0 Z M13.6665,30 L9,30 L8.8915,30.0025 C7.774,30.0535 6.862,30.8905 6.694,31.9735 L6.6805,32.079 L6.6665,32.3335 L6.6665,46.3335 L6.669,46.442 C6.7205,47.5595 7.5575,48.4715 8.64,48.639 L8.746,48.653 L9,48.6665 L13.6665,48.6665 L13.921,48.653 L14.0285,48.6385 C15.0275,48.483 15.8165,47.694 15.972,46.6955 L15.9865,46.5875 L16,46.3335 L16,32.3335 L15.9975,32.2245 C15.9465,31.1075 15.1095,30.195 14.0265,30.0275 L13.921,30.0135 L13.6665,30 L13.6665,30 Z M41.6665,30 L37,30 L36.8915,30.0025 C35.774,30.0535 34.862,30.8905 34.694,31.9735 L34.6805,32.079 L34.6665,32.3335 L34.6665,46.3335 L34.669,46.442 C34.7205,47.5595 35.5575,48.4715 36.64,48.639 L36.746,48.653 L37,48.6665 L41.6665,48.6665 L41.921,48.653 L42.0285,48.6385 C43.0275,48.483 43.8165,47.694 43.972,46.6955 L43.9865,46.5875 L44,46.3335 L44,32.3335 L43.9975,32.2245 C43.9465,31.1075 43.1095,30.195 42.0265,30.0275 L41.921,30.0135 L41.6665,30 L41.6665,30 Z M25.3335,2 C12.772,2 2.5285,11.926 2.02,24.3625 L2.0075,24.7405 L2,25.3335 L2,38.1665 L2.019,38.3765 L2.0375,38.4605 C2.145,38.876 2.476,39.2015 2.895,39.3015 L2.9795,39.3185 L3.1665,39.3335 L3.356,39.318 L3.4415,39.3005 C3.865,39.1985 4.1985,38.865 4.3005,38.4415 L4.318,38.356 L4.3335,38.1665 L4.3335,25.3335 L4.3425,24.714 L4.355,24.3755 C4.8555,13.222 14.0565,4.3335 25.3335,4.3335 C36.627,4.3335 45.8385,13.2485 46.314,24.4255 L46.326,24.7645 L46.3335,25.3335 L46.3335,38.1665 L46.352,38.3765 L46.3705,38.4605 C46.4785,38.876 46.8095,39.2015 47.228,39.3015 L47.313,39.3185 L47.5,39.3335 L47.689,39.318 L47.775,39.3005 C48.1985,39.1985 48.5315,38.865 48.634,38.4415 L48.6515,38.356 L48.6665,38.1665 L48.6665,25.3335 L48.6575,24.68 L48.6445,24.3035 C48.1055,11.8945 37.875,2 25.3335,2 L25.3335,2 Z" />
            <path id="headphone_fill" fill="#FFF" fill-opacity=".9" d="M13.6665,30 L13.921,30.0135 C15.0545,30.1365 15.9445,31.0715 15.9975,32.2245 L16,32.3335 L16,46.3335 L15.9865,46.5875 C15.8725,47.637 15.063,48.4775 14.0285,48.6385 L13.921,48.653 L13.6665,48.6665 L9,48.6665 L8.746,48.653 C7.612,48.53 6.722,47.5955 6.669,46.442 L6.6665,46.3335 L6.6665,32.3335 L6.6805,32.079 C6.803,30.9455 7.738,30.0555 8.8915,30.0025 L9,30 L13.6665,30 L13.6665,30 Z M41.6665,30 L41.921,30.0135 C43.0545,30.1365 43.9445,31.0715 43.9975,32.2245 L44,32.3335 L44,46.3335 L43.9865,46.5875 C43.8725,47.637 43.063,48.4775 42.0285,48.6385 L41.921,48.653 L41.6665,48.6665 L37,48.6665 L36.746,48.653 C35.612,48.53 34.722,47.5955 34.669,46.442 L34.6665,46.3335 L34.6665,32.3335 L34.6805,32.079 C34.803,30.9455 35.738,30.0555 36.8915,30.0025 L37,30 L41.6665,30 L41.6665,30 Z M25.3335,2 C37.875,2 48.1055,11.8945 48.6445,24.3035 L48.6575,24.68 L48.6665,25.3335 L48.6665,38.1665 L48.6515,38.356 C48.576,38.8195 48.2265,39.1915 47.775,39.3005 L47.689,39.318 L47.5,39.3335 L47.313,39.3185 C46.8545,39.2445 46.4855,38.904 46.3705,38.4605 L46.352,38.3765 L46.3335,38.1665 L46.3335,25.3335 L46.326,24.7645 C46.0245,13.4295 36.741,4.3335 25.3335,4.3335 C14.0565,4.3335 4.8555,13.222 4.355,24.3755 L4.3425,24.714 L4.3335,25.3335 L4.3335,38.1665 L4.318,38.356 C4.2425,38.8195 3.8935,39.1915 3.4415,39.3005 L3.356,39.318 L3.1665,39.3335 L2.9795,39.3185 C2.5215,39.2445 2.1525,38.904 2.0375,38.4605 L2.019,38.3765 L2,38.1665 L2,25.3335 L2.0075,24.7405 C2.322,12.1275 12.645,2 25.3335,2 L25.3335,2 Z" />
        </g>
        <g id="Speaker" transform="translate(63 27.5)">
            <path id="speaker_shadow" fill="#000" d="M2.7735,49.0395 C1.3095,47.4655 0.413,45.356 0.413,43.038 C0.413,43.038 0.413,9.1735 0.413,9.1735 C0.413,4.3065 4.3655,0.3545 9.2325,0.3545 C9.2325,0.3545 30.471,0.3545 30.471,0.3545 C34.4685,0.3545 37.849,3.021 38.929,6.6705 C40.394,8.2455 41.29,10.356 41.29,12.6735 L41.29,46.538 C41.29,51.4055 37.338,55.3545 32.471,55.3545 C32.471,55.3545 11.2325,55.3545 11.2325,55.3545 C7.234,55.3545 3.853,52.6895 2.7735,49.0395 L2.7735,49.0395 Z M31.5245,28.1005 C29.244,25.289 25.7605,23.492 21.8565,23.492 C14.984,23.492 9.412,29.0645 9.412,35.9365 C9.412,37.4615 9.686,38.922 10.188,40.273 C12.47,43.085 15.9535,44.881 19.8565,44.881 C26.7315,44.881 32.301,39.3115 32.301,32.4365 C32.301,30.9115 32.0265,29.4505 31.5245,28.1005 Z M15.263,37.424 C13.941,36.202 13.116,34.4595 13.116,32.529 C13.116,28.844 16.1235,25.843 19.853,25.843 C23.095,25.843 25.794,28.115 26.44,31.134 C27.762,32.356 28.587,34.0985 28.587,36.029 C28.587,39.7145 25.579,42.7155 21.853,42.7155 C18.607,42.7155 15.9085,40.442 15.263,37.424 Z" />
            <path id="speaker_fill_body" fill="#FFF" fill-opacity=".9" d="M30.2326018,49.4789646 L9.31223252,49.4789646 C5.5527847,49.4789646 2.5,46.4293206 2.5,42.6698728 L2.5,9.31223252 C2.5,5.5527847 5.5527847,2.5 9.31223252,2.5 L30.2326018,2.5 C33.9920496,2.5 37.0448343,5.5527847 37.0448343,9.31223252 L37.0448343,42.6698728 C37.0448343,46.4293206 33.9920496,49.4789646 30.2326018,49.4789646 Z" />
            <path id="speaker_fill" fill="#000" fill-opacity=".9" d="M19.7771282,18.0936996 C27.5849706,18.0936996 33.9103907,24.4222605 33.9103907,32.2269621 C33.9103907,40.0348045 27.5849706,46.3602246 19.7771282,46.3602246 C11.9724266,46.3602246 5.64386572,40.0348045 5.64386572,32.2269621 C5.64386572,24.4222605 11.9724266,18.0936996 19.7771282,18.0936996 Z M19.7739875,27.6069557 C17.14206,27.6069557 15.0126484,29.7175229 15.0126484,32.3180432 C15.0126484,34.9185635 17.14206,37.0291307 19.7739875,37.0291307 C22.4027743,37.0291307 24.5321859,34.9185635 24.5321859,32.3180432 C24.5321859,29.7175229 22.4027743,27.6069557 19.7739875,27.6069557 Z M19.7771282,5.53079963 C22.3807893,5.53079963 24.4882157,7.64136683 24.4882157,10.2418871 C24.4882157,12.8455482 22.3807893,14.9529746 19.7771282,14.9529746 C17.1766079,14.9529746 15.0660407,12.8455482 15.0660407,10.2418871 C15.0660407,7.64136683 17.1766079,5.53079963 19.7771282,5.53079963 Z M19.7739875,7.9271728 C18.4297572,7.9271728 17.3430664,9.00444147 17.3430664,10.3329682 C17.3430664,11.6614948 18.4297572,12.7387635 19.7739875,12.7387635 C21.1150771,12.7387635 22.2017679,11.6614948 22.2017679,10.3329682 C22.2017679,9.00444148 21.1150771,7.9271728 19.7739875,7.9271728 Z" />
        </g>
    </g>
</svg>