<svg xmlns="http://www.w3.org/2000/svg" viewBox="0 0 144 144">
    <g id="Monitor-Output-Toggle-Speaker" fill="none" fill-rule="evenodd" stroke="none" stroke-width="1">
        <rect id="Background" width="144" height="144" x="0" y="0" fill="#1E183C" fill-rule="nonzero" />
        <path id="headphone_shadow-with-outline" fill="#000" d="M33.8335,46 C41.8345,46 48.984,49.7145 53.631,55.5305 C59.116,59.913 62.746,66.532 63.133,74.031 L63.1575,74.653 L63.1665,75.3335 L63.1665,88.1665 C63.1665,89.9155 61.749,91.3335 60,91.3335 C59.4595,91.3335 58.947,91.197 58.4975,90.9475 L58.5,96.3335 C58.5,98.6225 56.725,100.497 54.476,100.656 L54.1665,100.6665 L49.5,100.6665 C47.2145,100.6665 45.3425,98.8975 45.1785,96.6545 C43.0375,96.498 41.3285,94.7855 41.1775,92.643 L41.1665,92.3335 L41.1665,78.3335 C41.1665,76.044 42.9415,74.1695 45.1905,74.011 L45.5,74 L50.1665,74 C51.173,74 52.099,74.343 52.8345,74.918 L52.8335,71.3335 C52.8335,67.107 51.4535,63.2025 49.1195,60.047 C45.964,57.7135 42.06,56.3335 37.8335,56.3335 C27.799,56.3335 19.549,64.124 18.878,74 L22.1665,74 C24.452,74 26.324,75.769 26.4885,78.0125 C28.6295,78.169 30.338,79.8815 30.489,82.024 L30.5,82.3335 L30.5,96.3335 C30.5,98.6225 28.725,100.497 26.476,100.656 L26.1665,100.6665 L21.5,100.6665 C19.2145,100.6665 17.3425,98.8975 17.1785,96.6545 C15.0375,96.498 13.3285,94.7855 13.1775,92.643 L13.1665,92.3335 L13.167,90.0705 C12.9105,89.725 12.713,89.318 12.594,88.8625 L12.527,88.555 L12.5,88.1665 L12.5,87.2225 C12.2345,87.295 11.955,87.3335 11.6665,87.3335 C10.2255,87.3335 8.987,86.365 8.594,84.8625 L8.527,84.555 L8.5,84.1665 L8.5,71.3335 C8.5,57.342 19.842,46 33.8335,46 Z M22.1665,76 L17.5,76 L17.3915,76.0025 C16.274,76.0535 15.362,76.8905 15.194,77.9735 L15.1805,78.079 L15.1665,78.3335 L15.1665,92.3335 L15.169,92.442 C15.2205,93.5595 16.0575,94.4715 17.14,94.639 L17.246,94.653 L17.5,94.6665 L22.1665,94.6665 L22.421,94.653 L22.5285,94.6385 C23.5275,94.483 24.3165,93.694 24.472,92.6955 L24.4865,92.5875 L24.5,92.3335 L24.5,78.3335 L24.4975,78.2245 C24.4465,77.1075 23.6095,76.195 22.5265,76.0275 L22.421,76.0135 L22.1665,76 L22.1665,76 Z M50.1665,76 L45.5,76 L45.3915,76.0025 C44.274,76.0535 43.362,76.8905 43.194,77.9735 L43.1805,78.079 L43.1665,78.3335 L43.1665,92.3335 L43.169,92.442 C43.2205,93.5595 44.0575,94.4715 45.14,94.639 L45.246,94.653 L45.5,94.6665 L50.1665,94.6665 L50.421,94.653 L50.5285,94.6385 C51.5275,94.483 52.3165,93.694 52.472,92.6955 L52.4865,92.5875 L52.5,92.3335 L52.5,78.3335 L52.4975,78.2245 C52.4465,77.1075 51.6095,76.195 50.5265,76.0275 L50.421,76.0135 L50.1665,76 L50.1665,76 Z M33.8335,48 C21.272,48 11.0285,57.926 10.52,70.3625 L10.5075,70.7405 L10.5,71.3335 L10.5,84.1665 L10.519,84.3765 L10.5375,84.4605 C10.645,84.876 10.976,85.2015 11.395,85.3015 L11.4795,85.3185 L11.6665,85.3335 L11.856,85.318 L11.9415,85.3005 C12.365,85.1985 12.6985,84.865 12.8005,84.4415 L12.818,84.356 L12.8335,84.1665 L12.8335,71.3335 L12.8425,70.714 L12.855,70.3755 C13.3555,59.222 22.5565,50.3335 33.8335,50.3335 C45.127,50.3335 54.3385,59.2485 54.814,70.4255 L54.826,70.7645 L54.8335,71.3335 L54.8335,84.1665 L54.852,84.3765 L54.8705,84.4605 C54.9785,84.876 55.3095,85.2015 55.728,85.3015 L55.813,85.3185 L56,85.3335 L56.189,85.318 L56.275,85.3005 C56.6985,85.1985 57.0315,84.865 57.134,84.4415 L57.1515,84.356 L57.1665,84.1665 L57.1665,71.3335 L57.1575,70.68 L57.1445,70.3035 C56.6055,57.8945 46.375,48 33.8335,48 L33.8335,48 Z" />
        <path id="headphone_fill" fill="#FFF" fill-opacity=".9" fill-rule="nonzero" d="M22.1665,76 L22.421,76.0135 C23.5545,76.1365 24.4445,77.0715 24.4975,78.2245 L24.5,78.3335 L24.5,92.3335 L24.4865,92.5875 C24.3725,93.637 23.563,94.4775 22.5285,94.6385 L22.421,94.653 L22.1665,94.6665 L17.5,94.6665 L17.246,94.653 C16.112,94.53 15.222,93.5955 15.169,92.442 L15.1665,92.3335 L15.1665,78.3335 L15.1805,78.079 C15.303,76.9455 16.238,76.0555 17.3915,76.0025 L17.5,76 L22.1665,76 L22.1665,76 Z M50.1665,76 L50.421,76.0135 C51.5545,76.1365 52.4445,77.0715 52.4975,78.2245 L52.5,78.3335 L52.5,92.3335 L52.4865,92.5875 C52.3725,93.637 51.563,94.4775 50.5285,94.6385 L50.421,94.653 L50.1665,94.6665 L45.5,94.6665 L45.246,94.653 C44.112,94.53 43.222,93.5955 43.169,92.442 L43.1665,92.3335 L43.1665,78.3335 L43.1805,78.079 C43.303,76.9455 44.238,76.0555 45.3915,76.0025 L45.5,76 L50.1665,76 L50.1665,76 Z M33.8335,48 C46.375,48 56.6055,57.8945 57.1445,70.3035 L57.1575,70.68 L57.1665,71.3335 L57.1665,84.1665 L57.1515,84.356 C57.076,84.8195 56.7265,85.1915 56.275,85.3005 L56.189,85.318 L56,85.3335 L55.813,85.3185 C55.3545,85.2445 54.9855,84.904 54.8705,84.4605 L54.852,84.3765 L54.8335,84.1665 L54.8335,71.3335 L54.826,70.7645 C54.5245,59.4295 45.241,50.3335 33.8335,50.3335 C22.5565,50.3335 13.3555,59.222 12.855,70.3755 L12.8425,70.714 L12.8335,71.3335 L12.8335,84.1665 L12.818,84.356 C12.7425,84.8195 12.3935,85.1915 11.9415,85.3005 L11.856,85.318 L11.6665,85.3335 L11.4795,85.3185 C11.0215,85.2445 10.6525,84.904 10.5375,84.4605 L10.519,84.3765 L10.5,84.1665 L10.5,71.3335 L10.5075,70.7405 C10.822,58.1275 21.145,48 33.8335,48 L33.8335,48 Z" />
        <path id="speaker_shape" fill="#000" d="M126,37 C130.6495,37 134.4755,40.526 134.9505,45.0495 C139.419,45.5185 142.914,49.2575 142.9985,53.8305 L143,54 L143,106 C143,110.9155 139.0595,114.9105 134.1655,114.9985 L134,115 L82,115 C77.3505,115 73.5245,111.474 73.0495,106.95 C68.664,106.49 65.2165,102.88 65.01,98.4235 L65,98 L65,46 C65,41.1715 68.8025,37.231 73.5765,37.01 L74,37 L126,37 Z M133,46.1 L133,46 L132.998,45.8405 C132.9175,42.23 130.1035,39.2945 126.544,39.021 L126.384,39.0105 L126,39 L74,39 L73.8405,39.002 C70.23,39.0825 67.2945,41.8965 67.021,45.456 L67.0105,45.616 L67,46 L67,98 L67.002,98.1595 C67.0825,101.77 69.8965,104.7055 73.456,104.979 L73.616,104.9895 L74,105 L80.702,105 C79.947,103.9785 79.5,102.715 79.5,101.348 L79.5,51.652 C79.5,48.2565 82.2565,45.5 85.652,45.5 L130.348,45.5 C131.2975,45.5 132.197,45.7155 133,46.1 L133,46.1 Z" />
        <path id="speaker_fill" fill="#FFF" fill-opacity=".9" d="M125.924,38.9915 L126.308,39.002 C129.868,39.1945 132.721,42.047 132.9135,45.6075 L132.924,45.9915 L132.924,97.9915 L132.9135,98.3755 C132.721,101.936 129.868,104.7885 126.308,104.981 L125.924,104.9915 L73.924,104.9915 L73.54,104.981 C69.9795,104.7885 67.1265,101.936 66.934,98.3755 L66.924,97.9915 L66.924,45.9915 L66.934,45.6075 C67.1265,42.047 69.9795,39.1945 73.54,39.002 L73.924,38.9915 L125.924,38.9915 L125.924,38.9915 Z M110.837,96.4705 L89.026,96.4705 C85.1065,96.4705 81.924,93.291 81.924,89.3715 L81.924,54.5935 C81.924,50.674 85.1065,47.4915 89.026,47.4915 L110.837,47.4915 C114.7565,47.4915 117.9395,50.674 117.9395,54.5935 L117.9395,89.3715 C117.9395,93.291 114.7565,96.4705 110.837,96.4705 L110.837,96.4705 Z M100.0125,63.7575 C108.153,63.7575 114.7475,70.3555 114.7475,78.4925 C114.7475,86.633 108.153,93.2275 100.0125,93.2275 C91.8755,93.2275 85.2775,86.633 85.2775,78.4925 C85.2775,70.3555 91.8755,63.7575 100.0125,63.7575 L100.0125,63.7575 Z M100.0095,73.676 C102.75,73.676 104.97,75.8765 104.97,78.5875 C104.97,81.2985 102.75,83.499 100.0095,83.499 C97.2655,83.499 95.0455,81.2985 95.0455,78.5875 C95.0455,75.8765 97.2655,73.676 100.0095,73.676 Z M100.0125,50.66 C102.727,50.66 104.9245,52.8605 104.9245,55.5715 C104.9245,58.286 102.727,60.483 100.0125,60.483 C97.3015,60.483 95.101,58.286 95.101,55.5715 C95.101,52.8605 97.3015,50.66 100.0125,50.66 L100.0125,50.66 Z M100.0095,53.158 C101.4075,53.158 102.5405,54.2815 102.5405,55.6665 C102.5405,57.0515 101.4075,58.1745 100.0095,58.1745 C98.608,58.1745 97.475,57.0515 97.475,55.6665 C97.475,54.2815 98.608,53.158 100.0095,53.158 Z" />
    </g>
</svg>