<svg xmlns="http://www.w3.org/2000/svg" viewBox="0 0 144 144">
    <g id="Music" fill="none" fill-rule="evenodd" stroke="none" stroke-width="1">
        <rect id="background" width="144" height="144" x="0" y="0" fill="#FF00E8" fill-rule="nonzero" />
        <g id="icon" fill-rule="nonzero" transform="translate(35 25.5)">
            <path id="Icon-Fill" fill="#FFF" d="M65.966,4.13 L66.0034315,4.58277275 L66,64.5 C66,70.575132 61.075132,75.5 55,75.5 C48.924868,75.5 44,70.575132 44,64.5 C44,58.424868 48.924868,53.5 55,53.5 C56.961668,53.5 58.8460815,54.013294 60.5051995,54.9744225 L62.0067175,55.844253 L61.9997495,7.9428567 L24,29.6597135 L24,76.5 C24,82.575132 19.075132,87.5 13,87.5 C6.92486775,87.5 2,82.575132 2,76.5 C2,70.424868 6.92486775,65.5 13,65.5 C14.9616677,65.5 16.8460815,66.013294 18.5051995,66.9744225 L20.0067635,67.8442795 L20,28.499828 C20,27.906193 20.2637795,27.344741 20.7166305,26.965974 L21.082612,26.7162005 L63.007722,2.7635137 C64.148411,2.11169155 65.565734,2.7252241 65.9179355,3.92037315 L65.966,4.13 Z" opacity=".5" />
            <path id="shadow-with-outline" fill="#000" d="M67.8844215,3.53255095 L67.943199,3.8178312 L67.95375,3.9016991 L68,4.5 L68,6.18639365 L68.511583,5.89527055 C70.3577095,4.8403412 72.6200525,5.98966985 72.9571815,7.9844718 L73,8.5 L73,68.5 C73,75.127417 67.627417,80.5 61,80.5 C57.862984,80.5 55.0071135,79.296273 52.8690825,77.325513 C46.7026545,76.308934 42,70.953649 42,64.5 C42,57.3202985 47.8202985,51.5 55,51.5 C56.47389,51.5 57.912854,51.7459685 59.270024,52.2177175 L59.8465235,52.43366 L60.006,52.5 L60,17.6643936 L31,34.24 L31,80.5 C31,87.127417 25.627417,92.5 19,92.5 C15.862984,92.5 13.0071135,91.296273 10.8690825,89.325513 C4.7026547,88.308934 0,82.953649 0,76.5 C0,69.3202985 5.82029825,63.5 13,63.5 C14.4738898,63.5 15.912854,63.7459685 17.270024,64.2177175 L17.8465235,64.43366 L18.006,64.5 L18,28.5 C18,27.5498915 18.3375835,26.6413275 18.9726125,25.900337 L19.2246125,25.6305665 L19.504028,25.377983 L20.015444,25.0270275 L62.015444,1.02702745 C64.2682665,-0.26029945 67.0539065,0.9149405 67.806725,3.2571865 L67.8844215,3.53255095 Z M65.9179355,3.92037315 C65.5877465,2.7999209 64.3214155,2.19065505 63.2245155,2.6559585 L63.007722,2.7635137 L21.082612,26.7162005 L20.7166305,26.965974 C20.3284725,27.2906315 20.079224,27.7495065 20.015932,28.247822 L20,28.499828 L20.0067635,67.8442795 L18.5051995,66.9744225 C16.8460815,66.013294 14.9616677,65.5 13,65.5 C6.92486775,65.5 2,70.424868 2,76.5 C2,82.575132 6.92486775,87.5 13,87.5 C18.9269585,87.5 23.7590785,82.81244 23.9912655,76.9424145 L24,76.5 L24,29.6597135 L61.9997495,7.9428567 L62.0067175,55.844253 L60.5051995,54.9744225 C58.8460815,54.013294 56.961668,53.5 55,53.5 C48.924868,53.5 44,58.424868 44,64.5 C44,70.575132 48.924868,75.5 55,75.5 C60.9269585,75.5 65.7590785,70.81244 65.9912655,64.9424145 L66,64.5 L66.0034315,4.58277275 L65.966,4.13 L65.9179355,3.92037315 Z" />
            <path id="highlight" fill="#FFF" d="M11.5921223,68.278646 C12.144407,68.278646 12.5921223,68.7263615 12.5921223,69.278646 C12.5921223,69.830931 12.144407,70.278646 11.5921223,70.278646 C9.1440586,70.278646 7.270293,72.2728035 5.98067205,76.557924 C5.82151175,77.086778 5.26376605,77.3864735 4.73491215,77.2273135 C4.20605825,77.068153 3.9063624,76.5104075 4.0655227,75.9815535 C5.58122445,70.945217 8.0868088,68.278646 11.5921223,68.278646 Z M53.569025,57.5 C54.1213095,57.5 54.569025,57.9477155 54.569025,58.5 C54.569025,59.0522845 54.1213095,59.5 53.569025,59.5 C51.120961,59.5 49.2471955,61.4941575 47.9575745,65.779278 C47.7984145,66.308132 47.2406685,66.6078275 46.711815,66.4486675 C46.182961,66.289507 45.883265,65.7317615 46.0424255,65.2029075 C47.558127,60.166571 50.0637115,57.5 53.569025,57.5 Z" />
        </g>
    </g>
</svg>