<svg xmlns="http://www.w3.org/2000/svg" viewBox="0 0 144 144">
    <rect id="background" width="144" height="144" x="0" y="0" fill="#1E183C" fill-rule="nonzero" />
    <g id="icon" fill-rule="nonzero" transform="translate(31 31.5)">
        <path id="Icon-Fill" fill="#FFF" d="M21.5555555,48.722222 L21.85947,48.7339225 C23.865202,48.888965 25.4444445,50.565612 25.4444445,52.611111 L25.4444445,52.611111 L25.4444445,75.9444445 L25.432744,76.248359 C25.285454,78.153804 23.7649155,79.674343 21.85947,79.821633 L21.85947,79.821633 L21.5555555,79.8333335 L13.7777778,79.8333335 L13.4738634,79.821633 C11.4681314,79.6665905 9.8888889,77.9899435 9.8888889,75.9444445 L9.8888889,75.9444445 L9.8888889,52.611111 L9.9005891,52.3071965 C10.0556315,50.3014645 11.7322787,48.722222 13.7777778,48.722222 L13.7777778,48.722222 L21.5555555,48.722222 Z M68.222222,48.722222 L68.5261365,48.7339225 C70.5318685,48.888965 72.111111,50.565612 72.111111,52.611111 L72.111111,52.611111 L72.111111,75.9444445 L72.099411,76.248359 C71.9521205,78.153804 70.431582,79.674343 68.5261365,79.821633 L68.5261365,79.821633 L68.222222,79.8333335 L60.4444445,79.8333335 L60.14053,79.821633 C58.134798,79.6665905 56.5555555,77.9899435 56.5555555,75.9444445 L56.5555555,75.9444445 L56.5555555,52.611111 L56.567256,52.3071965 C56.722298,50.3014645 58.3989455,48.722222 60.4444445,48.722222 L60.4444445,48.722222 L68.222222,48.722222 Z M41,2.05555555 C62.113711,2.05555555 79.297512,18.8814975 79.8739485,39.8559255 L79.8739485,39.8559255 L79.888889,40.9444445 L79.888889,62.3333335 L79.875807,62.5600965 C79.772126,63.452756 79.063867,64.161015 78.1712075,64.264696 L78.1712075,64.264696 L77.9444445,64.277778 L77.709421,64.263719 C76.8619295,64.161614 76.1822475,63.51434 76.0313275,62.6828495 L76.0313275,62.6828495 L76,62.3333335 L76,40.9444445 L75.993947,40.286904 C75.6433905,21.2603645 60.1103075,5.94444445 41,5.94444445 C22.0152115,5.94444445 6.56081115,21.059831 6.0149221,39.91248 L6.0149221,39.91248 L6,40.9444445 L6,62.3333335 L5.9869183,62.5600965 C5.88323735,63.452756 5.17497805,64.161015 4.28231885,64.264696 L4.28231885,64.264696 L4.05555555,64.277778 L3.8205322,64.263719 C2.9730408,64.161614 2.29335855,63.51434 2.1424387,62.6828495 L2.1424387,62.6828495 L2.1111111,62.3333335 L2.1111111,40.9444445 L2.1170065,40.2603815 C2.4820213,19.0982245 19.7507465,2.05555555 41,2.05555555 Z" opacity=".9" />
        <path id="shadow-with-outline" fill="#000" d="M41,0.15079365 C60.222883,0.15079365 76.3928345,13.465906 80.6808865,31.454296 C82.608354,35.8865655 83.733575,40.748239 83.8739485,45.8559255 L83.888889,46.9444445 L83.888889,68.3333335 C83.888889,69.4072205 83.0183315,70.277778 81.9444445,70.277778 C80.989878,70.277778 80.1959675,69.58993 80.0313275,68.6828495 L80,68.3333335 L80.0003225,65.5881105 C79.405535,65.9645955 78.7004415,66.1825395 77.9444445,66.1825395 C77.284296,66.1825395 76.659096,66.0153245 76.1109715,65.7112795 L76.111111,81.9444445 C76.111111,84.0922185 74.369996,85.8333335 72.222222,85.8333335 L64.4444445,85.8333335 C62.2966705,85.8333335 60.5555555,84.0922185 60.5555555,81.9444445 L60.555349,81.7377935 L60.4444445,81.738095 C57.358976,81.738095 54.8368455,79.32616 54.6606285,76.2848655 L54.6507935,75.9444445 L54.6507935,52.611111 C54.6507935,49.5256425 57.062729,47.003512 60.1040235,46.8272955 L60.4444445,46.8174605 L68.222222,46.8174605 C71.3076905,46.8174605 73.8298215,49.2293955 74.006038,52.27069 L74.015873,52.611111 L74.016247,55.1598555 C74.042763,55.1736675 74.0691,55.1877755 74.095253,55.202176 L74.095238,40.9444445 C74.095238,32.2035935 70.7066585,24.2541875 65.171493,18.3382215 C59.470061,14.3106048 52.5113535,11.9444445 45,11.9444445 C26.0152115,11.9444445 10.5608111,27.059831 10.0149221,45.91248 L10,46.9444445 L10.0000741,48.2183325 C10.9340867,47.414367 12.1273358,46.9032 13.4373568,46.8272955 L13.7777778,46.8174605 L21.5555555,46.8174605 C24.641024,46.8174605 27.1631545,49.2293955 27.3393715,52.27069 L27.3492065,52.611111 L27.349414,55.159769 C28.5943445,55.8081525 29.4444445,57.110356 29.4444445,58.611111 L29.4444445,81.9444445 C29.4444445,84.0922185 27.7033295,85.8333335 25.5555555,85.8333335 L17.7777778,85.8333335 C15.6300037,85.8333335 13.8888889,84.0922185 13.8888889,81.9444445 L13.8888492,81.7377935 L13.7777778,81.738095 C10.6923094,81.738095 8.1701787,79.32616 7.9939621,76.2848655 L7.984127,75.9444445 L7.9838492,70.2752935 L7.9539167,70.275167 C7.04508405,70.228366 6.30119855,69.557534 6.1424387,68.6828495 L6.1111111,68.3333335 L6.1114334,65.5881105 C5.51664625,65.9645955 4.81155265,66.1825395 4.05555555,66.1825395 C2.29091695,66.1825395 0.77599805,64.9877135 0.31544715,63.1784385 L0.2452822,62.8528945 L0.2063492,62.3333335 L0.2063492,40.9444445 C0.2063492,18.4147332 18.4702888,0.15079365 41,0.15079365 Z M20.999849,48.7217935 L13.7777778,48.722222 L13.6504248,48.724268 C11.6630788,48.788209 10.0524014,50.343251 9.9005891,52.3071965 L9.9005891,52.3071965 L9.8888889,52.611111 L9.8888889,75.9444445 L9.89093475,76.0717975 C9.95487575,78.0591435 11.5099175,79.669821 13.4738634,79.821633 L13.4738634,79.821633 L13.7777778,79.8333335 L20.999849,79.8333335 L20.999849,48.7217935 Z M68.222222,48.722222 L60.999849,48.7217935 L60.999849,79.8333335 L68.222222,79.8333335 L68.5261365,79.821633 L68.652585,79.80979 C70.4984835,79.6065735 71.955394,78.111461 72.099411,76.248359 L72.099411,76.248359 L72.111111,75.9444445 L72.111111,52.611111 L72.109065,52.483758 C72.045124,50.496412 70.4900825,48.885735 68.5261365,48.7339225 L68.5261365,48.7339225 L68.222222,48.722222 Z M23.0003115,48.999438 L23.000249,79.5561425 C24.3431865,79.0184755 25.316397,77.753502 25.432744,76.248359 L25.432744,76.248359 L25.4444445,75.9444445 L25.4444445,52.611111 L25.4423985,52.483758 C25.391491,50.9015075 24.3954125,49.558018 23.0003115,48.999438 Z M58.999977,48.9993225 C57.6569225,49.536938 56.6836095,50.801969 56.567256,52.3071965 L56.567256,52.3071965 L56.5555555,52.611111 L56.5555555,75.9444445 L56.5576015,76.0717975 C56.608509,77.654048 57.6045875,78.997538 58.9996885,79.5561175 L58.999977,48.9993225 Z M41,2.05555555 C19.7507465,2.05555555 2.4820213,19.0982245 2.1170065,40.2603815 L2.1170065,40.2603815 L2.1111111,40.9444445 L2.1111111,62.3333335 L2.1424387,62.6828495 L2.16306405,62.781721 C2.34800165,63.5652495 3.00694045,64.165698 3.8205322,64.263719 L3.8205322,64.263719 L4.05555555,64.277778 L4.28231885,64.264696 L4.380723,64.2507095 C5.22661235,64.1082985 5.88707735,63.4196945 5.9869183,62.5600965 L5.9869183,62.5600965 L6,62.3333335 L6,40.9444445 L6.0149221,39.91248 L6.0357599,39.348033 C6.8702522,20.759035 22.2050595,5.94444445 41,5.94444445 C60.1103075,5.94444445 75.6433905,21.2603645 75.993947,40.286904 L75.993947,40.286904 L76,40.9444445 L76,62.3333335 L76.0313275,62.6828495 L76.051953,62.781721 C76.2368905,63.5652495 76.8958295,64.165698 77.709421,64.263719 L77.709421,64.263719 L77.9444445,64.277778 L78.1712075,64.264696 L78.269612,64.2507095 C79.115501,64.1082985 79.7759665,63.4196945 79.875807,62.5600965 L79.875807,62.5600965 L79.888889,62.3333335 L79.888889,40.9444445 L79.8739485,39.8559255 L79.851686,39.22795 C78.953443,18.5466615 61.9025735,2.05555555 41,2.05555555 Z M41,7.84920635 C25.9374665,7.84920635 13.182931,17.9275244 9.19679155,31.7378055 C15.0836994,17.8942887 28.765224,8.1641546 44.732158,8.0564586 C43.507476,7.91984135 42.261987,7.84920635 41,7.84920635 Z" />
        <path id="Highlight" fill="#FFF" d="M17.6723999,50.892683 C18.2246847,50.892683 18.6723999,51.340398 18.6723999,51.892683 C18.6723999,52.3836025 18.3186496,52.7918995 17.8521512,52.8765715 L17.6723999,52.892683 L15.913325,52.892683 C14.3539329,52.892683 13.0724277,54.082459 12.9270582,55.603763 L12.913325,55.892683 L12.913325,60.8631445 C12.913325,61.415429 12.4656098,61.8631445 11.913325,61.8631445 C11.4224053,61.8631445 11.0141084,61.509394 10.9294364,61.0428955 L10.913325,60.8631445 L10.913325,55.892683 C10.913325,53.241716 12.976397,51.0726055 15.5845737,50.903318 L15.913325,50.892683 L17.6723999,50.892683 Z" />
    </g>
</svg>