<svg xmlns="http://www.w3.org/2000/svg" viewBox="0 0 144 144">
    <rect id="background" width="144" height="144" x="0" y="0" fill-rule="nonzero" fill="#23DE63" />
    <g id="icon">
        <path id="shadow-with-outline" fill="#000" fill-rule="nonzero" d="M75 33c1.5594 0 2.8409 1.1898 2.9863 2.711L78 36v3h3c1.5594 0 2.8409 1.1898 2.9863 2.711L84 42v24h24c1.462 0 2.6796 1.0457 2.9459 2.43l.0404.281L111 69v3h3c1.462 0 2.6796 1.0457 2.9459 2.43l.0404.281L117 75v6c0 1.5594-1.1898 2.8409-2.711 2.9863L114 84H83.996L84 114c0 1.462-1.0457 2.6796-2.43 2.9459l-.281.0404L81 117h-6c-1.5594 0-2.8409-1.1898-2.9863-2.711L72 114v-3h-3c-1.5594 0-2.8409-1.1898-2.9863-2.711L66 108l-.002-24H42c-1.462 0-2.6796-1.0457-2.946-2.43l-.0403-.281L39 81v-3h-3c-1.462 0-2.6796-1.0457-2.946-2.43l-.0403-.281L33 75v-6c0-1.5594 1.1898-2.8409 2.711-2.9863L36 66h30V36c0-1.462 1.0457-2.6796 2.43-2.946l.281-.0403L69 33h6zm34 36c0-.491-.3538-.8992-.8202-.9839L108 68H77c-.491 0-.8992-.3538-.9839-.8202L76 67V36c0-.491-.3538-.8992-.8202-.9839L75 35h-6c-.491 0-.8992.3538-.9839.8202L68 36v31c0 .491-.3538.8992-.8202.9839L67 68H36c-.491 0-.8992.3538-.9839.8202L35 69v6c0 .491.3538.8992.8202.9839L36 76h30.998c.4909 0 .8992.3537.9839.8202l.0161.1797L68 108c0 .491.3538.8992.8202.9839L69 109h6c.491 0 .8992-.3538.9839-.8202l.0161-.1797-.002-31c0-.491.3537-.8993.8202-.984L76.998 76H108c.491 0 .8992-.3538.9839-.8202L109 75v-6z" />
        <path id="Icon-fill" fill="#FFF" fill-rule="nonzero" d="M69 35h6c.5523 0 1 .4477 1 1v31c0 .5523.4477 1 1 1h31c.5523 0 1 .4477 1 1v6c0 .5523-.4477 1-1 1H76.998c-.5523 0-1 .4478-1 1L76 108c0 .5523-.4477 1-1 1h-6c-.5523 0-1-.4477-1-1l-.002-31c0-.5523-.4477-1-1-1H36c-.5523 0-1-.4477-1-1v-6c0-.5523.4477-1 1-1h31c.5523 0 1-.4477 1-1V36c0-.5523.4477-1 1-1z" opacity=".5" />
        <path id="Highlight" stroke="#FFF" stroke-linecap="round" stroke-width="2" d="M39.018 71h13.871" />
    </g>
</svg>