<svg xmlns="http://www.w3.org/2000/svg" viewBox="0 0 144 144">
    <g id="System" fill="none" fill-rule="evenodd" stroke="none" stroke-width="1">
        <rect id="Background" width="144" height="144" x="0" y="0" fill="#1B0371" fill-rule="nonzero" />
        <g id="icon" fill-rule="nonzero" transform="translate(23 31)">
            <path id="icon" opacity=".5" fill="#FFF" d="M91,2 C93.7614235,2 96,4.23857625 96,7 L96,55 C96,57.7614235 93.7614235,60 91,60 L51,60 C50.4477155,60 50,60.4477155 50,61 L50,75 C50,75.5522845 50.4477155,76 51,76 L71,76 C71.5522845,76 72,76.4477155 72,77 L72,79 C72,79.5522845 71.5522845,80 71,80 L27,80 C26.4477152,80 26,79.5522845 26,79 L26,77 C26,76.4477155 26.4477152,76 27,76 L45,76 C45.5522845,76 46,75.5522845 46,75 L46,61 C46,60.4477155 45.5522845,60 45,60 L7,60 C4.23857625,60 2,57.7614235 2,55 L2,7 C2,4.23857625 4.23857625,2 7,2 L91,2 Z M48,47 C45.2385765,47 43,49.2385765 43,52 C43,54.7614235 45.2385765,57 48,57 C50.7614235,57 53,54.7614235 53,52 C53,49.2385765 50.7614235,47 48,47 Z" />
            <path id="shadow-with-outline" fill="#000" d="M91,0 C94.548677,0 97.4805975,2.640649 97.9379875,6.0641734 C101.235029,6.50279305 103.807183,9.24164705 103.989643,12.6159296 L104,13 L104,61 C104,64.737127 101.071445,67.790253 97.3840705,67.9896425 L97,68 L58,68 L58,74 L71,74 C72.46193,74 73.6796235,75.0457015 73.9459055,76.42993 L73.986267,76.71108 L74,77 L74,79 C74,79.351161 73.9396655,79.68823 73.828797,80.001406 L77,80 C78.46193,80 79.6796235,81.0457015 79.9459055,82.42993 L79.986267,82.71108 L80,83 L80,85 C80,86.559392 78.810224,87.8408975 77.28892,87.986267 L77,88 L33,88 C31.440608,88 30.1591025,86.810224 30.013733,85.28892 L30,85 L30,83 C30,82.649583 30.0600795,82.3131985 30.170499,82.000585 L27,82 C25.4406077,82 24.1591027,80.810224 24.0137332,79.28892 L24,79 L24,77 C24,75.440608 25.1897762,74.1591025 26.71108,74.013733 L27,74 L44,74 L44,68 L13,68 C9.45132305,68 6.5194027,65.359351 6.0620126,61.9358265 C2.89177995,61.514077 0.3917474,58.9656315 0.04192115,55.770496 L0.01035775,55.3840705 L0,55 L0,7 C0,3.2628732 2.9285552,0.2097471 6.6159296,0.01035775 L7,0 L91,0 Z M91,2 L7,2 C4.3490332,2 2.17992265,4.06307185 2.01063535,6.6712486 L2,7 L2,55 C2,57.650967 4.06307185,59.8200775 6.6712486,59.9893645 L7,60 L45,60 C45.49092,60 45.8992165,60.3537505 45.9838885,60.8202485 L46,61 L46,75 C46,75.49092 45.6462495,75.8992165 45.1797515,75.9838885 L45,76 L27,76 C26.5090802,76 26.1007832,76.3537505 26.0161114,76.8202485 L26,77 L26,79 C26,79.49092 26.3537503,79.8992165 26.8202487,79.9838885 L27,80 L71,80 C71.49092,80 71.8992165,79.6462495 71.9838885,79.1797515 L72,79 L72,77 C72,76.50908 71.6462495,76.1007835 71.1797515,76.0161115 L71,76 L51,76 C50.50908,76 50.1007835,75.6462495 50.0161115,75.1797515 L50,75 L50,61 C50,60.50908 50.3537505,60.1007835 50.8202485,60.0161115 L51,60 L91,60 C93.650967,60 95.8200775,57.936928 95.9893645,55.3287515 L96,55 L96,7 C96,6.87025025 95.995058,6.7416548 95.9853515,6.6143916 L95.9621535,6.38173875 L95.900175,6.0009516 L95.835105,5.7216989 C95.299999,3.69228465 93.521091,2.1678258 91.363038,2.0129781 L91,2 Z M48,47 C50.7614235,47 53,49.2385765 53,52 C53,54.7614235 50.7614235,57 48,57 C45.2385765,57 43,54.7614235 43,52 C43,49.2385765 45.2385765,47 48,47 Z" />
            <path id="Highlight" fill="#FCFBFF" d="M20.8253913,16.2928932 C21.172524,16.6400259 21.2110943,17.1788747 20.9411022,17.568611 L20.8253913,17.7071068 L11.7071068,26.8253915 C11.3165825,27.2159155 10.6834175,27.2159155 10.2928932,26.8253915 C9.9457605,26.4782585 9.9071902,25.93941 10.1771823,25.5496735 L10.2928932,25.4111775 L19.4111777,16.2928932 C19.801702,15.9023689 20.434867,15.9023689 20.8253913,16.2928932 Z M19.8952863,10.0420068 C20.2424191,10.3891396 20.2809893,10.9279883 20.0109973,11.3177246 L19.8952863,11.4562204 L10.7770018,20.574505 C10.3864776,20.965029 9.7533126,20.965029 9.3627883,20.574505 C9.0156556,20.227372 8.9770853,19.6885235 9.2470774,19.298787 L9.3627883,19.1602915 L18.4810728,10.0420068 C18.8715971,9.65148255 19.504762,9.65148255 19.8952863,10.0420068 Z M28.582751,8.53553365 C28.9298835,8.88266635 28.968454,9.42151515 28.698462,9.8112514 L28.582751,9.9497472 L23.7071068,14.8253913 C23.3165825,15.2159156 22.6834175,15.2159156 22.2928932,14.8253913 C21.9457605,14.4782586 21.9071902,13.9394098 22.1771823,13.5496735 L22.2928932,13.4111777 L27.1685375,8.53553365 C27.5590615,8.14500935 28.1922265,8.14500935 28.582751,8.53553365 Z" />
        </g>
    </g>
</svg>