<svg xmlns="http://www.w3.org/2000/svg" viewBox="0 0 144 144">
    <rect id="background" width="144" height="144" x="0" y="0" fill="#CFD924" fill-rule="nonzero"/>
    <g id="icon" fill-rule="nonzero" transform="translate(29 27)">
        <path id="Icon-fill" fill="#FFF" d="M43,2 C65.6436745,2 84,20.3563253 84,43 C84,51.565248 81.36874,59.733045 76.5413115,66.5853445 C75.1036275,68.626066 75.2280585,74.233054 76.737798,83.848451 C76.818033,84.359461 76.6971495,84.8816825 76.4005305,85.305458 C75.844067,86.1004705 74.7995855,86.3777995 73.929271,85.9774565 L73.539886,85.7491555 L72.428213,84.977087 L71.271057,84.1998535 C65.8197985,80.5941805 62.4120075,79.179489 60.584879,80.048312 C55.1385065,82.638132 49.1669265,84 43,84 C20.3563252,84 2,65.6436745 2,43 C2,20.3563253 20.3563252,2 43,2 Z M43,37 C39.6862915,37 37,39.6862915 37,43 C37,46.3137085 39.6862915,49 43,49 C46.3137085,49 49,46.3137085 49,43 C49,39.6862915 46.3137085,37 43,37 Z M61,37 C57.6862915,37 55,39.6862915 55,43 C55,46.3137085 57.6862915,49 61,49 C64.3137085,49 67,46.3137085 67,43 C67,39.6862915 64.3137085,37 61,37 Z M25,37 C21.6862915,37 19,39.6862915 19,43 C19,46.3137085 21.6862915,49 25,49 C28.3137085,49 31,46.3137085 31,43 C31,39.6862915 28.3137085,37 25,37 Z" opacity=".5"/>
        <path id="shadow-with-outline" fill="#000" d="M43,0 C58.8664845,0 72.7258555,8.5934735 80.1776875,21.3799949 C90.3917535,29.041718 97,41.2491395 97,55 C97,63.994123 94.1728805,72.3279375 89.358812,79.161272 C88.1437155,80.886042 88.2660095,86.396731 89.725695,95.6933385 C89.84605,96.4598675 89.664721,97.243214 89.219784,97.8788895 C88.375289,99.085409 86.8035215,99.4803365 85.5113665,98.8859475 L85.041882,98.61633 L83.8598805,97.799886 L82.735305,97.045015 C77.6211305,93.666163 74.3808,92.301628 73.0143135,92.95141 C67.555143,95.547316 61.447218,97 55,97 C41.2491395,97 29.041718,90.3917535 21.3802175,80.177743 C8.5934735,72.7258555 0,58.8664845 0,43 C0,19.2517558 19.2517558,0 43,0 Z M43,2 C20.3563252,2 2,20.3563252 2,43 C2,65.6436745 20.3563252,84 43,84 C49.1669265,84 55.1385065,82.638132 60.584879,80.048312 C62.2859985,79.239408 65.357276,80.4099115 70.172216,83.485145 L71.271057,84.1998535 L72.428213,84.977087 L73.539886,85.7491555 L73.929271,85.9774565 C74.7995855,86.3777995 75.844067,86.1004705 76.4005305,85.305458 C76.6971495,84.8816825 76.818033,84.359461 76.737798,83.848451 L76.48579,82.193136 C75.218825,73.5857485 75.188197,68.506024 76.5413115,66.5853445 C81.36874,59.733045 84,51.565248 84,43 C84,20.3563252 65.6436745,2 43,2 Z M25,36 C25.300923,36 25.597411,36.0189885 25.8883315,36.0558325 L26.4078755,36.141628 L26.4078755,36.141628 L26.543944,36.170833 C26.7334255,36.213474 26.920447,36.2639405 27.1041985,36.321782 L27.6955965,36.537856 L27.6955965,36.537856 L27.88372,36.619698 L27.88372,36.619698 C28.3799025,36.844261 28.8457115,37.1253745 29.272456,37.454649 L29.467669,37.6108935 L29.467669,37.6108935 L29.7402975,37.8492625 L29.7402975,37.8492625 L29.990453,38.0912935 L30.2901935,38.415746 L30.2901935,38.415746 L30.4675765,38.6285875 L30.4675765,38.6285875 L30.704842,38.942597 L30.704842,38.942597 L30.934419,39.2857455 L31.1290415,39.615787 L31.3600565,40.0719705 L31.3600565,40.0719705 L31.530181,40.473523 L31.530181,40.473523 L31.656608,40.8283535 L31.656608,40.8283535 L31.7890235,41.287538 L31.7890235,41.287538 L31.84272,41.517556 L31.886491,41.7377265 C31.9607995,42.1444125 32,42.5676285 32,43 C32,46.865993 28.865993,50 25,50 C24.6386965,50 24.2837865,49.972627 23.9372305,49.919842 L23.454,49.826 L23.076619,49.732446 L23.076619,49.732446 L22.661782,49.599829 L22.661782,49.599829 L22.2599925,49.442586 L22.2599925,49.442586 L21.8493935,49.252495 L21.8493935,49.252495 L21.6041045,49.121923 L21.6041045,49.121923 C21.331109,48.970803 21.0696065,48.8015245 20.8208415,48.616107 C20.6887717,48.5172785 20.55984,48.41395 20.4347583,48.3062725 L20.2394382,48.131968 L20.2394382,48.131968 L19.8492538,47.740259 L19.8492538,47.740259 L19.7737327,47.6569445 C19.6629756,47.532527 19.5567368,47.404555 19.4550864,47.272859 C19.1253745,46.8457115 18.8442609,46.3799025 18.6194491,45.88317 L18.538295,45.6966075 L18.538295,45.6966075 C18.426924,45.4299685 18.3318924,45.1560435 18.2539508,44.8750115 C18.1722779,44.5804705 18.1094184,44.278431 18.0666595,43.9699655 C18.0227101,43.6528845 18,43.3290945 18,43 C18,39.262873 20.9285552,36.209747 24.6159295,36.0103575 L25,36 Z M43,36 C43.300923,36 43.597411,36.0189885 43.8883315,36.0558325 L44.4078755,36.141628 L44.4078755,36.141628 L44.543944,36.170833 C44.7334255,36.213474 44.920447,36.2639405 45.1041985,36.321782 L45.6955965,36.537856 L45.6955965,36.537856 L45.88372,36.619698 L45.88372,36.619698 C46.3799025,36.844261 46.8457115,37.1253745 47.272456,37.454649 L47.467669,37.6108935 L47.467669,37.6108935 L47.7402975,37.8492625 L47.7402975,37.8492625 L47.990453,38.0912935 L48.2901935,38.415746 L48.2901935,38.415746 L48.4675765,38.6285875 L48.4675765,38.6285875 L48.704842,38.942597 L48.704842,38.942597 L48.934419,39.2857455 L49.1290415,39.615787 L49.3600565,40.0719705 L49.3600565,40.0719705 L49.530181,40.473523 L49.530181,40.473523 L49.656608,40.8283535 L49.656608,40.8283535 L49.7890235,41.287538 L49.7890235,41.287538 L49.84272,41.517556 L49.886491,41.7377265 C49.9607995,42.1444125 50,42.5676285 50,43 C50,46.865993 46.865993,50 43,50 C42.6386965,50 42.2837865,49.972627 41.9372305,49.919842 L41.454,49.826 L41.076619,49.732446 L41.076619,49.732446 L40.661782,49.599829 L40.661782,49.599829 L40.2599925,49.442586 L40.2599925,49.442586 L39.8493935,49.252495 L39.8493935,49.252495 L39.6041045,49.121923 L39.6041045,49.121923 C39.331109,48.970803 39.0696065,48.8015245 38.8208415,48.616107 C38.6887715,48.5172785 38.55984,48.41395 38.4347585,48.3062725 L38.2394385,48.131968 L38.2394385,48.131968 L37.849254,47.740259 L37.849254,47.740259 L37.7737325,47.6569445 C37.6629755,47.532527 37.556737,47.404555 37.4550865,47.272859 C37.1253745,46.8457115 36.844261,46.3799025 36.619449,45.88317 L36.538295,45.6966075 L36.538295,45.6966075 C36.426924,45.4299685 36.3318925,45.1560435 36.2539505,44.8750115 C36.172278,44.5804705 36.1094185,44.278431 36.0666595,43.9699655 C36.02271,43.6528845 36,43.3290945 36,43 C36,39.262873 38.928555,36.209747 42.6159295,36.0103575 L43,36 Z M61,36 C61.300923,36 61.597411,36.0189885 61.8883315,36.0558325 L62.4078755,36.141628 L62.4078755,36.141628 L62.543944,36.170833 C62.7334255,36.213474 62.920447,36.2639405 63.1041985,36.321782 L63.6955965,36.537856 L63.6955965,36.537856 L63.88372,36.619698 L63.88372,36.619698 C64.3799025,36.844261 64.8457115,37.1253745 65.272456,37.454649 L65.467669,37.6108935 L65.467669,37.6108935 L65.7402975,37.8492625 L65.7402975,37.8492625 L65.990453,38.0912935 L66.2901935,38.415746 L66.2901935,38.415746 L66.4675765,38.6285875 L66.4675765,38.6285875 L66.704842,38.942597 L66.704842,38.942597 L66.934419,39.2857455 L67.1290415,39.615787 L67.3600565,40.0719705 L67.3600565,40.0719705 L67.530181,40.473523 L67.530181,40.473523 L67.656608,40.8283535 L67.656608,40.8283535 L67.7890235,41.287538 L67.7890235,41.287538 L67.84272,41.517556 L67.886491,41.7377265 C67.9607995,42.1444125 68,42.5676285 68,43 C68,46.865993 64.865993,50 61,50 C60.6386965,50 60.2837865,49.972627 59.9372305,49.919842 L59.454,49.826 L59.076619,49.732446 L59.076619,49.732446 L58.661782,49.599829 L58.661782,49.599829 L58.2599925,49.442586 L58.2599925,49.442586 L57.8493935,49.252495 L57.8493935,49.252495 L57.6041045,49.121923 L57.6041045,49.121923 C57.331109,48.970803 57.0696065,48.8015245 56.8208415,48.616107 C56.6887715,48.5172785 56.55984,48.41395 56.4347585,48.3062725 L56.2394385,48.131968 L56.2394385,48.131968 L55.849254,47.740259 L55.849254,47.740259 L55.7737325,47.6569445 C55.6629755,47.532527 55.556737,47.404555 55.4550865,47.272859 C55.1253745,46.8457115 54.844261,46.3799025 54.619449,45.88317 L54.538295,45.6966075 L54.538295,45.6966075 C54.426924,45.4299685 54.3318925,45.1560435 54.2539505,44.8750115 C54.172278,44.5804705 54.1094185,44.278431 54.0666595,43.9699655 C54.02271,43.6528845 54,43.3290945 54,43 C54,39.262873 56.928555,36.209747 60.6159295,36.0103575 L61,36 Z M29,41 C25.6862915,41 23,43.6862915 23,47 C23,47.201724 23.009955,47.401123 23.0294005,47.5977325 C23.6364085,47.856759 24.3014765,48 25,48 C27.7614235,48 30,45.7614235 30,43 C30,42.3014765 29.856759,41.6364085 29.5980475,41.032568 C29.401123,41.009955 29.201724,41 29,41 Z M47,41 C43.6862915,41 41,43.6862915 41,47 C41,47.201724 41.009955,47.401123 41.0294005,47.5977325 C41.6364085,47.856759 42.3014765,48 43,48 C45.7614235,48 48,45.7614235 48,43 C48,42.3014765 47.856759,41.6364085 47.5980475,41.032568 C47.401123,41.009955 47.201724,41 47,41 Z M65,41 C61.6862915,41 59,43.6862915 59,47 C59,47.201724 59.009955,47.401123 59.0294005,47.5977325 C59.6364085,47.856759 60.3014765,48 61,48 C63.7614235,48 66,45.7614235 66,43 C66,42.3014765 65.856759,41.6364085 65.5980475,41.032568 C65.401123,41.009955 65.201724,41 65,41 Z"/>
        <path id="Highlight" fill="#FFF" d="M31.9389575,9.5497054 C32.4662485,9.38544035 33.026865,9.6797308 33.19113,10.2070215 C33.355395,10.7343122 33.0611045,11.2949288 32.533814,11.4591938 C23.3814025,14.3104126 17.102722,20.0805359 13.6302777,28.8266625 C13.4264807,29.339971 12.8451522,29.590879 12.331844,29.387082 C11.8185359,29.1832855 11.5676275,28.601957 11.7714244,28.0886485 C15.4678734,18.7783162 22.2128825,12.5796356 31.9389575,9.5497054 Z"/>
    </g>
</svg>
