<svg xmlns="http://www.w3.org/2000/svg" xmlns:xlink="http://www.w3.org/1999/xlink" viewBox="0 0 144 144">
    <defs>
        <g fill="#000" id="grid">
            <use xlink:href="#dot" transform="translate(30)" />
            <use xlink:href="#dot" transform="translate(25)" />
            <use xlink:href="#dot" transform="translate(20)" />
            <use xlink:href="#dot" transform="translate(15)" />
            <use xlink:href="#dot" transform="translate(10)" />
            <use xlink:href="#dot" transform="translate(5)" />
            <use xlink:href="#dot" />
        </g>
        <g id="bigGrid">
            <use xlink:href="#grid" transform="translate(0 5)" />
            <use xlink:href="#grid" transform="translate(0 10)" />
            <use xlink:href="#grid" transform="translate(0 15)" />
            <use xlink:href="#grid" transform="translate(0 20)" />
            <use xlink:href="#grid" transform="translate(0 25)" />
            <use xlink:href="#grid" transform="translate(0 30)" />
            <use xlink:href="#grid" transform="translate(0 35)" />
            <use xlink:href="#grid" transform="translate(0 40)" />
            <use xlink:href="#grid" transform="translate(0 45)" />
            <use xlink:href="#grid" transform="translate(0 50)" />
        </g>
        <circle id="dot" cx="1.25" cy="1.25" r="1.25" />
        <path id="clipMask" d="M30 .2l.3288.0106c2.5624.1664 4.5986 2.263 4.6693 4.8503L35 5.2v63l-.0106.3288c-.1664 2.5624-2.263 4.5986-4.8503 4.6693L30 73.2h-8l-.1798.0161a1.0005 1.0005 0 00-.817.9029L21 74.2v12l.0161.1798c.08.4405.4486.7805.9029.817L22 87.2h14l.2332.0135C37.228 87.329 38 88.1743 38 89.2c0 1.0711-.842 1.9455-1.9002 1.9976L36 91.2H2l-.2332-.0135C.772 91.071 0 90.2257 0 89.2c0-1.0711.842-1.9455 1.9002-1.9976L2 87.2h14l.1798-.0161c.4405-.08.7805-.4486.817-.9029L17 86.2v-12l-.0161-.1798a1.0005 1.0005 0 00-.9029-.817L16 73.2H8l-.3288-.0106c-2.5624-.1664-4.5986-2.263-4.6693-4.8503L3 68.2v-63l.0106-.3288C3.177 2.3088 5.2736.2726 7.861.202L8 .2h22zm-11 4c-3.3137 0-6 2.6863-6 6s2.6863 6 6 6 6-2.6863 6-6-2.6863-6-6-6z" />
    </defs>
    <g id="wave" fill="none" fill-rule="evenodd" stroke="none" stroke-width="1">
        <path id="background" fill="#1551FF" fill-rule="nonzero" d="M0 0h144v144H0z" />
        <g id="icon" transform="translate(45 25)">
            <path fill="#000" transform="translate(-45 -25)" d="M84 25c1.852 0 3.536.72 4.788 1.894L88.9 27H92a7 7 0 016.99 6.616L99 34v41.977l.002-.093a3 3 0 012.71-2.87L102 73h2a3 3 0 012.986 2.711L107 76v8a3 3 0 01-2.711 2.986L104 87h-2a3 3 0 01-2.986-2.711L99 84v14a7 7 0 01-6.616 6.99L92 105h-8v8h-8 13c1.437 0 2.697.758 3.402 1.896l.063.104H97a4.001 4.001 0 013.954 3.394l.035.307.011.299a4 4 0 01-3.701 3.989L97 123H63a3.998 3.998 0 01-3.465-2H55a4 4 0 01-.299-7.989L55 113h13v-8a6.977 6.977 0 01-4.899-2H60a7.001 7.001 0 01-6.959-6.237l-.03-.379L53 96V82a3 3 0 01-2.711 2.986L50 85h-2a3 3 0 01-2.986-2.711L45 82v-8a3 3 0 012.711-2.986L48 71h2a3 3 0 012.986 2.711L53 74V32a7 7 0 016.616-6.99L60 25h24zm0 2H60l-.14.002a5 5 0 00-4.85 4.67L55 32v64l.002.14a5 5 0 004.67 4.85L60 101h9l.081.003a1 1 0 01.903.817L70 102v12l-.003.081a1 1 0 01-.817.903L69 115H55l-.1.002a2 2 0 00-.133 3.985L55 119h34l.1-.002a2 2 0 00.133-3.985L89 115H75l-.081-.003a1 1 0 01-.903-.817L74 114v-12l.003-.081a1 1 0 01.817-.903L75 101h9l.14-.002a5 5 0 004.85-4.67L89 96V32l-.002-.14a5 5 0 00-4.67-4.85L84 27zM50 73h-2l-.081.003a1 1 0 00-.903.817L47 74v8l.003.081a1 1 0 00.817.903L48 83h2l.081-.003a1 1 0 00.903-.817L51 82v-8l-.003-.081a1 1 0 00-.817-.903L50 73zm46 0h-2l-.081.003a1 1 0 00-.903.817L93 74v8l.003.081a1 1 0 00.817.903L94 83h2l.081-.003a1 1 0 00.903-.817L97 82v-8l-.003-.081a1 1 0 00-.817-.903L96 73z" />
            <path id="wave-fill-blue" fill="#FFF" opacity="0.5" fill-rule="nonzero" d="M39 2l.3288.0106c2.5624.1664 4.5986 2.263 4.6693 4.8503L44 7v64l-.0106.3288c-.1664 2.5624-2.263 4.5986-4.8503 4.6693L39 76h-9l-.1798.0161a1.0005 1.0005 0 00-.817.9029L29 77v12l.0161.1798c.08.4405.4486.7805.9029.817L30 90h14l.2332.0135C45.228 90.129 46 90.9743 46 92c0 1.0711-.842 1.9455-1.9002 1.9976L44 94H10l-.2332-.0135C8.772 93.871 8 93.0257 8 92c0-1.0711.842-1.9455 1.9002-1.9976L10 90h14l.1798-.0161c.4405-.08.7805-.4486.817-.9029L25 89V77l-.0161-.1798a1.0005 1.0005 0 00-.9029-.817L24 76h-9l-.3288-.0106c-2.5624-.1664-4.5986-2.263-4.6693-4.8503L10 71V7l.0106-.3288c.1664-2.5624 2.263-4.5986 4.8503-4.6693L15 2h24zM5 48l.1798.0161c.4405.08.7805.4486.817.9029L6 49v8l-.0161.1798a1.0005 1.0005 0 01-.9029.817L5 58H3l-.1798-.0161a1.0005 1.0005 0 01-.817-.9029L2 57v-8l.0161-.1798c.08-.4405.4486-.7805.9029-.817L3 48h2zm46 0l.1798.0161c.4405.08.7805.4486.817.9029L52 49v8l-.0161.1798a1.0005 1.0005 0 01-.9029.817L51 58h-2l-.1798-.0161a1.0005 1.0005 0 01-.817-.9029L48 57v-8l.0161-.1798c.08-.4405.4486-.7805.9029-.817L49 48h2z" />
            <path id="wave-fill-black" fill="#000" fill-rule="nonzero" d="M27 63c2.2091 0 4 1.7909 4 4 0 2.2091-1.7909 4-4 4-2.2091 0-4-1.7909-4-4 0-2.2091 1.7909-4 4-4zm17-10.5v2H10v-2h34z" />
            <path id="logo" fill="#000" fill-rule="nonzero" d="M27.033 8.8c.8631 0 1.694.2565 2.4016.7415.6912.4738 1.2207 1.1325 1.5306 1.9044.0396.0987.076.2006.1082.303l-.0912.2333-.7167.412-.2936-.1243a2.9795 2.9795 0 00-.0828-.2716c-.4284-1.1972-1.5763-2.0022-2.856-2.0022-1.671 0-3.0301 1.348-3.0301 3.004 0 1.6557 1.359 3.0038 3.03 3.0038.6497 0 1.2687-.2015 1.7915-.583.5123-.374.8874-.8858 1.0783-1.4507l-.0013.0023-.0435.1075-3.472-1.97v1.744l1.25-.6229.6948.394.0006.3475-2.2205 1.157-.7155-.4044-.1016-.174v-3.1534l.1008-.1736.9122-.4086 4.7924 2.7214.098.2096c-.173.956-.6805 1.8285-1.4303 2.4592-.7624.6412-1.7331.9942-2.7339.9942-1.1298 0-2.1931-.4369-2.9923-1.2295-.7995-.793-1.2403-1.8487-1.2403-2.9705s.4408-2.1774 1.2403-2.9704C24.84 9.2369 25.9032 8.8 27.033 8.8z" />
            <path id="Highlight" fill="#FFF" fill-rule="nonzero" d="M13 62c.491 0 .8992.3538.9839.8202L14 63v6.7347C14 70.9858 15.0142 72 16.2653 72c.5523 0 1 .4477 1 1s-.4477 1-1 1c-2.2532 0-4.0984-1.7472-4.2546-3.9607L12 69.7347V63c0-.5523.4477-1 1-1z" />
            <g id="overlays" transform="translate(8 2.8)">
                <g id="dots-Clipped">
                    <mask id="bodyMask" fill="#fff">
                        <use xlink:href="#clipMask" />
                    </mask>
                    <g id="dots" mask="url(#bodyMask)">
                        <g id="dots_grid" transform="translate(2 -5.3)">
                            <use xlink:href="#bigGrid" />
                            <use xlink:href="#bigGrid" transform="translate(2.5 2.8)" />
                        </g>
                    </g>
                </g>
            </g>
        </g>
    </g>
</svg>